<svg width="9843" height="3638" viewBox="0 0 9843 3638" fill="none" xmlns="http://www.w3.org/2000/svg">
<path d="M9843 2782.34H0V2784.16H9843V2782.34Z" fill="#FAFAFA"/>
<path d="M8331.51 2861.5H7842.71V2863.32H8331.51V2861.5Z" fill="#E0E0E0"/>
<path d="M8641.17 2860.56H8476V2862.38H8641.17V2860.56Z" fill="#E0E0E0"/>
<path d="M6536.34 2872.78H5512.87V2874.6H6536.34V2872.78Z" fill="#E0E0E0"/>
<path d="M5271.32 2892.5H5118.75V2894.32H5271.32V2892.5Z" fill="#E0E0E0"/>
<path d="M2203.85 2834.95H1940.84V2836.77H2203.85V2834.95Z" fill="#E0E0E0"/>
<path d="M3647.03 2834.95H2313.11V2836.77H3647.03V2834.95Z" fill="#E0E0E0"/>
<path d="M2509.96 2878.89H1581.97V2880.71H2509.96V2878.89Z" fill="#E0E0E0"/>
<path d="M4665.58 2457.83H864.411C834.633 2457.81 806.093 2453.43 785.055 2445.64C764.017 2437.85 752.201 2427.29 752.201 2416.29V441.362C752.46 430.419 764.391 419.956 785.4 412.245C806.41 404.534 834.803 400.198 864.411 400.18H4665.58C4695.39 400.18 4723.98 404.557 4745.07 412.348C4766.15 420.14 4777.99 430.707 4777.99 441.726V2416.29C4777.99 2427.31 4766.15 2437.87 4745.07 2445.66C4723.98 2453.46 4695.39 2457.83 4665.58 2457.83ZM864.411 401.635C835.939 401.654 808.65 405.848 788.535 413.296C768.42 420.744 757.123 430.838 757.123 441.362V2416.29C757.123 2426.81 768.42 2436.9 788.535 2444.35C808.65 2451.8 835.939 2455.99 864.411 2456.01H4665.58C4694.07 2455.99 4721.38 2451.8 4741.53 2444.36C4761.67 2436.91 4773.02 2426.82 4773.07 2416.29V441.362C4773.02 430.832 4761.67 420.738 4741.53 413.292C4721.38 405.846 4694.07 401.654 4665.58 401.635H864.411Z" fill="#E0E0E0"/>
<path d="M8923.86 2457.83H5122.49C5092.7 2457.81 5064.14 2453.43 5043.07 2445.64C5022 2437.86 5010.14 2427.3 5010.09 2416.29V441.362C5010.4 430.412 5022.37 419.949 5043.41 412.24C5064.45 404.532 5092.87 400.198 5122.49 400.18H8923.86C8953.43 400.218 8981.78 404.562 9002.74 412.27C9023.71 419.979 9035.61 430.431 9035.87 441.362V2416.29C9035.87 2427.28 9024.08 2437.83 9003.09 2445.61C8982.09 2453.4 8953.6 2457.79 8923.86 2457.83ZM5122.49 401.635C5094 401.654 5066.69 405.846 5046.55 413.292C5026.4 420.738 5015.06 430.832 5015.01 441.362V2416.29C5015.06 2426.82 5026.4 2436.91 5046.55 2444.36C5066.69 2451.8 5094 2455.99 5122.49 2456.01H8923.86C8952.35 2455.99 8979.66 2451.8 8999.81 2444.36C9019.95 2436.91 9031.29 2426.82 9031.34 2416.29V441.362C9031.29 430.832 9019.95 420.738 8999.81 413.292C8979.66 405.846 8952.35 401.654 8923.86 401.635H5122.49Z" fill="#E0E0E0"/>
<path d="M6727.69 2782.34H7423.2V2315.81H6727.69V2782.34Z" fill="#E0E0E0"/>
<path d="M8252.96 2315.8H7423.2V2782.34H8252.96V2315.8Z" fill="#EBEBEB"/>
<g opacity="0.7" style="mix-blend-mode:multiply">
<path d="M6727.69 2376.41H8260.25V2355.31H6727.69V2376.41Z" fill="#E0E0E0"/>
</g>
<path d="M6689.3 2364.12H7423.2V2266.91H6689.3V2364.12Z" fill="#E0E0E0"/>
<path d="M8291.35 2266.98H7423.2V2364.19H8291.35V2266.98Z" fill="#EBEBEB"/>
<path d="M3820.27 538.352H1479.01V1570.82H3820.27V538.352Z" fill="#E0E0E0"/>
<path d="M3927.55 538.352H1529.21V1570.82H3927.55V538.352Z" fill="#EBEBEB"/>
<path d="M3820.27 1570.82H1479.01V1644.38H3820.27V1570.82Z" fill="#E0E0E0"/>
<path d="M4105.91 1570.82H1707.56V1644.38H4105.91V1570.82Z" fill="#EBEBEB"/>
<path d="M3777.55 1515.37V593.793H1679.22V1515.37H3777.55Z" fill="#F5F5F5"/>
<path d="M1936.71 1515.37L2816.87 593.793H3232.24L2352.28 1515.37H1936.71Z" fill="#FAFAFA"/>
<path d="M1748.51 1202.72C1745.67 1202.71 1742.97 1202.28 1740.98 1201.53C1738.99 1200.78 1737.88 1199.77 1737.88 1198.72V629.812C1737.88 628.77 1739 627.77 1740.99 627.034C1742.99 626.297 1745.69 625.883 1748.51 625.883C1751.35 625.883 1754.07 626.294 1756.1 627.029C1758.12 627.764 1759.29 628.763 1759.34 629.812V1198.72C1759.34 1199.78 1758.2 1200.8 1756.17 1201.55C1754.14 1202.3 1751.38 1202.72 1748.51 1202.72Z" fill="#EBEBEB"/>
<path d="M2441.46 1515.37L3321.62 593.793H3483.63L2603.47 1515.37H2441.46Z" fill="#FAFAFA"/>
<path d="M3777.35 1515.37V593.793H3758.25V1515.37H3777.35Z" fill="#E0E0E0"/>
<path d="M3962.79 664.663H1621.73L1607.95 615.332H3949.01L3962.79 664.663Z" fill="#E0E0E0"/>
<path d="M3962.79 700.826H1621.73L1607.95 651.422H3949.01L3962.79 700.826Z" fill="#E0E0E0"/>
<path d="M3962.79 744.189H1621.73L1607.95 694.785H3949.01L3962.79 744.189Z" fill="#E0E0E0"/>
<path d="M3962.79 792.429H1621.73L1607.95 743.098H3949.01L3962.79 792.429Z" fill="#E0E0E0"/>
<path d="M3962.79 850.271H1621.73L1607.95 800.867H3949.01L3962.79 850.271Z" fill="#E0E0E0"/>
<path d="M3962.79 915.249H1621.73L1607.95 865.918H3949.01L3962.79 915.249Z" fill="#E0E0E0"/>
<path d="M8078.35 538.352H5737.09V1570.82H8078.35V538.352Z" fill="#E0E0E0"/>
<path d="M8185.44 538.352H5787.09V1570.82H8185.44V538.352Z" fill="#EBEBEB"/>
<path d="M8078.35 1570.82H5737.09V1644.38H8078.35V1570.82Z" fill="#E0E0E0"/>
<path d="M8363.99 1570.82H5965.64V1644.38H8363.99V1570.82Z" fill="#EBEBEB"/>
<path d="M8035.63 1515.37V593.793H5937.3V1515.37H8035.63Z" fill="#F5F5F5"/>
<path d="M6194.79 1515.37L7074.95 593.793H7490.32L6610.16 1515.37H6194.79Z" fill="#FAFAFA"/>
<path d="M6006.59 1202.72C6003.75 1202.71 6001.05 1202.28 5999.06 1201.53C5997.07 1200.78 5995.96 1199.77 5995.96 1198.72V629.812C5995.96 628.77 5997.08 627.77 5999.07 627.034C6001.07 626.297 6003.77 625.883 6006.59 625.883C6009.41 625.883 6012.11 626.297 6014.11 627.034C6016.1 627.77 6017.22 628.77 6017.22 629.812V1198.72C6017.22 1199.77 6016.11 1200.78 6014.12 1201.53C6012.13 1202.28 6009.43 1202.71 6006.59 1202.72Z" fill="#EBEBEB"/>
<path d="M6699.54 1515.37L7579.7 593.793H7741.52L6861.55 1515.37H6699.54Z" fill="#FAFAFA"/>
<path d="M8035.43 1515.37V593.793H8016.33V1515.37H8035.43Z" fill="#E0E0E0"/>
<path d="M8220.87 664.663H5879.81L5865.84 615.332H8207.09L8220.87 664.663Z" fill="#E0E0E0"/>
<path d="M8220.87 700.826H5879.81L5865.84 651.422H8207.09L8220.87 700.826Z" fill="#E0E0E0"/>
<path d="M8220.87 744.189H5879.81L5865.84 694.785H8207.09L8220.87 744.189Z" fill="#E0E0E0"/>
<path d="M8220.87 792.429H5879.81L5865.84 743.098H8207.09L8220.87 792.429Z" fill="#E0E0E0"/>
<path d="M8220.87 850.271H5879.81L5865.84 800.867H8207.09L8220.87 850.271Z" fill="#E0E0E0"/>
<path d="M8220.87 915.249H5879.81L5865.84 865.918H8207.09L8220.87 915.249Z" fill="#E0E0E0"/>
<path d="M6260.94 2127.94H5793.39V2782.34H6260.94V2127.94Z" fill="#E0E0E0"/>
<path d="M6171.95 2782.34H6260.74V2702.16H6078.84L6171.95 2782.34Z" fill="#F5F5F5"/>
<path d="M1723.71 2127.94H1256.16V2782.34H1723.71V2127.94Z" fill="#E0E0E0"/>
<path d="M6260.94 2127.94H1646.14V2738.25H6260.94V2127.94Z" fill="#F5F5F5"/>
<path d="M3983.27 2158.5V2594.33H6192.03V2158.5H3983.27Z" fill="#E0E0E0"/>
<path d="M1715.04 2158.5V2594.33H3923.81V2158.5H1715.04Z" fill="#E0E0E0"/>
<path d="M6191.84 2686.44V2637.91H3983.07V2686.44H6191.84Z" fill="#E0E0E0"/>
<path d="M3923.62 2686.52V2637.98H1714.85V2686.52H3923.62Z" fill="#E0E0E0"/>
<path d="M3597.22 2184.55H2042.03C2007.5 2184.55 1973.32 2181.98 1941.55 2176.98C1909.78 2171.98 1881.08 2164.65 1857.18 2155.44H3782.86C3758.87 2164.69 3730.04 2172.03 3698.13 2177.04C3666.21 2182.04 3631.89 2184.59 3597.22 2184.55Z" fill="#F5F5F5"/>
<path d="M5873.71 2184.55H4318.52C4283.99 2184.55 4249.81 2181.98 4218.04 2176.98C4186.27 2171.98 4157.57 2164.65 4133.67 2155.44H6059.35C6035.4 2164.71 6006.58 2172.07 5974.65 2177.07C5942.73 2182.08 5908.38 2184.62 5873.71 2184.55Z" fill="#F5F5F5"/>
<path d="M1734.93 2782.34H1645.95V2702.16H1827.85L1734.93 2782.34Z" fill="#F5F5F5"/>
<g opacity="0.4" style="mix-blend-mode:multiply">
<path d="M5030.95 1726.16H4510.46V2127.94H5030.95V1726.16Z" fill="#E0E0E0"/>
</g>
<path d="M5468.18 2127.94H4587.23L4504.35 1694.07H5385.1L5468.18 2127.94Z" fill="#E0E0E0"/>
<path d="M5568.38 2127.94H4612.23L4529.36 1694.07H5485.31L5568.38 2127.94Z" fill="#F5F5F5"/>
<path d="M4656.53 2111.35L4579.95 1710.66H5441.21L5517.99 2111.35H4656.53Z" fill="#FAFAFA"/>
<path d="M4865 2021.64L4822.68 1800.38H5232.74L5275.06 2021.64H4865Z" fill="#F5F5F5"/>
<path d="M3136.96 2056.71C3263.3 2056.71 3365.72 2018.85 3365.72 1972.16C3365.72 1925.47 3263.3 1887.61 3136.96 1887.61C3010.63 1887.61 2908.21 1925.47 2908.21 1972.16C2908.21 2018.85 3010.63 2056.71 3136.96 2056.71Z" fill="#EBEBEB"/>
<path d="M3528.72 2097.02C3655.05 2097.02 3757.47 2059.16 3757.47 2012.47C3757.47 1965.77 3655.05 1927.92 3528.72 1927.92C3402.38 1927.92 3299.96 1965.77 3299.96 2012.47C3299.96 2059.16 3402.38 2097.02 3528.72 2097.02Z" fill="#EBEBEB"/>
<path d="M3917.96 2029.31C3995.87 2017.45 4033.01 1984.49 4000.92 1955.69C3968.82 1926.9 3879.64 1913.17 3801.74 1925.03C3723.83 1936.9 3686.69 1969.85 3718.79 1998.65C3750.88 2027.44 3840.06 2041.17 3917.96 2029.31Z" fill="#EBEBEB"/>
<path d="M3516.72 1930.08C3530.19 1899.34 3473.69 1870.38 3390.51 1865.4C3307.33 1860.42 3228.99 1881.31 3215.51 1912.05C3202.04 1942.79 3258.55 1971.75 3341.73 1976.73C3424.9 1981.71 3503.25 1960.82 3516.72 1930.08Z" fill="#EBEBEB"/>
<path d="M2771.2 1997.34C2771.2 1997.34 2789.11 2127.94 3475.56 2127.94C4162.02 2127.94 4179.93 1997.34 4179.93 1997.34H2771.2Z" fill="#E0E0E0"/>
<path d="M2137.31 2083.19C2137.31 2083.19 1913.68 1940.73 2223.93 1827.29C2223.93 1827.29 2304.84 1846.79 2302.67 1873.06C2300.51 1899.33 2215.86 1905.87 2234.16 1927.77C2252.47 1949.68 2332.59 1971.43 2280.43 1989.26C2228.26 2007.08 2288.89 2023.38 2285.35 2045.57C2281.8 2067.76 2137.31 2083.19 2137.31 2083.19Z" fill="#E0E0E0"/>
<path d="M2154.24 2096.21C2154.24 2096.21 2244.8 1934.98 1853.63 1863.38C1853.63 1863.38 1793.4 1891.4 1817.02 1916.13C1840.64 1940.87 1927.26 1937.16 1928.64 1959.79C1930.02 1982.42 1871.55 2012.47 1937.3 2023.45C2003.05 2034.44 1958.36 2056.92 1980.61 2077.52C2002.85 2098.11 2154.24 2096.21 2154.24 2096.21Z" fill="#E0E0E0"/>
<path d="M1811.11 2021.64C1811.11 2021.64 1818.59 2127.94 2103.65 2127.94C2388.7 2127.94 2396.18 2021.64 2396.18 2021.64H1811.11Z" fill="#EBEBEB"/>
<path d="M4921.5 3110.93C7029.53 3110.93 8738.42 3074.05 8738.42 3028.56C8738.42 2983.07 7029.53 2946.2 4921.5 2946.2C2813.47 2946.2 1104.58 2983.07 1104.58 3028.56C1104.58 3074.05 2813.47 3110.93 4921.5 3110.93Z" fill="#F5F5F5"/>
<path d="M3552.34 1982.27C3540.67 1981.99 3529.72 1980.08 3521.73 1976.92C3513.73 1973.77 3509.28 1969.61 3509.28 1965.29C3509.28 1960.96 3513.73 1956.8 3521.73 1953.65C3529.72 1950.49 3540.67 1948.58 3552.34 1948.3C3664.94 1948.3 3759.83 1888.71 3759.83 1818.13C3760.59 1813.81 3765.77 1809.77 3774.3 1806.81C3782.84 1803.86 3794.1 1802.21 3805.8 1802.21C3817.49 1802.21 3828.75 1803.86 3837.29 1806.81C3845.82 1809.77 3851 1813.81 3851.76 1818.13C3851.76 1910.17 3720.65 1982.27 3552.34 1982.27Z" fill="#003249"/>
<path d="M4247.06 1982.27C4235.39 1981.99 4224.44 1980.08 4216.45 1976.92C4208.45 1973.77 4204 1969.61 4204 1965.29C4204 1960.96 4208.45 1956.8 4216.45 1953.65C4224.44 1950.49 4235.39 1948.58 4247.06 1948.3C4359.66 1948.3 4454.55 1888.71 4454.55 1818.13C4455.31 1813.81 4460.49 1809.77 4469.02 1806.81C4477.56 1803.86 4488.82 1802.21 4500.51 1802.21C4512.21 1802.21 4523.47 1803.86 4532.01 1806.81C4540.54 1809.77 4545.72 1813.81 4546.48 1818.13C4547.47 1910.17 4414.98 1982.27 4247.06 1982.27Z" fill="#003249"/>
<path d="M4941.19 1982.28C4929.52 1981.99 4918.57 1980.08 4910.58 1976.92C4902.58 1973.77 4898.13 1969.61 4898.13 1965.29C4898.13 1960.96 4902.58 1956.8 4910.58 1953.65C4918.57 1950.49 4929.52 1948.58 4941.19 1948.3C5053.59 1948.3 5148.68 1888.71 5148.68 1818.13C5148.68 1813.63 5153.51 1809.32 5162.11 1806.14C5170.71 1802.96 5182.38 1801.18 5194.55 1801.18C5206.71 1801.18 5218.38 1802.96 5226.98 1806.14C5235.58 1809.32 5240.41 1813.63 5240.41 1818.13C5241 1910.17 5109.7 1982.28 4941.19 1982.28Z" fill="#003249"/>
<path d="M5636.49 1982.28C5630.21 1982.43 5623.9 1982.1 5617.96 1981.32C5612.03 1980.53 5606.59 1979.3 5601.99 1977.71C5597.39 1976.12 5593.73 1974.2 5591.22 1972.06C5588.71 1969.92 5587.42 1967.62 5587.42 1965.29C5587.42 1962.96 5588.71 1960.65 5591.22 1958.51C5593.73 1956.38 5597.39 1954.45 5601.99 1952.86C5606.59 1951.27 5612.03 1950.04 5617.96 1949.26C5623.9 1948.47 5630.21 1948.14 5636.49 1948.3C5748.9 1948.3 5843.98 1888.71 5843.98 1818.13C5843.98 1813.63 5848.82 1809.32 5857.42 1806.14C5866.02 1802.96 5877.69 1801.18 5889.85 1801.18C5902.02 1801.18 5913.69 1802.96 5922.29 1806.14C5930.89 1809.32 5935.72 1813.63 5935.72 1818.13C5935.72 1910.17 5804.22 1982.28 5636.49 1982.28Z" fill="#003249"/>
<path d="M6331.02 1982.27C6319.34 1981.99 6308.4 1980.08 6300.41 1976.92C6292.41 1973.77 6287.96 1969.61 6287.96 1965.29C6287.96 1960.96 6292.41 1956.8 6300.41 1953.65C6308.4 1950.49 6319.34 1948.58 6331.02 1948.3C6443.62 1948.3 6538.51 1888.71 6538.51 1818.13C6539.27 1813.81 6544.45 1809.77 6552.98 1806.81C6561.52 1803.86 6572.78 1802.21 6584.47 1802.21C6596.17 1802.21 6607.43 1803.86 6615.96 1806.81C6624.5 1809.77 6629.68 1813.81 6630.44 1818.13C6630.44 1910.17 6498.94 1982.27 6331.02 1982.27Z" fill="#003249"/>
<path d="M7025.74 1982.27C7014.06 1981.99 7003.12 1980.08 6995.12 1976.92C6987.13 1973.77 6982.68 1969.61 6982.68 1965.29C6982.68 1960.96 6987.13 1956.8 6995.12 1953.65C7003.12 1950.49 7014.06 1948.58 7025.74 1948.3C7138.14 1948.3 7233.23 1888.71 7233.23 1818.13C7233.99 1813.81 7239.17 1809.77 7247.7 1806.81C7256.24 1803.86 7267.5 1802.21 7279.19 1802.21C7290.89 1802.21 7302.15 1803.86 7310.68 1806.81C7319.22 1809.77 7324.4 1813.81 7325.16 1818.13C7325.16 1910.17 7193.66 1982.27 7025.74 1982.27Z" fill="#003249"/>
<g opacity="0.3">
<path d="M3552.34 1982.27C3540.67 1981.99 3529.72 1980.08 3521.73 1976.92C3513.73 1973.77 3509.28 1969.61 3509.28 1965.29C3509.28 1960.96 3513.73 1956.8 3521.73 1953.65C3529.72 1950.49 3540.67 1948.58 3552.34 1948.3C3664.94 1948.3 3759.83 1888.71 3759.83 1818.13C3760.59 1813.81 3765.77 1809.77 3774.3 1806.81C3782.84 1803.86 3794.1 1802.21 3805.8 1802.21C3817.49 1802.21 3828.75 1803.86 3837.29 1806.81C3845.82 1809.77 3851 1813.81 3851.76 1818.13C3851.76 1910.17 3720.65 1982.27 3552.34 1982.27Z" fill="black"/>
<path d="M4247.06 1982.27C4235.39 1981.99 4224.44 1980.08 4216.45 1976.92C4208.45 1973.77 4204 1969.61 4204 1965.29C4204 1960.96 4208.45 1956.8 4216.45 1953.65C4224.44 1950.49 4235.39 1948.58 4247.06 1948.3C4359.66 1948.3 4454.55 1888.71 4454.55 1818.13C4455.31 1813.81 4460.49 1809.77 4469.02 1806.81C4477.56 1803.86 4488.82 1802.21 4500.51 1802.21C4512.21 1802.21 4523.47 1803.86 4532.01 1806.81C4540.54 1809.77 4545.72 1813.81 4546.48 1818.13C4547.47 1910.17 4414.98 1982.27 4247.06 1982.27Z" fill="black"/>
<path d="M4941.19 1982.28C4929.52 1981.99 4918.57 1980.08 4910.58 1976.92C4902.58 1973.77 4898.13 1969.61 4898.13 1965.29C4898.13 1960.96 4902.58 1956.8 4910.58 1953.65C4918.57 1950.49 4929.52 1948.58 4941.19 1948.3C5053.59 1948.3 5148.68 1888.71 5148.68 1818.13C5148.68 1813.63 5153.51 1809.32 5162.11 1806.14C5170.71 1802.96 5182.38 1801.18 5194.55 1801.18C5206.71 1801.18 5218.38 1802.96 5226.98 1806.14C5235.58 1809.32 5240.41 1813.63 5240.41 1818.13C5241 1910.17 5109.7 1982.28 4941.19 1982.28Z" fill="black"/>
<path d="M5636.49 1982.28C5630.21 1982.43 5623.9 1982.1 5617.96 1981.32C5612.03 1980.53 5606.59 1979.3 5601.99 1977.71C5597.39 1976.12 5593.73 1974.2 5591.22 1972.06C5588.71 1969.92 5587.42 1967.62 5587.42 1965.29C5587.42 1962.96 5588.71 1960.65 5591.22 1958.51C5593.73 1956.38 5597.39 1954.45 5601.99 1952.86C5606.59 1951.27 5612.03 1950.04 5617.96 1949.26C5623.9 1948.47 5630.21 1948.14 5636.49 1948.3C5748.9 1948.3 5843.98 1888.71 5843.98 1818.13C5843.98 1813.63 5848.82 1809.32 5857.42 1806.14C5866.02 1802.96 5877.69 1801.18 5889.85 1801.18C5902.02 1801.18 5913.69 1802.96 5922.29 1806.14C5930.89 1809.32 5935.72 1813.63 5935.72 1818.13C5935.72 1910.17 5804.22 1982.28 5636.49 1982.28Z" fill="black"/>
<path d="M6331.02 1982.27C6319.34 1981.99 6308.4 1980.08 6300.41 1976.92C6292.41 1973.77 6287.96 1969.61 6287.96 1965.29C6287.96 1960.96 6292.41 1956.8 6300.41 1953.65C6308.4 1950.49 6319.34 1948.58 6331.02 1948.3C6443.62 1948.3 6538.51 1888.71 6538.51 1818.13C6539.27 1813.81 6544.45 1809.77 6552.98 1806.81C6561.52 1803.86 6572.78 1802.21 6584.47 1802.21C6596.17 1802.21 6607.43 1803.86 6615.96 1806.81C6624.5 1809.77 6629.68 1813.81 6630.44 1818.13C6630.44 1910.17 6498.94 1982.27 6331.02 1982.27Z" fill="black"/>
<path d="M7025.74 1982.27C7014.06 1981.99 7003.12 1980.08 6995.12 1976.92C6987.13 1973.77 6982.68 1969.61 6982.68 1965.29C6982.68 1960.96 6987.13 1956.8 6995.12 1953.65C7003.12 1950.49 7014.06 1948.58 7025.74 1948.3C7138.14 1948.3 7233.23 1888.71 7233.23 1818.13C7233.99 1813.81 7239.17 1809.77 7247.7 1806.81C7256.24 1803.86 7267.5 1802.21 7279.19 1802.21C7290.89 1802.21 7302.15 1803.86 7310.68 1806.81C7319.22 1809.77 7324.4 1813.81 7325.16 1818.13C7325.16 1910.17 7193.66 1982.27 7025.74 1982.27Z" fill="black"/>
</g>
<path d="M3117.08 1835.52H7589.35C7649.31 1835.96 7706.77 1844.48 7750.96 1859.47C7795.14 1874.46 7823 1894.89 7829.32 1916.94L8076.97 2948.89C8079.98 2959.25 8077.01 2969.72 8068.25 2979.62C8059.5 2989.52 8045.15 2998.61 8026.17 3006.31C8007.19 3014.01 7984 3020.13 7958.14 3024.26C7932.29 3028.4 7904.34 3030.46 7876.17 3030.31H3403.71C3343.77 3029.83 3286.35 3021.31 3242.19 3006.32C3198.02 2991.34 3170.13 2970.92 3163.74 2948.89L2916.28 1916.94C2913.24 1906.58 2916.18 1896.1 2924.93 1886.2C2933.67 1876.29 2948.02 1867.19 2967 1859.49C2985.99 1851.79 3009.19 1845.67 3035.07 1841.54C3060.94 1837.41 3088.9 1835.35 3117.08 1835.52Z" fill="#003249"/>
<path opacity="0.4" d="M3117.08 1835.52H7589.35C7649.31 1835.96 7706.77 1844.48 7750.96 1859.47C7795.14 1874.46 7823 1894.89 7829.32 1916.94L8076.97 2948.89C8079.98 2959.25 8077.01 2969.72 8068.25 2979.62C8059.5 2989.52 8045.15 2998.61 8026.17 3006.31C8007.19 3014.01 7984 3020.13 7958.14 3024.26C7932.29 3028.4 7904.34 3030.46 7876.17 3030.31H3403.71C3343.77 3029.83 3286.35 3021.31 3242.19 3006.32C3198.02 2991.34 3170.13 2970.92 3163.74 2948.89L2916.28 1916.94C2913.24 1906.58 2916.18 1896.1 2924.93 1886.2C2933.67 1876.29 2948.02 1867.19 2967 1859.49C2985.99 1851.79 3009.19 1845.67 3035.07 1841.54C3060.94 1837.41 3088.9 1835.35 3117.08 1835.52Z" fill="#FAFAFA"/>
<path d="M7552.14 1835.52H3079.68C3020.52 1835.78 2963.84 1844.33 2921.08 1859.44C2878.33 1874.56 2852.69 1895.1 2849.35 1916.94L2723.36 2948.89C2721.86 2959.4 2726.18 2969.92 2736.06 2979.79C2745.94 2989.67 2761.17 2998.69 2780.82 3006.31C2800.46 3013.94 2824.11 3020 2850.32 3024.12C2876.52 3028.25 2904.73 3030.35 2933.21 3030.31H7406.07C7465.23 3030.05 7521.91 3021.5 7564.67 3006.38C7607.42 2991.27 7633.06 2970.72 7636.4 2948.89L7762.58 1916.94C7764.06 1906.41 7759.7 1895.88 7749.77 1885.99C7739.85 1876.11 7724.56 1867.08 7704.86 1859.46C7685.16 1851.83 7661.45 1845.78 7635.19 1841.66C7608.92 1837.54 7580.67 1835.45 7552.14 1835.52Z" fill="#003249"/>
<path opacity="0.2" d="M7552.14 1835.52H3079.68C3020.52 1835.78 2963.84 1844.33 2921.08 1859.44C2878.33 1874.56 2852.69 1895.1 2849.35 1916.94L2723.36 2948.89C2721.86 2959.4 2726.18 2969.92 2736.06 2979.79C2745.94 2989.67 2761.17 2998.69 2780.82 3006.31C2800.46 3013.94 2824.11 3020 2850.32 3024.12C2876.52 3028.25 2904.73 3030.35 2933.21 3030.31H7406.07C7465.23 3030.05 7521.91 3021.5 7564.67 3006.38C7607.42 2991.27 7633.06 2970.72 7636.4 2948.89L7762.58 1916.94C7764.06 1906.41 7759.7 1895.88 7749.77 1885.99C7739.85 1876.11 7724.56 1867.08 7704.86 1859.46C7685.16 1851.83 7661.45 1845.78 7635.19 1841.66C7608.92 1837.54 7580.67 1835.45 7552.14 1835.52Z" fill="#FAFAFA"/>
<path d="M3161.77 2757.61L3265.91 1905.37C3267.16 1897.01 3276.97 1889.14 3293.35 1883.35C3309.73 1877.57 3331.45 1874.31 3354.1 1874.23H7268.27C7279.18 1874.2 7289.99 1875 7300.04 1876.57C7310.08 1878.15 7319.16 1880.46 7326.69 1883.38C7334.23 1886.3 7340.08 1889.75 7343.88 1893.53C7347.68 1897.31 7349.35 1901.34 7348.78 1905.37L7244.45 2757.61C7243.2 2765.97 7233.39 2773.84 7217.01 2779.62C7200.63 2785.4 7178.91 2788.67 7156.25 2788.75H3242.28C3231.37 2788.77 3220.56 2787.97 3210.52 2786.4C3200.47 2784.83 3191.4 2782.51 3183.86 2779.59C3176.32 2776.68 3170.47 2773.22 3166.67 2769.44C3162.87 2765.66 3161.21 2761.63 3161.77 2757.61Z" fill="#003249"/>
<path opacity="0.1" d="M3161.77 2757.61L3265.91 1905.37C3267.16 1897.01 3276.97 1889.14 3293.35 1883.35C3309.73 1877.57 3331.45 1874.31 3354.1 1874.23H7268.27C7279.18 1874.2 7289.99 1875 7300.04 1876.57C7310.08 1878.15 7319.16 1880.46 7326.69 1883.38C7334.23 1886.3 7340.08 1889.75 7343.88 1893.53C7347.68 1897.31 7349.35 1901.34 7348.78 1905.37L7244.45 2757.61C7243.2 2765.97 7233.39 2773.84 7217.01 2779.62C7200.63 2785.4 7178.91 2788.67 7156.25 2788.75H3242.28C3231.37 2788.77 3220.56 2787.97 3210.52 2786.4C3200.47 2784.83 3191.4 2782.51 3183.86 2779.59C3176.32 2776.68 3170.47 2773.22 3166.67 2769.44C3162.87 2765.66 3161.21 2761.63 3161.77 2757.61Z" fill="#FAFAFA"/>
<path opacity="0.1" d="M3051.33 2827.17L3160.59 1932.22C3161.84 1923.44 3172.12 1915.17 3189.31 1909.1C3206.51 1903.03 3229.33 1899.61 3253.11 1899.55H7363.55C7375 1899.51 7386.36 1900.34 7396.91 1901.99C7407.46 1903.64 7416.98 1906.07 7424.9 1909.13C7432.81 1912.19 7438.94 1915.82 7442.92 1919.79C7446.89 1923.76 7448.62 1927.99 7448 1932.22L7338.55 2827.17C7337.3 2835.94 7327.06 2844.2 7309.91 2850.29C7292.76 2856.37 7269.99 2859.81 7246.22 2859.91H3135.39C3123.94 2859.93 3112.6 2859.09 3102.07 2857.44C3091.54 2855.78 3082.04 2853.34 3074.16 2850.27C3066.28 2847.2 3060.19 2843.57 3056.26 2839.59C3052.34 2835.62 3050.66 2831.39 3051.33 2827.17Z" fill="black"/>
<path d="M2949.75 2899.34L3063.73 1965.83C3065.26 1956.7 3076.04 1948.12 3093.91 1941.8C3111.79 1935.48 3135.45 1931.87 3160.19 1931.71H7448C7459.96 1931.67 7471.82 1932.54 7482.84 1934.26C7493.86 1935.99 7503.8 1938.52 7512.07 1941.72C7520.33 1944.92 7526.73 1948.71 7530.88 1952.85C7535.03 1957 7536.84 1961.42 7536.19 1965.83L7421.62 2899.34C7420.09 2908.47 7409.32 2917.05 7391.44 2923.38C7373.56 2929.7 7349.9 2933.3 7325.16 2933.47H3037.94C3025.97 2933.51 3014.1 2932.65 3003.07 2930.93C2992.04 2929.22 2982.08 2926.68 2973.81 2923.48C2965.54 2920.28 2959.14 2916.49 2955 2912.33C2950.86 2908.18 2949.08 2903.76 2949.75 2899.34Z" fill="#FAFAFA"/>
<path d="M7025.14 1987.66C7017.08 1987.67 7009.1 1987.06 7001.7 1985.88C6994.29 1984.71 6987.61 1982.98 6982.08 1980.81C6976.55 1978.64 6972.27 1976.08 6969.52 1973.28C6966.77 1970.48 6965.6 1967.5 6966.09 1964.52C6966.84 1958.69 6973.6 1953.17 6984.98 1949.12C6996.36 1945.06 7011.5 1942.76 7027.31 1942.7C7035.37 1942.69 7043.35 1943.29 7050.76 1944.47C7058.17 1945.65 7064.84 1947.38 7070.38 1949.54C7075.91 1951.71 7080.18 1954.28 7082.93 1957.08C7085.68 1959.88 7086.85 1962.86 7086.37 1965.83C7085.62 1971.67 7078.86 1977.18 7067.48 1981.24C7056.1 1985.3 7040.96 1987.59 7025.14 1987.66Z" fill="#003249"/>
<path d="M6330.43 1987.66C6322.36 1987.67 6314.38 1987.06 6306.98 1985.88C6299.57 1984.71 6292.89 1982.98 6287.36 1980.81C6281.83 1978.64 6277.55 1976.08 6274.8 1973.28C6272.05 1970.48 6270.88 1967.5 6271.37 1964.52C6272.12 1958.69 6278.88 1953.17 6290.26 1949.12C6301.64 1945.06 6316.78 1942.76 6332.59 1942.7C6340.65 1942.69 6348.64 1943.29 6356.04 1944.47C6363.45 1945.65 6370.12 1947.38 6375.66 1949.54C6381.19 1951.71 6385.46 1954.28 6388.21 1957.08C6390.96 1959.88 6392.13 1962.86 6391.65 1965.83C6390.94 1971.68 6384.2 1977.2 6372.81 1981.26C6361.42 1985.32 6346.25 1987.61 6330.43 1987.66Z" fill="#003249"/>
<path d="M5635.71 1987.66C5627.64 1987.67 5619.66 1987.06 5612.26 1985.88C5604.85 1984.71 5598.18 1982.98 5592.64 1980.81C5587.11 1978.64 5582.84 1976.08 5580.09 1973.28C5577.34 1970.48 5576.17 1967.5 5576.65 1964.52C5577.45 1958.69 5584.22 1953.19 5595.59 1949.14C5606.96 1945.08 5622.08 1942.78 5637.87 1942.7C5645.94 1942.69 5653.92 1943.29 5661.32 1944.47C5668.73 1945.65 5675.4 1947.38 5680.94 1949.54C5686.47 1951.71 5690.74 1954.28 5693.49 1957.08C5696.25 1959.88 5697.41 1962.86 5696.93 1965.83C5696.23 1971.68 5689.48 1977.2 5678.09 1981.26C5666.7 1985.32 5651.53 1987.61 5635.71 1987.66Z" fill="#003249"/>
<path d="M4941.19 1987.66C4933.12 1987.67 4925.14 1987.06 4917.74 1985.88C4910.33 1984.71 4903.65 1982.98 4898.12 1980.81C4892.59 1978.64 4888.31 1976.08 4885.56 1973.28C4882.81 1970.48 4881.64 1967.5 4882.13 1964.52C4882.97 1958.69 4889.79 1953.18 4901.19 1949.13C4912.59 1945.08 4927.73 1942.78 4943.55 1942.7C4951.61 1942.69 4959.59 1943.29 4967 1944.47C4974.4 1945.65 4981.08 1947.38 4986.61 1949.54C4992.15 1951.71 4996.42 1954.28 4999.17 1957.08C5001.92 1959.88 5003.09 1962.86 5002.61 1965.83C5001.9 1971.69 4995.13 1977.22 4983.7 1981.28C4972.27 1985.35 4957.05 1987.63 4941.19 1987.66Z" fill="#003249"/>
<path d="M4246.47 1987.66C4238.4 1987.67 4230.42 1987.06 4223.02 1985.88C4215.61 1984.71 4208.94 1982.98 4203.4 1980.81C4197.87 1978.64 4193.6 1976.08 4190.85 1973.28C4188.09 1970.48 4186.93 1967.5 4187.41 1964.52C4188.16 1958.69 4194.92 1953.17 4206.3 1949.12C4217.68 1945.06 4232.82 1942.76 4248.63 1942.7C4256.7 1942.69 4264.68 1943.29 4272.08 1944.47C4279.49 1945.65 4286.16 1947.38 4291.7 1949.54C4297.23 1951.71 4301.5 1954.28 4304.25 1957.08C4307 1959.88 4308.17 1962.86 4307.69 1965.83C4306.94 1971.67 4300.18 1977.18 4288.8 1981.24C4277.42 1985.3 4262.28 1987.59 4246.47 1987.66Z" fill="#003249"/>
<path d="M3551.75 1987.66C3543.69 1987.67 3535.7 1987.06 3528.3 1985.88C3520.89 1984.71 3514.22 1982.98 3508.68 1980.81C3503.15 1978.64 3498.88 1976.08 3496.13 1973.28C3493.38 1970.48 3492.21 1967.5 3492.69 1964.52C3493.44 1958.69 3500.2 1953.17 3511.58 1949.12C3522.96 1945.06 3538.1 1942.76 3553.91 1942.7C3561.98 1942.69 3569.96 1943.29 3577.36 1944.47C3584.77 1945.65 3591.45 1947.38 3596.98 1949.54C3602.51 1951.71 3606.79 1954.28 3609.54 1957.08C3612.29 1959.88 3613.46 1962.86 3612.97 1965.83C3612.27 1971.68 3605.52 1977.2 3594.13 1981.26C3582.74 1985.32 3567.57 1987.61 3551.75 1987.66Z" fill="#003249"/>
<g opacity="0.1">
<path d="M7025.14 1987.66C7017.08 1987.67 7009.1 1987.06 7001.7 1985.88C6994.29 1984.71 6987.61 1982.98 6982.08 1980.81C6976.55 1978.64 6972.27 1976.08 6969.52 1973.28C6966.77 1970.48 6965.6 1967.5 6966.09 1964.52C6966.84 1958.69 6973.6 1953.17 6984.98 1949.12C6996.36 1945.06 7011.5 1942.76 7027.31 1942.7C7035.37 1942.69 7043.35 1943.29 7050.76 1944.47C7058.17 1945.65 7064.84 1947.38 7070.38 1949.54C7075.91 1951.71 7080.18 1954.28 7082.93 1957.08C7085.68 1959.88 7086.85 1962.86 7086.37 1965.83C7085.62 1971.67 7078.86 1977.18 7067.48 1981.24C7056.1 1985.3 7040.96 1987.59 7025.14 1987.66Z" fill="#FAFAFA"/>
<path d="M6330.43 1987.66C6322.36 1987.67 6314.38 1987.06 6306.98 1985.88C6299.57 1984.71 6292.89 1982.98 6287.36 1980.81C6281.83 1978.64 6277.55 1976.08 6274.8 1973.28C6272.05 1970.48 6270.88 1967.5 6271.37 1964.52C6272.12 1958.69 6278.88 1953.17 6290.26 1949.12C6301.64 1945.06 6316.78 1942.76 6332.59 1942.7C6340.65 1942.69 6348.64 1943.29 6356.04 1944.47C6363.45 1945.65 6370.12 1947.38 6375.66 1949.54C6381.19 1951.71 6385.46 1954.28 6388.21 1957.08C6390.96 1959.88 6392.13 1962.86 6391.65 1965.83C6390.94 1971.68 6384.2 1977.2 6372.81 1981.26C6361.42 1985.32 6346.25 1987.61 6330.43 1987.66Z" fill="#FAFAFA"/>
<path d="M5635.71 1987.66C5627.64 1987.67 5619.66 1987.06 5612.26 1985.88C5604.85 1984.71 5598.18 1982.98 5592.64 1980.81C5587.11 1978.64 5582.84 1976.08 5580.09 1973.28C5577.34 1970.48 5576.17 1967.5 5576.65 1964.52C5577.45 1958.69 5584.22 1953.19 5595.59 1949.14C5606.96 1945.08 5622.08 1942.78 5637.87 1942.7C5645.94 1942.69 5653.92 1943.29 5661.32 1944.47C5668.73 1945.65 5675.4 1947.38 5680.94 1949.54C5686.47 1951.71 5690.74 1954.28 5693.49 1957.08C5696.25 1959.88 5697.41 1962.86 5696.93 1965.83C5696.23 1971.68 5689.48 1977.2 5678.09 1981.26C5666.7 1985.32 5651.53 1987.61 5635.71 1987.66Z" fill="#FAFAFA"/>
<path d="M4941.19 1987.66C4933.12 1987.67 4925.14 1987.06 4917.74 1985.88C4910.33 1984.71 4903.65 1982.98 4898.12 1980.81C4892.59 1978.64 4888.31 1976.08 4885.56 1973.28C4882.81 1970.48 4881.64 1967.5 4882.13 1964.52C4882.97 1958.69 4889.79 1953.18 4901.19 1949.13C4912.59 1945.08 4927.73 1942.78 4943.55 1942.7C4951.61 1942.69 4959.59 1943.29 4967 1944.47C4974.4 1945.65 4981.08 1947.38 4986.61 1949.54C4992.15 1951.71 4996.42 1954.28 4999.17 1957.08C5001.92 1959.88 5003.09 1962.86 5002.61 1965.83C5001.9 1971.69 4995.13 1977.22 4983.7 1981.28C4972.27 1985.35 4957.05 1987.63 4941.19 1987.66Z" fill="#FAFAFA"/>
<path d="M4246.47 1987.66C4238.4 1987.67 4230.42 1987.06 4223.02 1985.88C4215.61 1984.71 4208.94 1982.98 4203.4 1980.81C4197.87 1978.64 4193.6 1976.08 4190.85 1973.28C4188.09 1970.48 4186.93 1967.5 4187.41 1964.52C4188.16 1958.69 4194.92 1953.17 4206.3 1949.12C4217.68 1945.06 4232.82 1942.76 4248.63 1942.7C4256.7 1942.69 4264.68 1943.29 4272.08 1944.47C4279.49 1945.65 4286.16 1947.38 4291.7 1949.54C4297.23 1951.71 4301.5 1954.28 4304.25 1957.08C4307 1959.88 4308.17 1962.86 4307.69 1965.83C4306.94 1971.67 4300.18 1977.18 4288.8 1981.24C4277.42 1985.3 4262.28 1987.59 4246.47 1987.66Z" fill="#FAFAFA"/>
<path d="M3551.75 1987.66C3543.69 1987.67 3535.7 1987.06 3528.3 1985.88C3520.89 1984.71 3514.22 1982.98 3508.68 1980.81C3503.15 1978.64 3498.88 1976.08 3496.13 1973.28C3493.38 1970.48 3492.21 1967.5 3492.69 1964.52C3493.44 1958.69 3500.2 1953.17 3511.58 1949.12C3522.96 1945.06 3538.1 1942.76 3553.91 1942.7C3561.98 1942.69 3569.96 1943.29 3577.36 1944.47C3584.77 1945.65 3591.45 1947.38 3596.98 1949.54C3602.51 1951.71 3606.79 1954.28 3609.54 1957.08C3612.29 1959.88 3613.46 1962.86 3612.97 1965.83C3612.27 1971.68 3605.52 1977.2 3594.13 1981.26C3582.74 1985.32 3567.57 1987.61 3551.75 1987.66Z" fill="#FAFAFA"/>
</g>
<path d="M3725.38 2069.01H3375.95C3370.89 2069.02 3365.87 2068.65 3361.21 2067.91C3356.56 2067.17 3352.37 2066.08 3348.91 2064.72C3345.45 2063.35 3342.79 2061.73 3341.11 2059.96C3339.43 2058.2 3338.76 2056.32 3339.14 2054.45C3339.53 2050.64 3343.8 2047.02 3351.1 2044.32C3358.4 2041.63 3368.19 2040.05 3378.51 2039.9H3727.94C3733 2039.89 3738.02 2040.26 3742.68 2041C3747.33 2041.74 3751.52 2042.83 3754.98 2044.19C3758.44 2045.56 3761.1 2047.18 3762.78 2048.95C3764.46 2050.71 3765.13 2052.59 3764.75 2054.45C3764.36 2058.27 3760.09 2061.89 3752.79 2064.58C3745.49 2067.28 3735.7 2068.86 3725.38 2069.01Z" fill="#003249"/>
<path d="M4420.1 2069.01H4070.67C4065.6 2069.02 4060.59 2068.65 4055.93 2067.91C4051.27 2067.17 4047.08 2066.08 4043.62 2064.72C4040.16 2063.35 4037.51 2061.73 4035.83 2059.96C4034.15 2058.2 4033.48 2056.32 4033.86 2054.45C4034.26 2050.58 4038.67 2046.91 4046.18 2044.2C4053.69 2041.5 4063.72 2039.96 4074.21 2039.9H4423.44C4428.52 2039.89 4433.54 2040.26 4438.21 2041C4442.88 2041.74 4447.08 2042.82 4450.55 2044.19C4454.03 2045.56 4456.7 2047.17 4458.41 2048.94C4460.11 2050.71 4460.81 2052.58 4460.45 2054.45C4460.05 2058.33 4455.64 2062 4448.13 2064.71C4440.62 2067.41 4430.59 2068.95 4420.1 2069.01Z" fill="#003249"/>
<path d="M5114.82 2069.01H4765.39C4760.32 2069.02 4755.29 2068.65 4750.62 2067.91C4745.96 2067.17 4741.76 2066.09 4738.28 2064.72C4734.81 2063.35 4732.13 2061.74 4730.43 2059.97C4728.72 2058.2 4728.03 2056.33 4728.38 2054.45C4728.78 2050.58 4733.19 2046.91 4740.7 2044.2C4748.21 2041.5 4758.25 2039.96 4768.74 2039.9H5118.36C5123.43 2039.89 5128.45 2040.26 5133.1 2041C5137.76 2041.74 5141.95 2042.83 5145.41 2044.19C5148.87 2045.56 5151.52 2047.18 5153.2 2048.95C5154.88 2050.71 5155.55 2052.59 5155.17 2054.45C5154.82 2058.34 5150.42 2062.02 5142.9 2064.73C5135.38 2067.44 5125.32 2068.97 5114.82 2069.01Z" fill="#003249"/>
<path d="M5809.34 2069.01H5459.91C5454.85 2069.02 5449.83 2068.65 5445.17 2067.91C5440.52 2067.17 5436.33 2066.08 5432.87 2064.72C5429.41 2063.35 5426.75 2061.73 5425.07 2059.96C5423.39 2058.2 5422.72 2056.32 5423.1 2054.45C5423.49 2050.64 5427.76 2047.02 5435.06 2044.32C5442.36 2041.63 5452.15 2040.05 5462.47 2039.9H5811.9C5816.96 2039.89 5821.98 2040.26 5826.64 2041C5831.3 2041.74 5835.49 2042.83 5838.95 2044.19C5842.41 2045.56 5845.06 2047.18 5846.74 2048.95C5848.42 2050.71 5849.09 2052.59 5848.71 2054.45C5848.32 2058.27 5844.05 2061.89 5836.75 2064.58C5829.45 2067.28 5819.66 2068.86 5809.34 2069.01Z" fill="#003249"/>
<path d="M6504.06 2069.01H6154.63C6149.57 2069.02 6144.55 2068.65 6139.89 2067.91C6135.24 2067.17 6131.04 2066.08 6127.58 2064.72C6124.12 2063.35 6121.47 2061.73 6119.79 2059.96C6118.11 2058.2 6117.44 2056.32 6117.82 2054.45C6118.22 2050.58 6122.63 2046.91 6130.14 2044.2C6137.65 2041.5 6147.69 2039.96 6158.18 2039.9H6507.6C6512.67 2039.89 6517.69 2040.26 6522.34 2041C6527 2041.74 6531.19 2042.83 6534.65 2044.19C6538.11 2045.56 6540.76 2047.18 6542.44 2048.95C6544.13 2050.71 6544.8 2052.59 6544.41 2054.45C6544.01 2058.33 6539.6 2062 6532.09 2064.71C6524.58 2067.41 6514.55 2068.95 6504.06 2069.01Z" fill="#003249"/>
<path d="M7198.78 2069.01H6849.35C6844.28 2069.02 6839.26 2068.65 6834.61 2067.91C6829.95 2067.17 6825.76 2066.08 6822.3 2064.72C6818.84 2063.35 6816.19 2061.73 6814.51 2059.96C6812.83 2058.2 6812.16 2056.32 6812.54 2054.45C6812.94 2050.58 6817.35 2046.91 6824.86 2044.2C6832.37 2041.5 6842.4 2039.96 6852.89 2039.9H7202.12C7207.2 2039.89 7212.22 2040.26 7216.89 2041C7221.56 2041.74 7225.76 2042.82 7229.23 2044.19C7232.71 2045.56 7235.38 2047.17 7237.08 2048.94C7238.79 2050.71 7239.49 2052.58 7239.13 2054.45C7238.73 2058.33 7234.32 2062 7226.81 2064.71C7219.3 2067.41 7209.27 2068.95 7198.78 2069.01Z" fill="#003249"/>
<g opacity="0.3">
<path d="M3725.38 2069.01H3375.95C3370.89 2069.02 3365.87 2068.65 3361.21 2067.91C3356.56 2067.17 3352.37 2066.08 3348.91 2064.72C3345.45 2063.35 3342.79 2061.73 3341.11 2059.96C3339.43 2058.2 3338.76 2056.32 3339.14 2054.45C3339.53 2050.64 3343.8 2047.02 3351.1 2044.32C3358.4 2041.63 3368.19 2040.05 3378.51 2039.9H3727.94C3733 2039.89 3738.02 2040.26 3742.68 2041C3747.33 2041.74 3751.52 2042.83 3754.98 2044.19C3758.44 2045.56 3761.1 2047.18 3762.78 2048.95C3764.46 2050.71 3765.13 2052.59 3764.75 2054.45C3764.36 2058.27 3760.09 2061.89 3752.79 2064.58C3745.49 2067.28 3735.7 2068.86 3725.38 2069.01Z" fill="black"/>
<path d="M4420.1 2069.01H4070.67C4065.6 2069.02 4060.59 2068.65 4055.93 2067.91C4051.27 2067.17 4047.08 2066.08 4043.62 2064.72C4040.16 2063.35 4037.51 2061.73 4035.83 2059.96C4034.15 2058.2 4033.48 2056.32 4033.86 2054.45C4034.26 2050.58 4038.67 2046.91 4046.18 2044.2C4053.69 2041.5 4063.72 2039.96 4074.21 2039.9H4423.44C4428.52 2039.89 4433.54 2040.26 4438.21 2041C4442.88 2041.74 4447.08 2042.82 4450.55 2044.19C4454.03 2045.56 4456.7 2047.17 4458.41 2048.94C4460.11 2050.71 4460.81 2052.58 4460.45 2054.45C4460.05 2058.33 4455.64 2062 4448.13 2064.71C4440.62 2067.41 4430.59 2068.95 4420.1 2069.01Z" fill="black"/>
<path d="M5114.82 2069.01H4765.39C4760.32 2069.02 4755.29 2068.65 4750.62 2067.91C4745.96 2067.17 4741.76 2066.09 4738.28 2064.72C4734.81 2063.35 4732.13 2061.74 4730.43 2059.97C4728.72 2058.2 4728.03 2056.33 4728.38 2054.45C4728.78 2050.58 4733.19 2046.91 4740.7 2044.2C4748.21 2041.5 4758.25 2039.96 4768.74 2039.9H5118.36C5123.43 2039.89 5128.45 2040.26 5133.1 2041C5137.76 2041.74 5141.95 2042.83 5145.41 2044.19C5148.87 2045.56 5151.52 2047.18 5153.2 2048.95C5154.88 2050.71 5155.55 2052.59 5155.17 2054.45C5154.82 2058.34 5150.42 2062.02 5142.9 2064.73C5135.38 2067.44 5125.32 2068.97 5114.82 2069.01Z" fill="black"/>
<path d="M5809.34 2069.01H5459.91C5454.85 2069.02 5449.83 2068.65 5445.17 2067.91C5440.52 2067.17 5436.33 2066.08 5432.87 2064.72C5429.41 2063.35 5426.75 2061.73 5425.07 2059.96C5423.39 2058.2 5422.72 2056.32 5423.1 2054.45C5423.49 2050.64 5427.76 2047.02 5435.06 2044.32C5442.36 2041.63 5452.15 2040.05 5462.47 2039.9H5811.9C5816.96 2039.89 5821.98 2040.26 5826.64 2041C5831.3 2041.74 5835.49 2042.83 5838.95 2044.19C5842.41 2045.56 5845.06 2047.18 5846.74 2048.95C5848.42 2050.71 5849.09 2052.59 5848.71 2054.45C5848.32 2058.27 5844.05 2061.89 5836.75 2064.58C5829.45 2067.28 5819.66 2068.86 5809.34 2069.01Z" fill="black"/>
<path d="M6504.06 2069.01H6154.63C6149.57 2069.02 6144.55 2068.65 6139.89 2067.91C6135.24 2067.17 6131.04 2066.08 6127.58 2064.72C6124.12 2063.35 6121.47 2061.73 6119.79 2059.96C6118.11 2058.2 6117.44 2056.32 6117.82 2054.45C6118.22 2050.58 6122.63 2046.91 6130.14 2044.2C6137.65 2041.5 6147.69 2039.96 6158.18 2039.9H6507.6C6512.67 2039.89 6517.69 2040.26 6522.34 2041C6527 2041.74 6531.19 2042.83 6534.65 2044.19C6538.11 2045.56 6540.76 2047.18 6542.44 2048.95C6544.13 2050.71 6544.8 2052.59 6544.41 2054.45C6544.01 2058.33 6539.6 2062 6532.09 2064.71C6524.58 2067.41 6514.55 2068.95 6504.06 2069.01Z" fill="black"/>
<path d="M7198.78 2069.01H6849.35C6844.28 2069.02 6839.26 2068.65 6834.61 2067.91C6829.95 2067.17 6825.76 2066.08 6822.3 2064.72C6818.84 2063.35 6816.19 2061.73 6814.51 2059.96C6812.83 2058.2 6812.16 2056.32 6812.54 2054.45C6812.94 2050.58 6817.35 2046.91 6824.86 2044.2C6832.37 2041.5 6842.4 2039.96 6852.89 2039.9H7202.12C7207.2 2039.89 7212.22 2040.26 7216.89 2041C7221.56 2041.74 7225.76 2042.82 7229.23 2044.19C7232.71 2045.56 7235.38 2047.17 7237.08 2048.94C7238.79 2050.71 7239.49 2052.58 7239.13 2054.45C7238.73 2058.33 7234.32 2062 7226.81 2064.71C7219.3 2067.41 7209.27 2068.95 7198.78 2069.01Z" fill="black"/>
</g>
<path d="M3744.67 2343.82H3289.53C3279.55 2343.83 3269.66 2343.1 3260.48 2341.65C3251.29 2340.21 3243 2338.08 3236.11 2335.41C3229.22 2332.75 3223.88 2329.58 3220.4 2326.13C3216.93 2322.67 3215.4 2318.98 3215.91 2315.3L3235.59 2147.08C3236.79 2139.43 3245.78 2132.24 3260.76 2126.94C3275.73 2121.65 3295.58 2118.65 3316.3 2118.55H3771.44C3781.43 2118.54 3791.31 2119.28 3800.5 2120.72C3809.68 2122.17 3817.97 2124.29 3824.86 2126.96C3831.76 2129.63 3837.1 2132.79 3840.58 2136.25C3844.05 2139.71 3845.58 2143.39 3845.07 2147.08L3825.38 2315.3C3824.15 2322.94 3815.14 2330.12 3800.17 2335.41C3785.2 2340.7 3765.38 2343.71 3744.67 2343.82Z" fill="#003249"/>
<path d="M4439.39 2343.82H3984.25C3974.26 2343.84 3964.36 2343.11 3955.16 2341.67C3945.96 2340.23 3937.66 2338.11 3930.76 2335.44C3923.87 2332.77 3918.52 2329.6 3915.06 2326.14C3911.6 2322.67 3910.09 2318.99 3910.62 2315.3L3930.31 2147.08C3931.5 2139.43 3940.5 2132.24 3955.47 2126.94C3970.45 2121.65 3990.3 2118.65 4011.02 2118.55H4466.75C4476.74 2118.54 4486.64 2119.28 4495.83 2120.72C4505.03 2122.17 4513.33 2124.29 4520.24 2126.96C4527.14 2129.62 4532.51 2132.78 4536 2136.24C4539.5 2139.7 4541.06 2143.39 4540.58 2147.08L4519.91 2315.3C4518.76 2322.94 4509.81 2330.13 4494.86 2335.43C4479.92 2340.72 4460.09 2343.72 4439.39 2343.82Z" fill="#003249"/>
<path d="M5133.91 2343.82H4678.97C4668.98 2343.83 4659.08 2343.1 4649.89 2341.65C4640.69 2340.21 4632.39 2338.09 4625.48 2335.42C4618.58 2332.75 4613.21 2329.59 4609.72 2326.13C4606.22 2322.67 4604.66 2318.99 4605.15 2315.3L4624.83 2147.08C4626.03 2139.43 4635.02 2132.24 4650 2126.94C4664.97 2121.65 4684.82 2118.65 4705.54 2118.56H5160.49C5170.48 2118.53 5180.38 2119.26 5189.58 2120.7C5198.77 2122.14 5207.08 2124.27 5213.97 2126.94C5220.87 2129.61 5226.21 2132.77 5229.68 2136.24C5233.14 2139.7 5234.65 2143.39 5234.11 2147.08L5214.43 2315.3C5213.24 2322.93 5204.27 2330.12 5189.34 2335.41C5174.4 2340.7 5154.6 2343.7 5133.91 2343.82Z" fill="#003249"/>
<path d="M5828.63 2343.82H5374.28C5364.28 2343.84 5354.37 2343.11 5345.16 2341.67C5335.96 2340.23 5327.64 2338.11 5320.73 2335.44C5313.82 2332.77 5308.45 2329.61 5304.97 2326.14C5301.48 2322.68 5299.95 2318.99 5300.45 2315.3L5320.14 2147.08C5321.29 2139.44 5330.24 2132.24 5345.18 2126.95C5360.13 2121.65 5379.96 2118.65 5400.66 2118.55H5855.8C5865.78 2118.54 5875.67 2119.28 5884.85 2120.72C5894.03 2122.17 5902.33 2124.29 5909.22 2126.96C5916.11 2129.63 5921.45 2132.79 5924.93 2136.25C5928.4 2139.71 5929.93 2143.39 5929.42 2147.08L5909.74 2315.3C5908.54 2322.97 5899.49 2330.18 5884.43 2335.48C5869.37 2340.78 5849.42 2343.76 5828.63 2343.82Z" fill="#003249"/>
<path d="M6523.35 2343.82H6068.21C6058.23 2343.83 6048.34 2343.1 6039.16 2341.65C6029.97 2340.21 6021.68 2338.08 6014.79 2335.42C6007.9 2332.75 6002.55 2329.59 5999.08 2326.13C5995.6 2322.67 5994.08 2318.98 5994.58 2315.3L6014.27 2147.08C6015.46 2139.43 6024.46 2132.24 6039.43 2126.94C6054.41 2121.65 6074.26 2118.65 6094.98 2118.56H6549.93C6559.92 2118.53 6569.83 2119.26 6579.04 2120.7C6588.25 2122.14 6596.56 2124.26 6603.47 2126.93C6610.39 2129.6 6615.75 2132.77 6619.24 2136.23C6622.72 2139.7 6624.26 2143.39 6623.75 2147.08L6604.06 2315.3C6602.82 2322.94 6593.82 2330.12 6578.85 2335.41C6563.88 2340.7 6544.06 2343.71 6523.35 2343.82Z" fill="#003249"/>
<path d="M7217.87 2343.82H6762.93C6752.94 2343.84 6743.04 2343.11 6733.84 2341.67C6724.64 2340.23 6716.34 2338.11 6709.44 2335.44C6702.55 2332.77 6697.2 2329.6 6693.74 2326.14C6690.27 2322.67 6688.76 2318.99 6689.3 2315.3L6708.99 2147.08C6710.18 2139.43 6719.17 2132.24 6734.15 2126.94C6749.13 2121.65 6768.98 2118.65 6789.7 2118.55H7244.64C7254.63 2118.54 7264.53 2119.28 7273.72 2120.72C7282.92 2122.17 7291.22 2124.29 7298.13 2126.96C7305.03 2129.62 7310.4 2132.78 7313.9 2136.24C7317.39 2139.7 7318.95 2143.39 7318.47 2147.08L7297.8 2315.3C7296.66 2322.9 7287.79 2330.06 7272.97 2335.35C7258.15 2340.64 7238.47 2343.67 7217.87 2343.82Z" fill="#003249"/>
<g opacity="0.8">
<path d="M3744.67 2343.82H3289.53C3279.55 2343.83 3269.66 2343.1 3260.48 2341.65C3251.29 2340.21 3243 2338.08 3236.11 2335.41C3229.22 2332.75 3223.88 2329.58 3220.4 2326.13C3216.93 2322.67 3215.4 2318.98 3215.91 2315.3L3235.59 2147.08C3236.79 2139.43 3245.78 2132.24 3260.76 2126.94C3275.73 2121.65 3295.58 2118.65 3316.3 2118.55H3771.44C3781.43 2118.54 3791.31 2119.28 3800.5 2120.72C3809.68 2122.17 3817.97 2124.29 3824.86 2126.96C3831.76 2129.63 3837.1 2132.79 3840.58 2136.25C3844.05 2139.71 3845.58 2143.39 3845.07 2147.08L3825.38 2315.3C3824.15 2322.94 3815.14 2330.12 3800.17 2335.41C3785.2 2340.7 3765.38 2343.71 3744.67 2343.82Z" fill="#FAFAFA"/>
<path d="M4439.39 2343.82H3984.25C3974.26 2343.84 3964.36 2343.11 3955.16 2341.67C3945.96 2340.23 3937.66 2338.11 3930.76 2335.44C3923.87 2332.77 3918.52 2329.6 3915.06 2326.14C3911.6 2322.67 3910.09 2318.99 3910.62 2315.3L3930.31 2147.08C3931.5 2139.43 3940.5 2132.24 3955.47 2126.94C3970.45 2121.65 3990.3 2118.65 4011.02 2118.55H4466.75C4476.74 2118.54 4486.64 2119.28 4495.83 2120.72C4505.03 2122.17 4513.33 2124.29 4520.24 2126.96C4527.14 2129.62 4532.51 2132.78 4536 2136.24C4539.5 2139.7 4541.06 2143.39 4540.58 2147.08L4519.91 2315.3C4518.76 2322.94 4509.81 2330.13 4494.86 2335.43C4479.92 2340.72 4460.09 2343.72 4439.39 2343.82Z" fill="#FAFAFA"/>
<path d="M5133.91 2343.82H4678.97C4668.98 2343.83 4659.08 2343.1 4649.89 2341.65C4640.69 2340.21 4632.39 2338.09 4625.48 2335.42C4618.58 2332.75 4613.21 2329.59 4609.72 2326.13C4606.22 2322.67 4604.66 2318.99 4605.15 2315.3L4624.83 2147.08C4626.03 2139.43 4635.02 2132.24 4650 2126.94C4664.97 2121.65 4684.82 2118.65 4705.54 2118.56H5160.49C5170.48 2118.53 5180.38 2119.26 5189.58 2120.7C5198.77 2122.14 5207.08 2124.27 5213.97 2126.94C5220.87 2129.61 5226.21 2132.77 5229.68 2136.24C5233.14 2139.7 5234.65 2143.39 5234.11 2147.08L5214.43 2315.3C5213.24 2322.93 5204.27 2330.12 5189.34 2335.41C5174.4 2340.7 5154.6 2343.7 5133.91 2343.82Z" fill="#FAFAFA"/>
<path d="M5828.63 2343.82H5374.28C5364.28 2343.84 5354.37 2343.11 5345.17 2341.67C5335.96 2340.23 5327.64 2338.11 5320.73 2335.44C5313.82 2332.77 5308.45 2329.61 5304.97 2326.14C5301.48 2322.68 5299.95 2318.99 5300.46 2315.3L5320.14 2147.08C5321.29 2139.44 5330.24 2132.24 5345.18 2126.95C5360.13 2121.65 5379.96 2118.65 5400.66 2118.55H5855.8C5865.78 2118.54 5875.67 2119.28 5884.85 2120.72C5894.04 2122.17 5902.33 2124.29 5909.22 2126.96C5916.11 2129.63 5921.45 2132.79 5924.93 2136.25C5928.4 2139.71 5929.93 2143.39 5929.42 2147.08L5909.74 2315.3C5908.54 2322.97 5899.49 2330.18 5884.43 2335.48C5869.37 2340.78 5849.42 2343.76 5828.63 2343.82Z" fill="#FAFAFA"/>
<path d="M6523.35 2343.82H6068.21C6058.23 2343.83 6048.34 2343.1 6039.16 2341.65C6029.97 2340.21 6021.68 2338.08 6014.79 2335.42C6007.9 2332.75 6002.55 2329.59 5999.08 2326.13C5995.6 2322.67 5994.08 2318.98 5994.58 2315.3L6014.27 2147.08C6015.46 2139.43 6024.46 2132.24 6039.43 2126.94C6054.41 2121.65 6074.26 2118.65 6094.98 2118.56H6549.93C6559.92 2118.53 6569.83 2119.26 6579.04 2120.7C6588.25 2122.14 6596.56 2124.26 6603.47 2126.93C6610.39 2129.6 6615.75 2132.77 6619.24 2136.23C6622.72 2139.7 6624.26 2143.39 6623.75 2147.08L6604.06 2315.3C6602.82 2322.94 6593.82 2330.12 6578.85 2335.41C6563.88 2340.7 6544.06 2343.71 6523.35 2343.82Z" fill="#FAFAFA"/>
<path d="M7217.87 2343.82H6762.93C6752.94 2343.84 6743.04 2343.11 6733.84 2341.67C6724.65 2340.23 6716.34 2338.11 6709.45 2335.44C6702.55 2332.77 6697.21 2329.6 6693.74 2326.14C6690.28 2322.67 6688.77 2318.99 6689.31 2315.3L6708.99 2147.08C6710.19 2139.43 6719.18 2132.24 6734.16 2126.94C6749.13 2121.65 6768.98 2118.65 6789.7 2118.55H7244.65C7254.64 2118.54 7264.53 2119.28 7273.73 2120.72C7282.92 2122.17 7291.23 2124.29 7298.13 2126.96C7305.04 2129.62 7310.4 2132.78 7313.9 2136.24C7317.4 2139.7 7318.95 2143.39 7318.47 2147.08L7297.8 2315.3C7296.66 2322.9 7287.79 2330.06 7272.97 2335.35C7258.15 2340.64 7238.47 2343.67 7217.87 2343.82Z" fill="#FAFAFA"/>
</g>
<path d="M3712.78 2604.81H3257.64C3247.66 2604.82 3237.77 2604.08 3228.59 2602.64C3219.4 2601.19 3211.11 2599.07 3204.22 2596.4C3197.33 2593.73 3191.98 2590.57 3188.51 2587.11C3185.03 2583.66 3183.5 2579.97 3184.01 2576.29L3203.7 2408.06C3204.94 2400.42 3213.94 2393.24 3228.91 2387.95C3243.88 2382.66 3263.71 2379.66 3284.41 2379.54H3740.34C3750.32 2379.53 3760.21 2380.27 3769.39 2381.71C3778.58 2383.16 3786.87 2385.28 3793.76 2387.95C3800.65 2390.62 3806 2393.78 3809.47 2397.24C3812.94 2400.7 3814.47 2404.38 3813.97 2408.06L3794.28 2576.29C3793.03 2583.98 3783.91 2591.2 3768.78 2596.5C3753.64 2601.8 3733.62 2604.77 3712.78 2604.81Z" fill="#003249"/>
<path d="M4407.5 2604.81H3952.36C3942.38 2604.82 3932.49 2604.09 3923.3 2602.64C3914.12 2601.2 3905.83 2599.07 3898.94 2596.4C3892.05 2593.73 3886.7 2590.57 3883.23 2587.11C3879.75 2583.66 3878.22 2579.97 3878.73 2576.29L3898.42 2408.07C3899.61 2400.42 3908.6 2393.22 3923.58 2387.93C3938.56 2382.64 3958.41 2379.64 3979.13 2379.54H4434.07C4444.15 2379.52 4454.14 2380.26 4463.41 2381.71C4472.68 2383.17 4481.05 2385.32 4487.99 2388.02C4494.93 2390.72 4500.29 2393.92 4503.75 2397.42C4507.21 2400.91 4508.69 2404.64 4508.09 2408.36L4488.41 2576.29C4487.26 2583.95 4478.25 2591.17 4463.22 2596.46C4448.19 2601.76 4428.27 2604.75 4407.5 2604.81Z" fill="#003249"/>
<path d="M5102.02 2604.81H4647.08C4637.09 2604.83 4627.19 2604.1 4617.99 2602.66C4608.79 2601.22 4600.49 2599.1 4593.59 2596.43C4586.7 2593.75 4581.35 2590.59 4577.89 2587.13C4574.42 2583.66 4572.91 2579.97 4573.45 2576.29L4593.14 2408.07C4594.33 2400.42 4603.32 2393.22 4618.3 2387.93C4633.28 2382.64 4653.13 2379.64 4673.85 2379.54H5128.79C5138.78 2379.52 5148.68 2380.25 5157.88 2381.69C5167.08 2383.13 5175.38 2385.25 5182.28 2387.93C5189.17 2390.6 5194.52 2393.76 5197.98 2397.23C5201.45 2400.69 5202.96 2404.38 5202.42 2408.07L5182.73 2576.29C5181.54 2583.93 5172.55 2591.13 5157.57 2596.42C5142.59 2601.71 5122.74 2604.71 5102.02 2604.81Z" fill="#003249"/>
<path d="M5796.74 2604.81H5341.8C5331.81 2604.82 5321.91 2604.09 5312.72 2602.64C5303.52 2601.2 5295.22 2599.08 5288.31 2596.41C5281.41 2593.74 5276.04 2590.58 5272.54 2587.12C5269.05 2583.66 5267.49 2579.97 5267.97 2576.29L5287.66 2408.07C5288.81 2400.43 5297.76 2393.23 5312.7 2387.94C5327.65 2382.64 5347.48 2379.64 5368.18 2379.54H5823.32C5833.45 2379.48 5843.51 2380.18 5852.87 2381.63C5862.23 2383.07 5870.68 2385.21 5877.69 2387.91C5884.69 2390.62 5890.11 2393.83 5893.59 2397.35C5897.08 2400.87 5898.55 2404.62 5897.93 2408.36L5878.24 2576.58C5876.84 2584.22 5867.66 2591.39 5852.53 2596.63C5837.41 2601.86 5817.47 2604.79 5796.74 2604.81Z" fill="#003249"/>
<path d="M6491.46 2604.81H6036.32C6026.34 2604.82 6016.45 2604.09 6007.27 2602.64C5998.08 2601.2 5989.79 2599.07 5982.9 2596.41C5976.01 2593.74 5970.66 2590.58 5967.19 2587.12C5963.71 2583.66 5962.18 2579.97 5962.69 2576.29L5982.38 2408.07C5983.43 2400.36 5992.38 2393.1 6007.41 2387.74C6022.44 2382.39 6042.42 2379.36 6063.29 2379.25H6518.43C6528.41 2379.24 6538.3 2379.98 6547.48 2381.42C6556.67 2382.87 6564.96 2384.99 6571.85 2387.66C6578.74 2390.33 6584.08 2393.49 6587.56 2396.95C6591.03 2400.41 6592.56 2404.09 6592.05 2407.78L6572.37 2576C6571.32 2583.7 6562.37 2590.97 6547.34 2596.32C6532.31 2601.67 6512.33 2604.71 6491.46 2604.81Z" fill="#003249"/>
<path d="M7185.39 2604.81H6731.04C6721.05 2604.83 6711.15 2604.1 6701.95 2602.66C6692.75 2601.22 6684.45 2599.1 6677.55 2596.43C6670.65 2593.75 6665.31 2590.59 6661.85 2587.13C6658.38 2583.66 6656.87 2579.97 6657.41 2576.29L6677.1 2408.06C6678.29 2400.42 6687.28 2393.22 6702.26 2387.93C6717.24 2382.64 6737.09 2379.64 6757.81 2379.54H7212.75C7222.74 2379.53 7232.64 2380.27 7241.83 2381.71C7251.03 2383.16 7259.33 2385.28 7266.24 2387.94C7273.14 2390.61 7278.51 2393.77 7282 2397.23C7285.5 2400.69 7287.06 2404.38 7286.58 2408.06L7265.9 2576.29C7264.76 2583.93 7255.81 2591.12 7240.86 2596.41C7225.92 2601.71 7206.09 2604.71 7185.39 2604.81Z" fill="#003249"/>
<g opacity="0.8">
<path d="M3712.78 2604.81H3257.64C3247.66 2604.83 3237.77 2604.09 3228.59 2602.64C3219.4 2601.2 3211.11 2599.08 3204.22 2596.41C3197.33 2593.74 3191.98 2590.58 3188.51 2587.12C3185.03 2583.66 3183.5 2579.97 3184.01 2576.29L3203.7 2408.07C3204.94 2400.43 3213.94 2393.24 3228.91 2387.95C3243.88 2382.66 3263.71 2379.66 3284.41 2379.55H3740.34C3750.32 2379.53 3760.21 2380.27 3769.39 2381.72C3778.58 2383.16 3786.87 2385.28 3793.76 2387.95C3800.65 2390.62 3806 2393.78 3809.47 2397.24C3812.94 2400.7 3814.47 2404.38 3813.97 2408.07L3794.28 2576.29C3793.03 2583.98 3783.91 2591.21 3768.78 2596.5C3753.64 2601.8 3733.62 2604.77 3712.78 2604.81Z" fill="#FAFAFA"/>
<path d="M4407.5 2604.81H3952.36C3942.38 2604.82 3932.49 2604.09 3923.3 2602.64C3914.12 2601.2 3905.83 2599.07 3898.94 2596.4C3892.05 2593.73 3886.7 2590.57 3883.23 2587.11C3879.75 2583.66 3878.22 2579.97 3878.73 2576.29L3898.42 2408.07C3899.61 2400.42 3908.6 2393.22 3923.58 2387.93C3938.56 2382.64 3958.41 2379.64 3979.13 2379.54H4434.07C4444.15 2379.52 4454.14 2380.26 4463.41 2381.71C4472.68 2383.17 4481.05 2385.32 4487.99 2388.02C4494.93 2390.72 4500.29 2393.92 4503.75 2397.42C4507.21 2400.91 4508.69 2404.64 4508.09 2408.36L4488.41 2576.29C4487.26 2583.95 4478.25 2591.17 4463.22 2596.46C4448.19 2601.76 4428.27 2604.75 4407.5 2604.81Z" fill="#FAFAFA"/>
<path d="M5102.02 2604.81H4647.08C4637.09 2604.83 4627.19 2604.1 4617.99 2602.66C4608.79 2601.22 4600.49 2599.1 4593.59 2596.43C4586.7 2593.75 4581.35 2590.59 4577.89 2587.13C4574.42 2583.66 4572.91 2579.97 4573.45 2576.29L4593.14 2408.07C4594.33 2400.42 4603.32 2393.22 4618.3 2387.93C4633.28 2382.64 4653.13 2379.64 4673.85 2379.54H5128.79C5138.78 2379.52 5148.68 2380.25 5157.88 2381.69C5167.08 2383.13 5175.38 2385.25 5182.28 2387.93C5189.17 2390.6 5194.52 2393.76 5197.98 2397.23C5201.45 2400.69 5202.96 2404.38 5202.42 2408.07L5182.73 2576.29C5181.54 2583.93 5172.55 2591.13 5157.57 2596.42C5142.59 2601.71 5122.74 2604.71 5102.02 2604.81Z" fill="#FAFAFA"/>
<path d="M5796.74 2604.81H5341.8C5331.81 2604.82 5321.91 2604.09 5312.72 2602.64C5303.52 2601.2 5295.22 2599.08 5288.31 2596.41C5281.41 2593.74 5276.04 2590.58 5272.54 2587.12C5269.05 2583.66 5267.49 2579.97 5267.97 2576.29L5287.66 2408.07C5288.81 2400.43 5297.76 2393.23 5312.7 2387.94C5327.65 2382.64 5347.48 2379.64 5368.18 2379.54H5823.32C5833.45 2379.48 5843.51 2380.18 5852.87 2381.63C5862.23 2383.07 5870.68 2385.21 5877.69 2387.91C5884.69 2390.62 5890.11 2393.83 5893.59 2397.35C5897.08 2400.87 5898.55 2404.62 5897.93 2408.36L5878.24 2576.58C5876.84 2584.22 5867.66 2591.39 5852.53 2596.63C5837.41 2601.86 5817.47 2604.79 5796.74 2604.81Z" fill="#FAFAFA"/>
<path d="M6491.46 2604.81H6036.32C6026.34 2604.82 6016.45 2604.09 6007.27 2602.64C5998.08 2601.2 5989.79 2599.07 5982.9 2596.41C5976.01 2593.74 5970.66 2590.58 5967.19 2587.12C5963.71 2583.66 5962.18 2579.97 5962.69 2576.29L5982.38 2408.07C5983.43 2400.36 5992.38 2393.1 6007.41 2387.74C6022.44 2382.39 6042.42 2379.36 6063.29 2379.25H6518.43C6528.41 2379.24 6538.3 2379.98 6547.48 2381.42C6556.67 2382.87 6564.96 2384.99 6571.85 2387.66C6578.74 2390.33 6584.08 2393.49 6587.56 2396.95C6591.03 2400.41 6592.56 2404.09 6592.05 2407.78L6572.37 2576C6571.32 2583.7 6562.37 2590.97 6547.34 2596.32C6532.31 2601.67 6512.33 2604.71 6491.46 2604.81Z" fill="#FAFAFA"/>
<path d="M7185.39 2604.81H6731.04C6721.05 2604.84 6711.15 2604.11 6701.95 2602.67C6692.75 2601.22 6684.45 2599.1 6677.55 2596.43C6670.65 2593.76 6665.31 2590.59 6661.85 2587.13C6658.38 2583.67 6656.87 2579.98 6657.41 2576.29L6677.1 2408.07C6678.29 2400.42 6687.28 2393.23 6702.26 2387.94C6717.24 2382.64 6737.09 2379.64 6757.81 2379.55H7212.75C7222.74 2379.53 7232.64 2380.27 7241.83 2381.71C7251.03 2383.16 7259.33 2385.28 7266.24 2387.95C7273.14 2390.62 7278.51 2393.78 7282 2397.24C7285.5 2400.69 7287.06 2404.38 7286.58 2408.07L7265.9 2576.29C7264.76 2583.93 7255.81 2591.12 7240.86 2596.42C7225.92 2601.71 7206.09 2604.71 7185.39 2604.81Z" fill="#FAFAFA"/>
</g>
<path d="M3681.28 2865.73H3225.75C3215.76 2865.75 3205.86 2865.02 3196.66 2863.58C3187.46 2862.14 3179.16 2860.02 3172.26 2857.35C3165.37 2854.67 3160.02 2851.51 3156.56 2848.05C3153.09 2844.58 3151.58 2840.89 3152.12 2837.21L3171.81 2669.06C3173 2661.41 3181.99 2654.22 3196.97 2648.92C3211.95 2643.63 3231.8 2640.63 3252.52 2640.54H3707.66C3717.65 2640.51 3727.55 2641.24 3736.75 2642.68C3745.95 2644.12 3754.25 2646.25 3761.15 2648.92C3768.04 2651.59 3773.39 2654.75 3776.85 2658.22C3780.31 2661.68 3781.82 2665.37 3781.29 2669.06L3761.6 2837.21C3760.46 2844.83 3751.53 2852.02 3736.63 2857.31C3721.73 2862.6 3701.95 2865.61 3681.28 2865.73Z" fill="#003249"/>
<path d="M4375.61 2865.73H3920.47C3910.48 2865.75 3900.58 2865.02 3891.38 2863.58C3882.18 2862.14 3873.88 2860.02 3866.98 2857.35C3860.08 2854.67 3854.74 2851.51 3851.28 2848.05C3847.81 2844.58 3846.3 2840.89 3846.84 2837.21L3866.53 2669.06C3867.67 2661.41 3876.65 2654.2 3891.64 2648.91C3906.63 2643.61 3926.5 2640.62 3947.24 2640.54H4402.18C4412.19 2640.5 4422.11 2641.22 4431.33 2642.66C4440.55 2644.1 4448.88 2646.22 4455.8 2648.89C4462.71 2651.56 4468.08 2654.73 4471.55 2658.2C4475.03 2661.67 4476.54 2665.36 4476 2669.06L4456.32 2837.21C4455.22 2844.86 4446.25 2852.08 4431.26 2857.38C4416.26 2862.68 4396.36 2865.67 4375.61 2865.73Z" fill="#003249"/>
<path d="M5070.13 2865.73H4615.18C4605.19 2865.75 4595.3 2865.02 4586.1 2863.58C4576.9 2862.14 4568.6 2860.02 4561.7 2857.35C4554.8 2854.67 4549.46 2851.51 4546 2848.05C4542.53 2844.58 4541.02 2840.89 4541.56 2837.21L4561.25 2669.06C4562.39 2661.41 4571.37 2654.2 4586.36 2648.9C4601.35 2643.61 4621.22 2640.62 4641.96 2640.54H5098.67C5108.67 2640.51 5118.58 2641.24 5127.79 2642.68C5136.99 2644.12 5145.31 2646.24 5152.22 2648.91C5159.13 2651.58 5164.5 2654.75 5167.98 2658.21C5171.47 2661.68 5173.01 2665.37 5172.5 2669.06L5151.83 2837.21C5150.67 2844.92 5141.55 2852.18 5126.35 2857.48C5111.16 2862.79 5091.03 2865.74 5070.13 2865.73Z" fill="#003249"/>
<path d="M5764.85 2865.73H5309.9C5299.91 2865.75 5290 2865.02 5280.79 2863.58C5271.58 2862.14 5263.27 2860.02 5256.36 2857.35C5249.44 2854.68 5244.08 2851.52 5240.59 2848.05C5237.11 2844.59 5235.57 2840.9 5236.08 2837.21L5255.77 2669.06C5256.87 2661.41 5265.8 2654.21 5280.76 2648.91C5295.72 2643.61 5315.57 2640.62 5336.28 2640.54H5791.42C5801.41 2640.51 5811.31 2641.24 5820.51 2642.68C5829.71 2644.12 5838.01 2646.25 5844.91 2648.92C5851.8 2651.59 5857.15 2654.75 5860.61 2658.22C5864.08 2661.68 5865.59 2665.37 5865.05 2669.06L5845.36 2837.21C5844.22 2844.85 5835.27 2852.04 5820.32 2857.33C5805.38 2862.63 5785.55 2865.63 5764.85 2865.73Z" fill="#003249"/>
<path d="M6459.57 2865.73H6004.23C5994.24 2865.75 5984.34 2865.02 5975.14 2863.58C5965.94 2862.14 5957.64 2860.02 5950.74 2857.35C5943.85 2854.67 5938.5 2851.51 5935.04 2848.05C5931.58 2844.58 5930.07 2840.89 5930.6 2837.21L5950.29 2669.06C5951.48 2661.41 5960.48 2654.22 5975.45 2648.92C5990.43 2643.63 6010.28 2640.63 6031 2640.54H6486.14C6496.13 2640.51 6506.03 2641.24 6515.23 2642.68C6524.43 2644.12 6532.73 2646.25 6539.63 2648.92C6546.52 2651.59 6551.87 2654.75 6555.33 2658.22C6558.8 2661.68 6560.31 2665.37 6559.77 2669.06L6540.08 2837.21C6538.89 2844.84 6529.93 2852.02 6514.99 2857.32C6500.05 2862.61 6480.25 2865.61 6459.57 2865.73Z" fill="#003249"/>
<path d="M7154.29 2865.73H6699.15C6689.16 2865.75 6679.26 2865.02 6670.06 2863.58C6660.86 2862.14 6652.56 2860.02 6645.66 2857.35C6638.76 2854.67 6633.42 2851.51 6629.96 2848.05C6626.49 2844.58 6624.98 2840.89 6625.52 2837.21L6645.21 2669.06C6646.35 2661.41 6655.33 2654.2 6670.32 2648.9C6685.31 2643.61 6705.18 2640.62 6725.92 2640.54H7180.86C7190.86 2640.51 7200.77 2641.24 7209.98 2642.68C7219.18 2644.12 7227.5 2646.24 7234.41 2648.91C7241.32 2651.58 7246.69 2654.75 7250.17 2658.21C7253.66 2661.68 7255.19 2665.37 7254.68 2669.06L7234.01 2837.21C7232.92 2844.8 7224.1 2851.97 7209.31 2857.26C7194.52 2862.55 7174.86 2865.57 7154.29 2865.73Z" fill="#003249"/>
<g opacity="0.8">
<path d="M3681.28 2865.73H3225.75C3215.76 2865.75 3205.86 2865.02 3196.66 2863.58C3187.46 2862.14 3179.16 2860.02 3172.26 2857.35C3165.37 2854.67 3160.02 2851.51 3156.56 2848.05C3153.09 2844.58 3151.58 2840.89 3152.12 2837.21L3171.81 2669.06C3173 2661.41 3181.99 2654.22 3196.97 2648.92C3211.95 2643.63 3231.8 2640.63 3252.52 2640.54H3707.66C3717.65 2640.51 3727.55 2641.24 3736.75 2642.68C3745.95 2644.12 3754.25 2646.25 3761.15 2648.92C3768.04 2651.59 3773.39 2654.75 3776.85 2658.22C3780.31 2661.68 3781.82 2665.37 3781.29 2669.06L3761.6 2837.21C3760.46 2844.83 3751.53 2852.02 3736.63 2857.31C3721.73 2862.6 3701.95 2865.61 3681.28 2865.73Z" fill="#FAFAFA"/>
<path d="M4375.61 2865.73H3920.47C3910.48 2865.75 3900.58 2865.02 3891.38 2863.58C3882.18 2862.14 3873.88 2860.02 3866.98 2857.35C3860.08 2854.67 3854.74 2851.51 3851.28 2848.05C3847.81 2844.58 3846.3 2840.89 3846.84 2837.21L3866.53 2669.06C3867.67 2661.41 3876.65 2654.2 3891.64 2648.91C3906.63 2643.61 3926.5 2640.62 3947.24 2640.54H4402.18C4412.19 2640.5 4422.11 2641.22 4431.33 2642.66C4440.55 2644.1 4448.88 2646.22 4455.8 2648.89C4462.71 2651.56 4468.08 2654.73 4471.55 2658.2C4475.03 2661.67 4476.54 2665.36 4476 2669.06L4456.32 2837.21C4455.22 2844.86 4446.25 2852.08 4431.26 2857.38C4416.26 2862.68 4396.36 2865.67 4375.61 2865.73Z" fill="#FAFAFA"/>
<path d="M5070.13 2865.73H4615.18C4605.19 2865.75 4595.3 2865.02 4586.1 2863.58C4576.9 2862.14 4568.6 2860.02 4561.7 2857.35C4554.8 2854.67 4549.46 2851.51 4546 2848.05C4542.53 2844.58 4541.02 2840.89 4541.56 2837.21L4561.25 2669.06C4562.39 2661.41 4571.37 2654.2 4586.36 2648.9C4601.35 2643.61 4621.22 2640.62 4641.96 2640.54H5098.67C5108.67 2640.51 5118.58 2641.24 5127.79 2642.68C5136.99 2644.12 5145.31 2646.24 5152.22 2648.91C5159.13 2651.58 5164.5 2654.75 5167.98 2658.21C5171.47 2661.68 5173.01 2665.37 5172.5 2669.06L5151.83 2837.21C5150.67 2844.92 5141.55 2852.18 5126.35 2857.48C5111.16 2862.79 5091.03 2865.74 5070.13 2865.73Z" fill="#FAFAFA"/>
<path d="M5764.85 2865.73H5309.9C5299.91 2865.75 5290 2865.02 5280.79 2863.58C5271.58 2862.14 5263.27 2860.02 5256.36 2857.35C5249.44 2854.68 5244.08 2851.52 5240.59 2848.05C5237.11 2844.59 5235.57 2840.9 5236.08 2837.21L5255.77 2669.06C5256.87 2661.41 5265.8 2654.21 5280.76 2648.91C5295.72 2643.61 5315.57 2640.62 5336.28 2640.54H5791.42C5801.41 2640.51 5811.31 2641.24 5820.51 2642.68C5829.71 2644.12 5838.01 2646.25 5844.91 2648.92C5851.8 2651.59 5857.15 2654.75 5860.61 2658.22C5864.08 2661.68 5865.59 2665.37 5865.05 2669.06L5845.36 2837.21C5844.22 2844.85 5835.27 2852.04 5820.32 2857.33C5805.38 2862.63 5785.55 2865.63 5764.85 2865.73Z" fill="#FAFAFA"/>
<path d="M6459.57 2865.73H6004.23C5994.24 2865.75 5984.34 2865.02 5975.14 2863.58C5965.94 2862.14 5957.64 2860.02 5950.74 2857.35C5943.85 2854.67 5938.5 2851.51 5935.04 2848.05C5931.58 2844.58 5930.07 2840.89 5930.6 2837.21L5950.29 2669.06C5951.48 2661.41 5960.48 2654.22 5975.45 2648.92C5990.43 2643.63 6010.28 2640.63 6031 2640.54H6486.14C6496.13 2640.51 6506.03 2641.24 6515.23 2642.68C6524.43 2644.12 6532.73 2646.25 6539.63 2648.92C6546.52 2651.59 6551.87 2654.75 6555.33 2658.22C6558.8 2661.68 6560.31 2665.37 6559.77 2669.06L6540.08 2837.21C6538.89 2844.84 6529.93 2852.02 6514.99 2857.32C6500.05 2862.61 6480.25 2865.61 6459.57 2865.73Z" fill="#FAFAFA"/>
<path d="M7154.29 2865.73H6699.15C6689.16 2865.75 6679.26 2865.02 6670.06 2863.58C6660.86 2862.14 6652.56 2860.02 6645.66 2857.35C6638.76 2854.67 6633.42 2851.51 6629.96 2848.05C6626.49 2844.58 6624.98 2840.89 6625.52 2837.21L6645.21 2669.06C6646.35 2661.41 6655.33 2654.2 6670.32 2648.9C6685.31 2643.61 6705.18 2640.62 6725.92 2640.54H7180.86C7190.86 2640.51 7200.77 2641.24 7209.98 2642.68C7219.18 2644.12 7227.5 2646.24 7234.41 2648.91C7241.32 2651.58 7246.69 2654.75 7250.17 2658.21C7253.66 2661.68 7255.19 2665.37 7254.68 2669.06L7234.01 2837.21C7232.92 2844.8 7224.1 2851.97 7209.31 2857.26C7194.52 2862.55 7174.86 2865.57 7154.29 2865.73Z" fill="#FAFAFA"/>
</g>
<path d="M3552.34 1982.28C3384.61 1982.28 3253.11 1910.17 3253.11 1818.13C3253.11 1726.09 3384.61 1654.05 3552.34 1654.05C3720.06 1654.05 3851.76 1726.16 3851.76 1818.13C3851 1822.44 3845.82 1826.49 3837.29 1829.44C3828.75 1832.4 3817.49 1834.04 3805.8 1834.04C3794.1 1834.04 3782.84 1832.4 3774.3 1829.44C3765.77 1826.49 3760.59 1822.44 3759.83 1818.13C3759.83 1747.62 3664.94 1687.96 3552.34 1687.96C3439.73 1687.96 3344.85 1747.62 3344.85 1818.13C3344.85 1888.63 3439.93 1948.3 3552.34 1948.3C3558.63 1948.14 3564.94 1948.47 3570.87 1949.26C3576.8 1950.04 3582.24 1951.27 3586.84 1952.86C3591.44 1954.45 3595.11 1956.38 3597.61 1958.51C3600.12 1960.65 3601.41 1962.96 3601.41 1965.29C3601.41 1967.62 3600.12 1969.92 3597.61 1972.06C3595.11 1974.19 3591.44 1976.12 3586.84 1977.71C3582.24 1979.3 3576.8 1980.53 3570.87 1981.32C3564.94 1982.1 3558.63 1982.43 3552.34 1982.28Z" fill="#003249"/>
<path d="M4247.06 1982.28C4079.33 1982.28 3947.83 1910.17 3947.83 1818.13C3947.83 1726.09 4079.33 1654.05 4247.06 1654.05C4414.78 1654.05 4547.47 1726.16 4547.47 1818.13C4546.7 1822.44 4541.53 1826.49 4532.99 1829.44C4524.45 1832.4 4513.2 1834.04 4501.5 1834.04C4489.8 1834.04 4478.54 1832.4 4470.01 1829.44C4461.47 1826.49 4456.3 1822.44 4455.53 1818.13C4455.53 1747.62 4360.65 1687.96 4248.04 1687.96C4135.44 1687.96 4040.55 1747.62 4040.55 1818.13C4040.55 1888.63 4135.63 1948.3 4248.04 1948.3C4259.71 1948.58 4270.66 1950.49 4278.65 1953.65C4286.65 1956.8 4291.1 1960.96 4291.1 1965.29C4291.1 1969.61 4286.65 1973.77 4278.65 1976.92C4270.66 1980.08 4259.71 1981.99 4248.04 1982.28H4247.06Z" fill="#003249"/>
<path d="M4941.19 1982.28C4773.26 1982.28 4641.76 1910.17 4641.76 1818.13C4641.76 1726.09 4773.26 1654.05 4941.19 1654.05C5109.11 1654.05 5240.41 1726.16 5240.41 1818.13C5240.41 1822.62 5235.58 1826.94 5226.98 1830.12C5218.38 1833.3 5206.71 1835.08 5194.54 1835.08C5182.38 1835.08 5170.71 1833.3 5162.11 1830.12C5153.51 1826.94 5148.68 1822.62 5148.68 1818.13C5148.68 1747.62 5053.59 1687.96 4941.19 1687.96C4828.78 1687.96 4733.7 1747.62 4733.7 1818.13C4733.7 1888.63 4828.78 1948.3 4941.19 1948.3C4952.86 1948.58 4963.8 1950.49 4971.8 1953.65C4979.79 1956.8 4984.24 1960.96 4984.24 1965.29C4984.24 1969.61 4979.79 1973.77 4971.8 1976.92C4963.8 1980.08 4952.86 1981.99 4941.19 1982.28Z" fill="#003249"/>
<path d="M5636.49 1982.28C5468.57 1982.28 5337.07 1910.17 5337.07 1818.13C5337.07 1726.09 5468.57 1654.05 5636.49 1654.05C5804.42 1654.05 5935.72 1726.16 5935.72 1818.13C5935.72 1822.62 5930.89 1826.94 5922.29 1830.12C5913.69 1833.3 5902.02 1835.08 5889.85 1835.08C5877.69 1835.08 5866.02 1833.3 5857.42 1830.12C5848.82 1826.94 5843.98 1822.62 5843.98 1818.13C5843.98 1747.62 5748.9 1687.96 5636.49 1687.96C5524.09 1687.96 5429 1747.62 5429 1818.13C5429 1888.63 5523.89 1948.3 5636.49 1948.3C5648.17 1948.58 5659.11 1950.49 5667.11 1953.65C5675.1 1956.8 5679.55 1960.96 5679.55 1965.29C5679.55 1969.61 5675.1 1973.77 5667.11 1976.92C5659.11 1980.08 5648.17 1981.99 5636.49 1982.28Z" fill="#003249"/>
<path d="M6331.02 1982.28C6163.29 1982.28 6031.79 1910.17 6031.79 1818.13C6031.79 1726.09 6163.29 1654.05 6331.02 1654.05C6498.74 1654.05 6630.44 1726.16 6630.44 1818.13C6629.68 1822.44 6624.5 1826.49 6615.96 1829.44C6607.43 1832.4 6596.17 1834.04 6584.47 1834.04C6572.78 1834.04 6561.52 1832.4 6552.98 1829.44C6544.45 1826.49 6539.27 1822.44 6538.51 1818.13C6538.51 1747.62 6443.62 1687.96 6331.02 1687.96C6218.41 1687.96 6123.53 1747.62 6123.53 1818.13C6123.53 1888.63 6218.61 1948.3 6331.02 1948.3C6337.31 1948.14 6343.61 1948.47 6349.55 1949.26C6355.48 1950.04 6360.92 1951.27 6365.52 1952.86C6370.12 1954.45 6373.78 1956.38 6376.29 1958.51C6378.8 1960.65 6380.09 1962.96 6380.09 1965.29C6380.09 1967.62 6378.8 1969.92 6376.29 1972.06C6373.78 1974.19 6370.12 1976.12 6365.52 1977.71C6360.92 1979.3 6355.48 1980.53 6349.55 1981.32C6343.61 1982.1 6337.31 1982.43 6331.02 1982.28Z" fill="#003249"/>
<path d="M7025.74 1982.28C6858.01 1982.28 6726.51 1910.17 6726.51 1818.13C6726.51 1726.09 6858.01 1654.05 7025.74 1654.05C7193.46 1654.05 7325.16 1726.16 7325.16 1818.13C7324.39 1822.44 7319.22 1826.49 7310.68 1829.44C7302.15 1832.4 7290.89 1834.04 7279.19 1834.04C7267.5 1834.04 7256.24 1832.4 7247.7 1829.44C7239.16 1826.49 7233.99 1822.44 7233.23 1818.13C7233.23 1747.62 7138.14 1687.96 7025.74 1687.96C6913.33 1687.96 6818.24 1747.62 6818.24 1818.13C6818.24 1888.63 6913.33 1948.3 7025.74 1948.3C7037.41 1948.58 7048.35 1950.49 7056.35 1953.65C7064.34 1956.8 7068.79 1960.96 7068.79 1965.29C7068.79 1969.61 7064.34 1973.77 7056.35 1976.92C7048.35 1980.08 7037.41 1981.99 7025.74 1982.28Z" fill="#003249"/>
<g opacity="0.3">
<path d="M3552.34 1982.28C3384.61 1982.28 3253.11 1910.17 3253.11 1818.13C3253.11 1726.09 3384.61 1654.05 3552.34 1654.05C3720.06 1654.05 3851.76 1726.16 3851.76 1818.13C3851 1822.44 3845.82 1826.49 3837.29 1829.44C3828.75 1832.4 3817.49 1834.04 3805.8 1834.04C3794.1 1834.04 3782.84 1832.4 3774.3 1829.44C3765.77 1826.49 3760.59 1822.44 3759.83 1818.13C3759.83 1747.62 3664.94 1687.96 3552.34 1687.96C3439.73 1687.96 3344.85 1747.62 3344.85 1818.13C3344.85 1888.63 3439.93 1948.3 3552.34 1948.3C3558.63 1948.14 3564.94 1948.47 3570.87 1949.26C3576.8 1950.04 3582.24 1951.27 3586.84 1952.86C3591.44 1954.45 3595.11 1956.38 3597.61 1958.51C3600.12 1960.65 3601.41 1962.96 3601.41 1965.29C3601.41 1967.62 3600.12 1969.92 3597.61 1972.06C3595.11 1974.19 3591.44 1976.12 3586.84 1977.71C3582.24 1979.3 3576.8 1980.53 3570.87 1981.32C3564.94 1982.1 3558.63 1982.43 3552.34 1982.28Z" fill="black"/>
<path d="M4247.06 1982.28C4079.33 1982.28 3947.83 1910.17 3947.83 1818.13C3947.83 1726.09 4079.33 1654.05 4247.06 1654.05C4414.78 1654.05 4547.47 1726.16 4547.47 1818.13C4546.7 1822.44 4541.53 1826.49 4532.99 1829.44C4524.45 1832.4 4513.2 1834.04 4501.5 1834.04C4489.8 1834.04 4478.54 1832.4 4470.01 1829.44C4461.47 1826.49 4456.3 1822.44 4455.53 1818.13C4455.53 1747.62 4360.65 1687.96 4248.04 1687.96C4135.44 1687.96 4040.55 1747.62 4040.55 1818.13C4040.55 1888.63 4135.63 1948.3 4248.04 1948.3C4259.71 1948.58 4270.66 1950.49 4278.65 1953.65C4286.65 1956.8 4291.1 1960.96 4291.1 1965.29C4291.1 1969.61 4286.65 1973.77 4278.65 1976.92C4270.66 1980.08 4259.71 1981.99 4248.04 1982.28H4247.06Z" fill="black"/>
<path d="M4941.19 1982.28C4773.26 1982.28 4641.76 1910.17 4641.76 1818.13C4641.76 1726.09 4773.26 1654.05 4941.19 1654.05C5109.11 1654.05 5240.41 1726.16 5240.41 1818.13C5240.41 1822.62 5235.58 1826.94 5226.98 1830.12C5218.38 1833.3 5206.71 1835.08 5194.54 1835.08C5182.38 1835.08 5170.71 1833.3 5162.11 1830.12C5153.51 1826.94 5148.68 1822.62 5148.68 1818.13C5148.68 1747.62 5053.59 1687.96 4941.19 1687.96C4828.78 1687.96 4733.7 1747.62 4733.7 1818.13C4733.7 1888.63 4828.78 1948.3 4941.19 1948.3C4952.86 1948.58 4963.8 1950.49 4971.8 1953.65C4979.79 1956.8 4984.24 1960.96 4984.24 1965.29C4984.24 1969.61 4979.79 1973.77 4971.8 1976.92C4963.8 1980.08 4952.86 1981.99 4941.19 1982.28Z" fill="black"/>
<path d="M5636.49 1982.28C5468.57 1982.28 5337.07 1910.17 5337.07 1818.13C5337.07 1726.09 5468.57 1654.05 5636.49 1654.05C5804.42 1654.05 5935.72 1726.16 5935.72 1818.13C5935.72 1822.62 5930.89 1826.94 5922.29 1830.12C5913.69 1833.3 5902.02 1835.08 5889.85 1835.08C5877.69 1835.08 5866.02 1833.3 5857.42 1830.12C5848.82 1826.94 5843.98 1822.62 5843.98 1818.13C5843.98 1747.62 5748.9 1687.96 5636.49 1687.96C5524.09 1687.96 5429 1747.62 5429 1818.13C5429 1888.63 5523.89 1948.3 5636.49 1948.3C5648.17 1948.58 5659.11 1950.49 5667.11 1953.65C5675.1 1956.8 5679.55 1960.96 5679.55 1965.29C5679.55 1969.61 5675.1 1973.77 5667.11 1976.92C5659.11 1980.08 5648.17 1981.99 5636.49 1982.28Z" fill="black"/>
<path d="M6331.02 1982.28C6163.29 1982.28 6031.79 1910.17 6031.79 1818.13C6031.79 1726.09 6163.29 1654.05 6331.02 1654.05C6498.74 1654.05 6630.44 1726.16 6630.44 1818.13C6629.68 1822.44 6624.5 1826.49 6615.96 1829.44C6607.43 1832.4 6596.17 1834.04 6584.47 1834.04C6572.78 1834.04 6561.52 1832.4 6552.98 1829.44C6544.45 1826.49 6539.27 1822.44 6538.51 1818.13C6538.51 1747.62 6443.62 1687.96 6331.02 1687.96C6218.41 1687.96 6123.53 1747.62 6123.53 1818.13C6123.53 1888.63 6218.61 1948.3 6331.02 1948.3C6337.31 1948.14 6343.61 1948.47 6349.55 1949.26C6355.48 1950.04 6360.92 1951.27 6365.52 1952.86C6370.12 1954.45 6373.78 1956.38 6376.29 1958.51C6378.8 1960.65 6380.09 1962.96 6380.09 1965.29C6380.09 1967.62 6378.8 1969.92 6376.29 1972.06C6373.78 1974.19 6370.12 1976.12 6365.52 1977.71C6360.92 1979.3 6355.48 1980.53 6349.55 1981.32C6343.61 1982.1 6337.31 1982.43 6331.02 1982.28Z" fill="black"/>
<path d="M7025.74 1982.28C6858.01 1982.28 6726.51 1910.17 6726.51 1818.13C6726.51 1726.09 6858.01 1654.05 7025.74 1654.05C7193.46 1654.05 7325.16 1726.16 7325.16 1818.13C7324.39 1822.44 7319.22 1826.49 7310.68 1829.44C7302.15 1832.4 7290.89 1834.04 7279.19 1834.04C7267.5 1834.04 7256.24 1832.4 7247.7 1829.44C7239.16 1826.49 7233.99 1822.44 7233.23 1818.13C7233.23 1747.62 7138.14 1687.96 7025.74 1687.96C6913.33 1687.96 6818.24 1747.62 6818.24 1818.13C6818.24 1888.63 6913.33 1948.3 7025.74 1948.3C7037.41 1948.58 7048.35 1950.49 7056.35 1953.65C7064.34 1956.8 7068.79 1960.96 7068.79 1965.29C7068.79 1969.61 7064.34 1973.77 7056.35 1976.92C7048.35 1980.08 7037.41 1981.99 7025.74 1982.28Z" fill="black"/>
</g>
<path d="M5682.95 2353.21C5522.32 2341.42 5341.99 2355.17 5277.62 2417.74C5225.85 2468.09 5292.19 2522.66 5435.11 2535.98C5561.1 2547.69 5778.43 2533.36 5823.32 2479.66C5874.7 2418.25 5665.83 2398.32 5548.7 2394.68C5513.46 2393.59 5513.66 2413.96 5548.7 2415.05C5602.05 2416.73 5663.07 2417.82 5710.32 2428.66C5808.75 2451.43 5768.2 2487.96 5684.33 2505.42C5600.47 2522.88 5471.92 2527.25 5389.04 2507.89C5298.49 2486.58 5295.53 2439.72 5349.67 2409.16C5420.74 2368.78 5550.47 2364.27 5667.4 2372.78C5702.05 2375.33 5716.82 2355.68 5681.97 2353.13L5682.95 2353.21Z" fill="#003249"/>
<path opacity="0.1" d="M5682.95 2353.21C5522.32 2341.42 5341.99 2355.17 5277.62 2417.74C5225.85 2468.09 5292.19 2522.66 5435.11 2535.98C5561.1 2547.69 5778.43 2533.36 5823.32 2479.66C5874.7 2418.25 5665.83 2398.32 5548.7 2394.68C5513.46 2393.59 5513.66 2413.96 5548.7 2415.05C5602.05 2416.73 5663.07 2417.82 5710.32 2428.66C5808.75 2451.43 5768.2 2487.96 5684.33 2505.42C5600.47 2522.88 5471.92 2527.25 5389.04 2507.89C5298.49 2486.58 5295.53 2439.72 5349.67 2409.16C5420.74 2368.78 5550.47 2364.27 5667.4 2372.78C5702.05 2375.33 5716.82 2355.68 5681.97 2353.13L5682.95 2353.21Z" fill="#FAFAFA"/>
<path d="M3910.62 2118.85C4064.25 2194.12 4235.52 2264.24 4422.46 2328.4C4448.45 2337.34 4487.62 2322.94 4461.83 2313.84C4278.1 2250.95 4109.66 2182.22 3958.46 2108.44C3937.4 2098.11 3889.56 2108.44 3911.02 2118.7L3910.62 2118.85Z" fill="#003249"/>
<path d="M3967.52 2319.88C4083.66 2243.56 4287.02 2178.44 4479.35 2128.6C4508.09 2121.32 4480.73 2103.42 4451.59 2110.99C4251.58 2162.94 4041.34 2230.02 3920.07 2309.55C3916.74 2311.87 3915.96 2314.57 3917.89 2317.09C3919.82 2319.62 3924.31 2321.77 3930.43 2323.1C3936.54 2324.43 3943.81 2324.84 3950.72 2324.24C3957.63 2323.64 3963.64 2322.08 3967.52 2319.88Z" fill="#003249"/>
<g opacity="0.2">
<path d="M3910.62 2118.85C4064.25 2194.12 4235.52 2264.24 4422.46 2328.4C4448.45 2337.34 4487.62 2322.94 4461.83 2313.84C4278.1 2250.95 4109.66 2182.22 3958.46 2108.44C3937.4 2098.11 3889.56 2108.44 3911.02 2118.7L3910.62 2118.85Z" fill="black"/>
<path d="M3967.52 2319.88C4083.66 2243.56 4287.02 2178.44 4479.35 2128.6C4508.09 2121.32 4480.73 2103.42 4451.6 2110.99C4251.59 2162.94 4041.34 2230.02 3920.07 2309.55C3916.75 2311.87 3915.97 2314.57 3917.89 2317.09C3919.82 2319.62 3924.31 2321.77 3930.43 2323.1C3936.54 2324.43 3943.81 2324.84 3950.72 2324.24C3957.63 2323.64 3963.65 2322.08 3967.52 2319.88Z" fill="black"/>
</g>
<path d="M6100.1 2183.96H6459.37C6466.25 2183.75 6472.66 2182.59 6477.34 2180.71C6482.01 2178.83 6484.6 2176.37 6484.6 2173.81C6484.6 2171.26 6482.01 2168.8 6477.34 2166.92C6472.66 2165.04 6466.25 2163.88 6459.37 2163.66H6100.1C6093.22 2163.88 6086.81 2165.04 6082.13 2166.92C6077.46 2168.8 6074.87 2171.26 6074.87 2173.81C6074.87 2176.37 6077.46 2178.83 6082.13 2180.71C6086.81 2182.59 6093.22 2183.75 6100.1 2183.96Z" fill="#003249"/>
<path d="M6095.97 2221.73H6304.24C6311.55 2221.73 6318.56 2220.66 6323.73 2218.74C6328.9 2216.83 6331.81 2214.24 6331.81 2211.54C6331.81 2208.84 6328.9 2206.25 6323.73 2204.34C6318.56 2202.43 6311.55 2201.36 6304.24 2201.36H6095.97C6088.66 2201.36 6081.65 2202.43 6076.48 2204.34C6071.31 2206.25 6068.41 2208.84 6068.41 2211.54C6068.41 2214.24 6071.31 2216.83 6076.48 2218.74C6081.65 2220.66 6088.66 2221.73 6095.97 2221.73Z" fill="#003249"/>
<g opacity="0.1">
<path d="M6100.1 2183.96H6459.37C6466.25 2183.75 6472.66 2182.59 6477.34 2180.71C6482.01 2178.83 6484.6 2176.37 6484.6 2173.81C6484.6 2171.26 6482.01 2168.8 6477.34 2166.92C6472.66 2165.04 6466.25 2163.88 6459.37 2163.66H6100.1C6093.22 2163.88 6086.81 2165.04 6082.13 2166.92C6077.46 2168.8 6074.87 2171.26 6074.87 2173.81C6074.87 2176.37 6077.46 2178.83 6082.13 2180.71C6086.81 2182.59 6093.22 2183.75 6100.1 2183.96Z" fill="#FAFAFA"/>
<path d="M6095.97 2221.73H6304.24C6311.55 2221.73 6318.56 2220.66 6323.73 2218.74C6328.9 2216.83 6331.81 2214.24 6331.81 2211.54C6331.81 2208.84 6328.9 2206.25 6323.73 2204.34C6318.56 2202.43 6311.55 2201.36 6304.24 2201.36H6095.97C6088.66 2201.36 6081.65 2202.43 6076.48 2204.34C6071.31 2206.25 6068.41 2208.84 6068.41 2211.54C6068.41 2214.24 6071.31 2216.83 6076.48 2218.74C6081.65 2220.66 6088.66 2221.73 6095.97 2221.73Z" fill="#FAFAFA"/>
</g>
<path d="M3948.22 2705.22H4256.31C4263.62 2705.22 4270.63 2704.14 4275.8 2702.23C4280.97 2700.32 4283.87 2697.73 4283.87 2695.03C4283.87 2692.33 4280.97 2689.74 4275.8 2687.83C4270.63 2685.92 4263.62 2684.84 4256.31 2684.84H3948.22C3940.91 2684.84 3933.9 2685.92 3928.74 2687.83C3923.57 2689.74 3920.66 2692.33 3920.66 2695.03C3920.66 2697.73 3923.57 2700.32 3928.74 2702.23C3933.9 2704.14 3940.91 2705.22 3948.22 2705.22Z" fill="#003249"/>
<path d="M3937.2 2748.95H4336.83C4344.14 2748.95 4351.15 2747.87 4356.31 2745.96C4361.48 2744.05 4364.39 2741.46 4364.39 2738.76C4364.39 2736.06 4361.48 2733.47 4356.31 2731.56C4351.15 2729.65 4344.14 2728.57 4336.83 2728.57H3937.2C3929.89 2728.57 3922.88 2729.65 3917.71 2731.56C3912.54 2733.47 3909.64 2736.06 3909.64 2738.76C3909.64 2741.46 3912.54 2744.05 3917.71 2745.96C3922.88 2747.87 3929.89 2748.95 3937.2 2748.95Z" fill="#003249"/>
<path d="M3937.2 2793.99H4137.01C4144.32 2793.99 4151.33 2792.91 4156.5 2791C4161.67 2789.09 4164.57 2786.5 4164.57 2783.8C4164.57 2781.1 4161.67 2778.51 4156.5 2776.6C4151.33 2774.69 4144.32 2773.61 4137.01 2773.61H3937.2C3929.89 2773.61 3922.88 2774.69 3917.71 2776.6C3912.54 2778.51 3909.64 2781.1 3909.64 2783.8C3909.64 2786.5 3912.54 2789.09 3917.71 2791C3922.88 2792.91 3929.89 2793.99 3937.2 2793.99Z" fill="#003249"/>
<g opacity="0.1">
<path d="M3948.22 2705.22H4256.31C4263.62 2705.22 4270.63 2704.14 4275.8 2702.23C4280.97 2700.32 4283.87 2697.73 4283.87 2695.03C4283.87 2692.33 4280.97 2689.74 4275.8 2687.83C4270.63 2685.92 4263.62 2684.84 4256.31 2684.84H3948.22C3940.91 2684.84 3933.9 2685.92 3928.74 2687.83C3923.57 2689.74 3920.66 2692.33 3920.66 2695.03C3920.66 2697.73 3923.57 2700.32 3928.74 2702.23C3933.9 2704.14 3940.91 2705.22 3948.22 2705.22Z" fill="#FAFAFA"/>
<path d="M3937.2 2748.95H4336.83C4344.14 2748.95 4351.15 2747.87 4356.31 2745.96C4361.48 2744.05 4364.39 2741.46 4364.39 2738.76C4364.39 2736.06 4361.48 2733.47 4356.31 2731.56C4351.15 2729.65 4344.14 2728.57 4336.83 2728.57H3937.2C3929.89 2728.57 3922.88 2729.65 3917.71 2731.56C3912.54 2733.47 3909.64 2736.06 3909.64 2738.76C3909.64 2741.46 3912.54 2744.05 3917.71 2745.96C3922.88 2747.87 3929.89 2748.95 3937.2 2748.95Z" fill="#FAFAFA"/>
<path d="M3937.2 2793.98H4137.01C4144.32 2793.98 4151.33 2792.91 4156.5 2791C4161.67 2789.09 4164.57 2786.5 4164.57 2783.8C4164.57 2781.09 4161.67 2778.5 4156.5 2776.59C4151.33 2774.68 4144.32 2773.61 4137.01 2773.61H3937.2C3929.89 2773.61 3922.88 2774.68 3917.71 2776.59C3912.54 2778.5 3909.64 2781.09 3909.64 2783.8C3909.64 2786.5 3912.54 2789.09 3917.71 2791C3922.88 2792.91 3929.89 2793.98 3937.2 2793.98Z" fill="#FAFAFA"/>
</g>
<path d="M1775.48 1562.81L1868.6 1561.29L1826.47 1626.77C1793.24 1618.36 1762.95 1608.46 1736.31 1597.3C1728.62 1593.96 1724.81 1589.64 1725.69 1585.26C1726.58 1580.89 1732.09 1576.83 1741.03 1573.95L1775.48 1562.81Z" fill="#E4897B"/>
<path d="M1976.67 1596.57L1934.94 1649.83L1826.47 1626.62L1868.59 1561.29L1976.67 1596.57Z" fill="#E4897B"/>
<path d="M1958.31 1280.39L1767.78 1286.91L2204.77 3031.29L2395.3 3024.77L1958.31 1280.39Z" fill="#003249"/>
<path opacity="0.3" d="M1958.31 1280.39L1767.78 1286.91L2204.77 3031.29L2395.3 3024.77L1958.31 1280.39Z" fill="black"/>
<path d="M2339.46 1267.31L2148.93 1273.83L2585.92 3018.21L2776.46 3011.69L2339.46 1267.31Z" fill="#003249"/>
<path opacity="0.3" d="M2339.46 1267.31L2148.93 1273.83L2585.92 3018.21L2776.46 3011.69L2339.46 1267.31Z" fill="black"/>
<path d="M2148.98 1273.85L1958.45 1280.37L2395.45 3024.75L2585.98 3018.23L2148.98 1273.85Z" fill="#003249"/>
<path opacity="0.1" d="M2148.98 1273.85L1958.45 1280.37L2395.45 3024.75L2585.98 3018.23L2148.98 1273.85Z" fill="black"/>
<path d="M2108.76 1151.86L1937.3 1157.76L1767.8 1286.91L2339.48 1267.33L2108.76 1151.86Z" fill="#003249"/>
<g opacity="0.8">
<path d="M2108.76 1151.86L1937.3 1157.76L1767.8 1286.91L2339.48 1267.33L2108.76 1151.86Z" fill="#FAFAFA"/>
</g>
<path d="M2009.94 1102.39L1937.3 1157.76L2108.77 1151.86L2009.94 1102.39Z" fill="#263238"/>
<path d="M3450.56 1200.98C3470.25 1208.25 3486.59 1215.16 3503.52 1222.8C3520.45 1230.44 3536.59 1237.36 3552.73 1244.63C3585.21 1259.18 3615.53 1274.54 3645.06 1290.18C3705.93 1321.99 3757.29 1356.14 3798.22 1392.04C3803.14 1396.7 3807.67 1401.58 3812.39 1406.6L3819.48 1413.87C3823.38 1418.23 3826.15 1422.71 3827.75 1427.26C3832.02 1441.74 3826.82 1456.39 3812.59 1469.97C3791.34 1490.02 3761.57 1508.69 3724.39 1525.27C3658.67 1555 3582.99 1581.53 3499.19 1604.21L3424.97 1575.11C3483.38 1548.12 3536.79 1519.7 3584.82 1490.05C3605.86 1477.38 3622.03 1463.7 3632.85 1449.38C3635.85 1445.87 3636.19 1442.12 3633.84 1438.54L3627.15 1433.15C3622.62 1429.59 3618.68 1425.88 3613.76 1422.39C3572.09 1392.5 3523.34 1364.04 3468.08 1337.33C3440.52 1323.43 3411.39 1309.9 3381.86 1296.36C3367.09 1289.67 3352.13 1282.98 3336.78 1276.43L3291.89 1257.29L3450.56 1200.98Z" fill="#E4897B"/>
<path d="M3305.87 1597.3L3389.73 1658.64L3471.82 1632.52L3404.5 1588.93L3305.87 1597.3Z" fill="#E4897B"/>
<path d="M2674.15 1236.92C2623.09 1272.86 2570.07 1308.39 2515.08 1343.51C2488.11 1361.19 2459.77 1378.58 2432.21 1396.12L2389.88 1422.31L2379.25 1428.86C2373.94 1431.99 2368.03 1435.7 2362.71 1438.17C2357.4 1440.65 2352.08 1443.63 2346.97 1445.89C2341.85 1448.14 2336.34 1450.69 2331.22 1452.8C2291.45 1468.81 2249.11 1483.92 2204.44 1498.05C2161.33 1511.66 2118.21 1524.9 2073.72 1537.49C1985.73 1562.88 1895.37 1586.53 1801.66 1609.09L1734.14 1577.65L1967.42 1492.74C2005.61 1478.19 2044.2 1464.51 2080.61 1450.11C2116.4 1436.55 2150.11 1422.26 2181.6 1407.32C2185.41 1405.58 2188.76 1403.9 2191.64 1402.3C2194.99 1400.56 2197.35 1399.1 2199.71 1397.65C2201.75 1396.48 2203.59 1395.26 2205.23 1394.01L2214.28 1387.24L2250.7 1359.81C2275.7 1341.69 2300.11 1323.43 2325.51 1305.46C2375.77 1269.22 2428.27 1233.4 2483 1197.99L2674.15 1236.92Z" fill="#E4897B"/>
<path d="M3226.73 991.136C3224.17 995.356 3228.31 999.357 3235.59 1000.09C3242.88 1000.81 3250.95 997.902 3253.51 993.682C3256.07 989.462 3251.73 985.46 3244.45 984.733C3237.17 984.005 3228.51 986.916 3226.73 991.136Z" fill="#263238"/>
<path d="M3227.13 999.285C3233.29 1013.48 3244.55 1027.3 3260.59 1040.39C3251.53 1041.72 3241.8 1042.3 3232.07 1042.08C3222.34 1041.87 3212.86 1040.87 3204.29 1039.16L3227.13 999.285Z" fill="#DE5753"/>
<path d="M3256.85 965.527C3255.45 965.528 3254.08 965.376 3252.92 965.09C3245.64 963.448 3237.4 962.483 3228.89 962.281C3220.39 962.078 3211.88 962.642 3204.09 963.926C3202.39 964.171 3200.5 964.164 3198.82 963.906C3197.13 963.649 3195.78 963.16 3195.04 962.543C3194.38 961.915 3194.39 961.216 3195.09 960.593C3195.79 959.969 3197.11 959.469 3198.78 959.196C3208.73 957.617 3219.57 956.951 3230.36 957.255C3241.16 957.559 3251.6 958.825 3260.79 960.943C3261.54 961.126 3262.18 961.362 3262.67 961.638C3263.17 961.914 3263.51 962.224 3263.68 962.55C3263.84 962.876 3263.83 963.211 3263.64 963.535C3263.44 963.858 3263.08 964.165 3262.56 964.435C3261.92 964.775 3261.07 965.052 3260.07 965.242C3259.08 965.432 3257.97 965.53 3256.85 965.527Z" fill="#263238"/>
<path d="M2828.49 1007.21C2853.29 1046.36 2881.44 1117.96 2810.18 1144.08C2810.18 1144.08 2843.25 1183.73 3039.91 1183.73C3256.46 1183.73 3138.34 1144.08 3138.34 1144.08C3019.24 1133.67 3018.85 1101.29 3036.17 1070.95L2828.49 1007.21Z" fill="#E4897B"/>
<path d="M2783.4 1157.69C2766.47 1145.17 2747.97 1130.76 2783.4 1126.25C2821.59 1121.31 3033.61 1116.28 3107.83 1125.53C3127.6 1127.48 3144.54 1132.21 3155.05 1138.7C3165.56 1145.19 3168.82 1152.94 3164.13 1160.3L2783.4 1157.69Z" fill="#003249"/>
<path opacity="0.6" d="M2783.4 1157.69C2766.47 1145.17 2747.97 1130.76 2783.4 1126.25C2821.59 1121.31 3033.61 1116.28 3107.83 1125.53C3127.6 1127.48 3144.54 1132.21 3155.05 1138.7C3165.56 1145.19 3168.82 1152.94 3164.13 1160.3L2783.4 1157.69Z" fill="#FAFAFA"/>
<path d="M2500.12 2983.16C2487.41 2983.13 2474.75 2982.62 2462.33 2981.63C2461.69 2981.59 2461.1 2981.48 2460.64 2981.31C2460.18 2981.14 2459.88 2980.92 2459.77 2980.69C2459.64 2980.44 2459.7 2980.19 2459.94 2979.96C2460.18 2979.73 2460.6 2979.52 2461.14 2979.38C2462.72 2978.94 2500.52 2968.9 2522.56 2970.65C2524.95 2970.8 2527.21 2971.15 2529.18 2971.66C2531.16 2972.18 2532.8 2972.85 2533.98 2973.63C2535.76 2974.5 2536.71 2975.56 2536.71 2976.65C2536.71 2977.74 2535.76 2978.8 2533.98 2979.67C2529.26 2982.5 2514.89 2983.16 2500.12 2983.16ZM2471.97 2979.81C2493.63 2981.12 2523.16 2981.12 2529.06 2978.14C2529.06 2978.14 2531.42 2976.98 2528.08 2974.87C2527.36 2974.4 2526.36 2974 2525.17 2973.7C2523.98 2973.4 2522.62 2973.2 2521.19 2973.12C2503.31 2973.55 2486.18 2975.93 2471.97 2979.96V2979.81Z" fill="#FAFAFA"/>
<path d="M2463.11 2981.85H2461.34C2460.83 2981.74 2460.41 2981.58 2460.13 2981.39C2459.85 2981.19 2459.72 2980.98 2459.77 2980.76C2459.77 2980.1 2461.54 2964.68 2477.88 2959.58C2479.84 2958.94 2482.15 2958.45 2484.67 2958.16C2487.18 2957.87 2489.83 2957.79 2492.44 2957.91C2495.1 2957.91 2497.67 2958.25 2499.72 2958.88C2501.77 2959.5 2503.16 2960.37 2503.67 2961.33C2506.82 2967.3 2479.25 2978.94 2464.29 2981.92L2463.11 2981.85ZM2490.08 2960.02C2487.25 2960.03 2484.53 2960.42 2482.4 2961.11C2472.75 2966 2467.39 2971.87 2467.05 2977.92C2481.22 2973.77 2498.74 2964.97 2496.97 2961.48C2496.97 2961.11 2496.97 2960.24 2491.66 2960.02H2490.08Z" fill="#FAFAFA"/>
<path d="M3368.67 2983.16C3353.74 2983.16 3338.85 2982.65 3324.18 2981.63C3323.49 2981.59 3322.85 2981.47 3322.36 2981.28C3321.86 2981.1 3321.54 2980.87 3321.42 2980.61C3321.31 2980.36 3321.4 2980.1 3321.68 2979.87C3321.96 2979.64 3322.42 2979.44 3323 2979.3C3330.28 2977.77 3394.46 2964.17 3410.01 2973.55C3411.57 2974.37 3412.4 2975.35 3412.4 2976.36C3412.4 2977.36 3411.57 2978.34 3410.01 2979.16C3405.68 2982.36 3387.17 2983.16 3368.67 2983.16ZM3335.01 2979.74C3362.17 2981.19 3398.79 2980.98 3405.09 2977.7C3405.09 2977.7 3407.06 2976.68 3404.1 2974.86C3395.44 2969.7 3356.46 2975.88 3335.01 2979.88V2979.74Z" fill="#FAFAFA"/>
<path d="M3324.77 2981.85C3324.12 2981.91 3323.44 2981.91 3322.8 2981.85C3322.31 2981.72 3321.92 2981.54 3321.68 2981.34C3321.43 2981.13 3321.34 2980.91 3321.42 2980.68C3321.42 2980.1 3323.78 2965.7 3341.11 2960.09C3343.73 2959.2 3346.87 2958.55 3350.27 2958.17C3353.68 2957.79 3357.28 2957.7 3360.79 2957.91C3370.44 2958.27 3373.2 2960.09 3373.79 2961.55C3376.54 2967.73 3343.67 2979.01 3326.34 2981.92L3324.77 2981.85ZM3357.84 2960.02C3353.47 2960 3349.24 2960.6 3346.03 2961.69C3335.68 2966.38 3329.68 2972.17 3328.9 2978.21C3346.23 2974.28 3368.27 2965.33 3366.9 2961.62C3366.9 2961.26 3366.9 2960.31 3359.81 2960.02H3357.84Z" fill="#FAFAFA"/>
<path d="M3165.71 2980.54H3310.4L3311.78 2856.78H3167.28L3165.71 2980.54Z" fill="#E4897B"/>
<path d="M2297.36 2980.54H2442.05L2501.89 2856.78H2357.2L2297.36 2980.54Z" fill="#E4897B"/>
<path d="M2451.69 2974.36H2289.29C2286.41 2974.34 2283.62 2974.71 2281.42 2975.39C2279.22 2976.07 2277.75 2977.02 2277.28 2978.07L2253.65 3025.58C2253.17 3026.76 2253.38 3027.96 2254.28 3029.11C2255.18 3030.25 2256.74 3031.31 2258.86 3032.21C2260.97 3033.11 2263.59 3033.83 2266.54 3034.32C2269.48 3034.81 2272.67 3035.05 2275.9 3035.04C2332.59 3034.67 2359.96 3033.44 2431.42 3033.44C2475.32 3033.44 2566.07 3035.18 2626.9 3035.18C2687.73 3035.18 2693.05 3013.36 2668.04 3010.95C2555.64 3001.93 2512.33 2989.49 2475.51 2977.7C2468.94 2975.55 2460.47 2974.36 2451.69 2974.36Z" fill="#263238"/>
<path d="M3308.82 2974.36H3151.34C3148.46 2974.34 3145.67 2974.71 3143.47 2975.39C3141.27 2976.07 3139.8 2977.02 3139.33 2978.07L3115.7 3025.58C3115.15 3026.75 3115.31 3027.95 3116.16 3029.1C3117.01 3030.24 3118.53 3031.3 3120.61 3032.21C3122.7 3033.11 3125.3 3033.83 3128.23 3034.32C3131.16 3034.81 3134.34 3035.06 3137.56 3035.04C3194.45 3034.67 3276.54 3033.44 3348.2 3033.44C3432.06 3033.44 3504.5 3035.18 3602.74 3035.18C3661.79 3035.18 3676.16 3013.36 3651.16 3010.95C3536.98 3001.79 3444.46 3000.84 3344.46 2978.58C3333.88 2975.97 3321.53 2974.51 3308.82 2974.36Z" fill="#263238"/>
<path d="M2534.38 1156.15C2399.92 1167.65 2258.77 1304.22 2258.77 1304.22L2538.12 1373.2C2602.25 1337.26 2658.47 1299.47 2706.23 1260.2C2780.06 1197.7 2671.59 1144.44 2534.38 1156.15Z" fill="#003249"/>
<path opacity="0.7" d="M2534.38 1156.15C2399.92 1167.65 2258.77 1304.22 2258.77 1304.22L2538.12 1373.2C2602.25 1337.26 2658.47 1299.47 2706.23 1260.2C2780.06 1197.7 2671.59 1144.44 2534.38 1156.15Z" fill="black"/>
<path d="M2640.48 1243.25L2524.93 1369.93L2538.12 1373.2C2538.12 1373.2 2590.87 1344.1 2646.98 1305.31L2640.48 1243.25Z" fill="#003249"/>
<path opacity="0.8" d="M2640.48 1243.25L2524.93 1369.93L2538.12 1373.2C2538.12 1373.2 2590.87 1344.1 2646.98 1305.31L2640.48 1243.25Z" fill="black"/>
<path d="M3436.59 1394.96C3435.41 1454.62 3425.76 1528.83 3401.74 1620.95H2628.08C2618.04 1577.29 2670.41 1362.94 2534.38 1156.16C2619.47 1150.06 2705.55 1146.03 2792.07 1144.08C2901.56 1141.75 3011.33 1141.75 3120.82 1144.08C3196.34 1146.79 3271.17 1151.66 3344.65 1158.63C3344.65 1158.63 3410.8 1185.12 3430.88 1309.32C3434.81 1334.13 3436.98 1362.36 3436.59 1394.96Z" fill="#003249"/>
<path opacity="0.7" d="M3436.59 1394.96C3435.41 1454.62 3425.76 1528.83 3401.74 1620.95H2628.08C2618.04 1577.29 2670.41 1362.94 2534.38 1156.16C2619.47 1150.06 2705.55 1146.03 2792.07 1144.08C2901.56 1141.75 3011.33 1141.75 3120.82 1144.08C3196.34 1146.79 3271.17 1151.66 3344.65 1158.63C3344.65 1158.63 3410.8 1185.12 3430.88 1309.32C3434.81 1334.13 3436.98 1362.36 3436.59 1394.96Z" fill="black"/>
<path d="M3436.59 1394.95C3389.73 1363.37 3304.69 1300 3316.7 1263.98L3430.88 1309.68C3434.81 1334.13 3436.98 1362.36 3436.59 1394.95Z" fill="#003249"/>
<path opacity="0.8" d="M3436.59 1394.95C3389.73 1363.37 3304.69 1300 3316.7 1263.98L3430.88 1309.68C3434.81 1334.13 3436.98 1362.36 3436.59 1394.95Z" fill="black"/>
<path d="M3193.07 1207.23C3180.86 1258.16 3493.28 1380.69 3493.28 1380.69L3743.69 1305.31C3678.1 1264.41 3599.52 1226.55 3509.62 1192.53C3363.16 1140.22 3206.85 1150.19 3193.07 1207.23Z" fill="#003249"/>
<path opacity="0.7" d="M3193.07 1207.23C3180.86 1258.16 3493.28 1380.69 3493.28 1380.69L3743.69 1305.31C3678.1 1264.41 3599.52 1226.55 3509.62 1192.53C3363.16 1140.22 3206.85 1150.19 3193.07 1207.23Z" fill="black"/>
<path d="M3311.78 2856.85L3310.99 2920.59H3166.49L3167.08 2856.85H3311.78Z" fill="#CE6F64"/>
<path d="M2357.2 2856.85H2501.89L2470.99 2920.59H2326.29L2357.2 2856.85Z" fill="#CE6F64"/>
<path d="M2854.47 946.972C2833.41 999.65 2813.92 1029.92 2868.64 1063.39C2886.04 1074.23 2911.13 1083.1 2941.2 1089.04C2971.26 1094.99 3005.16 1097.78 3039.21 1097.11C3073.26 1096.44 3106.17 1092.35 3134.36 1085.26C3162.56 1078.17 3184.97 1068.37 3199.17 1056.91C3255.67 1013.26 3280.87 934.384 3156.65 901.06C3130.44 893.58 3099.36 888.782 3066.54 887.15C3033.72 885.518 3000.32 887.108 2969.69 891.762C2939.06 896.416 2912.29 903.968 2892.06 913.66C2871.83 923.351 2858.87 934.84 2854.47 946.972Z" fill="#E4897B"/>
<path d="M3282.64 922.014C3240.04 930.614 3193.16 935.936 3144.84 937.658C3108.81 998.558 3012.94 1068.63 2857.82 1048.47C2798.76 1041.2 2739.7 988.299 2733.6 941.368C2723.36 945.952 2716.47 951.919 2711.16 954.392C2702.3 933.536 2708.69 912.184 2729.66 892.546C2772.58 847.581 2801.12 877.412 2847.78 850.127C2877.9 832.083 2931.44 822.77 3024.95 821.605C2998.77 826.626 2993.85 834.702 3032.63 833.538C3071.41 832.374 3236.97 829.027 3333.43 853.111C3268.27 858.568 3308.04 896.767 3395.05 876.394C3363.35 895.384 3323.98 913.429 3282.64 922.014Z" fill="#263238"/>
<path d="M3033.42 979.566C3033.97 992.962 3046.11 1005.94 3068.06 1016.6C3097.4 1030.57 3131.06 1023.88 3139.13 1008.16C3146.22 994.191 3139.13 970.035 3102.51 961.595C3065.9 953.154 3033.22 963.559 3033.42 979.566Z" fill="#E4897B"/>
<path d="M2857.03 855.805C2837.38 855.344 2818.34 853.114 2801.56 849.31C2784.78 845.505 2770.78 840.241 2760.77 833.977C2760.77 833.977 2758.21 876.614 2857.03 855.805Z" fill="#1E2A4C"/>
<path d="M3127.12 1620.95C3127.12 1620.95 3005.86 2029.42 2931.64 2182.44C2850.53 2349.78 2537.92 2908.29 2537.92 2908.29H2272.16C2272.16 2908.29 2460.75 2363.54 2500.12 2197.35C2542.45 2017.27 2628.87 1620.66 2628.87 1620.66L3127.12 1620.95Z" fill="#003249"/>
<path opacity="0.6" d="M3127.12 1620.95C3127.12 1620.95 3005.86 2029.42 2931.64 2182.44C2850.53 2349.78 2537.92 2908.29 2537.92 2908.29H2272.16C2272.16 2908.29 2460.75 2363.54 2500.12 2197.35C2542.45 2017.27 2628.87 1620.66 2628.87 1620.66L3127.12 1620.95Z" fill="#FAFAFA"/>
<path d="M2575.52 2872.2C2576.7 2872.2 2552.09 2909.82 2552.09 2909.82H2254.24L2256.21 2876.27L2575.52 2872.2Z" fill="#003249"/>
<path opacity="0.1" d="M2575.52 2872.2C2576.7 2872.2 2552.09 2909.82 2552.09 2909.82H2254.24L2256.21 2876.27L2575.52 2872.2Z" fill="#FAFAFA"/>
<path d="M3038.73 1766.47C2850.34 1780.22 2897.78 2041.79 2934.59 2176.32C2979.48 2081.23 3040.5 1898.24 3081.65 1768.36C3068.33 1765.96 3053.21 1765.29 3038.73 1766.47Z" fill="#003249"/>
<path opacity="0.4" d="M3038.73 1766.47C2850.34 1780.22 2897.78 2041.79 2934.59 2176.32C2979.48 2081.23 3040.5 1898.24 3081.65 1768.36C3068.33 1765.96 3053.21 1765.29 3038.73 1766.47Z" fill="#FAFAFA"/>
<path d="M3401.54 1620.95C3401.54 1620.95 3463.36 2020.54 3464.54 2183.6C3465.92 2353.13 3363.75 2908.29 3363.75 2908.29H3118.66C3118.66 2908.29 3052.71 2363.02 3024.36 2196.55C2993.65 2015.01 2893.05 1620.95 2893.05 1620.95H3401.54Z" fill="#003249"/>
<path opacity="0.6" d="M3401.54 1620.95C3401.54 1620.95 3463.36 2020.54 3464.54 2183.6C3465.92 2353.13 3363.75 2908.29 3363.75 2908.29H3118.66C3118.66 2908.29 3052.71 2363.02 3024.36 2196.55C2993.65 2015.01 2893.05 1620.95 2893.05 1620.95H3401.54Z" fill="#FAFAFA"/>
<path d="M3460.8 1569.58L3392.09 1571.62C3386.5 1571.79 3381.08 1572.42 3376.22 1573.47C3371.37 1574.51 3367.21 1575.94 3364.04 1577.66C3360.87 1579.37 3358.78 1581.33 3357.91 1583.38C3357.04 1585.43 3357.42 1587.52 3359.02 1589.51L3387.37 1624.8C3389.76 1627.67 3393.99 1630.28 3399.7 1632.41C3405.42 1634.55 3412.44 1636.14 3420.17 1637.05C3427.9 1637.97 3436.12 1638.18 3444.11 1637.67C3452.11 1637.16 3459.66 1635.94 3466.11 1634.12C3501.6 1621.91 3527.05 1606.25 3539.54 1588.93L3460.8 1569.58Z" fill="#E4897B"/>
<path d="M3305.67 2843.24C3305.01 2843.21 3304.41 2843.08 3303.97 2842.9C3303.54 2842.71 3303.3 2842.47 3303.31 2842.22C3330.48 2688.63 3393.47 2316.89 3392.29 2183.6C3392.29 2047.17 3347.41 1742.02 3333.23 1651.72C3333.21 1651.6 3333.25 1651.48 3333.35 1651.37C3333.46 1651.25 3333.63 1651.15 3333.85 1651.06C3334.07 1650.97 3334.34 1650.9 3334.64 1650.85C3334.94 1650.8 3335.27 1650.78 3335.6 1650.78C3336.24 1650.78 3336.86 1650.87 3337.34 1651.03C3337.81 1651.19 3338.11 1651.41 3338.15 1651.65C3351.54 1741.95 3395.44 2047.1 3397.21 2183.6C3398.39 2316.97 3335.4 2688.7 3308.23 2842.37C3308.23 2842.49 3308.17 2842.61 3308.04 2842.72C3307.9 2842.83 3307.71 2842.93 3307.47 2843.01C3307.23 2843.09 3306.95 2843.16 3306.64 2843.2C3306.33 2843.24 3306 2843.25 3305.67 2843.24Z" fill="#003249"/>
<path opacity="0.3" d="M3305.67 2843.24C3305.01 2843.21 3304.41 2843.08 3303.97 2842.9C3303.54 2842.71 3303.3 2842.47 3303.31 2842.22C3330.48 2688.63 3393.47 2316.89 3392.29 2183.6C3392.29 2047.17 3347.41 1742.02 3333.23 1651.72C3333.21 1651.6 3333.25 1651.48 3333.35 1651.37C3333.46 1651.25 3333.63 1651.15 3333.85 1651.06C3334.07 1650.97 3334.34 1650.9 3334.64 1650.85C3334.94 1650.8 3335.27 1650.78 3335.6 1650.78C3336.24 1650.78 3336.86 1650.87 3337.34 1651.03C3337.81 1651.19 3338.11 1651.41 3338.15 1651.65C3351.54 1741.95 3395.44 2047.1 3397.21 2183.6C3398.39 2316.97 3335.4 2688.7 3308.23 2842.37C3308.23 2842.49 3308.17 2842.61 3308.04 2842.72C3307.9 2842.83 3307.71 2842.93 3307.47 2843.01C3307.23 2843.09 3306.95 2843.16 3306.64 2843.2C3306.33 2843.24 3306 2843.25 3305.67 2843.24Z" fill="#FAFAFA"/>
<path d="M3407.06 2872.2C3408.24 2872.2 3397.21 2909.82 3397.21 2909.82H3099.17L3087.55 2876.27L3407.06 2872.2Z" fill="#003249"/>
<path opacity="0.1" d="M3407.06 2872.2C3408.24 2872.2 3397.21 2909.82 3397.21 2909.82H3099.17L3087.55 2876.27L3407.06 2872.2Z" fill="#FAFAFA"/>
</svg>
