<svg width="498" height="455" viewBox="0 0 498 455" fill="none" xmlns="http://www.w3.org/2000/svg">
<g clip-path="url(#clip0_21_295)">
<path d="M241.997 378.929H0C0 354.047 10.8938 332.007 28.7907 315.656C38.9063 306.414 51.3564 299.304 65.3626 294.328C72.3658 316.367 94.9315 332.007 120.61 332.007C147.066 332.007 168.854 316.367 175.857 294.328C214.763 306.414 241.997 339.828 241.997 378.929Z" fill="#5DAFD8"/>
<path d="M176.634 294.328C169.631 316.367 147.065 332.008 121.387 332.008C94.9312 332.008 73.1437 316.367 66.1406 294.328C69.2531 292.906 72.3656 292.196 76.2562 291.485C82.4812 290.063 87.9281 289.352 94.9312 289.352C98.8218 300.016 108.937 307.836 122.165 307.836C134.615 307.836 145.509 300.016 149.4 289.352C155.625 289.352 161.85 290.063 168.075 291.485C169.631 292.906 172.743 293.617 176.634 294.328Z" fill="#328CCF"/>
<path d="M149.4 267.313V282.243C149.4 285.086 148.622 287.219 147.844 290.063C143.954 300.727 133.838 308.547 120.61 308.547C108.16 308.547 97.266 300.727 93.3753 290.063C92.5972 287.93 91.8191 285.086 91.8191 282.243V267.313C100.378 270.868 109.716 273 119.832 273C130.725 273 140.841 270.868 149.4 267.313Z" fill="#F1AF9B"/>
<path d="M186.75 169.914V212.57C186.75 213.992 186.75 214.703 186.75 216.125C185.193 238.875 170.409 258.07 148.622 267.312C140.062 270.867 130.725 273 120.609 273C110.494 273 101.156 270.867 92.5967 267.312C71.5874 258.07 56.0249 238.875 55.2468 216.125C55.2468 214.703 55.2468 213.992 55.2468 212.57V164.937C65.3624 173.469 107.381 203.328 149.4 161.383C153.29 157.828 156.403 153.562 160.293 148.586L176.634 161.383L186.75 169.914Z" fill="#F1AF9B"/>
<path d="M210.093 199.774C210.093 204.039 207.759 208.305 204.646 211.149C201.534 213.992 196.865 216.125 192.196 216.125H186.75C186.75 214.703 186.75 213.992 186.75 212.57V183.422H192.196C197.643 183.422 202.312 185.555 205.424 189.11C208.537 191.953 210.093 196.219 210.093 199.774ZM55.2468 216.125H49.7999C45.1312 216.125 40.4624 213.992 37.3499 211.149C34.2374 208.305 31.9031 204.039 31.9031 199.774C31.9031 195.508 33.4593 191.953 35.7937 189.11C38.9062 185.555 43.5749 183.422 49.0218 183.422H54.4686V212.57C54.4686 213.992 54.4686 214.703 55.2468 216.125Z" fill="#E0C28B"/>
<path d="M206.203 158.539V189.109C203.09 185.555 198.422 183.422 192.975 183.422H186.75V169.914L175.856 161.383L159.515 148.586C155.625 153.562 152.512 157.828 148.622 161.383C107.381 203.328 64.5843 173.469 54.4686 164.937V183.422H49.7999C44.353 183.422 39.6843 185.555 36.5718 189.109V154.273C36.5718 140.766 41.2405 127.258 49.0218 115.883C60.6936 99.5312 82.4811 94.5546 102.712 94.5546C126.056 94.5546 147.844 98.1093 170.409 93.1327C170.409 93.1327 174.3 104.508 169.631 113.039C190.64 119.437 206.203 137.211 206.203 158.539Z" fill="#1D2B4E"/>
<path d="M498 378.929H266.119C266.119 356.179 276.235 335.562 291.797 319.922C292.576 319.211 293.354 318.5 294.132 317.789C304.247 308.547 315.919 301.437 329.147 297.172C336.15 317.789 357.16 333.429 382.06 333.429C406.96 333.429 427.969 318.5 434.972 297.172C448.978 301.437 462.206 309.258 472.322 319.211C488.663 335.562 498 356.179 498 378.929Z" fill="#007EA7"/>
<path d="M434.971 297.883C427.968 318.5 406.959 334.141 382.059 334.141C357.159 334.141 335.371 319.211 329.146 297.883C332.259 297.172 335.371 295.75 338.484 295.039C343.93 293.617 350.155 292.906 356.38 292.906C359.493 302.86 370.387 310.68 382.059 310.68C394.509 310.68 404.624 303.571 407.737 292.906C413.962 292.906 419.409 293.617 425.634 295.039C428.746 296.461 431.859 297.172 434.971 297.883Z" fill="#007EA7"/>
<path d="M409.293 271.578V285.797C409.293 288.641 408.515 290.774 407.737 292.906C404.624 302.86 393.731 310.68 382.059 310.68C369.609 310.68 359.493 303.57 356.381 292.906C355.603 290.774 354.824 287.93 354.824 285.797V271.578C363.384 275.133 372.721 276.555 382.059 276.555C391.396 276.555 400.734 275.133 409.293 271.578Z" fill="#F1AF9B"/>
<path d="M356.381 293.617C350.156 293.617 344.709 294.328 338.484 295.75C335.372 296.461 332.259 297.172 329.147 298.594C315.919 302.86 303.469 309.969 294.131 319.211C293.353 319.922 292.575 320.633 291.797 321.344V210.438L292.575 211.149C295.687 213.993 300.356 216.125 305.803 216.125H312.028C313.584 241.008 330.703 262.336 354.825 271.578V285.797C354.825 288.641 355.603 290.774 356.381 293.617ZM472.322 210.438V319.922C462.206 309.969 448.978 302.149 434.972 297.883C431.86 297.172 428.747 295.75 425.635 295.039C420.188 293.617 413.963 292.906 407.738 292.906C408.516 290.774 409.294 287.93 409.294 285.797V271.578C433.416 262.336 450.535 241.008 452.091 216.125H458.316C463.763 216.125 468.431 213.993 471.544 211.149C472.322 211.149 472.322 210.438 472.322 210.438Z" fill="#1D2B4E"/>
<path d="M476.99 199.063C476.99 203.328 475.434 206.883 472.321 210.438L471.543 211.149C468.431 213.992 462.984 216.125 458.315 216.125H452.09C452.09 214.703 452.09 213.992 452.09 212.571V182H458.315C463.762 182 469.209 184.133 472.321 187.688C475.434 191.242 476.99 194.797 476.99 199.063ZM312.028 216.125H305.803C300.356 216.125 295.687 213.992 292.575 211.149L291.797 210.438C288.684 207.594 287.128 203.328 287.128 199.063C287.128 194.797 288.684 191.242 291.797 187.688C294.909 184.133 300.356 182 305.803 182H312.028V212.571C312.028 213.992 312.028 215.414 312.028 216.125Z" fill="#E0C28B"/>
<path d="M452.091 167.781V213.281C452.091 214.703 452.091 215.414 452.091 216.836C450.534 241.719 433.416 263.047 409.294 272.289C400.734 275.844 391.397 277.266 382.059 277.266C372.722 277.266 363.384 275.133 354.825 272.289C330.703 263.047 313.584 241.719 312.028 216.836C312.028 215.414 312.028 214.703 312.028 213.281V162.805C322.144 171.336 367.275 203.328 411.628 158.539C415.519 154.273 419.409 150.008 423.3 145.031L440.419 158.539L452.091 167.781Z" fill="#F1AF9B"/>
<path d="M472.322 158.539V187.687C469.21 184.133 463.763 182 458.316 182H452.091V167.781L440.419 158.539L423.3 145.031C419.41 150.008 415.519 154.984 411.628 158.539C367.275 203.328 322.922 171.336 312.028 162.805V182.711H305.803C300.356 182.711 294.909 184.844 291.797 188.398V159.25C291.797 136.5 301.913 115.883 318.253 100.953C334.594 86.0234 357.159 76.7813 382.059 76.7813C431.86 76.0703 472.322 113.039 472.322 158.539Z" fill="#1D2B4E"/>
</g>
<defs>
<clipPath id="clip0_21_295">
<rect width="498" height="455" fill="white"/>
</clipPath>
</defs>
</svg>
