<svg width="1249" height="771" viewBox="0 0 1249 771" fill="none" xmlns="http://www.w3.org/2000/svg">
<g clip-path="url(#clip0_12_2)">
<rect width="1249" height="771" fill="#9AD1D4"/>
<path opacity="0.1" d="M366.754 33.8628H259.635C253.456 33.8628 248.448 38.1953 248.448 43.5397V58.0486C248.448 63.3931 253.456 67.7256 259.635 67.7256H366.754C372.932 67.7256 377.941 63.3931 377.941 58.0486V43.5397C377.941 38.1953 372.932 33.8628 366.754 33.8628Z" fill="#6C63FF"/>
<path opacity="0.1" d="M502.271 67.7256H395.152C388.973 67.7256 383.964 72.0581 383.964 77.4025V91.9114C383.964 97.2559 388.973 101.588 395.152 101.588H502.271C508.449 101.588 513.458 97.2559 513.458 91.9114V77.4025C513.458 72.0581 508.449 67.7256 502.271 67.7256Z" fill="#6C63FF"/>
<path opacity="0.1" d="M502.271 16.9314H395.152C388.973 16.9314 383.964 21.2639 383.964 26.6083V41.1173C383.964 46.4617 388.973 50.7942 395.152 50.7942H502.271C508.449 50.7942 513.458 46.4617 513.458 41.1173V26.6083C513.458 21.2639 508.449 16.9314 502.271 16.9314Z" fill="#6C63FF"/>
<path opacity="0.1" d="M652.845 0H545.726C539.547 0 534.539 4.33252 534.539 9.67695V24.1859C534.539 29.5303 539.547 33.8628 545.726 33.8628H652.845C659.024 33.8628 664.032 29.5303 664.032 24.1859V9.67695C664.032 4.33252 659.024 0 652.845 0Z" fill="#6C63FF"/>
<path opacity="0.1" d="M788.361 33.8628H681.243C675.064 33.8628 670.055 38.1953 670.055 43.5397V58.0486C670.055 63.3931 675.064 67.7256 681.243 67.7256H788.361C794.54 67.7256 799.549 63.3931 799.549 58.0486V43.5397C799.549 38.1953 794.54 33.8628 788.361 33.8628Z" fill="#6C63FF"/>
<path opacity="0.1" d="M923.878 67.7256H816.76C810.581 67.7256 805.572 72.0581 805.572 77.4025V91.9114C805.572 97.2559 810.581 101.588 816.76 101.588H923.878C930.057 101.588 935.066 97.2559 935.066 91.9114V77.4025C935.066 72.0581 930.057 67.7256 923.878 67.7256Z" fill="#6C63FF"/>
<path opacity="0.1" d="M923.878 16.9314H816.76C810.581 16.9314 805.572 21.2639 805.572 26.6083V41.1173C805.572 46.4617 810.581 50.7942 816.76 50.7942H923.878C930.057 50.7942 935.066 46.4617 935.066 41.1173V26.6083C935.066 21.2639 930.057 16.9314 923.878 16.9314Z" fill="#6C63FF"/>
<path opacity="0.1" d="M231.237 433.704H124.118C117.94 433.704 112.931 438.037 112.931 443.381V457.89C112.931 463.235 117.94 467.567 124.118 467.567H231.237C237.416 467.567 242.425 463.235 242.425 457.89V443.381C242.425 438.037 237.416 433.704 231.237 433.704Z" fill="#6C63FF"/>
<path opacity="0.1" d="M652.845 433.704H545.726C539.547 433.704 534.539 438.037 534.539 443.381V457.89C534.539 463.235 539.547 467.567 545.726 467.567H652.845C659.024 467.567 664.032 463.235 664.032 457.89V443.381C664.032 438.037 659.024 433.704 652.845 433.704Z" fill="#6C63FF"/>
<path opacity="0.1" d="M923.878 501.43H816.76C810.581 501.43 805.572 505.762 805.572 511.107V525.616C805.572 530.96 810.581 535.293 816.76 535.293H923.878C930.057 535.293 935.066 530.96 935.066 525.616V511.107C935.066 505.762 930.057 501.43 923.878 501.43Z" fill="#6C63FF"/>
<path d="M1086.83 11.7217H10.8564C4.86058 11.7217 0 15.926 0 21.1122V477.713C0 482.899 4.86058 487.103 10.8564 487.103H1086.83C1092.83 487.103 1097.69 482.899 1097.69 477.713V21.1122C1097.69 15.926 1092.83 11.7217 1086.83 11.7217Z" fill="#3F3D56"/>
<path d="M1074.73 22.0408H25.3613C19.3655 22.0408 14.5049 26.245 14.5049 31.4312V467.394C14.5049 472.58 19.3655 476.784 25.3613 476.784H1074.73C1080.73 476.784 1085.59 472.58 1085.59 467.394V31.4312C1085.59 26.245 1080.73 22.0408 1074.73 22.0408Z" fill="white"/>
<path opacity="0.1" d="M0.0012207 458.45H1097.69V477.713C1097.69 480.203 1096.54 482.592 1094.51 484.353C1092.47 486.114 1089.71 487.103 1086.83 487.103H10.8576C7.97833 487.103 5.21695 486.114 3.18098 484.353C1.14501 482.592 0.0012207 480.203 0.0012207 477.713V458.45Z" fill="black"/>
<path d="M184.453 423.285H110.672C108.593 423.285 106.908 424.743 106.908 426.541V455.194C106.908 456.992 108.593 458.45 110.672 458.45H184.453C186.532 458.45 188.218 456.992 188.218 455.194V426.541C188.218 424.743 186.532 423.285 184.453 423.285Z" fill="#090814"/>
<path d="M263.505 453.241H213.815C212.152 453.241 210.804 454.407 210.804 455.845C210.804 457.284 212.152 458.45 213.815 458.45H263.505C265.168 458.45 266.516 457.284 266.516 455.845C266.516 454.407 265.168 453.241 263.505 453.241Z" fill="#090814"/>
<path d="M161.342 104.688C201.078 111.031 241.613 104.688 281.184 100.39L401.448 87.366C406.311 86.832 413.388 84.3184 416.249 89.4629C417.86 92.3413 416.776 98.5798 416.896 101.888C417.213 111.005 417.183 120.122 416.896 129.239C416.354 146.665 414.879 164.052 412.997 181.4C409.338 215.354 404.158 249.126 401.568 283.21C400.243 300.558 399.58 317.959 400.168 335.307C400.303 339.449 400.499 343.59 400.785 347.719C401.101 352.342 403.495 359.206 397.668 362.293C394.34 364.064 387.79 363.973 383.981 364.494C377.958 365.314 371.935 365.966 365.792 366.5C325.302 370.003 284.286 368.544 243.646 368.336L120.928 367.789L90.9936 367.646C88.2832 367.646 78.511 369.052 76.8396 366.265C76.1319 365.08 78.0141 359.532 78.3453 358.047C78.8071 355.598 79.309 353.154 79.8511 350.714C83.3444 333.588 87.4701 316.565 91.626 299.556C100.555 263.088 109.695 226.438 113.369 189.189C115.191 170.499 113.986 151.64 116.215 132.99C117.254 124.329 118.488 105.001 131.814 104.232C143.107 103.581 154.732 104.232 166.055 104.232C166.654 104.232 167.228 104.026 167.652 103.66C168.076 103.294 168.313 102.797 168.313 102.279C168.313 101.761 168.076 101.264 167.652 100.897C167.228 100.531 166.654 100.325 166.055 100.325C155.364 100.325 144.658 100.078 133.967 100.26C126.86 100.377 121.922 101.836 118.534 107.488C109.876 121.997 110.764 141.351 110.493 157.189C109.845 195.102 103.115 232.208 94.3514 269.287C89.9396 287.951 85.1814 306.55 80.7997 325.226C78.7368 334.148 76.7643 343.095 74.9574 352.069C74.1142 356.341 69.853 365.757 73.6023 369.678C77.3516 373.598 88.8855 371.488 94.0502 371.514L129.977 371.696L198.82 372.035C243.299 372.256 287.93 373.337 332.394 372.204C353.625 371.657 376.061 370.902 396.735 366.513C402.893 365.21 405.859 362.762 406.1 357.083C406.462 348.279 404.805 339.201 404.595 330.358C403.089 254.687 423.642 180.072 421.534 104.376C421.399 99.231 423.642 86.259 417.137 83.1462C414.216 81.7396 410.422 82.508 407.35 82.8206C401.478 83.4067 395.62 84.123 389.748 84.7221L313.482 92.9534C289.104 95.5582 264.741 98.3714 240.318 100.768C214.464 103.373 188.355 104.923 162.592 100.768C159.746 100.312 158.526 104.076 161.387 104.532L161.342 104.688Z" fill="#007EA7"/>
<path d="M113.399 150.729L414.277 137.965C417.183 137.835 417.198 133.927 414.277 134.058L113.399 146.821C110.508 146.939 110.493 150.846 113.399 150.729Z" fill="#007EA7"/>
<path d="M206.092 118.52C205.251 119.291 204.64 120.229 204.313 121.251C203.985 122.273 203.952 123.348 204.214 124.384C204.477 125.42 205.028 126.385 205.82 127.194C206.612 128.004 207.62 128.634 208.758 129.03C212.808 130.632 217.566 129.291 221.587 128.418C227.61 127.116 233.633 125.957 239.821 125.006C253.29 122.943 266.934 121.846 280.612 121.724C286.845 121.659 293.034 121.906 299.268 122.141C303.785 122.297 308.649 122.609 312.473 120.187C316.84 117.426 318.255 112.034 313.979 108.674C307.956 103.92 294.976 106.681 288.02 107.176C262.777 108.99 237.699 112.226 212.944 116.866C210.113 117.387 211.302 121.164 214.148 120.63C230.481 117.582 246.938 115.134 263.522 113.284C271.673 112.416 279.839 111.682 288.02 111.083C291.875 110.81 295.729 110.562 299.584 110.367C301.09 110.289 302.686 110.145 304.222 110.184C308.995 110.276 309.552 109.533 306.691 114.521C304.146 118.937 304.96 118.429 300.548 118.285C298.681 118.285 296.814 118.103 294.946 118.025C291.122 117.886 287.297 117.812 283.473 117.803C275.332 117.803 267.211 118.142 259.11 118.819C252.243 119.392 245.392 120.2 238.601 121.242C234.355 121.893 230.139 122.648 225.938 123.482C224.086 123.86 222.219 124.25 220.367 124.654C219.479 124.863 218.575 125.045 217.687 125.24C214.394 126.23 211.588 124.928 209.27 121.333C211.287 119.523 208.11 116.749 206.077 118.572L206.092 118.52Z" fill="#007EA7"/>
<path d="M260.63 174.107C238.842 173.378 215.308 178.47 200.958 193.643C189.725 205.508 183.326 225.865 195.221 239.228C208.005 253.554 236.042 251.028 252.951 244.919C270.839 238.407 290.414 224.979 295.79 208.178C302.49 187.196 280.732 171.333 258.071 171.098C257.472 171.098 256.897 171.304 256.474 171.671C256.05 172.037 255.812 172.534 255.812 173.052C255.812 173.57 256.05 174.067 256.474 174.433C256.897 174.8 257.472 175.006 258.071 175.006C270.99 175.136 283.668 179.929 289.691 190.335C296 201.301 290.565 212.815 282.163 221.593C268.701 235.568 247.651 246.104 226.209 245.805C213.335 245.636 199.106 241.819 195.116 230.072C191.833 220.551 194.333 210.145 200.054 201.705C212.432 183.471 237.623 177.298 260.721 178.079C263.627 178.17 263.627 174.263 260.721 174.172L260.63 174.107Z" fill="#007EA7"/>
<path d="M238.993 203.047C238.064 202.749 237.063 202.659 236.083 202.786C235.103 202.913 234.177 203.252 233.389 203.772C232.602 204.292 231.979 204.976 231.579 205.76C231.18 206.544 231.016 207.403 231.103 208.256C231.555 213.336 238.029 214.768 242.893 214.469C247.094 214.156 252.003 212.815 250.527 208.269C250.255 207.465 249.787 206.72 249.153 206.086C248.519 205.453 247.734 204.944 246.853 204.596C245.506 204.134 244.044 203.977 242.607 204.141C242.05 204.141 236.945 205.756 239.113 203.815L235.56 203.411C235.954 203.748 236.256 204.156 236.444 204.607C236.632 205.058 236.7 205.539 236.644 206.016C236.651 206.356 236.76 206.69 236.96 206.983C237.16 207.276 237.445 207.519 237.786 207.688C238.128 207.858 238.514 207.947 238.908 207.949C239.302 207.95 239.689 207.863 240.032 207.696C240.549 207.509 241.115 207.45 241.668 207.527C242.221 207.603 242.739 207.811 243.163 208.127C243.587 208.444 243.9 208.857 244.068 209.319C244.236 209.781 244.251 210.274 244.112 210.744C243.991 211.195 244.058 211.669 244.301 212.082C244.544 212.494 244.947 212.82 245.441 213C245.934 213.181 246.485 213.205 246.997 213.069C247.508 212.932 247.948 212.644 248.238 212.255C249.744 209.91 251.566 205.248 249.307 202.799C247.802 201.145 244.895 201.64 243.089 202.604C241.973 203.286 240.935 204.058 239.987 204.909C238.165 206.303 236.975 206.954 237.653 204.284C238.782 199.426 244.143 195.558 249.036 193.617L245.724 191.416C243.987 197.061 240.882 202.322 236.614 206.85L240.469 208.23C240.359 206.442 240.891 204.668 241.99 203.15C243.09 201.633 244.704 200.446 246.612 199.751H244.399L245.573 201.419C245.136 203.88 249.488 204.935 249.925 202.447C250.497 199.23 248.148 195.05 243.796 196.626C238.601 198.501 235.906 203.646 236.012 208.23C236.012 209.793 238.571 211.004 239.881 209.624C244.67 204.592 248.165 198.736 250.135 192.445C250.24 192.072 250.217 191.68 250.069 191.318C249.921 190.956 249.654 190.639 249.301 190.406C248.949 190.172 248.525 190.033 248.082 190.004C247.64 189.975 247.197 190.059 246.808 190.244C242.297 192.007 238.485 194.879 235.846 198.501C234.009 201.106 231.705 205.169 233.572 208.165C233.878 208.644 234.291 209.066 234.787 209.407C235.283 209.747 235.852 209.999 236.461 210.148C237.07 210.297 237.707 210.34 238.336 210.275C238.964 210.209 239.571 210.037 240.122 209.767C241.514 209.053 242.786 208.177 243.902 207.162C244.459 206.732 245.076 205.99 245.814 205.86C246.476 205.469 246.446 205.69 245.709 206.55C245.699 207.9 245.244 209.219 244.399 210.353L248.524 211.851C248.896 210.635 248.853 209.352 248.399 208.156C247.946 206.961 247.102 205.905 245.97 205.116C244.838 204.327 243.465 203.838 242.019 203.709C240.572 203.579 239.113 203.815 237.818 204.388L241.221 206.081C241.293 204.424 240.691 202.797 239.52 201.484C239.342 201.23 239.101 201.015 238.814 200.853C238.527 200.691 238.202 200.587 237.863 200.548C237.523 200.509 237.178 200.537 236.852 200.629C236.526 200.721 236.229 200.875 235.981 201.08C233.693 203.151 233.256 206.732 236.132 208.647C238.285 210.067 239.339 208.647 241.703 208.321C249.729 207.423 245.046 210.548 242.215 210.653C240.949 210.77 239.669 210.691 238.436 210.418C235.294 209.498 235.098 208.313 237.849 206.863C240.544 207.813 241.703 204.036 239.053 203.099L238.993 203.047Z" fill="#007EA7"/>
<path d="M235.364 210.184C237.216 215.393 229.567 217.113 225.938 218.91C223.392 220.145 221.171 221.826 219.418 223.846C215.624 228.248 214.208 233.849 212.959 239.123C212.387 241.585 216.738 242.627 217.325 240.165C218.014 236.289 219.295 232.51 221.135 228.926C223.845 224.263 227.73 222.7 232.789 220.304C237.849 217.907 241.508 214.195 239.716 209.142C238.873 206.745 234.506 207.774 235.364 210.184Z" fill="#007EA7"/>
<path d="M242.893 207.566C241.816 207.695 240.833 208.167 240.136 208.889C239.44 209.612 239.081 210.533 239.129 211.473C239.129 213.023 240.318 214.013 241.131 215.25C243.061 217.782 244.534 220.553 245.498 223.468C246.221 226.269 246.928 231.283 245.242 233.888C242.125 238.72 236.493 237.795 231.69 237.795C227.173 237.795 223.68 239.097 223.83 233.653C223.92 230.593 226.39 227.493 228.347 225.083L224.222 224.615C225.092 228.591 225.551 232.628 225.592 236.675C225.592 238.485 228.799 239.488 229.793 237.652C232.214 233.247 234.135 228.65 235.53 223.924L231.088 223.403L231.871 233.302C231.884 233.724 232.054 234.132 232.356 234.464C232.657 234.796 233.075 235.036 233.546 235.147C234.017 235.258 234.518 235.235 234.973 235.081C235.428 234.927 235.813 234.65 236.072 234.292C236.599 233.788 236.986 233.187 237.201 232.533C237.352 231.921 235.966 227.792 235.409 229.264L239.836 229.785L240.152 220.382L235.635 220.903C236.59 223.554 236.878 226.352 236.478 229.108C236.192 231.283 240.423 231.778 240.996 229.629L243.826 216.995L239.701 217.451C240.681 219.199 240.951 221.181 240.469 223.078C240.137 225.578 244.655 225.552 244.986 223.078C245.37 220.484 244.889 217.85 243.601 215.485C243.372 215.159 243.038 214.897 242.64 214.732C242.243 214.567 241.798 214.506 241.361 214.556C240.924 214.605 240.513 214.764 240.178 215.012C239.843 215.26 239.599 215.587 239.475 215.954L236.629 228.587L241.071 229.108C241.523 226.003 241.178 222.85 240.062 219.874C239.911 219.425 239.58 219.038 239.127 218.783C238.675 218.528 238.132 218.422 237.596 218.483C237.061 218.544 236.569 218.77 236.209 219.118C235.849 219.466 235.646 219.915 235.635 220.382L235.319 229.785C235.331 230.252 235.535 230.701 235.895 231.049C236.255 231.398 236.747 231.624 237.283 231.687C237.818 231.75 238.362 231.645 238.816 231.392C239.271 231.139 239.606 230.754 239.761 230.306L240.002 229.668C240.106 229.335 240.108 228.985 240.008 228.651C239.907 228.318 239.708 228.013 239.43 227.766C234.747 223.364 233.798 230.371 232.172 232.312L236.388 233.302L235.605 223.403C235.439 221.293 231.826 220.642 231.163 222.882C229.89 227.288 228.125 231.575 225.893 235.685L230.109 236.675C230.061 232.277 229.557 227.892 228.603 223.573C228.212 221.775 225.486 221.853 224.478 223.104C221.466 226.855 216.256 235.047 220.277 239.54C223.785 243.448 234.822 241.937 239.535 241.689C246.973 241.325 249.669 237.248 250.482 231.179C250.869 228.272 250.681 225.33 249.925 222.479C249.518 220.942 245.407 211.2 244.173 211.395C247.034 210.939 245.814 207.162 242.968 207.618L242.893 207.566Z" fill="#007EA7"/>
<path d="M234.144 216.344L221.812 230.423L225.712 232.39L234.747 221.085L230.621 219.574L226.119 234.435C225.998 234.886 226.064 235.36 226.307 235.773C226.55 236.185 226.954 236.511 227.447 236.691C227.94 236.872 228.491 236.896 229.003 236.76C229.515 236.623 229.955 236.335 230.245 235.946C232.293 233.009 234.593 230.21 237.126 227.571L233.362 225.67C232.351 229.034 230.401 232.133 227.685 234.695L231.464 236.597C231.696 234.797 232.249 233.04 233.106 231.387C234.265 229.134 230.591 227.141 229.206 229.407C227.932 231.472 226.477 233.448 224.854 235.32L228.98 235.789L229.898 232.077L225.773 231.609L226.435 234.865C226.544 235.192 226.749 235.49 227.031 235.728C227.313 235.966 227.661 236.137 228.042 236.224C228.423 236.311 228.824 236.31 229.205 236.222C229.586 236.135 229.933 235.963 230.214 235.724C234.033 232.306 237.096 228.311 239.249 223.937H235.364C236.385 225.566 237.102 227.324 237.487 229.147C238.029 231.491 241.628 230.619 241.914 228.626C242.561 224.263 242.893 219.87 242.908 215.472H238.391V223.664C238.391 225.787 242.411 226.412 242.833 224.185C243.131 222.209 243.883 220.305 245.046 218.584H241.086C242.04 219.916 242.561 221.446 242.592 223.013C242.592 223.531 242.83 224.028 243.253 224.394C243.677 224.76 244.251 224.966 244.85 224.966C245.449 224.966 246.024 224.76 246.447 224.394C246.871 224.028 247.109 223.531 247.109 223.013L247.681 220.408H243.33C243.766 222.713 245.422 235.698 239.535 234.174C238.541 233.966 238.255 234.018 238.677 234.318L240.017 231.843L243.164 226.073L238.948 225.083C239.219 227.766 239.505 231.596 237.638 233.888C236.132 235.75 231.494 236.493 229.13 235.399C227.57 234.436 226.236 233.225 225.2 231.83L222.114 234.435C224.613 236.011 228.664 239.879 231.886 240.1C234.34 240.27 236.403 238.511 238.014 237.105C240.486 234.896 242.412 232.276 243.678 229.403C244.944 226.531 245.522 223.466 245.377 220.395C245.377 219.877 245.139 219.38 244.716 219.013C244.292 218.647 243.718 218.441 243.119 218.441C242.52 218.441 241.945 218.647 241.522 219.013C241.098 219.38 240.86 219.877 240.86 220.395V224.849C240.86 225.367 241.098 225.864 241.522 226.23C241.945 226.597 242.52 226.803 243.119 226.803C243.718 226.803 244.292 226.597 244.716 226.23C245.139 225.864 245.377 225.367 245.377 224.849V213.922C245.377 213.404 245.139 212.907 244.716 212.54C244.292 212.174 243.718 211.968 243.119 211.968C242.52 211.968 241.945 212.174 241.522 212.54C241.098 212.907 240.86 213.404 240.86 213.922C240.852 216.541 240.59 219.155 240.077 221.736L244.519 222.257C244.165 219.145 244 216.02 244.022 212.893C244.015 212.425 243.814 211.974 243.455 211.624C243.097 211.273 242.604 211.046 242.068 210.983C241.532 210.919 240.987 211.025 240.533 211.28C240.08 211.535 239.747 211.922 239.595 212.372C238.918 214.859 238.09 217.308 237.291 219.744L241.417 219.275L241.101 218.233C240.89 215.745 236.373 215.732 236.584 218.233C236.633 219.287 236.952 220.319 237.517 221.254C238.391 222.843 241.116 222.283 241.643 220.785C242.501 218.337 243.269 215.888 243.947 213.414L239.505 212.893C239.482 216.02 239.648 219.145 240.002 222.257C240.228 224.263 243.962 225.123 244.429 222.778C245.03 219.837 245.347 216.857 245.377 213.87H240.86V224.797H245.377V220.343H240.86C241.126 225.256 239.152 230.063 235.364 233.731C234.777 234.309 234.143 234.848 233.467 235.346C232.398 236.232 231.419 236.102 230.561 234.943C228.423 234.174 226.209 232.195 224.342 231.036C222.475 229.876 219.915 232.169 221.24 233.705C224.703 237.691 229.868 242.132 236.298 240.218C243.058 238.147 243.977 230.228 243.465 225.018C243.299 223.286 240.303 222.114 239.264 224.042C237.758 226.79 236.253 229.525 234.747 232.286C233.967 233.315 233.5 234.497 233.392 235.724C233.889 238.655 237.999 238.173 240.529 238.003C250.331 237.365 248.78 225.344 247.651 219.301C247.275 217.295 243.902 217.608 243.299 219.301C242.821 220.49 242.572 221.74 242.562 223H247.079C246.915 220.76 246.191 218.578 244.956 216.605C244.754 216.313 244.468 216.072 244.126 215.905C243.785 215.738 243.399 215.649 243.006 215.649C242.613 215.649 242.227 215.738 241.885 215.905C241.544 216.072 241.258 216.313 241.056 216.605C239.709 218.615 238.801 220.823 238.376 223.117L242.893 223.638V215.446C242.893 214.927 242.655 214.431 242.231 214.064C241.808 213.698 241.233 213.492 240.634 213.492C240.035 213.492 239.461 213.698 239.037 214.064C238.614 214.431 238.376 214.927 238.376 215.446C238.361 219.844 238.029 224.237 237.382 228.6L241.824 228.079C241.313 225.95 240.445 223.896 239.249 221.984C239.047 221.692 238.761 221.451 238.42 221.284C238.078 221.116 237.692 221.028 237.299 221.028C236.906 221.028 236.52 221.116 236.179 221.284C235.837 221.451 235.551 221.692 235.349 221.984C233.385 226.063 230.562 229.79 227.022 232.976L230.802 233.836L230.139 230.58C229.793 228.847 226.962 228.795 226.013 230.111C225.265 231.09 224.757 232.192 224.522 233.348C224.286 234.504 224.327 235.69 224.643 236.831C225.02 238.681 227.73 238.485 228.769 237.3C230.392 235.433 231.846 233.46 233.121 231.4L229.221 229.42C228.179 231.367 227.469 233.433 227.113 235.555C226.842 237.274 229.206 239.071 230.892 237.456C234.129 234.393 236.473 230.704 237.728 226.698C238.285 224.927 235.454 223.247 233.949 224.797C231.179 227.668 228.662 230.716 226.42 233.914L230.546 235.425L235.138 220.616C235.26 220.165 235.193 219.691 234.95 219.278C234.707 218.866 234.303 218.54 233.81 218.36C233.317 218.179 232.766 218.155 232.254 218.291C231.742 218.428 231.303 218.716 231.013 219.105L221.978 230.423C220.292 232.52 224.161 234.331 225.878 232.39L238.165 218.324C239.911 216.318 235.997 214.417 234.265 216.344H234.144Z" fill="#007EA7"/>
<path d="M426.247 263.348C444.316 253.789 458.681 239.527 474.642 227.597C491.958 214.664 510.132 202.617 528.849 191.208C565.197 169.067 603.368 149.257 641.508 129.499C642.002 129.229 642.356 128.803 642.495 128.312C642.634 127.82 642.547 127.301 642.252 126.864C641.957 126.427 641.478 126.106 640.915 125.968C640.353 125.831 639.75 125.887 639.234 126.126C601.094 145.884 562.908 165.654 526.56 187.834C509.409 198.254 492.666 209.298 476.614 221.02C459.148 233.784 443.593 249.673 423.913 259.975C421.429 261.278 423.703 264.664 426.187 263.348H426.247Z" fill="#007EA7"/>
<path d="M699.826 68.8327C680.251 70.5519 659.17 74.8629 647.125 89.6713C636.72 102.409 636.946 124.628 646.718 137.704C657.815 152.565 680.492 153.099 698.109 148.293C715.726 143.487 733.961 135.06 733.795 116.853C733.705 107.085 729.624 96.9127 725.122 88.0563C721.237 80.4111 714.356 73.7298 703.936 74.5763C701.06 74.8108 701.03 78.718 703.936 78.4836C717.894 77.3635 722.382 91.7031 725.694 100.755C728.706 109.208 731.491 119.21 726.763 127.611C722.035 136.011 710.637 140.296 700.895 143.37C690.354 146.678 678.775 148.697 667.768 145.975C645.965 140.7 639.942 116.801 646.221 99.8432C653.449 80.307 679.046 74.5633 699.901 72.7399C702.762 72.4925 702.792 68.5852 699.901 68.8327H699.826Z" fill="#007EA7"/>
<path d="M729.941 219.913C710.366 221.632 689.285 225.943 677.24 240.751C666.835 253.489 667.061 275.708 676.833 288.785C687.93 303.645 710.607 304.179 728.224 299.373C745.841 294.567 764.076 286.141 763.91 267.933C763.82 258.165 759.739 247.993 755.237 239.136C751.352 231.491 744.471 224.81 734.051 225.657C731.175 225.891 731.145 229.798 734.051 229.564C748.009 228.444 752.497 242.783 755.809 251.835C758.821 260.288 761.606 270.29 756.878 278.691C752.15 287.091 740.752 291.376 731.01 294.45C720.469 297.758 708.89 299.777 697.883 297.055C676.08 291.78 670.057 267.881 676.336 250.923C683.564 231.387 709.161 225.643 730.016 223.82C732.877 223.573 732.907 219.665 730.016 219.913H729.941Z" fill="#007EA7"/>
<path d="M670.298 106.876L684.557 120.942C684.839 121.178 685.187 121.346 685.567 121.431C685.947 121.516 686.346 121.515 686.725 121.427C687.103 121.339 687.45 121.168 687.73 120.93C688.009 120.692 688.213 120.396 688.321 120.07C691.333 113.219 690.761 106.121 691.468 98.9185C692.249 91.4744 694.409 84.1874 697.868 77.3374C704.815 63.4437 716.593 51.767 731.566 43.9305C734.051 42.6281 731.777 39.2418 729.293 40.5572C714.529 48.2469 702.685 59.5008 695.218 72.9353C691.562 79.4727 689.026 86.4354 687.689 93.6046C686.183 102.057 687.554 110.914 683.94 119.028L687.719 118.155L673.535 104.115C671.608 102.227 668.431 105.001 670.343 106.876H670.298Z" fill="#007EA7"/>
<path d="M433.52 278.574C511.186 276.525 588.872 276.09 666.579 277.271C667.178 277.271 667.752 277.065 668.176 276.699C668.599 276.333 668.837 275.836 668.837 275.318C668.837 274.799 668.599 274.303 668.176 273.936C667.752 273.57 667.178 273.364 666.579 273.364C588.892 272.166 511.206 272.6 433.52 274.666C430.614 274.745 430.599 278.652 433.52 278.574Z" fill="#007EA7"/>
<path d="M682.81 240.048C709.36 249.061 734.899 260.161 759.106 273.208C761.576 274.51 763.85 271.163 761.38 269.834C736.854 256.627 710.977 245.396 684.075 236.284C681.38 235.359 680.206 239.136 682.886 240.048H682.81Z" fill="#007EA7"/>
<path d="M731.024 222.348C704.101 249.496 688.505 283.682 686.741 319.417C686.62 321.931 691.137 321.931 691.258 319.417C692.968 284.708 708.095 251.499 734.217 225.11C736.099 223.208 732.922 220.434 731.024 222.348Z" fill="#007EA7"/>
<path d="M128.803 264.39L297.1 262.489L316.448 262.267C319.927 262.267 323.405 262.163 326.883 262.15C331.777 262.15 335.074 265.667 334.984 269.965C334.758 279.082 328.133 278.756 319.46 279.082L298.545 279.902L213.38 283.145C198.127 283.731 182.859 284.448 167.606 284.903C153.843 285.268 127.673 281.387 133.787 264.065C134.63 261.655 130.278 260.626 129.42 263.023C126.409 271.541 131.739 280.189 140.322 284.656C152.503 290.986 168.554 288.837 182.001 288.316L286.559 284.213L311.946 283.236C318.451 282.976 327.501 284.122 333.478 281.504C340.495 278.443 341.73 266.292 337.303 261.173C335.029 258.569 331.837 258.334 328.268 258.217C318.903 257.904 309.371 258.438 299.991 258.543L247.862 259.142L128.743 260.444C128.143 260.444 127.569 260.65 127.145 261.016C126.722 261.383 126.484 261.88 126.484 262.398C126.484 262.916 126.722 263.413 127.145 263.779C127.569 264.145 128.143 264.351 128.743 264.351L128.803 264.39Z" fill="#007EA7"/>
<path d="M808.766 743.028C804.971 745.086 800.635 746.245 796.72 748.055C792.805 749.866 788.996 752.588 787.881 756.339C787.466 757.503 787.535 758.757 788.077 759.881C789.051 761.24 790.542 762.262 792.293 762.773C800.246 765.828 808.836 767.448 817.538 767.533C826.24 767.618 834.87 766.166 842.901 763.268C845.727 762.093 848.646 761.092 851.634 760.272C855.317 759.622 859.064 759.291 862.822 759.282C866.772 759.083 870.701 758.647 874.582 757.98C876.533 757.792 878.381 757.128 879.912 756.065C881.309 754.673 882.149 752.928 882.306 751.09C884.088 740.943 881.402 730.587 874.778 722.072C873.943 720.879 872.824 719.853 871.495 719.064C869.875 718.339 868.092 717.926 866.27 717.852C858.742 717.058 850.851 715.599 843.247 715.443C837.797 715.339 835.056 717.579 831.202 720.822C823.236 727.712 818.583 737.727 808.766 743.028Z" fill="#323444"/>
<path d="M919.724 742.064C919.724 748.446 920.612 755.206 925.085 760.298C927.13 762.5 929.607 764.374 932.402 765.833C941.858 771.043 954.386 772.958 964.354 768.542C965.965 767.917 967.341 766.916 968.33 765.651C969.835 763.385 969.037 760.558 968.194 758.058L953.769 714.818C944.448 716.055 930.746 716.928 922.465 721.017C916.457 723.974 919.724 736.36 919.724 742.064Z" fill="#323444"/>
<path d="M800.304 475.812C799.43 478.195 796.268 479.302 794.537 481.308C792.504 483.665 792.715 486.934 793.453 489.799C794.364 494.025 796.658 497.935 800.063 501.065C801.791 502.616 803.922 503.787 806.28 504.48C808.637 505.174 811.152 505.369 813.614 505.051C816.046 504.662 818.263 503.594 819.925 502.011C821.587 500.428 822.602 498.416 822.815 496.285C822.727 494.349 822.248 492.44 821.399 490.646L811.13 464.962C811.122 464.78 811.055 464.603 810.937 464.452C810.818 464.301 810.652 464.182 810.459 464.108C810.266 464.035 810.052 464.01 809.843 464.037C809.634 464.063 809.439 464.14 809.278 464.259C806.854 465.249 801.99 466.291 800.575 468.466C799.159 470.641 801.328 473.454 800.304 475.812Z" fill="#FBB3B2"/>
<path d="M795.5 474.522C799.25 474.014 802.532 472.113 806.041 470.862C809.549 469.612 813.946 469.13 816.897 471.214C817.74 471.813 818.553 472.634 819.653 472.621C818.157 466.252 815.897 460.036 812.907 454.074C812.802 453.789 812.596 453.538 812.32 453.358C811.909 453.214 811.45 453.214 811.04 453.358L800.906 455.65C797.157 456.497 796.72 456.236 797.006 459.427C797.082 460.847 797.925 474.522 795.5 474.522Z" fill="#323444"/>
<path d="M794.386 289.058C792.881 291.064 792.881 293.564 792.881 295.922C792.881 307.448 793.016 319.04 794.989 330.449C795.455 333.184 796.043 335.919 796.344 338.68C796.685 342.524 796.756 346.382 796.555 350.233L795.049 400.376C794.868 406.51 794.507 413.1 790.125 417.919C788.796 419.534 788.172 421.505 788.363 423.48C789.508 436.062 791.917 448.539 794.311 460.977C798.166 459.473 802.378 458.78 806.602 458.954C810.826 459.128 814.942 460.165 818.614 461.98C826.211 441.318 830.413 419.835 831.096 398.161C831.443 387.495 830.916 376.763 832.813 366.226C835.99 348.487 834.695 330.293 832.361 312.449C831.623 306.797 830.057 300.975 825.871 296.599C821.909 292.77 816.631 290.141 810.814 289.097C805.243 287.834 800.259 289.136 794.386 289.058Z" fill="#007EA7"/>
<path opacity="0.1" d="M794.386 289.058C792.881 291.064 792.881 293.564 792.881 295.922C792.881 307.448 793.016 319.04 794.989 330.449C795.455 333.184 796.043 335.919 796.344 338.68C796.685 342.524 796.756 346.382 796.555 350.233L795.049 400.376C794.868 406.51 794.507 413.1 790.125 417.919C788.796 419.534 788.172 421.505 788.363 423.48C789.508 436.062 791.917 448.539 794.311 460.977C798.166 459.473 802.378 458.78 806.602 458.954C810.826 459.128 814.942 460.165 818.614 461.98C826.211 441.318 830.413 419.835 831.096 398.161C831.443 387.495 830.916 376.763 832.813 366.226C835.99 348.487 834.695 330.293 832.361 312.449C831.623 306.797 830.057 300.975 825.871 296.599C821.909 292.77 816.631 290.141 810.814 289.097C805.243 287.834 800.259 289.136 794.386 289.058Z" fill="black"/>
<path d="M812.786 434.473C802.688 479.236 808.201 525.585 828.627 567.632C830.391 570.744 831.629 574.06 832.301 577.478C833.129 583.86 829.726 589.994 827.784 596.168C823.266 610.208 825.871 625.159 828.762 639.525C829.967 645.516 831.207 651.503 832.482 657.485C833.731 663.32 834.936 669.663 831.804 674.951C834.499 684.667 836.095 694.292 838.791 704.008C839.076 704.776 839.164 705.59 839.047 706.391C838.503 707.662 837.546 708.771 836.291 709.582C834.282 711.344 832.838 713.528 832.102 715.919C831.365 718.31 831.361 720.825 832.09 723.218C838.971 718.946 848.563 720.444 856.423 723.218C864.283 725.992 872.022 729.73 880.515 729.73C879.28 721.108 878.09 712.057 881.764 703.969C883.903 699.28 887.667 694.852 887.562 689.837C887.456 685.344 884.279 681.333 883.511 676.891C883.226 674.128 883.347 671.345 883.873 668.608C885.89 652.666 883.601 636.569 881.313 620.653C881.054 617.514 880.199 614.434 878.783 611.536C877.714 609.661 876.118 607.863 876.148 605.766C876.148 603.331 878.422 601.351 879.265 599.033C880.771 594.761 878 588.952 882.171 586.308C893.163 579.327 888.947 562.656 888.706 550.87C888.515 540.702 888.013 530.543 887.2 520.393C894.121 537.225 896.95 555.111 895.512 572.933C895.03 578.767 894.142 584.902 896.777 590.294C898.794 594.435 902.8 597.848 903.884 602.237C904.561 604.946 904.08 607.746 904.23 610.507C904.381 613.268 905.465 616.277 908.22 617.67C908.431 630.226 909.726 643.654 909.952 656.209C909.805 662.627 910.411 669.042 911.759 675.354C912.435 677.362 912.809 679.437 912.873 681.528C912.534 684.149 911.731 686.71 910.494 689.121C907.87 695.842 907.184 703.016 908.496 710.019C909.808 717.021 913.079 723.641 918.023 729.301C921.576 723.843 928.985 720.952 936.212 720.496C943.44 720.04 950.577 721.616 957.579 723.205C956.508 715.596 958.259 707.888 962.578 701.194C963.736 699.686 964.624 698.035 965.213 696.297C966.026 692.989 964.129 689.694 963.105 686.425C961.433 681.215 962.021 675.602 962.412 670.158C963.726 651.925 962.792 633.623 959.626 615.561C959.138 612.003 958.172 608.506 956.751 605.141C956.208 603.943 955.546 602.797 955.094 601.586C954.384 599.413 953.979 597.174 953.89 594.917L952.158 574.079C950.938 559.479 956.479 545.061 960.349 530.812C962.081 524.431 963.963 518.062 965.122 511.576C966.703 502.745 966.959 493.72 969.278 485.006C971.356 477.192 975.105 469.573 975.888 461.563C977.093 449.151 971.13 437.156 965.348 425.773C962.939 421.084 953.829 421.553 947.972 420.719C906.429 414.819 862.672 414.78 823.492 428.078C819.441 429.53 815.791 431.71 812.786 434.473Z" fill="#3C354C"/>
<path d="M842.736 203.307L847.343 218.806C848.596 222.36 849.29 226.045 849.406 229.759C849.454 231.114 849.107 232.458 848.397 233.666C847.639 234.659 846.668 235.517 845.536 236.193C842.389 238.264 840.206 243.096 836.607 244.529C838.459 247.316 841.019 245.505 844.362 246.899C850.249 249.374 855.64 252.929 862.024 254.153C868.047 255.3 874.371 254.218 880.349 252.851C888.826 250.858 897.258 248.11 904.079 243.304C910.901 238.498 914.785 234.252 914.755 226.659C907.227 227.428 900.526 220.851 897.198 214.938C896.044 212.69 895.196 210.334 894.669 207.918L890.633 192.562C886.236 193.396 882.653 196.118 878.452 197.537C874.251 198.957 869.282 199.087 864.614 199.27C856.328 199.596 848.088 200.519 839.98 202.031C838.866 202.226 837.465 202.838 837.736 203.776" fill="#FBB3B2"/>
<path opacity="0.1" d="M842.736 203.307L847.343 218.806C848.596 222.36 849.29 226.045 849.406 229.759C849.454 231.114 849.107 232.458 848.397 233.666C847.639 234.659 846.668 235.517 845.536 236.193C842.389 238.264 840.206 243.096 836.607 244.529C838.459 247.316 841.019 245.505 844.362 246.899C850.249 249.374 855.64 252.929 862.024 254.153C868.047 255.3 874.371 254.218 880.349 252.851C888.826 250.858 897.258 248.11 904.079 243.304C910.901 238.498 914.785 234.252 914.755 226.659C907.227 227.428 900.526 220.851 897.198 214.938C896.044 212.69 895.196 210.334 894.669 207.918L890.633 192.562C886.236 193.396 882.653 196.118 878.452 197.537C874.251 198.957 869.282 199.087 864.614 199.27C856.328 199.596 848.088 200.519 839.98 202.031C838.866 202.226 837.465 202.838 837.736 203.776" fill="black"/>
<path d="M862.521 211.851C884.542 211.851 902.393 196.41 902.393 177.363C902.393 158.316 884.542 142.875 862.521 142.875C840.5 142.875 822.649 158.316 822.649 177.363C822.649 196.41 840.5 211.851 862.521 211.851Z" fill="#FBB3B2"/>
<path d="M873.498 234.213C875.63 230.23 878.708 226.68 882.532 223.794C888.149 219.535 895.828 216.084 897.153 209.728L909.32 221.984C909.981 222.552 910.494 223.236 910.825 223.989C910.979 224.696 910.956 225.423 910.759 226.122C910.561 226.82 910.194 227.474 909.681 228.04C906.669 232.195 901.926 235.164 897.439 238.173C887.155 245.219 877.308 252.732 867.942 260.678C867.529 261.093 866.976 261.385 866.361 261.512C865.779 261.526 865.206 261.385 864.719 261.108C856.638 257.438 849.486 252.408 843.684 246.313C843.248 245.857 842.705 245.336 841.998 245.375C841.571 245.443 841.178 245.62 840.868 245.883C836.818 248.748 832.391 252.174 827.196 251.731C833.927 247.55 837.736 240.569 839.152 233.497C839.432 231.077 840.007 228.688 840.868 226.373C841.315 225.214 842.084 224.169 843.108 223.328C844.132 222.488 845.38 221.878 846.741 221.554C843.458 225.891 845.702 232.038 850.114 235.542C854.4 238.689 859.539 240.844 865.051 241.806C870.17 242.64 871.676 237.626 873.498 234.213Z" fill="#323444"/>
<path d="M821.625 438.015C827.302 439.227 832.677 441.284 838.188 442.808C848.232 445.529 858.803 446.49 869.282 445.634C872.507 445.573 875.644 444.71 878.316 443.147C879.024 442.652 879.671 442.066 880.424 441.61C881.684 440.956 883.049 440.469 884.475 440.164C898.282 436.426 909.846 428.364 921.064 420.472C921.426 420.211 921.832 419.886 921.802 419.469C921.75 419.185 921.591 418.924 921.35 418.727L915.448 412.866C899.969 415.145 884.113 414.285 868.408 413.947C865.184 413.823 861.954 413.897 858.742 414.168C855.64 414.481 852.583 415.158 849.526 415.731C837.917 417.919 826.052 418.753 814.292 420.185C813.469 420.238 812.671 420.452 811.958 420.81C811.462 421.142 811.039 421.548 810.708 422.009L806.583 427.023C804.981 428.71 803.802 430.665 803.119 432.767C802.156 436.674 804.173 437.976 808.013 437.468C812.549 436.894 817.17 437.08 821.625 438.015Z" fill="#323444"/>
<path d="M867.776 254.713C863.17 250.631 857.948 247.104 852.252 244.229C849.951 242.965 847.398 242.081 844.723 241.624C843.378 241.394 841.99 241.422 840.658 241.706C839.326 241.989 838.082 242.521 837.014 243.265C835.674 244.294 834.83 245.727 833.536 246.808C831.906 247.992 830.038 248.906 828.024 249.504C821.17 252.037 814.673 255.24 808.661 259.05C805.383 261.034 802.43 263.391 799.882 266.057C793.061 273.611 792.037 283.887 792.218 293.473C792.353 300.142 799.747 305.091 804.836 310.079C809.609 314.988 813.929 320.214 817.755 325.708C820.496 329.459 823.357 333.523 823.01 337.99C822.724 341.65 820.255 345.088 820.646 348.735C820.782 350.037 821.264 351.235 821.399 352.499C821.67 355.104 820.481 357.708 820.18 360.313C819.773 363.999 821.158 367.659 821.234 371.371C821.178 373.912 820.805 376.44 820.119 378.912C817.228 390.816 813.599 402.785 814.337 414.937L805.995 416.239C806.786 416.909 807.382 417.73 807.737 418.637C808.092 419.543 808.196 420.509 808.039 421.456C807.882 422.404 807.469 423.306 806.834 424.09C806.199 424.873 805.36 425.517 804.384 425.968C817.409 429.732 831.488 427.83 845.295 427.817C856.724 427.817 868.107 429.12 879.521 428.938C890.934 428.755 902.709 426.971 912.12 421.383C914.68 419.873 917.029 418.101 919.724 416.786C923.334 415.168 927.225 414.068 931.243 413.53C938.686 412.302 946.252 411.717 953.829 411.785C957.533 411.785 961.569 411.915 964.52 409.987C967.772 407.851 968.601 403.983 969.037 400.48C969.474 396.781 969.745 393.069 969.82 389.357C969.947 386.467 969.77 383.572 969.293 380.709C968.841 378.616 968.253 376.546 967.532 374.51L961.855 357.213C959.506 350.076 962.773 342.249 963.466 334.851C963.632 333.106 963.662 331.074 962.111 329.954C961.554 329.55 960.786 329.277 960.605 328.652C960.524 328.355 960.514 328.047 960.576 327.746C960.639 327.446 960.771 327.16 960.967 326.906C963.978 321.697 968.495 317.099 972.621 312.397C979.55 304.15 985.983 295.599 991.894 286.779C990.043 268.322 981.058 250.942 966.387 237.443C963.522 234.456 959.857 232.118 955.712 230.632C952.956 229.904 950.099 229.505 947.219 229.447C935.414 228.756 923.127 228.144 912.843 223.013C912.105 222.57 911.269 222.265 910.389 222.114C908.115 221.893 906.459 223.833 904.983 225.37C901.189 229.277 895.602 231.517 890.693 234.396C881.539 239.775 874.386 247.172 867.776 254.713Z" fill="#007EA7"/>
<path d="M992.918 292.106C995.267 298.54 995.041 305.416 995.809 312.124C996.264 316.172 997.085 320.182 998.264 324.119C998.802 326.283 999.77 328.35 1001.12 330.227C1002.48 331.947 1004.42 333.34 1005.28 335.281C1005.75 336.596 1005.96 337.969 1005.9 339.344L1006.08 348.331C1006.46 353.093 1005.63 357.87 1003.62 362.319L997.134 379.394C993.626 388.641 990.027 398.031 983.703 406.08C982.812 407.442 981.462 408.537 979.833 409.219C978.558 409.51 977.251 409.685 975.934 409.74C973.638 410.094 971.557 411.129 970.048 412.667C968.539 414.205 967.697 416.15 967.667 418.167C966.16 416.262 964.28 414.6 962.111 413.256L948.905 404.14C944.388 400.962 939.675 397.732 934.194 395.895C941.566 393.904 948.111 390.105 953.034 384.958C957.958 379.812 961.048 373.54 961.93 366.903C961.925 364.928 962.44 362.977 963.436 361.199C964.535 359.662 966.568 358.49 966.718 356.68C966.899 354.4 963.918 352.681 963.918 350.402C963.918 348.891 965.213 347.641 965.785 346.221C966.32 344.467 966.32 342.623 965.785 340.868L963.963 332.116C963.855 331.239 963.548 330.389 963.059 329.615C962.378 328.873 961.622 328.185 960.801 327.558C957.669 324.523 959.054 319.743 960.801 316.005C964.812 307.708 969.98 299.866 976.19 292.653C978.4 290.231 980.446 287.7 982.318 285.073C983.914 282.676 984.275 279.355 985.962 277.258C988.13 282.181 991.066 287.039 992.918 292.106Z" fill="#007EA7"/>
<path d="M933.727 396.429C933.055 396.861 932.475 397.389 932.011 397.992C930.237 399.919 927.874 401.376 925.19 402.199C926.696 403.137 928.066 404.061 929.481 405.012C939.954 412.008 949.543 419.94 958.09 428.677C959.039 425.747 964.716 425.955 966.101 423.155C966.427 422.353 966.53 421.497 966.402 420.654C966.114 416.267 965.389 411.909 964.234 407.63C963.778 405.427 962.748 403.342 961.222 401.535C959.114 399.334 955.832 398.279 952.7 397.367C947.957 395.934 938.546 393.916 933.727 396.429Z" fill="#323444"/>
<path d="M914.906 406.666C910.388 409.558 906.428 413.178 901.354 415.158C897.77 416.565 893.69 417.177 890.558 419.274C892.259 422.517 896.686 424.197 900.797 424.066C904.911 423.717 908.855 422.466 912.256 420.433C914.951 419 918.113 417.333 921.049 418.336C921.501 420.316 919.543 422.178 919.543 424.184C919.543 426.189 921.471 427.648 923.368 428.703C932.402 433.743 944.027 433.327 954.793 432.741C955.41 432.76 956.019 432.605 956.524 432.298C956.758 432.062 956.935 431.789 957.046 431.494C957.157 431.199 957.2 430.888 957.172 430.579C957.307 428.521 957.368 426.476 957.383 424.418C957.687 422.759 957.438 421.059 956.664 419.518C955.891 417.977 954.625 416.659 953.016 415.718C947.174 411.374 940.872 407.515 934.194 404.192C927.569 400.87 920.853 402.837 914.906 406.666Z" fill="#FBB3B2"/>
<path d="M876.524 162.945C869.839 163.635 864.975 168.155 865.653 173.065C866.33 177.975 872.293 181.361 878.979 180.658C885.664 179.955 890.528 175.448 889.85 170.551C889.172 165.654 883.21 162.255 876.524 162.945ZM878.798 179.304C873.136 179.89 868.092 177.011 867.505 172.87C866.918 168.728 871.058 164.899 876.705 164.313C882.351 163.727 887.411 166.605 887.998 170.747C888.585 174.888 884.445 178.717 878.798 179.304Z" fill="#3C354C"/>
<path d="M843.94 166.331C837.255 167.022 832.391 171.541 833.069 176.438C833.746 181.335 839.709 184.735 846.394 184.044C853.08 183.354 857.944 178.835 857.266 173.925C856.588 169.014 850.626 165.641 843.94 166.331ZM846.214 182.677C840.552 183.263 835.508 180.385 834.936 176.256C834.364 172.127 838.474 168.285 844.136 167.686C849.797 167.087 854.842 169.978 855.414 174.12C855.986 178.262 851.86 182.091 846.214 182.677Z" fill="#3C354C"/>
<path d="M819.743 168.845L834.273 171.528L832.843 174.836L819.141 171.359L819.743 168.845Z" fill="#3C354C"/>
<path d="M900.737 160.432L887.336 166.019L889.64 168.936L902.002 162.75L900.737 160.432Z" fill="#3C354C"/>
<path d="M855.926 170.695L866.12 169.64L865.593 171.828L856.844 172.336L855.926 170.695Z" fill="#3C354C"/>
<path d="M836.155 167.738C837.115 165.954 837.628 164.014 837.661 162.047C837.697 160.869 837.93 159.702 838.354 158.582C839.094 157.16 840.22 155.914 841.636 154.948C846.334 151.51 853.065 149.739 859.705 149.491C866.946 149.203 874.148 150.55 880.605 153.398C882.577 154.198 884.344 155.332 885.8 156.733C887.908 158.96 888.36 161.838 890.483 164.039C891.932 165.375 893.755 166.364 895.775 166.912C897.796 167.459 899.946 167.547 902.017 167.165C902.754 164.899 901.791 162.502 902.167 160.184C902.761 158.198 903.562 156.262 904.561 154.401C906.895 148.449 903.492 141.547 896.476 137.991C894.021 136.689 891.115 135.842 889.278 134.084C887.441 132.325 887.004 130.502 885.74 128.744C882.382 124.094 873.694 121.919 867.083 124.068C865.005 124.745 863.168 125.774 861.06 126.504C857.146 127.897 852.689 128.145 848.382 128.614C844.137 128.953 839.986 129.895 836.095 131.401C832.376 132.99 829.259 135.542 828.401 138.59C827.994 139.997 828.085 141.455 827.678 142.849C825.6 149.921 812.184 153.359 811.431 160.575C811.16 163.18 812.801 165.68 814.849 167.803C816.265 169.249 819.653 173.117 822.047 173.677C824.441 174.237 826.263 172.27 828.552 171.593C832.165 170.616 834.349 170.408 836.155 167.738Z" fill="#CBCEDA"/>
<path d="M1066.66 676.937C1066.66 726.038 1102.27 765.78 1146.29 765.78Z" fill="#46455B"/>
<path d="M1140.26 763.901C1140.26 714.239 1180.02 674.06 1229.14 674.06Z" fill="#007EA7"/>
<path d="M1095.52 681.394C1095.52 728.044 1118.23 765.79 1146.29 765.79Z" fill="#007EA7"/>
<path d="M248.449 698.896C248.449 733.8 273.736 761.993 304.996 761.993Z" fill="#46455B"/>
<path d="M268.936 702.071C268.936 735.225 285.075 762.009 304.996 762.009Z" fill="#007EA7"/>
<path d="M304.996 761.991C304.996 725.509 331.414 695.983 364.054 695.983Z" fill="#46455B"/>
<path d="M1249 762.009H165.614V765.792H1249V762.009Z" fill="#3F3D56"/>
</g>
<defs>
<clipPath id="clip0_12_2">
<rect width="1249" height="771" fill="white"/>
</clipPath>
</defs>
</svg>
