<svg width="820" height="210" viewBox="0 0 820 210" fill="none" xmlns="http://www.w3.org/2000/svg">
<path d="M90.1999 126.811L104.386 124.459C104.386 124.459 111.274 115.089 106.157 106.819C98.9739 95.1511 68.0107 91.1401 56.7603 92.2909C45.5099 93.4417 42.8531 96.9109 63.1727 103.631C75.1611 107.604 90.5771 116 90.1999 126.811Z" fill="#003249"/>
<g opacity="0.3">
<path d="M90.1999 126.811L104.386 124.459C104.386 124.459 111.274 115.089 106.157 106.819C98.9739 95.1511 68.0107 91.1401 56.7603 92.2909C45.5099 93.4417 42.8531 96.9109 63.1727 103.631C75.1611 107.604 90.5771 116 90.1999 126.811Z" fill="white"/>
</g>
<path d="M95.3658 122.187H95.2182C94.9524 122.176 94.7129 122.14 94.5506 122.085C94.3883 122.03 94.316 121.961 94.349 121.893C100.237 110.973 83.115 99.0362 63.8614 94.2188C63.6678 94.1703 63.5573 94.1042 63.5543 94.0348C63.5512 93.9655 63.6558 93.8987 63.845 93.8492C64.0342 93.7996 64.2925 93.7713 64.5632 93.7705C64.8338 93.7697 65.0946 93.7965 65.2882 93.845C84.8862 98.7464 102.336 110.88 96.3662 121.96C96.3345 122.022 96.2157 122.079 96.0318 122.121C95.8479 122.163 95.6113 122.186 95.3658 122.187Z" fill="white"/>
<path d="M54.4808 132.72C52.3488 133.031 46.2808 131.834 44.6408 131.544C41.7604 131.041 39.4336 130.357 37.884 129.558C36.1549 128.645 35.5815 127.617 36.244 126.618C36.5852 126.09 37.0674 125.57 37.6872 125.059C38.2612 124.555 38.8188 124.051 39.3272 123.547C40.017 123.059 40.3073 122.541 40.18 122.023C39.6716 120.99 36.08 120.267 32.8328 119.641C29.2248 118.953 25.4856 118.041 25.502 116.798C25.7605 115.832 27.2665 114.916 29.7824 114.194C32.1112 113.438 34.8664 112.774 36.9656 111.976C38.6182 111.423 39.4806 110.741 39.4092 110.044C39.1833 109.618 38.6256 109.209 37.7692 108.839C36.1292 108.028 33.8004 107.285 32.6196 106.416C31.4388 105.546 31.6028 104.463 34.2596 103.841C36.4244 103.329 39.6716 103.257 42.6072 103.308C45.3666 103.394 48.0193 103.633 50.3808 104.009C58.0888 105.105 62.5004 107.445 70.684 108.289C73.9095 108.549 77.196 108.757 80.524 108.91C83.804 109.133 87.166 109.566 88.724 110.343C91.7252 111.88 86.1492 113.774 88.2648 115.404C90.1344 116.848 95.612 117.399 98.6788 118.701C99.9323 119.275 100.438 119.937 100.122 120.591C99.8543 121.694 98.7982 122.776 97.006 123.783C94.9826 124.827 92.7096 125.838 90.2 126.811L54.4808 132.72Z" fill="#003249"/>
<g opacity="0.65">
<path d="M54.4808 132.72C52.3488 133.031 46.2808 131.834 44.6408 131.544C41.7604 131.041 39.4336 130.357 37.884 129.558C36.1549 128.645 35.5815 127.617 36.244 126.618C36.5852 126.09 37.0674 125.57 37.6872 125.059C38.2612 124.555 38.8188 124.051 39.3272 123.547C40.017 123.059 40.3073 122.541 40.18 122.023C39.6716 120.99 36.08 120.267 32.8328 119.641C29.2248 118.953 25.4856 118.041 25.502 116.798C25.7605 115.832 27.2665 114.916 29.7824 114.194C32.1112 113.438 34.8664 112.774 36.9656 111.976C38.6182 111.423 39.4806 110.741 39.4092 110.044C39.1833 109.618 38.6256 109.209 37.7692 108.839C36.1292 108.028 33.8004 107.285 32.6196 106.416C31.4388 105.546 31.6028 104.463 34.2596 103.841C36.4244 103.329 39.6716 103.257 42.6072 103.308C45.3666 103.394 48.0193 103.633 50.3808 104.009C58.0888 105.105 62.5004 107.445 70.684 108.289C73.9095 108.549 77.196 108.757 80.524 108.91C83.804 109.133 87.166 109.566 88.724 110.343C91.7252 111.88 86.1492 113.774 88.2648 115.404C90.1344 116.848 95.612 117.399 98.6788 118.701C99.9323 119.275 100.438 119.937 100.122 120.591C99.8543 121.694 98.7982 122.776 97.006 123.783C94.9826 124.827 92.7096 125.838 90.2 126.811L54.4808 132.72Z" fill="white"/>
</g>
<path d="M75.079 129.629C74.9527 129.628 74.8284 129.62 74.7135 129.607C74.5986 129.593 74.4954 129.574 74.4098 129.55C74.3243 129.526 74.2582 129.498 74.2155 129.468C74.1727 129.437 74.154 129.405 74.1606 129.373C75.8006 119.612 57.7606 108.831 44.6406 105.702C44.481 105.655 44.3942 105.596 44.397 105.534C44.3999 105.473 44.4923 105.413 44.6561 105.368C44.82 105.323 45.0435 105.295 45.2833 105.29C45.523 105.285 45.7616 105.303 45.9526 105.34C59.2694 108.537 77.6046 119.494 75.9974 129.394C75.9855 129.455 75.885 129.513 75.7152 129.557C75.5455 129.6 75.3188 129.626 75.079 129.629Z" fill="white"/>
<path d="M68.8798 117.697H68.601C59.5901 117.058 50.3359 116.671 40.9998 116.542C40.8734 116.541 40.7491 116.533 40.6342 116.52C40.5193 116.506 40.4161 116.487 40.3306 116.463C40.2451 116.439 40.179 116.411 40.1362 116.381C40.0934 116.35 40.0748 116.318 40.0814 116.286C40.0833 116.253 40.1111 116.221 40.1631 116.191C40.2151 116.162 40.2903 116.135 40.3839 116.113C40.4775 116.091 40.5877 116.074 40.7077 116.063C40.8277 116.052 40.955 116.048 41.0818 116.05C50.6042 116.177 60.0453 116.567 69.2406 117.214C69.4812 117.235 69.6804 117.279 69.7966 117.337C69.9128 117.395 69.9369 117.462 69.8638 117.525C69.7983 117.577 69.6659 117.623 69.4876 117.654C69.3093 117.685 69.0953 117.7 68.8798 117.697Z" fill="white"/>
<path d="M416.035 203.708C625.253 203.708 794.859 178.631 794.859 147.697C794.859 116.763 625.253 91.686 416.035 91.686C206.816 91.686 37.2114 116.763 37.2114 147.697C37.2114 178.631 206.816 203.708 416.035 203.708Z" fill="#FAFAFA"/>
<path d="M214.709 123.82C294.954 111.959 425.039 111.959 505.268 123.82C573.278 133.875 583.61 149.226 536.329 160.898L712.875 186.669C723.634 188.261 723.634 190.84 712.875 192.431L697 194.779C686.242 196.371 669.12 196.245 658.69 194.502L504.53 166.891C424.17 178.651 294.741 178.605 214.774 166.782C134.48 154.917 134.48 135.685 214.709 123.82Z" fill="#E6E6E6"/>
<path d="M247.23 19.5298L233.323 21.5878C233.393 21.4316 233.432 21.2746 233.438 21.1174V20.0842C233.438 18.2446 228.403 17.5012 222.187 18.4042C219.509 18.8228 217.22 19.3861 215.48 20.0548C214.447 17.7448 207.378 16.8838 198.768 18.1522C189.469 19.5298 181.942 22.873 181.942 25.624V27.1654C181.877 27.7832 182.365 28.3967 183.369 28.9588L171.889 30.6682C170.059 30.9721 168.538 31.3832 167.452 31.8673C166.365 32.3515 165.744 32.895 165.64 33.4528C165.64 34.4734 168.428 34.885 171.889 34.3768L247.329 23.2216C249.149 22.9193 250.665 22.511 251.751 22.0299C252.837 21.5488 253.463 21.0087 253.577 20.4538C253.479 19.4332 250.691 19.0216 247.23 19.5298Z" fill="#EBEBEB"/>
<path d="M63.7962 28.7951L71.6354 27.2453V22.8185C71.6354 19.3073 82.5742 15.2333 94.4314 13.4819C106.305 11.7263 115.932 13.1501 115.932 16.6571V17.2997C118.434 16.2614 121.849 15.3871 125.903 14.7461C134.447 13.4861 141.368 14.5067 141.368 17.0309V17.3249L152.307 15.7079C157.932 14.8679 162.491 15.5483 162.491 17.2115C162.3 18.1168 161.279 18.9978 159.509 19.783C157.74 20.5682 155.272 21.2355 152.307 21.7307L63.7962 34.8179C58.171 35.6579 53.6118 34.9733 53.6118 33.3101C53.8027 32.4054 54.8245 31.525 56.5941 30.7405C58.3638 29.956 60.8314 29.2894 63.7962 28.7951Z" fill="#EBEBEB"/>
<path d="M180.121 131.54V144.32C180.121 151.259 198.03 158.18 233.831 163.493C305.433 174.082 421.546 174.082 493.148 163.493C528.949 158.197 546.858 151.259 546.858 144.32V131.54C546.858 124.601 528.949 117.68 493.148 112.371C421.546 101.783 305.433 101.783 233.831 112.371C198.03 117.663 180.121 124.601 180.121 131.54ZM529.113 131.54C529.113 137.092 513.189 142.502 484.276 146.777C452.296 151.507 409.409 154.111 363.489 154.111C317.569 154.111 274.683 151.507 242.703 146.777C213.79 142.502 197.866 137.092 197.866 131.54C197.866 125.987 213.79 120.578 242.703 116.302C274.683 111.573 317.569 108.969 363.489 108.969C409.409 108.969 452.312 111.573 484.276 116.302C513.205 120.578 529.113 126 529.113 131.54Z" fill="#003249"/>
<path opacity="0.2" d="M180.121 131.54V144.32C180.121 151.259 198.03 158.18 233.831 163.493C305.433 174.082 421.546 174.082 493.148 163.493C528.949 158.197 546.858 151.259 546.858 144.32V131.54C546.858 124.601 528.949 117.68 493.148 112.371C421.546 101.783 305.433 101.783 233.831 112.371C198.03 117.663 180.121 124.601 180.121 131.54ZM529.113 131.54C529.113 137.092 513.189 142.502 484.276 146.777C452.296 151.507 409.409 154.111 363.489 154.111C317.569 154.111 274.683 151.507 242.703 146.777C213.79 142.502 197.866 137.092 197.866 131.54C197.866 125.987 213.79 120.578 242.703 116.302C274.683 111.573 317.569 108.969 363.489 108.969C409.409 108.969 452.312 111.573 484.276 116.302C513.205 120.578 529.113 126 529.113 131.54Z" fill="white"/>
<path opacity="0.6" d="M546.677 145.513C543.824 149.911 536.264 153.22 505.809 159.306C462.759 167.916 353.748 171.432 290.477 166.085C230.797 161.045 211.757 151.179 211.757 144.413L211.921 140.436C202.704 137.626 197.849 134.606 197.849 131.54C197.849 128.398 202.95 125.303 212.609 122.434L212.823 116.832H209.428C189.895 121.296 180.121 126.416 180.121 131.532V144.312C180.121 151.251 198.03 158.172 233.831 163.485C305.433 174.073 421.546 174.073 493.148 163.485C526.899 158.504 544.742 152.04 546.677 145.513Z" fill="#003249"/>
<path d="M493.164 112.371C421.546 101.783 305.45 101.783 233.848 112.371C162.245 122.959 162.229 140.125 233.848 150.713C305.466 161.301 421.546 161.301 493.164 150.713C564.783 140.125 564.767 122.959 493.164 112.371ZM484.292 146.777C452.312 151.507 409.41 154.111 363.506 154.111C317.602 154.111 274.7 151.507 242.704 146.777C213.79 142.502 197.866 137.092 197.866 131.54C197.866 125.987 213.79 120.578 242.704 116.302C274.684 111.573 317.586 108.969 363.506 108.969C409.426 108.969 452.312 111.573 484.292 116.302C513.205 120.578 529.13 125.992 529.13 131.54C529.13 137.088 513.205 142.502 484.292 146.777Z" fill="#003249"/>
<path opacity="0.5" d="M493.164 112.371C421.546 101.783 305.45 101.783 233.848 112.371C162.245 122.959 162.229 140.125 233.848 150.713C305.466 161.301 421.546 161.301 493.164 150.713C564.783 140.125 564.767 122.959 493.164 112.371ZM484.292 146.777C452.312 151.507 409.41 154.111 363.506 154.111C317.602 154.111 274.7 151.507 242.704 146.777C213.79 142.502 197.866 137.092 197.866 131.54C197.866 125.987 213.79 120.578 242.704 116.302C274.684 111.573 317.586 108.969 363.506 108.969C409.426 108.969 452.312 111.573 484.292 116.302C513.205 120.578 529.13 125.992 529.13 131.54C529.13 137.088 513.205 142.502 484.292 146.777Z" fill="white"/>
<path d="M529.146 131.54C529.04 133.797 526.565 136.005 521.979 137.932C514.714 134.711 501.905 131.687 484.259 129.087C452.312 124.354 409.393 121.75 363.473 121.75C317.553 121.75 274.667 124.354 242.703 129.087C225.073 131.687 212.281 134.711 204.983 137.932C200.434 136.001 197.977 133.795 197.866 131.54C197.866 125.992 213.79 120.578 242.72 116.298C274.683 111.577 317.586 108.969 363.489 108.969C409.393 108.969 452.328 111.577 484.275 116.298C513.221 120.578 529.146 126 529.146 131.54Z" fill="#003249"/>
<path opacity="0.3" d="M529.146 131.54C529.04 133.797 526.565 136.005 521.979 137.932C514.714 134.711 501.905 131.687 484.259 129.087C452.312 124.354 409.393 121.75 363.473 121.75C317.553 121.75 274.667 124.354 242.703 129.087C225.073 131.687 212.281 134.711 204.983 137.932C200.434 136.001 197.977 133.795 197.866 131.54C197.866 125.992 213.79 120.578 242.72 116.298C274.683 111.577 317.586 108.969 363.489 108.969C409.393 108.969 452.328 111.577 484.275 116.298C513.221 120.578 529.146 126 529.146 131.54Z" fill="white"/>
<path opacity="0.6" d="M242.72 116.298C213.79 120.578 197.866 125.992 197.866 131.54C197.982 133.795 200.445 136.002 205 137.932C212.314 134.711 225.106 131.687 242.72 129.087C250.168 127.996 257.906 127.04 265.877 126.227C258.89 126.92 237.439 128.688 245.262 123.451C254.561 117.23 299.939 110.494 333.281 109.376C298.988 110.246 267.549 112.631 242.72 116.298Z" fill="#003249"/>
<path opacity="0.4" d="M484.292 122.09C452.312 117.361 409.409 114.757 363.506 114.757C317.602 114.757 274.683 117.361 242.703 122.09C218.858 125.618 203.868 129.919 199.342 134.434C203.868 138.949 218.858 143.254 242.703 146.777C274.7 151.507 317.586 154.111 363.506 154.111C409.426 154.111 452.312 151.507 484.292 146.777C508.154 143.249 523.143 138.949 527.653 134.434C523.16 129.919 508.154 125.618 484.292 122.09Z" fill="white"/>
<path d="M230.453 137.365C240.703 139.423 252.33 140.725 264.187 141.758C276.077 142.767 288.255 143.536 300.612 144.06C325.303 145.087 350.344 145.453 375.33 145.152C387.811 145.009 400.307 144.711 412.722 144.283C425.098 143.857 437.36 143.238 449.442 142.43C461.465 141.66 473.095 140.533 484.095 139.07C486.811 138.7 489.439 138.289 491.967 137.84C494.506 137.396 496.912 136.905 499.167 136.37C501.441 135.832 503.471 135.231 505.218 134.576C507.027 133.905 508.405 133.163 509.302 132.38C509.356 133.238 508.8 134.092 507.662 134.9C506.458 135.712 504.884 136.484 502.971 137.201C501.081 137.924 498.929 138.599 496.543 139.217C494.18 139.839 491.666 140.421 489.015 140.96C478.328 143.047 466.482 144.712 453.87 145.9C441.435 147.1 428.609 148.015 415.543 148.634C402.546 149.264 389.395 149.664 376.183 149.831C349.665 150.186 323.095 149.461 297.463 147.685C284.641 146.785 272.257 145.517 260.547 143.905C254.715 143.086 249.173 142.139 243.983 141.074C242.687 140.809 241.473 140.519 240.227 140.234C238.981 139.948 237.8 139.658 236.668 139.352C234.384 138.735 232.305 138.071 230.453 137.365Z" fill="white"/>
<path d="M487.703 158.848C487.924 157.706 489.194 156.594 491.411 155.601C493.628 154.608 496.73 153.764 500.462 153.136C503.972 152.611 507.17 152.557 509.499 152.893L550.368 158.878C552.68 159.218 554.123 159.953 554.14 160.978C553.915 162.12 552.643 163.232 550.426 164.224C548.209 165.217 545.11 166.061 541.38 166.69C537.838 167.219 534.624 167.274 532.295 166.929L491.442 160.948C489.179 160.637 487.72 159.902 487.703 158.848Z" fill="#37474F"/>
<path d="M491.524 160.978C489.179 160.638 487.72 159.903 487.703 158.848C487.762 157.998 488.504 157.16 489.884 156.387L548.613 165.006C546.702 165.694 544.27 166.277 541.462 166.719C537.92 167.248 534.706 167.303 532.377 166.959L491.524 160.978Z" fill="#263238"/>
<path d="M689.522 175.9L559.47 158.928L559.306 158.903C556.288 158.483 552.188 158.558 547.678 159.23C538.461 160.608 531.032 163.934 531.081 166.664C531.081 168.034 533 168.991 536.001 169.436L658.23 189.596C661.747 190.166 665.676 190.549 669.784 190.722C673.891 190.895 678.091 190.854 682.136 190.602C686.18 190.35 689.984 189.892 693.322 189.255C696.66 188.619 699.463 187.816 701.565 186.896C703.666 185.976 705.022 184.957 705.552 183.9C706.081 182.843 705.775 181.769 704.649 180.743C703.524 179.716 701.603 178.759 699.001 177.927C696.399 177.095 693.17 176.406 689.505 175.9H689.522Z" fill="#455A64"/>
<path d="M536.018 169.445L658.247 189.605C662.791 190.336 667.998 190.751 673.358 190.811C678.719 190.871 684.048 190.573 688.823 189.947C693.599 189.321 697.657 188.387 700.599 187.238C703.542 186.089 705.269 184.764 705.61 183.393C703.265 186.001 686.438 188.219 665.578 185.233C644.717 182.247 567.44 169.735 532.328 164.556C531.503 165.236 531.072 165.944 531.048 166.656C531.065 168.042 533 169 536.018 169.445Z" fill="#37474F"/>
<path d="M536.018 169.445C532.967 169 531.098 168.042 531.098 166.673C531.098 163.943 538.478 160.616 547.694 159.239C552.204 158.567 556.304 158.495 559.322 158.911L570.802 160.406C567.702 159.986 563.52 160.054 558.879 160.742C549.433 162.154 541.807 165.568 541.856 168.37C541.856 169.772 543.742 170.776 546.858 171.23" fill="#003249"/>
<path opacity="0.2" d="M546.842 171.23C543.726 170.776 541.922 169.773 541.84 168.37C541.857 167.628 542.305 166.89 543.168 166.182C539.248 165.585 535.591 165.039 532.328 164.556C531.914 164.907 531.591 165.265 531.36 165.627C531.262 165.804 531.18 165.98 531.114 166.156C531.114 166.333 531.032 166.505 531.114 166.673C531.114 168.042 533.033 169 536.034 169.445L546.842 171.23Z" fill="black"/>
<path d="M225.024 188.899L126.624 176.295L87.4282 180.739L225.024 188.899Z" fill="#003249"/>
<g opacity="0.15">
<path d="M225.024 188.899L126.624 176.295L87.4282 180.739L225.024 188.899Z" fill="white"/>
</g>
<path d="M225.024 188.899L138.35 174.061L153.864 168.349L225.024 188.899Z" fill="#003249"/>
<g opacity="0.15">
<path d="M225.024 188.899L138.35 174.061L153.864 168.349L225.024 188.899Z" fill="white"/>
</g>
<path d="M138.35 174.061L139.974 178.004L225.024 188.899L138.35 174.061Z" fill="#003249"/>
<g opacity="0.2">
<path d="M138.35 174.061L139.974 178.004L225.024 188.899L138.35 174.061Z" fill="black"/>
</g>
<path d="M124.312 173.304C124.55 173.303 124.778 173.279 124.951 173.237C125.152 173.187 125.273 173.119 125.291 173.047C125.309 172.975 125.223 172.903 125.05 172.847L123.164 172.2C123.087 172.173 122.989 172.15 122.875 172.133C122.762 172.116 122.635 172.106 122.505 172.103C122.374 172.1 122.243 172.104 122.119 172.115C121.995 172.126 121.881 172.143 121.786 172.166C121.586 172.217 121.464 172.284 121.443 172.356C121.422 172.428 121.503 172.499 121.671 172.557C122.295 172.771 122.934 172.977 123.574 173.191C123.654 173.223 123.763 173.25 123.891 173.27C124.019 173.29 124.163 173.301 124.312 173.304Z" fill="#455A64"/>
<path d="M115.669 170.44C114.499 170.003 113.367 169.562 112.274 169.117C112.126 169.056 112.07 168.983 112.115 168.912C112.16 168.841 112.304 168.777 112.52 168.731C112.622 168.71 112.74 168.695 112.867 168.687C112.993 168.679 113.125 168.679 113.253 168.685C113.381 168.691 113.501 168.705 113.607 168.724C113.713 168.744 113.801 168.769 113.865 168.798C114.964 169.239 116.079 169.676 117.145 170.108C117.305 170.167 117.374 170.24 117.338 170.311C117.301 170.383 117.162 170.448 116.948 170.495C116.789 170.53 116.585 170.55 116.374 170.549C116.232 170.546 116.096 170.534 115.974 170.515C115.852 170.496 115.748 170.47 115.669 170.44ZM106.993 166.832C105.993 166.366 105.009 165.892 104.074 165.417C103.946 165.353 103.913 165.279 103.983 165.21C104.052 165.14 104.219 165.079 104.451 165.039C104.564 165.021 104.691 165.01 104.822 165.006C104.954 165.002 105.087 165.005 105.214 165.015C105.34 165.026 105.456 165.043 105.553 165.066C105.651 165.089 105.728 165.117 105.78 165.148C106.698 165.614 107.666 166.081 108.65 166.543C108.789 166.605 108.835 166.678 108.777 166.749C108.72 166.819 108.564 166.882 108.338 166.925C108.185 166.949 108.009 166.962 107.83 166.963C107.658 166.962 107.489 166.949 107.342 166.927C107.195 166.904 107.075 166.871 106.993 166.832ZM99.6788 162.985C98.8588 162.485 98.0388 161.981 97.35 161.482C97.2494 161.415 97.2472 161.342 97.344 161.275C97.4407 161.209 97.6296 161.154 97.8748 161.12C97.9969 161.107 98.1286 161.1 98.2612 161.101C98.3939 161.102 98.5247 161.109 98.6452 161.123C98.7656 161.138 98.8731 161.158 98.9608 161.184C99.0484 161.209 99.1142 161.239 99.154 161.272C99.8592 161.763 100.63 162.259 101.45 162.75C101.56 162.816 101.573 162.89 101.485 162.958C101.398 163.026 101.216 163.083 100.974 163.12C100.847 163.136 100.707 163.144 100.564 163.145C100.372 163.143 100.186 163.127 100.028 163.099C99.8708 163.071 99.7493 163.031 99.6788 162.985ZM94.0044 158.92C93.414 158.395 92.8564 157.861 92.3644 157.345C92.2861 157.276 92.314 157.202 92.4423 157.139C92.5706 157.076 92.7894 157.027 93.0532 157.004C93.1815 156.996 93.3155 156.994 93.4467 156.999C93.5778 157.004 93.7035 157.016 93.8158 157.034C93.9281 157.052 94.0246 157.076 94.0994 157.104C94.1741 157.132 94.2256 157.164 94.2504 157.198C94.726 157.71 95.2672 158.231 95.8904 158.747C95.9739 158.815 95.9563 158.888 95.8412 158.952C95.726 159.017 95.5214 159.068 95.2672 159.096H94.972C94.7583 159.097 94.5491 159.08 94.3749 159.048C94.2008 159.017 94.071 158.972 94.0044 158.92ZM90.1996 154.673C89.8716 154.14 89.5764 153.594 89.3304 153.052C89.2824 152.983 89.3432 152.911 89.4998 152.853C89.6563 152.795 89.8959 152.755 90.1668 152.741C90.4357 152.737 90.7011 152.759 90.9064 152.804C91.1117 152.849 91.2406 152.912 91.2656 152.981C91.4952 153.514 91.7904 154.052 92.1184 154.577C92.1736 154.645 92.1245 154.716 91.9812 154.776C91.8378 154.835 91.6111 154.878 91.3476 154.896H91.1672C90.9307 154.893 90.7056 154.869 90.5295 154.829C90.3533 154.788 90.2369 154.733 90.1996 154.673ZM88.5596 150.322C88.5596 149.902 88.4612 149.482 88.4612 149.033V148.68C88.4546 148.646 88.4744 148.612 88.5195 148.579C88.5645 148.547 88.634 148.517 88.7239 148.492C88.8137 148.467 88.9223 148.446 89.0432 148.431C89.1642 148.417 89.2952 148.409 89.4288 148.407C89.7001 148.412 89.9522 148.445 90.1303 148.498C90.3083 148.55 90.3981 148.619 90.38 148.688V149.033C90.38 149.453 90.38 149.873 90.38 150.293C90.403 150.363 90.318 150.432 90.1433 150.486C89.9686 150.541 89.718 150.575 89.4452 150.583C89.1989 150.574 88.9728 150.543 88.8096 150.495C88.6465 150.447 88.5575 150.386 88.5596 150.322ZM89.8552 146.252C89.5868 146.24 89.347 146.202 89.1854 146.145C89.0237 146.089 88.9523 146.019 88.986 145.95C89.1664 145.408 89.396 144.858 89.6584 144.316C89.6684 144.282 89.7057 144.248 89.768 144.218C89.8303 144.187 89.9164 144.16 90.0209 144.139C90.1254 144.117 90.2461 144.101 90.3755 144.092C90.505 144.083 90.6405 144.08 90.7736 144.085C91.0415 144.099 91.2771 144.14 91.4303 144.198C91.5834 144.256 91.642 144.327 91.5936 144.396C91.3312 144.929 91.1016 145.471 90.9212 146C90.9096 146.065 90.8044 146.127 90.6258 146.174C90.4472 146.22 90.2078 146.248 89.9536 146.252H89.8552ZM92.1512 141.96C91.8886 141.939 91.6678 141.892 91.5337 141.831C91.3996 141.769 91.3624 141.697 91.4296 141.628C91.856 141.095 92.348 140.561 92.8892 140.036C92.9137 140.003 92.9652 139.971 93.0402 139.943C93.1152 139.916 93.2121 139.892 93.3248 139.874C93.4375 139.856 93.5634 139.845 93.6946 139.84C93.8257 139.836 93.9592 139.838 94.0864 139.847C94.346 139.873 94.5589 139.922 94.6833 139.986C94.8077 140.05 94.8346 140.123 94.7588 140.192C94.234 140.704 93.742 141.233 93.3156 141.754C93.2814 141.812 93.1694 141.865 92.9988 141.904C92.8281 141.943 92.6096 141.966 92.3808 141.968L92.1512 141.96ZM96.5792 137.806C96.3297 137.775 96.1353 137.721 96.0349 137.655C95.9345 137.589 95.9356 137.515 96.038 137.449C96.7432 136.945 97.5304 136.437 98.3504 135.941C98.3967 135.91 98.468 135.881 98.5597 135.857C98.6514 135.833 98.7616 135.814 98.8833 135.801C99.005 135.789 99.1356 135.783 99.2669 135.784C99.3981 135.785 99.5272 135.793 99.646 135.807C99.885 135.844 100.064 135.901 100.152 135.969C100.239 136.037 100.228 136.111 100.122 136.177C99.3016 136.664 98.4816 137.159 97.842 137.655C97.7805 137.704 97.6605 137.747 97.4988 137.778C97.337 137.809 97.1417 137.826 96.94 137.827C96.8147 137.828 96.6903 137.821 96.5792 137.806ZM103.32 133.904C103.089 133.863 102.926 133.801 102.862 133.73C102.799 133.66 102.839 133.586 102.975 133.522C103.976 133.056 105.025 132.59 106.091 132.14C106.154 132.111 106.242 132.085 106.347 132.064C106.453 132.044 106.575 132.03 106.704 132.023C106.833 132.015 106.967 132.015 107.096 132.023C107.225 132.03 107.347 132.044 107.452 132.065C107.668 132.111 107.813 132.175 107.861 132.246C107.909 132.316 107.858 132.389 107.715 132.451C106.649 132.892 105.616 133.35 104.648 133.808C104.57 133.848 104.451 133.881 104.303 133.905C104.156 133.929 103.986 133.941 103.812 133.942C103.637 133.942 103.466 133.929 103.32 133.904ZM112.028 130.339C111.829 130.289 111.708 130.222 111.687 130.151C111.666 130.08 111.746 130.009 111.913 129.952C113.143 129.532 114.439 129.112 115.734 128.717C115.819 128.692 115.925 128.671 116.044 128.657C116.162 128.643 116.292 128.635 116.423 128.635C116.554 128.635 116.684 128.643 116.803 128.657C116.922 128.671 117.027 128.692 117.112 128.717C117.299 128.771 117.402 128.841 117.402 128.913C117.402 128.985 117.299 129.054 117.112 129.108C115.833 129.499 114.57 129.902 113.356 130.318C113.271 130.348 113.158 130.374 113.027 130.391C112.895 130.409 112.75 130.418 112.602 130.418C112.477 130.418 112.354 130.41 112.241 130.396C112.128 130.383 112.027 130.363 111.946 130.339H112.028ZM122.573 127.197C122.386 127.143 122.283 127.074 122.283 127.002C122.283 126.93 122.386 126.86 122.573 126.806C124.016 126.441 125.509 126.084 127.001 125.748C127.1 125.725 127.216 125.709 127.342 125.699C127.468 125.689 127.601 125.686 127.731 125.69C127.862 125.695 127.987 125.706 128.099 125.724C128.211 125.742 128.306 125.766 128.379 125.794C128.538 125.854 128.608 125.926 128.578 125.997C128.548 126.069 128.419 126.135 128.215 126.185C126.739 126.512 125.279 126.861 123.852 127.218C123.684 127.262 123.454 127.288 123.213 127.289C123.073 127.289 122.936 127.28 122.811 127.264C122.686 127.248 122.577 127.225 122.491 127.197H122.573ZM134.644 124.538C134.509 124.476 134.465 124.403 134.519 124.333C134.573 124.263 134.722 124.201 134.939 124.156C136.579 123.854 138.219 123.572 139.859 123.316C139.971 123.299 140.096 123.288 140.226 123.285C140.356 123.281 140.487 123.284 140.611 123.295C140.735 123.305 140.85 123.322 140.946 123.345C141.043 123.367 141.119 123.395 141.171 123.425C141.298 123.489 141.33 123.562 141.261 123.631C141.191 123.7 141.025 123.76 140.794 123.799C139.154 124.051 137.514 124.328 135.874 124.639C135.72 124.667 135.537 124.681 135.349 124.681C135.181 124.676 135.021 124.661 134.884 124.636C134.746 124.611 134.635 124.577 134.562 124.538H134.644Z" fill="#455A64"/>
<path d="M149.076 122.724H149.371C150.237 122.64 151.132 122.577 152.044 122.535C152.313 122.52 152.549 122.478 152.702 122.42C152.855 122.361 152.913 122.289 152.864 122.22C152.854 122.186 152.817 122.153 152.756 122.122C152.695 122.092 152.611 122.065 152.508 122.043C152.406 122.021 152.287 122.005 152.16 121.995C152.032 121.985 151.898 121.981 151.765 121.985C150.749 122.033 149.751 122.104 148.78 122.195C148.521 122.221 148.31 122.272 148.191 122.337C148.072 122.401 148.054 122.475 148.141 122.543C148.203 122.595 148.326 122.64 148.494 122.672C148.662 122.705 148.865 122.723 149.076 122.724Z" fill="#455A64"/>
<path d="M609.588 26.103L508.728 18.186L586.431 31.857L609.588 26.103Z" fill="#003249"/>
<path opacity="0.15" d="M609.588 26.103L508.728 18.186L586.431 31.857L609.588 26.103Z" fill="white"/>
<path d="M508.728 18.186L617.28 22.659L640.436 16.905L508.728 18.186Z" fill="#003249"/>
<path opacity="0.15" d="M508.728 18.186L617.28 22.659L640.436 16.905L508.728 18.186Z" fill="white"/>
<path d="M617.28 22.659L617.378 29.5302L609.588 26.103L508.728 18.186L617.28 22.659Z" fill="#003249"/>
<path opacity="0.2" d="M617.28 22.659L617.378 29.5302L609.588 26.103L508.728 18.186L617.28 22.659Z" fill="black"/>
<path d="M617.378 29.5302L601.864 28.0224L609.588 26.103L617.378 29.5302Z" fill="#003249"/>
<path opacity="0.2" d="M609.588 26.103L601.864 28.0224L604.34 28.2618L609.588 26.103Z" fill="black"/>
<path d="M637.73 24.8933C637.636 24.9113 637.557 24.9339 637.498 24.9599C637.439 24.9859 637.401 25.0147 637.386 25.0445C637.352 25.1162 637.419 25.1887 637.576 25.2487C637.732 25.3088 637.967 25.3526 638.239 25.3721L641.224 25.5779C641.349 25.588 641.481 25.591 641.611 25.5866C641.742 25.5823 641.866 25.5707 641.977 25.5527C642.088 25.5347 642.182 25.5107 642.253 25.4824C642.324 25.4541 642.37 25.4222 642.388 25.3889C642.427 25.3182 642.366 25.2463 642.215 25.1861C642.065 25.126 641.835 25.0817 641.568 25.0613L638.55 24.8555C638.412 24.8452 638.265 24.8432 638.123 24.8497C637.981 24.8563 637.846 24.8712 637.73 24.8933Z" fill="#455A64"/>
<path d="M651.392 25.8301C653.343 25.9981 655.295 26.1745 657.214 26.3551C657.477 26.3806 657.696 26.4293 657.831 26.4925C657.966 26.5556 658.009 26.629 657.952 26.6995C657.918 26.732 657.857 26.7623 657.773 26.7882C657.689 26.8142 657.585 26.8352 657.467 26.85C657.349 26.8647 657.22 26.8728 657.088 26.8736C656.957 26.8745 656.826 26.8681 656.705 26.8549C654.803 26.6743 652.868 26.5021 650.933 26.3341C650.669 26.3111 650.447 26.2643 650.309 26.2025C650.17 26.1407 650.123 26.068 650.178 25.9981C650.216 25.9442 650.334 25.8961 650.506 25.8637C650.631 25.8396 650.777 25.8239 650.932 25.818C651.087 25.8121 651.245 25.8163 651.392 25.8301ZM666.824 27.3505C668.743 27.5689 670.629 27.7705 672.499 28.0267C672.752 28.0571 672.952 28.1103 673.061 28.1762C673.17 28.2421 673.18 28.3161 673.089 28.3837C673.04 28.4151 672.966 28.4434 672.871 28.4669C672.776 28.4903 672.663 28.5084 672.54 28.5199C672.416 28.5314 672.284 28.5361 672.152 28.5336C672.021 28.5311 671.893 28.5216 671.777 28.5055C669.94 28.2745 668.071 28.0519 666.185 27.8419C665.931 27.8125 665.727 27.7606 665.609 27.6959C665.492 27.6312 665.469 27.5578 665.545 27.4891C665.599 27.4438 665.708 27.4041 665.857 27.3757C665.994 27.3496 666.157 27.3335 666.327 27.3291C666.497 27.3246 666.669 27.332 666.824 27.3505ZM681.748 29.2783C683.585 29.5471 685.389 29.8285 687.16 30.1183C687.396 30.1558 687.571 30.2139 687.652 30.2819C687.734 30.3498 687.716 30.423 687.603 30.4879C687.538 30.5177 687.449 30.5436 687.342 30.5639C687.236 30.5843 687.113 30.5987 686.983 30.6063C686.854 30.6138 686.719 30.6142 686.588 30.6076C686.458 30.601 686.334 30.5874 686.225 30.5677C684.487 30.2863 682.699 30.0133 680.895 29.7277C680.652 29.693 680.467 29.6365 680.377 29.5691C680.286 29.5017 680.295 29.4281 680.403 29.3623C680.458 29.3273 680.548 29.2968 680.666 29.2741C680.828 29.2477 681.017 29.2339 681.209 29.2347C681.402 29.2354 681.589 29.2506 681.748 29.2783ZM695.885 31.6345C697.607 31.9579 699.296 32.2939 700.92 32.6299C701.14 32.6733 701.287 32.7364 701.333 32.8065C701.378 32.8767 701.319 32.9486 701.166 33.0079C701.085 33.0351 700.983 33.0577 700.866 33.0741C700.748 33.0905 700.619 33.1004 700.486 33.1031C700.353 33.1059 700.219 33.1015 700.093 33.0902C699.968 33.0788 699.852 33.0608 699.755 33.0373C698.115 32.7055 696.475 32.3779 694.835 32.0587C694.605 32.0178 694.444 31.9562 694.383 31.8861C694.322 31.8161 694.367 31.7428 694.507 31.6807C694.555 31.6587 694.622 31.64 694.704 31.6261C694.88 31.5959 695.088 31.5804 695.3 31.5819C695.511 31.5834 695.716 31.6018 695.885 31.6345ZM708.923 34.4401C710.465 34.8139 711.99 35.2003 713.466 35.5951C713.656 35.646 713.762 35.7137 713.762 35.7841C713.762 35.8546 713.656 35.9223 713.466 35.9731C713.371 35.9975 713.259 36.0169 713.135 36.0301C713.011 36.0433 712.878 36.0501 712.744 36.0501C712.61 36.0501 712.477 36.0433 712.353 36.0301C712.229 36.0169 712.117 35.9975 712.023 35.9731C710.579 35.5867 709.071 35.2045 707.562 34.8391C707.356 34.7922 707.228 34.727 707.204 34.6568C707.18 34.5866 707.261 34.5166 707.431 34.4611L707.562 34.4275C707.755 34.3861 708 34.3645 708.252 34.3668C708.503 34.3692 708.742 34.3953 708.923 34.4401ZM720.551 37.6405C721.617 37.9723 722.65 38.3083 723.683 38.6527L724.503 38.9341C724.675 38.9878 724.757 39.0567 724.733 39.1258C724.708 39.1949 724.579 39.2589 724.372 39.3037C724.26 39.3234 724.135 39.3372 724.002 39.3443C723.869 39.3513 723.733 39.3515 723.6 39.3449C723.467 39.3382 723.34 39.3249 723.228 39.3055C723.116 39.2862 723.019 39.2613 722.945 39.2323L722.125 38.9551C721.125 38.6191 720.108 38.2873 719.058 37.9597C718.869 37.9096 718.763 37.8426 718.763 37.7728C718.763 37.7031 718.869 37.6361 719.058 37.5859C719.163 37.5618 719.287 37.5436 719.421 37.5323C719.555 37.5211 719.696 37.5172 719.837 37.5207C719.977 37.5243 720.113 37.5353 720.236 37.553C720.359 37.5707 720.466 37.5948 720.551 37.6237V37.6405ZM729.161 41.0845C729.401 41.052 729.682 41.0444 729.944 41.0631C730.206 41.0818 730.431 41.1256 730.571 41.1853C731.703 41.6473 732.818 42.1177 733.851 42.5923C733.923 42.6212 733.971 42.6534 733.993 42.6871C734.016 42.7208 734.011 42.7553 733.981 42.7885C733.95 42.8218 733.894 42.8532 733.815 42.8808C733.737 42.9084 733.637 42.9317 733.523 42.9493C733.273 42.9778 732.991 42.9811 732.733 42.9585C732.474 42.9359 732.258 42.8891 732.129 42.8275C731.079 42.3613 729.981 41.8951 728.849 41.4457C728.703 41.3924 728.641 41.327 728.675 41.2625C728.708 41.1979 728.835 41.1389 729.029 41.0971L729.161 41.0845ZM737.475 44.8645C737.737 44.8404 738.025 44.8426 738.28 44.8706C738.536 44.8987 738.741 44.9506 738.853 45.0157C739.755 45.5071 740.641 46.0069 741.444 46.5067C741.501 46.5375 741.533 46.5709 741.538 46.6049C741.543 46.6389 741.521 46.6729 741.474 46.7047C741.426 46.7364 741.354 46.7654 741.262 46.7899C741.169 46.8143 741.058 46.8338 740.936 46.8469C740.668 46.8664 740.382 46.8595 740.133 46.8276C739.884 46.7957 739.691 46.7412 739.591 46.6747C738.804 46.1833 737.951 45.6919 737.049 45.2131C736.936 45.1611 736.899 45.1004 736.944 45.042C736.989 44.9836 737.113 44.9311 737.295 44.8939C737.338 44.8712 737.399 44.8511 737.475 44.8351V44.8645ZM743.789 48.8545C744.062 48.8413 744.345 48.8546 744.581 48.8919C744.818 48.9292 744.992 48.9878 745.069 49.0561C745.692 49.5685 746.282 50.0935 746.791 50.6143C746.83 50.6466 746.842 50.6807 746.826 50.7143C746.81 50.7478 746.767 50.7802 746.699 50.8091C746.631 50.8381 746.539 50.8631 746.431 50.8823C746.322 50.9016 746.199 50.9147 746.069 50.9209C745.795 50.9301 745.517 50.9128 745.29 50.8724C745.062 50.8321 744.902 50.7715 744.839 50.7025C744.331 50.1901 743.757 49.6735 743.199 49.1737C743.13 49.1254 743.121 49.0727 743.174 49.0231C743.227 48.9734 743.339 48.9292 743.494 48.8965C743.568 48.8669 743.67 48.8424 743.789 48.8251V48.8545ZM747.725 52.9915C748.006 52.9898 748.28 53.0144 748.494 53.0609C748.709 53.1073 748.85 53.1723 748.89 53.2435C749.218 53.7685 749.48 54.3019 749.693 54.8311C749.71 54.864 749.698 54.8975 749.661 54.9292C749.623 54.9609 749.559 54.9902 749.474 55.0152C749.389 55.0402 749.284 55.0603 749.166 55.0742C749.049 55.0881 748.921 55.0954 748.791 55.0957C748.51 55.095 748.241 55.0674 748.034 55.0185C747.828 54.9696 747.701 54.9028 747.676 54.8311C747.463 54.3145 747.217 53.7937 746.889 53.2771C746.859 53.2336 746.876 53.1889 746.936 53.1475C746.997 53.1062 747.099 53.0697 747.233 53.0419C747.359 53.0024 747.532 52.9744 747.725 52.9621V52.9915Z" fill="#455A64"/>
<path d="M765.683 120.049C761.288 119.377 755.089 119.469 748.201 120.469L623.298 138.949C609.965 140.918 599.141 145.606 599.141 149.415C599.141 151.276 601.732 152.578 605.931 153.195L619.33 155.173C623.708 155.812 629.826 155.711 636.615 154.707L761.534 136.227C774.867 134.257 785.675 129.57 785.675 125.761C785.675 123.913 783.116 122.606 778.951 121.981C776.671 121.661 767.881 120.385 765.683 120.049Z" fill="#E0E0E0"/>
<path d="M625.529 155.4C617.985 155.4 613.294 153.871 613.294 151.414C613.294 147.68 623.938 143.065 637.025 141.133L761.944 122.653C765.161 122.142 768.838 121.852 772.62 121.813C780.164 121.812 784.855 123.341 784.855 125.798C784.855 129.536 774.211 134.148 761.124 136.084L636.205 154.564C632.99 155.076 629.311 155.364 625.529 155.4Z" fill="#FAFAFA"/>
<path d="M772.62 122.006C779.656 122.006 784.1 123.455 784.1 125.786C784.1 129.457 773.637 133.988 760.779 135.866L635.861 154.346C632.77 154.84 629.233 155.121 625.594 155.161C624.036 155.174 622.487 155.096 621.066 154.932C619.644 154.768 618.388 154.523 617.394 154.216C615.064 153.396 613.906 152.397 614.114 151.385C614.114 147.718 624.577 143.186 637.435 141.305L762.354 122.825C765.444 122.331 768.981 122.05 772.62 122.01M772.62 121.59C768.69 121.628 764.868 121.929 761.534 122.464L636.615 140.944C623.282 142.918 612.474 147.601 612.474 151.41C612.474 154.077 617.771 155.61 625.594 155.61C629.521 155.571 633.342 155.272 636.681 154.741L761.599 136.261C774.933 134.291 785.74 129.604 785.74 125.794C785.74 123.127 780.443 121.594 772.62 121.594V121.59Z" fill="#EBEBEB"/>
<path d="M656.197 145.051C656.705 144.808 656.623 144.556 656.197 144.488L652.015 143.871C651.926 143.859 651.828 143.853 651.728 143.853C651.628 143.853 651.529 143.859 651.441 143.871L647.603 144.249L646.34 143.56C646.278 143.526 646.174 143.498 646.045 143.48L641.863 142.859C641.338 142.783 640.469 142.955 640.125 143.241L637.517 145.429C637.375 145.561 637.077 145.678 636.664 145.765L630.842 146.92C629.907 147.101 629.547 147.546 630.219 147.668L634.434 148.449C634.579 148.487 634.685 148.534 634.742 148.586C634.799 148.637 634.806 148.691 634.762 148.743L633.761 150.872C633.679 151.028 633.86 151.133 634.139 151.171L638.321 151.792C638.649 151.838 639.141 151.792 639.583 151.654L644.799 149.948C644.908 149.902 645.061 149.863 645.245 149.836C645.428 149.809 645.636 149.794 645.848 149.793L651.08 149.94C651.9 149.969 652.867 149.583 652.72 149.293L651.72 147.458C651.674 147.322 651.788 147.186 652.047 147.067L656.197 145.051Z" fill="#003249"/>
<path opacity="0.15" d="M656.148 144.48C656.058 144.469 655.96 144.464 655.861 144.464C655.762 144.464 655.664 144.469 655.574 144.48L649.735 145.051C649.66 145.061 649.577 145.066 649.492 145.067C649.408 145.068 649.323 145.065 649.245 145.057C649.166 145.049 649.094 145.037 649.035 145.021C648.975 145.006 648.929 144.987 648.899 144.967L647.554 144.236L651.392 143.863C651.481 143.851 651.579 143.845 651.679 143.845C651.778 143.845 651.877 143.851 651.966 143.863L656.148 144.48Z" fill="white"/>
<path opacity="0.15" d="M641.65 146.042C641.504 146.174 641.207 146.291 640.797 146.378L634.975 147.529C634.707 147.583 634.493 147.652 634.352 147.731L630.17 147.109C630.32 147.032 630.532 146.963 630.793 146.908L636.615 145.757C637.024 145.671 637.322 145.555 637.468 145.425L641.65 146.042Z" fill="white"/>
<path opacity="0.1" d="M646.029 143.476C645.504 143.388 644.618 143.56 644.257 143.854L641.65 146.042L637.468 145.421L640.075 143.233C640.42 142.947 641.289 142.775 641.814 142.85C641.929 142.85 645.471 143.396 646.012 143.472L646.029 143.476Z" fill="black"/>
<path opacity="0.25" d="M638.567 149.062L634.418 148.449L630.203 147.668C629.711 147.575 629.776 147.323 630.203 147.118L634.385 147.739C633.958 147.941 633.893 148.197 634.385 148.289L638.567 149.062Z" fill="black"/>
<path opacity="0.15" d="M637.96 151.486C637.96 151.641 638.059 151.746 638.37 151.788L634.172 151.166C634.007 151.131 633.885 151.084 633.821 151.031C633.757 150.978 633.754 150.921 633.811 150.868L634.811 148.739C634.853 148.689 634.848 148.637 634.797 148.587C634.745 148.537 634.649 148.491 634.516 148.453L638.665 149.066C638.799 149.104 638.896 149.149 638.948 149.198C638.999 149.247 639.003 149.298 638.961 149.348L637.96 151.486Z" fill="black"/>
<path d="M646.291 143.552L648.899 144.971C648.929 144.992 648.975 145.01 649.035 145.026C649.094 145.041 649.166 145.053 649.245 145.061C649.323 145.069 649.408 145.072 649.492 145.071C649.577 145.071 649.66 145.065 649.735 145.055L655.574 144.484C656.492 144.392 656.869 144.728 656.197 145.051L651.982 147.076C651.723 147.195 651.608 147.331 651.654 147.466L652.655 149.302C652.802 149.591 651.835 149.978 651.015 149.948L645.799 149.785C645.587 149.786 645.38 149.8 645.196 149.827C645.012 149.855 644.859 149.893 644.75 149.94L639.6 151.645C638.764 151.918 637.796 151.822 637.96 151.481L638.961 149.352C639.008 149.3 639.003 149.246 638.945 149.194C638.888 149.143 638.78 149.096 638.633 149.058L634.418 148.281C633.745 148.155 634.123 147.714 635.041 147.529L640.863 146.378C641.276 146.292 641.574 146.174 641.716 146.042L644.323 143.854C644.668 143.506 645.865 143.329 646.291 143.552Z" fill="#003249"/>
<path opacity="0.5" d="M646.291 143.552L648.899 144.971C648.929 144.992 648.975 145.01 649.035 145.026C649.094 145.041 649.166 145.053 649.245 145.061C649.323 145.069 649.408 145.072 649.492 145.071C649.577 145.071 649.66 145.065 649.735 145.055L655.574 144.484C656.492 144.392 656.869 144.728 656.197 145.051L651.982 147.076C651.723 147.195 651.608 147.331 651.654 147.466L652.655 149.302C652.802 149.591 651.835 149.978 651.015 149.948L645.799 149.785C645.587 149.786 645.38 149.8 645.196 149.827C645.012 149.855 644.859 149.893 644.75 149.94L639.6 151.645C638.764 151.918 637.796 151.822 637.96 151.481L638.961 149.352C639.008 149.3 639.003 149.246 638.945 149.194C638.888 149.143 638.78 149.096 638.633 149.058L634.418 148.281C633.745 148.155 634.123 147.714 635.041 147.529L640.863 146.378C641.276 146.292 641.574 146.174 641.716 146.042L644.323 143.854C644.668 143.506 645.865 143.329 646.291 143.552Z" fill="white"/>
<path d="M685.52 140.725C686.028 140.482 685.93 140.234 685.52 140.167L681.354 139.549C681.263 139.537 681.162 139.531 681.059 139.531C680.956 139.531 680.855 139.537 680.764 139.549L676.943 139.927L675.663 139.238C675.612 139.204 675.512 139.176 675.385 139.159L671.203 138.537C670.678 138.461 669.809 138.634 669.464 138.919L666.742 141.12C666.593 141.251 666.296 141.368 665.889 141.456L660.067 142.607C659.132 142.792 658.771 143.237 659.427 143.359L663.659 144.14C663.803 144.178 663.908 144.225 663.962 144.277C664.017 144.328 664.02 144.382 663.97 144.434L662.986 146.563C662.904 146.719 663.068 146.824 663.347 146.861L667.48 147.462C667.808 147.508 668.283 147.462 668.743 147.323L673.958 145.618C674.067 145.572 674.22 145.533 674.404 145.506C674.588 145.479 674.795 145.464 675.007 145.463L680.223 145.627C681.043 145.652 682.01 145.27 681.863 144.98L680.879 143.144C680.825 143.009 680.94 142.872 681.207 142.754L685.52 140.725Z" fill="#003249"/>
<path opacity="0.15" d="M685.422 140.162C685.331 140.152 685.233 140.147 685.135 140.147C685.036 140.147 684.938 140.152 684.848 140.162L678.96 140.734C678.883 140.743 678.799 140.749 678.713 140.75C678.628 140.751 678.542 140.747 678.462 140.739C678.382 140.731 678.309 140.719 678.248 140.704C678.187 140.689 678.139 140.67 678.107 140.65L676.779 139.919L680.6 139.545C680.692 139.534 680.793 139.528 680.895 139.528C680.997 139.528 681.098 139.534 681.19 139.545L685.422 140.162Z" fill="white"/>
<path opacity="0.15" d="M670.924 141.721C670.778 141.852 670.481 141.969 670.071 142.057L664.2 143.22C663.932 143.273 663.718 143.343 663.577 143.422L659.428 142.8C659.589 142.723 659.806 142.655 660.067 142.598L665.889 141.448C666.297 141.36 666.593 141.243 666.742 141.112L670.924 141.721Z" fill="white"/>
<path opacity="0.1" d="M675.303 139.154C674.778 139.066 673.893 139.238 673.532 139.532L670.924 141.721L666.742 141.12L669.35 138.932C669.694 138.646 670.563 138.474 671.088 138.55C671.203 138.55 674.745 139.096 675.27 139.167L675.303 139.154Z" fill="black"/>
<path opacity="0.25" d="M667.841 144.736L663.691 144.127L659.477 143.346C659.001 143.254 659.067 143.002 659.477 142.796L663.675 143.418C663.249 143.619 663.183 143.875 663.675 143.963L667.841 144.736Z" fill="black"/>
<path opacity="0.15" d="M667.168 147.16C667.086 147.319 667.267 147.424 667.562 147.466L663.38 146.845C663.101 146.803 662.937 146.702 663.019 146.546L664.02 144.417C664.057 144.367 664.05 144.315 663.999 144.266C663.948 144.216 663.854 144.17 663.724 144.131L667.874 144.74C668.008 144.778 668.105 144.823 668.156 144.872C668.207 144.921 668.212 144.972 668.169 145.022L667.168 147.16Z" fill="black"/>
<path d="M675.549 139.23L678.157 140.65C678.188 140.67 678.236 140.688 678.297 140.704C678.358 140.719 678.431 140.731 678.511 140.739C678.591 140.747 678.677 140.751 678.763 140.75C678.848 140.749 678.932 140.743 679.009 140.734L684.848 140.162C685.766 140.07 686.143 140.406 685.471 140.725L681.256 142.754C680.99 142.872 680.875 143.009 680.928 143.144L681.912 144.98C682.076 145.27 681.108 145.652 680.272 145.627L675.057 145.463C674.845 145.464 674.637 145.478 674.453 145.506C674.27 145.533 674.116 145.571 674.007 145.618L668.792 147.323C667.956 147.596 666.988 147.5 667.152 147.16L668.152 145.03C668.197 144.978 668.19 144.924 668.133 144.873C668.075 144.821 667.97 144.774 667.824 144.736L663.61 143.959C662.937 143.833 663.298 143.392 664.233 143.207L670.055 142.057C670.468 141.97 670.765 141.852 670.908 141.721L673.515 139.532C673.942 139.184 675.139 139.02 675.549 139.23Z" fill="#003249"/>
<path opacity="0.5" d="M675.549 139.23L678.157 140.65C678.188 140.67 678.236 140.688 678.297 140.704C678.358 140.719 678.431 140.731 678.511 140.739C678.591 140.747 678.677 140.751 678.763 140.75C678.848 140.749 678.932 140.743 679.009 140.734L684.848 140.162C685.766 140.07 686.143 140.406 685.471 140.725L681.256 142.754C680.99 142.872 680.875 143.009 680.928 143.144L681.912 144.98C682.076 145.27 681.108 145.652 680.272 145.627L675.057 145.463C674.845 145.464 674.637 145.478 674.453 145.506C674.27 145.533 674.116 145.571 674.007 145.618L668.792 147.323C667.956 147.596 666.988 147.5 667.152 147.16L668.152 145.03C668.197 144.978 668.19 144.924 668.133 144.873C668.075 144.821 667.97 144.774 667.824 144.736L663.61 143.959C662.937 143.833 663.298 143.392 664.233 143.207L670.055 142.057C670.468 141.97 670.765 141.852 670.908 141.721L673.515 139.532C673.942 139.184 675.139 139.02 675.549 139.23Z" fill="white"/>
<path d="M714.745 136.403C715.237 136.16 715.155 135.912 714.745 135.845L710.513 135.24C710.421 135.229 710.32 135.224 710.218 135.224C710.117 135.224 710.016 135.229 709.923 135.24L706.085 135.618L704.823 134.929C704.771 134.895 704.672 134.866 704.544 134.849L700.362 134.228C699.837 134.152 698.951 134.324 698.623 134.61L696.016 136.798C695.867 136.929 695.57 137.046 695.163 137.134L689.325 138.285C688.406 138.47 688.029 138.911 688.701 139.037L692.916 139.818C693.068 139.855 693.178 139.902 693.236 139.954C693.294 140.005 693.297 140.06 693.244 140.112L692.244 142.241C692.244 142.397 692.342 142.498 692.621 142.54L696.803 143.161C697.147 143.207 697.623 143.161 698.082 143.023L703.281 141.317C703.391 141.27 703.547 141.231 703.734 141.204C703.921 141.177 704.132 141.162 704.347 141.162L709.546 141.326C710.382 141.351 711.35 140.969 711.186 140.679L710.202 138.844C710.15 138.708 710.259 138.572 710.513 138.453L714.745 136.403Z" fill="#003249"/>
<path opacity="0.15" d="M714.695 135.841C714.602 135.83 714.502 135.825 714.4 135.825C714.299 135.825 714.198 135.83 714.105 135.841L708.283 136.412C708.206 136.422 708.122 136.427 708.036 136.428C707.951 136.429 707.865 136.425 707.785 136.417C707.705 136.41 707.632 136.398 707.571 136.382C707.51 136.367 707.462 136.348 707.43 136.328L706.085 135.597L709.923 135.223C710.012 135.212 710.11 135.206 710.21 135.206C710.31 135.206 710.408 135.212 710.497 135.223L714.695 135.841Z" fill="white"/>
<path opacity="0.15" d="M700.28 137.395C700.131 137.527 699.835 137.645 699.427 137.735L693.605 138.885C693.337 138.94 693.118 139.009 692.966 139.087L688.784 138.465C688.945 138.389 689.162 138.32 689.423 138.264L695.245 137.113C695.653 137.025 695.949 136.908 696.098 136.777L700.28 137.395Z" fill="white"/>
<path opacity="0.1" d="M704.577 134.82C704.052 134.732 703.15 134.904 702.806 135.194L700.28 137.395L696.098 136.777L698.706 134.589C699.05 134.303 699.919 134.131 700.444 134.207C700.559 134.207 704.085 134.753 704.626 134.824L704.577 134.82Z" fill="black"/>
<path opacity="0.25" d="M697.099 140.414L692.966 139.805L688.702 139.02C688.226 138.928 688.275 138.676 688.702 138.47L692.884 139.091C692.474 139.293 692.408 139.549 692.884 139.637L697.099 140.414Z" fill="black"/>
<path opacity="0.15" d="M696.442 142.838C696.36 142.997 696.541 143.102 696.836 143.144L692.654 142.523C692.375 142.481 692.211 142.38 692.277 142.225L693.277 140.091C693.319 140.042 693.316 139.991 693.268 139.942C693.219 139.893 693.127 139.848 692.998 139.81L697.131 140.419C697.26 140.457 697.353 140.502 697.404 140.551C697.455 140.599 697.463 140.65 697.426 140.7L696.442 142.838Z" fill="black"/>
<path d="M704.823 134.908L707.43 136.328C707.462 136.348 707.51 136.367 707.571 136.382C707.632 136.398 707.705 136.41 707.785 136.418C707.865 136.425 707.951 136.429 708.036 136.428C708.122 136.427 708.206 136.422 708.283 136.412L714.105 135.841C715.04 135.748 715.401 136.084 714.745 136.404L710.513 138.432C710.259 138.551 710.15 138.687 710.202 138.823L711.186 140.658C711.35 140.948 710.382 141.33 709.546 141.305L704.347 141.141C704.132 141.141 703.921 141.156 703.734 141.183C703.547 141.21 703.391 141.249 703.281 141.297L698.082 143.002C697.246 143.275 696.278 143.178 696.442 142.838L697.426 140.709C697.476 140.657 697.473 140.603 697.418 140.551C697.364 140.5 697.259 140.453 697.115 140.415L692.883 139.633C692.227 139.512 692.588 139.066 693.523 138.886L699.345 137.735C699.752 137.647 700.049 137.53 700.198 137.399L702.805 135.211C703.215 134.862 704.413 134.686 704.823 134.908Z" fill="#003249"/>
<path opacity="0.5" d="M704.823 134.908L707.43 136.328C707.462 136.348 707.51 136.367 707.571 136.382C707.632 136.398 707.705 136.41 707.785 136.418C707.865 136.425 707.951 136.429 708.036 136.428C708.122 136.427 708.206 136.422 708.283 136.412L714.105 135.841C715.04 135.748 715.401 136.084 714.745 136.404L710.513 138.432C710.259 138.551 710.15 138.687 710.202 138.823L711.186 140.658C711.35 140.948 710.382 141.33 709.546 141.305L704.347 141.141C704.132 141.141 703.921 141.156 703.734 141.183C703.547 141.21 703.391 141.249 703.281 141.297L698.082 143.002C697.246 143.275 696.278 143.178 696.442 142.838L697.426 140.709C697.476 140.657 697.473 140.603 697.418 140.551C697.364 140.5 697.259 140.453 697.115 140.415L692.883 139.633C692.227 139.512 692.588 139.066 693.523 138.886L699.345 137.735C699.752 137.647 700.049 137.53 700.198 137.399L702.805 135.211C703.215 134.862 704.413 134.686 704.823 134.908Z" fill="white"/>
<path d="M744.002 132.082C744.511 131.838 744.429 131.59 744.002 131.523L739.837 130.901C739.744 130.891 739.643 130.885 739.541 130.885C739.44 130.885 739.339 130.891 739.246 130.901L735.409 131.279L734.146 130.591C734.09 130.556 733.993 130.526 733.867 130.507C733.342 130.435 729.8 129.906 729.685 129.889C729.16 129.814 728.275 129.986 727.93 130.271L725.323 132.46C725.18 132.59 724.889 132.707 724.486 132.796L718.648 133.946C717.73 134.131 717.352 134.572 718.025 134.698L722.24 135.479C722.388 135.516 722.497 135.562 722.555 135.613C722.612 135.664 722.617 135.718 722.567 135.769L721.567 137.899C721.567 138.054 721.665 138.159 721.944 138.201L726.126 138.823C726.454 138.869 726.946 138.823 727.389 138.684L732.604 136.979C732.713 136.932 732.867 136.893 733.05 136.866C733.234 136.839 733.442 136.824 733.654 136.823L738.869 136.987C739.705 137.012 740.673 136.63 740.509 136.34L739.509 134.505C739.47 134.369 739.584 134.234 739.837 134.114L744.002 132.082Z" fill="#003249"/>
<path opacity="0.15" d="M743.953 131.519C743.863 131.508 743.765 131.503 743.666 131.503C743.567 131.503 743.469 131.508 743.379 131.519L737.541 132.09C737.465 132.1 737.382 132.105 737.297 132.106C737.213 132.107 737.129 132.103 737.05 132.095C736.971 132.087 736.9 132.075 736.84 132.06C736.781 132.045 736.734 132.026 736.704 132.006L735.359 131.275L739.197 130.901C739.285 130.889 739.384 130.882 739.484 130.882C739.584 130.882 739.683 130.889 739.771 130.901L743.953 131.519Z" fill="white"/>
<path opacity="0.15" d="M729.472 133.073C729.323 133.205 729.027 133.323 728.619 133.413L722.797 134.564C722.529 134.618 722.31 134.687 722.158 134.765L717.976 134.144C718.131 134.067 718.343 133.998 718.599 133.942L724.421 132.791C724.839 132.705 725.142 132.588 725.29 132.455L729.472 133.073Z" fill="white"/>
<path opacity="0.1" d="M733.851 130.511C733.326 130.423 732.424 130.595 732.08 130.885L729.472 133.073L725.29 132.455L727.898 130.267C728.226 129.982 729.111 129.809 729.636 129.885C729.751 129.885 733.277 130.431 733.818 130.502L733.851 130.511Z" fill="black"/>
<path opacity="0.25" d="M726.373 136.08L722.24 135.471L718.025 134.69C717.533 134.597 717.599 134.345 718.025 134.14L722.207 134.761C721.781 134.963 721.731 135.219 722.207 135.307L726.373 136.08Z" fill="black"/>
<path opacity="0.15" d="M725.7 138.516C725.7 138.676 725.815 138.781 726.11 138.823L721.895 138.18C721.616 138.138 721.452 138.037 721.518 137.882L722.518 135.748C722.557 135.699 722.552 135.648 722.504 135.599C722.455 135.551 722.365 135.505 722.239 135.467L726.372 136.076C726.501 136.114 726.593 136.159 726.642 136.208C726.69 136.257 726.693 136.308 726.651 136.357L725.7 138.516Z" fill="black"/>
<path d="M734.097 130.586L736.704 132.006C736.736 132.026 736.784 132.045 736.845 132.06C736.906 132.076 736.979 132.088 737.059 132.096C737.139 132.104 737.225 132.107 737.31 132.106C737.396 132.105 737.48 132.1 737.557 132.09L743.379 131.519C744.314 131.426 744.675 131.762 744.002 132.082L739.788 134.11C739.534 134.23 739.421 134.365 739.46 134.501L740.46 136.336C740.624 136.626 739.656 137.008 738.82 136.983L733.605 136.819C733.393 136.82 733.185 136.835 733.001 136.862C732.818 136.889 732.664 136.928 732.555 136.975L727.34 138.68C726.52 138.953 725.552 138.856 725.7 138.516L726.7 136.387C726.753 136.335 726.75 136.28 726.692 136.228C726.634 136.177 726.524 136.13 726.372 136.093L722.158 135.311C721.485 135.19 721.862 134.744 722.781 134.564L728.619 133.413C729.024 133.324 729.32 133.208 729.472 133.077L732.08 130.885C732.49 130.54 733.687 130.364 734.097 130.586Z" fill="#003249"/>
<path opacity="0.5" d="M734.097 130.586L736.704 132.006C736.736 132.026 736.784 132.045 736.845 132.06C736.906 132.076 736.979 132.088 737.059 132.096C737.139 132.104 737.225 132.107 737.31 132.106C737.396 132.105 737.48 132.1 737.557 132.09L743.379 131.519C744.314 131.426 744.675 131.762 744.002 132.082L739.788 134.11C739.534 134.23 739.421 134.365 739.46 134.501L740.46 136.336C740.624 136.626 739.656 137.008 738.82 136.983L733.605 136.819C733.393 136.82 733.185 136.835 733.001 136.862C732.818 136.889 732.664 136.928 732.555 136.975L727.34 138.68C726.52 138.953 725.552 138.856 725.7 138.516L726.7 136.387C726.753 136.335 726.75 136.28 726.692 136.228C726.634 136.177 726.524 136.13 726.372 136.093L722.158 135.311C721.485 135.19 721.862 134.744 722.781 134.564L728.619 133.413C729.024 133.324 729.32 133.208 729.472 133.077L732.08 130.885C732.49 130.54 733.687 130.364 734.097 130.586Z" fill="white"/>
<path d="M773.276 127.76C773.785 127.516 773.703 127.268 773.276 127.197L769.094 126.58C769.004 126.569 768.906 126.564 768.807 126.564C768.708 126.564 768.61 126.569 768.52 126.58L764.683 126.958L763.42 126.269C763.353 126.236 763.258 126.207 763.141 126.185C762.6 126.113 759.057 125.584 758.959 125.567C758.418 125.492 757.549 125.66 757.204 125.95L754.597 128.138C754.454 128.27 754.157 128.387 753.744 128.474L747.84 129.62C746.905 129.805 746.544 130.246 747.217 130.372L751.431 131.153C751.58 131.19 751.689 131.236 751.747 131.287C751.804 131.338 751.809 131.392 751.759 131.443L750.792 133.56C750.792 133.715 750.89 133.82 751.169 133.862L755.351 134.484C755.679 134.53 756.171 134.484 756.614 134.345L761.829 132.64C761.938 132.594 762.091 132.555 762.275 132.528C762.459 132.5 762.667 132.486 762.879 132.485L768.094 132.649C768.914 132.674 769.881 132.292 769.734 132.002L768.733 130.166C768.687 130.031 768.801 129.895 769.061 129.776L773.276 127.76Z" fill="#003249"/>
<path opacity="0.15" d="M773.227 127.197C773.138 127.185 773.04 127.179 772.94 127.179C772.841 127.179 772.742 127.185 772.653 127.197L766.815 127.768C766.739 127.778 766.656 127.783 766.572 127.784C766.487 127.785 766.403 127.781 766.324 127.774C766.245 127.766 766.174 127.754 766.114 127.738C766.055 127.723 766.009 127.704 765.979 127.684L764.634 126.953L768.471 126.575C768.56 126.564 768.659 126.557 768.758 126.557C768.858 126.557 768.957 126.564 769.045 126.575L773.227 127.197Z" fill="white"/>
<path opacity="0.15" d="M758.746 128.751C758.592 128.884 758.29 129.002 757.877 129.091L752.055 130.242C751.791 130.297 751.579 130.365 751.431 130.444L747.25 129.822C747.4 129.744 747.612 129.676 747.873 129.62L753.695 128.47C754.107 128.383 754.405 128.265 754.547 128.134L758.746 128.751Z" fill="white"/>
<path opacity="0.1" d="M763.125 126.185C762.6 126.101 761.698 126.273 761.353 126.563L758.746 128.751L754.547 128.134L757.155 125.945C757.499 125.66 758.385 125.488 758.91 125.563C759.025 125.563 762.551 126.109 763.092 126.181L763.125 126.185Z" fill="black"/>
<path opacity="0.25" d="M755.646 131.771L751.497 131.162L747.282 130.381C746.79 130.288 746.856 130.036 747.282 129.83L751.464 130.452C751.038 130.654 750.972 130.91 751.464 130.998L755.646 131.771Z" fill="black"/>
<path opacity="0.15" d="M754.974 134.194C754.974 134.354 755.073 134.459 755.384 134.497L751.12 133.875C750.841 133.833 750.677 133.732 750.743 133.573L751.743 131.443C751.784 131.394 751.778 131.342 751.726 131.294C751.675 131.245 751.58 131.2 751.448 131.162L755.597 131.771C755.727 131.809 755.82 131.854 755.869 131.903C755.917 131.952 755.92 132.003 755.876 132.052L754.974 134.194Z" fill="black"/>
<path d="M763.371 126.265L765.978 127.684C766.01 127.705 766.058 127.723 766.119 127.738C766.18 127.754 766.253 127.766 766.333 127.774C766.413 127.782 766.499 127.785 766.584 127.784C766.67 127.783 766.754 127.778 766.831 127.768L772.653 127.197C773.571 127.105 773.949 127.441 773.276 127.76L769.061 129.78C768.801 129.899 768.687 130.035 768.733 130.171L769.734 132.006C769.881 132.296 768.914 132.678 768.094 132.653L762.879 132.489C762.667 132.49 762.459 132.505 762.275 132.532C762.091 132.559 761.938 132.598 761.829 132.644L756.614 134.35C755.794 134.623 754.826 134.522 754.974 134.186L755.974 132.056C756.022 132.004 756.016 131.95 755.959 131.898C755.901 131.847 755.794 131.8 755.646 131.762L751.431 130.981C750.759 130.859 751.136 130.414 752.055 130.234L757.893 129.083C758.289 128.993 758.578 128.877 758.729 128.747L761.337 126.554C761.763 126.218 762.961 126.038 763.371 126.265Z" fill="#003249"/>
<path opacity="0.5" d="M763.371 126.265L765.978 127.684C766.01 127.705 766.058 127.723 766.119 127.738C766.18 127.754 766.253 127.766 766.333 127.774C766.413 127.782 766.499 127.785 766.584 127.784C766.67 127.783 766.754 127.778 766.831 127.768L772.653 127.197C773.571 127.105 773.949 127.441 773.276 127.76L769.061 129.78C768.801 129.899 768.687 130.035 768.733 130.171L769.734 132.006C769.881 132.296 768.914 132.678 768.094 132.653L762.879 132.489C762.667 132.49 762.459 132.505 762.275 132.532C762.091 132.559 761.938 132.598 761.829 132.644L756.614 134.35C755.794 134.623 754.826 134.522 754.974 134.186L755.974 132.056C756.022 132.004 756.016 131.95 755.959 131.898C755.901 131.847 755.794 131.8 755.646 131.762L751.431 130.981C750.759 130.859 751.136 130.414 752.055 130.234L757.893 129.083C758.289 128.993 758.578 128.877 758.729 128.747L761.337 126.554C761.763 126.218 762.961 126.038 763.371 126.265Z" fill="white"/>
<path d="M784.445 23.9401L771.325 25.3807L768.52 28.9633C768.44 29.0617 768.254 29.1525 767.984 29.2255C767.714 29.2984 767.37 29.3507 766.99 29.3764C766.611 29.4021 766.211 29.4003 765.835 29.3711C765.459 29.3419 765.123 29.2865 764.863 29.2111L755.466 26.4601L741.28 26.8801C740.873 26.8959 740.458 26.8807 740.085 26.8366C739.712 26.7925 739.398 26.7213 739.181 26.6318C738.965 26.5424 738.856 26.4387 738.867 26.3335C738.879 26.2283 739.01 26.1263 739.246 26.0401L746.544 22.9027L740.607 19.5805C740.463 19.4913 740.415 19.3938 740.468 19.2982C740.522 19.2026 740.675 19.1124 740.912 19.0372C741.148 18.962 741.46 18.9045 741.813 18.8708C742.166 18.8371 742.549 18.8283 742.92 18.8455L756.827 19.6561L767.323 17.1823C767.611 17.1133 767.969 17.0665 768.357 17.0472C768.744 17.0279 769.145 17.037 769.513 17.0734C769.881 17.1098 770.201 17.172 770.438 17.253C770.674 17.3339 770.817 17.4302 770.849 17.5309L772.145 21.1681L784.576 22.9573C784.942 23.0027 785.249 23.0743 785.459 23.1635C785.669 23.2526 785.774 23.3555 785.76 23.4596C785.746 23.5638 785.614 23.6646 785.381 23.7499C785.147 23.8352 784.822 23.9013 784.445 23.9401Z" fill="#E0E0E0"/>
<path d="M712.137 17.7156C712.022 17.7544 711.883 17.7884 711.727 17.8164C711.449 17.8677 711.12 17.8981 710.778 17.904C710.436 17.9099 710.095 17.8912 709.792 17.85L702.494 16.8672L695.18 17.85C694.877 17.8912 694.535 17.9099 694.193 17.904C693.851 17.8981 693.523 17.8677 693.244 17.8164C692.963 17.7655 692.745 17.6947 692.617 17.6127C692.489 17.5308 692.456 17.4411 692.523 17.3544L693.917 15.2544L687.997 13.7802C687.75 13.719 687.576 13.6412 687.495 13.5557C687.413 13.4703 687.428 13.3807 687.537 13.2972C687.64 13.2137 687.833 13.1393 688.094 13.0828C688.356 13.0263 688.674 12.9899 689.013 12.978L697.213 12.6756L700.87 10.7772C701.021 10.6988 701.255 10.6329 701.545 10.5868C701.835 10.5408 702.169 10.5165 702.51 10.5168C702.851 10.5175 703.184 10.5421 703.473 10.5881C703.763 10.634 703.997 10.6995 704.15 10.7772L707.808 12.6756L716.008 12.978C716.347 12.9907 716.665 13.0274 716.927 13.084C717.189 13.1406 717.383 13.2148 717.489 13.2983C717.595 13.3817 717.607 13.4711 717.525 13.5562C717.443 13.6414 717.27 13.719 717.024 13.7802L711.104 15.2544L712.514 17.3544C712.578 17.4828 712.442 17.6125 712.137 17.7156ZM688.8 13.3518L688.702 13.4064C688.661 13.4378 688.656 13.4715 688.688 13.5035C688.72 13.5356 688.787 13.5646 688.882 13.587L695.213 15.1704L693.72 17.4048C693.7 17.4377 693.716 17.4714 693.765 17.5022C693.815 17.5329 693.897 17.5595 694.002 17.5791C694.108 17.5987 694.232 17.6104 694.362 17.613C694.491 17.6156 694.621 17.609 694.737 17.5938L702.576 16.5396L710.399 17.5938C710.511 17.6104 710.638 17.6192 710.768 17.6192C710.897 17.6192 711.025 17.6104 711.137 17.5938C711.246 17.5747 711.33 17.5478 711.38 17.5164C711.43 17.485 711.442 17.4506 711.416 17.4174L709.923 15.183L716.254 13.5996C716.345 13.5766 716.41 13.5476 716.442 13.5158C716.474 13.4839 716.471 13.4505 716.434 13.419C716.397 13.3871 716.325 13.3586 716.226 13.337C716.127 13.3154 716.006 13.3016 715.877 13.2972L707.103 12.9696L703.101 10.92C703.047 10.8895 702.959 10.8637 702.848 10.8458C702.737 10.8279 702.609 10.8187 702.478 10.8192C702.359 10.8226 702.246 10.8336 702.148 10.8512C702.051 10.8689 701.972 10.8925 701.92 10.92L698.017 12.9528L689.243 13.2804C689.066 13.2896 688.909 13.315 688.8 13.3518Z" fill="#E0E0E0"/>
<path d="M620.806 45.7801C608.456 43.9489 591.482 44.1967 572.721 46.9687C535.001 52.5547 504.349 66.2341 504.349 77.5279C504.349 83.2105 512.123 87.1879 524.636 89.0485C527.539 89.4685 538.888 91.1485 538.888 91.1485C538.356 92.4266 536.632 93.6533 533.86 94.7249C531.089 95.7965 527.351 96.6817 522.963 97.3057C522.242 97.4107 522.684 97.5913 523.324 97.6837L540.659 100.25C540.893 100.286 541.158 100.306 541.43 100.309C558.502 100.309 578.264 97.3687 583.774 91.2619C585.841 91.0099 587.924 90.7369 590.039 90.4219C627.759 84.8401 658.411 71.1565 658.411 59.8669C658.411 54.1801 650.653 50.2069 638.14 48.3337L620.806 45.7801Z" fill="#37474F"/>
<path d="M590.039 49.5308C552.319 55.1126 521.667 68.7962 521.667 80.0858C521.667 87.7508 535.755 92.3372 556.616 92.7572C555.829 95.1932 553.057 97.9316 540.216 99.8678C539.199 100.023 540.527 100.313 541.38 100.313C558.453 100.313 578.215 97.373 583.725 91.2662C585.791 91.0142 587.874 90.7412 589.99 90.4262C627.71 84.8444 658.361 71.1608 658.361 59.8712C658.361 48.5816 627.792 43.949 590.039 49.5308Z" fill="#455A64"/>
<path d="M540.265 99.8677C539.642 99.9685 539.921 100.116 540.446 100.216L523.324 97.6963C522.684 97.5955 522.242 97.4233 522.963 97.3141C527.36 96.6888 531.104 95.8011 533.876 94.7263C536.648 93.6515 538.367 92.4213 538.888 91.1401L540.774 91.4257L542.512 91.6861C546.856 92.2978 551.67 92.659 556.616 92.7445C555.845 95.1931 553.057 97.9315 540.265 99.8677Z" fill="#263238"/>
<path d="M582.823 81.8538C581.003 81.522 580.084 80.9256 580.084 80.0646C580.124 79.1676 581.049 78.2877 582.774 77.5068C584.34 76.7264 586.726 76.0733 589.662 75.621C592.45 75.2094 594.741 75.1604 596.534 75.474C598.321 75.7848 599.223 76.3728 599.223 77.2338C599.17 78.1466 598.229 79.0417 596.484 79.8378C594.956 80.6262 592.592 81.2885 589.662 81.7488C586.94 82.1478 584.66 82.1856 582.823 81.8538ZM580.38 59.0226L598.928 56.28L595.828 72.2904L583.479 74.1174L580.38 59.0226Z" fill="#FAFAFA"/>
<path opacity="0.2" d="M599.158 88.8931C619.297 85.1131 636.665 79.1197 647.292 72.6853C627.153 76.4695 609.785 82.4587 599.158 88.8931Z" fill="black"/>
<path d="M727.93 110.775C720.944 110.796 715.745 109.544 712.481 107.969C733.408 101.38 747.561 92.6016 747.561 84.924C747.561 79.233 739.771 75.2346 727.225 73.3866L709.923 70.833C697.574 69.006 680.616 69.258 661.871 72.0258C624.151 77.6118 593.5 91.2912 593.5 102.585C593.5 108.268 601.257 112.245 613.77 114.114C616.689 114.534 628.185 116.239 631.023 116.663C643.388 118.507 660.395 118.264 679.19 115.483C684.222 114.733 689.001 113.876 693.474 112.921C706.167 115.496 721.649 112.69 727.783 111.346C728.603 111.17 728.701 110.775 727.93 110.775Z" fill="#E0E0E0"/>
<path d="M648.931 117.6C626.07 117.6 611.884 112.833 611.884 105.164C611.884 93.9749 642.322 80.3837 679.714 74.8439C690.177 73.2983 700.181 72.5129 709.447 72.5129C732.293 72.5129 746.495 77.2757 746.495 84.9491C746.495 92.2865 733.145 101.052 711.661 107.818L711.219 107.961L711.547 108.121C715.401 109.981 720.993 111.023 727.323 111.061C727.279 111.096 727.2 111.128 727.094 111.153C722.731 112.111 714.072 113.711 705.101 113.711C701.107 113.715 697.229 113.365 694.13 112.72L693.457 112.585L692.785 112.724C688.353 113.662 683.624 114.505 678.648 115.244C668.201 116.794 658.197 117.6 648.931 117.6Z" fill="#FAFAFA"/>
<path d="M709.448 72.24V72.786C731.637 72.786 745.429 77.448 745.429 84.945C745.429 92.2278 732.178 100.926 710.842 107.646L709.94 107.927L710.612 108.247C714.154 109.96 719.14 111.014 724.864 111.279C720.321 112.207 712.793 113.446 705.102 113.446C701.345 113.451 697.699 113.121 694.786 112.514L693.441 112.241L692.113 112.522C687.728 113.459 683.049 114.302 678.124 115.042C667.824 116.563 658.001 117.335 648.932 117.335C626.742 117.335 612.95 112.673 612.95 105.155C612.95 94.0548 643.142 80.5602 680.19 75.0708C690.489 73.5504 700.313 72.7776 709.382 72.7776V72.24M709.382 72.24C700.264 72.24 689.997 73.0002 679.124 74.6088C641.404 80.1906 610.752 93.87 610.752 105.164C610.752 113.207 626.283 117.873 648.866 117.873C657.984 117.873 668.251 117.113 679.124 115.504C684.157 114.754 688.935 113.897 693.408 112.942C696.689 113.628 700.801 114 705.036 113.992C714.417 113.992 723.388 112.312 727.717 111.367C728.537 111.191 728.636 110.796 727.865 110.796H727.701C720.813 110.796 715.663 109.557 712.416 107.99C733.342 101.401 747.496 92.6226 747.496 84.945C747.496 76.902 731.965 72.24 709.382 72.24Z" fill="#003249"/>
<path d="M675.68 96.9571C677.669 95.7348 679.953 94.5453 682.519 93.3955C684.286 92.6063 685.895 91.7947 687.34 90.9637C688.335 90.3937 688.865 89.7777 688.898 89.1535C688.898 88.3135 687.914 87.7969 685.946 87.5953C683.978 87.3937 681.387 87.5407 678.123 88.0153C674.897 88.5002 672.072 89.1423 669.809 89.9053C667.281 90.7505 665.218 91.6803 663.675 92.6689L651.621 92.0347C654.317 90.2106 658.138 88.5091 662.937 86.9947C667.633 85.5084 673.36 84.2569 679.829 83.3029C687.482 82.1829 693.611 81.8329 698.213 82.2529C702.816 82.6729 705.123 83.8741 705.134 85.8565C705.156 86.7514 704.704 87.6429 703.79 88.5067C702.981 89.2891 701.882 90.0499 700.51 90.7789C699.214 91.4593 697.525 92.2699 695.475 93.2107C693.487 94.0788 691.691 94.9748 690.096 95.8945C688.996 96.5585 688.438 97.2732 688.456 97.9945L673.417 100.22C673.356 99.1058 674.124 97.9983 675.68 96.9571ZM674.04 107.764C672.22 107.432 671.301 106.835 671.301 105.97C671.341 105.073 672.266 104.193 673.991 103.412C675.556 102.633 677.935 101.98 680.862 101.527C683.667 101.107 685.946 101.065 687.75 101.38C689.554 101.695 690.44 102.283 690.44 103.144C690.385 104.055 689.443 104.949 687.701 105.743C686.172 106.533 683.801 107.196 680.862 107.654C678.222 108.058 675.959 108.091 674.122 107.764H674.04Z" fill="#455A64"/>
<path d="M329.279 77.8259L253.839 89.0147L283.802 102.06C284.379 102.412 285.386 102.707 286.672 102.9C290.247 103.417 311.419 106.558 312.584 106.73C313.492 106.865 314.507 106.944 315.552 106.964C316.598 106.983 317.647 106.941 318.621 106.842C319.595 106.743 320.468 106.588 321.175 106.39C321.882 106.191 322.404 105.955 322.702 105.697L355.24 81.6815L329.279 77.8259Z" fill="#003249"/>
<path opacity="0.2" d="M329.279 77.8259L253.839 89.0147L283.802 102.06C284.379 102.412 285.386 102.707 286.672 102.9C290.247 103.417 311.419 106.558 312.584 106.73C313.492 106.865 314.507 106.944 315.552 106.964C316.598 106.983 317.647 106.941 318.621 106.842C319.595 106.743 320.468 106.588 321.175 106.39C321.882 106.191 322.404 105.955 322.702 105.697L355.24 81.6815L329.279 77.8259Z" fill="black"/>
<path d="M279.8 92.8536L309.763 105.899C310.336 106.23 311.292 106.508 312.502 106.696C313.713 106.884 315.119 106.971 316.531 106.948C317.943 106.924 319.292 106.789 320.396 106.563C321.5 106.336 322.305 106.028 322.703 105.68L355.24 81.6648L279.8 92.8536Z" fill="#003249"/>
<path d="M413.444 10.92L128.953 52.9746C127.046 53.2912 125.457 53.7187 124.317 54.2223C123.178 54.7259 122.518 55.2913 122.393 55.8726V106.436C122.514 107.016 123.172 107.579 124.313 108.08C125.454 108.581 127.044 109.005 128.953 109.318L152.356 112.678C154.391 112.94 156.638 113.076 158.916 113.076C161.194 113.076 163.441 112.94 165.476 112.678L449.983 70.5978C451.888 70.2804 453.474 69.8527 454.613 69.3492C455.753 68.8458 456.414 68.2807 456.543 67.6998V17.136C456.421 16.5568 455.762 15.9935 454.622 15.4925C453.481 14.9915 451.891 14.5672 449.983 14.2548L426.597 10.8948C424.549 10.6357 422.293 10.5031 420.009 10.5074C417.725 10.5118 415.476 10.6531 413.444 10.92Z" fill="#003249"/>
<path opacity="0.3" d="M456.428 16.8294C455.903 15.9894 453.23 15.687 449.967 16.1658L165.492 58.233C163.554 58.5431 161.965 58.9774 160.884 59.493L124.459 54.18C125.553 53.6952 127.096 53.2869 128.953 52.9914L413.46 10.92C415.497 10.6587 417.743 10.5227 420.02 10.5227C422.298 10.5227 424.544 10.6587 426.58 10.92L449.967 14.28C451.689 14.5632 453.155 14.9369 454.269 15.3765C455.384 15.8161 456.119 16.3114 456.428 16.8294Z" fill="white"/>
<path d="M158.949 111.888V61.32C159.074 60.7394 159.733 60.1745 160.873 59.6716C162.013 59.1687 163.602 58.742 165.509 58.4262L449.983 16.38C453.575 15.8466 456.543 16.2792 456.543 17.346V67.893C456.414 68.474 455.753 69.0391 454.614 69.5425C453.474 70.046 451.888 70.4737 449.983 70.791L165.476 112.854C161.868 113.4 158.949 112.955 158.949 111.888Z" fill="#003249"/>
<path opacity="0.2" d="M165.476 112.661C163.433 112.916 161.19 113.049 158.916 113.049C156.642 113.049 154.399 112.916 152.356 112.661L128.97 109.301C127.063 108.99 125.472 108.567 124.331 108.068C123.19 107.568 122.532 107.006 122.41 106.428V55.8599C122.526 55.2633 123.244 54.6845 124.492 54.1799L160.884 59.4845C159.685 59.9786 159.017 60.5452 158.949 61.1267V111.691C158.949 112.669 161.638 113.232 165.476 112.661Z" fill="black"/>
<path d="M238.767 71.4L235.93 70.98C234.844 70.8208 233.614 70.7371 232.363 70.7371C231.112 70.7371 229.882 70.8208 228.796 70.98L211.461 73.542V67.4772L243.556 62.7354C245.058 62.5083 246.303 62.1846 247.166 61.7963C248.029 61.4081 248.481 60.9687 248.476 60.522V57.12C248.481 56.6732 248.029 56.2339 247.166 55.8456C246.303 55.4573 245.058 55.1336 243.556 54.9066C242.038 54.6817 240.316 54.5632 238.562 54.5632C236.809 54.5632 235.086 54.6817 233.568 54.9066L189.059 61.488C186.424 61.8771 184.236 62.4372 182.716 63.1119C181.195 63.7866 180.396 64.552 180.4 65.331V96.9108C180.392 97.3582 180.842 97.7984 181.705 98.1875C182.569 98.5766 183.815 98.901 185.32 99.1284C186.838 99.3524 188.56 99.4704 190.313 99.4704C192.066 99.4704 193.788 99.3524 195.307 99.1284L206.41 97.4904C207.915 97.263 209.161 96.9386 210.024 96.5495C210.887 96.1604 211.337 95.7202 211.33 95.2728V82.8828L238.652 78.8424C239.735 78.6813 240.633 78.4503 241.258 78.1724C241.882 77.8946 242.211 77.5796 242.211 77.259V72.9918C242.234 72.6723 241.927 72.357 241.322 72.0776C240.718 71.7982 239.837 71.5644 238.767 71.4Z" fill="#E0E0E0"/>
<path opacity="0.1" d="M196.324 98.9772L195.373 99.12C193.854 99.3436 192.133 99.4611 190.381 99.4608C188.629 99.4605 186.908 99.3424 185.39 99.1183C183.873 98.8942 182.611 98.572 181.733 98.1838C180.854 97.7957 180.389 97.3553 180.383 96.9066V65.3268C180.388 64.5934 181.103 63.8718 182.466 63.2268L192.454 64.701C191.085 65.3454 190.369 66.0674 190.371 66.801V98.0868C190.374 98.2651 190.558 98.4401 190.906 98.5946C191.254 98.749 191.753 98.8776 192.354 98.9675C192.956 99.0574 193.638 99.1056 194.334 99.1073C195.03 99.109 195.716 99.0642 196.324 98.9772Z" fill="black"/>
<path d="M211.461 67.4773V76.4989L238.734 72.4711C239.099 72.4161 239.515 72.3869 239.938 72.3865C240.362 72.3861 240.778 72.4144 241.145 72.4686C241.512 72.5229 241.816 72.601 242.026 72.6952C242.237 72.7893 242.346 72.8961 242.342 73.0045V77.2801C242.341 77.5991 242.014 77.9124 241.392 78.1888C240.771 78.4651 239.877 78.6949 238.8 78.8551L211.461 82.8955V95.2813C211.468 95.7276 211.017 96.1666 210.154 96.5543C209.29 96.9419 208.044 97.2648 206.541 97.4905L196.439 98.9857C195.832 99.0759 195.143 99.1235 194.442 99.1237C193.74 99.1238 193.051 99.0766 192.443 98.9867C191.836 98.8967 191.332 98.7674 190.983 98.6116C190.633 98.4558 190.45 98.2792 190.453 98.0995V66.8011C190.453 66.0223 191.253 65.2572 192.773 64.5827C194.293 63.9082 196.479 63.3479 199.112 62.9581L243.195 56.4397C243.744 56.3585 244.367 56.3158 245.001 56.3159C245.635 56.316 246.258 56.3589 246.806 56.4402C247.355 56.5215 247.811 56.6385 248.127 56.7792C248.443 56.92 248.608 57.0795 248.607 57.2419V60.5305C248.611 60.9756 248.159 61.4131 247.296 61.7993C246.432 62.1856 245.188 62.5069 243.687 62.7313L211.461 67.4773Z" fill="#FAFAFA"/>
<path d="M306.68 48.4007C306.174 47.9623 305.287 47.5589 304.085 47.2208C302.883 46.8828 301.398 46.619 299.74 46.4492C298.083 46.2794 296.296 46.2081 294.516 46.2406C292.735 46.273 291.006 46.4085 289.46 46.6367L278.422 48.2705C277.001 48.4804 275.766 48.764 274.797 49.1032C273.828 49.4424 273.147 49.8298 272.797 50.2403L239.882 88.6199C239.625 88.9434 239.769 89.2794 240.296 89.5808C240.822 89.8821 241.704 90.1336 242.818 90.2999L245.836 90.7451C246.77 90.8834 247.831 90.9562 248.911 90.9562C249.99 90.9562 251.051 90.8834 251.986 90.7451L265.286 88.7795C267.137 88.4892 268.645 88.0754 269.648 87.5825C270.77 87.0849 271.594 86.5469 272.092 85.9865L277.438 78.9893L304.334 75.0119L307.122 77.8553C307.517 78.2261 308.419 78.5481 309.664 78.7625C310.78 78.9305 318.537 80.0687 319.652 80.2409C320.372 80.3199 321.162 80.3476 321.939 80.3209C322.716 80.2943 323.45 80.2144 324.064 80.0897L340.3 77.6873L306.68 48.4007ZM284.818 69.3293L290.575 61.7399L290.919 61.3199L297.02 67.5233L284.818 69.3293Z" fill="#E0E0E0"/>
<path opacity="0.1" d="M319.521 80.22C318.061 79.9974 310.747 78.9264 309.681 78.7626C308.436 78.5482 307.534 78.2262 307.139 77.8554L304.351 75.012L311.797 73.9116L317.127 79.3296C317.52 79.6859 318.362 79.9989 319.521 80.22Z" fill="black"/>
<path opacity="0.1" d="M307.008 68.9976L297.02 67.5192L290.919 61.32C290.919 61.32 290.919 61.32 290.919 61.2948C291.444 60.69 291.969 60.0012 292.559 59.2368C293.265 58.2834 293.921 57.267 294.544 56.1792C295.255 57.0528 295.96 57.8578 296.659 58.5942C297.365 59.3292 298.021 59.9592 298.644 60.4884L307.008 68.9976Z" fill="black"/>
<path opacity="0.1" d="M250.05 89.8799C249.961 89.9807 249.976 90.0857 250.093 90.1846C250.21 90.2835 250.426 90.3729 250.719 90.444C251.011 90.5152 251.371 90.5656 251.763 90.5904C252.155 90.6152 252.565 90.6135 252.953 90.5855V90.6191L252.018 90.7535C251.083 90.8918 250.023 90.9645 248.943 90.9645C247.864 90.9645 246.803 90.8918 245.868 90.7535L242.818 90.2999C241.704 90.1336 240.822 89.8821 240.296 89.5808C239.769 89.2794 239.625 88.9434 239.882 88.6199L272.781 50.2571C273.083 49.9022 273.639 49.5647 274.421 49.2617L284.408 50.7401C283.617 51.0403 283.06 51.3769 282.768 51.7313L250.05 89.8799Z" fill="black"/>
<path d="M340.316 77.6999L324.064 80.1023C322.243 80.3711 320.784 80.4215 319.669 80.2535C318.425 80.0386 317.524 79.7168 317.127 79.3463L311.797 73.9199L277.357 78.9977L272.027 85.9949C271.513 86.5559 270.684 87.0949 269.567 87.5951C268.568 88.0879 267.059 88.5006 265.204 88.7879L253.445 90.5309C253.05 90.5885 252.598 90.6155 252.144 90.6088C251.689 90.6021 251.252 90.562 250.885 90.4933C250.518 90.4245 250.236 90.33 250.074 90.2212C249.911 90.1124 249.874 89.9939 249.969 89.8799L282.687 51.7187C283.039 51.3089 283.721 50.9224 284.689 50.5839C285.658 50.2455 286.892 49.9625 288.312 49.7531L298.923 48.1823C299.677 48.071 300.52 48.0049 301.389 47.9891C302.257 47.9732 303.128 48.0081 303.937 48.091C304.745 48.1739 305.47 48.3026 306.055 48.4676C306.641 48.6326 307.074 48.8294 307.319 49.0433L340.316 77.6999ZM307.008 69.0059L298.644 60.4799C298.021 59.9549 297.365 59.3207 296.659 58.5857C295.954 57.8507 295.249 57.0443 294.544 56.1707C293.937 57.2585 293.265 58.2707 292.576 59.2283C291.887 60.1859 291.198 61.0091 290.575 61.7231L282.277 72.6431L307.008 69.0059Z" fill="#FAFAFA"/>
<path d="M418.052 63C420.916 61.7391 423.431 60.4283 425.58 59.0772C427.798 57.6845 429.661 56.2563 431.156 54.8016C432.664 53.3317 433.814 51.8393 434.6 50.3328C435.404 48.8113 435.81 47.2777 435.813 45.7422C435.988 43.4848 434.861 41.2331 432.468 39.06C430.761 37.427 427.492 35.9286 422.956 34.7004C421.527 34.35 419.929 34.0479 418.2 33.8016L408.36 32.34C405.244 31.8776 401.74 31.6139 398.142 31.5714C392.37 31.4874 385.974 31.9648 378.954 33.0036C371.608 34.1084 365.098 35.5424 359.734 37.2372C353.818 39.0763 348.836 41.1 344.908 43.26C336.455 47.9186 332.046 52.9911 331.985 58.128C331.815 60.3887 332.953 62.6434 335.363 64.8186C337.065 66.4565 340.347 67.9586 344.908 69.1866C346.331 69.5478 347.936 69.8586 349.68 70.1106C351.32 70.3458 357.798 71.3118 359.406 71.5512C362.56 72.0188 366.112 72.2826 369.754 72.3198C375.527 72.3926 381.934 71.9096 388.975 70.8708C391.97 70.4279 394.817 69.9222 397.486 69.3588L401.554 70.5558C402.108 70.7015 402.737 70.8272 403.423 70.9296C404.571 71.1018 412.738 72.303 413.362 72.3996C414.457 72.572 415.737 72.6514 417.019 72.6264C419.394 72.5538 421.675 72.3457 423.694 72.0174L440.93 69.4722L418.052 63ZM402.669 52.458C401.624 53.9398 399.947 55.3877 397.667 56.7756C395.668 58.0056 392.989 59.1555 389.713 60.1902C386.72 61.1345 383.087 61.9327 378.987 62.5464C375.983 63.0448 372.524 63.3343 368.95 63.3864C367.153 62.6404 365.871 61.8206 365.162 60.963C363.901 59.479 363.317 57.9624 363.424 56.4438C363.393 54.762 363.975 53.0832 365.162 51.429C366.18 49.9481 367.83 48.5002 370.082 47.1114C372.1 45.8761 374.795 44.7207 378.085 43.68C381.098 42.7231 384.766 41.9147 388.909 41.2944C391.86 40.8113 395.251 40.5333 398.749 40.488C400.566 41.2405 401.864 42.0673 402.587 42.9324C403.873 44.4186 404.484 45.9379 404.407 47.46C404.427 49.1417 403.845 50.8203 402.669 52.4748V52.458Z" fill="#E0E0E0"/>
<path opacity="0.1" d="M358.996 71.505C356.913 71.1984 351.189 70.3458 349.68 70.1274C347.936 69.8754 346.331 69.5646 344.908 69.2034C340.347 67.9753 337.065 66.4733 335.363 64.8354C332.953 62.6602 331.815 60.4055 331.985 58.1448C331.984 55.5585 333.118 52.9804 335.363 50.4588C337.364 48.1624 340.265 45.9237 344.022 43.7766L354.01 45.255C346.122 49.7824 342.022 54.6824 341.972 59.64C341.801 61.8993 342.94 64.1527 345.351 66.3264C347.049 67.9659 350.332 69.4695 354.896 70.6986C356.143 71.0051 357.518 71.2755 358.996 71.505Z" fill="black"/>
<path opacity="0.1" d="M407.655 41.58C406.69 41.2704 405.485 41.0153 404.116 40.831C402.747 40.6466 401.244 40.537 399.701 40.509C399.422 40.509 399.127 40.509 398.848 40.509C400.656 41.2606 401.949 42.0859 402.669 42.9492C403.923 44.4308 404.506 45.9443 404.407 47.46C404.433 49.1501 403.851 50.8373 402.669 52.5C401.625 53.9818 399.947 55.4297 397.667 56.8176C395.668 58.0476 392.99 59.1975 389.713 60.2322C386.721 61.1765 383.087 61.9747 378.987 62.5884C375.983 63.0868 372.524 63.3763 368.951 63.4284C369.308 63.5759 369.708 63.7163 370.148 63.8484C371.11 64.1605 372.322 64.4161 373.703 64.5979C375.083 64.7798 376.6 64.8837 378.151 64.9026C382.001 64.8977 385.762 64.6058 388.975 64.0626C393.075 63.4489 396.708 62.6507 399.701 61.7064C402.97 60.6705 405.648 59.5208 407.655 58.2918C409.937 56.9027 411.614 55.4533 412.657 53.97C413.84 52.3073 414.422 50.6201 414.395 48.93C414.49 47.4185 413.907 45.9092 412.657 44.4318C411.875 43.3948 410.163 42.4185 407.655 41.58Z" fill="black"/>
<path opacity="0.1" d="M400.324 68.7456C399.389 68.964 398.454 69.1656 397.486 69.3756L401.554 70.5726C402.108 70.7183 402.737 70.844 403.423 70.9464C404.538 71.1144 412.23 72.2442 413.263 72.4038C412.627 72.304 412.043 72.184 411.525 72.0468L400.324 68.7456Z" fill="black"/>
<path d="M440.93 69.489L423.694 72.0384C421.675 72.3631 419.402 72.5696 417.035 72.6432C416.003 72.6563 414.973 72.6094 414.022 72.5061C413.07 72.4029 412.223 72.2458 411.541 72.0468L400.324 68.7456C396.856 69.5631 393.051 70.2813 388.975 70.8876C381.934 71.9264 375.527 72.4094 369.754 72.3366C364.164 72.284 358.858 71.693 354.896 70.6818C350.338 69.4516 347.056 67.9484 345.351 66.3096C342.954 64.1408 341.816 61.8936 341.973 59.64C342.034 54.5031 346.443 49.4306 354.896 44.772C358.83 42.6071 363.823 40.5791 369.754 38.7366C375.122 37.0427 381.632 35.6089 388.975 34.503C395.994 33.4614 402.39 32.984 408.163 33.0708C413.73 33.1389 418.995 33.7382 422.923 34.7508C427.468 35.9789 430.738 37.4793 432.435 39.1146C434.842 41.28 435.981 43.5248 435.813 45.7758C435.815 47.3111 435.416 48.8448 434.616 50.3664C433.815 51.8797 432.654 53.3791 431.14 54.8562C429.639 56.3095 427.771 57.7364 425.547 59.1276C423.406 60.4794 420.89 61.7903 418.019 63.0504L440.93 69.489ZM363.424 56.469C363.318 57.989 363.901 59.5069 365.162 60.9924C365.935 62.0238 367.618 62.9964 370.082 63.8358C371.051 64.146 372.265 64.4003 373.644 64.582C375.023 64.7637 376.537 64.8687 378.085 64.89C381.935 64.8846 385.696 64.5928 388.909 64.05C393.009 63.4363 396.643 62.6381 399.635 61.6938C402.91 60.658 405.593 59.5083 407.605 58.2792C409.86 56.8892 411.51 55.4399 412.525 53.9574C413.717 52.295 414.299 50.6076 414.264 48.9174C414.367 47.4058 413.784 45.8963 412.525 44.4192C411.757 43.3875 410.074 42.4147 407.605 41.5758C406.638 41.266 405.43 41.0109 404.058 40.8266C402.686 40.6423 401.18 40.5327 399.635 40.5048C395.828 40.4968 392.096 40.7774 388.909 41.3112C384.763 41.9286 381.094 42.7358 378.085 43.6926C374.801 44.7343 372.107 45.8895 370.082 47.124C367.838 48.5134 366.188 49.9611 365.162 51.4416C363.977 53.0944 363.395 54.7718 363.424 56.4522V56.469Z" fill="#FAFAFA"/>
</svg>
