<svg width="2385" height="790" viewBox="0 0 2385 790" fill="none" xmlns="http://www.w3.org/2000/svg">
<g clip-path="url(#clip0_9_2)">
<path d="M229.81 683.903L226.053 680.322C257.839 658.073 297.398 630.384 312.205 593.787C326.801 557.71 315.821 514.155 283.55 480.119C256.086 451.152 213.679 428.342 160.912 414.154C150.504 411.355 139.698 408.869 129.247 406.465C103.986 400.654 77.8651 394.643 54.7323 383.66C22.8713 368.532 -6.0682 338.817 1.10305 306.535C3.53754 296.205 9.46928 286.64 18.2248 278.925C26.9803 271.211 38.2088 265.656 50.6353 262.891L52.1713 267.438C40.7867 269.969 30.4988 275.056 22.475 282.122C14.4512 289.187 9.01281 297.948 6.77707 307.41C0.113181 337.409 27.5168 365.282 57.6347 379.583C80.1348 390.266 105.898 396.193 130.812 401.925C141.322 404.343 152.191 406.844 162.718 409.675C216.583 424.158 259.944 447.518 288.115 477.231C321.547 512.491 332.879 557.72 317.688 595.267C302.376 633.11 262.141 661.274 229.81 683.903Z" fill="#F1F1F1"/>
<path d="M92.8344 280.875C120.11 276.062 139.9 263.389 137.038 252.568C134.176 241.748 109.744 236.878 82.469 241.691C55.1937 246.504 35.4031 259.178 38.2654 269.998C41.1278 280.819 65.5591 285.688 92.8344 280.875Z" fill="#F1F1F1"/>
<path d="M166.488 402.981C193.763 398.168 213.554 385.494 210.692 374.674C207.829 363.853 183.398 358.983 156.123 363.796C128.848 368.61 109.057 381.283 111.919 392.104C114.782 402.924 139.213 407.794 166.488 402.981Z" fill="#F1F1F1"/>
<path d="M81.6693 439.661C108.945 434.848 128.735 422.175 125.873 411.354C123.011 400.534 98.5792 395.664 71.304 400.477C44.0287 405.29 24.2381 417.964 27.1004 428.784C29.9627 439.605 54.3941 444.474 81.6693 439.661Z" fill="#F1F1F1"/>
<path d="M791.741 420.23H785.966V434.378H791.741V420.23Z" fill="#E5E5E5"/>
<path d="M791.741 735.842H785.966V705.696H791.741V735.842ZM791.741 675.55H785.966V645.403H791.741V675.55ZM791.741 615.256H785.966V585.11H791.741V615.256ZM791.741 554.964H785.966V524.817H791.741V554.964ZM791.741 494.671H785.966V464.524H791.741V494.671Z" fill="black"/>
<path d="M791.741 765.989H785.966V780.138H791.741V765.989Z" fill="#E5E5E5"/>
<path d="M1424.03 420.23H1418.26V434.378H1424.03V420.23Z" fill="#E5E5E5"/>
<path d="M1424.03 735.842H1418.26V705.696H1424.03V735.842ZM1424.03 675.55H1418.26V645.403H1424.03V675.55ZM1424.03 615.256H1418.26V585.11H1424.03V615.256ZM1424.03 554.964H1418.26V524.817H1424.03V554.964ZM1424.03 494.671H1418.26V464.524H1424.03V494.671Z" fill="#E5E5E5"/>
<path d="M1424.03 765.989H1418.26V780.138H1424.03V765.989Z" fill="#E5E5E5"/>
<path d="M1742.98 143.441H1737.21V157.59H1742.98V143.441Z" fill="#E5E5E5"/>
<path d="M1742.98 737.018H1737.21V708.047H1742.98V737.018ZM1742.98 679.076H1737.21V650.103H1742.98V679.076ZM1742.98 621.132H1737.21V592.161H1742.98V621.132ZM1742.98 563.189H1737.21V534.218H1742.98V563.189ZM1742.98 505.247H1737.21V476.275H1742.98V505.247ZM1742.98 447.303H1737.21V418.332H1742.98V447.303ZM1742.98 389.361H1737.21V360.39H1742.98V389.361ZM1742.98 331.418H1737.21V302.447H1742.98V331.418ZM1742.98 273.475H1737.21V244.503H1742.98V273.475ZM1742.98 215.532H1737.21V186.561H1742.98V215.532Z" fill="#090814"/>
<path d="M1742.98 765.989H1737.21V780.138H1742.98V765.989Z" fill="#E5E5E5"/>
<path d="M2058.75 30.2501H2052.97V44.399H2058.75V30.2501Z" fill="#E5E5E5"/>
<path d="M2058.75 737.126H2052.97V708.262H2058.75V737.126ZM2058.75 679.399H2052.97V650.535H2058.75V679.399ZM2058.75 621.672H2052.97V592.808H2058.75V621.672ZM2058.75 563.945H2052.97V535.081H2058.75V563.945ZM2058.75 506.217H2052.97V477.353H2058.75V506.217ZM2058.75 448.49H2052.97V419.626H2058.75V448.49ZM2058.75 390.763H2052.97V361.899H2058.75V390.763ZM2058.75 333.036H2052.97V304.172H2058.75V333.036ZM2058.75 275.309H2052.97V246.445H2058.75V275.309ZM2058.75 217.581H2052.97V188.718H2058.75V217.581ZM2058.75 159.854H2052.97V130.99H2058.75V159.854ZM2058.75 102.127H2052.97V73.2632H2058.75V102.127Z" fill="#090814"/>
<path d="M2058.75 765.989H2052.97V780.138H2058.75V765.989Z" fill="#E5E5E5"/>
<path d="M1109.33 230.692H1103.56V244.841H1109.33V230.692Z" fill="#E5E5E5"/>
<path d="M1109.33 738.561H1103.56V711.133H1109.33V738.561ZM1109.33 683.703H1103.56V656.275H1109.33V683.703ZM1109.33 628.845H1103.56V601.417H1109.33V628.845ZM1109.33 573.987H1103.56V546.559H1109.33V573.987ZM1109.33 519.13H1103.56V491.701H1109.33V519.13ZM1109.33 464.272H1103.56V436.844H1109.33V464.272ZM1109.33 409.414H1103.56V381.986H1109.33V409.414ZM1109.33 354.556H1103.56V327.128H1109.33V354.556ZM1109.33 299.699H1103.56V272.27H1109.33V299.699Z" fill="black"/>
<path d="M1109.33 765.989H1103.56V780.138H1109.33V765.989Z" fill="#E5E5E5"/>
<path d="M2379.02 786.708H467.35C465.764 786.708 464.242 786.193 463.12 785.277C461.998 784.36 461.368 783.117 461.368 781.821V33.4555C461.371 32.1614 462.003 30.9213 463.125 30.0072C464.246 29.0932 465.766 28.5799 467.35 28.5799C468.935 28.5799 470.455 29.0932 471.576 30.0072C472.698 30.9213 473.33 32.1614 473.333 33.4555V776.935H2379.02C2379.8 776.934 2380.58 777.059 2381.31 777.304C2382.04 777.549 2382.7 777.908 2383.26 778.362C2383.81 778.816 2384.25 779.355 2384.56 779.949C2384.86 780.543 2385.01 781.179 2385.01 781.821C2385.01 782.464 2384.86 783.1 2384.56 783.694C2384.25 784.287 2383.81 784.827 2383.26 785.28C2382.7 785.734 2382.04 786.094 2381.31 786.339C2380.58 786.584 2379.8 786.709 2379.02 786.708Z" fill="#3F3D56"/>
<path d="M1423.77 426.797L1105.93 232.357L792.44 424.14L785.266 416.318L1105.93 220.144L1422.26 413.66L1736.6 132.702L1737.86 132.284L2054.94 27.9392L2059.41 37.0063L1743.59 140.934L1423.77 426.797Z" fill="#3F3D56"/>
<path d="M788.854 449.547C808.678 449.547 824.749 436.421 824.749 420.229C824.749 404.037 808.678 390.911 788.854 390.911C769.029 390.911 752.958 404.037 752.958 420.229C752.958 436.421 769.029 449.547 788.854 449.547Z" fill="#003249"/>
<path d="M1105.93 258.978C1125.76 258.978 1141.83 245.852 1141.83 229.66C1141.83 213.468 1125.76 200.342 1105.93 200.342C1086.11 200.342 1070.04 213.468 1070.04 229.66C1070.04 245.852 1086.11 258.978 1105.93 258.978Z" fill="#003249"/>
<path d="M1423.01 449.547C1442.84 449.547 1458.91 436.421 1458.91 420.229C1458.91 404.037 1442.84 390.911 1423.01 390.911C1403.19 390.911 1387.12 404.037 1387.12 420.229C1387.12 436.421 1403.19 449.547 1423.01 449.547Z" fill="#E5E5E5"/>
<path d="M1414.35 553.305C1434.18 553.305 1450.25 540.179 1450.25 523.987C1450.25 507.795 1434.18 494.669 1414.35 494.669C1394.53 494.669 1378.46 507.795 1378.46 523.987C1378.46 540.179 1394.53 553.305 1414.35 553.305Z" fill="#003249"/>
<path d="M1740.09 166.137C1759.92 166.137 1775.99 153.011 1775.99 136.819C1775.99 120.627 1759.92 107.5 1740.09 107.5C1720.27 107.5 1704.2 120.627 1704.2 136.819C1704.2 153.011 1720.27 166.137 1740.09 166.137Z" fill="#003249"/>
<path d="M2057.17 58.6366C2077 58.6366 2093.07 45.5104 2093.07 29.3183C2093.07 13.1263 2077 0 2057.17 0C2037.35 0 2021.28 13.1263 2021.28 29.3183C2021.28 45.5104 2037.35 58.6366 2057.17 58.6366Z" fill="#003249"/>
<path d="M457.396 573.732C469.656 547.536 471.431 523.751 461.362 520.608C451.293 517.465 433.193 536.153 420.934 562.349C408.675 588.546 406.899 612.33 416.968 615.474C427.037 618.617 445.137 599.929 457.396 573.732Z" fill="#007EA7"/>
<path d="M324.234 746.291C392.907 746.291 448.578 700.822 448.578 644.733C448.578 588.643 392.907 543.174 324.234 543.174C255.561 543.174 199.891 588.643 199.891 644.733C199.891 700.822 255.561 746.291 324.234 746.291Z" fill="#007EA7"/>
<path d="M305.347 724.437H267.572V779.716H305.347V724.437Z" fill="#2F2E41"/>
<path d="M380.897 724.437H343.122V779.716H380.897V724.437Z" fill="#2F2E41"/>
<path d="M299.051 790C316.437 790 330.53 785.683 330.53 780.358C330.53 775.033 316.437 770.717 299.051 770.717C281.665 770.717 267.572 775.033 267.572 780.358C267.572 785.683 281.665 790 299.051 790Z" fill="#2F2E41"/>
<path d="M374.601 788.714C391.987 788.714 406.081 784.398 406.081 779.073C406.081 773.748 391.987 769.431 374.601 769.431C357.216 769.431 343.122 773.748 343.122 779.073C343.122 784.398 357.216 788.714 374.601 788.714Z" fill="#2F2E41"/>
<path d="M327.382 653.731C350.853 653.731 369.88 638.191 369.88 619.021C369.88 599.852 350.853 584.311 327.382 584.311C303.912 584.311 284.885 599.852 284.885 619.021C284.885 638.191 303.912 653.731 327.382 653.731Z" fill="white"/>
<path d="M327.382 630.591C335.206 630.591 341.548 625.411 341.548 619.021C341.548 612.631 335.206 607.451 327.382 607.451C319.559 607.451 313.217 612.631 313.217 619.021C313.217 625.411 319.559 630.591 327.382 630.591Z" fill="#3F3D56"/>
<path d="M203.617 550.286C193.577 513.561 225.672 476.451 275.302 467.4C324.933 458.348 373.305 480.783 383.346 517.508C393.386 554.233 360.494 567.778 310.863 576.829C261.233 585.88 213.657 587.011 203.617 550.286Z" fill="#BE7376"/>
<path d="M240.356 619.369C244.976 611.414 223.57 595.223 192.546 583.205C161.522 571.187 132.628 567.894 128.008 575.848C123.389 583.803 144.794 599.994 175.818 612.012C206.842 624.03 235.737 627.324 240.356 619.369Z" fill="#007EA7"/>
<path d="M263.157 681.371C263.157 691.311 294.493 710.938 329.264 710.938C364.035 710.938 396.637 682.954 396.637 673.015C396.637 663.075 364.035 674.943 329.264 674.943C294.493 674.943 263.157 671.431 263.157 681.371Z" fill="white"/>
<path d="M1262.94 730.129C1331.62 730.129 1387.29 684.66 1387.29 628.571C1387.29 572.481 1331.62 527.012 1262.94 527.012C1194.27 527.012 1138.6 572.481 1138.6 628.571C1138.6 684.66 1194.27 730.129 1262.94 730.129Z" fill="#007EA7"/>
<path d="M1244.06 708.275H1206.28V763.554H1244.06V708.275Z" fill="#2F2E41"/>
<path d="M1319.61 708.275H1281.83V763.554H1319.61V708.275Z" fill="#2F2E41"/>
<path d="M1263.56 781.866C1266.24 777.014 1255.58 768.337 1239.74 762.486C1223.9 756.635 1208.88 755.824 1206.19 760.676C1203.5 765.528 1214.17 774.205 1230.01 780.056C1245.85 785.907 1260.87 786.718 1263.56 781.866Z" fill="#2F2E41"/>
<path d="M1335.85 778.857C1338.7 774.067 1328.33 765.156 1312.69 758.954C1297.05 752.752 1282.07 751.607 1279.22 756.398C1276.37 761.188 1286.74 770.099 1302.38 776.301C1318.02 782.503 1333.01 783.647 1335.85 778.857Z" fill="#2F2E41"/>
<path d="M1142.33 534.124C1132.29 497.399 1164.38 460.29 1214.01 451.238C1263.64 442.187 1312.01 464.621 1322.05 501.346C1332.09 538.071 1299.2 551.616 1249.57 560.668C1199.94 569.719 1152.37 570.849 1142.33 534.124Z" fill="#FBB3B2"/>
<path d="M1396.94 584.191C1423.87 562.18 1438.84 538.739 1430.38 531.834C1421.92 524.93 1393.23 537.176 1366.3 559.187C1339.37 581.199 1324.4 604.64 1332.86 611.544C1341.32 618.449 1370.01 606.203 1396.94 584.191Z" fill="#007EA7"/>
<path d="M1160.88 670.552C1170.65 640.477 1169.2 614.065 1157.64 611.559C1146.08 609.053 1128.79 631.403 1119.01 661.478C1109.24 691.554 1110.69 717.966 1122.25 720.472C1133.81 722.977 1151.1 700.628 1160.88 670.552Z" fill="#007EA7"/>
</g>
<defs>
<clipPath id="clip0_9_2">
<rect width="2385" height="790" fill="white"/>
</clipPath>
</defs>
</svg>
