<svg width="2780" height="2387" viewBox="0 0 2780 2387" fill="none" xmlns="http://www.w3.org/2000/svg">
<g clip-path="url(#clip0_26_1615)">
<path d="M508.679 2125.07L491.798 2068.09C461.863 2057.23 431.237 2047.83 400.065 2039.93L397.934 2066.41L389.293 2037.24C350.635 2027.78 324.334 2023.62 324.334 2023.62C324.334 2023.62 359.856 2139.2 434.375 2227.57L521.196 2240.62L453.746 2248.94C463.119 2258.59 473.192 2267.73 483.906 2276.3C592.295 2362.38 713.024 2401.88 753.558 2364.5C794.092 2327.13 739.083 2227.07 630.69 2140.99C597.098 2114.31 554.877 2092.89 512.621 2076.03L508.679 2125.07Z" fill="#F2F2F2"/>
<path d="M669.239 2063.19L689.205 2006.95C670.138 1984.42 649.602 1962.83 627.693 1942.27L609.874 1964L620.098 1935.2C592.712 1910.02 572.711 1894.83 572.711 1894.83C572.711 1894.83 533.297 2009.48 543.691 2118.08L610.129 2167.64L547.351 2144.93C549.548 2157.34 552.655 2169.62 556.653 2181.69C597.434 2303.32 676.923 2390.53 734.194 2376.47C791.466 2362.41 804.833 2252.41 764.048 2130.78C751.407 2093.08 728.206 2056.08 702.22 2022.96L669.239 2063.19Z" fill="#F2F2F2"/>
<path d="M2081.19 565.241H2065.92V207.22C2065.92 152.264 2040.4 99.5579 1994.99 60.6969C1949.57 21.8358 1887.97 0.00262845 1823.74 0H937.181C872.948 0 811.347 21.8321 765.928 60.6934C720.509 99.5546 694.992 152.262 694.992 207.22V2171.39C694.992 2198.6 701.257 2225.55 713.428 2250.69C725.599 2275.83 743.438 2298.67 765.928 2317.92C788.417 2337.16 815.116 2352.42 844.499 2362.84C873.883 2373.25 905.376 2378.61 937.181 2378.61H1823.74C1887.97 2378.61 1949.57 2356.78 1994.99 2317.92C2040.41 2279.06 2065.93 2226.35 2065.93 2171.39V820.086H2081.2L2081.19 565.241Z" fill="black"/>
<path d="M1833.5 53.892H1717.79C1723.11 65.056 1725.14 77.1684 1723.7 89.1621C1722.26 101.156 1717.4 112.663 1709.54 122.669C1701.68 132.676 1691.06 140.875 1678.63 146.544C1666.19 152.213 1652.31 155.178 1638.22 155.178H1130.33C1116.24 155.178 1102.36 152.213 1089.92 146.544C1077.49 140.875 1066.87 132.675 1059.01 122.668C1051.15 112.661 1046.29 101.154 1044.85 89.1595C1043.41 77.1652 1045.44 65.0526 1050.77 53.8887H942.687C894.718 53.8887 848.714 70.1929 814.795 99.2144C780.876 128.236 761.82 167.598 761.82 208.64V2169.96C761.82 2211 780.876 2250.36 814.795 2279.38C848.714 2308.41 894.718 2324.71 942.687 2324.71H1833.5C1881.47 2324.71 1927.48 2308.41 1961.39 2279.38C1995.31 2250.36 2014.37 2211 2014.37 2169.96V208.637C2014.37 167.596 1995.31 128.235 1961.39 99.2144C1927.48 70.1937 1881.47 53.8895 1833.51 53.8887L1833.5 53.892Z" fill="white"/>
<path d="M1274.58 835.177C1274.58 821.465 1278.8 807.995 1286.81 796.122C1294.83 784.249 1306.36 774.393 1320.25 767.545C1306.37 760.69 1290.63 757.081 1274.61 757.081C1258.59 757.08 1242.85 760.688 1228.98 767.541C1215.1 774.395 1203.58 784.253 1195.57 796.124C1187.56 807.995 1183.34 821.461 1183.34 835.169C1183.34 848.876 1187.56 862.343 1195.57 874.214C1203.58 886.085 1215.1 895.942 1228.98 902.796C1242.85 909.649 1258.59 913.257 1274.61 913.256C1290.63 913.256 1306.37 909.647 1320.25 902.792C1306.37 895.946 1294.84 886.091 1286.82 874.221C1278.81 862.352 1274.59 848.885 1274.6 835.177H1274.58Z" fill="#CCDBDC"/>
<path d="M1389.31 835.177C1389.31 821.465 1393.53 807.995 1401.54 796.122C1409.56 784.249 1421.09 774.392 1434.97 767.545C1421.1 760.69 1405.36 757.081 1389.34 757.081C1373.32 757.08 1357.58 760.688 1343.71 767.541C1329.83 774.395 1318.31 784.253 1310.3 796.124C1302.29 807.995 1298.07 821.461 1298.07 835.169C1298.07 848.876 1302.29 862.343 1310.3 874.214C1318.31 886.085 1329.83 895.942 1343.71 902.796C1357.58 909.649 1373.32 913.257 1389.34 913.256C1405.36 913.256 1421.1 909.647 1434.97 902.792C1421.09 895.946 1409.57 886.091 1401.55 874.221C1393.54 862.352 1389.32 848.885 1389.32 835.177H1389.31Z" fill="#CCDBDC"/>
<path d="M1501.44 913.265C1551.84 913.265 1592.7 878.304 1592.7 835.177C1592.7 792.05 1551.84 757.089 1501.44 757.089C1451.04 757.089 1410.17 792.05 1410.17 835.177C1410.17 878.304 1451.04 913.265 1501.44 913.265Z" fill="#003249"/>
<path d="M1653.97 1079.08H1122.05C1116.98 1079.07 1112.13 1077.35 1108.55 1074.28C1104.97 1071.22 1102.95 1067.07 1102.95 1062.73V607.62C1102.96 603.289 1104.97 599.139 1108.55 596.078C1112.13 593.017 1116.99 591.295 1122.05 591.29H1653.97C1659.03 591.295 1663.88 593.019 1667.46 596.082C1671.05 599.146 1673.06 603.3 1673.07 607.633V1062.72C1673.06 1067.05 1671.05 1071.2 1667.46 1074.27C1663.88 1077.33 1659.03 1079.06 1653.97 1079.06V1079.08ZM1122.05 597.818C1119.01 597.82 1116.1 598.854 1113.95 600.693C1111.8 602.531 1110.59 605.023 1110.59 607.623V1062.74C1110.59 1065.34 1111.8 1067.83 1113.95 1069.67C1116.1 1071.51 1119.01 1072.54 1122.05 1072.54H1653.97C1657 1072.54 1659.92 1071.51 1662.06 1069.67C1664.21 1067.83 1665.42 1065.34 1665.42 1062.74V607.623C1665.42 605.023 1664.21 602.531 1662.06 600.693C1659.92 598.854 1657 597.82 1653.97 597.818H1122.05Z" fill="#CCCCCC"/>
<path d="M1772.73 1427.94H956.942V1434.48H1772.73V1427.94Z" fill="#CCCCCC"/>
<path d="M982.703 1387.12C996.931 1387.12 1008.46 1377.25 1008.46 1365.08C1008.46 1352.91 996.931 1343.04 982.703 1343.04C968.475 1343.04 956.942 1352.91 956.942 1365.08C956.942 1377.25 968.475 1387.12 982.703 1387.12Z" fill="#003249"/>
<path d="M1772.73 1648.36H956.942V1654.9H1772.73V1648.36Z" fill="#CCCCCC"/>
<path d="M982.703 1607.55C996.931 1607.55 1008.46 1597.68 1008.46 1585.5C1008.46 1573.33 996.931 1563.46 982.703 1563.46C968.475 1563.46 956.942 1573.33 956.942 1585.5C956.942 1597.68 968.475 1607.55 982.703 1607.55Z" fill="#003249"/>
<path d="M1757.8 1899.37H1499.99C1495.53 1899.36 1491.27 1897.85 1488.12 1895.15C1484.97 1892.46 1483.2 1888.81 1483.19 1885V1807.69C1483.2 1803.88 1484.97 1800.23 1488.12 1797.54C1491.27 1794.84 1495.53 1793.33 1499.99 1793.32H1757.8C1762.25 1793.33 1766.52 1794.84 1769.67 1797.54C1772.82 1800.23 1774.59 1803.88 1774.6 1807.69V1885C1774.59 1888.81 1772.82 1892.46 1769.67 1895.15C1766.52 1897.85 1762.25 1899.36 1757.8 1899.37Z" fill="#003249"/>
<path d="M1066.74 1387.12C1080.97 1387.12 1092.5 1377.25 1092.5 1365.08C1092.5 1352.91 1080.97 1343.04 1066.74 1343.04C1052.51 1343.04 1040.98 1352.91 1040.98 1365.08C1040.98 1377.25 1052.51 1387.12 1066.74 1387.12Z" fill="#003249"/>
<path d="M1150.78 1387.12C1165 1387.12 1176.54 1377.25 1176.54 1365.08C1176.54 1352.91 1165 1343.04 1150.78 1343.04C1136.55 1343.04 1125.02 1352.91 1125.02 1365.08C1125.02 1377.25 1136.55 1387.12 1150.78 1387.12Z" fill="#003249"/>
<path d="M1066.74 1607.55C1080.97 1607.55 1092.5 1597.68 1092.5 1585.5C1092.5 1573.33 1080.97 1563.46 1066.74 1563.46C1052.51 1563.46 1040.98 1573.33 1040.98 1585.5C1040.98 1597.68 1052.51 1607.55 1066.74 1607.55Z" fill="#003249"/>
<path d="M1150.78 1607.55C1165 1607.55 1176.54 1597.68 1176.54 1585.5C1176.54 1573.33 1165 1563.46 1150.78 1563.46C1136.55 1563.46 1125.02 1573.33 1125.02 1585.5C1125.02 1597.68 1136.55 1607.55 1150.78 1607.55Z" fill="#003249"/>
<path d="M2769.31 2387H10.6876C4.78394 2387 0 2385.2 0 2382.98C0 2380.76 4.78394 2378.95 10.6876 2378.95H2769.31C2775.21 2378.95 2780 2380.75 2780 2382.98C2780 2385.2 2775.21 2387 2769.31 2387Z" fill="#E6E6E6"/>
<path d="M2416.1 1496.22L2351.23 1606.09L2157.32 1681.52C2136.61 1711.47 2070.8 1713.76 2066.01 1694.4C2060.64 1672.68 2145.93 1637.71 2145.93 1637.71L2308.15 1543.84L2322.34 1463.02L2416.1 1496.22Z" fill="#FFB9B9"/>
<path d="M2408.45 2233.51L2420.41 2315.39L2351.03 2319.49L2343.86 2233.52L2408.45 2233.51Z" fill="#FFB9B9"/>
<path d="M2398.88 2303.11C2405.09 2297.5 2410.81 2291.51 2416 2285.2C2425.95 2273.42 2434.77 2333.81 2434.77 2333.81C2434.77 2333.81 2444.34 2358.37 2441.95 2370.66C2439.55 2382.94 2384.53 2382.94 2374.96 2380.9C2365.39 2378.86 2317.54 2380.9 2317.54 2380.9H2245.77C2183.57 2356.34 2245.77 2339.96 2245.77 2339.96C2264.91 2337.91 2329.51 2286.74 2329.51 2286.74L2343.86 2264.22C2353.43 2262.18 2363 2292.88 2363 2292.88L2398.88 2303.11Z" fill="#090814"/>
<path d="M2587.88 2234.53L2599.85 2316.41L2530.47 2320.51L2523.29 2234.53H2587.88Z" fill="#FFB9B9"/>
<path d="M2578.3 2304.13C2584.51 2298.52 2590.23 2292.53 2595.42 2286.22C2605.37 2274.45 2614.19 2334.84 2614.19 2334.84C2614.19 2334.84 2623.76 2357.35 2621.37 2369.63C2618.98 2381.91 2563.95 2381.91 2554.38 2379.87C2544.81 2377.84 2496.97 2381.92 2496.97 2381.92H2425.2C2362.99 2357.36 2425.2 2340.98 2425.2 2340.98C2444.34 2338.94 2508.93 2287.76 2508.93 2287.76L2523.28 2265.25C2532.85 2263.2 2542.42 2293.9 2542.42 2293.9L2578.3 2304.13Z" fill="#090814"/>
<path d="M2508.92 1706.43C2518.49 1716.67 2513.7 1751.46 2513.7 1751.46C2513.7 1751.46 2530.45 1864.04 2523.27 1874.28C2516.09 1884.51 2528.06 1892.7 2535.24 1907.03C2542.43 1921.36 2549.6 1956.15 2549.6 1956.15C2590.27 1984.81 2587.88 2115.81 2587.88 2115.81L2602.23 2232.49C2597.44 2244.77 2530.46 2246.82 2520.89 2244.77C2511.32 2242.73 2482.61 2058.5 2482.61 2058.5L2418.02 1954.11C2418.02 1954.11 2422.8 2232.49 2422.8 2244.77C2422.8 2257.05 2358.21 2250.91 2343.85 2250.91C2329.5 2250.91 2329.5 2046.22 2329.5 2046.22L2315.14 1993L2238.59 1749.42V1720.75L2250.56 1706.42C2250.56 1706.42 2499.35 1696.19 2508.92 1706.43Z" fill="#090814"/>
<path d="M2403.67 1241.78C2444.63 1241.78 2477.83 1213.37 2477.83 1178.32C2477.83 1143.28 2444.63 1114.87 2403.67 1114.87C2362.71 1114.87 2329.51 1143.28 2329.51 1178.32C2329.51 1213.37 2362.71 1241.78 2403.67 1241.78Z" fill="#FFB9B9"/>
<path d="M2366.59 1208C2381.62 1236.64 2372.72 1276.65 2342.65 1320.58L2464.66 1271.46L2445.52 1257.13L2450.31 1216.19L2366.59 1208Z" fill="#FFB9B9"/>
<path d="M2366.58 1273.51C2350.6 1281.63 2341.05 1296.57 2335.56 1311.76C2325.4 1339.89 2319.29 1368.98 2317.35 1398.38L2311.56 1486.39L2239.79 1719.74C2301.99 1764.77 2337.86 1754.53 2421.6 1717.69C2505.35 1680.84 2514.91 1729.98 2514.91 1729.98C2514.91 1729.98 2522.09 1727.93 2514.91 1721.79C2507.73 1715.65 2514.91 1721.79 2522.09 1715.65C2529.26 1709.51 2522.09 1715.65 2519.69 1709.51C2517.3 1703.37 2519.69 1707.46 2522.09 1705.42C2524.48 1703.37 2512.52 1684.93 2512.52 1684.93L2531.66 1531.41L2555.6 1314.44C2526.89 1283.74 2445.55 1257.13 2445.55 1257.13L2371.37 1302.16C2347.43 1310.34 2366.58 1277.6 2366.58 1277.6L2366.58 1273.51Z" fill="#007EA7"/>
<path d="M2595.05 1444.42L2604.62 1567.24L2482.61 1716.66C2482.61 1751.46 2461.08 1759.65 2461.08 1759.65C2452.92 1748.51 2445.73 1736.88 2439.55 1724.85C2427.58 1702.34 2446.72 1683.92 2446.72 1683.92L2530.46 1532.44L2494.57 1456.71L2595.05 1444.42Z" fill="#FFB9B9"/>
<path d="M2554.4 1315.47C2595.07 1327.75 2602.24 1460.8 2602.24 1460.8C2554.4 1438.28 2496.98 1475.13 2496.98 1475.13C2496.98 1475.13 2485.01 1440.33 2470.67 1395.3C2466.33 1382.63 2465.81 1369.23 2469.16 1356.35C2472.51 1343.46 2479.61 1331.51 2489.81 1321.61C2489.81 1321.61 2513.71 1303.19 2554.4 1315.47Z" fill="#007EA7"/>
<path d="M2471.84 1197.77C2462.4 1191.3 2449.52 1203.05 2449.52 1203.05L2441.97 1144.89C2441.97 1144.89 2394.77 1149.74 2364.55 1143.27C2334.34 1136.81 2329.62 1166.7 2329.62 1166.7C2328.06 1154.63 2327.75 1142.47 2328.67 1130.36C2330.56 1115.82 2355.11 1101.29 2398.54 1091.58C2441.97 1081.88 2464.63 1123.9 2464.63 1123.9C2494.83 1136.81 2481.29 1204.23 2471.84 1197.77Z" fill="#090814"/>
</g>
<defs>
<clipPath id="clip0_26_1615">
<rect width="2780" height="2387" fill="white"/>
</clipPath>
</defs>
</svg>
