<svg width="12282" height="10826" viewBox="0 0 12282 10826" fill="none" xmlns="http://www.w3.org/2000/svg">
<path d="M12282 8279.72H0V8285.14H12282V8279.72Z" fill="#EBEBEB"/>
<path d="M11051.3 8628.11H10237.8V8633.52H11051.3V8628.11Z" fill="#EBEBEB"/>
<path d="M7404.57 8630.92H7191.11V8636.33H7404.57V8630.92Z" fill="#EBEBEB"/>
<path d="M10213 8427.17H8703.77V8432.59H10213V8427.17Z" fill="#EBEBEB"/>
<path d="M5530.34 8554.92H5218.62V8560.33H5530.34V8554.92Z" fill="#EBEBEB"/>
<path d="M5000 8554.92H4095.31V8560.33H5000V8554.92Z" fill="#EBEBEB"/>
<path d="M1913.29 8463.55H1288.62V8468.96H1913.29V8463.55Z" fill="#EBEBEB"/>
<path d="M3900.27 8463.55H2060.67V8468.96H3900.27V8463.55Z" fill="#EBEBEB"/>
<path d="M5821.67 7314.04H1078.61C1041.45 7313.99 1005.84 7300.94 979.588 7277.76C953.337 7254.58 938.594 7223.16 938.594 7190.41V1313.41C938.917 1280.85 953.804 1249.71 980.02 1226.76C1006.24 1203.82 1041.66 1190.92 1078.61 1190.86H5821.67C5858.87 1190.86 5894.55 1203.88 5920.85 1227.07C5947.16 1250.26 5961.93 1281.7 5961.93 1314.49V7190.41C5961.93 7223.2 5947.16 7254.65 5920.85 7277.83C5894.55 7301.02 5858.87 7314.04 5821.67 7314.04ZM1078.61 1195.19C1043.08 1195.25 1009.03 1207.73 983.931 1229.89C958.831 1252.06 944.735 1282.09 944.735 1313.41V7190.41C944.735 7221.73 958.831 7251.77 983.931 7273.93C1009.03 7296.09 1043.08 7308.57 1078.61 7308.63H5821.67C5857.22 7308.57 5891.3 7296.1 5916.44 7273.94C5941.58 7251.78 5955.73 7221.75 5955.79 7190.41V1313.41C5955.73 1282.07 5941.58 1252.04 5916.44 1229.88C5891.3 1207.72 5857.22 1195.25 5821.67 1195.19H1078.61Z" fill="#EBEBEB"/>
<path d="M11135.1 7314.04H6391.8C6354.62 7313.99 6318.98 7300.94 6292.69 7277.77C6266.4 7254.6 6251.6 7223.18 6251.54 7190.41V1313.41C6251.93 1280.83 6266.87 1249.69 6293.12 1226.75C6319.38 1203.81 6354.83 1190.91 6391.8 1190.86H11135.1C11172 1190.97 11207.4 1203.9 11233.5 1226.84C11259.7 1249.78 11274.6 1280.88 11274.9 1313.41V7190.41C11274.9 7223.13 11260.2 7254.51 11234 7277.68C11207.8 7300.85 11172.2 7313.93 11135.1 7314.04ZM6391.8 1195.19C6356.25 1195.25 6322.17 1207.72 6297.03 1229.88C6271.9 1252.04 6257.74 1282.07 6257.68 1313.41V7190.41C6257.74 7221.75 6271.9 7251.78 6297.03 7273.94C6322.17 7296.1 6356.25 7308.57 6391.8 7308.63H11135.1C11170.7 7308.57 11204.7 7296.1 11229.9 7273.94C11255 7251.78 11269.2 7221.75 11269.2 7190.41V1313.41C11269.2 1282.07 11255 1252.04 11229.9 1229.88C11204.7 1207.72 11170.7 1195.25 11135.1 1195.19H6391.8Z" fill="#EBEBEB"/>
<path d="M4686.32 5402.39L10656.4 5402.39V1558.51L4686.32 1558.51L4686.32 5402.39Z" fill="#E6E6E6"/>
<path d="M4422.5 5402.39L10595.2 5402.39V1558.51L4422.5 1558.51L4422.5 5402.39Z" fill="#F0F0F0"/>
<path d="M10225.5 5076.74V1884.16L4791.7 1884.16V5076.74H10225.5Z" fill="#FAFAFA"/>
<path d="M8904.69 5076.53L7667.65 1884.16H6486.37L7723.41 5076.53H8904.69Z" fill="white"/>
<path d="M7469.67 5076.53L6232.63 1884.16H5772.3L7009.34 5076.53H7469.67Z" fill="white"/>
<path d="M4838.86 5076.74V1884.16H4791.94V5076.74H4838.86Z" fill="#E6E6E6"/>
<path d="M1586.1 4356.81H3694.18L3694.18 1722.42L1586.1 1722.42L1586.1 4356.81Z" fill="#E0E0E0"/>
<path d="M1436.99 4356.81H3609.92L3609.92 1722.42L1436.99 1722.42L1436.99 4356.81Z" fill="#F5F5F5"/>
<path d="M3395.48 4148.96V1929.84H1651.44L1651.44 4148.96H3395.48Z" fill="white"/>
<path d="M2405.55 6201.13C2562.02 5860.76 2934.17 5734.1 3062.88 5519.09C3231.15 5237.62 3230.16 4815.19 3087.45 4662.97C2962.66 4530.46 2549.99 5425.99 2503.56 5526.02C2376.19 5796 2296.5 6081.58 2267.25 6372.83C2270.69 6162.59 2273.89 5969.46 2276.59 5820.49C2285.43 5334.62 2296.24 5178.29 2301.15 5130.22C2318.35 5106.62 2338.74 5079.34 2350.28 5065.27C2450.26 4941.2 2671.82 4793.32 2782.61 4612.96C2944.24 4349.45 2918.2 4034.2 2804.71 3916.85C2686.07 3794.08 2476.54 4084.22 2365.26 4371.54C2253.99 4658.86 2301.4 4934.49 2270.2 5172.66C2263.82 5219.43 2256.94 5397.19 2250.8 5644.03C2216.9 5378.57 2149.59 5200.81 2025.05 5034.95C1871.77 4831.21 1739.37 4583.08 1613.12 4615.12C1486.86 4647.17 1554.65 4975.63 1654.63 5206.01C1744.04 5411.27 2182.51 5616.09 2247.11 5781.08C2239.5 6115.39 2232.62 6538.9 2227.95 6933.62C2193.32 6729.87 2217.14 6712.77 2075.16 6400.76C1990.91 6215.42 1645.79 5986.78 1604.03 6114.09C1562.27 6241.4 1625.4 6482.17 1755.83 6651.06C1861.21 6787.03 2094.82 6786.82 2148.86 6871.26C2161.38 6890.96 2203.14 6966.53 2226.97 7009.83C2221.32 7491.37 2218.86 7916.62 2221.57 8061.47L2244.16 8062.99C2244.16 8025.53 2245.88 7781.51 2250.31 7456.73C2307.05 7283.52 2689.02 7183.7 2806.93 7004.2C2929.75 6816.48 3019.16 6597.36 2966.1 6450.78C2921.89 6328.45 2573.08 6494.08 2432.82 6697.4C2338.74 6832.5 2281.26 6976.49 2254.48 7170.06C2257.67 6949.21 2261.36 6711.9 2264.8 6488.02C2293.54 6431.73 2358.14 6303.11 2405.55 6201.13Z" fill="#E6E6E6"/>
<path d="M2629.82 8279.72H1827.07C1805.85 8279.7 1785.3 8273.23 1768.87 8261.39C1752.45 8249.56 1741.16 8233.09 1736.92 8214.77L1679.93 7967.94H2777.2L2720.21 8215.42C2715.73 8233.62 2704.32 8249.92 2687.88 8261.62C2671.44 8273.32 2650.95 8279.7 2629.82 8279.72Z" fill="#F0F0F0"/>
<path d="M2800.3 8062.99H1656.84C1643.6 8062.96 1630.83 8058.64 1620.95 8050.86C1611.08 8043.07 1604.8 8032.37 1603.29 8020.77L1578.73 7837.81C1577.9 7831.17 1578.67 7824.45 1580.98 7818.08C1583.29 7811.72 1587.1 7805.86 1592.15 7800.87C1597.2 7795.89 1603.38 7791.9 1610.29 7789.16C1617.21 7786.42 1624.7 7785 1632.28 7784.98H2822.16C2829.75 7784.96 2837.26 7786.37 2844.19 7789.09C2851.12 7791.82 2857.32 7795.81 2862.38 7800.8C2867.44 7805.79 2871.24 7811.67 2873.54 7818.05C2875.84 7824.43 2876.57 7831.16 2875.71 7837.81L2851.14 8020.77C2849.71 8031.97 2843.81 8042.36 2834.5 8050.09C2825.19 8057.82 2813.07 8062.39 2800.3 8062.99Z" fill="#F0F0F0"/>
<path d="M9963.89 8121.88H10209.3V5794.51H9963.89V8121.88Z" fill="#F0F0F0"/>
<path d="M4963.4 8276.91H10115.2V8121.88L4963.4 8121.88V8276.91Z" fill="#F0F0F0"/>
<path d="M9964.14 5794.51H4869.32V8121.88H9964.14V5794.51Z" fill="#F5F5F5"/>
<path d="M10021.9 5794.51H10275.4V5647.71H10021.9V5794.51Z" fill="#E0E0E0"/>
<path d="M10021.9 5647.71H4803.24V5794.51H10021.9V5647.71Z" fill="#EBEBEB"/>
<path d="M9598.38 6798.73H5234.83C5182.71 6798.73 5132.73 6780.48 5095.88 6748C5059.02 6715.51 5038.32 6671.45 5038.32 6625.51V6127.52C5038.32 6081.58 5059.02 6037.52 5095.88 6005.03C5132.73 5972.55 5182.71 5954.3 5234.83 5954.3H9598.38C9650.5 5954.3 9700.48 5972.55 9737.34 6005.03C9774.19 6037.52 9794.89 6081.58 9794.89 6127.52V6625.51C9794.89 6671.45 9774.19 6715.51 9737.34 6748C9700.48 6780.48 9650.5 6798.73 9598.38 6798.73ZM5234.83 5997.6C5195.74 5997.6 5158.26 6011.29 5130.62 6035.66C5102.98 6060.02 5087.45 6093.06 5087.45 6127.52V6625.51C5087.45 6659.97 5102.98 6693.01 5130.62 6717.37C5158.26 6741.74 5195.74 6755.42 5234.83 6755.42H9598.38C9637.47 6755.42 9674.96 6741.74 9702.6 6717.37C9730.24 6693.01 9745.77 6659.97 9745.77 6625.51V6127.52C9745.77 6093.06 9730.24 6060.02 9702.6 6035.66C9674.96 6011.29 9637.47 5997.6 9598.38 5997.6H5234.83Z" fill="white"/>
<path d="M9598.38 7842.14H5234.83C5182.71 7842.14 5132.73 7823.89 5095.88 7791.4C5059.02 7758.92 5038.32 7714.86 5038.32 7668.92V7170.92C5038.32 7124.99 5059.02 7080.93 5095.88 7048.44C5132.73 7015.96 5182.71 6997.71 5234.83 6997.71H9598.38C9650.5 6997.71 9700.48 7015.96 9737.34 7048.44C9774.19 7080.93 9794.89 7124.99 9794.89 7170.92V7668.92C9794.89 7714.86 9774.19 7758.92 9737.34 7791.4C9700.48 7823.89 9650.5 7842.14 9598.38 7842.14ZM5234.83 7039.28C5195.74 7039.28 5158.26 7052.97 5130.62 7077.33C5102.98 7101.69 5087.45 7134.74 5087.45 7169.19V7667.19C5087.45 7701.64 5102.98 7734.69 5130.62 7759.05C5158.26 7783.41 5195.74 7797.1 5234.83 7797.1H9598.38C9637.47 7797.1 9674.96 7783.41 9702.6 7759.05C9730.24 7734.69 9745.77 7701.64 9745.77 7667.19V7169.19C9745.77 7134.74 9730.24 7101.69 9702.6 7077.33C9674.96 7052.97 9637.47 7039.28 9598.38 7039.28H5234.83Z" fill="white"/>
<path d="M8606.74 6452.3H6226.48C6209.59 6452.3 6193.38 6446.39 6181.41 6435.88C6169.44 6425.37 6162.68 6411.11 6162.62 6396.22V6355.08C6162.68 6340.19 6169.44 6325.92 6181.41 6315.41C6193.38 6304.9 6209.59 6299 6226.48 6299H8606.74C8623.63 6299 8639.84 6304.9 8651.81 6315.41C8663.78 6325.92 8670.54 6340.19 8670.6 6355.08V6396.22C8670.54 6411.11 8663.78 6425.37 8651.81 6435.88C8639.84 6446.39 8623.63 6452.3 8606.74 6452.3ZM6226.48 6344.04C6222.64 6344.09 6218.96 6345.45 6216.22 6347.82C6213.47 6350.2 6211.87 6353.42 6211.75 6356.81V6397.95C6211.87 6401.34 6213.47 6404.56 6216.22 6406.94C6218.96 6409.31 6222.64 6410.67 6226.48 6410.72H8606.74C8610.6 6410.72 8614.31 6409.39 8617.07 6407C8619.83 6404.61 8621.41 6401.36 8621.47 6397.95V6356.81C8621.41 6353.4 8619.83 6350.15 8617.07 6347.76C8614.31 6345.37 8610.6 6344.04 8606.74 6344.04H6226.48Z" fill="white"/>
<path d="M8606.74 7495.71H6226.48C6209.59 7495.71 6193.38 7489.81 6181.41 7479.29C6169.44 7468.78 6162.68 7454.52 6162.62 7439.63V7398.49C6162.68 7383.6 6169.44 7369.33 6181.41 7358.82C6193.38 7348.31 6209.59 7342.41 6226.48 7342.41H8606.74C8623.63 7342.41 8639.84 7348.31 8651.81 7358.82C8663.78 7369.33 8670.54 7383.6 8670.6 7398.49V7439.63C8670.54 7454.52 8663.78 7468.78 8651.81 7479.29C8639.84 7489.81 8623.63 7495.71 8606.74 7495.71ZM6226.48 7385.71C6222.64 7385.77 6218.96 7387.12 6216.22 7389.5C6213.47 7391.88 6211.87 7395.1 6211.75 7398.49V7439.63C6211.87 7443.02 6213.47 7446.24 6216.22 7448.61C6218.96 7450.99 6222.64 7452.35 6226.48 7452.4H8606.74C8610.6 7452.4 8614.31 7451.06 8617.07 7448.67C8619.83 7446.28 8621.41 7443.04 8621.47 7439.63V7398.49C8621.41 7395.08 8619.83 7391.83 8617.07 7389.44C8614.31 7387.05 8610.6 7385.71 8606.74 7385.71H6226.48Z" fill="white"/>
<path d="M6018.18 9257.53C8648.56 9257.53 10780.9 9147.79 10780.9 9012.43C10780.9 8877.06 8648.56 8767.33 6018.18 8767.33C3387.81 8767.33 1255.47 8877.06 1255.47 9012.43C1255.47 9147.79 3387.81 9257.53 6018.18 9257.53Z" fill="#F5F5F5"/>
<path d="M9206.35 3632.18L9197 3759.66L9221.51 3761.06L9230.87 3633.58L9206.35 3632.18Z" fill="#003249"/>
<path d="M9243.63 3114.42L9212.98 3533.39L9237.49 3534.78L9268.14 3115.82L9243.63 3114.42Z" fill="#003249"/>
<path d="M8952.11 2506H6064.61C5990.46 2507.15 5919.46 2532.6 5865.46 2577.4C5811.46 2622.2 5778.33 2683.12 5772.54 2748.29L5399.41 7825.68C5396.69 7856.81 5401.33 7888.09 5413.05 7917.54C5424.78 7947 5443.32 7973.99 5467.5 7996.79C5491.69 8019.59 5520.98 8037.72 5553.54 8050.01C5586.09 8062.3 5621.19 8068.49 5656.6 8068.19H8543.61C8617.88 8067.1 8689.04 8041.65 8743.17 7996.81C8797.31 7951.97 8830.55 7890.96 8836.41 7825.68L9209.29 2748.29C9212.02 2717.18 9207.37 2685.9 9195.65 2656.46C9183.93 2627.01 9165.38 2600.04 9141.19 2577.25C9117.01 2554.47 9087.7 2536.37 9055.15 2524.1C9022.6 2511.83 8987.51 2505.67 8952.11 2506Z" fill="#003249"/>
<path opacity="0.7" d="M8860.48 2506H6064.61C5990.46 2507.15 5919.46 2532.6 5865.46 2577.4C5811.46 2622.2 5778.33 2683.12 5772.54 2748.29L5399.41 7825.68C5396.69 7856.81 5401.33 7888.09 5413.05 7917.54C5424.78 7947 5443.32 7973.99 5467.5 7996.79C5491.69 8019.59 5520.98 8037.72 5553.54 8050.01C5586.09 8062.3 5621.19 8068.49 5656.6 8068.19H8451.98C8526.26 8067.1 8597.41 8041.65 8651.55 7996.81C8705.69 7951.97 8738.93 7890.96 8744.79 7825.68L9117.67 2748.29C9120.39 2717.18 9115.75 2685.9 9104.03 2656.46C9092.3 2627.01 9073.76 2600.04 9049.57 2577.25C9025.38 2554.47 8996.08 2536.37 8963.53 2524.1C8930.97 2511.83 8895.88 2505.67 8860.48 2506Z" fill="white"/>
<path d="M8624.67 7692.96H5549.25C5537.75 7692.98 5526.37 7690.92 5515.81 7686.9C5505.24 7682.89 5495.73 7677 5487.85 7669.61C5479.98 7662.22 5473.91 7653.49 5470.02 7643.95C5466.13 7634.41 5464.5 7624.26 5465.24 7614.14L5802.75 3019.59C5804.13 3000.82 5813.55 2983.22 5829.1 2970.36C5844.66 2957.49 5865.18 2950.32 5886.52 2950.3H8962.17C8973.69 2950.31 8985.08 2952.4 8995.64 2956.44C9006.2 2960.48 9015.71 2966.38 9023.58 2973.79C9031.46 2981.2 9037.52 2989.95 9041.41 2999.5C9045.3 3009.05 9046.92 3019.2 9046.18 3029.33L8708.67 7623.67C8707.3 7642.47 8697.85 7660.11 8682.24 7672.98C8666.63 7685.85 8646.04 7693 8624.67 7692.96Z" fill="white"/>
<path d="M7941.3 2800.04H6823.39C6817.64 2800.08 6811.94 2799.07 6806.65 2797.08C6801.37 2795.08 6796.61 2792.13 6792.68 2788.43C6788.76 2784.72 6785.75 2780.34 6783.85 2775.55C6781.94 2770.77 6781.19 2765.69 6781.63 2760.63C6782.76 2750.13 6788.2 2740.35 6796.93 2733.14C6805.66 2725.92 6817.08 2721.76 6829.04 2721.44H7946.95C7952.69 2721.37 7958.38 2722.35 7963.67 2724.32C7968.95 2726.3 7973.71 2729.22 7977.64 2732.91C7981.57 2736.6 7984.59 2740.97 7986.49 2745.74C7988.4 2750.52 7989.15 2755.59 7988.71 2760.63C7987.63 2771.17 7982.21 2781 7973.48 2788.26C7964.75 2795.52 7953.3 2799.71 7941.3 2800.04Z" fill="white"/>
<path d="M7068.79 7885.88C7066.99 7911.83 7054.1 7936.22 7032.73 7954.13C7011.35 7972.05 6983.07 7982.16 6953.58 7982.44C6939.42 7982.56 6925.38 7980.1 6912.34 7975.22C6899.3 7970.34 6887.54 7963.15 6877.79 7954.09C6868.04 7945.03 6860.51 7934.3 6855.68 7922.56C6850.84 7910.83 6848.8 7898.34 6849.67 7885.88C6851.53 7859.96 6864.44 7835.63 6885.81 7817.76C6907.18 7799.89 6935.43 7789.8 6964.88 7789.53C6979.03 7789.38 6993.07 7791.81 7006.11 7796.67C7019.14 7801.52 7030.91 7808.69 7040.66 7817.74C7050.41 7826.78 7057.94 7837.5 7062.78 7849.22C7067.62 7860.95 7069.66 7873.42 7068.79 7885.88Z" fill="white"/>
<path opacity="0.2" d="M8289.62 4222.14H5663.48L5496.45 6493.44H8289.62C8362.5 6493.32 8432.37 6467.77 8483.93 6422.36C8535.48 6376.95 8564.54 6315.39 8564.73 6251.15V4465.29C8564.8 4400.9 8535.86 4339.12 8484.27 4293.52C8432.68 4247.93 8362.67 4222.26 8289.62 4222.14Z" fill="#003249"/>
<path d="M8044.95 4020.99H4826.58C4674.64 4020.99 4551.46 4129.56 4551.46 4263.49V6050C4551.46 6183.93 4674.64 6292.5 4826.58 6292.5H8044.95C8196.9 6292.5 8320.07 6183.93 8320.07 6050V4263.49C8320.07 4129.56 8196.9 4020.99 8044.95 4020.99Z" fill="#003249"/>
<path d="M4463.52 3994.79C4457.08 3994.77 4450.91 3992.51 4446.33 3988.51L4402.11 3949.76C4397.49 3945.68 4394.89 3940.15 4394.89 3934.38C4394.89 3928.62 4397.49 3923.09 4402.11 3919.01C4406.74 3914.93 4413.01 3912.64 4419.56 3912.64C4426.1 3912.64 4432.37 3914.93 4437 3919.01L4480.97 3957.98C4485.54 3962.04 4488.11 3967.53 4488.11 3973.25C4488.11 3978.97 4485.54 3984.46 4480.97 3988.51C4478.67 3990.52 4475.95 3992.11 4472.95 3993.19C4469.96 3994.26 4466.76 3994.81 4463.52 3994.79Z" fill="#003249"/>
<path d="M4396.95 4130.77H4334.81C4328.29 4130.77 4322.04 4128.49 4317.44 4124.43C4312.83 4120.36 4310.24 4114.86 4310.24 4109.11C4310.24 4103.37 4312.83 4097.87 4317.44 4093.8C4322.04 4089.74 4328.29 4087.46 4334.81 4087.46H4396.95C4403.47 4087.46 4409.72 4089.74 4414.32 4093.8C4418.93 4097.87 4421.52 4103.37 4421.52 4109.11C4421.52 4114.86 4418.93 4120.36 4414.32 4124.43C4409.72 4128.49 4403.47 4130.77 4396.95 4130.77Z" fill="#003249"/>
<path d="M4620 3936.33C4613.77 3936.35 4607.77 3934.27 4603.21 3930.54C4598.65 3926.8 4595.87 3921.67 4595.43 3916.2L4591.01 3861.42C4590.78 3858.57 4591.18 3855.71 4592.2 3853.01C4593.23 3850.3 4594.85 3847.8 4596.97 3845.65C4599.09 3843.5 4601.68 3841.73 4604.57 3840.46C4607.47 3839.19 4610.63 3838.44 4613.85 3838.25C4620.33 3837.89 4626.71 3839.81 4631.59 3843.58C4636.46 3847.36 4639.45 3852.68 4639.89 3858.39L4644.56 3913.16C4644.79 3916.01 4644.39 3918.87 4643.36 3921.57C4642.34 3924.28 4640.72 3926.78 4638.6 3928.93C4636.48 3931.09 4633.89 3932.85 4630.99 3934.12C4628.1 3935.39 4624.94 3936.14 4621.71 3936.33H4620Z" fill="#003249"/>
<path d="M6710.63 6058.88L7698.84 6929.72V6058.88H6710.63Z" fill="#003249"/>
<path d="M6981.57 5677.37L6932.45 5493.54C6920.04 5445.22 6920.04 5395.07 6932.45 5346.74L7000.73 5084.97C7028.67 4973.34 7013.55 4856.68 6957.75 4753.49C6901.95 4650.3 6808.67 4566.48 6692.7 4515.31C6694.88 4510.49 6696.76 4505.58 6698.35 4500.58C6702.38 4484.7 6702.83 4468.28 6699.66 4452.25C6696.49 4436.21 6689.77 4420.89 6679.88 4407.15C6669.99 4393.41 6657.13 4381.51 6642.03 4372.15C6626.93 4362.79 6609.88 4356.15 6591.87 4352.59C6573.85 4349.04 6555.22 4348.65 6537.03 4351.44C6518.84 4354.23 6501.46 4360.16 6485.87 4368.87C6470.28 4377.59 6456.78 4388.93 6446.17 4402.24C6435.55 4415.55 6428 4430.57 6423.97 4446.45C6422.75 4451.51 6422.01 4456.66 6421.76 4461.83C6292.12 4464.51 6167.2 4505.23 6066.78 4577.55C5966.36 4649.87 5896.18 4749.65 5867.35 4861.09L5800.78 5123.08C5788.55 5171.31 5764.21 5216.52 5729.55 5255.37L5597.15 5403.69C5584.2 5418.24 5575.64 5435.44 5572.26 5453.69C5568.88 5471.94 5570.81 5490.65 5577.84 5508.07C5584.88 5525.49 5596.81 5541.06 5612.51 5553.32C5628.21 5565.58 5647.18 5574.14 5667.65 5578.2L6834.44 5808.58C6854.83 5812.47 6876.01 5811.75 6896.01 5806.51C6916.01 5801.26 6934.19 5791.65 6948.86 5778.57C6963.53 5765.49 6974.22 5749.36 6979.94 5731.67C6985.66 5713.98 6986.22 5695.3 6981.57 5677.37Z" fill="white"/>
<path d="M6100.47 5734.1C6091.59 5732.37 6082.37 5732.6 6073.62 5734.77C6064.87 5736.94 6056.86 5740.97 6050.31 5746.52C6043.75 5752.06 6038.84 5758.95 6036.02 5766.56C6033.2 5774.18 6032.56 5782.29 6034.15 5790.18C6040.85 5824.97 6059.14 5857.21 6086.7 5882.81C6114.27 5908.4 6149.85 5926.19 6188.91 5933.9C6227.98 5941.61 6268.77 5938.89 6306.08 5926.1C6343.39 5913.31 6375.54 5891.01 6398.43 5862.06C6403.66 5855.54 6406.99 5847.98 6408.12 5840.05C6409.25 5832.12 6408.16 5824.07 6404.93 5816.61C6401.7 5809.14 6396.44 5802.49 6389.61 5797.24C6382.78 5791.99 6374.59 5788.3 6365.76 5786.5L6100.47 5734.1Z" fill="white"/>
<path d="M5204.37 5369.69C5198.29 5369.74 5192.29 5368.43 5186.92 5365.89C5181.56 5363.36 5177 5359.68 5173.67 5355.19C5057.65 5201.98 5015.43 5014.42 5056.29 4833.77C5097.15 4653.12 5217.75 4494.17 5391.55 4391.89C5399.7 4387.12 5409.65 4385.4 5419.24 4387.11C5428.82 4388.82 5437.24 4393.81 5442.65 4400.98C5448.05 4408.16 5450 4416.94 5448.07 4425.39C5446.13 4433.83 5440.47 4441.25 5432.33 4446.02C5274.99 4538.91 5165.91 4683.05 5129.07 4846.79C5092.22 5010.52 5130.61 5180.45 5235.82 5319.25C5241.25 5326.4 5243.24 5335.16 5241.35 5343.6C5239.47 5352.04 5233.85 5359.48 5225.75 5364.28C5219.41 5367.96 5211.96 5369.84 5204.37 5369.69Z" fill="white"/>
<path d="M5360.35 5277.46C5354.32 5277.42 5348.38 5276.08 5343.07 5273.55C5337.76 5271.02 5333.23 5267.38 5329.89 5262.95C5241.59 5146.24 5209.45 5003.4 5240.54 4865.82C5271.63 4728.23 5363.4 4607.15 5495.7 4529.16C5499.73 4526.79 5504.26 4525.14 5509.01 4524.31C5513.77 4523.47 5518.66 4523.47 5523.42 4524.31C5528.18 4525.14 5532.7 4526.79 5536.73 4529.17C5540.76 4531.54 5544.22 4534.6 5546.92 4538.15C5549.61 4541.7 5551.48 4545.69 5552.43 4549.88C5553.37 4554.08 5553.37 4558.39 5552.43 4562.58C5551.48 4566.78 5549.61 4570.76 5546.91 4574.32C5544.22 4577.87 5540.76 4580.92 5536.72 4583.29C5420.6 4651.6 5340.02 4757.77 5312.7 4878.45C5285.38 4999.13 5313.57 5124.43 5391.06 5226.79C5396.49 5233.94 5398.48 5242.7 5396.6 5251.15C5394.71 5259.59 5389.09 5267.03 5380.99 5271.83C5374.88 5275.43 5367.71 5277.39 5360.35 5277.46Z" fill="white"/>
<path d="M5516.58 5185.44C5510.56 5185.47 5504.62 5184.17 5499.31 5181.68C5493.99 5179.19 5489.46 5175.57 5486.12 5171.15C5456.03 5131.42 5435.11 5086.86 5424.58 5040.01C5414.04 4993.15 5414.09 4944.92 5424.72 4898.09C5435.35 4851.25 5456.36 4806.72 5486.54 4767.04C5516.71 4727.37 5555.47 4693.33 5600.59 4666.87C5608.7 4662.43 5618.45 4660.94 5627.79 4662.71C5637.12 4664.48 5645.31 4669.38 5650.63 4676.37C5655.95 4683.36 5657.98 4691.9 5656.3 4700.18C5654.62 4708.47 5649.35 4715.85 5641.61 4720.78C5604.61 4742.56 5572.83 4770.55 5548.1 4803.15C5523.36 4835.75 5506.16 4872.33 5497.47 4910.8C5488.78 4949.26 5488.77 4988.86 5497.44 5027.33C5506.12 5065.79 5523.31 5102.38 5548.02 5134.99C5553.39 5142.16 5555.35 5150.9 5553.46 5159.33C5551.58 5167.75 5546.01 5175.19 5537.95 5180.02C5531.62 5183.7 5524.16 5185.59 5516.58 5185.44Z" fill="white"/>
<path d="M7328.66 5826.34C7320.42 5826.32 7312.43 5823.87 7305.96 5819.37C7299.48 5814.88 7294.91 5808.61 7292.95 5801.55C7291 5794.5 7291.79 5787.07 7295.19 5780.45C7298.59 5773.84 7304.41 5768.42 7311.71 5765.06C7480.01 5688.41 7606.89 5556 7664.47 5396.92C7722.05 5237.85 7705.61 5065.13 7618.76 4916.74C7616.12 4912.93 7614.4 4908.68 7613.71 4904.26C7613.02 4899.83 7613.36 4895.33 7614.73 4891.04C7616.1 4886.74 7618.46 4882.73 7621.66 4879.28C7624.86 4875.82 7628.84 4872.98 7633.34 4870.93C7637.84 4868.89 7642.77 4867.68 7647.83 4867.4C7652.88 4867.11 7657.95 4867.74 7662.71 4869.25C7667.47 4870.77 7671.83 4873.13 7675.51 4876.2C7679.19 4879.26 7682.12 4882.97 7684.1 4887.07C7731.54 4968.16 7760.39 5056.7 7769 5147.61C7777.61 5238.53 7765.82 5330.06 7734.3 5416.96C7702.77 5503.86 7652.13 5584.44 7585.27 5654.08C7518.41 5723.73 7436.64 5781.09 7344.63 5822.87C7339.65 5825.02 7334.21 5826.2 7328.66 5826.34Z" fill="white"/>
<path d="M7242.45 5679.32C7234.21 5679.3 7226.21 5676.85 7219.74 5672.36C7213.27 5667.87 7208.69 5661.59 7206.74 5654.53C7204.78 5647.48 7205.57 5640.05 7208.97 5633.44C7212.37 5626.82 7218.19 5621.4 7225.5 5618.04C7286.96 5590.11 7341.58 5551.77 7386.23 5505.22C7430.87 5458.66 7464.67 5404.81 7485.68 5346.73C7506.69 5288.65 7514.51 5227.49 7508.68 5166.75C7502.86 5106.01 7483.5 5046.88 7451.73 4992.73C7447.23 4985.07 7446.38 4976.14 7449.35 4967.92C7452.32 4959.7 7458.88 4952.85 7467.57 4948.89C7476.27 4944.93 7486.4 4944.17 7495.73 4946.79C7505.06 4949.41 7512.82 4955.19 7517.32 4962.85C7553.52 5024.58 7575.57 5091.98 7582.2 5161.22C7588.83 5230.46 7579.91 5300.17 7555.96 5366.37C7532.01 5432.57 7493.49 5493.95 7442.6 5547.02C7391.71 5600.09 7329.46 5643.79 7259.39 5675.64C7254.18 5678.09 7248.35 5679.36 7242.45 5679.32Z" fill="white"/>
<path d="M7156.23 5532.3C7148.02 5532.18 7140.09 5529.67 7133.67 5525.15C7127.26 5520.63 7122.73 5514.36 7120.79 5507.33C7118.85 5500.3 7119.62 5492.9 7122.96 5486.29C7126.31 5479.68 7132.05 5474.23 7139.28 5470.81C7178.83 5452.87 7213.97 5428.23 7242.71 5398.3C7271.44 5368.38 7293.19 5333.75 7306.72 5296.4C7320.25 5259.05 7325.29 5219.72 7321.56 5180.66C7317.82 5141.59 7305.38 5103.56 7284.94 5068.73C7280.45 5061.07 7279.59 5052.14 7282.56 5043.92C7285.54 5035.69 7292.09 5028.85 7300.79 5024.89C7309.49 5020.92 7319.61 5020.17 7328.94 5022.79C7338.27 5025.41 7346.04 5031.19 7350.53 5038.85C7400.52 5124.6 7409.87 5224.34 7376.53 5316.16C7343.19 5407.98 7269.88 5484.39 7172.69 5528.62C7167.59 5530.94 7161.96 5532.2 7156.23 5532.3Z" fill="white"/>
<path d="M4995.34 2724.9H4807.67C4802.8 2725.01 4798.13 2726.64 4794.49 2729.49C4790.85 2732.34 4788.47 2736.24 4787.78 2740.49L4748.47 3070.47C4748.19 3072.46 4748.4 3074.47 4749.07 3076.39C4749.75 3078.3 4750.88 3080.06 4752.39 3081.56C4753.91 3083.06 4755.76 3084.25 4757.84 3085.06C4759.92 3085.88 4762.17 3086.29 4764.44 3086.27H4952.11C4957.02 3086.16 4961.72 3084.5 4965.36 3081.6C4969.01 3078.71 4971.36 3074.76 4972.01 3070.47L5011.31 2740.49C5011.59 2738.51 5011.39 2736.5 5010.71 2734.6C5010.03 2732.7 5008.9 2730.95 5007.38 2729.47C5005.86 2727.99 5004 2726.82 5001.93 2726.03C4999.85 2725.24 4997.6 2724.86 4995.34 2724.9Z" fill="#003249"/>
<path opacity="0.4" d="M4978.39 2724.9H4807.67C4802.8 2725.01 4798.13 2726.64 4794.49 2729.49C4790.85 2732.34 4788.47 2736.24 4787.78 2740.49L4748.47 3070.47C4748.19 3072.46 4748.4 3074.48 4749.07 3076.39C4749.75 3078.3 4750.88 3080.06 4752.39 3081.56C4753.91 3083.06 4755.76 3084.25 4757.84 3085.07C4759.92 3085.88 4762.17 3086.29 4764.44 3086.28H4936.39C4941.27 3086.15 4945.93 3084.49 4949.54 3081.59C4953.15 3078.69 4955.45 3074.74 4956.04 3070.47L4995.34 2740.49C4995.69 2738.43 4995.5 2736.33 4994.79 2734.34C4994.07 2732.35 4992.85 2730.53 4991.21 2729.03C4989.57 2727.52 4987.57 2726.37 4985.34 2725.65C4983.12 2724.94 4980.74 2724.68 4978.39 2724.9Z" fill="white"/>
<path d="M4054.79 8826.44C4079.35 8826.44 4103.91 8823.19 4112.51 8813.23C4114.6 8810.55 4115.72 8807.38 4115.72 8804.13C4115.72 8800.89 4114.6 8797.72 4112.51 8795.04C4108.93 8790.19 4103.4 8786.71 4097.03 8785.3C4063.63 8777.29 3995.83 8812.36 3992.88 8813.88C3992.12 8814.3 3991.52 8814.93 3991.17 8815.66C3990.82 8816.4 3990.73 8817.21 3990.92 8817.99C3991.1 8818.85 3991.57 8819.64 3992.27 8820.26C3992.98 8820.88 3993.87 8821.3 3994.85 8821.46C4014.63 8824.6 4034.68 8826.26 4054.79 8826.44ZM4084.75 8792.44C4087.77 8792.1 4090.82 8792.1 4093.84 8792.44C4097.75 8793.28 4101.16 8795.36 4103.42 8798.29C4106.86 8803.49 4105.88 8806.08 4103.42 8807.38C4094.82 8818.86 4044.47 8819.07 4007.38 8814.53C4031.2 8802.61 4057.53 8795.1 4084.75 8792.44Z" fill="#003249"/>
<path d="M3994.35 8821.46H3996.32C4020.88 8811.93 4065.59 8774.04 4060.92 8754.12C4060.92 8749.57 4055.76 8743.73 4042.74 8742.64C4038.14 8742.19 4033.47 8742.58 4029.04 8743.77C4024.61 8744.96 4020.49 8746.93 4016.95 8749.57C3992.39 8767.98 3989.69 8814.53 3989.44 8817.13C3989.41 8817.89 3989.6 8818.64 3989.98 8819.32C3990.37 8820 3990.94 8820.59 3991.65 8821.02C3992.49 8821.39 3993.42 8821.54 3994.35 8821.46ZM4039.55 8750.44H4042.25C4050.85 8750.44 4051.59 8754.12 4051.59 8754.98C4054.54 8766.89 4023.58 8796.77 3999.76 8809.76C4001.26 8789.89 4009.86 8770.94 4024.32 8755.63C4028.58 8752.42 4033.95 8750.59 4039.55 8750.44Z" fill="#003249"/>
<path d="M3974.21 8411.37H3775.24V8817.34H3974.21V8411.37Z" fill="#FF8B7B"/>
<path d="M2332.35 8623.77L2531.07 8642.83L2660.53 8248.76L2461.8 8229.71L2332.35 8623.77Z" fill="#FF8B7B"/>
<path d="M2623.44 8682.45C2648 8688.08 2672.56 8690.46 2683.62 8682.45C2686.32 8680.24 2688.15 8677.33 2688.86 8674.14C2689.57 8670.95 2689.11 8667.64 2687.55 8664.7C2686.54 8661.99 2684.93 8659.5 2682.83 8657.34C2680.72 8655.19 2678.15 8653.42 2675.27 8652.14C2644.56 8637.2 2568.41 8656.04 2565.22 8656.69C2564.28 8656.91 2563.45 8657.38 2562.83 8658.04C2562.22 8658.7 2561.85 8659.51 2561.78 8660.37C2561.78 8661.23 2562.06 8662.07 2562.58 8662.8C2563.1 8663.53 2563.85 8664.11 2564.73 8664.48C2583.68 8671.93 2603.32 8677.94 2623.44 8682.45ZM2662.25 8656.47C2665.23 8657.11 2668.12 8658.05 2670.85 8659.28C2674.49 8660.81 2677.31 8663.53 2678.71 8666.86C2680.67 8672.71 2678.71 8674.87 2678.71 8676.17C2666.92 8685.05 2617.54 8674.44 2582.41 8661.88C2608.39 8655.58 2635.51 8653.82 2662.25 8656.69V8656.47Z" fill="#003249"/>
<path d="M2565.72 8664.91H2567.68C2592.25 8660.8 2648.74 8634.38 2649.73 8614.46C2649.73 8609.7 2647.76 8603.2 2635.23 8599.31C2630.82 8597.91 2626.13 8597.3 2621.45 8597.53C2616.77 8597.75 2612.18 8598.8 2607.97 8600.61C2578.98 8612.95 2562.77 8657.55 2562.03 8659.28C2561.62 8659.91 2561.41 8660.62 2561.41 8661.34C2561.41 8662.06 2561.62 8662.77 2562.03 8663.4C2562.45 8663.91 2563.01 8664.31 2563.65 8664.58C2564.3 8664.84 2565.01 8664.96 2565.72 8664.91ZM2629.58 8606.67H2632.53C2640.64 8609.27 2640.39 8612.3 2640.39 8613.16C2640.39 8625.29 2601.09 8647.16 2574.07 8654.3C2580.87 8635.58 2594.3 8619.26 2612.39 8607.75C2617.78 8605.57 2623.89 8605.19 2629.58 8606.67Z" fill="#003249"/>
<path d="M2541.64 8626.59L2324.25 8571.59C2320.51 8570.61 2316.5 8570.8 2312.91 8572.15C2309.33 8573.49 2306.38 8575.9 2304.6 8578.96L2224.52 8719.04C2222.65 8722.59 2221.69 8726.46 2221.7 8730.37C2221.72 8734.28 2222.71 8738.14 2224.61 8741.67C2226.51 8745.21 2229.27 8748.33 2232.69 8750.82C2236.12 8753.3 2240.12 8755.1 2244.42 8756.07C2320.56 8774.04 2358.64 8779.67 2454.19 8803.7C2512.9 8818.64 2632.53 8854.59 2713.83 8875.15C2795.14 8895.72 2825.11 8828.39 2793.67 8813.66C2652.67 8747.62 2607.47 8694.36 2570.13 8644.99C2563.44 8636.05 2553.33 8629.53 2541.64 8626.59Z" fill="#263238"/>
<path d="M3972 8796.99H3754.86C3750.95 8796.95 3747.16 8798.16 3744.18 8800.38C3741.2 8802.61 3739.24 8805.71 3738.65 8809.12L3706.96 8963.93C3706.25 8967.79 3706.5 8971.74 3707.69 8975.51C3708.88 8979.28 3710.98 8982.78 3713.85 8985.77C3716.72 8988.75 3720.3 8991.15 3724.32 8992.8C3728.35 8994.45 3732.73 8995.31 3737.17 8995.32C3815.53 8994.02 3928.53 8989.91 4027.03 8989.91C4142.23 8989.91 4205.12 8995.54 4340.22 8995.54C4421.77 8995.54 4440.93 8922.79 4406.3 8916.08C4249.33 8886.2 4158.69 8882.95 4020.64 8809.77C4005.98 8801.83 3989.21 8797.42 3972 8796.99Z" fill="#263238"/>
<path opacity="0.2" d="M3974.21 8411.37H3775.24V8620.74H3974.21V8411.37Z" fill="black"/>
<path opacity="0.2" d="M2461.81 8229.92L2660.53 8248.76L2588.56 8467.45L2394.99 8433.02L2461.81 8229.92Z" fill="black"/>
<path d="M3647.02 4373.7C3647.02 4373.7 3537.22 5697.51 3438.96 6199.4C3330.64 6749.14 2700.33 8432.37 2700.33 8432.37L2339.23 8374.13C2339.23 8374.13 2794.41 6793.53 2844.76 6249.2C2899.54 5658.53 2965.37 4441.04 2965.37 4441.04L3647.02 4373.7Z" fill="#003249"/>
<path opacity="0.3" d="M3462.06 4923.66C3481.71 4850.91 3526.91 4942.5 3579.47 5101.21C3539.68 5493.98 3487.85 5948.89 3438.23 6199.62C3427.18 6255.7 3410.47 6323.68 3389.1 6400.76C3408.02 5840.41 3408.75 5120.48 3462.06 4923.66Z" fill="black"/>
<path d="M4022.11 4337.76C4022.11 4337.76 4166.3 5668.49 4171.21 6203.08C4176.37 6759.32 4046.43 8580.25 4046.43 8580.25H3709.16C3709.16 8580.25 3607.96 6791.8 3565.96 6245.52C3520.02 5650.09 3326.7 4405.1 3326.7 4405.1L4022.11 4337.76Z" fill="#003249"/>
<path d="M2775.73 8325.19C2777.21 8325.19 2718.99 8440.6 2718.99 8440.6L2312.7 8375.64L2337.27 8268.46L2775.73 8325.19Z" fill="#263238"/>
<path d="M4105.39 8461.82C4106.86 8461.82 4092.37 8585.24 4092.37 8585.24H3682.64L3665.94 8475.24L4105.39 8461.82Z" fill="#263238"/>
<path d="M2975.19 3151.66C2948.17 3197.78 2918.45 3246.28 2891.43 3294.13L2808.9 3438.34C2782.12 3486.4 2755.84 3534.69 2730.54 3582.97C2705.24 3631.26 2681.41 3679.32 2661.02 3727.39L2659.06 3651.61C2673.41 3690.52 2690.65 3728.57 2710.64 3765.5C2720.22 3784.55 2732.5 3802.74 2743.06 3821.58C2753.63 3840.41 2767.63 3858.39 2780.16 3876.14C2806.22 3912.84 2834.42 3948.33 2864.66 3982.45C2879.89 3999.56 2895.12 4017.09 2911.33 4033.55C2927.54 4050.01 2945.23 4067.11 2960.46 4081.18L2965.37 4085.95C2976.69 4096.9 2983.21 4111.05 2983.77 4125.86C2984.33 4140.66 2978.89 4155.16 2968.43 4166.75C2957.96 4178.35 2943.16 4186.28 2926.66 4189.13C2910.17 4191.98 2893.07 4189.56 2878.41 4182.3C2853.02 4169.69 2828.42 4155.89 2804.72 4140.94C2780.16 4126.65 2758.54 4111.71 2736.43 4095.91C2692.18 4063.91 2650.63 4029.1 2612.14 3991.76C2572.84 3953.82 2537.11 3913.12 2505.29 3870.08C2472.59 3826.22 2444.16 3780.01 2420.29 3731.94C2409.78 3711.53 2407.95 3688.48 2415.14 3666.98L2418.57 3656.81C2437.24 3600.29 2458.12 3545.51 2481.21 3491.82C2504.3 3438.12 2528.87 3385.51 2554.9 3333.76C2580.94 3282.01 2608.21 3230.91 2636.95 3180.46C2665.69 3130.01 2694.67 3080.65 2727.84 3030.2C2746.16 3001.32 2776.67 2979.99 2812.74 2970.84C2848.81 2961.68 2887.52 2965.44 2920.46 2981.3C2953.4 2997.16 2977.91 3023.83 2988.67 3055.53C2999.42 3087.23 2995.55 3121.39 2977.9 3150.58L2975.19 3151.66Z" fill="#FF8B7B"/>
<path d="M3116.2 3074.58C3126.02 3239.79 2913.3 3543.13 2913.3 3543.13L2475.32 3350.21C2528.55 3213.38 2610.92 3086.76 2718.01 2977.15C2949.65 2751.53 3107.11 2923.02 3116.2 3074.58Z" fill="#263238"/>
<path d="M2819.46 4151.34L2907.65 4281.25L3091.14 4177.75C3059.09 4127.13 3008.9 4087.3 2948.42 4064.51C2934.44 4060.57 2919.32 4061.18 2905.8 4066.23C2892.28 4071.27 2881.26 4080.42 2874.73 4092.01L2819.46 4151.34Z" fill="#FF8B7B"/>
<path d="M2981.09 4336.68L3066.32 4322.61C3073.5 4321.44 3080.34 4319.03 3086.45 4315.51C3092.57 4312 3097.83 4307.46 3101.94 4302.14C3106.05 4296.83 3108.93 4290.85 3110.4 4284.55C3111.88 4278.25 3111.93 4271.76 3110.54 4265.44L3091.13 4178.84L2907.64 4282.33L2919.92 4308.53C2924.95 4318.67 2933.75 4326.99 2944.88 4332.11C2956 4337.23 2968.78 4338.84 2981.09 4336.68Z" fill="#FF8B7B"/>
<path d="M3498.66 2244.45C3500.38 2258.52 3510.45 2269.56 3520.76 2268.7C3531.08 2267.83 3537.96 2255.92 3535.99 2241.85C3534.03 2227.77 3524.2 2216.73 3513.89 2217.38C3503.57 2218.03 3496.69 2230.16 3498.66 2244.45Z" fill="#263238"/>
<path d="M3508.97 2269.56C3533.81 2311.62 3564.78 2350.63 3601.08 2385.62C3576.52 2410.95 3527.39 2403.59 3527.39 2403.59L3508.97 2269.56Z" fill="#FF5652"/>
<path d="M3429.88 2169.75C3431.16 2169.91 3432.46 2169.82 3433.69 2169.49C3434.93 2169.15 3436.06 2168.57 3437 2167.8C3445.52 2160.77 3455.86 2155.69 3467.13 2153.01C3478.39 2150.33 3490.23 2150.13 3501.6 2152.42C3502.77 2152.75 3503.99 2152.86 3505.2 2152.75C3506.42 2152.64 3507.59 2152.31 3508.65 2151.79C3509.71 2151.26 3510.64 2150.54 3511.37 2149.68C3512.1 2148.82 3512.62 2147.84 3512.9 2146.79C3513.52 2144.64 3513.17 2142.37 3511.94 2140.43C3510.71 2138.5 3508.68 2137.05 3506.27 2136.4C3491.91 2133.38 3476.93 2133.5 3462.63 2136.74C3448.33 2139.99 3435.15 2146.26 3424.23 2155.02C3423.31 2155.79 3422.59 2156.71 3422.09 2157.74C3421.59 2158.76 3421.34 2159.86 3421.34 2160.98C3421.34 2162.09 3421.59 2163.19 3422.09 2164.21C3422.59 2165.24 3423.31 2166.16 3424.23 2166.93C3424.91 2167.71 3425.76 2168.36 3426.73 2168.84C3427.7 2169.32 3428.77 2169.63 3429.88 2169.75Z" fill="#263238"/>
<path d="M3003.45 2401.21C3050.36 2526.57 3112.76 2757.6 3023.83 2850.27C3023.83 2850.27 3082.3 2976.5 3351.52 2956.36C3648 2934.71 3474.34 2816.71 3474.34 2816.71C3307.79 2795.05 3296.49 2689.18 3310.25 2588.06L3003.45 2401.21Z" fill="#FF8B7B"/>
<path d="M2960.21 2895.95C2932.45 2856.76 2901.5 2811.94 2954.07 2795.27C3011.79 2776.87 3336.04 2746.99 3451.49 2772.1C3566.94 2797.22 3543.36 2880.36 3543.36 2880.36L2960.21 2895.95Z" fill="#003249"/>
<path d="M3909.61 2948.78C3951.86 2982.99 3997.55 3020.89 4042.99 3055.53C4088.43 3090.17 4134.37 3125.68 4180.55 3159.89C4226.73 3194.1 4273.89 3226.36 4321.3 3257.76C4368.71 3289.15 4416.85 3317.73 4465 3344.37L4366.74 3336.14C4407.58 3326.54 4446.22 3310.79 4480.97 3289.59C4521.57 3264.57 4559.25 3236.07 4593.47 3204.49C4630.34 3171.23 4664.88 3136.02 4696.88 3099.05C4713.34 3080.21 4729.8 3061.16 4746.01 3041.46C4762.22 3021.75 4776.96 3000.97 4790.47 2982.78L4793.17 2979.31C4802.5 2966.75 4816.64 2957.57 4833.02 2953.43C4849.39 2949.3 4866.9 2950.49 4882.36 2956.79C4897.82 2963.09 4910.2 2974.08 4917.23 2987.76C4924.26 3001.43 4925.48 3016.88 4920.66 3031.28C4911.33 3059.43 4901.5 3083.46 4890.2 3108.58C4878.9 3133.69 4867.11 3158.38 4853.85 3182.63C4826.95 3232.09 4795.48 3279.53 4759.77 3324.45C4722.27 3372.08 4678.58 3415.68 4629.58 3454.36C4575.34 3497.03 4512.41 3530.24 4444.12 3552.23C4429.46 3556.78 4413.92 3558.72 4398.4 3557.94C4382.89 3557.16 4367.7 3553.67 4353.72 3547.68L4345.62 3544C4284.63 3517.58 4225.41 3488.08 4168.27 3455.66C4112.51 3423.83 4058.46 3390.7 4006.39 3355.19C3954.31 3319.68 3903.96 3283.74 3854.83 3246.93C3805.7 3210.12 3758.54 3171.58 3710.64 3128.5C3685.15 3105.06 3670.95 3073.84 3671.01 3041.37C3671.07 3008.91 3685.39 2977.73 3710.97 2954.37C3736.55 2931.01 3771.39 2917.29 3808.2 2916.09C3845 2914.89 3880.91 2926.29 3908.38 2947.92L3909.61 2948.78Z" fill="#FF8B7B"/>
<path d="M3759.52 2836.41C3759.52 2836.41 4007.13 3048.17 4035.87 4357.9C3639.89 4442.56 3258.91 4473.74 2964.63 4440.82C2950.63 4276.49 2929.75 3706.17 2740.61 3104.9C2732.48 3079.57 2730.42 3053.03 2734.55 3026.97C2738.67 3000.9 2748.9 2975.88 2764.59 2953.48C2780.27 2931.09 2801.06 2911.81 2825.65 2896.88C2850.23 2881.94 2878.07 2871.67 2907.4 2866.72C2944.98 2860.23 2984.53 2854.38 3023.83 2849.84C3173.14 2831.01 3323.56 2819.81 3474.33 2816.28C3569.82 2816.96 3665.13 2823.69 3759.52 2836.41Z" fill="#263238"/>
<path d="M3567.43 3064.62C3592 3228.53 3911.33 3543.57 3911.33 3543.57L4290.35 3197.13C4177.76 3092.94 4056.04 2996.73 3926.31 2909.38C3648.49 2726.42 3545.32 2912.63 3567.43 3064.62Z" fill="#263238"/>
<path d="M4896.1 3088.87L5022.85 2986.46L4871.04 2848.97C4820.83 2886.66 4786.26 2938 4772.78 2994.9C4771.3 3007.91 4775.21 3020.96 4783.79 3031.62C4792.37 3042.29 4805.04 3049.86 4819.46 3052.93L4896.1 3088.87Z" fill="#FF8B7B"/>
<path d="M5069.52 2911.98L5036.85 2841.17C5034.09 2835.1 5029.96 2829.57 5024.73 2824.93C5019.5 2820.28 5013.26 2816.61 5006.39 2814.13C4999.52 2811.64 4992.15 2810.4 4984.73 2810.47C4977.3 2810.54 4969.97 2811.93 4963.16 2814.54L4870.06 2848.97L5021.87 2986.46L5048.4 2970.65C5059.04 2964.51 5066.96 2955.32 5070.81 2944.63C5074.66 2933.94 5074.2 2922.4 5069.52 2911.98Z" fill="#FF8B7B"/>
<path d="M2965.62 2251.81C3001.24 2425.02 3012.04 2527.65 3122.58 2610.15C3288.88 2734.21 3518.31 2637.65 3540.17 2460.75C3560.8 2301.39 3499.15 2044.81 3299.2 1988.95C3099.25 1933.09 2930 2078.59 2965.62 2251.81Z" fill="#FF8B7B"/>
<path d="M3352.99 2314.16C3422.02 2328.02 3475.81 2257.65 3483.18 2237.73C3449.53 2240.55 3389.84 2225.39 3378.05 2211.97C3414.89 2214.78 3450.51 2174.73 3454.93 2159.35C3415.84 2152.7 3381.22 2132.9 3358.4 2104.14C3418.09 2103.06 3489.81 2010.39 3424.23 1927.46C3358.64 1844.53 3084.51 1914.04 3045.94 1854.93C2988.46 1884.37 3039.55 1923.56 3039.55 1923.56C3039.55 1923.56 2651.69 1988.52 2830.51 2120.38C2699.34 2130.77 2680.92 2267.4 2790.23 2336.9C2899.54 2406.4 2905.19 2452.3 2861.71 2446.67C2879.15 2476.12 2957.02 2480.02 2961.44 2451.44C2979.86 2511.41 3032.92 2592.61 3155.25 2579.4C3277.58 2566.19 3397.45 2415.28 3352.99 2314.16Z" fill="#263238"/>
<path d="M2864.41 2100.24C2772.05 2111.5 2730.04 2065.6 2753.13 2025.11C2638.67 2076.64 2763.7 2190.53 2864.41 2100.24Z" fill="#263238"/>
<path d="M3257.43 2287.75C3273.33 2324.04 3301.44 2355.17 3338 2376.96C3387.13 2405.54 3431.59 2376.96 3423.24 2333.65C3415.62 2293.81 3380.99 2230.8 3329.9 2219.55C3319.31 2216.48 3307.96 2216.15 3297.17 2218.59C3286.38 2221.02 3276.61 2226.12 3268.99 2233.28C3261.38 2240.45 3256.25 2249.38 3254.2 2259.03C3252.15 2268.68 3253.27 2278.64 3257.43 2287.75Z" fill="#FF8B7B"/>
<path d="M9500.86 8390.58C9319.09 8012.54 9245.64 7567.81 9453.7 7586.21C9667.16 7604.4 9642.11 8274.74 9676.74 8348.36C9610.17 8398.81 9500.86 8390.58 9500.86 8390.58Z" fill="#003249"/>
<path d="M9559.82 7673.25C9515.11 7817.46 9467.7 8040.25 9431.59 8229.06C9452.23 8283.19 9475.56 8337.32 9500.86 8390.58C9500.86 8390.58 9609.93 8398.81 9676.99 8348.36C9649.48 8290.34 9659.3 7860.76 9559.82 7673.25Z" fill="#263238"/>
<path d="M9560.8 8321.3C9503.81 7518.01 9659.06 6773.4 10067.8 6806.96C10418.6 6835.97 9907.15 8188.35 9916.98 8344.25C9756.33 8399.24 9560.8 8321.3 9560.8 8321.3Z" fill="#003249"/>
<path d="M9825.6 8316.1C9889.71 7738.64 10235.3 7064.83 10383.7 7290.01C10572.1 7575.82 10088.9 8256.56 10075.9 8368.5C9955.05 8391.45 9825.6 8316.1 9825.6 8316.1Z" fill="#003249"/>
<path d="M9761 7021.53C9719.48 7015.47 9696.39 6992.73 9699.1 6960.47C9702.04 6924.09 9735.94 6887.93 9767.38 6887.5C9782.61 6887.5 9808.16 6894.43 9814.55 6944.45L9789.98 6947.04C9787.03 6923.23 9778.93 6909.15 9768.12 6909.15C9751.42 6909.15 9725.87 6936 9723.91 6961.98C9722.19 6983.64 9735.94 6995.76 9765.17 7000.09L9761 7021.53Z" fill="#003249"/>
<path d="M10202.2 7166.81C10184.3 7165.54 10167.3 7159.75 10153 7150.14L10166.3 7132.17C10189.1 7145.16 10206.8 7148.62 10213.7 7141.26C10224 7129.57 10216.9 7095.36 10195.5 7077.39C10178.3 7062.88 10158.2 7063.96 10135.8 7081.29L10119.9 7064.83C10125.6 7059.12 10132.6 7054.5 10140.5 7051.24C10148.3 7047.98 10156.8 7046.16 10165.4 7045.87C10174.1 7045.59 10182.7 7046.86 10190.8 7049.59C10198.9 7052.33 10206.3 7056.48 10212.5 7061.8C10242.4 7086.92 10252.5 7132.82 10232.9 7154.69C10229.2 7158.74 10224.5 7161.96 10219.2 7164.07C10213.9 7166.18 10208 7167.12 10202.2 7166.81Z" fill="#003249"/>
<path d="M9600.1 7493.76C9585.23 7494.69 9570.48 7490.81 9558.63 7482.84C9546.78 7474.86 9538.64 7463.35 9535.74 7450.45C9525.92 7415.16 9545.57 7371.64 9575.53 7362.55C9589.54 7358.43 9616.56 7358 9640.14 7404.12L9617.54 7413.21C9606.48 7391.56 9592.97 7379.87 9583.39 7383.12C9567.67 7387.88 9552.69 7420.14 9558.83 7445.26C9564.48 7466.91 9583.39 7474.27 9611.4 7470.37L9615.08 7492.03C9610.15 7492.98 9605.14 7493.56 9600.1 7493.76Z" fill="#003249"/>
<path d="M9338.5 7942.17C9326.53 7942.41 9314.75 7939.46 9304.71 7933.71C9294.67 7927.95 9286.84 7919.66 9282.25 7909.91C9265.05 7876.78 9275.12 7830.66 9302.39 7816.81C9315.41 7810.31 9341.94 7805.55 9374.85 7847.12L9354.71 7859.46C9338.99 7839.76 9324 7830.88 9314.67 7835.64C9300.18 7843.01 9292.32 7877.22 9304.6 7900.6C9314.67 7919.87 9333.83 7925.07 9361.59 7916.41L9369.69 7936.97C9359.72 7940.3 9349.16 7942.06 9338.5 7942.17Z" fill="#003249"/>
<path d="M9773.77 7288.5C9771.23 7288.49 9768.75 7287.81 9766.65 7286.55C9751.39 7279.11 9739.7 7267.05 9733.74 7252.6C9727.78 7238.15 9727.95 7222.29 9734.22 7207.95C9741.33 7193.57 9753.51 7181.59 9768.95 7173.79C9784.4 7165.99 9802.28 7162.78 9819.95 7164.65C9835.18 7167.03 9870.8 7178.94 9873.26 7236.53C9873.26 7239.4 9871.96 7242.16 9869.66 7244.19C9867.36 7246.22 9864.23 7247.36 9860.97 7247.36C9857.72 7247.36 9854.59 7246.22 9852.29 7244.19C9849.99 7242.16 9848.69 7239.4 9848.69 7236.53C9847.22 7206.43 9835.67 7188.25 9815.53 7185C9803.31 7184.14 9791.08 7186.66 9780.56 7192.21C9770.04 7197.76 9761.74 7206.06 9756.82 7215.96C9747.98 7234.37 9756.82 7252.99 9781.39 7268.36C9783.54 7269.68 9785.15 7271.58 9785.99 7273.77C9786.83 7275.95 9786.86 7278.32 9786.06 7280.52C9785.26 7282.73 9783.69 7284.65 9781.57 7286C9779.44 7287.36 9776.88 7288.08 9774.26 7288.06L9773.77 7288.5Z" fill="white"/>
<path d="M10064.8 7872.88C10062 7872.92 10059.3 7872.06 10057.1 7870.48C10055 7868.89 10053.5 7866.67 10053.1 7864.22C10052.7 7862.84 10052.7 7861.41 10052.9 7860.02C10053.2 7858.62 10053.8 7857.29 10054.7 7856.1C10055.5 7854.91 10056.7 7853.88 10058 7853.09C10059.3 7852.29 10060.8 7851.73 10062.4 7851.45C10095.8 7845.39 10114.2 7832.18 10114.7 7814.21C10113.6 7803.44 10108.7 7793.24 10100.8 7785.01C10092.8 7776.79 10082.1 7770.95 10070.3 7768.3C10048.1 7763.54 10028.5 7774.15 10015.5 7797.97C10014.8 7799.25 10013.8 7800.39 10012.6 7801.33C10011.4 7802.28 10009.9 7803 10008.4 7803.46C10006.9 7803.92 10005.3 7804.12 10003.7 7804.03C10002 7803.94 10000.5 7803.57 9999.02 7802.95C9997.57 7802.32 9996.27 7801.45 9995.2 7800.38C9994.13 7799.32 9993.31 7798.07 9992.78 7796.73C9992.26 7795.38 9992.04 7793.95 9992.14 7792.53C9992.24 7791.11 9992.66 7789.72 9993.37 7788.44C9999.39 7774.08 10011 7762.05 10026.1 7754.49C10041.2 7746.92 10058.8 7744.3 10075.9 7747.08C10093.2 7750.86 10108.8 7759.44 10120.2 7771.56C10131.6 7783.68 10138.3 7798.7 10139.3 7814.42C10139.3 7828.06 10131.4 7860.97 10067.6 7872.67L10064.8 7872.88Z" fill="white"/>
<path d="M10410.2 7690.36C10396 7690.36 10377.1 7683 10355.9 7655.07L10376.3 7642.94C10391.6 7662.86 10406 7671.95 10415.6 7667.41C10430.4 7660.48 10440.2 7626.27 10427.2 7602.45C10417.8 7583.18 10398.7 7577.55 10370.7 7585.56L10363.1 7564.99C10402.9 7553.52 10435.3 7564.99 10449.8 7594.01C10466.2 7627.35 10455.2 7673.25 10427.4 7686.46C10422.2 7689.07 10416.2 7690.42 10410.2 7690.36Z" fill="#003249"/>
<path d="M10337 8528.07C10337.2 8412.53 10290.2 8300.78 10204.6 8213.25C10213 8212.17 10220.7 8208.48 10226.3 8202.84C10231.9 8197.2 10235 8189.99 10235.1 8182.51C10235 8174.05 10231.2 8165.95 10224.3 8159.99C10217.5 8154.03 10208.3 8150.68 10198.7 8150.68H9376.32C9367.37 8150.79 9358.78 8153.85 9352.25 8159.25C9345.73 8164.66 9341.73 8172.02 9341.05 8179.9C9340.38 8187.77 9343.07 8195.58 9348.59 8201.79C9354.12 8208.01 9362.08 8212.17 9370.92 8213.47C9317.13 8268.54 9278.12 8333.58 9256.8 8403.78C9235.47 8473.97 9232.38 8547.49 9247.74 8618.88C9263.11 8690.27 9296.54 8757.69 9345.56 8816.12C9394.57 8874.55 9457.9 8922.48 9530.83 8956.35C9522.88 8959.96 9516.55 8965.82 9512.84 8972.99C9509.14 8980.16 9508.28 8988.23 9510.41 8995.88C9512.54 9003.53 9517.53 9010.33 9524.57 9015.18C9531.62 9020.03 9540.31 9022.64 9549.25 9022.61H10025.5C10036.1 9022.55 10046.2 9018.83 10053.6 9012.27C10061.1 9005.7 10065.3 8996.81 10065.3 8987.53C10065.3 8981.12 10063.3 8974.83 10059.5 8969.34C10055.8 8963.85 10050.4 8959.36 10044 8956.35C10132.4 8915.24 10206.5 8853.62 10258.1 8778.15C10309.7 8702.68 10337 8616.21 10337 8528.07Z" fill="#263238"/>
</svg>
