<svg width="5227" height="3028" viewBox="0 0 5227 3028" fill="none" xmlns="http://www.w3.org/2000/svg">
<g filter="url(#filter0_d_20_2)">
<g clip-path="url(#clip0_20_2)">
<path d="M4 0H5223V3020H4V0Z" fill="#D4E9EC"/>
<path d="M4 0H5223V3020H4V0ZM1896.57 380.449L1821.82 386.348L1770.85 392.246L1699.5 404.043L1631.54 418.789L1529.61 448.281L1461.65 474.824L1383.5 510.215L1308.75 551.504L1237.4 598.691L1200.02 625.234L1159.25 657.676L1132.07 678.32L1081.1 722.559L1057.31 746.152L1013.14 790.391L979.165 828.73L938.391 878.867L904.413 923.105L884.027 952.598L856.844 999.785L833.06 1041.07L812.673 1088.26L795.684 1129.55L775.298 1188.54L758.309 1259.32L744.717 1359.59V1512.95H737.922L731.126 1501.15L697.148 1477.56L663.171 1462.81L629.193 1453.96H540.85L503.475 1465.76L489.883 1477.56L506.872 1486.41L520.464 1504.1L540.85 1551.29L564.635 1583.73L588.419 1604.38L618.999 1622.07L652.977 1633.87L676.762 1636.82L775.298 1639.77L788.889 1669.26L799.082 1701.7H714.137L710.74 1725.29L697.148 1731.19L669.966 1748.89L642.784 1760.68L574.828 1784.28L564.635 1796.07L554.441 1831.46V1911.09L564.635 1964.18L574.828 1996.62L598.613 2052.66L639.386 2132.29L673.364 2188.32L710.74 2238.46L724.331 2259.1L751.513 2294.49L754.911 2633.65H700.546L663.171 2636.6L646.182 2645.45L649.579 2660.2L656.375 2663.14L700.546 2666.09H4128.91L4173.08 2663.14H4336.18L4366.76 2660.2L4373.55 2654.3L4370.16 2639.55L4366.76 2636.6L4336.18 2633.65L4251.23 2630.7L4264.82 2618.91L4271.62 2607.11V2586.46L4258.03 2562.87L4241.04 2548.12L4210.46 2527.48L4159.49 2509.79L4122.12 2500.94L4081.34 2497.99H4009.99L3982.81 2500.94L4023.58 2486.19L4074.55 2459.65L4115.32 2427.21L4128.91 2403.61L4156.09 2380.02L4193.47 2353.48L4271.62 2285.64L4295.4 2262.05L4329.38 2229.61L4366.76 2188.32L4383.75 2170.62V2164.73H4390.54L4427.92 2117.54L4472.09 2052.66L4512.86 1987.77L4557.03 1902.25L4584.22 1840.31L4614.8 1748.89L4635.18 1663.36L4645.38 1592.58L4652.17 1545.39V1371.39L4641.98 1288.81L4621.59 1197.38L4608 1150.2L4584.22 1082.36L4557.03 1017.48L4526.45 958.496L4485.68 890.664L4465.29 861.172H4458.5V834.629L4451.7 822.832L4424.52 811.035L4383.75 760.898L4353.17 728.457L4312.39 687.168L4237.64 622.285L4200.27 595.742L4149.3 560.352L4091.54 527.91L4033.77 498.418L3976.01 474.824L3894.47 445.332L3829.91 427.637L3755.16 409.941L3653.22 395.195L3564.88 386.348L3510.52 383.398L3384.8 380.449H1896.57Z" fill="#F9F7F8"/>
<path d="M2654.27 1014.53H3850.29L3867.28 1023.38L3877.48 1041.07V1622.07L3863.89 1639.77L3843.5 1648.61H3408.58V1772.48H3615.85L3622.64 1781.33L3619.24 1796.07L3615.85 1801.97H3921.65L3938.64 1813.77V1840.31L3931.84 1855.06L3918.25 1863.91H3785.74V1908.14L3778.94 1916.99L1988.31 1919.94L2022.29 1925.84L2124.22 1934.69L2300.9 1943.54L2355.27 1952.38L2389.25 1964.18L2416.43 1981.88L2440.21 2002.52L2453.8 2026.11L2460.6 2052.66V2093.95L2450.41 2147.03L2413.03 2265L2382.45 2353.48L2355.27 2436.05L2334.88 2489.14L2331.48 2500.94H2277.12L2202.37 2495.04L2164.99 2486.19V2450.8L2168.39 2421.31L2164.99 2412.46L2161.59 2377.07L2124.22 2247.3V2241.41H1995.1L2005.3 2409.51L2008.69 2439V2495.04L1961.12 2503.89L1940.74 2506.84L1849 2509.79L1838.8 2471.45L1815.02 2368.22L1801.43 2321.04L1787.84 2282.7L1777.64 2253.2V2241.41H1753.86V2270.9L1733.47 2500.94L1726.68 2577.62L1723.28 2636.6H1852.4V2613.01L1865.99 2539.28L1872.78 2530.43L1889.77 2524.53H1930.54L1950.93 2521.58H1991.71L2032.48 2551.07L2059.66 2568.77L2086.84 2586.46L2144.61 2613.01L2151.4 2574.67L2161.59 2530.43L2168.39 2521.58L2198.97 2524.53H2239.74L2253.33 2521.58H2290.71L2324.69 2551.07L2341.68 2559.92H2392.64L2382.45 2565.82H2362.06L2379.05 2580.57L2443.61 2613.01L2474.19 2633.65L2484.38 2642.5V2657.25L2477.59 2660.2H2348.47L2277.12 2657.25H2188.78L2171.79 2666.09H700.546L656.375 2663.14L646.182 2657.25L649.579 2642.5L663.171 2636.6L700.546 2633.65H754.911L751.513 2294.49L724.331 2259.1L690.353 2211.91L649.579 2149.98L615.602 2088.05L581.624 2014.32L568.033 1975.98L557.839 1928.79L554.441 1911.09V1831.46L564.635 1796.07L581.624 1781.33L659.773 1754.79L697.148 1731.19L710.74 1725.29L714.137 1701.7H799.082L782.093 1651.56L775.297 1639.77L676.762 1636.82L646.182 1630.92L615.602 1619.12L585.021 1601.43L561.237 1580.78L537.452 1545.39L520.464 1504.1L506.872 1486.41L489.883 1474.61L510.27 1462.81L540.85 1453.96H629.193L680.159 1468.71L724.331 1495.25L748.115 1518.85L775.297 1566.04L795.684 1648.61L809.275 1686.95V1701.7H822.866V1636.82L829.662 1566.04L839.855 1536.54H843.253V1586.68L839.855 1701.7H860.242V1681.05L863.64 1657.46L853.447 1636.82V1586.68L870.435 1557.19L901.016 1527.7L934.993 1507.05L972.369 1492.3L985.96 1489.36H1050.52L1043.72 1530.64L1026.73 1583.73L1009.74 1607.32L982.562 1630.92L934.993 1651.56L880.629 1663.36L867.038 1701.7H901.016L907.811 1707.6V1769.53L894.22 1793.12L887.424 1799.02H1019.94L1013.14 1775.43V1754.79L1023.34 1728.24L1036.93 1704.65H1186.43L1397.09 1710.55H1519.41L1522.81 1707.6V1678.11L1509.22 1660.41L1244.19 1657.46L1036.93 1648.61V1636.82H1240.79L1217.01 1489.36L1196.62 1383.18V1377.29H1203.42L1230.6 1518.85L1244.19 1601.43L1250.99 1633.87L1312.15 1639.77V1524.75L1325.74 1445.12L1342.73 1377.29L1359.72 1347.79L1390.3 1321.25L1434.47 1297.66L1505.82 1271.11L1549.99 1259.32L1611.15 1238.67H1628.14L1651.93 1265.21L1675.71 1282.91L1723.28 1303.55L1736.87 1306.5H1774.25L1794.63 1297.66L1815.02 1277.01L1818.42 1250.47L1842.2 1253.42L1967.92 1291.76L2015.49 1327.15L2080.05 1368.44L2141.21 1400.88L2175.19 1418.57L2195.57 1427.42L2219.36 1424.47L2277.12 1397.93L2324.69 1368.44L2379.05 1330.1L2399.44 1315.35L2413.03 1318.3L2447.01 1347.79L2474.19 1368.44L2470.79 1383.18L2440.21 1442.17L2436.82 1448.07L2195.57 1451.02V1456.91L2198.97 1453.96H2732.42L2742.62 1465.76L2739.22 1492.3L2722.23 1557.19L3826.51 1560.14V1064.67H2674.66V1448.07H2630.49V1035.18L2647.48 1017.48L2654.27 1014.53Z" fill="#A4D1DE"/>
<path d="M2654.27 1014.53H3850.29L3867.28 1023.38L3877.48 1041.07V1622.07L3863.89 1639.77L3843.5 1648.61H3408.58V1772.48H3615.85L3622.64 1781.33L3619.24 1796.07L3612.45 1801.97H2960.07L2949.88 1793.12V1778.38L2956.68 1772.48H3119.77V1648.61H2691.65L2688.25 1681.05L2674.66 1728.24L2664.47 1763.63L2654.27 1796.07L2637.28 1810.82H2076.65L2069.85 1807.87V1801.97L1668.92 1804.92L1600.96 1807.87H1549.99V1801.97H1533L1529.61 1799.02V1760.68L1539.8 1742.99H1563.58V1728.24H1536.4L1539.8 1707.6H1533L1526.21 1719.39L1522.81 1725.29L1053.92 1728.24L1036.93 1745.94V1772.48L1043.72 1790.18L1104.88 1793.12L1267.98 1804.92V1810.82H1176.24L1043.72 1804.92L1023.34 1793.12L1013.14 1775.43V1754.79L1023.34 1728.24L1036.93 1704.65H1186.43L1397.09 1710.55H1519.41L1522.81 1707.6V1678.11L1509.22 1660.41L1244.19 1657.46L1036.93 1648.61V1636.82H1240.79L1217.01 1489.36L1196.62 1383.18V1377.29H1203.42L1230.6 1518.85L1244.19 1601.43L1250.99 1633.87L1312.15 1639.77V1524.75L1325.74 1445.12L1342.73 1377.29L1359.72 1347.79L1390.3 1321.25L1434.47 1297.66L1505.82 1271.11L1549.99 1259.32L1611.15 1238.67H1628.14L1651.93 1265.21L1675.71 1282.91L1723.28 1303.55L1736.87 1306.5H1774.25L1794.63 1297.66L1815.02 1277.01L1818.42 1250.47L1842.2 1253.42L1967.92 1291.76L2015.49 1327.15L2080.05 1368.44L2141.21 1400.88L2175.19 1418.57L2195.57 1427.42L2219.36 1424.47L2277.12 1397.93L2324.69 1368.44L2379.05 1330.1L2399.44 1315.35L2413.03 1318.3L2447.01 1347.79L2474.19 1368.44L2470.79 1383.18L2440.21 1442.17L2436.82 1448.07L2195.57 1451.02V1456.91L2198.97 1453.96H2732.42L2742.62 1465.76L2739.22 1492.3L2722.23 1557.19L3826.51 1560.14V1064.67H2674.66V1448.07H2630.49V1035.18L2647.48 1017.48L2654.27 1014.53Z" fill="#98BFD3"/>
<path d="M693.751 1863.91H3782.34V1914.04L3778.94 1916.99L1988.31 1919.94L2022.29 1925.84L2124.22 1934.69L2300.9 1943.54L2355.27 1952.38L2389.25 1964.18L2416.43 1981.88L2440.21 2002.52L2453.8 2026.11L2460.6 2052.66V2093.95L2450.41 2147.03L2413.03 2265L2382.45 2353.48L2355.27 2436.05L2334.88 2489.14L2331.48 2500.94H2277.12L2202.37 2495.04L2164.99 2486.19V2450.8L2168.39 2421.31L2164.99 2412.46L2161.59 2377.07L2124.22 2247.3V2241.41H1995.1L2005.3 2409.51L2008.69 2439V2495.04L1961.12 2503.89L1940.74 2506.84L1849 2509.79L1838.8 2471.45L1815.02 2368.22L1801.43 2321.04L1787.84 2282.7L1777.64 2253.2V2241.41H1753.86V2270.9L1733.47 2500.94L1726.68 2577.62L1719.88 2648.4L1716.48 2651.35H1682.51L1679.11 2648.4V2598.26L1685.9 2418.36L1689.3 2285.64L1692.7 2238.46H1529.61L1526.21 2262.05L1478.64 2430.16L1465.05 2477.34L1451.46 2524.53L1424.27 2621.86L1414.08 2648.4H1386.9L1383.5 2645.45V2624.8L1393.69 2586.46L1407.29 2524.53L1434.47 2418.36L1468.45 2273.85L1478.64 2238.46L1485.43 2211.91H1448.06L1417.48 2203.07L1397.09 2188.32L1386.9 2164.73L1380.1 2129.34L1346.13 1987.77L1329.14 1922.89V1916.99H693.751V1863.91Z" fill="#1D284B"/>
<path d="M2674.66 1064.67H3826.51V1560.14H2718.83L2729.02 1515.9L2739.22 1480.51L2735.82 1459.86L2732.42 1456.91H2198.97H2188.78L2195.57 1448.07H2674.66V1064.67Z" fill="#F5F6F8"/>
<path d="M3062.01 2023.16H3310.05L3500.32 2029.06L3598.86 2034.96V2636.6H3235.29L3214.91 2568.77L3187.73 2518.63L3157.15 2474.39L3116.37 2433.11L3075.6 2400.66L3024.63 2371.17L2970.27 2347.58L2885.32 2326.93L2841.15 2321.04L2800.38 2318.09H2752.81L2664.47 2326.93L2576.12 2341.68L2477.59 2365.27L2385.85 2391.82H2372.26L2368.86 2400.66L2372.26 2374.12L2382.45 2350.53H2389.25L2392.64 2335.78L2409.63 2321.04L2460.6 2282.7L2497.98 2253.2L2521.76 2229.61L2555.74 2194.22L2599.91 2144.08L2630.49 2108.69L2657.67 2082.15L2691.65 2064.45L2722.23 2055.61L2786.79 2043.81L2844.55 2034.96L2966.87 2026.11L3062.01 2023.16Z" fill="#D8EAEE"/>
<path d="M1611.15 1238.67H1628.14L1651.93 1265.21L1675.71 1282.91L1723.28 1303.55L1736.87 1306.5H1774.25L1794.63 1297.66L1815.02 1277.01L1818.42 1250.47L1842.2 1253.42L1967.92 1291.76L2015.49 1327.15L2080.05 1368.44L2141.21 1400.88L2175.19 1418.57L2195.57 1427.42L2219.36 1424.47L2277.12 1397.93L2324.69 1368.44L2379.05 1330.1L2399.44 1315.35L2413.03 1318.3L2447.01 1347.79L2474.19 1368.44L2470.79 1383.18L2440.21 1442.17L2436.82 1448.07L2195.57 1451.02L2178.58 1462.81L2151.4 1551.29L2137.81 1592.58L2127.62 1595.53L2032.48 1574.88L2001.9 1566.04L1998.5 1607.32L1995.1 1627.97L1957.73 1619.12H1927.15L1879.58 1636.82L1804.83 1672.21L1784.44 1681.05L1764.05 1707.6V1737.09L1767.45 1745.94H1815.02L1865.99 1728.24L1903.36 1710.55H1927.15L1944.14 1725.29L1950.93 1740.04H1967.92L1964.52 1710.55L1947.53 1689.9L1933.94 1684L1913.56 1681.05V1675.16H1933.94L1954.33 1686.95L1974.72 1707.6L1984.91 1725.29V1757.73L1981.51 1769.53L1791.24 1772.48L1757.26 1775.43L1760.66 1801.97L1600.96 1807.87H1549.99V1801.97H1533L1529.61 1799.02V1760.68L1539.8 1742.99H1563.58V1728.24H1536.4L1539.8 1707.6H1533L1526.21 1719.39L1522.81 1725.29L1053.92 1728.24L1036.93 1745.94V1772.48L1043.72 1790.18L1104.88 1793.12L1267.98 1804.92V1810.82H1176.24L1043.72 1804.92L1023.34 1793.12L1013.14 1775.43V1754.79L1023.34 1728.24L1036.93 1704.65H1186.43L1397.09 1710.55H1519.41L1522.81 1707.6V1678.11L1509.22 1660.41L1244.19 1657.46L1036.93 1648.61V1636.82H1240.79L1217.01 1489.36L1196.62 1383.18V1377.29H1203.42L1230.6 1518.85L1244.19 1601.43L1250.99 1633.87L1312.15 1639.77V1524.75L1325.74 1445.12L1342.73 1377.29L1359.72 1347.79L1390.3 1321.25L1434.47 1297.66L1505.82 1271.11L1549.99 1259.32L1611.15 1238.67Z" fill="#096D9A"/>
<path d="M918.005 1919.94H1172.84L1149.05 1967.13L1128.67 2032.01V2099.84L1135.46 2126.39L1159.25 2158.83L1189.83 2182.42L1244.19 2206.02L1271.37 2211.91H1329.14L1356.32 2206.02L1397.09 2191.27L1410.68 2197.17L1431.07 2206.02L1485.43 2211.91L1478.64 2247.3L1448.06 2377.07L1424.27 2471.45L1400.49 2565.82L1390.3 2615.96L1383.5 2633.65H918.005V1919.94Z" fill="#C4E3E8"/>
<path d="M1981.51 1916.99H3772.15V1919.94H3666.81V2633.65H3911.45L4159.49 2636.6L4176.48 2645.45L4173.08 2660.2L4128.91 2666.09H2171.79L2188.78 2654.3H2277.12L2348.47 2657.25H2484.38L2477.59 2636.6H3598.86V2034.96H3547.89L3500.32 2032.01L3310.05 2026.11H3062.01L2966.87 2029.06L2844.55 2037.91L2749.41 2052.66L2691.65 2067.4L2657.67 2085.1L2627.09 2114.59L2599.91 2147.03L2565.93 2185.37L2538.75 2214.86L2508.17 2244.36L2477.59 2273.85L2430.02 2309.24L2399.44 2329.88L2389.25 2350.53H2382.45L2392.64 2315.14L2443.61 2158.83L2453.8 2117.54L2457.2 2093.95V2052.66L2447.01 2017.27L2426.62 1993.67L2396.04 1970.08L2368.86 1958.28L2328.09 1949.43L2246.54 1943.54L2083.45 1934.69L2001.9 1925.84L1981.51 1919.94V1916.99Z" fill="#BDE0E7"/>
<path d="M2654.27 1014.53H3850.29L3867.28 1023.38L3877.48 1041.07V1622.07L3863.89 1639.77L3843.5 1648.61H3408.58V1772.48H3615.85L3622.64 1781.33L3619.24 1796.07L3612.45 1801.97H2960.07L2949.88 1793.12V1778.38L2956.68 1772.48H3119.77L3116.37 1648.61L2698.44 1645.66L2701.84 1619.12L2718.83 1563.09H3829.91V1061.72H2671.26V1448.07H2630.49V1035.18L2647.48 1017.48L2654.27 1014.53Z" fill="#464B6E"/>
<path d="M693.751 1863.91H3782.34V1914.04L3778.94 1916.99L1981.51 1919.94H1533L1536.4 1934.69L1539.8 1993.67L1553.39 2055.61L1570.38 2079.2L1580.57 2088.05L1638.34 2093.95L1692.7 2096.89L1733.47 2102.79L1753.86 2170.62L1767.45 2206.02V2211.91H1448.06L1417.48 2203.07L1397.09 2188.32L1386.9 2164.73L1380.1 2129.34L1346.13 1987.77L1329.14 1922.89V1916.99H693.751V1863.91Z" fill="#338FAE"/>
<path d="M754.911 1922.89L788.889 1925.84L822.867 1931.74V2441.95L809.275 2444.9H758.309V2636.6H853.447L918.005 2639.55V2633.65H1383.5L1386.9 2645.45H1414.08L1448.06 2524.53L1461.65 2477.34L1475.24 2430.16L1529.61 2238.46H1692.7V2285.64L1689.3 2418.36L1682.51 2598.26V2648.4H1716.48L1719.88 2604.16H1723.28V2636.6H1852.4V2613.01L1865.99 2539.28L1872.78 2530.43L1889.77 2524.53H1930.54L1950.93 2521.58H1991.71L2032.48 2551.07L2059.66 2568.77L2086.84 2586.46L2144.61 2613.01L2151.4 2574.67L2161.59 2530.43L2168.39 2521.58L2198.97 2524.53H2239.74L2253.33 2521.58H2290.71L2324.69 2551.07L2341.68 2559.92H2392.64L2382.45 2565.82H2362.06L2379.05 2580.57L2443.61 2613.01L2474.19 2633.65L2484.38 2642.5V2657.25L2477.59 2660.2H2348.47L2277.12 2657.25H2188.78L2171.79 2666.09H700.546L656.375 2663.14L646.182 2657.25L649.579 2642.5L663.171 2636.6L700.546 2633.65H754.911V1922.89Z" fill="#99C5D2"/>
<path d="M2966.87 1156.09H3547.89L3561.48 1167.89V1474.61L3551.29 1483.46H2966.87L2956.68 1471.66V1164.94L2966.87 1156.09Z" fill="#F1F7F7"/>
<path d="M2345.08 477.773H2970.27L2994.05 495.469L2997.45 501.367V731.406L2987.26 749.102L2970.27 757.949H2477.59L2470.79 772.695L2447.01 799.238L2419.83 819.883L2365.46 843.477L2334.88 852.324L2324.69 849.375L2334.88 846.426L2341.68 834.629L2362.06 805.137L2368.86 787.441L2372.26 757.949H2348.47L2328.09 746.152L2321.29 734.355V498.418L2334.88 483.672L2345.08 477.773Z" fill="white"/>
<path d="M1872.78 1949.43H1910.16L1937.34 1958.28L1961.12 1981.88L1978.11 2017.27L1981.51 2029.06L1984.91 2111.64L2117.42 2120.49L2188.78 2123.44L2215.96 2129.34L2229.55 2138.18L2232.95 2149.98V2173.57L2205.77 2291.54L2188.78 2365.27L2178.58 2415.41L2171.79 2427.21L2164.99 2412.46L2161.59 2377.07L2124.22 2247.3V2241.41H1995.1L2005.3 2409.51L2008.69 2439V2495.04L1961.12 2503.89L1920.35 2506.84L1889.77 2503.89L1896.57 2500.94L1886.37 2441.95L1882.98 2415.41L1872.78 2380.02L1859.19 2323.98L1845.6 2276.8L1815.02 2152.93L1798.03 2073.3L1794.63 2040.86V2011.37L1808.22 1981.88L1825.21 1967.13L1845.6 1955.33L1872.78 1949.43ZM1886.37 2409.51V2415.41L1893.17 2412.46L1886.37 2409.51Z" fill="#30406A"/>
<path d="M1533 1919.94L1859.19 1922.89L1913.56 1946.48L1916.95 1952.38H1872.78L1838.8 1961.23L1815.02 1975.98L1801.43 1999.57L1798.03 2011.37V2040.86L1804.83 2085.1L1828.61 2197.17L1859.19 2318.09L1872.78 2362.32L1882.98 2409.51L1886.37 2427.21L1896.57 2474.39V2500.94L1920.35 2503.89V2506.84L1849 2509.79L1838.8 2471.45L1815.02 2368.22L1801.43 2321.04L1787.84 2282.7L1777.64 2253.2V2241.41H1753.86V2270.9L1733.47 2500.94L1726.68 2577.62L1719.88 2648.4L1716.48 2651.35H1682.51L1679.11 2648.4V2598.26L1685.9 2418.36L1689.3 2285.64L1692.7 2238.46H1529.61L1526.21 2262.05L1478.64 2430.16L1465.05 2477.34L1451.46 2524.53L1424.27 2621.86L1414.08 2648.4H1386.9L1383.5 2645.45V2624.8L1393.69 2586.46L1407.29 2524.53L1434.47 2418.36L1468.45 2273.85L1478.64 2238.46L1485.43 2211.91H1454.85V2208.96H1539.8L1767.45 2211.91L1757.26 2185.37L1740.27 2141.13L1733.47 2117.54V2102.79L1692.7 2099.84L1597.56 2093.95L1577.18 2088.05L1556.79 2067.4L1546.59 2043.81L1536.4 1993.67L1533 1919.94ZM1886.37 2409.51L1893.17 2415.41H1886.37V2409.51Z" fill="#202B4E"/>
<path d="M1981.51 1916.99H3772.15V1919.94H3666.81V2633.65H3911.45L4159.49 2636.6L4176.48 2645.45L4173.08 2660.2L4128.91 2666.09H2171.79L2188.78 2654.3H2277.12L2348.47 2657.25H2484.38L2477.59 2636.6H3598.86V1919.94L1988.31 1922.89L1981.51 1916.99Z" fill="#94C9D9"/>
<path d="M1842.2 796.289H1886.37L1923.75 808.086L1950.93 828.73L1961.13 846.426L1964.52 858.223V881.816L1947.53 914.258L1954.33 929.004L1961.13 946.699L1957.73 973.242L1944.14 993.887L1930.54 1008.63H1923.75L1920.35 940.801L1893.17 952.598L1872.78 955.547H1828.61L1757.26 946.699H1730.08L1723.28 955.547L1719.88 996.836L1709.69 1011.58L1702.89 1017.48L1706.29 1032.23L1713.09 1049.92V1094.16L1699.5 1123.65L1689.3 1132.5L1692.7 1147.25L1709.69 1159.04L1736.87 1167.89H1777.64L1804.83 1159.04L1821.82 1161.99L1818.42 1173.79L1804.83 1179.69H1719.88L1692.7 1167.89L1675.71 1156.09L1672.31 1150.2H1611.15L1583.97 1135.45L1560.19 1111.86L1546.6 1085.31V1046.97L1553.39 1023.38L1529.61 982.09L1522.81 961.445V917.207L1543.2 896.562L1556.79 890.664H1577.18V867.07L1587.37 849.375L1600.96 840.527L1604.36 855.273L1617.95 840.527L1648.53 825.781L1675.71 816.934L1730.08 811.035H1801.43L1842.2 796.289Z" fill="#247DA3"/>
<path d="M1529.61 2238.46H1692.7V2285.64L1689.3 2418.36L1682.51 2598.26L1679.11 2636.6H1420.88L1424.27 2607.11L1448.06 2524.53L1461.65 2477.34L1475.24 2430.16L1529.61 2238.46Z" fill="#C9E5E9"/>
<path d="M540.85 1453.96H629.193L680.159 1468.71L724.331 1495.25L748.115 1518.85L775.297 1566.04L795.684 1648.61L809.275 1686.95V1701.7H822.866V1636.82L829.662 1566.04L839.855 1536.54H843.253V1586.68L839.855 1701.7H860.242V1681.05L863.64 1657.46L853.447 1636.82V1586.68L870.435 1557.19L901.016 1527.7L934.993 1507.05L972.369 1492.3L985.96 1489.36H1050.52L1043.72 1530.64L1026.73 1583.73L1009.74 1607.32L982.562 1630.92L934.993 1651.56L880.629 1663.36L867.038 1701.7H901.016L907.811 1707.6V1769.53L894.22 1793.12L880.629 1801.97H751.513L727.728 1778.38L717.535 1751.84L714.137 1737.09V1701.7H799.082L782.093 1651.56L775.297 1639.77L676.762 1636.82L646.182 1630.92L615.602 1619.12L585.021 1601.43L561.237 1580.78L537.452 1545.39L520.464 1504.1L506.872 1486.41L489.883 1474.61L510.27 1462.81L540.85 1453.96Z" fill="#63BCCB"/>
<path d="M1366.51 1262.27H1543.2L1529.61 1268.16L1471.84 1285.86L1417.48 1309.45L1383.5 1330.1L1356.32 1356.64L1342.73 1389.08L1329.14 1445.12L1322.34 1477.56L1315.55 1524.75L1312.15 1639.77H1267.98L1247.59 1633.87L1217.01 1465.76L1203.42 1397.93V1377.29H1196.62L1203.42 1403.83L1220.41 1489.36L1240.79 1610.27V1636.82H1138.86L1132.07 1604.38L1118.47 1510L1108.28 1439.22L1101.49 1392.03V1365.49L1111.68 1338.95L1145.66 1306.5L1183.03 1288.81L1267.98 1274.06L1366.51 1262.27Z" fill="#5EB6CD"/>
<path d="M1913.56 940.801H1920.35L1923.75 949.648L1927.15 1011.58L1923.75 1108.91L1913.56 1150.2L1903.36 1170.84L1879.58 1194.43L1852.4 1206.23L1838.8 1209.18H1815.02L1818.42 1247.52V1277.01L1791.24 1303.55L1774.25 1309.45H1736.87L1692.7 1294.71L1658.72 1274.06L1628.14 1244.57V1238.67L1617.95 1235.72L1631.54 1232.77L1638.34 1220.98L1645.13 1188.54L1648.53 1156.09L1651.93 1150.2L1672.31 1147.25L1689.3 1161.99L1709.69 1173.79L1719.88 1176.74H1804.83L1818.42 1170.84V1161.99L1794.63 1164.94L1777.64 1170.84H1736.87L1702.89 1159.04L1685.9 1144.3L1689.3 1129.55L1702.89 1111.86L1709.69 1094.16V1049.92L1699.5 1026.33L1702.89 1014.53L1713.09 1005.68L1716.48 996.836L1719.88 955.547L1730.08 943.75H1757.26L1828.61 952.598H1872.78L1899.96 946.699L1913.56 940.801Z" fill="#F1B0A0"/>
<path d="M2447.01 2017.27L2453.8 2026.11L2460.6 2052.66V2093.95L2450.41 2147.03L2413.03 2265L2382.45 2353.48L2355.27 2436.05L2334.88 2489.14L2331.48 2500.94H2277.12L2202.37 2495.04L2192.17 2489.14H2198.97L2202.37 2444.9L2226.15 2341.68L2253.33 2235.51L2273.72 2185.37L2304.3 2123.44L2328.09 2088.05L2358.67 2058.55L2389.25 2037.91L2413.03 2029.06L2447.01 2023.16V2017.27Z" fill="#26345C"/>
<path d="M703.944 1725.29H710.74L720.933 1751.84L734.524 1784.28L754.911 1804.92H703.944L697.148 1810.82L693.751 1916.99L754.911 1919.94V2294.49L741.32 2282.7L717.535 2250.25L676.762 2191.27L642.784 2138.18L608.806 2073.3L581.624 2014.32L568.033 1975.98L557.839 1928.79L554.441 1911.09V1831.46L564.635 1796.07L581.624 1781.33L659.773 1754.79L697.148 1731.19L703.944 1725.29Z" fill="#CBE5E9"/>
<path d="M1950.93 2521.58H1991.7L2032.48 2551.07L2059.66 2568.77L2086.84 2586.46L2144.61 2613.01L2151.4 2574.67L2161.59 2530.43L2168.39 2521.58L2198.97 2524.53H2239.74L2253.33 2521.58H2290.71L2324.69 2551.07L2341.68 2559.92H2392.64L2382.45 2565.82H2362.06L2379.05 2580.57L2443.61 2613.01L2474.19 2633.65L2484.38 2642.5V2657.25L2477.59 2660.2H2348.47L2277.12 2657.25H2188.78L2171.79 2666.09H1964.52L1855.79 2660.2V2592.36L1865.99 2539.28L1872.78 2530.43L1889.77 2524.53H1930.54L1950.93 2521.58Z" fill="#1E2D51"/>
<path d="M2691.65 1648.61H3119.77V1772.48L2956.68 1775.43L2953.28 1778.38V1793.12L2956.68 1801.97H2650.88L2661.07 1763.63L2681.46 1686.95L2691.65 1648.61Z" fill="#D3E8EC"/>
<path d="M3119.77 1645.66H3408.58V1772.48H3615.85L3622.64 1781.33L3619.24 1796.07L3612.45 1801.97H2960.07L2949.88 1793.12V1778.38L2956.68 1772.48H3119.77V1645.66Z" fill="#262B4C"/>
<path d="M4054.16 946.699H4390.54L4393.94 949.648V1111.86H4054.16V946.699Z" fill="white"/>
<path d="M3666.81 2633.65H3911.45L4159.49 2636.6L4176.48 2645.45L4173.08 2660.2L4128.91 2666.09H2171.79L2188.78 2654.3H2277.12L2348.47 2657.25H2484.38L2477.59 2636.6H3598.86L3666.81 2639.55V2633.65Z" fill="#9EC8D3"/>
<path d="M2001.9 1566.04L2022.29 1568.98L2110.63 1589.63L2134.41 1595.53L2120.82 1654.51L2093.64 1748.89L2086.84 1772.48H2073.25L2066.46 1787.23H1774.25V1775.43L1791.24 1769.53H1981.51V1725.29L1964.52 1698.75L1947.53 1684L1933.94 1678.11L1913.56 1675.16V1681.05H1933.94L1954.33 1692.85L1967.92 1710.55V1740.04H1950.93L1933.94 1719.39V1713.5H1903.36L1852.4 1737.09L1815.02 1748.89H1767.45L1760.66 1737.09V1707.6L1781.04 1681.05L1794.63 1672.21L1849 1648.61L1903.36 1625.02L1927.15 1616.17H1957.73L1995.1 1627.97L1998.5 1580.78L2001.9 1566.04Z" fill="#D2E9EC"/>
<path d="M1454.85 2208.96H1539.8L1767.45 2211.91L1774.25 2241.41H1753.86V2270.9L1733.47 2500.94L1726.68 2577.62L1719.88 2648.4L1716.48 2651.35H1682.51L1679.11 2648.4V2598.26L1685.9 2418.36L1689.3 2285.64L1692.7 2238.46H1529.61L1526.21 2262.05L1478.64 2430.16L1465.05 2477.34L1451.46 2524.53L1424.27 2621.86L1414.08 2648.4H1386.9L1383.5 2645.45V2624.8L1393.69 2586.46L1407.29 2524.53L1434.47 2418.36L1468.45 2273.85L1478.64 2238.46L1485.43 2211.91H1454.85V2208.96Z" fill="#224871"/>
<path d="M2345.07 468.926H2970.27L2990.65 477.773L3004.25 492.52L3011.04 504.316H3544.49L3578.47 507.266L3605.65 522.012L3615.85 539.707L3619.24 551.504V813.984L3602.26 843.477L3585.27 855.273L3571.68 858.223H3323.64L2868.33 855.273L2837.75 831.68L2830.96 808.086V769.746H2480.99L2474.19 784.492L2443.61 813.984L2413.03 834.629L2358.67 855.273L2290.71 870.02H2273.72L2277.12 861.172L2311.1 849.375L2334.88 831.68L2351.87 805.137L2362.06 766.797L2338.28 763.848L2314.49 746.152L2311.1 740.254V495.469L2324.69 477.773L2345.07 468.926ZM2345.07 477.773L2328.09 489.57L2321.29 498.418V734.355L2334.88 752.051L2348.47 757.949H2372.26L2365.46 796.289L2345.07 831.68L2334.88 840.527V846.426L2324.69 849.375L2334.88 852.324L2382.45 837.578L2419.83 819.883L2457.2 790.391L2477.59 763.848V757.949H2970.27L2987.26 749.102L2997.45 731.406V501.367L2977.06 480.723L2970.27 477.773H2345.07ZM3007.64 519.062V746.152H3000.85L2990.65 760.898L2970.27 766.797L2847.95 769.746V822.832L2861.54 837.578L2881.92 843.477H3568.28L3588.66 834.629L3598.86 825.781L3602.26 816.934V548.555L3588.66 530.859L3568.28 519.062H3007.64Z" fill="#96D1DF"/>
<path d="M741.32 2447.85H754.911V2633.65L663.171 2639.55L649.579 2645.45V2657.25L656.375 2663.14H523.861L476.292 2660.2L452.508 2651.35V2639.55L466.099 2633.65L517.066 2627.75L585.021 2624.8L544.248 2607.11L520.464 2589.41L503.475 2565.82V2542.23L520.464 2515.68L554.441 2492.09L608.806 2471.45L673.364 2456.7L741.32 2447.85Z" fill="#C8E3E8"/>
<path d="M1842.2 796.289H1886.37L1923.75 808.086L1950.93 828.73L1961.12 846.426L1964.52 858.223V881.816L1947.53 914.258L1954.33 929.004L1961.12 946.699L1957.73 973.242L1944.14 993.887L1930.54 1008.63H1923.75L1920.35 940.801L1893.17 952.598L1872.78 955.547H1828.61L1757.26 946.699H1730.08L1723.28 955.547L1719.88 996.836L1709.69 1011.58L1702.89 1017.48V1032.23L1692.7 1023.38L1682.51 1008.63L1651.93 990.938L1645.13 987.988V952.598L1655.32 914.258L1675.71 878.867L1696.1 858.223L1730.08 837.578L1760.66 825.781L1794.63 816.934L1821.82 802.188L1842.2 796.289Z" fill="#1D2B4E"/>
<path d="M829.662 1253.42H856.844L890.822 1268.16L914.607 1285.86L938.391 1315.35L951.982 1347.79L955.38 1359.59V1403.83L934.993 1456.91L911.209 1489.36L880.629 1518.85L856.844 1539.49H846.651L843.253 1551.29L839.855 1542.44L833.06 1551.29V1545.39L816.071 1539.49L792.286 1515.9L768.502 1474.61L758.309 1427.42V1353.69L768.502 1318.3L785.491 1288.81L816.071 1259.32L829.662 1253.42Z" fill="#96D1D9"/>
<path d="M1533 1707.6H1539.8L1536.4 1728.24H1563.58V1742.99L1539.8 1745.94L1533 1760.68V1799.02L1549.99 1801.97L1546.6 1816.72H1312.15L1271.37 1813.77L1267.98 1804.92H1227.2L1070.9 1793.12L1043.72 1790.18L1033.53 1772.48V1745.94L1053.92 1725.29H1522.81L1529.61 1713.5L1533 1707.6Z" fill="#F8E5B4"/>
<path d="M1203.42 955.547H1250.99L1288.36 967.344L1318.94 987.988L1342.73 1017.48L1349.52 1041.07V1064.67L1342.73 1091.21L1322.34 1120.7L1291.76 1141.35L1264.58 1150.2L1220.41 1153.14L1183.03 1147.25L1149.05 1129.55L1121.87 1103.01L1111.68 1082.36L1108.28 1064.67V1032.23L1121.87 1002.73L1145.66 979.141L1169.44 964.395L1203.42 955.547Z" fill="white"/>
<path d="M754.911 1922.89L788.889 1925.84L822.867 1931.74V2441.95L809.275 2444.9H758.309L754.911 2099.84V1922.89Z" fill="#72B6C9"/>
<path d="M3976.01 816.934H4441.51L4455.1 828.73L4458.5 834.629V1185.59L4448.3 1200.33L4438.11 1206.23H3976.01L3969.22 1203.28V1197.38H3962.42L3959.02 1188.54V834.629L3976.01 816.934ZM3993 834.629L3979.41 849.375V1176.74L3989.6 1185.59L3999.8 1188.54H4421.12L4438.11 1173.79V858.223L4424.52 843.477L4404.13 834.629H3993Z" fill="#9ED7E1"/>
<path d="M3248.89 1194.43L3282.86 1197.38L3422.17 1238.67L3486.73 1259.32L3479.94 1265.21L3367.81 1297.66L3333.83 1309.45L3272.67 1327.15H3248.89L3038.22 1265.21L3031.43 1262.27V1256.37L3153.75 1220.98L3204.71 1206.23L3248.89 1194.43Z" fill="#0E6C95"/>
<path d="M2178.58 1459.86H2188.78L2175.19 1515.9L2158.2 1568.98L2120.82 1698.75L2103.83 1751.84V1775.43L2657.67 1778.38L2654.27 1796.07L2637.28 1810.82H2076.65L2069.85 1807.87V1801.97H1760.66L1757.26 1796.07V1775.43L1777.64 1772.48L1774.25 1784.28L2066.46 1787.23L2073.25 1772.48H2086.84L2093.64 1734.14L2117.42 1654.51L2131.01 1601.43L2161.59 1507.05L2175.19 1462.81L2178.58 1459.86Z" fill="#6AA4C0"/>
<path d="M2453.8 545.605H2552.34L2579.52 557.402L2593.11 575.098V666.523L2579.52 687.168L2559.14 696.016L2545.54 698.965H2457.2L2433.42 693.066L2416.43 681.27L2406.23 660.625V578.047L2419.83 560.352L2436.81 548.555L2453.8 545.605Z" fill="#85CDD9"/>
<path d="M1984.91 2114.59H2032.48L2117.42 2120.49L2188.78 2123.44L2215.96 2129.34L2229.55 2138.18L2232.95 2149.98V2173.57L2205.77 2291.54L2195.57 2335.78H2192.17L2164.99 2220.76V2208.96H1991.71L1984.91 2138.18V2114.59Z" fill="#31A1C1"/>
<path d="M1060.71 1651.56H1162.65L1244.19 1654.51L1509.22 1657.46L1522.81 1672.21L1526.21 1678.11V1707.6L1519.41 1713.5H1397.09L1186.43 1707.6L1060.71 1704.65V1651.56Z" fill="#E8F1F3"/>
<path d="M3391.59 578.047H3425.57L3459.55 586.895L3493.53 613.438L3503.72 631.133L3510.52 654.727L3507.12 681.27L3496.92 704.863L3479.94 722.559L3459.55 734.355L3439.16 740.254H3388.2L3354.22 725.508L3333.83 704.863L3323.64 684.219L3320.24 669.473V642.93L3333.83 616.387L3357.62 592.793L3391.59 578.047Z" fill="white"/>
<path d="M985.96 1489.36H1050.52L1043.72 1530.64L1026.73 1583.73L1009.74 1607.32L982.562 1630.92L934.993 1651.56L880.629 1663.36L870.435 1695.8L860.242 1692.85L863.64 1657.46L853.447 1636.82V1586.68L870.435 1557.19L901.016 1527.7L934.993 1507.05L972.369 1492.3L985.96 1489.36Z" fill="#71C7D4"/>
<path d="M1927.15 1616.17H1957.73L1995.1 1627.97L2018.89 1651.56L2049.47 1678.11L2052.87 1698.75H2025.68L2008.69 1689.9L2005.3 1710.55L1991.71 1728.24L1981.51 1725.29L1964.52 1698.75L1947.53 1684L1933.94 1678.11L1913.56 1675.16V1681.05H1933.94L1954.33 1692.85L1967.92 1710.55V1740.04H1950.93L1933.94 1719.39V1713.5H1903.36L1852.4 1737.09L1815.02 1748.89H1767.45L1760.66 1737.09V1707.6L1781.04 1681.05L1794.63 1672.21L1849 1648.61L1903.36 1625.02L1927.15 1616.17Z" fill="#F1B3A3"/>
<path d="M839.855 1536.54H843.253V1586.68L839.855 1701.7H860.242L863.64 1684H867.038V1701.7H901.016L907.811 1707.6V1769.53L894.22 1793.12L880.629 1801.97H751.513L727.728 1778.38L717.535 1751.84L714.137 1737.09V1701.7H799.082L782.093 1651.56L778.695 1633.87H788.889L805.878 1675.16L809.275 1701.7H822.866V1636.82L829.662 1566.04L839.855 1536.54Z" fill="#0B547C"/>
<path d="M3119.77 1769.53H3408.58L3615.85 1772.48L3622.64 1781.33L3619.24 1796.07L3612.45 1801.97H2960.07L2949.88 1793.12V1778.38L2956.68 1772.48L3119.77 1769.53Z" fill="#353C62"/>
<path d="M4009.99 872.969H4230.85L4404.13 875.918V923.105H4009.99V872.969Z" fill="#A5CDDA"/>
<path d="M3136.76 1306.5L3170.74 1315.35L3248.89 1338.95L3279.47 1336L3381.4 1306.5V1380.23L3340.63 1397.93L3265.87 1421.52L3235.29 1415.62L3150.35 1389.08L3136.76 1380.23V1306.5Z" fill="#0E6F98"/>
<path d="M1427.67 1919.94H1533L1536.4 1934.69L1539.8 1993.67L1553.39 2055.61L1570.38 2079.2L1580.57 2091H1543.2L1482.04 2085.1L1454.85 2076.25L1448.06 2070.35L1427.67 1919.94Z" fill="#1F7DA3"/>
<path d="M826.264 1919.94H850.049V2633.65H826.264V1919.94Z" fill="#BFDFE5"/>
<path d="M2966.87 1156.09H3547.89L3561.48 1167.89V1474.61L3551.29 1483.46H2966.87L2956.68 1471.66V1164.94L2966.87 1156.09ZM2970.27 1164.94L2966.87 1167.89V1471.66L2970.27 1474.61H3547.89L3551.29 1471.66V1167.89L3544.49 1164.94H2970.27Z" fill="#97D5E2"/>
<path d="M2504.77 1176.74L2514.96 1179.69V1203.28L2497.98 1235.72L2542.15 1220.98L2562.53 1209.18L2582.92 1185.59L2599.91 1188.54V1215.08L2596.51 1226.88H2589.72L2586.32 1250.47L2565.93 1279.96L2535.35 1300.61L2504.77 1321.25L2480.99 1344.84L2470.79 1365.49L2443.61 1347.79L2409.63 1318.3L2426.62 1277.01L2447.01 1241.62L2484.38 1203.28L2501.37 1179.69L2504.77 1176.74Z" fill="#F1AF9B"/>
<path d="M1981.51 1916.99H3772.15V1919.94H3666.81V2639.55H3598.86V2633.65H3663.42L3660.02 2037.91L3639.63 2049.71L3629.44 2052.66H3598.86V1919.94L1988.31 1922.89L1981.51 1916.99Z" fill="#84C1D1"/>
<path d="M1053.92 1725.29H1278.17L1274.77 1737.09L1261.18 1760.68V1784.28L1267.98 1801.97L1145.66 1799.02L1043.72 1790.18L1033.53 1772.48V1745.94L1053.92 1725.29Z" fill="#D9E5E9"/>
<path d="M1651.93 1153.14L1665.52 1167.89L1692.7 1200.33L1726.68 1220.98L1753.86 1232.77L1808.22 1247.52H1818.42V1277.01L1791.24 1303.55L1774.25 1309.45H1736.87L1692.7 1294.71L1658.72 1274.06L1628.14 1244.57V1238.67L1617.95 1235.72L1631.54 1232.77L1638.34 1220.98L1645.13 1188.54L1648.53 1156.09L1651.93 1153.14Z" fill="#F2B8A9"/>
<path d="M2480.99 769.746H2830.96V808.086L2453.8 811.035V802.188L2477.59 775.645L2480.99 769.746Z" fill="#C6E5E9"/>
<path d="M1699.5 813.984H1730.08L1716.48 819.883L1682.51 834.629L1648.53 861.172L1628.14 887.715L1614.55 914.258L1607.76 931.953L1600.96 990.938L1577.18 1002.73L1563.58 1017.48L1556.79 1026.33L1536.4 996.836L1522.81 961.445V917.207L1543.2 896.562L1556.79 890.664H1577.18V867.07L1587.37 849.375L1600.96 840.527L1604.36 855.273L1617.95 840.527L1648.53 825.781L1675.71 816.934L1699.5 813.984Z" fill="#1A2648"/>
<path d="M1526.21 1686.95H1529.61L1536.4 1707.6L1522.81 1725.29L1053.92 1728.24L1036.93 1745.94V1772.48L1043.72 1790.18L1104.88 1793.12L1267.98 1804.92V1810.82H1176.24L1043.72 1804.92L1023.34 1793.12L1013.14 1775.43V1754.79L1023.34 1728.24L1036.93 1704.65H1186.43L1397.09 1710.55H1519.41L1522.81 1707.6L1526.21 1686.95Z" fill="#389FBC"/>
<path d="M1437.87 554.453H1465.05L1495.63 563.301L1516.02 583.945L1522.81 601.641V628.184L1509.22 645.879L1488.83 660.625L1475.24 663.574H1431.07L1400.49 645.879L1386.9 622.285V595.742L1397.09 578.047L1420.88 560.352L1437.87 554.453Z" fill="#EEF4F5"/>
<path d="M1475.24 1330.1L1488.83 1341.89L1522.81 1397.93L1539.8 1433.32L1553.39 1483.46L1570.38 1571.93L1594.16 1610.27L1611.15 1627.97L1645.13 1651.56L1679.11 1666.31V1669.26H1580.57L1533 1666.31L1516.02 1651.56L1509.22 1645.66L1512.62 1630.92L1526.21 1592.58L1533 1574.88L1536.4 1554.24V1498.2L1529.61 1453.96L1516.02 1415.62L1488.83 1356.64L1475.24 1336V1330.1Z" fill="#075581"/>
<path d="M3201.32 616.387H3231.9L3252.28 625.234L3269.27 639.98L3286.26 663.574V678.32H3238.69L3245.49 690.117L3259.08 698.965L3255.68 719.609L3238.69 731.406L3225.1 737.305H3197.92L3174.13 725.508L3153.75 701.914L3150.35 690.117V651.777L3167.34 631.133L3187.73 619.336L3201.32 616.387Z" fill="#8FCDDB"/>
<path d="M1988.31 1365.49L1998.5 1377.29L2015.49 1415.62L2029.08 1459.86L2042.67 1495.25L2063.06 1521.8L2097.04 1539.49L2148 1548.34L2141.21 1580.78L2134.41 1595.53L2086.84 1586.68L2022.28 1571.93L2001.9 1563.09V1424.47L1998.5 1397.93L1988.31 1374.34V1365.49Z" fill="#0A5B87"/>
<path d="M3663.42 1123.65H3700.79L3727.97 1138.4L3741.57 1159.04V1188.54L3738.17 1200.33L3772.15 1229.82L3768.75 1238.67L3755.16 1235.72L3727.97 1212.13L3707.59 1218.03L3700.79 1220.98H3673.61L3653.22 1212.13L3632.84 1191.48L3629.44 1185.59V1153.14L3656.62 1126.6L3663.42 1123.65Z" fill="#B0CFDC"/>
<path d="M1366.51 1262.27H1543.2L1529.61 1268.16L1471.84 1285.86L1420.88 1306.5L1366.51 1312.4L1305.35 1321.25L1254.39 1333.05L1261.18 1321.25L1267.98 1324.2L1274.77 1318.3L1288.36 1315.35L1295.16 1303.55V1297.66L1288.36 1288.81L1271.37 1285.86L1267.98 1288.81L1281.57 1297.66H1274.77V1303.55L1264.58 1306.5L1254.39 1285.86H1227.2L1234 1279.96L1288.36 1271.11L1366.51 1262.27Z" fill="#76CADC"/>
<path d="M1600.96 1011.58H1631.54L1648.53 1020.43L1662.12 1038.12L1668.92 1052.87V1085.31L1655.32 1108.91L1634.94 1123.65H1604.36L1583.97 1111.86L1570.38 1094.16L1566.98 1085.31V1046.97L1580.57 1023.38L1600.96 1011.58Z" fill="#1C7297"/>
<path d="M1196.62 1377.29H1203.42L1230.6 1518.85L1244.19 1601.43L1250.99 1633.87L1267.98 1636.82H1315.55L1380.1 1639.77L1505.82 1642.71L1533 1660.41V1666.31L1526.21 1669.26L1522.81 1678.11L1509.22 1660.41L1244.19 1657.46L1036.93 1648.61V1636.82H1240.79L1217.01 1489.36L1196.62 1383.18V1377.29Z" fill="#4BA4BF"/>
<path d="M918.005 2633.65H1383.5L1386.9 2651.35H1108.28L884.027 2648.4L758.309 2645.45V2636.6H853.447L918.005 2639.55V2633.65Z" fill="#83BACB"/>
<path d="M2345.08 468.926H2970.27L2990.65 477.773L3004.25 492.52L3007.64 507.266H2997.45L2983.86 489.57L2970.27 480.723H2345.08L2328.09 495.469L2324.69 498.418V734.355L2328.09 743.203L2314.49 746.152L2311.1 740.254V495.469L2324.69 477.773L2345.08 468.926Z" fill="#A1D6E1"/>
<path d="M1913.56 1675.16H1933.94L1954.33 1686.95L1974.72 1707.6L1984.91 1725.29V1757.73L1981.51 1769.53L1770.85 1772.48L1784.44 1763.63H1794.63V1748.89L1835.41 1740.04L1889.77 1716.45L1903.36 1710.55H1927.15L1944.14 1725.29L1950.93 1740.04H1967.92L1964.52 1710.55L1947.53 1689.9L1933.94 1684L1913.56 1681.05V1675.16Z" fill="#0D719B"/>
<path d="M833.06 1619.12H836.458V1701.7H860.242L863.64 1684H867.038V1701.7H901.016L907.811 1707.6V1769.53L894.22 1793.12L880.629 1801.97H751.513L744.718 1793.12L758.309 1796.07H799.082L816.071 1790.18H833.06V1763.63L826.264 1725.29V1704.65L829.662 1701.7L833.06 1619.12Z" fill="#0C466B"/>
<path d="M1227.2 1728.24H1278.17L1271.37 1740.04L1261.18 1760.68V1784.28L1267.98 1801.97L1179.63 1799.02L1193.23 1793.12L1145.66 1784.28L1125.27 1772.48L1121.87 1769.53V1754.79L1149.05 1742.99L1206.82 1734.14H1227.2V1728.24Z" fill="#F8F8F8"/>
<path d="M4128.91 976.191H4156.1L4176.48 990.938V1026.33L4169.69 1044.02H4162.89L4159.49 1061.72L4186.68 1079.41V1085.31L4169.69 1094.16L4156.1 1097.11H4108.53L4088.14 1088.26L4094.94 1076.46L4118.72 1064.67L4115.32 1044.02L4105.13 1035.18L4101.73 1023.38V993.887L4108.53 985.039L4128.91 976.191Z" fill="#E5D4CF"/>
<path d="M846.651 2070.35H850.049V2633.65H826.264V2368.22L836.458 2380.02L843.253 2388.87L846.651 2070.35Z" fill="#C1DFE6"/>
<path d="M3235.3 743.203H3262.48L3269.27 766.797L3299.85 769.746L3303.25 772.695V796.289H3150.35V746.152L3235.3 743.203Z" fill="#89CAD9"/>
<path d="M1781.04 1672.21L1791.24 1675.16L1770.85 1695.8L1764.05 1707.6V1737.09L1767.45 1745.94L1794.63 1748.89V1763.63L1764.05 1775.43H1757.26L1760.66 1801.97L1600.96 1807.87H1549.99V1801.97H1533L1529.61 1799.02V1760.68H1533L1536.4 1793.12L1597.56 1790.18L1689.3 1778.38L1743.67 1763.63H1750.46V1707.6L1767.45 1684L1781.04 1672.21Z" fill="#0C4E77"/>
<path d="M1060.71 1651.56H1162.65L1186.43 1657.46L1193.23 1666.31V1689.9L1179.63 1701.7L1162.65 1704.65H1060.71V1651.56Z" fill="#FAFAFB"/>
<path d="M4414.33 2636.6H4631.78L4648.77 2642.5L4652.17 2654.3L4621.59 2663.14H4424.52L4410.93 2657.25V2639.55L4414.33 2636.6Z" fill="#DFEBEF"/>
<path d="M1036.93 1716.45H1223.81L1308.75 1722.34V1725.29L1053.92 1728.24L1036.93 1745.94V1772.48L1043.72 1790.18L1104.88 1793.12L1267.98 1804.92V1810.82H1176.24L1043.72 1804.92L1023.34 1793.12L1013.14 1775.43V1754.79L1023.34 1728.24L1036.93 1716.45Z" fill="#2E7790"/>
<path d="M1662.12 1147.25L1675.71 1150.2L1692.7 1164.94L1719.88 1176.74L1787.84 1179.69V1182.64L1733.47 1185.59V1191.48L1770.85 1200.33L1791.24 1206.23L1815.02 1209.18V1250.47L1774.25 1241.62L1733.47 1226.88L1702.89 1209.18L1685.9 1197.38L1655.32 1159.04L1651.93 1150.2L1662.12 1147.25Z" fill="#E5988C"/>
<path d="M2406.23 1029.28H2470.79L2521.76 1035.18V1046.97L2487.78 1044.02H2402.84L2355.27 1052.87L2321.29 1064.67L2277.12 1091.21L2243.14 1123.65L2219.36 1159.04L2205.77 1188.54L2198.97 1223.93L2195.57 1288.81L2181.98 1285.86V1229.82L2192.17 1182.64L2205.77 1153.14L2229.55 1120.7L2260.13 1088.26L2294.11 1064.67L2348.47 1041.07L2406.23 1029.28Z" fill="#AED1DE"/>
<path d="M2154.8 2518.63H2178.58L2164.99 2530.43L2144.61 2613.01L2124.22 2607.11L2076.65 2583.52L2042.67 2559.92L2049.47 2554.02L2083.45 2548.12L2127.62 2533.38L2154.8 2518.63Z" fill="#B4DBE3"/>
<path d="M2069.85 1801.97H2644.08L2637.28 1810.82H2076.65L2069.85 1807.87V1801.97Z" fill="#4E91B3"/>
<path d="M3782.34 2362.32H3880.87V2385.92L3914.85 2388.87L3925.05 2394.77L3914.85 2397.71H3891.07L3880.87 2394.77V2409.51H3782.34V2362.32Z" fill="white"/>
<path d="M3079 1291.76L3112.97 1297.66L3119.77 1300.61L3123.17 1412.68L3095.99 1418.57H3079V1291.76Z" fill="#066089"/>
<path d="M3697.39 760.898H4264.82L4261.43 769.746H3700.79L3697.39 760.898Z" fill="#AAD7E4"/>
<path d="M2739.22 1356.64H2830.96L2844.55 1368.44V1392.03L2837.75 1400.88H2735.82L2725.63 1392.03V1368.44L2739.22 1356.64Z" fill="#D6EBED"/>
<path d="M1533 1707.6H1539.8L1536.4 1728.24H1563.58V1742.99H1352.92L1284.97 1740.04L1278.17 1725.29H1522.81L1529.61 1713.5L1533 1707.6Z" fill="#ECB179"/>
<path d="M4271.62 1412.68H4322.59L4339.58 1427.42V1456.91L4329.38 1468.71L4319.19 1471.66H4264.82L4251.23 1459.86L4247.83 1453.96V1430.37L4261.43 1415.62L4271.62 1412.68Z" fill="#EEF3F5"/>
<path d="M1118.47 1527.7L1125.27 1539.49L1135.46 1604.38L1138.86 1636.82H1036.93V1633.87H1077.7L1081.1 1595.53L1091.29 1560.14L1108.28 1536.54L1118.47 1527.7Z" fill="#B8E0E6"/>
<path d="M1777.64 1772.48H2069.85L2066.46 1787.23H1774.25V1775.43L1777.64 1772.48Z" fill="#E9F4F7"/>
<path d="M1183.03 1799.02H1533L1549.99 1801.97L1546.6 1816.72H1312.15L1271.37 1813.77L1267.98 1804.92H1227.2L1183.03 1801.97V1799.02Z" fill="#E8A872"/>
<path d="M3673.61 1138.4H3697.39L3717.78 1150.2L3724.58 1159.04V1182.64L3714.38 1197.38L3697.39 1206.23H3673.61L3653.22 1194.43L3646.43 1185.59V1159.04L3663.42 1144.3L3673.61 1138.4Z" fill="#EBF1F3"/>
<path d="M1777.64 601.641H2260.13L2256.73 610.488H1777.64V601.641Z" fill="#A2D3E3"/>
<path d="M1312.15 1636.82L1380.1 1639.77L1505.82 1642.71L1533 1660.41V1666.31L1526.21 1669.26L1522.81 1678.11L1509.22 1660.41L1247.59 1654.51L1240.79 1648.61L1247.59 1639.77L1312.15 1636.82Z" fill="#1F8FAC"/>
<path d="M2735.82 1138.4H2834.36L2847.95 1150.2L2844.55 1170.84L2841.15 1173.79H2732.42L2725.63 1161.99L2729.02 1144.3L2735.82 1138.4Z" fill="#D3EAEC"/>
<path d="M826.264 1919.94H850.049V2070.35L829.662 2096.89H826.264V1919.94Z" fill="#ABD5DF"/>
<path d="M2416.43 1592.58H2447.01L2464 1607.32V1630.92L2450.41 1648.61L2433.42 1657.46H2406.24L2392.64 1645.66V1613.22L2409.63 1595.53L2416.43 1592.58Z" fill="#F1F3F7"/>
<path d="M1026.73 1138.4H1053.92L1070.9 1147.25L1081.1 1159.04V1179.69L1070.9 1194.43L1057.31 1200.33H1030.13L1009.74 1188.54L1006.35 1182.64V1156.09L1019.94 1141.35L1026.73 1138.4Z" fill="#EBF3F4"/>
<path d="M2219.36 2200.12H2222.75L2219.36 2229.61L2195.57 2335.78H2192.17L2164.99 2220.76V2211.91L2205.77 2206.02L2219.36 2200.12Z" fill="#CBE5EB"/>
<path d="M700.546 1916.99H1329.14V1919.94H918.005V1946.48L887.425 1949.43L880.629 1952.38H853.447V1919.94H700.546V1916.99Z" fill="#75B9CD"/>
<path d="M4009.99 875.918H4094.93V911.309L4088.14 920.156H4009.99V875.918Z" fill="#4296B4"/>
<path d="M1849 2592.36L1855.79 2604.16L1852.4 2636.6H1723.28L1726.68 2618.91L1832.01 2598.26L1849 2592.36Z" fill="#BDE1E6"/>
<path d="M693.751 1636.82H775.297L785.491 1651.56L799.082 1689.9V1701.7H717.535L727.728 1698.75L734.524 1672.21L744.717 1642.71L693.751 1639.77V1636.82Z" fill="#CCE7EB"/>
<path d="M1424.27 2607.11L1427.67 2615.96L1512.62 2621.86L1679.11 2624.8V2636.6H1420.88L1424.27 2607.11Z" fill="#AED6DF"/>
<path d="M2735.82 1253.42H2841.15L2847.95 1262.27L2844.55 1282.91H2732.42L2725.63 1271.11L2729.02 1259.32L2735.82 1253.42Z" fill="#DDEFF0"/>
<path d="M2484.38 760.898H2963.47L2960.07 769.746H2844.55L2841.15 781.543L2834.36 787.441V766.797H2480.99L2484.38 760.898Z" fill="#7EC6D8"/>
<path d="M846.651 2070.35H850.049V2633.65H846.651L843.253 2450.8L826.264 2447.85V2368.22L836.458 2380.02L843.253 2388.87L846.651 2070.35Z" fill="#E1F0F4"/>
<path d="M2195.57 1448.07H2715.43L2729.02 1453.96L2198.97 1456.91H2188.78L2195.57 1448.07Z" fill="#E6F1F5"/>
<path d="M2406.23 1318.3L2419.83 1324.2L2447.01 1347.79L2474.19 1368.44L2470.79 1383.18L2440.21 1442.17L2436.81 1445.12H2406.23L2413.03 1430.37L2440.21 1383.18L2443.61 1359.59L2406.23 1330.1V1318.3Z" fill="#0E5A82"/>
<path d="M1417.48 2636.6H1679.11L1675.71 2648.4H1414.08L1417.48 2636.6Z" fill="#83B8CA"/>
<path d="M3119.77 1769.53H3408.58L3615.85 1772.48L3622.64 1781.33L3619.24 1793.12L3615.85 1778.38L3493.53 1781.33L3411.98 1778.38L3119.77 1775.43V1769.53Z" fill="#4B577D"/>
<path d="M2185.38 2489.14L2226.15 2495.04L2277.12 2497.99L2287.31 2500.94L2290.71 2521.58L2239.74 2527.48H2198.97L2181.98 2524.53V2503.89L2185.38 2489.14Z" fill="#E9A296"/>
<path d="M754.911 1919.94H826.264V2633.65H822.867V1931.74L788.889 1928.79L754.911 1922.89V1919.94Z" fill="#ACD5DE"/>
<path d="M3819.71 660.625H3850.29L3867.28 678.32V698.965L3850.29 713.711L3826.51 716.66L3806.12 704.863L3802.73 698.965V675.371L3819.71 660.625Z" fill="#C7E3E8"/>
<path d="M1036.93 1704.65H1186.43L1397.09 1710.55V1713.5H1230.6V1716.45L1030.13 1719.39L1036.93 1704.65Z" fill="#4FA9BD"/>
<path d="M1553.39 2061.5L1566.98 2076.25L1580.57 2091H1543.2L1482.04 2085.1L1454.85 2076.25L1451.46 2064.45L1553.39 2061.5Z" fill="#176489"/>
<path d="M1036.93 1781.33L1043.72 1784.28V1790.18L1104.88 1793.12L1267.98 1804.92V1810.82H1176.24L1043.72 1804.92L1030.13 1796.07L1026.73 1787.23H1036.93V1781.33Z" fill="#357895"/>
<path d="M3007.64 519.062H3055.21L3045.02 524.961L3028.03 533.809L3021.23 551.504L3017.84 716.66L3007.64 725.508V519.062Z" fill="#AFDDE6"/>
<path d="M2647.48 669.473H2851.35V681.27H2647.48V669.473Z" fill="#97CFDB"/>
<path d="M4128.91 976.191H4156.1L4176.48 990.938V1014.53L4166.29 1011.58H4128.91L4115.32 1026.33L4101.73 1023.38V993.887L4108.53 985.039L4128.91 976.191Z" fill="#9CADBE"/>
<path d="M751.513 2188.32H754.911V2294.49L741.32 2282.7L717.535 2250.25L714.137 2241.41L727.728 2217.81L751.513 2188.32Z" fill="#DBEAEE"/>
<path d="M1764.05 1772.48L1777.64 1775.43L1774.25 1784.28L1784.44 1787.23L1978.11 1790.18V1796.07H1832.01L1988.31 1799.02V1801.97H1760.66L1757.26 1796.07V1775.43L1764.05 1772.48Z" fill="#5696B7"/>
<path d="M2555.74 589.844L2565.93 592.793L2562.53 604.59L2521.76 639.98L2497.98 657.676L2484.38 654.727L2443.61 622.285L2436.81 610.488L2450.41 607.539L2484.38 634.082L2494.58 637.031L2521.76 616.387L2555.74 589.844Z" fill="#F3F8FA"/>
<path d="M2997.45 507.266H3007.64L3011.04 516.113L3007.64 716.66H3004.25L3000.85 731.406H2997.45V507.266Z" fill="#87C3D6"/>
<path d="M1036.93 1636.82H1125.27L1210.21 1639.77L1213.61 1645.66L1230.6 1648.61V1651.56H1101.48L1036.93 1648.61V1636.82Z" fill="#2583A0"/>
<path d="M2647.48 566.25H2888.72V575.098H2647.48V566.25Z" fill="#92CBDA"/>
<path d="M2382.45 1120.7H2416.43V1129.55L2372.26 1135.45L2331.48 1150.2L2300.9 1173.79L2287.31 1191.48L2280.52 1215.08L2277.12 1256.37L2266.93 1253.42V1212.13L2277.12 1182.64L2307.7 1153.14L2324.69 1141.35L2358.67 1126.6L2382.45 1120.7Z" fill="#BDDBE5"/>
<path d="M1961.13 2500.94H1988.31V2521.58L1930.55 2527.48H1889.77L1886.37 2524.53V2509.79H1862.59V2506.84L1940.74 2503.89L1961.13 2500.94Z" fill="#E0ABA1"/>
<path d="M4111.92 1067.62L4128.91 1070.57L4132.31 1073.52H4152.7L4166.29 1067.62L4186.68 1079.41V1085.31L4169.69 1094.16L4156.1 1097.11H4108.53L4088.14 1088.26L4094.94 1076.46L4111.92 1067.62Z" fill="#A0BCC8"/>
<path d="M2188.78 2654.3H2277.12L2348.47 2657.25V2660.2L2464 2663.14V2666.09H2171.79L2188.78 2654.3Z" fill="#8DC0D0"/>
<path d="M1672.31 1138.4L1685.9 1141.35L1709.69 1159.04L1736.87 1167.89H1777.64L1804.83 1159.04L1821.82 1161.99L1818.42 1173.79L1804.83 1179.69H1719.88L1692.7 1167.89L1675.71 1156.09L1668.92 1141.35L1672.31 1138.4Z" fill="#363E5F"/>
<path d="M1183.03 1799.02H1237.4L1356.32 1801.97L1342.73 1807.87L1366.51 1810.82L1546.6 1813.77V1816.72H1312.15L1271.37 1813.77L1267.98 1804.92H1227.2L1183.03 1801.97V1799.02Z" fill="#CDB395"/>
<path d="M839.855 1586.68H843.253L846.651 1619.12L850.049 1601.43H853.447L856.844 1636.82L867.038 1657.46L863.64 1681.05L860.242 1701.7H839.855V1586.68Z" fill="#C4E6EC"/>
<path d="M3989.6 586.895L4006.59 589.844L4020.18 601.641L4016.79 622.285L4003.19 634.082H3986.21L3969.22 619.336V601.641L3982.81 589.844L3989.6 586.895Z" fill="#F2F4F6"/>
<path d="M3323.64 693.066H3330.43L3350.82 719.609L3371.21 731.406L3388.2 737.305H3439.16L3469.74 725.508L3486.73 710.762L3503.72 696.016L3496.92 713.711L3486.73 725.508L3473.14 737.305L3442.56 749.102H3384.8L3347.42 731.406L3330.43 713.711L3323.64 701.914V693.066Z" fill="#ACD6DF"/>
<path d="M2647.48 616.387H2796.98V628.184H2647.48V616.387Z" fill="#9BCFDB"/>
<path d="M1777.64 1772.48L1957.73 1775.43L1954.33 1784.28L1774.25 1787.23V1775.43L1777.64 1772.48Z" fill="#E2EFF2"/>
<path d="M1781.04 1672.21L1791.24 1675.16L1770.85 1695.8L1764.05 1707.6V1737.09L1767.45 1745.94L1794.63 1748.89V1763.63L1770.85 1772.48L1753.86 1769.53L1750.46 1751.84V1707.6L1767.45 1684L1781.04 1672.21Z" fill="#112B4A"/>
<path d="M1719.88 2604.16H1723.28V2636.6H1849V2645.45L1825.21 2648.4H1723.28L1719.88 2645.45V2604.16Z" fill="#8CBCCC"/>
<path d="M1920.35 2651.35L1991.71 2654.3L2012.09 2657.25V2660.2L2144.61 2663.14V2666.09H1964.52L1862.59 2660.2V2657.25L1916.95 2654.3L1920.35 2651.35Z" fill="#121C3A"/>
<path d="M839.856 1536.54H843.253V1586.68L839.856 1701.7H829.662L826.264 1595.53L833.06 1551.29L839.856 1536.54Z" fill="#2F7A99"/>
<path d="M3007.64 507.266H3133.36L3119.77 513.164L3167.34 516.113V519.062H3007.64V507.266Z" fill="#96D2DF"/>
<path d="M1713.09 2102.79H1733.47L1750.46 2158.83L1747.06 2173.57L1733.47 2167.68L1716.48 2129.34L1713.09 2102.79Z" fill="#1A789C"/>
<path d="M758.309 2636.6H853.447L911.209 2639.55L931.596 2642.5V2636.6L938.391 2639.55L934.993 2645.45H758.309V2636.6Z" fill="#79B5C9"/>
<path d="M3405.18 622.285L3418.78 625.234V657.676L3449.36 651.777V660.625L3415.38 678.32L3401.79 672.422L3398.39 663.574L3401.79 654.727L3405.18 622.285Z" fill="#B6E1EB"/>
<path d="M1325.74 1922.89H1332.53L1363.11 2043.81L1369.91 2070.35V2082.15H1363.11L1346.13 2017.27L1325.74 1934.69V1922.89Z" fill="#82C7D5"/>
<path d="M754.911 1919.94H826.264V2096.89H822.867V1931.74L788.889 1928.79L754.911 1922.89V1919.94Z" fill="#8EC3D1"/>
<path d="M1672.31 1014.53L1685.9 1020.43L1699.5 1044.02L1702.89 1055.82V1088.26L1692.7 1108.91H1689.3L1685.9 1049.92L1672.31 1020.43V1014.53Z" fill="#7EC1D4"/>
<path d="M2032.48 1922.89H2131.01V1928.79L2158.2 1931.74V1934.69H2083.45L2022.29 1928.79L2032.48 1922.89Z" fill="#C9E4EA"/>
<path d="M1403.89 1804.92H1546.59V1813.77H1475.24L1407.29 1810.82L1403.89 1804.92Z" fill="#EDA369"/>
<path d="M3238.69 1580.78H3259.08L3269.27 1586.68V1607.32L3259.08 1613.22H3242.09L3231.9 1604.38V1586.68L3238.69 1580.78Z" fill="#6CB9D9"/>
<path d="M1526.21 1686.95H1529.61L1536.4 1707.6L1522.81 1725.29L1417.48 1722.34V1716.45L1519.41 1710.55L1522.81 1707.6L1526.21 1686.95Z" fill="#45AFCD"/>
<path d="M1210.21 1639.77H1247.59V1651.56L1380.1 1654.51V1657.46H1244.19L1162.65 1654.51V1651.56L1213.61 1648.61L1206.82 1642.71L1210.21 1639.77Z" fill="#549DB5"/>
<path d="M1961.13 2500.94H1988.31V2521.58L1950.93 2524.53H1903.36V2521.58L1944.14 2518.63L1950.93 2515.68L1940.74 2503.89L1961.13 2500.94Z" fill="#EDC1B6"/>
<path d="M1811.62 1132.5H1876.18L1872.78 1144.3L1862.59 1150.2H1838.8L1815.02 1141.35L1811.62 1132.5Z" fill="#F9F1EE"/>
<path d="M1036.93 1704.65H1186.43V1707.6L1101.49 1710.55V1713.5L1030.13 1719.39L1036.93 1704.65Z" fill="#6DBCCA"/>
<path d="M1043.72 1719.39H1132.07V1722.34L1060.71 1725.29L1040.32 1740.04L1036.93 1745.94L1033.53 1778.38L1023.34 1766.58V1742.99L1036.93 1725.29L1043.72 1719.39Z" fill="#2A5F7A"/>
<path d="M3000.85 713.711L3007.64 716.66V746.152H3000.85L2997.45 757.949L2987.26 766.797L2960.07 769.746V763.848L2946.48 757.949L2980.46 752.051L2990.65 740.254L2994.05 731.406H3000.85V713.711Z" fill="#96D0E0"/>
<path d="M826.264 1919.94H850.049V2070.35H846.651V1937.64L829.662 1934.69L826.264 1943.54V1919.94Z" fill="#B8DEE8"/>
<path d="M2824.16 616.387H2895.52V628.184H2820.77L2824.16 616.387Z" fill="#97CDDB"/>
<path d="M1036.93 1781.33L1043.72 1784.28V1790.18L1104.88 1793.12V1796.07L1087.89 1799.02V1804.92H1043.72L1030.13 1796.07L1026.73 1787.23H1036.93V1781.33Z" fill="#3F829D"/>
<path d="M1529.61 1760.68H1533L1536.4 1793.12H1583.97L1580.57 1801.97L1600.96 1804.92V1807.87H1549.99V1801.97H1533L1529.61 1799.02V1760.68Z" fill="#1C506F"/>
<path d="M1957.73 2365.27L1967.92 2371.17L1978.11 2397.71L1967.92 2406.56H1961.12V2412.46L1944.14 2415.41L1947.53 2409.51L1950.93 2397.71L1940.74 2400.66V2391.82L1957.73 2388.87V2385.92V2371.17L1950.93 2368.22L1957.73 2365.27Z" fill="#2C3A63"/>
<path d="M2963.47 1159.04L2977.06 1161.99H2970.27L2966.87 1185.59L2963.47 1356.64H2960.07V1161.99L2963.47 1159.04Z" fill="#83D0DE"/>
<path d="M1804.83 1159.04L1821.82 1161.99L1818.42 1173.79L1804.83 1179.69H1733.47L1747.06 1173.79H1781.04L1794.63 1161.99L1804.83 1159.04Z" fill="#253454"/>
<path d="M2331.48 834.629L2338.28 840.527L2328.09 849.375L2341.68 855.273L2334.88 861.172L2290.71 870.02H2273.72L2277.12 861.172L2311.1 849.375L2331.48 834.629Z" fill="#7CC2D8"/>
<path d="M2236.35 2642.5L2290.71 2645.45V2651.35H2314.49V2654.3H2236.35L2188.78 2651.35V2648.4L2232.95 2645.45L2236.35 2642.5Z" fill="#161F40"/>
<path d="M2409.63 822.832L2419.83 825.781L2406.23 837.578L2358.67 855.273L2341.68 858.223L2334.88 849.375L2382.45 834.629L2409.63 822.832Z" fill="#8CC8D7"/>
<path d="M1764.05 1701.7H1767.45L1774.25 1725.29L1794.63 1740.04V1742.99L1815.02 1745.94V1748.89H1767.45L1760.66 1737.09V1707.6L1764.05 1701.7Z" fill="#D69088"/>
<path d="M1312.15 1636.82L1335.93 1639.77V1642.71L1301.95 1645.66L1298.56 1651.56H1240.79L1247.59 1639.77L1312.15 1636.82Z" fill="#2B92B2"/>
<path d="M3500.32 696.016L3503.72 701.914L3493.53 716.66L3486.73 728.457L3459.55 743.203L3442.56 749.102H3428.97V743.203H3408.58V740.254L3449.36 734.355L3469.74 725.508L3486.73 710.762L3500.32 696.016Z" fill="#B2DAE2"/>
<path d="M839.856 1536.54H843.253V1586.68H839.856L836.458 1613.22H829.662L826.264 1619.12L829.662 1566.04L839.856 1536.54Z" fill="#296F90"/>
<path d="M2005.3 2533.38L2029.08 2548.12L2022.29 2554.02H1961.13L1944.14 2559.92V2554.02L1971.32 2542.23H2001.9L2005.3 2533.38Z" fill="#2C4A72"/>
<path d="M1509.22 1645.66L1529.61 1657.46L1533 1666.31L1526.21 1669.26L1522.81 1678.11L1509.22 1660.41V1654.51H1424.27V1651.56L1509.22 1645.66Z" fill="#1990AC"/>
<path d="M1855.79 1041.07L1865.99 1052.87L1886.37 1091.21L1882.98 1103.01L1865.99 1108.91H1845.6L1849 1103.01L1876.18 1097.11L1869.38 1082.36L1855.79 1055.82V1041.07Z" fill="#C28073"/>
<path d="M2406.23 1318.3L2419.83 1324.2L2447.01 1347.79L2470.79 1365.49H2460.6L2447.01 1356.64L2430.02 1350.74L2406.23 1330.1V1318.3Z" fill="#0A4B73"/>
<path d="M3255.68 1247.52L3272.67 1250.47L3282.86 1259.32L3262.48 1271.11L3242.09 1265.21L3235.29 1262.27V1256.37L3255.68 1247.52Z" fill="#43B3CF"/>
<path d="M1679.11 1005.68L1692.7 1017.48L1699.5 1029.28L1706.29 1032.23L1713.09 1049.92V1094.16L1706.29 1103.01V1049.92H1699.5L1682.51 1020.43L1679.11 1005.68Z" fill="#2B6C94"/>
<path d="M1533 1707.6H1539.8L1536.4 1728.24H1390.3V1725.29H1522.81L1529.61 1713.5L1533 1707.6Z" fill="#B3B09D"/>
<path d="M2593.11 1194.43H2596.51V1226.88H2589.72L2586.32 1250.47L2569.33 1277.01H2562.53L2569.33 1259.32L2589.72 1206.23L2593.11 1194.43Z" fill="#C2796E"/>
<path d="M1040.32 1737.09L1047.12 1740.04V1772.48L1060.71 1784.28L1070.9 1790.18H1043.72L1033.53 1772.48V1745.94L1040.32 1737.09Z" fill="#BDCEDA"/>
<path d="M4094.93 875.918H4098.33V920.156H4156.1V923.105H4009.99V920.156L4088.14 917.207L4091.54 911.309L4094.93 875.918Z" fill="#86C1D1"/>
<path d="M894.22 1610.27L897.618 1616.17L880.629 1657.46L887.424 1660.41L880.629 1663.36L870.436 1695.8L860.242 1692.85L863.64 1672.21L890.822 1613.22L894.22 1610.27Z" fill="#51B2C5"/>
<path d="M2440.21 1436.27L2447.01 1442.17L2627.09 1445.12V1448.07H2436.81L2440.21 1436.27Z" fill="#BADAE2"/>
<path d="M4077.95 1259.32L4094.93 1262.27L4101.73 1277.01L4091.54 1285.86L4074.55 1282.91L4071.15 1279.96V1265.21L4077.95 1259.32Z" fill="#ECF3F5"/>
<path d="M850.049 1919.94H853.447V1952.38L863.64 1955.33L860.242 1958.28L856.844 1987.77L853.447 2052.66H850.049V1919.94Z" fill="#8BC3D4"/>
<path d="M1087.89 1796.07H1145.66L1169.44 1799.02V1801.97L1149.05 1804.92H1087.89V1796.07Z" fill="#296F8D"/>
<path d="M3710.99 2368.22H3765.35V2380.02H3724.58L3710.99 2368.22Z" fill="white"/>
<path d="M1764.05 1772.48L1777.64 1775.43L1774.25 1784.28L1791.24 1793.12L1787.84 1799.02H1760.66L1757.26 1796.07V1775.43L1764.05 1772.48Z" fill="#5EA0BE"/>
<path d="M1767.45 1751.84H1794.63V1763.63L1770.85 1772.48L1753.86 1769.53L1757.26 1757.73L1767.45 1751.84Z" fill="#07294F"/>
<path d="M1672.31 1138.4L1685.9 1141.35L1709.69 1164.94V1167.89H1692.7L1675.71 1156.09L1668.92 1141.35L1672.31 1138.4Z" fill="#24385B"/>
<path d="M1784.44 1032.23L1798.03 1035.18L1801.43 1038.12V1058.77L1798.03 1064.67L1784.44 1061.72L1781.04 1055.82V1038.12L1784.44 1032.23Z" fill="#494356"/>
<path d="M3622.64 1318.3L3639.63 1321.25L3643.03 1336L3636.23 1341.89H3619.24L3615.85 1338.95V1324.2L3622.64 1318.3Z" fill="#FBE1A8"/>
<path d="M754.911 1919.94H826.264V1931.74L788.889 1928.79L754.911 1922.89V1919.94Z" fill="#92CCDA"/>
<path d="M1019.94 1790.18L1033.53 1799.02V1804.92H884.027V1801.97L1019.94 1799.02V1790.18Z" fill="#B8D9E3"/>
<path d="M1920.35 2651.35H1940.74L1964.52 2657.25V2660.2L1896.57 2663.14L1862.59 2660.2V2657.25L1916.95 2654.3L1920.35 2651.35Z" fill="#1B2543"/>
<path d="M1913.56 1675.16H1933.94L1954.33 1686.95L1974.72 1707.6L1978.11 1719.39H1974.72L1971.32 1737.09H1967.92L1964.52 1710.55L1947.53 1689.9L1933.94 1684L1913.56 1681.05V1675.16Z" fill="#A38586"/>
<path d="M1672.31 1014.53L1685.9 1020.43L1699.5 1044.02L1696.1 1061.72L1689.3 1064.67L1675.71 1026.33L1672.31 1014.53Z" fill="#87C9DC"/>
<path d="M1896.57 1026.33L1910.16 1032.23V1058.77H1896.57L1893.17 1055.82V1029.28L1896.57 1026.33Z" fill="#333A53"/>
<path d="M2192.17 1451.02H2351.87V1453.96L2198.97 1456.91H2188.78L2192.17 1451.02Z" fill="#F1F7FA"/>
<path d="M2039.27 2556.97L2052.87 2562.87L2046.07 2568.77L1981.51 2571.72L1967.92 2574.67L1971.32 2565.82L2039.27 2556.97Z" fill="#294A73"/>
<path d="M744.718 1793.12L758.309 1796.07H799.082L802.48 1793.12H826.264V1796.07L853.447 1799.02V1801.97H751.513L744.718 1793.12Z" fill="#114064"/>
<path d="M1400.49 1262.27H1543.2L1529.61 1268.16L1512.62 1271.11V1265.21H1400.49V1262.27Z" fill="#72BFD2"/>
<path d="M778.695 1633.87H788.889L802.48 1663.36L799.082 1678.11L792.286 1684L782.093 1651.56L778.695 1633.87Z" fill="#266F8E"/>
<path d="M1210.21 1282.91H1223.81L1217.01 1294.71L1206.82 1291.76L1189.83 1294.71L1176.24 1309.45L1172.84 1300.61L1152.45 1306.5L1162.65 1297.66L1196.62 1285.86L1210.21 1282.91Z" fill="#7ACADB"/>
<path d="M1583.97 1793.12H1614.55L1611.15 1799.02L1645.13 1801.97V1804.92H1577.18L1583.97 1793.12Z" fill="#094167"/>
<path d="M3666.81 1321.25H3683.8L3687.2 1324.2V1338.95L3683.8 1341.89H3666.81L3663.42 1338.95V1324.2L3666.81 1321.25Z" fill="#FAE2A6"/>
<path d="M4210.46 1288.81H4227.45L4234.24 1300.61L4227.45 1309.45L4210.46 1306.5L4207.06 1291.76L4210.46 1288.81Z" fill="white"/>
<path d="M2372.26 2559.92H2392.64L2382.45 2565.82H2362.06L2358.67 2571.72L2314.49 2580.57L2307.7 2577.62L2321.29 2571.72L2345.07 2565.82V2562.87L2372.26 2559.92Z" fill="#4A7592"/>
<path d="M3714.38 1321.25L3731.37 1324.2L3734.77 1338.95L3731.37 1341.89H3714.38L3710.99 1338.95V1324.2L3714.38 1321.25Z" fill="#FBDD9D"/>
<path d="M826.264 1919.94H850.049V1937.64L829.662 1934.69L826.264 1943.54V1919.94Z" fill="#C4E4EA"/>
<path d="M1033.53 1728.24H1036.93L1033.53 1778.38L1023.34 1766.58V1742.99L1033.53 1728.24Z" fill="#135270"/>
<path d="M642.784 2046.76L659.773 2049.71L656.375 2064.45H635.988L632.59 2049.71L642.784 2046.76Z" fill="#EFF5F7"/>
<path d="M3378 737.305L3428.97 743.203V749.102H3384.8L3374.6 740.254L3378 737.305Z" fill="#9ECFDA"/>
<path d="M1108.28 1344.84H1111.68L1115.08 1383.18L1104.88 1392.03H1101.49V1365.49L1108.28 1344.84Z" fill="#6CC1D5"/>
<path d="M1159.25 1787.23L1193.23 1790.18L1196.62 1796.07L1179.63 1799.02H1145.66V1793.12H1159.25V1787.23Z" fill="#D2E2E8"/>
<path d="M1784.44 1763.63L1879.58 1766.58V1769.53L1770.85 1772.48L1784.44 1763.63Z" fill="#0A5881"/>
<path d="M778.695 1595.53H782.093L788.889 1619.12V1633.87H778.695L775.298 1639.77V1633.87L768.502 1630.92L771.9 1619.12H778.695V1595.53Z" fill="#5FB5C3"/>
<path d="M2164.99 2388.87L2178.58 2391.82V2415.41L2171.79 2427.21L2164.99 2412.46V2388.87Z" fill="#33567B"/>
<path d="M2830.96 808.086H2834.36L2841.15 831.68L2864.94 849.375V852.324H2847.95L2834.36 840.527L2830.96 831.68V808.086Z" fill="#BDE3EA"/>
<path d="M2266.93 2657.25H2311.1L2307.7 2663.14L2297.51 2666.09H2260.13L2266.93 2657.25Z" fill="#93C6D7"/>
<path d="M2287.31 2545.18L2321.29 2548.12L2328.09 2556.97H2287.31V2545.18Z" fill="#16284A"/>
<path d="M1757.26 1716.45H1760.66L1767.45 1745.94L1794.63 1748.89V1751.84L1767.45 1754.79L1753.86 1757.73L1757.26 1716.45Z" fill="#252841"/>
<path d="M1730.08 811.035H1791.24L1798.03 816.934L1787.84 822.832H1770.85V816.934L1730.08 813.984V811.035Z" fill="#448CA9"/>
<path d="M799.082 1672.21L805.878 1675.16L809.275 1695.8L802.48 1704.65H765.104V1701.7H799.082L795.684 1678.11L799.082 1672.21Z" fill="#1E6587"/>
<path d="M1111.68 1451.02L1115.08 1459.86H1125.27L1121.87 1480.51L1125.27 1495.25L1121.87 1510H1118.47L1111.68 1468.71V1451.02Z" fill="#73C3D6"/>
<path d="M2311.1 2657.25H2348.47V2666.09H2297.51L2311.1 2657.25Z" fill="#8BBBCD"/>
<path d="M2266.93 2536.33H2290.71L2307.7 2542.23V2545.18H2260.13V2539.28L2266.93 2536.33Z" fill="#28446D"/>
<path d="M1325.74 1922.89H1332.53L1342.73 1961.23L1339.33 1973.03L1332.53 1964.18L1325.74 1934.69V1922.89Z" fill="#6AB9CB"/>
<path d="M1699.5 813.984H1730.08L1716.48 819.883L1685.9 828.73V822.832L1675.71 816.934L1699.5 813.984Z" fill="#27364F"/>
<path d="M2161.59 1533.59H2168.39L2161.59 1563.09H2151.4L2148 1551.29L2158.2 1536.54L2161.59 1533.59Z" fill="#74AAC2"/>
<path d="M3615.85 813.984H3619.24V831.68L3605.65 849.375L3588.66 852.324L3605.65 834.629L3615.85 813.984Z" fill="#BFE3EB"/>
<path d="M2579.52 1235.72L2586.32 1241.62L2582.92 1256.37L2569.33 1277.01H2562.53L2569.33 1259.32L2579.52 1235.72Z" fill="#D68F80"/>
<path d="M1651.93 993.887L1668.92 996.836L1679.11 1005.68V1014.53L1668.92 1017.48L1665.52 1005.68L1651.93 999.785V993.887Z" fill="#348EB4"/>
<path d="M1512.62 1651.56L1526.21 1654.51L1533 1666.31L1526.21 1669.26L1522.81 1678.11L1509.22 1660.41L1512.62 1651.56Z" fill="#1E86A6"/>
<path d="M1685.9 1100.06L1696.1 1103.01V1108.91H1702.89L1706.29 1100.06L1702.89 1117.75L1696.1 1123.65L1692.7 1117.75H1685.9L1682.51 1129.55L1685.9 1100.06Z" fill="#3287A6"/>
<path d="M1040.32 1766.58L1053.92 1781.33L1070.9 1787.23V1790.18H1043.72L1036.93 1775.43L1040.32 1766.58Z" fill="#C7D8E2"/>
<path d="M870.436 1660.41H877.231L873.833 1681.05L870.436 1695.8L860.242 1692.85L863.64 1672.21L870.436 1660.41Z" fill="#2B80A0"/>
<path d="M3884.27 2388.87H3914.85L3925.05 2394.77L3914.85 2397.71H3891.07L3884.27 2394.77V2388.87Z" fill="#F6F9FA"/>
<path d="M3140.16 1309.45L3157.15 1312.4L3146.95 1318.3L3143.55 1371.39H3140.16V1309.45Z" fill="#09628A"/>
<path d="M2056.26 2568.77L2063.06 2574.67L2039.27 2583.52L2008.69 2592.36V2586.46L2039.27 2574.67L2056.26 2568.77Z" fill="#38587D"/>
<path d="M2151.4 1577.83L2154.8 1583.73L2144.61 1616.17L2137.81 1607.32V1586.68L2151.4 1577.83Z" fill="#75ABC3"/>
<path d="M1713.09 846.426V855.273L1682.51 881.816L1675.71 878.867L1696.1 858.223L1713.09 846.426Z" fill="#172F56"/>
<path d="M1108.28 1394.98H1121.87V1400.88H1115.08L1111.68 1439.22H1108.28L1104.88 1409.73L1108.28 1394.98Z" fill="#6BC0D5"/>
<path d="M2433.42 1338.95L2460.6 1356.64L2470.79 1368.44L2457.2 1362.54L2447.01 1356.64L2433.42 1350.74V1338.95Z" fill="#204765"/>
<path d="M2834.36 760.898H2847.95L2844.55 781.543L2834.36 787.441L2830.96 763.848L2834.36 760.898Z" fill="#70BED5"/>
<path d="M2039.27 2556.97L2052.87 2562.87L2046.07 2568.77L2001.9 2565.82V2562.87L2039.27 2556.97Z" fill="#3B5B7F"/>
<path d="M1023.34 1766.58L1036.93 1772.48V1787.23L1030.13 1790.18L1033.53 1796.07L1019.94 1790.18L1023.34 1766.58Z" fill="#216786"/>
<path d="M1764.05 1772.48L1777.64 1775.43L1774.25 1787.23L1757.26 1793.12V1775.43L1764.05 1772.48Z" fill="#64AAC6"/>
<path d="M1145.66 1306.5L1152.45 1309.45L1125.27 1333.05V1324.2L1145.66 1306.5ZM1118.47 1333.05L1121.87 1341.89L1111.68 1344.84L1118.47 1333.05Z" fill="#73C5D9"/>
<path d="M1030.13 1719.39L1036.93 1722.34L1019.94 1751.84L1016.54 1742.99L1026.73 1722.34L1030.13 1719.39Z" fill="#307F97"/>
<path d="M1869.38 1719.39L1879.58 1722.34L1865.99 1731.19L1852.4 1737.09H1842.2L1845.6 1728.24L1869.38 1725.29V1719.39Z" fill="#DCAFA2"/>
<path d="M1335.93 1970.08L1346.13 1973.03L1349.52 1999.57H1342.73L1335.93 1970.08Z" fill="#75C0D1"/>
<path d="M1961.12 1698.75L1971.32 1701.7L1978.11 1719.39H1974.72L1971.32 1737.09H1967.92L1964.52 1710.55L1961.12 1698.75Z" fill="#5F7C8D"/>
<path d="M1781.04 1672.21L1791.24 1675.16L1774.25 1692.85L1760.66 1695.8L1767.45 1684L1781.04 1672.21Z" fill="#1D3455"/>
<path d="M1689.3 1064.67H1692.7L1696.1 1088.26L1699.5 1100.06L1689.3 1108.91V1064.67Z" fill="#5EB3CB"/>
<path d="M1590.77 990.938L1597.56 993.887L1570.38 1017.48L1563.58 1014.53L1580.57 996.836L1590.77 990.938Z" fill="#26779A"/>
<path d="M3197.92 737.305H3228.5L3225.1 746.152H3197.92V737.305Z" fill="#CAE8EE"/>
<path d="M754.911 1922.89L768.502 1928.79L761.706 1949.43L754.911 1952.38V1922.89Z" fill="#68ABC1"/>
<path d="M1397.09 1916.99H1427.67L1424.27 1925.84L1403.89 1922.89L1400.49 1928.79L1397.09 1916.99Z" fill="#399EBC"/>
<path d="M3102.78 1282.91L3119.77 1285.86L3109.58 1297.66L3089.19 1294.71L3102.78 1288.81V1282.91Z" fill="#E0EAEE"/>
<path d="M1818.42 1250.47L1842.2 1253.42V1259.32L1828.61 1262.27L1818.42 1265.21V1250.47Z" fill="#1D7BA6"/>
<path d="M1560.19 1799.02H1580.57V1801.97L1600.96 1804.92V1807.87H1570.38L1556.79 1801.97L1560.19 1799.02Z" fill="#174D70"/>
<path d="M1036.93 1781.33L1043.72 1784.28V1790.18L1050.52 1793.12H1043.72V1799.02L1030.13 1796.07L1026.73 1787.23H1036.93V1781.33Z" fill="#2B7391"/>
<path d="M1526.21 1686.95H1529.61L1536.4 1707.6L1522.81 1719.39V1707.6L1526.21 1686.95Z" fill="#48A8BC"/>
<path d="M2117.42 1660.41H2120.82V1686.95L2110.63 1692.85L2114.03 1666.31L2117.42 1660.41Z" fill="#65A0BB"/>
<path d="M2131.01 1622.07L2137.81 1633.87L2134.41 1651.56L2120.82 1645.66L2124.22 1636.82L2131.01 1622.07Z" fill="#76AEC7"/>
<path d="M1325.74 1433.32L1329.14 1445.12L1322.34 1477.56H1318.94V1442.17L1325.74 1433.32Z" fill="#419DBC"/>
<path d="M1240.79 1309.45H1247.59L1244.19 1324.2L1234 1333.05V1324.2L1227.2 1321.25L1240.79 1309.45Z" fill="#6FC6DB"/>
<path d="M1781.04 1754.79H1794.63V1763.63L1770.85 1769.53V1763.63H1777.64L1781.04 1754.79Z" fill="#04335B"/>
<path d="M1533 1707.6H1539.8V1722.34L1522.81 1725.29L1529.61 1713.5L1533 1707.6Z" fill="#C4E7E4"/>
<path d="M3051.81 1250.47H3058.61V1256.37L3045.02 1265.21L3031.43 1262.27V1256.37L3051.81 1250.47Z" fill="#2B6C8B"/>
<path d="M2290.71 858.223L2300.9 867.07L2273.72 870.02L2277.12 861.172L2290.71 858.223Z" fill="#8AC7DA"/>
<path d="M1549.99 1731.19H1563.58V1742.99H1539.8L1549.99 1740.04V1731.19Z" fill="#C69F74"/>
<path d="M945.187 1636.82L955.38 1642.71L934.993 1651.56L924.8 1648.61L945.187 1636.82Z" fill="#62BFCE"/>
<path d="M2406.23 1318.3L2419.83 1324.2L2426.62 1333.05H2409.63L2406.23 1318.3Z" fill="#0C4666"/>
<path d="M1366.51 1262.27H1393.69L1390.3 1274.06L1380.1 1279.96L1383.5 1265.21H1366.51V1262.27Z" fill="#8BD2E0"/>
<path d="M1855.79 1041.07L1865.99 1052.87L1869.38 1073.52L1859.19 1064.67L1855.79 1041.07Z" fill="#BD7A6E"/>
<path d="M1702.89 1032.23L1709.69 1041.07V1061.72L1706.29 1049.92H1699.5L1696.1 1038.12H1702.89V1032.23Z" fill="#286A90"/>
<path d="M1716.48 996.836L1719.88 1008.63L1702.89 1026.33L1699.5 1017.48L1713.09 1005.68L1716.48 996.836Z" fill="#D2A09A"/>
<path d="M799.082 1672.21L805.878 1675.16V1692.85L799.082 1695.8L795.684 1678.11L799.082 1672.21Z" fill="#175B7A"/>
<path d="M2178.58 1459.86H2188.78L2185.38 1477.56H2175.19V1462.81L2178.58 1459.86Z" fill="#79ACC3"/>
<path d="M1791.24 1041.07H1794.63L1798.03 1064.67L1784.44 1061.72L1791.24 1041.07Z" fill="#353A51"/>
<path d="M2647.48 1017.48L2661.07 1020.43L2640.68 1035.18H2633.89L2640.68 1023.38L2647.48 1017.48Z" fill="#374060"/>
<path d="M2063.06 2120.49H2090.24L2080.05 2123.44L2076.65 2135.23L2069.85 2132.29V2126.39L2063.06 2120.49Z" fill="#39A8C8"/>
<path d="M1672.31 1014.53L1685.9 1020.43V1032.23H1679.11L1672.31 1014.53Z" fill="#78C3D8"/>
<path d="M1624.74 837.578V846.426L1611.15 858.223L1604.36 855.273L1617.95 840.527L1624.74 837.578Z" fill="#263352"/>
</g>
<path d="M105 0.5H5222.5V3019.5H105C49.4954 3019.5 4.5 2974.5 4.5 2919V101C4.5 45.4954 49.4954 0.500002 105 0.5Z" stroke="white" shape-rendering="crispEdges"/>
</g>
<defs>
<filter id="filter0_d_20_2" x="0" y="0" width="5227" height="3028" filterUnits="userSpaceOnUse" color-interpolation-filters="sRGB">
<feFlood flood-opacity="0" result="BackgroundImageFix"/>
<feColorMatrix in="SourceAlpha" type="matrix" values="0 0 0 0 0 0 0 0 0 0 0 0 0 0 0 0 0 0 127 0" result="hardAlpha"/>
<feOffset dy="4"/>
<feGaussianBlur stdDeviation="2"/>
<feComposite in2="hardAlpha" operator="out"/>
<feColorMatrix type="matrix" values="0 0 0 0 0 0 0 0 0 0 0 0 0 0 0 0 0 0 0.25 0"/>
<feBlend mode="normal" in2="BackgroundImageFix" result="effect1_dropShadow_20_2"/>
<feBlend mode="normal" in="SourceGraphic" in2="effect1_dropShadow_20_2" result="shape"/>
</filter>
<clipPath id="clip0_20_2">
<path d="M4 101C4 45.2192 49.2192 0 105 0H5223V3020H105C49.2193 3020 4 2974.78 4 2919V101Z" fill="white"/>
</clipPath>
</defs>
</svg>
