<svg width="1396" height="1044" viewBox="0 0 1396 1044" fill="none" xmlns="http://www.w3.org/2000/svg">
<g clip-path="url(#clip0_12_66)">
<rect width="1396" height="1044" fill="#9AD1D4"/>
<path d="M745.453 886.457C743.799 897.482 738.092 907.563 729.378 914.854C720.664 922.145 709.525 926.158 698 926.158C686.476 926.158 675.337 922.145 666.623 914.854C657.908 907.563 652.202 897.482 650.548 886.457H529.145V1145.96H866.855V886.457H745.453Z" fill="#090814"/>
<path d="M1377.17 893.1H18.8267C13.8351 893.095 9.04943 891.176 5.51984 887.764C1.99024 884.351 0.00508145 879.725 0 874.899L0 125.474C0.00508145 120.648 1.99024 116.022 5.51984 112.61C9.04943 109.197 13.8351 107.278 18.8267 107.273H1377.17C1382.16 107.28 1386.95 109.199 1390.48 112.611C1394.01 116.023 1395.99 120.649 1395.99 125.474V874.899C1395.99 879.725 1394 884.351 1390.47 887.764C1386.95 891.176 1382.16 893.095 1377.17 893.1H1377.17Z" fill="#090814"/>
<path d="M1364.3 137.644H35.0535V862.73H1364.3V137.644Z" fill="white"/>
<path d="M71.0089 623.421L98.9951 621.886L96.9361 648.149H68.4578L71.0089 623.421Z" fill="#ED9DA0"/>
<path d="M236.324 628.518C243.913 622.455 253.301 621.326 257.29 625.997C261.279 630.668 258.362 639.365 250.769 645.429C247.771 647.892 244.206 649.624 240.373 650.482L207.881 675.776L195.928 660.782L229.227 637.438C230.822 633.96 233.256 630.901 236.324 628.518Z" fill="#ED9DA0"/>
<path d="M48.5281 685.587C48.5124 684.469 48.5281 674.711 55.9949 668.549C64.5786 661.464 76.6906 664.332 80.9379 665.344C90.7517 667.667 91.5562 671.737 100.771 675.918C118.014 683.74 96.409 679.737 106.67 677.228C110.221 676.36 161.309 672.935 174.026 665.367C198.76 650.65 215.611 641.728 215.611 641.728L226.634 663.017C215.702 677.104 202.795 689.652 188.285 700.299C165.287 716.572 153.788 724.708 136.314 727.851C134.809 728.121 97.798 734.231 67.9883 712.7C61.1828 707.789 48.7305 698.791 48.5368 685.591L48.5281 685.587Z" fill="#007EA7"/>
<path d="M82.7021 635.021C103.897 635.021 121.08 618.41 121.08 597.92C121.08 577.429 103.897 560.818 82.7021 560.818C61.5067 560.818 44.3245 577.429 44.3245 597.92C44.3245 618.41 61.5067 635.021 82.7021 635.021Z" fill="#ED9DA0"/>
<path d="M383.256 843.572L343.734 804.462L323.332 825.043L352.778 862.544L381.986 865.773L383.256 843.572Z" fill="#ED9DA0"/>
<path d="M157.578 770.23C159.89 770.416 167.237 771.838 174.257 768.105C177.558 766.28 180.335 763.687 182.336 760.561C192.631 745.609 232.159 722.294 267.633 720.858C275.66 720.533 280.954 721.434 285.76 723.854C292.574 727.289 295.295 732.208 303.943 743.732C308.674 750.036 313.907 755.974 318.695 762.238C346.723 798.905 357.348 801.785 356.263 813.54C355.057 826.583 340.507 838.957 330.837 837.528C326.876 836.943 325.342 834.281 320.051 828.891C304.536 813.087 298.116 816.008 287.071 803.904C274.173 789.772 275.862 778.054 269.134 777.602C262.894 777.182 260.234 787.179 246.922 800.457C240.826 806.53 236.487 809.321 223.261 818.189C171.767 852.728 170.945 855.162 160.553 857.908C156.006 859.113 123.734 867.667 112.238 854.055C94.247 832.754 136.748 768.557 157.578 770.23Z" fill="#090814"/>
<path d="M371.172 852.41C374.079 851.149 377.478 849.673 378.571 846.28C378.94 845.087 379.022 843.829 378.81 842.6C378.599 841.372 378.099 840.207 377.349 839.195C375.585 836.938 372.973 836.641 373.078 836.241C373.238 835.634 379.415 835.87 386.195 838.188C391.424 840.109 396.302 842.827 400.643 846.238C406.55 850.697 405.756 851.591 409.461 854.167C420.831 862.058 431.497 855.838 437.649 863.239C438.835 864.643 439.668 866.294 440.083 868.062C440.497 869.83 440.482 871.667 440.038 873.428C438.032 880.007 428.272 882.278 422.937 883.449C410.092 886.266 400.369 883.967 390.215 882.312C355.687 876.687 336.295 881.806 333.691 874.076C333.199 872.612 333.998 872.737 336.658 861.997C339.286 851.397 339.199 848.487 341.437 847.636C344.805 846.359 347.069 852.171 355.553 854.16C360.811 855.283 366.307 854.668 371.16 852.412L371.172 852.41Z" fill="#090814"/>
<path d="M312.99 971.52L303.006 917.706L274.171 923.652L276.754 970.668L299.051 989.192L312.99 971.52Z" fill="#ED9DA0"/>
<path d="M168.854 788.321C170.658 789.73 175.911 794.9 183.891 795.617C187.682 795.9 191.486 795.262 194.958 793.762C212.163 786.98 258.412 789.145 288.597 807.214C295.433 811.306 299.285 814.921 301.859 819.528C305.503 826.069 304.897 831.617 305.36 845.845C305.613 853.628 306.494 861.383 306.817 869.165C308.71 914.722 315.83 922.871 308.103 932.009C299.53 942.148 280.302 944.493 273.13 938.055C270.193 935.422 270.47 932.386 269.223 925.054C265.558 903.556 258.557 902.486 256.448 886.475C253.985 867.78 262.189 859.001 256.884 854.975C251.965 851.24 243.971 858.072 225.228 861.829C216.655 863.548 211.442 863.497 195.35 863.657C132.679 864.28 130.588 865.85 120.39 862.476C115.929 861.005 84.2569 850.563 82.6497 833.059C80.1369 805.668 152.593 775.62 168.852 788.311L168.854 788.321Z" fill="#090814"/>
<path d="M297.858 972.274C300.999 972.807 304.663 973.433 307.541 971.218C308.539 970.432 309.338 969.436 309.877 968.306C310.415 967.176 310.68 965.942 310.649 964.698C310.499 961.872 308.511 960.209 308.83 959.935C309.317 959.52 314.289 963.07 318.554 968.667C321.765 973.097 324.223 977.995 325.834 983.175C328.132 990.071 326.956 990.378 328.526 994.516C333.351 1007.22 345.789 1007.86 346.582 1017.33C346.747 1019.13 346.477 1020.95 345.793 1022.64C345.109 1024.33 344.029 1025.84 342.638 1027.05C337.153 1031.41 327.762 1027.99 322.668 1026.06C310.403 1021.42 303.693 1014.24 296.253 1007.36C270.95 983.961 251.93 977.669 254.265 969.861C254.708 968.384 255.296 968.92 263.738 961.479C272.07 954.134 273.685 951.678 276.033 952.191C279.563 952.961 278.058 958.999 283.924 965.251C287.623 969.035 292.528 971.509 297.854 972.277L297.858 972.274Z" fill="#090814"/>
<path d="M87.9336 605.01C89.4273 599.843 87.5515 597.96 89.464 595.641C89.464 595.641 90.2335 594.708 97.114 592.189C95.0846 580.802 96.6045 578.876 96.6045 578.876C97.5759 577.894 98.7805 577.156 100.114 576.727C101.447 576.297 102.868 576.189 104.255 576.411C109.315 577.025 110.201 581.441 113.435 581.342C117.902 581.205 123.259 572.57 121.596 565.07C120.24 558.959 114.391 554.42 112.925 555.208C111.46 555.995 106.239 552.546 104.255 553.236C102.899 553.706 96.5207 553.08 95.0741 553.728C93.4949 554.437 88.9666 558.848 88.5391 558.291C85.5342 554.43 85.5971 553.08 83.8538 552.249C80.7634 550.774 77.3973 553.5 71.6127 556.193C59.6944 561.734 56.2061 558.428 50.7007 563.096C47.9192 565.458 46.4289 569.96 43.5602 578.874C39.5467 591.342 37.5417 597.575 39.4804 603.529C41.4557 609.602 44.3664 608.278 48.6608 616.842C53.4421 626.375 51.8018 631.917 56.3108 634.1C59.8008 635.787 65.4127 634.714 67.5311 631.635C71.159 626.363 61.7831 619.233 64.9817 610.926C66.9448 605.826 72.9999 601.96 76.7133 603.036C80.9117 604.254 81.2206 611.532 83.8538 611.419C86.1083 611.322 87.6736 605.911 87.9336 605.01Z" fill="#090814"/>
<path d="M58.8603 636.91C66.7128 628.398 98.702 637.209 101.705 650.716C102.941 656.273 98.3897 658.618 99.6652 665.015C101.543 674.372 112.175 673.735 120.068 683.259C131.272 696.782 119.729 710.001 132.309 732.567C134.996 737.39 137.263 741.454 142.001 745.388C152.872 754.415 162.988 751.32 168.524 759.689C172.664 765.947 170.967 773.66 170.564 775.467C168.931 782.876 164.504 784.681 161.384 790.752C156.193 800.854 162.07 808.27 162.405 820.338C162.822 835.438 154.523 856.368 137.922 863.236C119.274 870.952 96.7808 858.175 85.8972 845.484C79.4024 837.913 77.5213 830.929 74.6769 822.308C61.9786 783.783 54.805 787.267 45.0941 756.728C33.9924 721.808 31.8112 680.914 45.0941 667.972C49.2473 664.428 52.5541 660.053 54.7858 655.151C58.9371 645.536 55.3511 640.718 58.8656 636.907L58.8603 636.91Z" fill="#007EA7"/>
<path d="M174.901 835.072C180.989 842.55 181.933 851.65 177.009 855.395C172.084 859.14 163.159 856.113 157.069 848.63C154.594 845.673 152.887 842.186 152.092 838.461L126.709 806.459L139.826 796.788L165.846 827.997C169.405 829.622 172.51 832.048 174.901 835.072Z" fill="#ED9DA0"/>
<path d="M81.9343 669.352C83.0634 669.107 92.947 667.127 100.716 672.94C109.641 679.619 109.209 691.665 109.057 695.891C108.708 705.652 104.75 707.244 102.396 716.82C97.9918 734.733 106.38 751.38 111.013 760.578C115.436 769.165 121.171 777.059 128.027 783.994C139.322 795.75 151.99 806.2 165.774 815.135L146.653 831.566C146.653 831.566 116.194 822.592 95.5558 804.611C74.3872 786.165 41.8309 720.907 35.0813 705.011C34.5002 703.641 42.7331 725.899 58.452 693.293C62.0379 685.856 68.6078 672.23 81.9343 669.352Z" fill="#007EA7"/>
<path d="M343.615 673.001C343.367 673.001 343.121 672.993 342.874 672.977C323.455 671.606 304.685 665.633 288.221 655.586C271.756 645.539 258.104 631.728 248.469 615.371C247.27 613.347 246.743 611.016 246.958 608.693C247.173 606.37 248.121 604.167 249.674 602.382L304.92 538.746C306.066 537.454 307.492 536.421 309.095 535.72C310.699 535.018 312.443 534.665 314.203 534.686C316.646 534.741 322.431 535.339 323.553 539.649C330.184 565.122 358.214 595.06 391.917 599.03C395.333 599.431 398.075 602.377 399.246 606.911C399.702 608.634 399.729 610.437 399.324 612.172C398.919 613.907 398.094 615.525 396.916 616.891L352.66 668.849C351.563 670.146 350.182 671.191 348.616 671.909C347.05 672.627 345.339 673 343.607 673.001H343.615ZM313.992 537.248C312.653 537.249 311.33 537.531 310.114 538.075C308.898 538.618 307.818 539.409 306.949 540.394L251.708 604.025C250.505 605.406 249.77 607.112 249.601 608.91C249.433 610.709 249.839 612.514 250.766 614.082C260.181 630.075 273.526 643.58 289.62 653.405C305.715 663.229 324.064 669.071 343.048 670.415C344.484 670.503 345.921 670.258 347.239 669.701C348.558 669.143 349.719 668.289 350.627 667.21L394.885 615.251C395.797 614.193 396.436 612.941 396.75 611.597C397.063 610.254 397.043 608.858 396.689 607.523C395.991 604.848 394.293 601.877 391.601 601.56C356.785 597.461 327.839 566.551 320.988 540.264C320.433 538.136 317.093 537.304 314.151 537.236H313.994L313.992 537.248Z" fill="#3F3D56"/>
<path d="M281.949 617.46L321.778 578.194C324.501 575.51 320.236 571.38 317.51 574.068L277.679 613.333C274.957 616.017 279.223 620.147 281.949 617.46Z" fill="#E6E6E6"/>
<path d="M305.988 628.521C316.983 618.977 326.532 607.984 334.355 595.865C336.419 592.67 331.198 589.738 329.142 592.919C321.578 604.605 312.346 615.201 301.72 624.393C298.821 626.905 303.102 631.023 305.988 628.521Z" fill="#E6E6E6"/>
<path d="M327.656 641.765C337.679 631.051 346.166 619.083 352.89 606.182C354.635 602.835 349.424 599.876 347.678 603.237C341.214 615.706 333.044 627.277 323.387 637.639C320.789 640.421 325.047 644.555 327.656 641.765Z" fill="#E6E6E6"/>
<path d="M310.591 571.083C332.77 571.083 350.749 554.069 350.749 533.08C350.749 512.091 332.77 495.076 310.591 495.076C288.413 495.076 270.434 512.091 270.434 533.08C270.434 554.069 288.413 571.083 310.591 571.083Z" fill="#007EA7"/>
<path d="M331.484 551.107L312.957 507.069C312.814 506.618 312.524 506.223 312.132 505.943C311.739 505.663 311.264 505.512 310.776 505.512C310.288 505.512 309.813 505.663 309.421 505.943C309.028 506.223 308.739 506.618 308.595 507.069C302.516 522.454 298.481 538.524 296.588 554.892C296.261 557.681 300.776 557.659 301.107 554.892C301.864 548.487 302.964 542.124 304.402 535.829C309.502 536.083 314.611 535.54 319.533 534.222L327.123 552.272C328.209 554.838 332.582 553.715 331.484 551.107ZM305.43 531.514C306.951 525.491 308.772 519.547 310.893 513.683L317.819 530.144C313.778 531.172 309.606 531.633 305.43 531.514Z" fill="white"/>
<path d="M998.136 382.246H739.877C734.095 382.246 729.407 386.777 729.407 392.367C729.407 397.957 734.095 402.489 739.877 402.489H998.136C1003.92 402.489 1008.61 397.957 1008.61 392.367C1008.61 386.777 1003.92 382.246 998.136 382.246Z" fill="#090814"/>
<path d="M1048.74 442.976H689.272C683.49 442.976 678.802 447.508 678.802 453.098C678.802 458.688 683.49 463.219 689.272 463.219H1048.74C1054.52 463.219 1059.21 458.688 1059.21 453.098C1059.21 447.508 1054.52 442.976 1048.74 442.976Z" fill="#F2F2F2"/>
<path d="M1048.74 483.463H689.272C683.49 483.463 678.802 487.995 678.802 493.585C678.802 499.175 683.49 503.706 689.272 503.706H1048.74C1054.52 503.706 1059.21 499.175 1059.21 493.585C1059.21 487.995 1054.52 483.463 1048.74 483.463Z" fill="#F2F2F2"/>
<path d="M752.239 626.869L729.407 616.41C738.771 629.044 746.84 648.775 751.16 664.477C758.474 649.851 770.264 631.956 781.935 621.267L757.805 627.268C772.674 556.82 828.598 506.247 892.641 506.247L893.548 503.703C826.654 503.706 767.418 553.578 752.239 626.869Z" fill="#3F3D56"/>
<path d="M849.812 663.967H689.272C683.49 663.967 678.802 668.499 678.802 674.089C678.802 679.679 683.49 684.211 689.272 684.211H849.812C855.594 684.211 860.282 679.679 860.282 674.089C860.282 668.499 855.594 663.967 849.812 663.967Z" fill="#007EA7"/>
<path d="M1048.74 663.967H888.202C882.419 663.967 877.732 668.499 877.732 674.089C877.732 679.679 882.419 684.211 888.202 684.211H1048.74C1054.52 684.211 1059.21 679.679 1059.21 674.089C1059.21 668.499 1054.52 663.967 1048.74 663.967Z" fill="#090814"/>
<path d="M849.812 704.454H689.272C683.49 704.454 678.802 708.986 678.802 714.576C678.802 720.166 683.49 724.698 689.272 724.698H849.812C855.594 724.698 860.282 720.166 860.282 714.576C860.282 708.986 855.594 704.454 849.812 704.454Z" fill="#090814"/>
<path d="M1048.74 704.454H888.202C882.419 704.454 877.732 708.986 877.732 714.576C877.732 720.166 882.419 724.698 888.202 724.698H1048.74C1054.52 724.698 1059.21 720.166 1059.21 714.576C1059.21 708.986 1054.52 704.454 1048.74 704.454Z" fill="#090814"/>
<path d="M867.318 341.759C898.157 341.759 923.157 317.59 923.157 287.776C923.157 257.962 898.157 233.793 867.318 233.793C836.478 233.793 811.478 257.962 811.478 287.776C811.478 317.59 836.478 341.759 867.318 341.759Z" fill="#007EA7"/>
<path d="M866.236 324.931C869.864 324.931 872.806 322.088 872.806 318.58C872.806 315.072 869.864 312.228 866.236 312.228C862.607 312.228 859.666 315.072 859.666 318.58C859.666 322.088 862.607 324.931 866.236 324.931Z" fill="white"/>
<path d="M865.529 252.301C860.576 252.35 855.839 254.265 852.324 257.639C848.81 261.012 846.794 265.578 846.708 270.365C846.708 270.456 846.708 271.1 846.708 271.944C846.708 273.18 847.215 274.365 848.119 275.239C849.023 276.112 850.249 276.603 851.527 276.603C852.161 276.603 852.788 276.482 853.373 276.248C853.958 276.013 854.489 275.67 854.937 275.236C855.385 274.803 855.74 274.289 855.982 273.723C856.224 273.158 856.349 272.551 856.349 271.939C856.349 271.365 856.349 270.969 856.349 270.944C856.348 269.409 856.76 267.901 857.546 266.568C858.331 265.234 859.462 264.122 860.827 263.339C862.192 262.556 863.744 262.13 865.331 262.103C866.918 262.077 868.485 262.45 869.877 263.186C871.27 263.922 872.44 264.996 873.273 266.302C874.106 267.608 874.572 269.101 874.627 270.635C874.682 272.168 874.323 273.689 873.585 275.048C872.848 276.406 871.757 277.556 870.42 278.383C870.42 278.383 863.561 282.653 861.468 288.505C861.101 289.705 860.914 290.95 860.915 292.201C860.915 292.707 860.947 297.216 861.008 300.87C861.029 302.13 861.562 303.332 862.492 304.216C863.422 305.099 864.674 305.594 865.977 305.594C867.295 305.594 868.56 305.087 869.492 304.186C870.424 303.285 870.947 302.063 870.947 300.789V300.759C870.926 297.414 870.914 293.517 870.914 293.235C870.914 289.638 874.503 286.055 877.451 283.719C880.863 281.047 883.261 277.356 884.268 273.224C884.483 272.372 884.6 271.5 884.617 270.623C884.617 265.762 882.62 261.099 879.064 257.661C875.508 254.224 870.685 252.293 865.656 252.293L865.529 252.301Z" fill="white"/>
</g>
<defs>
<clipPath id="clip0_12_66">
<rect width="1396" height="1044" fill="white"/>
</clipPath>
</defs>
</svg>
