<svg width="6204" height="10360" viewBox="0 0 6204 10360" fill="none" xmlns="http://www.w3.org/2000/svg">
<g clip-path="url(#clip0_265_15)">
<path d="M7429.71 7923.33H0V7928.51H7429.71V7923.33Z" fill="#EBEBEB"/>
<path d="M6685.25 8256.71H6193.11V8261.89H6685.25V8256.71Z" fill="#EBEBEB"/>
<path d="M4921.74 8313.07H4792.61V8318.25H4921.74V8313.07Z" fill="#EBEBEB"/>
<path d="M6178.25 8064.43H5893.09V8069.61H6178.25V8064.43Z" fill="#EBEBEB"/>
<path d="M1421.3 8099.24H779.52V8104.42H1421.3V8099.24Z" fill="#EBEBEB"/>
<path d="M1647.76 8099.24H1553.7V8104.42H1647.76V8099.24Z" fill="#EBEBEB"/>
<path d="M3345.6 8186.68H1953.57V8191.86H3345.6V8186.68Z" fill="#EBEBEB"/>
<path d="M3521.68 6999.22H652.476C629.999 6999.16 608.456 6986.67 592.576 6964.49C576.696 6942.31 567.777 6912.25 567.777 6880.9V1256.87C567.973 1225.71 576.978 1195.92 592.837 1173.96C608.696 1152 630.127 1139.65 652.476 1139.6H3521.68C3544.18 1139.6 3565.77 1152.06 3581.68 1174.25C3597.59 1196.44 3606.53 1226.53 3606.53 1257.91V6880.9C3606.53 6912.28 3597.59 6942.38 3581.68 6964.56C3565.77 6986.75 3544.18 6999.22 3521.68 6999.22ZM652.476 1143.74C630.984 1143.8 610.386 1155.74 595.203 1176.95C580.02 1198.16 571.492 1226.91 571.492 1256.87V6880.9C571.492 6910.87 580.02 6939.62 595.203 6960.83C610.386 6982.04 630.984 6993.98 652.476 6994.04H3521.68C3543.19 6993.98 3563.8 6982.04 3579.01 6960.84C3594.21 6939.64 3602.77 6910.89 3602.81 6880.9V1256.87C3602.77 1226.89 3594.21 1198.14 3579.01 1176.94C3563.8 1155.74 3543.19 1143.8 3521.68 1143.74H652.476Z" fill="#EBEBEB"/>
<path d="M6735.92 6999.22H3866.57C3844.08 6999.16 3822.52 6986.68 3806.62 6964.5C3790.71 6942.33 3781.76 6912.27 3781.72 6880.9V1256.87C3781.96 1225.69 3791 1195.9 3806.88 1173.94C3822.76 1151.99 3844.21 1139.65 3866.57 1139.6H6735.92C6758.25 1139.71 6779.64 1152.08 6795.47 1174.03C6811.29 1195.98 6820.28 1225.75 6820.47 1256.87V6880.9C6820.47 6912.21 6811.58 6942.24 6795.73 6964.42C6779.88 6986.59 6758.38 6999.11 6735.92 6999.22ZM3866.57 1143.74C3845.06 1143.8 3824.45 1155.74 3809.24 1176.94C3794.04 1198.14 3785.48 1226.89 3785.44 1256.87V6880.9C3785.48 6910.89 3794.04 6939.64 3809.24 6960.84C3824.45 6982.04 3845.06 6993.98 3866.57 6994.04H6735.92C6757.43 6993.98 6778.04 6982.04 6793.25 6960.84C6808.46 6939.64 6817.02 6910.89 6817.06 6880.9V1256.87C6817.02 1226.89 6808.46 1198.14 6793.25 1176.94C6778.04 1155.74 6757.43 1143.8 6735.92 1143.74H3866.57Z" fill="#EBEBEB"/>
<path d="M6140.96 1791.66H5416.86V3034.65H6140.96V1791.66Z" fill="#F5F5F5"/>
<path d="M6098.46 1850.92H5459.5V2974.98H6098.46V1850.92Z" fill="#EBEBEB"/>
<path d="M6020.89 2691.32V2974.98H5536.91V2691.32C5536.81 2617.74 5555.31 2546.46 5589.18 2490.03C5623.05 2433.59 5670.1 2395.62 5722.06 2382.8C5688.2 2364.33 5660.03 2329.95 5642.41 2285.59C5624.79 2241.23 5618.84 2189.69 5625.58 2139.86C5632.32 2090.04 5651.33 2045.06 5679.32 2012.7C5707.32 1980.34 5742.54 1962.63 5778.9 1962.63C5815.26 1962.63 5850.48 1980.34 5878.48 2012.7C5906.47 2045.06 5925.48 2090.04 5932.22 2139.86C5938.96 2189.69 5933.01 2241.23 5915.39 2285.59C5897.78 2329.95 5869.6 2364.33 5835.74 2382.8C5887.7 2395.62 5934.76 2433.59 5968.62 2490.03C6002.49 2546.46 6020.99 2617.74 6020.89 2691.32Z" fill="#E0E0E0"/>
<path d="M1879.87 2081.12H1277.02V2645.53H1879.87V2081.12Z" fill="#E0E0E0"/>
<path d="M1578.51 1902.3L1094.69 2081.12L1578.51 2259.93L2062.34 2081.12L1578.51 1902.3Z" fill="#EBEBEB"/>
<path d="M1827.71 2513.54V2171.66C1827.69 2168.41 1826.91 2165.25 1825.49 2162.67C1824.07 2160.09 1822.08 2158.22 1819.83 2157.37L1580.89 2066.82C1578.17 2065.8 1575.28 2066.31 1572.83 2068.25C1570.38 2070.19 1568.58 2073.4 1567.82 2077.18C1567.43 2079.06 1567.32 2081.02 1567.49 2082.96C1567.66 2084.9 1568.1 2086.77 1568.79 2088.47C1569.48 2090.16 1570.41 2091.65 1571.52 2092.84C1572.63 2094.04 1573.89 2094.91 1575.25 2095.41L1806.46 2183.06V2513.13C1800.26 2516.57 1795.13 2522.92 1791.92 2531.07C1788.72 2539.23 1787.66 2548.68 1788.92 2557.81C1790.18 2566.94 1793.68 2575.18 1798.82 2581.1C1803.96 2587.02 1810.41 2590.26 1817.08 2590.26C1823.75 2590.26 1830.21 2587.02 1835.35 2581.1C1840.49 2575.18 1843.99 2566.94 1845.25 2557.81C1846.5 2548.68 1845.44 2539.23 1842.24 2531.07C1839.04 2522.92 1833.9 2516.57 1827.71 2513.13V2513.54Z" fill="#F5F5F5"/>
<path d="M3129.24 1332.09L3029.54 2143.9H3555.11L3129.24 1332.09Z" fill="#E0E0E0"/>
<path d="M3932.69 2143.9H3216.32L3129.25 1332.09H3845.62L3932.69 2143.9Z" fill="#F5F5F5"/>
<path d="M3861.52 1480.86H3145.15L3129.25 1332.09H3845.62L3861.52 1480.86Z" fill="#EBEBEB"/>
<path d="M3362.54 1633.98H3300.73L3291.52 1546.96H3353.18L3362.54 1633.98Z" fill="#E0E0E0"/>
<path d="M3456.59 1633.98H3394.78L3385.57 1546.96H3447.23L3456.59 1633.98Z" fill="#E0E0E0"/>
<path d="M3550.66 1633.98H3488.85L3479.64 1546.96H3541.3L3550.66 1633.98Z" fill="#E0E0E0"/>
<path d="M3644.72 1633.98H3582.9L3573.69 1546.96H3635.36L3644.72 1633.98Z" fill="#E0E0E0"/>
<path d="M3738.78 1633.98H3676.97L3667.75 1546.96H3729.42L3738.78 1633.98Z" fill="#E0E0E0"/>
<path d="M3832.84 1633.98H3771.03L3761.81 1546.96H3823.48L3832.84 1633.98Z" fill="#E0E0E0"/>
<path d="M3281.7 1758.09H3220.04L3210.68 1671.28H3272.49L3281.7 1758.09Z" fill="#E0E0E0"/>
<path d="M3375.92 1758.09H3314.1L3304.74 1671.28H3366.55L3375.92 1758.09Z" fill="#E0E0E0"/>
<path d="M3469.82 1758.09H3408.15L3398.79 1671.28H3460.61L3469.82 1758.09Z" fill="#E0E0E0"/>
<path d="M3563.88 1758.09H3502.22L3492.86 1671.28H3554.67L3563.88 1758.09Z" fill="#E0E0E0"/>
<path d="M3657.94 1758.09H3596.28L3586.91 1671.28H3648.73L3657.94 1758.09Z" fill="#E0E0E0"/>
<path d="M3752 1758.09H3690.34L3680.98 1671.28H3742.79L3752 1758.09Z" fill="#E0E0E0"/>
<path d="M3846.06 1758.09H3784.39L3775.03 1671.28H3836.85L3846.06 1758.09Z" fill="#E0E0E0"/>
<path d="M3295.07 1882.41H3233.41L3224.05 1795.39H3285.71L3295.07 1882.41Z" fill="#E0E0E0"/>
<path d="M3389.14 1882.41H3327.47L3318.11 1795.39H3379.78L3389.14 1882.41Z" fill="#E0E0E0"/>
<path d="M3483.2 1882.41H3421.53L3412.17 1795.39H3473.83L3483.2 1882.41Z" fill="#E0E0E0"/>
<path d="M3577.26 1882.41H3515.59L3506.23 1795.39H3567.9L3577.26 1882.41Z" fill="#E0E0E0"/>
<path d="M3671.31 1882.41H3609.65L3600.29 1795.39H3661.95L3671.31 1882.41Z" fill="#E0E0E0"/>
<path d="M3765.38 1882.41H3703.71L3694.35 1795.39H3756.01L3765.38 1882.41Z" fill="#E0E0E0"/>
<path d="M3859.43 1882.41H3797.77L3788.41 1795.39H3850.07L3859.43 1882.41Z" fill="#E0E0E0"/>
<path d="M3308.45 2006.52H3246.78L3237.42 1919.71H3299.09L3308.45 2006.52Z" fill="#E0E0E0"/>
<path d="M3402.5 2006.52H3340.69L3331.48 1919.71H3393.14L3402.5 2006.52Z" fill="#E0E0E0"/>
<path d="M3496.57 2006.52H3434.75L3425.54 1919.71H3487.21L3496.57 2006.52Z" fill="#E0E0E0"/>
<path d="M3590.64 2006.52H3528.82L3519.61 1919.71H3581.28L3590.64 2006.52Z" fill="#E0E0E0"/>
<path d="M3684.68 2006.52H3622.87L3613.66 1919.71H3675.32L3684.68 2006.52Z" fill="#E0E0E0"/>
<path d="M3778.75 2006.52H3716.94L3707.58 1919.71H3769.39L3778.75 2006.52Z" fill="#E0E0E0"/>
<path d="M6663.55 4718.77H6121.63C6103.66 4718.77 6089.09 4739.09 6089.09 4764.15V5843.87C6089.09 5868.93 6103.66 5889.25 6121.63 5889.25H6663.55C6681.52 5889.25 6696.09 5868.93 6696.09 5843.87V4764.15C6696.09 4739.09 6681.52 4718.77 6663.55 4718.77Z" fill="#E0E0E0"/>
<path d="M6577.53 4603.57H6035.6C6017.63 4603.57 6003.06 4623.88 6003.06 4648.95V5728.66C6003.06 5753.73 6017.63 5774.04 6035.6 5774.04H6577.53C6595.5 5774.04 6610.07 5753.73 6610.07 5728.66V4648.95C6610.07 4623.88 6595.5 4603.57 6577.53 4603.57Z" fill="#F5F5F5"/>
<path d="M6504.26 4787.77H6108.85C6106.25 4787.8 6103.67 4787.1 6101.26 4785.73C6098.86 4784.35 6096.67 4782.32 6094.83 4779.76C6092.99 4777.2 6091.54 4774.15 6090.55 4770.79C6089.56 4767.43 6089.07 4763.84 6089.09 4760.21C6089.09 4752.9 6091.17 4745.89 6094.88 4740.73C6098.58 4735.56 6103.61 4732.65 6108.85 4732.65H6504.26C6509.5 4732.65 6514.53 4735.56 6518.23 4740.73C6521.94 4745.89 6524.02 4752.9 6524.02 4760.21C6524.04 4763.84 6523.54 4767.43 6522.56 4770.79C6521.57 4774.15 6520.12 4777.2 6518.28 4779.76C6516.44 4782.32 6514.25 4784.35 6511.84 4785.73C6509.44 4787.1 6506.86 4787.8 6504.26 4787.77Z" fill="#EBEBEB"/>
<path d="M6504.26 4931.36H6108.85C6103.61 4931.36 6098.58 4928.46 6094.88 4923.29C6091.17 4918.12 6089.09 4911.11 6089.09 4903.8C6089.07 4900.17 6089.56 4896.56 6090.55 4893.19C6091.53 4889.82 6092.98 4886.76 6094.82 4884.18C6096.66 4881.6 6098.84 4879.55 6101.25 4878.15C6103.66 4876.76 6106.24 4876.04 6108.85 4876.04H6504.26C6506.87 4876.04 6509.45 4876.76 6511.86 4878.15C6514.26 4879.55 6516.45 4881.6 6518.29 4884.18C6520.12 4886.76 6521.58 4889.82 6522.56 4893.19C6523.54 4896.56 6524.04 4900.17 6524.02 4903.8C6524.02 4911.11 6521.94 4918.12 6518.23 4923.29C6514.53 4928.46 6509.5 4931.36 6504.26 4931.36Z" fill="#EBEBEB"/>
<path d="M6504.26 5073.5H6108.85C6106.25 5073.53 6103.67 5072.83 6101.26 5071.46C6098.86 5070.08 6096.67 5068.05 6094.83 5065.49C6092.99 5062.92 6091.54 5059.87 6090.55 5056.52C6089.56 5053.16 6089.07 5049.57 6089.09 5045.94C6089.09 5038.63 6091.17 5031.62 6094.88 5026.45C6098.58 5021.29 6103.61 5018.38 6108.85 5018.38H6504.26C6509.5 5018.38 6514.53 5021.29 6518.23 5026.45C6521.94 5031.62 6524.02 5038.63 6524.02 5045.94C6524.04 5049.57 6523.54 5053.16 6522.56 5056.52C6521.57 5059.87 6520.12 5062.92 6518.28 5065.49C6516.44 5068.05 6514.25 5070.08 6511.84 5071.46C6509.44 5072.83 6506.86 5073.53 6504.26 5073.5Z" fill="#EBEBEB"/>
<path d="M6504.26 5216.47H6108.85C6106.25 5216.47 6103.68 5215.75 6101.29 5214.37C6098.89 5212.98 6096.71 5210.95 6094.88 5208.4C6093.04 5205.84 6091.58 5202.8 6090.59 5199.46C6089.6 5196.11 6089.09 5192.53 6089.09 5188.91C6089.07 5185.27 6089.56 5181.67 6090.55 5178.3C6091.53 5174.93 6092.98 5171.87 6094.82 5169.29C6096.66 5166.71 6098.84 5164.66 6101.25 5163.26C6103.66 5161.86 6106.24 5161.14 6108.85 5161.14H6504.26C6506.87 5161.14 6509.45 5161.86 6511.86 5163.26C6514.26 5164.66 6516.45 5166.71 6518.29 5169.29C6520.12 5171.87 6521.58 5174.93 6522.56 5178.3C6523.54 5181.67 6524.04 5185.27 6524.02 5188.91C6524.02 5192.53 6523.51 5196.11 6522.52 5199.46C6521.52 5202.8 6520.07 5205.84 6518.23 5208.4C6516.4 5210.95 6514.22 5212.98 6511.82 5214.37C6509.42 5215.75 6506.85 5216.47 6504.26 5216.47Z" fill="#EBEBEB"/>
<path d="M6504.26 5359.23H6108.85C6106.25 5359.25 6103.67 5358.56 6101.26 5357.19C6098.86 5355.81 6096.67 5353.78 6094.83 5351.22C6092.99 5348.65 6091.54 5345.6 6090.55 5342.25C6089.56 5338.89 6089.07 5335.3 6089.09 5331.67C6089.07 5328.04 6089.56 5324.45 6090.55 5321.09C6091.54 5317.74 6092.99 5314.69 6094.83 5312.12C6096.67 5309.56 6098.86 5307.53 6101.26 5306.15C6103.67 5304.78 6106.25 5304.08 6108.85 5304.11H6504.26C6506.86 5304.08 6509.44 5304.78 6511.84 5306.15C6514.25 5307.53 6516.44 5309.56 6518.28 5312.12C6520.12 5314.69 6521.57 5317.74 6522.56 5321.09C6523.54 5324.45 6524.04 5328.04 6524.02 5331.67C6524.04 5335.3 6523.54 5338.89 6522.56 5342.25C6521.57 5345.6 6520.12 5348.65 6518.28 5351.22C6516.44 5353.78 6514.25 5355.81 6511.84 5357.19C6509.44 5358.56 6506.86 5359.25 6504.26 5359.23Z" fill="#EBEBEB"/>
<path d="M6504.26 5502.2H6108.85C6106.24 5502.2 6103.66 5501.48 6101.25 5500.08C6098.84 5498.68 6096.66 5496.63 6094.82 5494.05C6092.98 5491.47 6091.53 5488.41 6090.55 5485.04C6089.56 5481.67 6089.07 5478.07 6089.09 5474.43C6089.09 5467.12 6091.17 5460.11 6094.88 5454.94C6098.58 5449.78 6103.61 5446.87 6108.85 5446.87H6504.26C6509.5 5446.87 6514.53 5449.78 6518.23 5454.94C6521.94 5460.11 6524.02 5467.12 6524.02 5474.43C6524.04 5478.07 6523.54 5481.67 6522.56 5485.04C6521.58 5488.41 6520.12 5491.47 6518.29 5494.05C6516.45 5496.63 6514.26 5498.68 6511.86 5500.08C6509.45 5501.48 6506.87 5502.2 6504.26 5502.2Z" fill="#EBEBEB"/>
<path d="M6415.1 5644.96H6108.85C6103.61 5644.96 6098.58 5642.05 6094.88 5636.88C6091.17 5631.72 6089.09 5624.71 6089.09 5617.4C6089.07 5613.77 6089.56 5610.18 6090.55 5606.82C6091.54 5603.46 6092.99 5600.42 6094.83 5597.85C6096.67 5595.29 6098.86 5593.26 6101.26 5591.88C6103.67 5590.51 6106.25 5589.81 6108.85 5589.84H6415.1C6417.7 5589.81 6420.28 5590.51 6422.69 5591.88C6425.1 5593.26 6427.28 5595.29 6429.12 5597.85C6430.96 5600.42 6432.42 5603.46 6433.4 5606.82C6434.39 5610.18 6434.88 5613.77 6434.86 5617.4C6434.86 5624.71 6432.78 5631.72 6429.08 5636.88C6425.37 5642.05 6420.34 5644.96 6415.1 5644.96Z" fill="#EBEBEB"/>
<path d="M5772.14 3088.94V3140.74" stroke="#EBEBEB" stroke-width="2" stroke-linecap="round" stroke-linejoin="round"/>
<path d="M5772.14 3241.64V3998.55" stroke="#EBEBEB" stroke-width="2" stroke-linecap="round" stroke-linejoin="round" stroke-dasharray="4.87 4.87"/>
<path d="M5772.14 4049.1V4100.9H5735" stroke="#EBEBEB" stroke-width="2" stroke-linecap="round" stroke-linejoin="round"/>
<path d="M5660.99 4100.9H4366.43" stroke="#EBEBEB" stroke-width="2" stroke-linecap="round" stroke-linejoin="round" stroke-dasharray="4.98 4.98"/>
<path d="M4329.44 4100.9H4292.29V4152.7" stroke="#EBEBEB" stroke-width="2" stroke-linecap="round" stroke-linejoin="round"/>
<path d="M4292.29 4262.72V4427.86" stroke="#EBEBEB" stroke-width="2" stroke-linecap="round" stroke-linejoin="round" stroke-dasharray="5.31 5.31"/>
<path d="M4292.29 4482.98V4534.78H4255.14" stroke="#EBEBEB" stroke-width="2" stroke-linecap="round" stroke-linejoin="round"/>
<path d="M4172.97 4534.78H4049.49" stroke="#EBEBEB" stroke-width="2" stroke-linecap="round" stroke-linejoin="round" stroke-dasharray="5.54 5.54"/>
<path d="M4008.32 4534.78H3971.18" stroke="#EBEBEB" stroke-width="2" stroke-linecap="round" stroke-linejoin="round"/>
<path d="M6361.61 5998.03V6383.62H4292.29V5161.14H3998.52" stroke="#EBEBEB" stroke-width="2" stroke-linecap="round" stroke-linejoin="round" stroke-dasharray="5 5"/>
<path d="M3998.52 1758.09H4397.95V3919.19H3667.75" stroke="#EBEBEB" stroke-width="2" stroke-linecap="round" stroke-linejoin="round" stroke-dasharray="5 5"/>
<path d="M1967.09 2413.67H2334.86V4560.06H2889.71" stroke="#EBEBEB" stroke-width="2" stroke-linecap="round" stroke-linejoin="round" stroke-dasharray="5 5"/>
<path d="M1147.89 6519.76L983.096 6374.72L814.145 6519.76V5745.24H1147.89V6519.76Z" fill="#E0E0E0"/>
<path d="M1164.72 5931.03C1266.22 5789.5 1266.22 5560.05 1164.72 5418.53C1063.23 5277 898.675 5277 797.181 5418.53C695.687 5560.05 695.687 5789.5 797.181 5931.03C898.675 6072.55 1063.23 6072.55 1164.72 5931.03Z" fill="#F5F5F5"/>
<path d="M1136.99 5892.35C1223.16 5772.19 1223.16 5577.37 1136.99 5457.21C1050.82 5337.05 911.1 5337.05 824.926 5457.21C738.752 5577.37 738.752 5772.19 824.926 5892.35C911.1 6012.51 1050.82 6012.51 1136.99 5892.35Z" fill="#EBEBEB"/>
<path d="M1329.62 5684.95H2476.03V5161.14H2889.71" stroke="#EBEBEB" stroke-width="2" stroke-linecap="round" stroke-linejoin="round" stroke-dasharray="5 5"/>
<path d="M3102 8859.04C4430.68 8859.04 5507.79 8754.03 5507.79 8624.49C5507.79 8494.95 4430.68 8389.94 3102 8389.94C1773.32 8389.94 696.211 8494.95 696.211 8624.49C696.211 8754.03 1773.32 8859.04 3102 8859.04Z" fill="#F5F5F5"/>
<path d="M729.123 2932.92C729.123 2932.92 629.403 2971.25 597.892 3113.18C566.38 3255.11 650.145 3561.35 663.507 3706.19C676.87 3851.02 523.9 4144.62 921.382 4171.35C1318.86 4198.08 1376.3 3071.33 1192.22 2992.59C1008.14 2913.85 729.123 2932.92 729.123 2932.92Z" fill="#263238"/>
<path d="M1173.48 3008.96C1284.36 2954.67 1331.83 3329.7 1293.14 3600.31" stroke="#263238" stroke-width="0.5" stroke-linecap="round" stroke-linejoin="round"/>
<path d="M2116.22 2857.49L2163.49 2722.4C2163.49 2722.4 2143.55 2697.74 2234.49 2652.57C2325.43 2607.4 2380.88 2582.95 2418.17 2595.18C2455.47 2607.4 2506.73 2694.64 2502.74 2724.89C2498.75 2755.14 2250.25 2797.2 2250.25 2797.2L2214.75 2900.8L2116.22 2857.49Z" fill="#E4897B"/>
<path d="M1347.38 3548.3C1347.38 3548.3 1781.36 3413 1852.36 3343.79C1923.36 3274.59 2124.2 2759.07 2124.2 2759.07L2269.99 2821.23C2269.99 2821.23 2120.61 3420.04 1994.36 3558.66C1868.12 3697.28 1382.88 3943.02 1382.88 3943.02L1347.38 3548.3Z" fill="#007EA7"/>
<path opacity="0.6" d="M1347.38 3548.3C1347.38 3548.3 1781.36 3413 1852.36 3343.79C1923.36 3274.59 2124.2 2759.07 2124.2 2759.07L2269.99 2821.23C2269.99 2821.23 2120.61 3420.04 1994.36 3558.66C1868.12 3697.28 1382.88 3943.02 1382.88 3943.02L1347.38 3548.3Z" fill="white"/>
<path d="M562.398 8144.2L658.728 8203.05C703.912 8139.89 752.801 8079.69 805.116 8022.78C833.038 7992.12 862.355 7958.14 892.869 7921.67C953.898 7848.94 1019.91 7765.86 1089.12 7676.55L1151.14 7595.95C1391.67 7280.59 1652.93 6910.12 1750.66 6659.61C1780.97 6581.71 1795.73 6514.57 1789.15 6466.09C1769.21 6316.49 1713.36 6091.27 1649.54 5873.71C1552.22 5541.15 1442.72 5226 1442.72 5226L1173.68 5699.45C1173.68 5699.45 1256.25 5903.96 1331.44 6121.72C1405.43 6335.55 1472.24 6562.44 1447.51 6621.49C1445.12 6627.29 1442.13 6634.13 1438.73 6642.21C1394.06 6738.35 1270.41 6956.12 1130 7196.68L1087.12 7269.82C1011.74 7398.28 933.356 7530.27 860.76 7651.48C832.439 7699.14 804.917 7745.14 778.79 7788.65C654.739 7994.4 562.398 8144.2 562.398 8144.2Z" fill="#E4897B"/>
<path opacity="0.2" d="M1156.73 7595.74C1029.48 7761.5 907.227 7912.76 816.283 8022.58C803.319 7955.03 790.156 7875.05 779.785 7787.82C884.89 7612.53 1013.53 7396.21 1130.4 7195.85C1127.92 7329.69 1136.73 7463.5 1156.73 7595.74Z" fill="black"/>
<path d="M676.468 6225.74C709.775 6461.74 756.244 6675.57 788.154 6803C806.702 6879.45 819.267 6924.62 819.267 6924.62C819.717 7166.97 833.434 7409.09 860.351 7649.82C870.523 7744.72 881.492 7836.3 892.86 7920.63C934.742 8234.33 978.818 8459.35 978.818 8459.35L1093.5 8443.81L1089.11 7675.31L1086.72 7267.95L1083.52 6713.69L1082.33 6617.14L1076.74 6195.69L1068.57 5574.09L669.687 5387.61C616.238 5624.86 636.182 5941.46 676.468 6225.74Z" fill="#E4897B"/>
<path opacity="0.2" d="M1743.87 6229.67C1641.96 6302.82 1504.54 6346.74 1410.21 6370.36C1388.47 6293.08 1360.35 6206.26 1330.43 6121.72C1255.24 5903.96 1172.68 5699.45 1172.68 5699.45L1441.72 5226C1441.72 5226 1551.21 5541.15 1648.54 5873.71C1684.84 5994.71 1717.94 6118.2 1743.87 6229.67Z" fill="black"/>
<path opacity="0.2" d="M1080.13 6457.6C956.177 6454.82 832.434 6445.55 709.375 6429.83C697.808 6364.98 686.44 6296.39 676.468 6225.74C636.58 5941.46 616.636 5624.86 669.687 5388.65L1068.57 5575.13L1076.74 6196.73L1080.13 6457.6Z" fill="black"/>
<path d="M1763.22 6188.44C1513.72 6340.73 779.784 6405.38 779.784 6405.38L660.12 6054.8L673.682 6402.48H637.982C637.982 6402.48 369.936 5459.72 726.134 4841.85L1364.34 4790.67L1434.14 5132.14C1434.14 5132.14 1613.24 5620.71 1763.22 6188.44Z" fill="#263238"/>
<path d="M1295.13 8613.1C1276.33 8601.45 1255.66 8593.44 1234.1 8589.47C1234.1 8589.47 1163.5 8534.98 1107.66 8347.47L1023.7 8337.52C1009.43 8336.17 995.106 8339.42 982.685 8346.84C970.263 8354.25 960.347 8365.47 954.29 8378.96C952.501 8382.68 951.29 8386.66 950.7 8390.77C949.402 8411.88 949.402 8433.06 950.7 8454.17C955.802 8524.92 964.992 8595.29 978.223 8664.9L992.981 8662.82L980.616 8529.8C976.627 8484.63 1016.91 8532.29 1033.07 8579.32C1049.22 8626.36 1076.15 8674.63 1171.08 8662.2C1281.77 8648.32 1327.04 8637.13 1295.13 8613.1Z" fill="#2E353A"/>
<path d="M1084.53 8281.16C1084.53 8281.16 1114.45 8365.91 1154.33 8459.15C1172.65 8507.5 1199.73 8551.74 1234.11 8589.48C1234.11 8589.48 1164.71 8612.89 1127.41 8567.72C1090.12 8522.55 1025.9 8359.48 954.297 8378.34C958.11 8365.07 963.468 8352.34 970.252 8340.42C981.022 8321.98 1084.53 8281.16 1084.53 8281.16Z" fill="#E4897B"/>
<path d="M592.512 8539.54C588.502 8517.08 580.523 8495.58 568.978 8476.14C568.978 8476.14 561.599 8385.18 659.723 8217.55L611.259 8145.65C602.887 8133.64 591.165 8124.6 577.68 8119.74C564.195 8114.89 549.599 8114.46 535.871 8118.51C532.016 8119.65 528.327 8121.32 524.902 8123.48C508.805 8136.3 493.486 8150.14 479.031 8164.92C431.403 8215.81 386.78 8269.64 345.406 8326.12L356.774 8336.07L444.528 8238.27C474.444 8205.33 466.665 8268.31 443.53 8311.83C420.395 8355.34 403.642 8408.59 474.643 8474.89C558.208 8552.39 596.301 8580.15 592.512 8539.54Z" fill="#2E353A"/>
<path d="M692.233 8155.39C692.233 8155.39 650.949 8234.96 610.064 8327.78C587.411 8374.07 573.467 8424.42 568.98 8476.14C568.98 8476.14 506.356 8437.81 514.134 8378.75C521.912 8319.7 596.901 8162.02 535.873 8118.51C547.993 8112.79 560.708 8108.55 573.766 8105.87C593.909 8101.52 692.233 8155.39 692.233 8155.39Z" fill="#E4897B"/>
<path d="M719.547 4773.27L715.957 4873.34L1375.5 4846.61L1379.89 4728.3L719.547 4773.27Z" fill="#263238"/>
<path opacity="0.2" d="M719.547 4773.27L715.957 4873.34L1375.5 4846.61L1379.89 4728.3L719.547 4773.27Z" fill="white"/>
<path d="M942.385 4739.69L909.68 4740.15L911.918 4913.14L944.623 4912.69L942.385 4739.69Z" fill="#263238"/>
<path d="M1226.71 4740.01L1082.5 4747.76L1088.16 4861.36L1232.36 4853.61L1226.71 4740.01Z" fill="white"/>
<path d="M1345.64 4709.52L1312.94 4709.97L1315.15 4882.97L1347.85 4882.51L1345.64 4709.52Z" fill="#263238"/>
<path d="M540.449 4815.54L691.225 4905.05C726.392 4918.93 755.707 4945.27 773.992 4979.43C810.889 5041.59 757.838 5278.63 729.118 5278.63C700.399 5278.63 538.255 5241.75 540.449 5209.01C542.643 5176.27 605.466 5020.46 605.466 5020.46L459.676 4926.18L540.449 4815.54Z" fill="#E4897B"/>
<path d="M715.964 4773.06C715.964 4773.06 676.076 4165.55 540.457 3818.28C540.457 3818.28 819.672 3662.47 1347.39 3548.92C1347.39 3548.92 1498.56 3931.2 1379.9 4735.55L715.964 4773.06Z" fill="#007EA7"/>
<path opacity="0.6" d="M1154.53 4190.83C1164.89 4190.83 1173.28 4182.11 1173.28 4171.35C1173.28 4160.59 1164.89 4151.87 1154.53 4151.87C1144.18 4151.87 1135.79 4160.59 1135.79 4171.35C1135.79 4182.11 1144.18 4190.83 1154.53 4190.83Z" fill="white"/>
<path opacity="0.6" d="M1192.22 4407.14C1191.74 4411.99 1189.55 4416.48 1186.07 4419.74C1182.59 4423 1178.07 4424.81 1173.38 4424.81C1168.69 4424.81 1164.17 4423 1160.68 4419.74C1157.2 4416.48 1155.01 4411.99 1154.53 4407.14C1154.26 4404.4 1154.54 4401.63 1155.37 4399.01C1156.19 4396.39 1157.53 4393.98 1159.31 4391.94C1161.09 4389.89 1163.26 4388.26 1165.68 4387.14C1168.1 4386.02 1170.72 4385.44 1173.38 4385.44C1176.03 4385.44 1178.65 4386.02 1181.07 4387.14C1183.5 4388.26 1185.67 4389.89 1187.44 4391.94C1189.22 4393.98 1190.56 4396.39 1191.39 4399.01C1192.21 4401.63 1192.5 4404.4 1192.22 4407.14Z" fill="white"/>
<path opacity="0.6" d="M1192.22 4631.13C1191.74 4635.97 1189.55 4640.46 1186.07 4643.72C1182.59 4646.99 1178.07 4648.79 1173.38 4648.79C1168.69 4648.79 1164.17 4646.99 1160.68 4643.72C1157.2 4640.46 1155.01 4635.97 1154.53 4631.13C1154.26 4628.39 1154.54 4625.62 1155.37 4623C1156.19 4620.38 1157.53 4617.97 1159.31 4615.92C1161.09 4613.88 1163.26 4612.24 1165.68 4611.12C1168.1 4610 1170.72 4609.43 1173.38 4609.43C1176.03 4609.43 1178.65 4610 1181.07 4611.12C1183.5 4612.24 1185.67 4613.88 1187.44 4615.92C1189.22 4617.97 1190.56 4620.38 1191.39 4623C1192.21 4625.62 1192.5 4628.39 1192.22 4631.13Z" fill="white"/>
<path d="M540.454 3818.28C416.403 3889.14 -33.3329 4426.21 1.96785 4585.96C37.2686 4745.71 540.454 4995.8 540.454 4995.8L626.811 4841.02C626.811 4841.02 297.337 4585.96 281.582 4544.93C265.826 4503.91 644.163 4194.76 644.163 4194.76C648.954 4112.73 646.618 4030.41 637.182 3948.82C633.166 3920.28 622.162 3893.28 605.225 3870.43C588.288 3847.57 565.986 3829.62 540.454 3818.28Z" fill="#007EA7"/>
<path opacity="0.6" d="M540.454 3818.28C416.403 3889.14 -33.3329 4426.21 1.96785 4585.96C37.2686 4745.71 540.454 4995.8 540.454 4995.8L626.811 4841.02C626.811 4841.02 297.337 4585.96 281.582 4544.93C265.826 4503.91 644.163 4194.76 644.163 4194.76C648.954 4112.73 646.618 4030.41 637.182 3948.82C633.166 3920.28 622.162 3893.28 605.225 3870.43C588.288 3847.57 565.986 3829.62 540.454 3818.28Z" fill="white"/>
<path d="M773.405 3926.02C773.405 3926.02 647.16 3711.78 923.383 3637.81C1199.61 3563.84 1283.77 3736.23 1283.77 3736.23L1146.16 3711.57L1128.81 4053.24C1065.19 3934.98 961.672 3845.37 838.222 3801.7L773.405 3926.02Z" fill="#407BFF"/>
<path opacity="0.6" d="M773.405 3926.02C773.405 3926.02 647.16 3711.78 923.383 3637.81C1199.61 3563.84 1283.77 3736.23 1283.77 3736.23L1146.16 3711.57L1128.81 4053.24C1065.19 3934.98 961.672 3845.37 838.222 3801.7L773.405 3926.02Z" fill="white"/>
<path d="M1087.12 3885.21C994.542 3840.27 905.804 3787.24 821.867 3726.7C886.685 3663.29 874.918 3569.64 858.365 3511.21C853.222 3492.69 846.549 3474.67 838.421 3457.34L1029.28 3494.43C1024.89 3521.83 1022.42 3549.53 1021.9 3577.31C1021.19 3598.18 1023 3619.06 1027.29 3639.47C1040.25 3698.73 1072.76 3699.55 1072.76 3699.55C1106.67 3764.41 1087.12 3885.21 1087.12 3885.21Z" fill="#E4897B"/>
<path opacity="0.2" d="M1022.3 3577.93C1021.59 3598.8 1023.4 3619.68 1027.68 3640.09C951.895 3629.73 894.457 3566.74 858.358 3512.04C853.215 3493.52 846.542 3475.5 838.414 3458.17L1029.28 3495.26C1025.02 3522.6 1022.69 3550.23 1022.3 3577.93Z" fill="black"/>
<path d="M984.408 2936.23C1190.03 2936.23 1207.18 3039.83 1218.95 3217.4C1233.71 3439.52 1186.04 3597.41 978.425 3548.92C696.617 3484.27 708.583 2936.23 984.408 2936.23Z" fill="#E4897B"/>
<path d="M1112.45 3207.46C1125.69 3233.29 1141.89 3257.36 1160.71 3279.15C1155.8 3286.24 1149.12 3291.81 1141.39 3295.25C1133.65 3298.68 1125.16 3299.85 1116.83 3298.62L1112.45 3207.46Z" fill="#DE5753"/>
<path d="M1010.14 3193.16C1010.14 3207.25 1003.16 3218.85 994.183 3219.06C985.208 3219.27 977.43 3208.08 977.231 3193.78C977.031 3179.48 984.012 3168.09 992.986 3167.88C1001.96 3167.67 1009.74 3178.86 1010.14 3193.16Z" fill="#263238"/>
<path d="M989.395 3168.5L1018.71 3155.86C1018.71 3155.86 1004.55 3182.18 989.395 3168.5Z" fill="#263238"/>
<path d="M1179.66 3186.53C1179.66 3200.62 1172.68 3212.22 1163.7 3212.43C1154.73 3212.63 1146.95 3201.24 1146.75 3187.15C1146.55 3173.06 1153.53 3161.25 1162.71 3161.04C1171.88 3160.83 1179.26 3172.23 1179.66 3186.53Z" fill="#263238"/>
<path d="M1158.91 3161.87L1188.23 3149.23C1188.23 3149.23 1174.07 3175.34 1158.91 3161.87Z" fill="#263238"/>
<path d="M1008.74 3074.02C995.605 3072.33 982.268 3073.78 969.754 3078.27C957.24 3082.76 945.881 3090.16 936.547 3099.92" stroke="#263238" stroke-width="0.707962" stroke-linecap="round" stroke-linejoin="round"/>
<path d="M1129.39 3066.56C1140.76 3063.61 1152.61 3063.37 1164.08 3065.84C1175.54 3068.32 1186.32 3073.45 1195.61 3080.86" stroke="#263238" stroke-width="0.707962" stroke-linecap="round" stroke-linejoin="round"/>
<path d="M805.715 3237.09C805.715 3237.09 883.695 3095.36 872.128 2985.96C872.128 2985.96 989.398 2860.4 1147.16 2984.51C1147.16 2984.51 1212.97 3102.41 1217.16 3194.2C1217.16 3194.2 1249.87 2886.09 964.469 2878.42C679.071 2870.76 679.27 3304.84 826.457 3434.55C826.457 3434.55 757.451 3325.56 805.715 3237.09Z" fill="#263238"/>
<path d="M833.225 3273.76C832.469 3263.85 829.842 3254.2 825.493 3245.35C821.145 3236.5 815.16 3228.62 807.881 3222.18C800.602 3215.73 792.171 3210.84 783.071 3207.78C773.971 3204.72 764.38 3203.55 754.845 3204.35C703.39 3210.15 678.659 3319.76 806.7 3346.49C824.649 3350.01 835.02 3331.57 833.225 3273.76Z" fill="#E4897B"/>
<path d="M1093.5 3392.07C1093.5 3392.07 1023.9 3408.44 995.176 3343.79" stroke="#263238" stroke-width="0.707962" stroke-linecap="round" stroke-linejoin="round"/>
<path d="M873.123 2985.96C873.123 2985.96 1062.99 2898.52 1188.64 3013.93C1188.64 3013.93 1237.9 2861.85 1068.97 2810.05C900.048 2758.25 729.926 2932.91 729.926 2932.91L873.123 2985.96Z" fill="#263238"/>
<path d="M873.118 2985.96C873.118 2985.96 762.429 3099.5 778.385 3325.77C794.34 3552.03 773.399 3694.79 730.12 3836.31C686.842 3977.83 800.123 4020.09 800.123 4020.09C800.123 4020.09 671.086 4053.25 644.561 3909.66C627.01 3815.59 668.493 3611.7 647.752 3368.86C627.01 3126.03 709.179 2954.26 873.118 2985.96Z" fill="#263238"/>
<path d="M4175.9 2481.84C4139.1 2481.84 4103.12 2493.02 4072.51 2513.97C4041.91 2534.91 4018.06 2564.69 4003.97 2599.52C3989.89 2634.35 3986.2 2672.68 3993.38 2709.65C4000.56 2746.63 4018.29 2780.6 4044.31 2807.26C4070.34 2833.92 4103.5 2852.07 4139.6 2859.43C4175.7 2866.78 4213.12 2863.01 4247.12 2848.58C4281.13 2834.15 4310.19 2809.72 4330.64 2778.37C4351.09 2747.02 4362 2710.17 4362 2672.47C4362 2621.91 4342.4 2573.42 4307.5 2537.67C4272.6 2501.93 4225.26 2481.84 4175.9 2481.84ZM4175.9 2654.02C4165.22 2654.02 4154.78 2650.78 4145.9 2644.7C4137.02 2638.62 4130.09 2629.98 4126.01 2619.87C4121.92 2609.76 4120.85 2598.64 4122.93 2587.91C4125.02 2577.18 4130.16 2567.32 4137.71 2559.58C4145.27 2551.85 4154.89 2546.58 4165.37 2544.44C4175.84 2542.31 4186.7 2543.4 4196.57 2547.59C4206.44 2551.78 4214.88 2558.87 4220.81 2567.97C4226.75 2577.06 4229.91 2587.76 4229.91 2598.7C4229.91 2605.97 4228.52 2613.16 4225.8 2619.87C4223.09 2626.59 4219.11 2632.68 4214.09 2637.82C4209.08 2642.96 4203.13 2647.03 4196.57 2649.81C4190.02 2652.59 4183 2654.02 4175.9 2654.02Z" fill="#407BFF"/>
<path opacity="0.6" d="M4175.9 2481.84C4139.1 2481.84 4103.12 2493.02 4072.51 2513.97C4041.91 2534.91 4018.06 2564.69 4003.97 2599.52C3989.89 2634.35 3986.2 2672.68 3993.38 2709.65C4000.56 2746.63 4018.29 2780.6 4044.31 2807.26C4070.34 2833.92 4103.5 2852.07 4139.6 2859.43C4175.7 2866.78 4213.12 2863.01 4247.12 2848.58C4281.13 2834.15 4310.19 2809.72 4330.64 2778.37C4351.09 2747.02 4362 2710.17 4362 2672.47C4362 2621.91 4342.4 2573.42 4307.5 2537.67C4272.6 2501.93 4225.26 2481.84 4175.9 2481.84ZM4175.9 2654.02C4165.22 2654.02 4154.78 2650.78 4145.9 2644.7C4137.02 2638.62 4130.09 2629.98 4126.01 2619.87C4121.92 2609.76 4120.85 2598.64 4122.93 2587.91C4125.02 2577.18 4130.16 2567.32 4137.71 2559.58C4145.27 2551.85 4154.89 2546.58 4165.37 2544.44C4175.84 2542.31 4186.7 2543.4 4196.57 2547.59C4206.44 2551.78 4214.88 2558.87 4220.81 2567.97C4226.75 2577.06 4229.91 2587.76 4229.91 2598.7C4229.91 2605.97 4228.52 2613.16 4225.8 2619.87C4223.09 2626.59 4219.11 2632.68 4214.09 2637.82C4209.08 2642.96 4203.13 2647.03 4196.57 2649.81C4190.02 2652.59 4183 2654.02 4175.9 2654.02Z" fill="white"/>
<path d="M6017.28 2732.14H2334.33C2250.65 2732.14 2182.82 2801.62 2182.82 2887.33V8509.08C2182.82 8594.79 2250.65 8664.27 2334.33 8664.27H6017.28C6100.96 8664.27 6168.79 8594.79 6168.79 8509.08V2887.33C6168.79 2801.62 6100.96 2732.14 6017.28 2732.14Z" fill="#003249"/>
<path opacity="0.8" d="M5957.81 3076.92H2393.8V8382.07H5957.81V3076.92Z" fill="white"/>
<path d="M5123.79 2681.58H3228.01C3206.44 2681.58 3188.96 2699.49 3188.96 2721.57V2970.63C3188.96 2992.71 3206.44 3010.62 3228.01 3010.62H5123.79C5145.36 3010.62 5162.84 2992.71 5162.84 2970.63V2721.57C5162.84 2699.49 5145.36 2681.58 5123.79 2681.58Z" fill="#407BFF"/>
<path opacity="0.4" d="M5123.79 2681.58H3228.01C3206.44 2681.58 3188.96 2699.49 3188.96 2721.57V2970.63C3188.96 2992.71 3206.44 3010.62 3228.01 3010.62H5123.79C5145.36 3010.62 5162.84 2992.71 5162.84 2970.63V2721.57C5162.84 2699.49 5145.36 2681.58 5123.79 2681.58Z" fill="white"/>
<path d="M4905.53 3316.24H4334.29C4322.66 3316.45 4311.19 3313.39 4301.14 3307.4C4291.08 3301.41 4282.82 3292.71 4277.25 3282.26C4267.45 3263.5 4252.87 3247.82 4235.06 3236.88C4217.25 3225.95 4196.87 3220.17 4176.1 3220.17C4155.34 3220.17 4134.96 3225.95 4117.15 3236.88C4099.34 3247.82 4084.76 3263.5 4074.96 3282.26C4069.37 3292.7 4061.1 3301.38 4051.05 3307.37C4041 3313.36 4029.55 3316.42 4017.92 3316.24H3446.07C3429.97 3316.24 3414.54 3309.69 3403.16 3298.03C3391.78 3286.37 3385.38 3270.56 3385.38 3254.08V2904.95C3385.38 2888.46 3391.78 2872.65 3403.16 2860.99C3414.54 2849.33 3429.97 2842.79 3446.07 2842.79H4905.53C4921.63 2842.79 4937.06 2849.33 4948.44 2860.99C4959.83 2872.65 4966.22 2888.46 4966.22 2904.95V3253.04C4966.35 3261.29 4964.88 3269.49 4961.89 3277.15C4958.9 3284.81 4954.45 3291.78 4948.81 3297.67C4943.16 3303.55 4936.42 3308.22 4928.99 3311.41C4921.56 3314.6 4913.59 3316.24 4905.53 3316.24ZM4175.9 3178.45C4204.06 3178.39 4231.7 3186.22 4255.84 3201.08C4279.98 3215.94 4299.69 3237.28 4312.85 3262.78C4315.05 3266.56 4318.2 3269.67 4321.97 3271.78C4325.74 3273.9 4329.99 3274.94 4334.29 3274.8H4905.53C4910.9 3274.8 4916.04 3272.61 4919.84 3268.73C4923.63 3264.84 4925.76 3259.57 4925.76 3254.08V2904.95C4925.76 2899.45 4923.63 2894.18 4919.84 2890.29C4916.04 2886.41 4910.9 2884.23 4905.53 2884.23H3446.07C3440.7 2884.23 3435.56 2886.41 3431.76 2890.29C3427.97 2894.18 3425.84 2899.45 3425.84 2904.95V3253.04C3425.84 3258.54 3427.97 3263.81 3431.76 3267.69C3435.56 3271.58 3440.7 3273.76 3446.07 3273.76H4017.72C4021.98 3273.89 4026.2 3272.84 4029.94 3270.72C4033.67 3268.61 4036.79 3265.51 4038.96 3261.74C4052.27 3236.45 4072.04 3215.34 4096.16 3200.66C4120.29 3185.99 4147.85 3178.31 4175.9 3178.45Z" fill="#263238"/>
<g opacity="0.2">
<path d="M4905.53 3316.24H4334.29C4322.66 3316.45 4311.19 3313.39 4301.14 3307.4C4291.08 3301.41 4282.82 3292.71 4277.25 3282.26C4267.45 3263.5 4252.87 3247.82 4235.06 3236.88C4217.25 3225.95 4196.87 3220.17 4176.1 3220.17C4155.34 3220.17 4134.96 3225.95 4117.15 3236.88C4099.34 3247.82 4084.76 3263.5 4074.96 3282.26C4069.37 3292.7 4061.1 3301.38 4051.05 3307.37C4041 3313.36 4029.55 3316.42 4017.92 3316.24H3446.07C3429.97 3316.24 3414.54 3309.69 3403.16 3298.03C3391.78 3286.37 3385.38 3270.56 3385.38 3254.08V2904.95C3385.38 2888.46 3391.78 2872.65 3403.16 2860.99C3414.54 2849.33 3429.97 2842.79 3446.07 2842.79H4905.53C4921.63 2842.79 4937.06 2849.33 4948.44 2860.99C4959.83 2872.65 4966.22 2888.46 4966.22 2904.95V3253.04C4966.35 3261.29 4964.88 3269.49 4961.89 3277.15C4958.9 3284.81 4954.45 3291.78 4948.81 3297.67C4943.16 3303.55 4936.42 3308.22 4928.99 3311.41C4921.56 3314.6 4913.59 3316.24 4905.53 3316.24ZM4175.9 3178.45C4204.06 3178.39 4231.7 3186.22 4255.84 3201.08C4279.98 3215.94 4299.69 3237.28 4312.85 3262.78C4315.05 3266.56 4318.2 3269.67 4321.97 3271.78C4325.74 3273.9 4329.99 3274.94 4334.29 3274.8H4905.53C4910.9 3274.8 4916.04 3272.61 4919.84 3268.73C4923.63 3264.84 4925.76 3259.57 4925.76 3254.08V2904.95C4925.76 2899.45 4923.63 2894.18 4919.84 2890.29C4916.04 2886.41 4910.9 2884.23 4905.53 2884.23H3446.07C3440.7 2884.23 3435.56 2886.41 3431.76 2890.29C3427.97 2894.18 3425.84 2899.45 3425.84 2904.95V3253.04C3425.84 3258.54 3427.97 3263.81 3431.76 3267.69C3435.56 3271.58 3440.7 3273.76 3446.07 3273.76H4017.72C4021.98 3273.89 4026.2 3272.84 4029.94 3270.72C4033.67 3268.61 4036.79 3265.51 4038.96 3261.74C4052.27 3236.45 4072.04 3215.34 4096.16 3200.66C4120.29 3185.99 4147.85 3178.31 4175.9 3178.45Z" fill="white"/>
</g>
<path d="M4818.96 2782.07H3533.46C3520.5 2782.07 3510 2792.83 3510 2806.11V2899.35C3510 2912.62 3520.5 2923.38 3533.46 2923.38H4818.96C4831.92 2923.38 4842.43 2912.62 4842.43 2899.35V2806.11C4842.43 2792.83 4831.92 2782.07 4818.96 2782.07Z" fill="#007EA7"/>
<path opacity="0.6" d="M4818.36 2782.07H3532.85C3519.89 2782.07 3509.39 2792.83 3509.39 2806.11V2899.35C3509.39 2912.62 3519.89 2923.38 3532.85 2923.38H4818.36C4831.31 2923.38 4841.82 2912.62 4841.82 2899.35V2806.11C4841.82 2792.83 4831.31 2782.07 4818.36 2782.07Z" fill="white"/>
<path opacity="0.3" d="M4506.84 5974.4H4146.77V6343.22H4506.84V5974.4Z" fill="black"/>
<path opacity="0.3" d="M4464.76 6491.58H4188.85C4177.69 6491.58 4166.99 6487.04 4159.1 6478.95C4151.21 6470.87 4146.77 6459.91 4146.77 6448.48C4146.83 6437.08 4151.28 6426.18 4159.17 6418.14C4167.05 6410.1 4177.72 6405.59 4188.85 6405.59H4464.76C4475.89 6405.59 4486.56 6410.1 4494.44 6418.14C4502.33 6426.18 4506.78 6437.08 4506.84 6448.48C4506.84 6459.91 4502.4 6470.87 4494.51 6478.95C4486.62 6487.04 4475.92 6491.58 4464.76 6491.58Z" fill="black"/>
<path opacity="0.3" d="M5623.43 5974.4H4697.38C4676.16 5974.4 4658.95 5992.03 4658.95 6013.77V6013.98C4658.95 6035.72 4676.16 6053.35 4697.38 6053.35H5623.43C5644.66 6053.35 5661.87 6035.72 5661.87 6013.98V6013.77C5661.87 5992.03 5644.66 5974.4 5623.43 5974.4Z" fill="black"/>
<path opacity="0.3" d="M5421.15 6181.61H4697.38C4676.16 6181.61 4658.95 6199.23 4658.95 6220.97V6221.18C4658.95 6242.92 4676.16 6260.55 4697.38 6260.55H5421.15C5442.38 6260.55 5459.58 6242.92 5459.58 6221.18V6220.97C5459.58 6199.23 5442.38 6181.61 5421.15 6181.61Z" fill="black"/>
<path opacity="0.3" d="M5623.43 6388.8H4697.38C4676.16 6388.8 4658.95 6406.43 4658.95 6428.17V6428.38C4658.95 6450.12 4676.16 6467.75 4697.38 6467.75H5623.43C5644.66 6467.75 5661.87 6450.12 5661.87 6428.38V6428.17C5661.87 6406.43 5644.66 6388.8 5623.43 6388.8Z" fill="black"/>
<path opacity="0.3" d="M5097.5 6596.01H4697.38C4676.16 6596.01 4658.95 6613.63 4658.95 6635.37V6635.58C4658.95 6657.32 4676.16 6674.95 4697.38 6674.95H5097.5C5118.72 6674.95 5135.93 6657.32 5135.93 6635.58V6635.37C5135.93 6613.63 5118.72 6596.01 5097.5 6596.01Z" fill="black"/>
<path opacity="0.3" d="M5240.11 3623.31H3101.58C3083.09 3623.25 3065.37 3615.7 3052.29 3602.31C3039.22 3588.91 3031.85 3570.76 3031.79 3551.82C3031.79 3532.86 3039.15 3514.68 3052.23 3501.28C3065.32 3487.87 3083.07 3480.34 3101.58 3480.34H5240.11C5258.62 3480.34 5276.37 3487.87 5289.46 3501.28C5302.54 3514.68 5309.9 3532.86 5309.9 3551.82C5309.84 3570.76 5302.47 3588.91 5289.4 3602.31C5276.32 3615.7 5258.6 3623.25 5240.11 3623.31Z" fill="black"/>
<path opacity="0.3" d="M5596.73 4046.41H4185.21C4175 4046.35 4165.22 4042.16 4158.02 4034.74C4150.82 4027.33 4146.77 4017.29 4146.77 4006.83C4146.77 3996.39 4150.82 3986.38 4158.03 3979C4165.24 3971.61 4175.01 3967.46 4185.21 3967.46H5596.73C5606.93 3967.46 5616.7 3971.61 5623.91 3979C5631.12 3986.38 5635.17 3996.39 5635.17 4006.83C5635.17 4017.29 5631.12 4027.33 5623.92 4034.74C5616.72 4042.16 5606.94 4046.35 5596.73 4046.41Z" fill="black"/>
<path opacity="0.3" d="M5394.45 4253.61H4185.21C4175 4253.55 4165.22 4249.36 4158.02 4241.94C4150.82 4234.53 4146.77 4224.49 4146.77 4214.03C4146.77 4203.59 4150.82 4193.58 4158.03 4186.2C4165.24 4178.81 4175.01 4174.67 4185.21 4174.67H5394.45C5404.64 4174.67 5414.42 4178.81 5421.63 4186.2C5428.83 4193.58 5432.88 4203.59 5432.88 4214.03C5432.88 4224.49 5428.84 4234.53 5421.64 4241.94C5414.44 4249.36 5404.66 4253.55 5394.45 4253.61Z" fill="black"/>
<path opacity="0.3" d="M5596.73 4460.81H4185.21C4175 4460.75 4165.22 4456.56 4158.02 4449.14C4150.82 4441.73 4146.77 4431.69 4146.77 4421.23C4146.77 4410.79 4150.82 4400.78 4158.03 4393.4C4165.24 4386.01 4175.01 4381.87 4185.21 4381.87H5596.73C5606.93 4381.87 5616.7 4386.01 5623.91 4393.4C5631.12 4400.78 5635.17 4410.79 5635.17 4421.23C5635.17 4431.69 5631.12 4441.73 5623.92 4449.14C5616.72 4456.56 5606.94 4460.75 5596.73 4460.81Z" fill="black"/>
<path opacity="0.3" d="M5192.17 4668.01H4185.21C4175 4667.95 4165.22 4663.76 4158.02 4656.35C4150.82 4648.93 4146.77 4638.89 4146.77 4628.43C4146.77 4617.99 4150.82 4607.98 4158.03 4600.6C4165.24 4593.21 4175.01 4589.07 4185.21 4589.07H5192.17C5202.36 4589.07 5212.14 4593.21 5219.34 4600.6C5226.55 4607.98 5230.6 4617.99 5230.6 4628.43C5230.6 4638.89 5226.56 4648.93 5219.36 4656.35C5212.16 4663.76 5202.38 4667.95 5192.17 4668.01Z" fill="black"/>
<path opacity="0.3" d="M4247.71 4914.99L4269.96 4960.99L4319.72 4968.45L4283.71 5004.3L4292.21 5055.06L4247.71 5031.02L4203.41 5055.06L4211.9 5004.3L4175.9 4968.45L4225.46 4960.99L4247.71 4914.99Z" fill="black"/>
<path opacity="0.3" d="M4498.95 4914.99L4521.21 4960.99L4570.76 4968.45L4534.76 5004.3L4543.25 5055.06L4498.95 5031.02L4454.45 5055.06L4462.95 5004.3L4426.94 4968.45L4476.7 4960.99L4498.95 4914.99Z" fill="black"/>
<path opacity="0.3" d="M4749.98 4914.99L4772.23 4960.99L4821.99 4968.45L4785.98 5004.3L4794.48 5055.06L4749.98 5031.02L4705.48 5055.06L4713.97 5004.3L4678.17 4968.45L4727.73 4960.99L4749.98 4914.99Z" fill="black"/>
<path opacity="0.3" d="M5001.22 4914.99L5023.26 4960.99L5073.03 4968.45L5037.02 5004.3L5045.52 5055.06L5001.22 5031.02L4956.71 5055.06L4965.21 5004.3L4929.2 4968.45L4978.96 4960.99L5001.22 4914.99Z" fill="black"/>
<path opacity="0.3" d="M5252.25 4914.99L5274.5 4960.99L5324.06 4968.45L5288.25 5004.3L5296.75 5055.06L5252.25 5031.02L5207.75 5055.06L5216.24 5004.3L5180.44 4968.45L5230 4960.99L5252.25 4914.99Z" fill="black"/>
<path opacity="0.3" d="M4247.71 5178.96L4269.96 5224.96L4319.72 5232.42L4283.71 5268.27L4292.21 5319.03L4247.71 5295L4203.41 5319.03L4211.9 5268.27L4175.9 5232.42L4225.46 5224.96L4247.71 5178.96Z" fill="black"/>
<path opacity="0.3" d="M4498.95 5178.96L4521.21 5224.96L4570.76 5232.42L4534.76 5268.27L4543.25 5319.03L4498.95 5295L4454.45 5319.03L4462.95 5268.27L4426.94 5232.42L4476.7 5224.96L4498.95 5178.96Z" fill="black"/>
<path opacity="0.3" d="M4749.98 5178.96L4772.23 5224.96L4821.99 5232.42L4785.98 5268.27L4794.48 5319.03L4749.98 5295L4705.48 5319.03L4713.97 5268.27L4678.17 5232.42L4727.73 5224.96L4749.98 5178.96Z" fill="black"/>
<path opacity="0.1" d="M5001.22 5178.96L5023.26 5224.96L5073.03 5232.42L5037.02 5268.27L5045.52 5319.03L5001.22 5295L4956.71 5319.03L4965.21 5268.27L4929.2 5232.42L4978.96 5224.96L5001.22 5178.96Z" fill="black"/>
<path opacity="0.1" d="M5252.25 5178.96L5274.5 5224.96L5324.06 5232.42L5288.25 5268.27L5296.75 5319.03L5252.25 5295L5207.75 5319.03L5216.24 5268.27L5180.44 5232.42L5230 5224.96L5252.25 5178.96Z" fill="black"/>
<path opacity="0.3" d="M4247.71 5442.94L4269.96 5488.94L4319.72 5496.39L4283.71 5532.24L4292.21 5583L4247.71 5558.97L4203.41 5583L4211.9 5532.24L4175.9 5496.39L4225.46 5488.94L4247.71 5442.94Z" fill="black"/>
<path opacity="0.3" d="M4498.95 5442.94L4521.21 5488.94L4570.76 5496.39L4534.76 5532.24L4543.25 5583L4498.95 5558.97L4454.45 5583L4462.95 5532.24L4426.94 5496.39L4476.7 5488.94L4498.95 5442.94Z" fill="black"/>
<path opacity="0.3" d="M4749.98 5442.94L4772.23 5488.94L4821.99 5496.39L4785.98 5532.24L4794.48 5583L4749.98 5558.97L4705.48 5583L4713.97 5532.24L4678.17 5496.39L4727.73 5488.94L4749.98 5442.94Z" fill="black"/>
<path opacity="0.3" d="M5001.22 5442.94L5023.26 5488.94L5073.03 5496.39L5037.02 5532.24L5045.52 5583L5001.22 5558.97L4956.71 5583L4965.21 5532.24L4929.2 5496.39L4978.96 5488.94L5001.22 5442.94Z" fill="black"/>
<path opacity="0.1" d="M5252.25 5442.94L5274.5 5488.94L5324.06 5496.39L5288.25 5532.24L5296.75 5583L5252.25 5558.97L5207.75 5583L5216.24 5532.24L5180.44 5496.39L5230 5488.94L5252.25 5442.94Z" fill="black"/>
<path opacity="0.3" d="M4506.84 7010.41H4146.77V7379.22H4506.84V7010.41Z" fill="black"/>
<path opacity="0.3" d="M4464.76 7527.58H4188.85C4177.69 7527.58 4166.99 7523.04 4159.1 7514.95C4151.21 7506.87 4146.77 7495.91 4146.77 7484.48C4146.83 7473.08 4151.28 7462.18 4159.17 7454.14C4167.05 7446.1 4177.72 7441.59 4188.85 7441.59H4464.76C4475.89 7441.59 4486.56 7446.1 4494.44 7454.14C4502.33 7462.18 4506.78 7473.08 4506.84 7484.48C4506.84 7495.91 4502.4 7506.87 4494.51 7514.95C4486.62 7523.04 4475.92 7527.58 4464.76 7527.58Z" fill="black"/>
<path opacity="0.3" d="M5623.43 7010.41H4697.38C4676.16 7010.41 4658.95 7028.03 4658.95 7049.77V7049.98C4658.95 7071.72 4676.16 7089.35 4697.38 7089.35H5623.43C5644.66 7089.35 5661.87 7071.72 5661.87 7049.98V7049.77C5661.87 7028.03 5644.66 7010.41 5623.43 7010.41Z" fill="black"/>
<path opacity="0.3" d="M5421.15 7217.61H4697.38C4676.16 7217.61 4658.95 7235.23 4658.95 7256.97V7257.18C4658.95 7278.92 4676.16 7296.55 4697.38 7296.55H5421.15C5442.38 7296.55 5459.58 7278.92 5459.58 7257.18V7256.97C5459.58 7235.23 5442.38 7217.61 5421.15 7217.61Z" fill="black"/>
<path opacity="0.3" d="M5623.43 7424.8H4697.38C4676.16 7424.8 4658.95 7442.43 4658.95 7464.17V7464.38C4658.95 7486.12 4676.16 7503.75 4697.38 7503.75H5623.43C5644.66 7503.75 5661.87 7486.12 5661.87 7464.38V7464.17C5661.87 7442.43 5644.66 7424.8 5623.43 7424.8Z" fill="black"/>
<path opacity="0.3" d="M5097.5 7632H4697.38C4676.16 7632 4658.95 7649.63 4658.95 7671.37V7671.58C4658.95 7693.32 4676.16 7710.95 4697.38 7710.95H5097.5C5118.72 7710.95 5135.93 7693.32 5135.93 7671.58V7671.37C5135.93 7649.63 5118.72 7632 5097.5 7632Z" fill="black"/>
<path d="M3916.98 3967.46H2618.73V5733.22H3916.98V3967.46Z" fill="white"/>
<path d="M3856.3 4029.62H2679.43V5671.06H3856.3V4029.62Z" fill="#003249"/>
<path opacity="0.4" d="M3856.3 4029.62H2679.43V5671.06H3856.3V4029.62Z" fill="white"/>
<path d="M3856.3 5304.32V5671.06H3764.86C3739.57 5646.38 3711.69 5624.63 3681.73 5606.21C3667.29 5597.3 3651.79 5590.33 3635.61 5585.49C3498.26 5547.37 3696.29 5171.09 3696.29 5171.09C3742.01 5186.01 3798.85 5239.05 3856.3 5304.32Z" fill="#407BFF"/>
<path opacity="0.6" d="M3856.3 5304.32V5671.06H3764.86C3739.57 5646.38 3711.69 5624.63 3681.73 5606.21C3667.29 5597.3 3651.79 5590.33 3635.61 5585.49C3498.26 5547.37 3696.29 5171.09 3696.29 5171.09C3742.01 5186.01 3798.85 5239.05 3856.3 5304.32Z" fill="white"/>
<path opacity="0.2" d="M3856.3 5669.82V5671.07H3764.87C3739.57 5646.38 3711.69 5624.63 3681.73 5606.21L3708.84 5432.79C3735.28 5455.25 3758.74 5481.17 3778.62 5509.86C3813.2 5558.27 3839.47 5612.37 3856.3 5669.82Z" fill="black"/>
<path d="M3604.25 5155.96C3601.42 5170.88 3598.59 5186.01 3595.35 5200.93C3592.12 5215.85 3587.67 5236.36 3583.42 5253.97C3539.32 5435.68 3466.5 5594.81 3362.12 5671.06H3005.3C2901.53 5616.98 2881.7 5526.02 2885.14 5430.71C2887.37 5366.27 2900.31 5300.59 2905.37 5244.23C2906.97 5224.79 2906.97 5205.24 2905.37 5185.8C2902.74 5156.38 2897.28 5120.95 2890.6 5082.2C2859.65 4901.73 2799.17 4641.28 2829.92 4507.64C2866.53 4345.19 2982.24 4300.44 2982.24 4300.44C2982.24 4300.44 3021.48 4297.74 3081.76 4298.16C3126.26 4298.16 3182.9 4300.44 3242.17 4306.24H3246.42C3312.89 4312.37 3378.74 4324.29 3443.24 4341.88L3458 4346.23C3470.75 4350.16 3483.49 4354.31 3495.83 4358.87C3503.92 4361.77 3511.81 4364.88 3519.7 4368.19C3529.93 4372.64 3539.16 4379.2 3546.81 4387.46C3638.44 4483.81 3661.1 4837.08 3604.25 5155.96Z" fill="#263238"/>
<path d="M3497.65 4388.29C3626.1 4326.13 3681.52 4755.24 3635.61 5065" stroke="#263238" stroke-width="0.5" stroke-linecap="round" stroke-linejoin="round"/>
<path d="M3788.33 5671.06H2865.11C2861.27 5653.25 2857.43 5635.43 2853.38 5617.81C2830.58 5514.69 2800.36 5413.44 2762.96 5314.89C2800.78 5291.86 2840.28 5271.84 2881.09 5255.01C2888.78 5251.48 2896.67 5248.17 2905.17 5244.85C2937.13 5231.8 2974.35 5218.33 3016.02 5205.49L3029.37 5201.55C3060.72 5192.22 3094.5 5183.52 3130.51 5175.86C3205.66 5159.7 3281.97 5149.86 3358.68 5146.43C3417.08 5143.61 3475.58 5144.58 3533.86 5149.33C3556.72 5150.99 3579.98 5153.27 3603.65 5156.38C3633.38 5160.11 3664.33 5164.87 3694.88 5170.88C3698.31 5176.48 3754.55 5268.06 3777.81 5510.07C3783.47 5557.73 3786.91 5611.18 3788.33 5671.06Z" fill="#9AD1D4"/>
<path d="M3021.27 5390.1C3021.27 5390.1 2915.68 5123.64 3245.4 5093.6C3575.12 5063.56 3640.86 5274.07 3640.86 5274.07L3487.73 5219.78L3406.82 5602.07C3354.84 5456.28 3251.91 5335.42 3117.96 5262.88L3021.27 5390.1Z" fill="#407BFF"/>
<path opacity="0.6" d="M3021.27 5390.1C3021.27 5390.1 2915.68 5123.64 3245.4 5093.6C3575.12 5063.56 3640.86 5274.07 3640.86 5274.07L3487.73 5219.78L3406.82 5602.07C3354.84 5456.28 3251.91 5335.42 3117.96 5262.88L3021.27 5390.1Z" fill="white"/>
<path d="M3393.07 5432.78C3308.15 5342.57 3211.74 5264.51 3106.43 5200.72C3185.32 5132.34 3177.23 5024.6 3161.45 4956.85C3156.44 4935.58 3149.67 4914.78 3141.23 4894.69L3360.3 4948.97C3353.54 4980.23 3349.01 5011.94 3346.75 5043.87C3344.85 5067.38 3345.73 5091.03 3349.37 5114.32C3360.9 5182.9 3398.53 5185.8 3398.53 5185.8C3434.33 5262.88 3393.07 5432.78 3393.07 5432.78Z" fill="#E4897B"/>
<path opacity="0.2" d="M3347.56 5043.66C3345.67 5067.17 3346.55 5090.82 3350.19 5114.11C3263.01 5097.53 3200.1 5021.91 3161.46 4957.26C3156.45 4935.99 3149.68 4915.2 3141.23 4895.1L3360.31 4949.39C3353.85 4980.46 3349.59 5011.96 3347.56 5043.66Z" fill="black"/>
<path d="M3278.17 4305.2C3516.66 4305.2 3536.69 4423.31 3550.44 4626.78C3567.43 4881.22 3512.01 5061.9 3271.09 5006.78C2944 4932.4 2957.96 4305.2 3278.17 4305.2Z" fill="#E4897B"/>
<path d="M3425.84 4615.59C3441.15 4645.4 3459.89 4673.23 3481.67 4698.47C3476.07 4706.66 3468.35 4713.09 3459.38 4717.04C3450.42 4720.99 3440.55 4722.31 3430.9 4720.85L3425.84 4615.59Z" fill="#DE5753"/>
<path d="M3307.9 4599.84C3307.9 4616.21 3300.02 4629.47 3289.29 4629.68C3278.57 4629.88 3269.07 4617.04 3269.07 4600.67C3269.07 4584.3 3276.96 4571.25 3287.47 4571.04C3297.99 4570.83 3307.5 4582.85 3307.9 4599.84Z" fill="#263238"/>
<path d="M3283.84 4571.04L3318.02 4556.33C3318.02 4556.33 3301.43 4586.37 3283.84 4571.04Z" fill="#263238"/>
<path d="M3504.74 4591.34C3504.74 4607.71 3496.85 4620.97 3486.13 4621.18C3475.41 4621.39 3465.9 4608.54 3465.9 4592.17C3465.9 4575.8 3473.79 4562.75 3484.31 4562.54C3494.82 4562.34 3504.33 4575.18 3504.74 4591.34Z" fill="#263238"/>
<path d="M3480.66 4563.37L3514.65 4548.87C3514.65 4548.87 3499.27 4579.12 3480.66 4563.37Z" fill="#263238"/>
<path d="M3306.29 4462.67C3306.29 4462.67 3252.08 4455.42 3222.55 4492.3" stroke="#263238" stroke-width="0.707962" stroke-linecap="round" stroke-linejoin="round"/>
<path d="M3446.47 4454.8C3459.63 4451.41 3473.36 4451.12 3486.64 4453.95C3499.92 4456.79 3512.4 4462.68 3523.14 4471.17" stroke="#263238" stroke-width="0.707962" stroke-linecap="round" stroke-linejoin="round"/>
<path d="M3070.83 4649.36C3070.83 4649.36 3161.25 4487.33 3147.9 4361.97C3147.9 4361.97 3283.83 4218.38 3466.9 4360.32C3466.9 4360.32 3543.56 4495.41 3547.81 4600.25C3547.81 4600.25 3585.84 4248.01 3254.5 4239.1C2923.16 4230.2 2923.97 4727.06 3094.7 4875.42C3094.7 4875.42 3014.8 4750.68 3070.83 4649.36Z" fill="#263238"/>
<path d="M3102.2 4691.01C3100.34 4668.18 3089.75 4647.04 3072.74 4632.17C3055.73 4617.31 3033.67 4609.93 3011.37 4611.65C2950.69 4618.28 2922.77 4743.84 3072.06 4774.3C3092.69 4778.65 3104.83 4757.31 3102.2 4691.01Z" fill="#E4897B"/>
<path d="M3404.8 4827.76C3404.8 4827.76 3323.88 4846.41 3290.51 4772.44" stroke="#263238" stroke-width="0.707962" stroke-linecap="round" stroke-linejoin="round"/>
<path d="M3147.91 4361.98C3147.91 4361.98 3368.2 4261.9 3514.04 4394.09C3514.04 4394.09 3571.29 4220.04 3375.88 4160.58C3180.48 4101.11 2981.84 4301.27 2981.84 4301.27L3147.91 4361.98Z" fill="#263238"/>
<path d="M3147.91 4361.97C3147.91 4361.97 3019.26 4491.89 3037.87 4750.68C3056.48 5009.47 3032 5173.16 2981.84 5335.19C2931.67 5497.22 3062.75 5545.5 3062.75 5545.5C3062.75 5545.5 2913.06 5583.21 2882.31 5419.11C2862.09 5311.37 2910.23 5078.06 2885.95 4800.2C2861.68 4522.35 2958.57 4325.71 3147.91 4361.97Z" fill="#263238"/>
<path opacity="0.2" d="M2907.79 5671.06H2865.11C2861.27 5653.24 2857.42 5635.42 2853.38 5617.81L2885.54 5589.01C2894.63 5615.86 2902.06 5643.26 2907.79 5671.06Z" fill="black"/>
<path d="M2885.75 5671.07H2679.43V5380.99C2704.94 5356.23 2732.87 5334.22 2762.77 5315.3C2792.45 5328.15 2818.38 5348.63 2838.05 5374.77C2857.72 5400.91 2870.46 5431.82 2875.03 5464.49C2880.99 5505.67 2884.44 5547.19 2885.35 5588.81C2886.36 5618.44 2886.16 5646.82 2885.75 5671.07Z" fill="#407BFF"/>
<path opacity="0.6" d="M2885.75 5671.07H2679.43V5380.99C2704.94 5356.23 2732.87 5334.22 2762.77 5315.3C2792.45 5328.15 2818.38 5348.63 2838.05 5374.77C2857.72 5400.91 2870.46 5431.82 2875.03 5464.49C2880.99 5505.67 2884.44 5547.19 2885.35 5588.81C2886.36 5618.44 2886.16 5646.82 2885.75 5671.07Z" fill="white"/>
<path opacity="0.3" d="M3916.98 5938.97H2618.73V7702.25H3916.98V5938.97Z" fill="black"/>
<path opacity="0.3" d="M3698.72 6212.27H2813.33C2803.12 6212.22 2793.34 6208.02 2786.14 6200.61C2778.94 6193.19 2774.9 6183.15 2774.9 6172.69C2774.9 6162.25 2778.95 6152.24 2786.16 6144.86C2793.36 6137.47 2803.14 6133.33 2813.33 6133.33H3698.72C3703.79 6133.3 3708.81 6134.3 3713.49 6136.26C3718.18 6138.23 3722.44 6141.13 3726.03 6144.78C3729.62 6148.44 3732.47 6152.79 3734.41 6157.58C3736.36 6162.37 3737.36 6167.51 3737.36 6172.69C3737.36 6177.89 3736.36 6183.04 3734.42 6187.84C3732.47 6192.64 3729.63 6197 3726.04 6200.68C3722.45 6204.35 3718.19 6207.27 3713.51 6209.26C3708.82 6211.25 3703.8 6212.27 3698.72 6212.27Z" fill="white"/>
<path opacity="0.3" d="M3698.92 6353.79H2813.33C2792.11 6353.79 2774.9 6371.41 2774.9 6393.16V6393.36C2774.9 6415.11 2792.11 6432.73 2813.33 6432.73H3698.92C3720.15 6432.73 3737.36 6415.11 3737.36 6393.36V6393.16C3737.36 6371.41 3720.15 6353.79 3698.92 6353.79Z" fill="white"/>
<path opacity="0.3" d="M3294.16 6653.4H2813.33C2803.12 6653.34 2793.34 6649.15 2786.14 6641.73C2778.94 6634.32 2774.9 6624.28 2774.9 6613.82C2774.9 6603.38 2778.95 6593.37 2786.16 6585.99C2793.36 6578.6 2803.14 6574.46 2813.33 6574.46H3294.16C3299.22 6574.43 3304.24 6575.43 3308.93 6577.39C3313.61 6579.36 3317.87 6582.25 3321.46 6585.91C3325.05 6589.57 3327.9 6593.92 3329.85 6598.71C3331.79 6603.5 3332.79 6608.64 3332.79 6613.82C3332.79 6624.32 3328.72 6634.39 3321.48 6641.81C3314.23 6649.23 3304.4 6653.4 3294.16 6653.4Z" fill="white"/>
<path opacity="0.3" d="M3698.72 6873.86H2813.33C2803.14 6873.86 2793.36 6869.71 2786.16 6862.33C2778.95 6854.95 2774.9 6844.93 2774.9 6834.49C2774.9 6824.03 2778.94 6814 2786.14 6806.58C2793.34 6799.17 2803.12 6794.97 2813.33 6794.92H3698.72C3708.97 6794.92 3718.8 6799.09 3726.04 6806.51C3733.29 6813.93 3737.36 6824 3737.36 6834.49C3737.36 6839.68 3736.36 6844.82 3734.41 6849.61C3732.47 6854.4 3729.62 6858.75 3726.03 6862.4C3722.44 6866.06 3718.18 6868.96 3713.49 6870.92C3708.81 6872.89 3703.79 6873.89 3698.72 6873.86Z" fill="white"/>
<path opacity="0.3" d="M3698.72 7094.32H2813.33C2803.14 7094.32 2793.36 7090.17 2786.16 7082.79C2778.95 7075.41 2774.9 7065.39 2774.9 7054.95C2774.9 7044.51 2778.95 7034.5 2786.16 7027.11C2793.36 7019.73 2803.14 7015.58 2813.33 7015.58H3698.72C3703.79 7015.56 3708.81 7016.56 3713.49 7018.52C3718.18 7020.49 3722.44 7023.38 3726.03 7027.04C3729.62 7030.7 3732.47 7035.05 3734.41 7039.84C3736.36 7044.63 3737.36 7049.77 3737.36 7054.95C3737.36 7060.14 3736.36 7065.28 3734.41 7070.07C3732.47 7074.86 3729.62 7079.2 3726.03 7082.86C3722.44 7086.52 3718.18 7089.42 3713.49 7091.38C3708.81 7093.35 3703.79 7094.35 3698.72 7094.32Z" fill="white"/>
<path opacity="0.3" d="M3091.88 7314.16H2813.33C2803.14 7314.16 2793.36 7310.01 2786.16 7302.63C2778.95 7295.25 2774.9 7285.23 2774.9 7274.79C2774.87 7269.61 2775.85 7264.46 2777.77 7259.66C2779.69 7254.86 2782.51 7250.5 2786.08 7246.82C2789.66 7243.14 2793.9 7240.22 2798.58 7238.23C2803.25 7236.24 2808.27 7235.22 2813.33 7235.22H3091.88C3096.96 7235.19 3101.99 7236.19 3106.69 7238.17C3111.39 7240.15 3115.66 7243.07 3119.25 7246.75C3122.85 7250.43 3125.69 7254.8 3127.62 7259.62C3129.56 7264.43 3130.54 7269.59 3130.51 7274.79C3130.51 7279.98 3129.51 7285.12 3127.57 7289.91C3125.62 7294.7 3122.77 7299.05 3119.18 7302.7C3115.59 7306.36 3111.33 7309.26 3106.65 7311.22C3101.96 7313.19 3096.94 7314.19 3091.88 7314.16Z" fill="white"/>
<path opacity="0.3" d="M3496.44 7535.45H2813.33C2803.14 7535.45 2793.36 7531.3 2786.16 7523.92C2778.95 7516.54 2774.9 7506.52 2774.9 7496.08C2774.9 7485.64 2778.95 7475.63 2786.16 7468.24C2793.36 7460.86 2803.14 7456.71 2813.33 7456.71H3496.44C3501.5 7456.69 3506.52 7457.68 3511.21 7459.65C3515.9 7461.62 3520.16 7464.51 3523.75 7468.17C3527.34 7471.83 3530.19 7476.18 3532.13 7480.97C3534.07 7485.76 3535.08 7490.89 3535.08 7496.08C3535.08 7501.27 3534.07 7506.41 3532.13 7511.2C3530.19 7515.99 3527.34 7520.33 3523.75 7523.99C3520.16 7527.65 3515.9 7530.55 3511.21 7532.51C3506.52 7534.48 3501.5 7535.48 3496.44 7535.45Z" fill="white"/>
<path d="M5019.41 7374.04C5008.88 7367.01 4997.49 7364.31 4986.19 7366.14C4974.9 7367.98 4964.04 7374.31 4954.52 7384.61C4894.34 7442 4869.15 7677.8 4858.6 7861.17C4862.45 7601.13 4888.01 7241.43 4990.13 7045.63L4980.82 7032.16C4895.33 7195.85 4862.08 7464.38 4850.54 7699.97C4848.93 7599.68 4845.2 7491.11 4837.26 7387.72C4839.99 7165.8 4851.53 6964.41 4881.93 6895.82L4871.88 6883.39C4845.08 6943.89 4832.17 7097.64 4826.96 7277.07C4811.7 7142.6 4787.38 7028.43 4749.29 6969.79L4740.98 6984.92C4786.39 7054.74 4811.45 7214.08 4824.61 7390.2C4824.61 7415.07 4824.61 7440.34 4823.99 7465.62C4812.2 7362.02 4796.32 7276.86 4775.35 7242.68C4704.62 7127.89 4621.49 7241.02 4620.74 7242.68L4628.68 7258.42C4631.66 7254.28 4704 7156.27 4766.66 7258.42C4794.21 7302.97 4812.45 7448.63 4824.36 7602.37C4825.97 7786.58 4831.43 7959.79 4835.15 8060.49C4835.15 8076.45 4834.28 8085.57 4834.28 8086.39H4836.15C4837.51 8121.2 4838.5 8143.58 4838.75 8148.55L4849.67 8147.1C4849.67 8159.74 4850.79 8167.82 4850.91 8170.93L4863.32 8169.07C4863.32 8167.41 4861.46 8136.74 4860.09 8086.19H4863.94C4863.94 8080.39 4868.03 7491.52 4961.34 7402.43C4969.22 7393.72 4978.24 7388.32 4987.64 7386.7C4997.04 7385.07 5006.54 7387.27 5015.32 7393.1C5069.91 7430.81 5099.07 7605.28 5099.32 7607.14L5111.73 7601.55C5109.37 7594.09 5079.71 7415.69 5019.41 7374.04Z" fill="#263238"/>
<path d="M4696.68 7392.9C4642.46 7399.32 4600.52 7521.77 4598.66 7526.95L4609.58 7537.11C4609.58 7535.86 4650.03 7419.21 4697.55 7412.79C4717.52 7410.72 4736.51 7428.74 4754.13 7466.87C4827.34 7626.62 4812.57 8080.39 4812.45 8084.94L4824.85 8086.19C4824.85 8067.13 4839.99 7619.99 4763.93 7454.43C4743.71 7410.92 4721 7390 4696.68 7392.9Z" fill="#263238"/>
<g opacity="0.2">
<path d="M5019.41 7374.04C5008.88 7367.01 4997.49 7364.31 4986.19 7366.14C4974.9 7367.98 4964.04 7374.31 4954.52 7384.61C4894.34 7442 4869.15 7677.8 4858.6 7861.17C4862.45 7601.13 4888.01 7241.43 4990.13 7045.63L4980.82 7032.16C4895.33 7195.85 4862.08 7464.38 4850.54 7699.97C4848.93 7599.68 4845.2 7491.11 4837.26 7387.72C4839.99 7165.8 4851.53 6964.41 4881.93 6895.82L4871.88 6883.39C4845.08 6943.89 4832.17 7097.64 4826.96 7277.07C4811.7 7142.6 4787.38 7028.43 4749.29 6969.79L4740.98 6984.92C4786.39 7054.74 4811.45 7214.08 4824.61 7390.2C4824.61 7415.07 4824.61 7440.34 4823.99 7465.62C4812.2 7362.02 4796.32 7276.86 4775.35 7242.68C4704.62 7127.89 4621.49 7241.02 4620.74 7242.68L4628.68 7258.42C4631.66 7254.28 4704 7156.27 4766.66 7258.42C4794.21 7302.97 4812.45 7448.63 4824.36 7602.37C4825.97 7786.58 4831.43 7959.79 4835.15 8060.49C4835.15 8076.45 4834.28 8085.57 4834.28 8086.39H4836.15C4837.51 8121.2 4838.5 8143.58 4838.75 8148.55L4849.67 8147.1C4849.67 8159.74 4850.79 8167.82 4850.91 8170.93L4863.32 8169.07C4863.32 8167.41 4861.46 8136.74 4860.09 8086.19H4863.94C4863.94 8080.39 4868.03 7491.52 4961.34 7402.43C4969.22 7393.72 4978.24 7388.32 4987.64 7386.7C4997.04 7385.07 5006.54 7387.27 5015.32 7393.1C5069.91 7430.81 5099.07 7605.28 5099.32 7607.14L5111.73 7601.55C5109.37 7594.09 5079.71 7415.69 5019.41 7374.04Z" fill="white"/>
<path d="M4696.68 7392.9C4642.46 7399.32 4600.52 7521.77 4598.66 7526.95L4609.58 7537.11C4609.58 7535.86 4650.03 7419.21 4697.55 7412.79C4717.52 7410.72 4736.51 7428.74 4754.13 7466.87C4827.34 7626.62 4812.57 8080.39 4812.45 8084.94L4824.85 8086.19C4824.85 8067.13 4839.99 7619.99 4763.93 7454.43C4743.71 7410.92 4721 7390 4696.68 7392.9Z" fill="white"/>
</g>
<path d="M5041 7480.95C5041 7480.95 4992.49 7510.79 5006.88 7581.45C5021.27 7652.1 5174.88 7767.93 5174.88 7767.93C5174.88 7767.93 5239.28 7669.51 5180.22 7509.34C5121.16 7349.18 5042.37 7430.4 5041 7480.95Z" fill="#263238"/>
<path d="M4829.82 7346.48C4829.82 7346.48 4881.56 7342.75 4884.53 7417.35C4887.51 7491.94 4772.86 7697.69 4772.86 7697.69C4772.86 7697.69 4690.72 7648.17 4708.34 7462.31C4725.96 7276.45 4817.03 7300.69 4829.82 7346.48Z" fill="#263238"/>
<path d="M4786.02 6990.1C4786.02 6990.1 4820.51 6983.88 4817.78 6948.66C4815.05 6913.44 4683.65 6823.3 4606.84 6969.38C4606.84 6969.38 4656.48 7111.52 4728.19 7113.38C4799.91 7115.25 4786.02 6990.1 4786.02 6990.1Z" fill="#263238"/>
<path d="M4850.29 6904.94C4850.29 6904.94 4819.14 6930.22 4810.33 6897.89C4801.53 6865.57 4884.78 6673.08 4996.45 6728.61C4996.45 6728.61 4999.43 6893.13 4939.25 6957.98C4879.08 7022.84 4850.29 6904.94 4850.29 6904.94Z" fill="#263238"/>
<path d="M4687 7452.57C4687 7452.57 4710.82 7420.45 4685.14 7404.71C4659.45 7388.96 4533.39 7393.52 4532.15 7601.96C4532.15 7601.96 4678.93 7643.4 4697.05 7563.42C4715.17 7483.44 4687 7452.57 4687 7452.57Z" fill="#263238"/>
<path d="M4986.4 6984.92C4986.4 6984.92 4962.58 6952.8 4988.26 6937.06C5013.95 6921.31 5140.01 6925.87 5141.26 7134.31C5141.26 7134.31 4994.47 7175.75 4976.35 7095.77C4958.24 7015.79 4986.4 6984.92 4986.4 6984.92Z" fill="#263238"/>
<path d="M4908.73 7152.75C4908.73 7152.75 4906.62 7113.8 4925.48 7129.13C4944.34 7144.46 5010.1 7262.77 4941.98 7375.08C4941.98 7375.08 4850.29 7261.74 4866.79 7202.69C4883.29 7143.63 4908.73 7152.75 4908.73 7152.75Z" fill="#263238"/>
<path d="M4665.41 7208.49C4665.41 7208.49 4679.55 7177.2 4658.83 7173.47C4638.11 7169.74 4544.56 7211.18 4566.27 7366.79C4566.27 7366.79 4680.05 7352.49 4684.89 7287.85C4689.73 7223.2 4665.41 7208.49 4665.41 7208.49Z" fill="#263238"/>
<path d="M5050.06 8664.27H4659.7L4617.64 7950.68H5092.25L5050.06 8664.27Z" fill="#003249"/>
<path opacity="0.2" d="M5050.06 8664.27H4659.7L4617.64 7950.68H5092.25L5050.06 8664.27Z" fill="white"/>
<path d="M5113.09 7871.94H4596.79V8029.41H5113.09V7871.94Z" fill="#407BFF"/>
<path opacity="0.5" d="M5113.09 7871.94H4596.79V8029.41H5113.09V7871.94Z" fill="white"/>
</g>
<defs>
<clipPath id="clip0_265_15">
<rect width="6204" height="10360" fill="white"/>
</clipPath>
</defs>
</svg>
