<svg width="1767" height="1579" viewBox="0 0 1767 1579" fill="none" xmlns="http://www.w3.org/2000/svg">
<g clip-path="url(#clip0_16_156)">
<path d="M9.66626 20.3811H1776.67V1599.38H9.66626V20.3811Z" fill="#CCDBDC"/>
<path d="M1180.52 345.957C1193.67 293.441 1244.64 255.356 1304.81 253.078C1364.98 250.8 1419.37 284.896 1437.46 336.23C1452.31 337.882 1467.21 343.701 1480.81 349.081C1628.94 407.651 1673.05 548.385 1654.16 683.047C1650.21 709.161 1644.82 735.085 1638.02 760.727C1617.7 836.084 1592.03 905.273 1615.99 983.082C1623.8 1008.45 1650.76 1072.74 1641.55 1095.91C1644.98 1109 1646.09 1117.07 1639.07 1129.67C1635.69 1157.8 1607.5 1199.17 1583.6 1217.5C1580.96 1219.52 1580.38 1219.53 1577.12 1219.62C1571.13 1218.12 1538.56 1219.3 1530.13 1219.5C1527.25 1233.99 1525.19 1242.86 1518.6 1256.75C1515.96 1261.95 1514.03 1265.58 1510.85 1270.51C1503.3 1279.98 1498.5 1285.81 1488.47 1293.49C1488.77 1293.65 1489.05 1293.83 1489.36 1293.95C1495.5 1296.44 1508.02 1295.75 1515.06 1296.39C1528.81 1297.65 1594.24 1303.73 1601.37 1313.52C1602.38 1314.91 1602.39 1316.43 1601.46 1317.85C1594.26 1328.8 1527.85 1334.25 1512.04 1335.79C1460.55 1340.36 1408.89 1343.21 1357.16 1344.32C1311.63 1345.96 1266.06 1346.9 1220.49 1347.14C1099.18 1347.98 976.854 1346.07 856.022 1335.94C842.662 1334.83 768.664 1329.37 766.697 1315.35C774.471 1302.03 878.064 1293.38 896.39 1294.06C903.888 1290.39 921.351 1285.19 930.488 1284.51C931.463 1284.44 931.903 1285.67 932.636 1286.74L933.62 1285.18L933.896 1284.1C935.992 1282.1 936.036 1282.62 939.556 1281.76C935.095 1278.97 815.303 1280.57 801.41 1280.56C621.419 1281.38 441.434 1278.03 261.639 1270.49C243.086 1269.61 114.235 1264.23 109.224 1253.16C113.31 1244.52 170.807 1240.19 182.271 1239C181.462 1238.3 180.659 1237.6 179.863 1236.88C149.809 1209.95 130.976 1177.2 119.594 1140.67C100.082 1078.05 118.829 1012.19 153.735 956.821C178.932 916.853 208.147 882.559 211.962 833.678C214.599 792.268 196.589 750.805 183.421 711.157C149.538 609.138 168.612 508.676 256.255 431.361C289.987 401.913 330.84 379.786 375.66 366.685C488.168 333.715 568.802 362.939 675.092 393.702C730.808 409.828 803.191 419.806 861.37 415.846C941.583 410.387 1022.11 381.668 1099.53 362.909C1118.67 358.258 1162.68 345.856 1180.52 345.957Z" fill="#007EA7"/>
<path d="M1180.52 345.957C1193.67 293.441 1244.64 255.356 1304.81 253.078C1364.98 250.8 1419.37 284.896 1437.46 336.23C1452.3 337.882 1467.21 343.701 1480.81 349.081C1628.94 407.651 1673.05 548.385 1654.16 683.047C1650.21 709.161 1644.82 735.085 1638.02 760.727C1617.7 836.084 1592.03 905.273 1615.99 983.082C1623.8 1008.45 1650.76 1072.74 1641.55 1095.91C1644.98 1109 1646.09 1117.07 1639.07 1129.67C1635.69 1157.8 1607.5 1199.17 1583.6 1217.5C1580.96 1219.52 1580.38 1219.53 1577.12 1219.62C1571.13 1218.12 1538.56 1219.3 1530.13 1219.5C1531.35 1212.26 1531.58 1203.92 1531.98 1196.54C1531.71 1188.83 1531.46 1181.54 1531.56 1173.81L1531.79 1172.55C1530 1170.87 1529.77 1165.97 1529.43 1163.5C1528.7 1156.66 1526.37 1149.9 1525.68 1142.62L1524.97 1140.93C1524.24 1136.38 1521.6 1132.32 1521.62 1127.56L1520.55 1123.46C1519.45 1121.85 1512.72 1101.28 1511.5 1097.91C1508.86 1090.71 1505.88 1083.63 1502.55 1076.66C1500.21 1072.93 1493.72 1058.45 1491.53 1053.83C1489.07 1050.16 1476.66 1030.47 1476.2 1027.2L1474.56 1026.47C1471.31 1020.72 1465.18 1011.94 1461.37 1006.12C1460.12 1004.32 1460.31 1004.24 1459.62 1002.12C1456.53 1001.03 1452.84 995.448 1450.49 992.55C1442.08 982.149 1432.73 972.735 1423.19 963.159C1423.65 957.145 1423.05 948.479 1423.06 942.242C1423.06 928.079 1422.72 913.977 1423.42 899.806V653.989L1423.47 586.683C1423.57 564.484 1427.91 540.636 1408.67 523.618C1401.21 516.984 1391.58 512.641 1381.18 511.214C1373.13 510.095 1350.5 510.622 1341.38 510.662L1269.82 510.744L1059.36 510.685C1027.41 510.685 990.926 511.581 959.529 510.813L952.834 506.731L824.953 506.682C804.061 506.673 783.004 506.303 762.153 507.106C757.093 507.301 755.633 508.441 751.619 510.804C719.134 511.279 685.186 510.658 652.502 510.655L450.861 510.709L373.265 510.567C361.496 510.557 339.853 510.011 329.312 511.474C319.214 512.954 309.93 517.326 302.855 523.932C295.902 530.346 291.237 538.46 289.451 547.246C287.778 555.94 288.431 576.325 288.458 586.182L288.43 647.597L288.376 924L288.463 1003.87C288.48 1010.91 289.262 1048.05 287.121 1051.75L288.437 1052.54C289.256 1057.2 288.817 1083.8 288.377 1089.22L288.26 1090.4C288.093 1108.76 288.085 1127.13 288.238 1145.49L288.277 1147.36C288.185 1171.35 287.954 1195.35 287.584 1219.35C279.834 1218.9 268.053 1219.08 260.01 1219.01C252.912 1219.03 211.637 1217.48 208.584 1220.68C206.872 1222.48 206.791 1225.07 207.328 1227.25C208.075 1230.28 209.657 1233.04 211.192 1235.8C207.547 1237.12 187.33 1238.53 182.271 1239C181.462 1238.3 180.659 1237.6 179.863 1236.88C149.808 1209.95 130.975 1177.2 119.594 1140.67C100.082 1078.05 118.829 1012.19 153.735 956.822C178.932 916.853 208.147 882.559 211.962 833.678C214.599 792.268 196.589 750.805 183.421 711.158C149.538 609.139 168.612 508.676 256.255 431.361C289.987 401.913 330.84 379.786 375.66 366.685C488.168 333.715 568.802 362.939 675.092 393.702C730.808 409.828 803.191 419.806 861.37 415.846C941.583 410.387 1022.11 381.668 1099.53 362.909C1118.67 358.258 1162.68 345.856 1180.52 345.957Z" fill="#CCDBDC"/>
<path d="M1180.52 345.957C1193.67 293.441 1244.64 255.356 1304.81 253.078C1364.98 250.8 1419.37 284.896 1437.46 336.23C1454.27 383.967 1435.87 436.004 1391.4 466.43C1346.93 496.856 1285.92 499.166 1238.73 472.21C1191.54 445.254 1168.27 394.794 1180.52 345.957Z" fill="#007EA7"/>
<path d="M1302.33 307.008C1322.19 305.89 1342.73 309.535 1352.54 325.774C1369.34 353.587 1347.69 371.885 1327.37 389.645C1323.48 393.045 1320.67 407.37 1313.23 410.063C1306.86 412.37 1301.46 407.64 1298.94 402.875C1296.44 395.299 1300.25 388.525 1304.25 381.952C1310.85 373.288 1320.07 366.741 1327.05 357.574C1341.29 338.884 1323.4 324.35 1301.93 329.297C1290.84 331.851 1291.08 339.187 1286.31 346.749C1280.45 356.382 1266.58 353.065 1265.17 343C1262.18 321.498 1282.96 310.859 1302.33 307.008Z" fill="white"/>
<path d="M1307.17 417.087C1314.97 415.769 1322.5 420.329 1324.02 427.293C1325.53 434.257 1320.48 441.013 1312.7 442.415C1304.84 443.83 1297.21 439.264 1295.67 432.239C1294.14 425.214 1299.29 418.415 1307.17 417.087Z" fill="white"/>
<path d="M1502.55 1076.66C1523.99 1073.54 1537.84 1075.64 1541.41 1097.81C1542.12 1102.16 1541.97 1111.34 1544.99 1114.7C1546.75 1114.96 1549.34 1114.79 1550.54 1113.62C1571.45 1093.09 1555.24 1057.61 1602.77 1062.47C1624.11 1064.66 1635.04 1079.51 1641.55 1095.91C1644.98 1109 1646.09 1117.07 1639.07 1129.67C1635.69 1157.8 1607.5 1199.17 1583.6 1217.5C1580.96 1219.52 1580.38 1219.53 1577.12 1219.62C1571.13 1218.12 1538.56 1219.3 1530.13 1219.5C1531.35 1212.26 1531.58 1203.92 1531.98 1196.54C1531.71 1188.83 1531.46 1181.54 1531.56 1173.81L1531.79 1172.55C1530 1170.87 1529.77 1165.97 1529.43 1163.5C1528.7 1156.66 1526.37 1149.9 1525.68 1142.62L1524.97 1140.93C1524.24 1136.38 1521.6 1132.32 1521.62 1127.56L1520.55 1123.46C1519.45 1121.85 1512.72 1101.28 1511.5 1097.91C1508.86 1090.71 1505.88 1083.63 1502.55 1076.66Z" fill="#9AD1D4"/>
<path d="M1639.07 1129.67C1635.69 1157.8 1607.5 1199.17 1583.6 1217.5C1580.96 1219.52 1580.38 1219.53 1577.12 1219.62C1571.13 1218.12 1538.56 1219.3 1530.13 1219.5C1531.35 1212.26 1531.58 1203.92 1531.98 1196.54C1547.91 1196.7 1590.08 1200.21 1588.2 1178.27C1587.11 1165.36 1557.54 1159.19 1556.6 1149.89C1563.3 1131.78 1611.59 1148.91 1639.07 1129.67Z" fill="#EDEFF4"/>
<path d="M1524.97 1140.93C1544.57 1133.13 1563.64 1125.52 1579.76 1112.57C1581.28 1111.34 1589.6 1104.35 1590.69 1104.5C1578.81 1118.87 1544.56 1137.19 1525.68 1142.62L1524.97 1140.93Z" fill="#11464C"/>
<path d="M1531.79 1172.55C1538.21 1172.95 1562.43 1177.25 1567.73 1179.61L1567.99 1180.16C1554.95 1178.52 1544.29 1176.76 1531.56 1173.81L1531.79 1172.55Z" fill="#11464C"/>
<path d="M1520.55 1123.46C1520.82 1122.32 1522.86 1113.57 1523.1 1113.1L1524.47 1113.19L1524.46 1110.71C1525.46 1112.78 1522.34 1124.97 1521.62 1127.56L1520.55 1123.46Z" fill="#1C6A6C"/>
<path d="M1482.72 937.531C1482.84 937.269 1482.96 937.007 1483.07 936.745C1493.36 912.898 1445.54 857.502 1490.08 838.404C1502.35 833.146 1519.34 832.938 1532.04 837.117C1544.28 841.033 1554.2 849.221 1559.56 859.799C1570.36 881.033 1561.08 908.164 1545.91 925.658C1534.36 938.981 1520.85 951.625 1508.4 964.339C1506.26 960.522 1508.21 956.174 1502.77 951.463C1501.61 950.461 1497.51 943.746 1496.44 942.065C1485.18 957.701 1465.35 988.317 1461.37 1006.12C1460.12 1004.32 1460.31 1004.24 1459.62 1002.12C1456.53 1001.03 1452.84 995.448 1450.49 992.55C1442.08 982.149 1432.73 972.735 1423.19 963.159C1423.65 957.145 1423.05 948.479 1423.06 942.242C1423.06 928.079 1422.72 913.977 1423.42 899.806C1452.93 898.696 1457.88 920.716 1473.71 937.408C1474.97 938.749 1476.95 939.089 1478.78 939.274C1480.94 938.503 1480.79 938.642 1482.72 937.531Z" fill="#9AD1D4"/>
<path d="M1494.5 940.823C1505.55 927.192 1516.4 893.515 1518.54 876.923C1524.48 886.46 1502.23 931.278 1496.44 942.065C1485.18 957.7 1465.35 988.317 1461.37 1006.12C1460.12 1004.32 1460.31 1004.24 1459.62 1002.12C1456.53 1001.03 1452.84 995.448 1450.49 992.549C1442.08 982.149 1432.73 972.735 1423.19 963.159C1423.65 957.145 1423.05 948.479 1423.06 942.242C1423.06 928.079 1422.72 913.977 1423.42 899.806C1452.93 898.696 1457.88 920.716 1473.71 937.408C1474.97 938.749 1476.95 939.089 1478.78 939.274C1480.94 938.503 1480.79 938.641 1482.72 937.531C1486.98 938.981 1491.87 938.811 1494.5 940.823Z" fill="#9AD1D4"/>
<path d="M1494.5 940.823C1505.55 927.192 1516.4 893.515 1518.54 876.923C1524.48 886.46 1502.23 931.278 1496.44 942.065C1485.18 957.7 1465.35 988.317 1461.37 1006.12C1460.12 1004.32 1460.31 1004.24 1459.62 1002.12C1460.12 987.9 1458.64 977.199 1451.54 964.038C1449.45 960.16 1445.25 954.879 1444.34 951.108L1445.2 950.769C1456.27 962.35 1460.72 979.419 1462.95 994.045C1473.04 974.061 1482.77 959.936 1494.5 940.823Z" fill="#1C6A6C"/>
<path d="M251.238 1096.71C235.378 1078.87 204.491 1085.67 182.884 1078.57C153.899 1069.26 164.196 1032.99 172.739 1015.25C201.186 956.182 261.042 958.649 270.365 1026.2C271.823 1036.76 274.303 1046.8 286.026 1051.34L287.121 1051.75L288.437 1052.54C289.256 1057.2 288.816 1083.8 288.377 1089.22L288.26 1090.4L284.726 1090.14C273.254 1090.8 261.961 1093.01 251.238 1096.71Z" fill="#9AD1D4"/>
<path d="M284.726 1090.14C259.486 1080.87 227.439 1055.78 220.879 1031.15C219.955 1027.68 217.37 1016.22 219.42 1013.35C220.538 1015.05 221.192 1022.61 221.618 1025.15C226.457 1053.99 258.9 1078.87 288.377 1089.22L288.26 1090.4L284.726 1090.14Z" fill="#1C6A6C"/>
<path d="M284.726 1090.14L288.26 1090.4C288.093 1108.76 288.085 1127.13 288.237 1145.49L288.277 1147.36C288.185 1171.35 287.954 1195.35 287.583 1219.35C279.834 1218.9 268.053 1219.08 260.01 1219.01C241.743 1208.19 246.631 1195.31 254.942 1180.75C254.309 1178.78 251.674 1178.97 248.943 1178.93C228.235 1178.68 204.661 1181.24 186.267 1170.78C171.021 1162.11 172.149 1137.84 182.508 1126.46C195.408 1111.98 214.933 1114.54 232.995 1113.26C244.961 1112.42 252.616 1107.88 251.237 1096.71C261.961 1093.01 273.254 1090.8 284.726 1090.14Z" fill="#9AD1D4"/>
<path d="M288.277 1147.36C268.387 1142.66 255.56 1141.91 235.213 1141.27C227.306 1141.03 212.68 1140.44 205.588 1138.9C211.47 1137.16 257.673 1140.32 266.663 1141.35C271.697 1141.93 282.943 1144.27 288.238 1145.49L288.277 1147.36Z" fill="#11464C"/>
<path d="M1496.44 942.065C1497.51 943.745 1501.61 950.461 1502.77 951.463C1508.21 956.174 1506.26 960.522 1508.4 964.339C1487.06 989.381 1500.99 982.943 1524.98 980.375C1534.11 979.396 1548.89 980.09 1553.44 988.509C1568.35 1023 1519.63 1048.12 1491.53 1053.83C1489.07 1050.16 1476.66 1030.47 1476.2 1027.2L1474.56 1026.47C1471.31 1020.72 1465.18 1011.94 1461.37 1006.12C1465.35 988.317 1485.18 957.7 1496.44 942.065Z" fill="#9AD1D4"/>
<path d="M1474.56 1026.47C1489.66 1017.3 1529.4 995.988 1545.65 992.681C1543.42 994.277 1518.78 1005.23 1513.22 1007.75C1501.6 1013.02 1486.66 1022.48 1476.2 1027.2L1474.56 1026.47Z" fill="#11464C"/>
<path d="M442.604 1047.37C443.037 1037.89 442.534 1024.41 442.522 1014.59L442.369 941.556L442.533 729.522L442.464 660.051C442.45 648.008 442.264 635.648 442.721 623.602C442.839 620.502 443.414 619.415 445.259 616.978C448.593 612.575 452.042 612.989 458.365 612.676C469.958 612.102 482.306 612.383 494.052 612.374L556.344 612.31L756.43 612.281H1081.88C1141.25 612.267 1200.97 611.578 1260.23 613.065C1272.75 613.38 1269.32 641.472 1269.31 649.134L1269.24 707.048L1269.25 787.087C1269.25 800.217 1269.72 816.392 1269.12 829.229C1287.81 842.953 1290.82 862.791 1278.75 881.38C1278.35 884.448 1277.54 890.824 1276.21 893.546C1275.89 901.325 1275.92 906.738 1269.69 912.643C1268.92 915.142 1270.67 927.146 1271.66 929.559C1272.92 934.648 1273.53 940.214 1277.75 943.684C1281.55 942.89 1283.06 943.722 1286.67 945.203C1267.07 976.767 1215.32 987.893 1201.75 945.573C1177.29 951.417 1150.3 958.803 1138.2 979.743C1136.35 982.935 1129.54 996.058 1128.1 996.805C1126.24 991.478 1125.25 988.348 1118.75 987.145C1124.69 1007.36 1130.81 1027.53 1137.12 1047.66C1141.13 1060.15 1145.53 1073.16 1149.02 1085.82C1149.8 1088.59 1149.52 1088.59 1148.53 1091.07C1145.38 1093.41 1143.76 1093.14 1139.85 1092.61C1135.18 1092.52 1117.39 1092.05 1113.78 1092.79L1104.38 1099.95L1102.36 1099.84C1097.69 1096.93 1091.3 1094.95 1085.95 1093.05C1076.92 1090.6 1008.73 1091.59 996.233 1092.11C983.791 1106.46 983.066 1119.36 977.82 1136.36L976.854 1137C951.764 1137.91 922.559 1137.32 897.244 1137.31L756.608 1137.28L561.975 1137.3C525.136 1137.31 487.061 1137.74 450.305 1137.13C447.304 1135.06 443.235 1132.12 442.878 1128.58C441.974 1119.65 442.338 1110.1 442.348 1101.12C442.303 1083.2 442.388 1065.29 442.604 1047.37Z" fill="white"/>
<path d="M972.523 987.438L1074.09 987.484C1082.11 987.492 1112.95 988.008 1118.75 987.145C1124.69 1007.36 1130.81 1027.53 1137.12 1047.66C1141.13 1060.15 1145.53 1073.16 1149.02 1085.82C1149.8 1088.59 1149.52 1088.59 1148.53 1091.07C1145.38 1093.41 1143.76 1093.14 1139.85 1092.61C1135.18 1092.52 1117.39 1092.05 1113.78 1092.79L1104.38 1099.95L1102.36 1099.84C1097.69 1096.93 1091.3 1094.95 1085.95 1093.05C1076.92 1090.6 1008.73 1091.59 996.232 1092.11C994.326 1090.75 992.134 1088.28 991.461 1086.16C983.316 1060.61 975.638 1034.88 967.778 1009.24C966.604 1004.52 964.49 999.442 964.102 994.608C963.748 990.021 968.192 987.7 972.523 987.438Z" fill="#485A91"/>
<path d="M996.232 1092.11C994.326 1090.75 992.134 1088.28 991.461 1086.16C983.316 1060.61 975.638 1034.88 967.778 1009.24C966.604 1004.52 964.49 999.442 964.102 994.608C963.748 990.021 968.192 987.7 972.523 987.438C979.934 999.411 1017.02 1017.16 1029.64 1027.14C1032.79 1029.63 1043.09 1035.66 1046.84 1037.3C1045.2 1047.23 1053.11 1053.81 1063.46 1047.51C1075.48 1053.91 1090.57 1064.93 1103.43 1072.02C1110.83 1076.11 1135.28 1089.01 1139.85 1092.61C1135.18 1092.52 1117.39 1092.05 1113.78 1092.79L1104.38 1099.95L1102.36 1099.84C1097.69 1096.93 1091.29 1094.95 1085.95 1093.05C1076.92 1090.6 1008.73 1091.59 996.232 1092.11Z" fill="#3B4B7E"/>
<path d="M1085.95 1093.05C1091.67 1092.13 1107.67 1092.23 1113.78 1092.79L1104.38 1099.95L1102.36 1099.84C1097.69 1096.93 1091.3 1094.95 1085.95 1093.05Z" fill="#359890"/>
<path d="M1046.84 1037.3C1051.24 1033.29 1055.7 1030.98 1061.8 1034.38C1065.67 1038.72 1065.33 1042.55 1063.46 1047.51C1053.11 1053.81 1045.2 1047.23 1046.84 1037.3Z" fill="#5471BB"/>
<path d="M1183.28 874.464C1183.51 872.397 1183.47 871.334 1186.04 869.845C1203.23 859.884 1214.87 858.203 1230.68 845.837C1237.33 863.57 1242.75 868.635 1256.44 883.276C1263.73 875.643 1271.2 868.45 1278.75 881.38C1278.35 884.448 1277.54 890.824 1276.21 893.546C1275.89 901.325 1275.92 906.738 1269.69 912.644C1268.92 915.142 1270.67 927.146 1271.66 929.559C1272.92 934.648 1273.53 940.214 1277.75 943.684C1277.11 945.118 1276.54 945.82 1275.49 947.015C1262.52 961.833 1237.53 971.617 1219.2 958.171C1215.99 955.812 1209.88 948.772 1209.57 944.933C1211.56 943.792 1212.06 943.715 1214.31 942.99L1216.01 935.041C1185.23 933.514 1188.01 907.239 1183.93 887.247L1182.13 886.53C1185.07 884.479 1183.69 880.678 1184.22 877.378L1184.44 876.021L1183.28 874.464Z" fill="#FEB7A8"/>
<path d="M1216.01 935.041C1223.34 933.838 1231.01 932.712 1237.91 930.006C1241.35 928.657 1244.89 924.517 1248.44 923.892L1249.13 924.833C1245.72 936.359 1226.98 944.385 1214.31 942.99L1216.01 935.041Z" fill="#F49482"/>
<path d="M1266.99 897.678C1270.94 896.36 1272.5 895.473 1276.21 893.546C1275.89 901.325 1275.92 906.738 1269.69 912.643C1268.54 907.717 1267.81 902.667 1266.99 897.678Z" fill="#151E2C"/>
<path d="M1183.28 874.464C1187.36 871.634 1195.07 868.041 1199.7 872.004L1199.67 873.307L1198.43 874.202C1191.04 872.883 1191.56 872.583 1184.44 876.021L1183.28 874.464Z" fill="#07070B"/>
<path d="M1189.6 877.648C1198.44 878.612 1197.76 883.484 1194.8 889.313C1186.33 887.925 1187.07 883.639 1189.6 877.648Z" fill="#242944"/>
<path d="M1205.59 887.177L1206.52 888.411C1206.18 892.382 1203.41 895.581 1201.97 900.184C1202.6 902.991 1201.87 901.796 1204.48 903.762C1208.23 903.877 1208.78 902.505 1212.99 900.824L1215.04 902.019C1211.78 904.394 1207.79 906.614 1203.48 905.72C1197.38 900.616 1202.54 892.559 1205.59 887.177Z" fill="#07070B"/>
<path d="M1226.9 876.491C1229.39 875.844 1231.99 877.085 1232.77 879.282C1233.54 881.487 1232.22 883.839 1229.76 884.587C1228.13 885.08 1226.33 884.749 1225.05 883.716C1223.78 882.683 1223.22 881.117 1223.6 879.622C1223.99 878.118 1225.25 876.923 1226.9 876.491Z" fill="#242944"/>
<path d="M1224.28 868.219C1228.09 867.987 1235.87 868.142 1238.12 871.118C1235.56 871.835 1233.27 871.172 1230.56 870.74C1226.28 870.239 1222.01 872.629 1218.44 871.596C1220.02 869.684 1221.82 869.236 1224.28 868.219Z" fill="#07070B"/>
<path d="M1225.31 907.424C1226.33 907.971 1225.8 907.555 1226.54 908.95C1224.43 912.004 1220.52 912.667 1216.82 912.975L1215.67 911.41L1216.09 910.539C1220.77 910.037 1221.74 910.084 1225.31 907.424Z" fill="#07070B"/>
<path d="M1268.9 879.329C1271.3 879.922 1271.53 879.737 1273.14 881.333L1272.32 882.066C1268.75 882.698 1268.05 882.652 1265.56 885.011L1265.41 886.692L1264.72 885.589C1265.42 882.074 1265.88 881.95 1268.9 879.329Z" fill="#07070B"/>
<path d="M1167.81 867.725C1164.32 861.187 1161.7 855.96 1161.13 848.535C1159.66 835.428 1179.51 835.49 1186.44 830.556C1206.96 815.961 1225.29 806.269 1248.19 826.94C1256.7 826.747 1261.05 826.346 1269.12 829.229C1287.81 842.953 1290.82 862.791 1278.75 881.38C1271.2 868.45 1263.73 875.643 1256.44 883.276C1242.75 868.635 1237.33 863.57 1230.68 845.837C1214.87 858.203 1203.23 859.884 1186.04 869.845C1183.47 871.333 1183.51 872.397 1183.28 874.464L1184.44 876.021L1184.22 877.378C1183.69 880.678 1185.07 884.479 1182.13 886.53L1180.03 886.214C1177.43 883.993 1177.19 880.1 1174.79 876.083C1173.76 877.71 1173.12 879.344 1172.35 881.087L1171.37 881.279C1170.43 878.843 1170.77 871.542 1170.77 868.512C1168.89 873.986 1168.14 877.478 1164.55 882.266C1165.43 877.401 1166.66 872.552 1167.81 867.725Z" fill="#242944"/>
<path d="M494.346 791.111C507.522 790.479 525.752 790.926 539.391 790.926L626.288 790.996L881.438 791.081L1029.3 790.988C1052.39 790.988 1078.66 789.816 1101.32 792.607C1107.67 793.394 1113.01 823.509 1098.98 827.441C1088.29 828.605 1065.29 828.088 1053.69 828.081L967.131 827.811L718.795 827.865L560.391 828.034L520.232 828.219C491.849 828.397 480.971 832.105 486.356 798.143C486.931 794.512 491.009 792.607 494.346 791.111Z" fill="#EDEFF4"/>
<path d="M558.565 911.741C576.476 911.032 599.098 911.587 617.337 911.587L713.494 911.364L826.77 911.479C849.416 911.472 872.154 911.379 894.794 911.579C897.745 911.803 902.128 911.541 904.63 913.06C911.42 917.208 909.254 927.878 909.384 934.093C909.556 942.712 909.936 949.034 898.642 950.415C870.946 950.893 841.827 950.492 814.047 950.499L672.03 950.345C636.801 950.145 601.494 950.592 566.206 950.576C546.218 950.569 547.875 944.794 547.855 928.881C547.843 920.138 546.495 913.268 558.565 911.741Z" fill="#EDEFF4"/>
<path d="M554.105 967.006C578.756 965.942 612.874 966.814 638.028 966.806L800.042 966.791H872.698C881.343 966.791 891.783 966.629 900.506 967.068C902.895 967.346 905.631 969.111 906.89 971.054C911.515 978.178 910.117 988.91 908.831 996.759C908.133 1001.09 906.071 1002.74 902.283 1004.95C895.605 1005.81 878.09 1005.43 870.687 1005.41L809.452 1005.32L633.67 1005.14C609.708 1005.2 578.522 1005.56 553.951 1004.49C552.839 1004.44 551.015 1002.66 550.321 1001.63C545.829 994.978 547.896 980.985 548.191 973.244C548.29 970.646 551.989 968.302 554.105 967.006Z" fill="#EDEFF4"/>
<path d="M554.948 854.626C571.56 853.493 599.62 854.233 617.31 854.233H735.956L845.478 854.194C863.311 854.187 881.222 854.025 899.091 854.356C912.248 854.603 910.324 873.862 909.22 881.657C908.383 887.517 907.106 888.974 901.947 892.42C893.025 893.291 857.839 892.652 847.39 892.667L727.573 892.636L604.58 892.682C588.44 892.69 571.739 892.836 555.269 892.104C543.525 891.587 548.367 864.98 549.622 858.489C549.975 856.654 553.104 855.366 554.948 854.626Z" fill="#EDEFF4"/>
<path d="M508.802 1034.98C513.961 1034.72 519.011 1034.71 524.172 1034.72C574.942 1034.79 625.712 1034.51 676.477 1034.79C709.781 1034.98 713.857 1076.94 681.06 1083.97L566.462 1084.08C547.824 1084.08 526.834 1084.54 508.449 1083.72C479.491 1082.43 473.976 1039.74 508.802 1034.98Z" fill="#007EA7"/>
<path d="M612.801 1062.28C614.454 1058.98 616.427 1054.11 619.147 1051.71L620.663 1051.82C623.257 1055.09 624.92 1065.84 621.121 1068.29C619.081 1066.94 619.8 1067.84 619.268 1065.29C619.086 1063.25 619.2 1061.74 618.017 1060.01L616.962 1060.27C615.269 1063.36 614.17 1065.89 612.784 1069.08C610.418 1065.52 608.666 1061.68 606.782 1057.9C606.7 1061.25 607.017 1064.93 605.013 1067.74L604.026 1066.89C602.256 1060.7 602.735 1057.34 603.37 1051.05L606.697 1052.11C609.852 1054.98 611.036 1058.5 612.801 1062.28Z" fill="white"/>
<path d="M558.685 1051.05C567.49 1053.68 557.376 1064.04 567.048 1065.86C571.348 1063.31 569.128 1054.96 571.99 1051.69L573.741 1051.67L574.9 1053.76C574.91 1054.57 574.915 1055.37 574.914 1056.17C574.907 1063.24 571.394 1074.24 560.532 1066.08C556.89 1063.35 558.273 1055.29 558.685 1051.05Z" fill="white"/>
<path d="M544.84 1051.63C547.946 1051.52 552.614 1050.71 553.995 1053.7C550.58 1054.54 547.63 1054.29 546.162 1056.01C548.979 1060.14 556.112 1059.83 555.085 1065.12C552.583 1067.68 551.095 1067.95 547.49 1069.38C543.873 1068.26 543.2 1068.31 541.031 1065.71L541.521 1064.87C544.469 1064.87 547.154 1064.95 550.099 1065.07L551.092 1063.97C548.502 1060.13 543.589 1062.04 541.328 1056.4C541.87 1053.77 542.636 1053.45 544.84 1051.63Z" fill="white"/>
<path d="M582.465 1056.7C582.758 1060.61 582.977 1063.44 582.8 1067.41L581.382 1068.19C577.69 1066.65 576.791 1053.15 581.869 1051.65C586.409 1054.05 585.268 1059.7 590.166 1059.77L592.132 1057.66L594.628 1058.99C592.512 1061.94 591.775 1063.89 588.367 1064.71C585.773 1063.2 583.995 1059.32 582.465 1056.7Z" fill="white"/>
<path d="M634.287 1051.94C638.023 1051.72 646.831 1050.68 649.301 1052.79L648.79 1053.84L644.193 1054.73C642.958 1057.04 643.377 1062.12 643.392 1064.94C643.316 1067.28 643.053 1067.55 641.198 1068.75C636.811 1065.49 640.856 1061.06 639.011 1054.99L635.034 1053.84L634.287 1051.94Z" fill="white"/>
<path d="M592.132 1057.66C592.469 1056.07 592.678 1054.43 593.361 1052.97L595.564 1052.36L595.318 1052.08L593.777 1052.36L595.647 1051.94C598.752 1054.85 599.1 1063.65 598.212 1067.58L596.188 1068C593.415 1065.74 594.369 1062.21 594.628 1058.99L592.132 1057.66Z" fill="white"/>
<path d="M628.086 1051.02L629.918 1051.61C632.615 1054.68 630.891 1064.41 630.492 1068.86C628.169 1068.15 629.123 1068.73 627.559 1067C626.553 1061.56 627.295 1056.44 628.086 1051.02Z" fill="white"/>
<path d="M491.249 722.477C522.389 721.772 557.024 722.386 588.408 722.389L777.456 722.403L900.1 722.395L938.891 722.379C943.835 722.373 950.617 721.804 955.259 722.203C968.39 723.332 970.4 736.099 960.47 742.72C931.437 744.347 888.478 743.248 858.559 743.249L668.138 743.079L545.617 743.13C536.423 743.125 502.649 743.919 495.936 743.3C492.662 743.008 489.677 741.495 487.717 739.132C483.052 733.528 485.012 726.401 491.249 722.477Z" fill="#EDEFF4"/>
<path d="M491.474 663.067C496.623 662.782 502.398 662.917 507.589 662.961C545.244 663.284 583.061 662.36 620.68 663.204C630.424 663.422 632.284 674.576 622.598 680.368C621.587 680.467 620.574 680.548 619.56 680.611C615.209 680.892 610.045 680.756 605.605 680.709C568.57 680.309 531.256 681.518 494.28 680.342C484.086 680.018 483.373 669.474 491.474 663.067Z" fill="#485A91"/>
<path d="M500.446 910.886C507.113 910.677 527.089 909.12 532.813 912.374C537.391 916.398 537.806 926.714 537.553 931.741C537.012 942.473 538.108 950.268 523.931 950.222C514.923 950.083 497.593 951.263 490.65 949.258C483.73 947.269 483.69 918.465 488.015 913.746C490.136 911.433 497.596 911.148 500.446 910.886Z" fill="#EDEFF4"/>
<path d="M510.754 920.415C516.295 921.556 518.88 922.381 519.781 927.955C521.312 937.423 513.775 933.985 509.531 939.181C510.175 940.777 510.683 942.157 511.234 943.776C509.219 944.463 510.302 944.37 507.854 943.414C506.025 940.592 506.323 939.12 508.543 936.768C514.709 934.085 523.478 929.135 511.742 922.613C510.842 922.119 510.121 922.782 509.131 923.283C507.032 926.159 506.826 928.696 506.082 932.096L505.104 932.551C501.246 926.976 505.343 923.044 510.754 920.415Z" fill="#3B4B7E"/>
<path d="M495.691 966.212C503.604 965.788 525.045 965.148 531.861 967.353C537.038 971.54 537.521 979.08 537.135 984.994C536.612 993.035 539.629 1003.89 528.243 1005.36C521.6 1005.5 495.776 1006.67 491.16 1004.9C482.443 1001.56 483.991 976.628 487.676 970.237C489.327 967.377 492.39 966.891 495.691 966.212Z" fill="#EDEFF4"/>
<path d="M507.434 974.508C524.911 974.269 517.544 982.92 521.436 991.447C523.431 993.02 525.199 993.976 525.824 996.204L524.597 997.021L522.683 996.474C513.92 986.983 511.33 995.387 503.356 990.352C498.532 984.115 501.461 978.702 507.434 974.508Z" fill="#3B4B7E"/>
<path d="M508.431 977.469C512.169 976.174 516.384 977.769 517.938 981.069C519.493 984.377 517.822 988.186 514.17 989.666C511.715 990.661 508.85 990.383 506.688 988.949C504.527 987.507 503.409 985.133 503.772 982.75C504.134 980.36 505.918 978.34 508.431 977.469Z" fill="#EDEFF4"/>
<path d="M492.215 854.449C502.007 853.793 519.576 853.786 529.617 854.595C531.496 854.749 533.994 856.238 534.831 857.972C538.442 865.443 537.421 880.616 535.091 888.457C534.311 891.086 531.816 891.834 529.504 892.652C521.119 893.338 512.705 893.685 504.285 893.692C479.012 893.685 486.786 883.161 485.336 865.281C484.959 860.624 488.382 857.479 492.215 854.449Z" fill="#EDEFF4"/>
<path d="M509.936 862.182C513.182 862.097 516.42 861.604 518.861 863.315C518.988 866.191 518.811 866.661 520.789 868.99C523.725 870.239 525.065 870.601 527.388 872.69C529.324 880.917 523.728 879.067 519.359 880.215C517.702 883.191 518.125 881.634 518.313 885.134C516.779 887.07 516.513 886.561 513.211 887.37L510.274 886.684C507.982 884.649 508.551 884.063 507.889 880.562C502.444 878.643 495.617 884.533 496.77 872.744C496.997 870.431 496.95 870.902 498.776 869.676C502.957 870.347 505.288 871.542 508.065 868.435C508.408 865.536 508.302 864.765 509.936 862.182Z" fill="#3B4B7E"/>
<path d="M511.456 863.924C515.847 864.503 515.006 864.001 516.811 866.145C516.337 869.113 515.494 870.185 518.142 872.066C520.982 871.943 522.711 871.526 524.938 872.991C525.387 875.574 525.647 874.433 524.487 876.569C522.072 877.525 519.592 876.754 516.842 876.306C516.796 879.814 517.715 883.492 513.891 885.003L511.452 883.924C509.751 879.56 511.06 868.997 511.456 863.924Z" fill="#EDEFF4"/>
<path d="M499.396 872.004C502.472 871.943 504.373 871.889 507.415 872.174C509.792 874.125 509.033 873.477 509.402 877.293C506.028 877.525 504.166 877.849 500.895 877.239C498.888 875.212 499.563 875.497 499.396 872.004Z" fill="#EDEFF4"/>
<path d="M536.21 779.839C548.789 779.639 562.745 779.161 575.296 779.87C576.449 779.932 576.202 780.202 577.273 781.458C571.794 782.021 541.893 782.307 536.942 781.358L536.21 779.839Z" fill="#07070B"/>
<path d="M486.846 779.886C498.902 779.616 512.245 779.107 524.269 779.901C525.512 779.978 525.136 780.125 526.265 781.459C521.278 782.029 491.209 782.183 487.248 781.351L486.846 779.886Z" fill="#07070B"/>
<path d="M486.028 708.909C491.363 708.561 498.475 708.048 503.674 708.914L504.775 710.537C500.223 710.823 490.591 711.639 486.528 710.349L486.028 708.909Z" fill="#3B4B7E"/>
<path d="M1271.66 929.559C1312.64 915.797 1355 921.456 1392.55 940.315C1399.67 945.835 1415.66 957.793 1423.19 963.159C1432.73 972.735 1442.08 982.149 1450.49 992.55C1452.84 995.448 1456.53 1001.03 1459.62 1002.12C1460.31 1004.24 1460.12 1004.32 1461.37 1006.12C1465.18 1011.94 1471.31 1020.72 1474.56 1026.47L1476.2 1027.2C1476.66 1030.47 1489.07 1050.16 1491.53 1053.83C1493.72 1058.45 1500.21 1072.93 1502.55 1076.66C1505.88 1083.63 1508.86 1090.71 1511.5 1097.91C1512.72 1101.28 1519.45 1121.85 1520.55 1123.46L1521.62 1127.56C1521.6 1132.32 1524.24 1136.38 1524.97 1140.93L1525.68 1142.62C1526.37 1149.9 1528.7 1156.66 1529.43 1163.5C1529.77 1165.97 1530 1170.87 1531.79 1172.55L1531.56 1173.81C1531.46 1181.54 1531.71 1188.83 1531.98 1196.54C1531.58 1203.92 1531.35 1212.26 1530.13 1219.5C1527.25 1233.99 1525.18 1242.86 1518.6 1256.75C1515.96 1261.95 1514.03 1265.58 1510.85 1270.51C1503.3 1279.98 1498.5 1285.81 1488.47 1293.49C1488.77 1293.65 1489.05 1293.83 1489.36 1293.96C1495.5 1296.44 1508.02 1295.75 1515.06 1296.39C1528.81 1297.65 1594.24 1303.73 1601.37 1313.52C1602.38 1314.91 1602.39 1316.43 1601.46 1317.85C1594.26 1328.8 1527.85 1334.25 1512.04 1335.79C1460.55 1340.36 1408.89 1343.21 1357.16 1344.32C1311.63 1345.96 1266.06 1346.9 1220.49 1347.14C1099.18 1347.98 976.854 1346.07 856.022 1335.94C842.662 1334.83 768.664 1329.37 766.697 1315.35C774.471 1302.04 878.064 1293.38 896.39 1294.06C903.888 1290.39 921.351 1285.19 930.488 1284.51C931.463 1284.44 931.903 1285.67 932.636 1286.74L933.62 1285.18L933.896 1284.1C935.992 1282.1 936.035 1282.62 939.556 1281.76C942.23 1281.87 942.515 1281.4 945.155 1280.36L947.907 1279.75C950.806 1278.94 952.661 1278.68 955.681 1278.2L954.525 1273.32C946.027 1271.5 938.676 1262.75 935.63 1255.75C932.239 1248.28 931.066 1241.76 929.504 1233.84C929.219 1230.35 929.444 1227.36 929.616 1223.87C931.014 1211.91 932.981 1203.79 937.718 1192.71C946.665 1171.59 961.453 1154.47 976.854 1137L977.82 1136.36C983.066 1119.36 983.791 1106.46 996.232 1092.11C1008.73 1091.59 1076.92 1090.6 1085.95 1093.05C1091.3 1094.95 1097.69 1096.93 1102.36 1099.84L1104.38 1099.95L1113.78 1092.79C1117.39 1092.05 1135.18 1092.52 1139.85 1092.61C1143.76 1093.14 1145.38 1093.41 1148.53 1091.07C1149.52 1088.59 1149.8 1088.59 1149.02 1085.82C1145.53 1073.16 1141.13 1060.15 1137.12 1047.66C1130.81 1027.53 1124.69 1007.36 1118.75 987.145C1125.25 988.348 1126.24 991.478 1128.1 996.805C1129.54 996.058 1136.35 982.935 1138.2 979.743C1150.3 958.803 1177.29 951.417 1201.75 945.573C1215.32 987.893 1267.07 976.767 1286.67 945.203C1283.06 943.722 1281.55 942.89 1277.75 943.684C1273.53 940.214 1272.92 934.648 1271.66 929.559Z" fill="#007EA7"/>
<path d="M996.232 1092.11C1008.73 1091.59 1076.92 1090.6 1085.95 1093.05C1091.3 1094.95 1097.69 1096.93 1102.36 1099.84C1090.71 1111.03 1091.32 1148.87 1091.34 1164.72C1091.86 1166.59 1092.18 1168.07 1092.96 1169.88C1092.16 1187.98 1089.35 1207.26 1087.38 1225.36C1086.48 1233.53 1084.5 1243.06 1083.96 1251.1C1087.96 1254.53 1091.37 1256.95 1096.35 1259.24C1109.71 1262.75 1129.89 1261.83 1143.4 1258.61C1143.74 1260.42 1141.34 1275.54 1141.15 1280.49L1143.49 1292.87C1149.9 1296.48 1177.06 1296.68 1186.41 1297.05C1257.41 1299.83 1335.45 1297.67 1403.86 1281.31C1467.58 1266.08 1509.67 1229.65 1525.51 1173.07C1526.46 1169.69 1527.33 1166.43 1529.43 1163.5C1529.77 1165.97 1530 1170.87 1531.79 1172.55L1531.56 1173.81C1531.46 1181.54 1531.71 1188.83 1531.98 1196.54C1531.58 1203.92 1531.35 1212.26 1530.13 1219.5C1527.25 1233.99 1525.18 1242.86 1518.6 1256.75C1515.96 1261.95 1514.03 1265.58 1510.85 1270.51C1503.3 1279.98 1498.5 1285.81 1488.47 1293.49C1488.77 1293.65 1489.05 1293.83 1489.36 1293.96C1495.5 1296.44 1508.02 1295.75 1515.06 1296.39C1528.81 1297.65 1594.24 1303.73 1601.37 1313.52C1602.38 1314.91 1602.39 1316.43 1601.46 1317.85C1594.26 1328.8 1527.85 1334.25 1512.04 1335.79C1460.55 1340.36 1408.89 1343.21 1357.16 1344.32C1311.63 1345.96 1266.06 1346.9 1220.49 1347.14C1099.18 1347.98 976.854 1346.07 856.022 1335.94C842.662 1334.83 768.664 1329.37 766.697 1315.35C774.471 1302.04 878.064 1293.38 896.39 1294.06C903.888 1290.39 921.351 1285.19 930.488 1284.51C931.463 1284.44 931.903 1285.67 932.636 1286.74L933.62 1285.18L933.896 1284.1C935.992 1282.1 936.035 1282.62 939.556 1281.76C942.23 1281.87 942.515 1281.4 945.155 1280.36L947.907 1279.75C950.806 1278.94 952.661 1278.68 955.681 1278.2L954.525 1273.32C946.027 1271.5 938.676 1262.75 935.63 1255.75C932.239 1248.28 931.066 1241.76 929.504 1233.84C929.219 1230.35 929.444 1227.36 929.616 1223.87C931.014 1211.91 932.981 1203.79 937.718 1192.71C946.665 1171.59 961.453 1154.47 976.854 1137L977.82 1136.36C983.066 1119.36 983.791 1106.46 996.232 1092.11Z" fill="#C4D3EB"/>
<path d="M996.233 1092.11C1008.73 1091.59 1076.92 1090.6 1085.95 1093.05C1091.3 1094.95 1097.69 1096.93 1102.36 1099.84C1090.71 1111.03 1091.32 1148.87 1091.34 1164.72C1091.86 1166.59 1092.18 1168.07 1092.96 1169.88C1092.16 1187.98 1089.35 1207.26 1087.38 1225.36C1086.48 1233.53 1084.5 1243.06 1083.96 1251.1C1087.96 1254.53 1091.37 1256.95 1096.35 1259.24C1094.84 1263.39 1094.19 1267.27 1093.31 1271.55C1091.59 1274.59 1091.07 1275.14 1090.54 1278.42L1089.1 1280.84L1087.4 1283.05C1085.24 1284.39 1085.2 1284.16 1083.64 1285.93C1081.95 1287.21 1082.4 1286.4 1081.92 1288.2C1078.59 1288.75 1077.7 1289.03 1075.51 1291.48L1075.02 1291.94C1074.33 1290.71 1073.76 1289.49 1072.05 1289.09C1053.86 1284.9 1039.21 1280.56 1022.89 1271.89L1019.66 1269.21C1020.08 1268.73 1021.83 1251.49 1022.29 1248.54C1005.43 1252.08 993.532 1251.53 976.501 1250.2C973.42 1252.54 973.791 1257.59 973.602 1261.18C972.506 1264.96 971.16 1266.15 967.855 1268.92L966.63 1270.79C963.93 1272.85 961.186 1273.59 957.648 1274.2C956.682 1273.63 955.776 1273.59 954.525 1273.32C946.027 1271.5 938.676 1262.75 935.63 1255.75C932.239 1248.28 931.066 1241.76 929.504 1233.84C929.219 1230.35 929.444 1227.36 929.616 1223.87C931.014 1211.91 932.981 1203.79 937.718 1192.71C946.665 1171.59 961.453 1154.47 976.854 1137L977.821 1136.36C983.066 1119.36 983.791 1106.46 996.233 1092.11Z" fill="#242944"/>
<path d="M1053.39 1152.73C1053.2 1148.85 1052.62 1145.54 1054.12 1141.97L1055.06 1141.8C1056.62 1145.08 1056.08 1148.37 1055.97 1152.04C1061.3 1154.85 1085.22 1166.19 1090.23 1166.49L1091.34 1164.72C1091.86 1166.59 1092.18 1168.07 1092.96 1169.88C1092.16 1187.98 1089.35 1207.26 1087.38 1225.36C1086.48 1233.53 1084.5 1243.06 1083.96 1251.1C1087.96 1254.53 1091.37 1256.95 1096.35 1259.24C1094.84 1263.38 1094.19 1267.27 1093.31 1271.55C1091.59 1274.59 1091.07 1275.13 1090.54 1278.42L1089.1 1280.84L1087.4 1283.05C1085.24 1284.39 1085.2 1284.16 1083.64 1285.93C1081.95 1287.21 1082.4 1286.4 1081.92 1288.2C1078.59 1288.75 1077.7 1289.03 1075.51 1291.48L1075.02 1291.93C1074.33 1290.71 1073.76 1289.49 1072.05 1289.09C1053.86 1284.9 1039.21 1280.56 1022.89 1271.89L1019.66 1269.21C1020.08 1268.73 1021.83 1251.49 1022.29 1248.54C1025.09 1248.16 1026.65 1248.22 1028.79 1246.58C1032.19 1241.06 1034.8 1231.44 1036.97 1225.22C1045.73 1200.02 1052.09 1179.47 1053.39 1152.73Z" fill="#485A91"/>
<path d="M977.821 1136.36C977.777 1143.31 975.284 1150.85 973.852 1157.71C968.597 1182.79 959.21 1207.66 956.587 1233.04C955.474 1243.78 966.397 1248.4 976.501 1250.2C973.42 1252.54 973.791 1257.59 973.602 1261.18C972.506 1264.96 971.16 1266.15 967.855 1268.92L966.63 1270.79C963.93 1272.85 961.186 1273.59 957.648 1274.2C956.682 1273.63 955.776 1273.59 954.525 1273.32C946.027 1271.5 938.676 1262.75 935.63 1255.75C932.239 1248.28 931.066 1241.76 929.504 1233.84C929.219 1230.35 929.444 1227.36 929.616 1223.87C931.014 1211.91 932.981 1203.79 937.718 1192.71C946.665 1171.59 961.453 1154.47 976.854 1137L977.821 1136.36Z" fill="#485A91"/>
<path d="M1529.43 1163.5C1529.77 1165.97 1530 1170.87 1531.79 1172.55L1531.56 1173.81C1531.46 1181.54 1531.71 1188.83 1531.98 1196.54C1531.58 1203.92 1531.35 1212.26 1530.13 1219.5C1527.25 1233.99 1525.19 1242.86 1518.6 1256.75C1515.96 1261.95 1514.03 1265.58 1510.85 1270.51C1503.3 1279.98 1498.5 1285.81 1488.47 1293.49C1475.92 1301.87 1463.31 1309.07 1448 1312.58C1419.8 1319.06 1388.18 1320.28 1359.28 1321.22C1319.74 1322.41 1280.15 1322.61 1240.59 1321.8C1176.26 1320.38 1112.51 1318.5 1048.1 1319.44C1046.15 1319.47 1045.99 1318.77 1044.93 1317.59C1044.26 1312.99 1046.58 1310.65 1045.26 1308.67C1039.91 1307.93 1034.39 1307.81 1028.98 1307.57C1027.76 1301.52 1030.8 1296.04 1023.47 1293.42L1024.88 1293.15L1025.77 1291.82C1025.71 1284.83 1024.95 1278.63 1022.89 1271.89C1039.21 1280.56 1053.86 1284.9 1072.05 1289.09C1073.76 1289.49 1074.33 1290.71 1075.02 1291.93L1075.51 1291.48C1077.7 1289.03 1078.59 1288.75 1081.92 1288.2C1082.4 1286.4 1081.95 1287.21 1083.64 1285.93C1085.2 1284.16 1085.24 1284.39 1087.4 1283.05L1089.1 1280.84L1090.54 1278.42C1091.07 1275.13 1091.59 1274.59 1093.31 1271.55C1094.19 1267.27 1094.84 1263.38 1096.35 1259.24C1109.71 1262.75 1129.89 1261.83 1143.4 1258.61C1143.74 1260.42 1141.34 1275.54 1141.15 1280.49L1143.49 1292.87C1149.9 1296.48 1177.06 1296.68 1186.41 1297.05C1257.41 1299.83 1335.45 1297.67 1403.86 1281.31C1467.58 1266.08 1509.67 1229.65 1525.51 1173.07C1526.46 1169.69 1527.33 1166.43 1529.43 1163.5Z" fill="#80CED7"/>
<path d="M1143.4 1258.61C1143.74 1260.42 1141.34 1275.54 1141.15 1280.49L1143.49 1292.87C1143.79 1296.52 1143.94 1300.28 1144.15 1303.95C1133.88 1307.45 1129.88 1307.47 1118.89 1307.69C1117.2 1304.9 1117.08 1304.57 1114.63 1302.37C1113.12 1304.08 1116.21 1305.29 1115.25 1307.72C1108.67 1309.07 1087.4 1308.7 1080.04 1308.68C1068.95 1308.67 1057.84 1308.82 1046.76 1309.14C1055.3 1298.5 1061.99 1297.04 1075.02 1291.94L1075.51 1291.48C1077.7 1289.03 1078.59 1288.75 1081.92 1288.2C1082.4 1286.4 1081.95 1287.21 1083.64 1285.93C1085.2 1284.16 1085.24 1284.39 1087.4 1283.05L1089.1 1280.84L1090.54 1278.42C1091.07 1275.14 1091.59 1274.59 1093.31 1271.55C1094.19 1267.27 1094.84 1263.39 1096.35 1259.24C1109.71 1262.75 1129.89 1261.83 1143.4 1258.61Z" fill="#242944"/>
<path d="M1143.4 1258.61C1143.74 1260.42 1141.34 1275.54 1141.15 1280.49C1136.69 1283.03 1134.58 1284.1 1129.77 1286.17C1118.3 1275.91 1114.67 1263.75 1093.31 1271.55C1094.19 1267.27 1094.84 1263.39 1096.35 1259.24C1109.71 1262.75 1129.89 1261.83 1143.4 1258.61Z" fill="#FEB7A8"/>
<path d="M1081.92 1288.2C1091.64 1289.12 1099.63 1288.1 1107.2 1292.51L1107.64 1293.45C1104.63 1293.92 1097.22 1291.56 1093.41 1291.16C1087.29 1290.52 1081.57 1290.41 1075.51 1291.48C1077.7 1289.03 1078.59 1288.75 1081.92 1288.2Z" fill="#EDEFF4"/>
<path d="M1087.4 1283.05C1097.71 1282.72 1103.18 1281.94 1112.26 1286.95C1110.98 1287.67 1107.67 1287.02 1106.03 1286.71C1095.92 1284.8 1093.71 1284.59 1083.64 1285.93C1085.2 1284.16 1085.24 1284.39 1087.4 1283.05Z" fill="#EDEFF4"/>
<path d="M1090.54 1278.42C1097.8 1277.28 1108.78 1276.01 1113.93 1282C1109.88 1282.93 1103.53 1279.74 1098.88 1279.6C1095.71 1279.51 1092.18 1280.24 1089.1 1280.84L1090.54 1278.42Z" fill="#EDEFF4"/>
<path d="M1022.29 1248.54C1021.83 1251.49 1020.08 1268.73 1019.66 1269.21L1022.89 1271.89C1024.95 1278.63 1025.71 1284.83 1025.77 1291.82L1024.88 1293.15L1023.47 1293.42C1001.29 1291.7 974.309 1295.85 952.377 1298.33C949.926 1298.6 943.197 1298.71 941.281 1297.54L940.798 1296.42L939.668 1297.31C937.252 1293.44 935.112 1291.25 932.636 1286.74L933.62 1285.18L933.896 1284.1C935.992 1282.1 936.035 1282.62 939.556 1281.76C942.23 1281.87 942.515 1281.4 945.155 1280.36L947.907 1279.75C950.806 1278.94 952.661 1278.68 955.681 1278.2L954.525 1273.32C955.776 1273.59 956.682 1273.63 957.648 1274.2C961.186 1273.59 963.93 1272.85 966.63 1270.79L967.855 1268.92C971.16 1266.15 972.506 1264.96 973.601 1261.18C973.791 1257.59 973.42 1252.54 976.5 1250.2C993.532 1251.53 1005.43 1252.08 1022.29 1248.54Z" fill="#242944"/>
<path d="M1022.29 1248.54C1021.83 1251.49 1020.08 1268.73 1019.66 1269.21C998.519 1276.82 999.287 1281.39 989.9 1261.13C987.113 1255.11 978.709 1257.87 973.602 1261.18C973.791 1257.59 973.42 1252.54 976.501 1250.2C993.532 1251.53 1005.43 1252.08 1022.29 1248.54Z" fill="#FEB7A8"/>
<path d="M954.525 1273.32C955.776 1273.59 956.682 1273.63 957.648 1274.2C958.304 1280.02 962.376 1278.51 965.241 1283.68C961.091 1282.71 958.58 1281.01 955.681 1278.2L954.525 1273.32Z" fill="#EDEFF4"/>
<path d="M945.155 1280.36L947.908 1279.75C949.806 1283.79 951.186 1286.84 952.748 1291.01L952.101 1292.27L953.041 1292.04L952.541 1292.94L953.205 1292.78L952.912 1293.51C949.504 1289.53 947.476 1284.94 945.155 1280.36Z" fill="#EDEFF4"/>
<path d="M967.855 1268.92C974.861 1272.08 977.061 1273.2 983.248 1277.9C976.5 1275.69 972.885 1274.17 966.63 1270.79L967.855 1268.92Z" fill="#EDEFF4"/>
<path d="M933.62 1285.18C936.846 1289.6 938.296 1291.6 940.798 1296.42L939.668 1297.31C937.252 1293.44 935.112 1291.25 932.636 1286.74L933.62 1285.18Z" fill="#C4D3EB"/>
<path d="M896.39 1294.06C903.888 1290.39 921.351 1285.19 930.488 1284.51C931.463 1284.44 931.903 1285.67 932.636 1286.74C935.112 1291.25 937.252 1293.44 939.668 1297.31L940.798 1296.42L941.281 1297.54C943.197 1298.71 949.926 1298.6 952.377 1298.33C974.309 1295.85 1001.29 1291.7 1023.47 1293.42C1030.8 1296.04 1027.76 1301.52 1028.98 1307.57C1028.18 1309.52 1028.26 1309.27 1027.05 1311.07C1020.97 1313.23 909.116 1311.62 894.432 1311.36C893.025 1311.33 893.284 1310.99 892.085 1309.67C891.205 1306.24 892.335 1302.74 893.06 1299.19L896.39 1294.06Z" fill="#485A91"/>
<path d="M896.39 1294.06C903.888 1290.39 921.351 1285.19 930.488 1284.51C931.463 1284.44 931.903 1285.67 932.636 1286.74C935.112 1291.25 937.252 1293.44 939.668 1297.31C935.639 1299.7 902.412 1298.13 893.06 1299.19L896.39 1294.06Z" fill="#242944"/>
<path d="M1286.67 945.203C1300.32 947.076 1335.59 960.391 1343.48 971.578C1356.85 990.514 1357.21 1019.43 1361.63 1041.31C1362.12 1043.72 1358.38 1045.19 1356.4 1045.79C1358.16 1059.8 1359.18 1073.19 1359.79 1087.27C1360.58 1106.03 1360.8 1126.88 1335.33 1132.3C1304.85 1134.81 1246.84 1112.09 1226.87 1092.37C1220.6 1085.24 1212.06 1086.87 1202.38 1086.23C1190.63 1086.37 1178.87 1086.3 1167.13 1086.03L1166.28 1085.26L1167.18 1084.07C1163.2 1081.55 1163.67 1081.54 1162.65 1078.07L1161.26 1075.94C1159.07 1077.95 1157.22 1077.44 1154.49 1076.33L1151.75 1076.26C1148.22 1063.03 1143.17 1047.15 1139.07 1033.98C1135.69 1025.76 1129.97 1005.43 1128.1 996.805C1129.54 996.058 1136.35 982.935 1138.2 979.743C1150.3 958.803 1177.29 951.417 1201.75 945.573C1215.32 987.893 1267.07 976.767 1286.67 945.203Z" fill="#007EA7"/>
<path d="M1139.07 1033.98C1144 1035.59 1162.2 1043.03 1164.62 1043.57C1167.78 1057.28 1159.27 1052.91 1156.49 1060.44L1157.13 1062.09C1161.2 1056.72 1162.16 1056.09 1168.43 1052.97C1177.65 1050.74 1183.64 1049.56 1193.5 1050.86C1201.37 1051.89 1213.77 1060.54 1219.25 1061.99C1241.43 1067.86 1274.94 1074.54 1297.71 1076.19C1299.44 1073.03 1296.92 1058.98 1296.38 1054.48L1296.42 1053.27L1297.98 1052.45C1318.45 1054.06 1337.08 1051.67 1356.4 1045.79C1358.16 1059.8 1359.18 1073.19 1359.79 1087.27C1360.58 1106.03 1360.8 1126.88 1335.33 1132.3C1304.85 1134.81 1246.84 1112.09 1226.87 1092.37C1220.6 1085.24 1212.06 1086.87 1202.38 1086.23C1190.63 1086.37 1178.87 1086.3 1167.13 1086.03L1166.28 1085.26L1167.18 1084.07C1163.2 1081.55 1163.67 1081.54 1162.65 1078.07L1161.26 1075.94C1159.07 1077.95 1157.22 1077.44 1154.49 1076.33L1151.75 1076.26C1148.22 1063.03 1143.17 1047.15 1139.07 1033.98Z" fill="#FEB7A8"/>
<path d="M1176.09 1081.55C1185.89 1085.1 1195.96 1075.93 1202.38 1086.23C1190.63 1086.37 1178.87 1086.3 1167.13 1086.03L1166.28 1085.26L1167.18 1084.07L1170.94 1083.09C1173.86 1084.03 1174.21 1083.28 1176.09 1081.55Z" fill="#4BB2AB"/>
<path d="M1161.26 1075.94C1165.69 1069.97 1180.93 1061.03 1188.98 1063.02C1190.78 1064.5 1190.55 1063.72 1190.67 1065.27C1188.38 1066.03 1187.57 1066.07 1185.14 1066.16C1175.02 1066.52 1169.03 1071.71 1162.65 1078.07L1161.26 1075.94Z" fill="#07070B"/>
<path d="M1170.94 1083.09C1175.94 1076.18 1182.43 1070.88 1192.08 1072.77L1192.35 1073.67C1188.31 1076.87 1185.01 1072.57 1176.82 1080.81L1176.09 1081.55C1174.21 1083.28 1173.86 1084.03 1170.94 1083.09Z" fill="#151E2C"/>
<path d="M1157.43 1063.9C1163.65 1060.34 1184.86 1050.67 1191.18 1056.13C1188.5 1057.74 1175.76 1057.91 1171.71 1059.34C1165.12 1061.67 1160.11 1065.82 1155.12 1070.11C1155.88 1067.64 1156.25 1066.3 1157.43 1063.9Z" fill="#07070B"/>
<path d="M1300.07 1076.55C1305.48 1075.92 1324.4 1077.75 1328.23 1081.2C1323.33 1081.84 1304.09 1079.36 1300.07 1076.55Z" fill="#07070B"/>
<path d="M1164.62 1043.57C1164.17 1038.34 1160.37 1008.62 1162.56 1005.59C1165.54 1015.74 1166.97 1041.22 1168.43 1052.97C1162.16 1056.1 1161.2 1056.72 1157.13 1062.09L1156.49 1060.44C1159.27 1052.91 1167.78 1057.28 1164.62 1043.57Z" fill="#07070B"/>
<path d="M1297.71 1076.19C1294.89 1070.11 1288.66 1024.82 1290.32 1018.44L1291.31 1018.42C1294.39 1029.71 1292.9 1042.97 1296.38 1054.48C1296.92 1058.98 1299.44 1073.03 1297.71 1076.19Z" fill="#07070B"/>
<path d="M1118.75 987.145C1125.25 988.348 1126.24 991.478 1128.1 996.806C1129.97 1005.43 1135.69 1025.76 1139.07 1033.98C1143.17 1047.15 1148.22 1063.03 1151.75 1076.26L1154.49 1076.33C1157.22 1077.44 1159.07 1077.95 1161.26 1075.94L1162.65 1078.07C1163.67 1081.54 1163.2 1081.55 1167.18 1084.07L1166.28 1085.26L1167.13 1086.03C1178.87 1086.3 1190.63 1086.37 1202.38 1086.23C1212.06 1086.87 1220.6 1085.24 1226.87 1092.37C1246.84 1112.09 1304.85 1134.81 1335.33 1132.3C1334.22 1145.95 1334.25 1162.95 1323.02 1172.98C1315.35 1183.42 1295.83 1197.64 1281.78 1199.59C1256.67 1203.07 1225.37 1199.46 1200.74 1193.76C1191.21 1191.56 1182.42 1188.2 1173.53 1185.95C1175.68 1174.71 1184.71 1149.42 1182.6 1140.05L1182.59 1141.45L1181.39 1142.2L1161.83 1222.64C1159.27 1232.82 1156.82 1243.03 1153.85 1253.12C1152.78 1256.76 1146.81 1257.75 1143.4 1258.61C1129.89 1261.83 1109.71 1262.75 1096.35 1259.24C1091.37 1256.95 1087.96 1254.53 1083.96 1251.1C1084.5 1243.06 1086.48 1233.53 1087.38 1225.36C1089.35 1207.26 1092.16 1187.98 1092.96 1169.88C1092.18 1168.07 1091.86 1166.59 1091.34 1164.72C1091.32 1148.87 1090.71 1111.03 1102.36 1099.84L1104.38 1099.95L1113.78 1092.79C1117.39 1092.05 1135.18 1092.52 1139.85 1092.61C1143.76 1093.14 1145.38 1093.41 1148.53 1091.07C1149.52 1088.59 1149.8 1088.59 1149.02 1085.82C1145.53 1073.16 1141.13 1060.15 1137.12 1047.66C1130.81 1027.53 1124.69 1007.36 1118.75 987.145Z" fill="#242944"/>
<path d="M1226.87 1092.37C1246.84 1112.09 1304.85 1134.81 1335.33 1132.3C1334.22 1145.95 1334.25 1162.95 1323.02 1172.98C1322.36 1169.55 1321.89 1165.68 1320.17 1162.55C1309.5 1143.06 1218.76 1103.84 1194.3 1095.82C1203.92 1095.72 1218.27 1096.29 1226.87 1092.37Z" fill="#4BB2AB"/>
<path d="M1102.36 1099.84L1104.38 1099.95C1091.68 1121.64 1096 1146.85 1092.96 1169.88C1092.18 1168.07 1091.86 1166.59 1091.34 1164.72C1091.32 1148.87 1090.71 1111.03 1102.36 1099.84Z" fill="#485A91"/>
<path d="M1161.26 1075.94L1162.65 1078.07C1163.67 1081.54 1163.2 1081.55 1167.18 1084.07L1166.28 1085.26L1167.13 1086.03C1156 1086.22 1152.68 1087.43 1151.75 1076.26L1154.49 1076.33C1157.22 1077.44 1159.07 1077.95 1161.26 1075.94Z" fill="#359890"/>
<path d="M1435 1135.19C1436.48 1135.25 1435.7 1135.08 1437.27 1135.92C1435.01 1137.37 1408.34 1140.18 1403.36 1140.91C1381.44 1144.14 1363.5 1151.05 1343.6 1159.2L1342.72 1159.41L1341.74 1158.85C1344.66 1156.41 1349.58 1154.66 1353.27 1153.11C1377.91 1142.79 1408.09 1136.71 1435 1135.19Z" fill="#07070B"/>
<path d="M319.186 1101.8L319.068 740.345L319.053 623.651C319.025 602.851 318.878 581.776 319.153 560.991C319.208 556.809 320.158 548.33 323.378 545.632C327.478 542.195 332.057 539.013 337.864 538.954C356.539 538.766 375.465 538.869 394.1 538.867L508.216 538.868L857.822 538.838L1204.12 538.824L1316.7 538.787C1335.52 538.785 1354.36 538.7 1373.17 538.921C1382.67 539.381 1390.93 546.235 1392.12 554.606C1393.38 563.573 1392.66 572.314 1392.71 581.275C1392.75 588.063 1392.63 594.776 1392.63 601.519L1392.67 705.544C1351.63 703.384 1310.31 705.336 1269.24 707.048L1269.31 649.134C1269.32 641.472 1272.75 613.38 1260.23 613.065C1200.97 611.578 1141.25 612.267 1081.88 612.281H756.429L556.343 612.31L494.052 612.374C482.306 612.383 469.958 612.102 458.365 612.676C452.042 612.989 448.593 612.575 445.259 616.978C443.414 619.415 442.839 620.502 442.721 623.602C442.264 635.648 442.45 648.008 442.463 660.051L442.533 729.522L442.369 941.556L442.522 1014.59C442.534 1024.41 443.037 1037.89 442.604 1047.37C442.142 1044.39 442.658 1043.45 440.761 1041.89C409.43 1057.65 378.276 1075.22 346.036 1089.96C341.001 1092.27 324.138 1100.63 319.186 1101.8Z" fill="#CCDBDC"/>
<path d="M387.653 567.975C392.627 567.949 396.75 571.413 397.027 575.852C397.304 580.289 393.638 584.141 388.692 584.61C385.265 584.935 381.917 583.546 379.983 580.998C378.048 578.449 377.843 575.155 379.448 572.431C381.053 569.706 384.208 567.993 387.653 567.975Z" fill="#4BB2AB"/>
<path d="M415.022 568.654C419.741 566.809 425.239 568.75 427.271 572.979C429.304 577.208 427.095 582.108 422.347 583.895C417.647 585.665 412.229 583.713 410.216 579.525C408.203 575.337 410.349 570.482 415.022 568.654Z" fill="#4BB2AB"/>
<path d="M352.692 568.611C355.794 567.47 359.344 567.917 361.972 569.781C364.6 571.643 365.895 574.63 365.357 577.589C364.82 580.548 362.534 583.016 359.382 584.04C354.646 585.579 349.403 583.452 347.582 579.253C345.762 575.054 348.032 570.326 352.692 568.611Z" fill="#5471BB"/>
<path d="M1314.84 571.455C1317.49 569.718 1336.07 570.095 1339.22 571.569C1337.37 572.303 1338.29 572.12 1336.49 572.217L1335.67 575.337L1336.01 575.92L1335.26 576.623C1331.57 576.813 1317.65 577.33 1315.6 575.765L1314.84 571.455Z" fill="#C4D3EB"/>
<path d="M1314.84 571.455C1317.49 569.718 1336.07 570.095 1339.22 571.569C1337.37 572.303 1338.29 572.12 1336.49 572.217C1330.72 571.805 1319.49 572.708 1314.84 571.455Z" fill="#242944"/>
<path d="M1335.67 575.337L1336.01 575.92L1335.26 576.623C1331.57 576.813 1317.65 577.33 1315.6 575.765C1320.64 574.669 1330.25 575.08 1335.67 575.337Z" fill="#242944"/>
<path d="M1294.97 569.543L1296.59 569.618C1299.81 569.791 1301.04 569.969 1303.02 571.933C1302.62 574.127 1301.32 575.529 1299.98 577.427C1299.87 582.487 1300.86 576.768 1303.25 581.727C1300.38 581.783 1296.54 582.371 1294.74 581.102C1295.82 578.737 1295.82 578.868 1295.97 576.334C1293.82 572.73 1293.16 572.969 1294.97 569.543Z" fill="#485A91"/>
<path d="M1313.43 580.171C1319.24 579.623 1337.75 578.811 1342.51 580.969C1337.12 581.884 1318.18 582.388 1313.43 580.171Z" fill="#151E2C"/>
<path d="M1275.31 569.93L1276.64 570.357C1277.81 571.596 1279.15 581.843 1278.75 583.652C1276.79 583.077 1276.88 583.12 1275.24 581.993C1274.36 579.124 1276.59 575.185 1275.31 569.93Z" fill="#3B4B7E"/>
<path d="M260.011 1219.01C268.053 1219.08 279.834 1218.9 287.584 1219.35C300.653 1220.36 326.885 1219.61 340.849 1219.61L444.106 1219.62L611.51 1219.49C656.668 1219.58 703.053 1220.11 748.172 1219.54C764.128 1219.72 926.735 1219.15 929.107 1220.24C929.289 1221.45 929.452 1222.66 929.616 1223.87C929.444 1227.36 929.22 1230.35 929.504 1233.84C931.066 1241.76 932.239 1248.28 935.63 1255.75C938.676 1262.75 946.027 1271.5 954.525 1273.32L955.681 1278.2C952.662 1278.68 950.807 1278.94 947.908 1279.75L945.155 1280.36C942.515 1281.4 942.23 1281.87 939.556 1281.76C935.095 1278.97 815.303 1280.57 801.41 1280.56C621.419 1281.38 441.434 1278.03 261.639 1270.49C243.086 1269.61 114.235 1264.23 109.224 1253.16C113.31 1244.52 170.807 1240.19 182.271 1239C187.331 1238.53 207.547 1237.12 211.192 1235.8C209.657 1233.04 208.075 1230.28 207.328 1227.25C206.791 1225.07 206.872 1222.48 208.584 1220.68C211.637 1217.48 252.912 1219.03 260.011 1219.01Z" fill="#007EA7"/>
<path d="M211.192 1235.8C219.206 1245.12 229.805 1254.27 243.389 1255.17C265.45 1256.64 289.769 1255.84 312.071 1255.84L454.032 1255.87L935.63 1255.75C938.676 1262.75 946.027 1271.5 954.525 1273.32L955.681 1278.2C952.662 1278.68 950.807 1278.94 947.908 1279.75L945.155 1280.36C942.515 1281.4 942.23 1281.87 939.556 1281.76C935.095 1278.97 815.303 1280.57 801.41 1280.56C621.419 1281.38 441.434 1278.03 261.639 1270.49C243.086 1269.61 114.235 1264.23 109.224 1253.16C113.31 1244.52 170.807 1240.19 182.271 1239C187.331 1238.53 207.547 1237.12 211.192 1235.8Z" fill="#C4D3EB"/>
<path d="M748.172 1219.54C764.128 1219.72 926.735 1219.15 929.107 1220.24C929.288 1221.45 929.452 1222.66 929.616 1223.87C929.444 1227.36 929.219 1230.35 929.504 1233.84C926.519 1235.12 921.549 1234.91 918.089 1234.94L831.647 1235C801.233 1235.05 771.384 1239.87 748.172 1219.54Z" fill="#A6A7D5"/>
<path d="M319.186 1101.8C324.138 1100.63 341.001 1092.27 346.036 1089.96C378.276 1075.22 409.43 1057.65 440.761 1041.89C442.658 1043.45 442.143 1044.39 442.604 1047.37C442.389 1065.29 442.303 1083.2 442.348 1101.12C442.338 1110.1 441.974 1119.65 442.878 1128.58C443.235 1132.12 447.304 1135.06 450.306 1137.13C487.061 1137.74 525.136 1137.31 561.975 1137.3L756.608 1137.28L897.244 1137.31C922.559 1137.32 951.764 1137.91 976.854 1137C961.453 1154.47 946.665 1171.59 937.718 1192.71C896.08 1191.94 852.649 1192.52 810.829 1192.36L486.134 1192.29L374.008 1192.37C360.613 1192.34 343.496 1192.81 330.208 1191.57C325.514 1191.14 321.71 1186.16 319.288 1182.83C319.051 1155.82 319.017 1128.81 319.186 1101.8Z" fill="#CCDBDC"/>
<path d="M1269.24 707.048C1310.31 705.336 1351.63 703.384 1392.67 705.544L1392.55 940.315C1355 921.456 1312.64 915.797 1271.66 929.559C1270.67 927.146 1268.92 915.142 1269.69 912.644C1275.92 906.738 1275.89 901.325 1276.21 893.546C1277.54 890.824 1278.35 884.448 1278.75 881.38C1290.82 862.791 1287.81 842.953 1269.12 829.229C1269.72 816.392 1269.25 800.217 1269.25 787.087L1269.24 707.048Z" fill="#CCDBDC"/>
<path d="M852.129 515.975C856.611 514.469 861.608 516.517 863.259 520.536C864.898 524.555 862.564 529.002 858.053 530.437C853.597 531.854 848.697 529.798 847.07 525.829C845.445 521.861 847.703 517.463 852.129 515.975Z" fill="#485A91"/>
<path d="M1518.6 1256.75C1525.18 1242.86 1527.25 1233.99 1530.13 1219.5C1538.56 1219.3 1571.13 1218.12 1577.12 1219.62C1578.75 1226.65 1578.04 1229.3 1573.54 1235.36C1572.85 1236.29 1572.15 1237.22 1571.42 1238.13C1584.49 1239.66 1652.15 1243.49 1656.81 1252.51C1651.58 1263.69 1528.8 1270.02 1510.85 1270.51C1514.03 1265.58 1515.96 1261.95 1518.6 1256.75Z" fill="#C4D3EB"/>
<path d="M1518.6 1256.75C1525.19 1242.86 1527.25 1233.99 1530.13 1219.5C1538.56 1219.3 1571.13 1218.12 1577.12 1219.62C1578.75 1226.65 1578.04 1229.3 1573.54 1235.36C1572.85 1236.29 1572.15 1237.22 1571.42 1238.13C1553.7 1254.79 1543.63 1255.7 1518.6 1256.75Z" fill="#9AD1D4"/>
<ellipse cx="164" cy="210.247" rx="90" ry="96.5421" fill="#9AD1D4"/>
<path d="M167.737 159.286V240.014H157.962V169.535H157.489L137.78 182.621V172.688L157.962 159.286H167.737Z" fill="black"/>
</g>
<defs>
<clipPath id="clip0_16_156">
<path d="M0 182C0 81.4841 81.4842 0 182 0H1585C1685.52 0 1767 81.4842 1767 182V1579H0V182Z" fill="white"/>
</clipPath>
</defs>
</svg>
