<svg width="1692" height="1542" viewBox="0 0 1692 1542" fill="none" xmlns="http://www.w3.org/2000/svg">
<g clip-path="url(#clip0_26_1703)">
<path d="M476.6 725.546L580.658 623.29C584.216 619.787 586.433 614.785 586.824 609.382C587.216 603.978 585.749 598.615 582.746 594.468L563.605 568.078C560.594 563.939 556.295 561.358 551.651 560.903C547.007 560.448 542.398 562.154 538.834 565.649L434.776 667.904C431.219 671.407 429.001 676.409 428.61 681.813C428.219 687.216 429.686 692.58 432.689 696.726L451.842 723.117C454.853 727.252 459.149 729.829 463.79 730.284C468.431 730.74 473.037 729.036 476.6 725.546Z" fill="#3F3D56"/>
<path d="M575.204 596.597C576.822 598.832 577.612 601.722 577.401 604.633C577.19 607.544 575.995 610.24 574.079 612.128L470.021 714.383C468.1 716.266 465.616 717.185 463.114 716.939C460.612 716.694 458.295 715.304 456.673 713.074L437.519 686.683C435.902 684.449 435.111 681.559 435.322 678.647C435.533 675.736 436.728 673.04 438.645 671.152L542.703 568.897C544.623 567.015 547.107 566.095 549.609 566.341C552.111 566.586 554.428 567.976 556.05 570.206L575.204 596.597Z" fill="#007EA7"/>
<path d="M466.732 678.723C466.252 678.261 465.871 677.675 465.619 677.012C465.368 676.349 465.253 675.626 465.284 674.902L466.061 655.898C466.074 655.277 466.193 654.666 466.412 654.1C466.63 653.533 466.944 653.024 467.335 652.601C467.725 652.178 468.184 651.85 468.685 651.636C469.186 651.422 469.718 651.327 470.251 651.357C470.784 651.386 471.307 651.539 471.788 651.806C472.269 652.073 472.7 652.45 473.055 652.914C473.409 653.378 473.68 653.919 473.852 654.507C474.025 655.095 474.094 655.716 474.057 656.335L473.557 668.778L502.023 658.808C503.035 658.472 504.119 658.613 505.042 659.2C505.965 659.787 506.653 660.773 506.956 661.945C507.259 663.117 507.153 664.381 506.662 665.463C506.171 666.545 505.333 667.359 504.33 667.728L470.436 679.593C469.823 679.807 469.175 679.847 468.546 679.71C467.917 679.573 467.325 679.262 466.82 678.804L466.732 678.723Z" fill="white"/>
<path d="M528.184 591.936C527.974 591.753 527.813 591.507 527.717 591.224C527.62 590.94 527.591 590.627 527.634 590.319C527.676 590.01 527.788 589.715 527.957 589.464C528.127 589.213 528.349 589.015 528.601 588.889C532.504 587.097 536.7 586.523 540.75 587.226C544.801 587.929 548.557 589.885 551.628 592.888C555.741 596.329 558.725 601.254 560.143 606.944C560.905 610.227 561.137 613.673 560.828 617.114C560.812 617.345 560.757 617.573 560.666 617.784C560.574 617.995 560.448 618.186 560.295 618.344C560.142 618.502 559.965 618.626 559.774 618.707C559.582 618.789 559.381 618.826 559.181 618.818L559.172 618.825C558.763 618.806 558.386 618.6 558.123 618.253C557.859 617.905 557.732 617.445 557.767 616.972C558.182 612.83 557.657 608.69 556.243 604.961C554.829 601.232 552.575 598.045 549.705 595.713C540.93 587.987 532.788 590.642 529.702 592.133C529.45 592.263 529.176 592.312 528.908 592.278C528.641 592.243 528.391 592.125 528.184 591.936Z" fill="white"/>
<path d="M529.786 637.031C529.686 636.945 529.596 636.844 529.519 636.731C523.786 628.22 527.037 617.11 527.166 616.658L527.204 616.562C527.316 616.258 529.946 608.999 534.546 607.434C535.651 607.098 536.797 607.071 537.885 607.355C538.974 607.64 539.973 608.227 540.799 609.067C541.647 609.695 542.338 610.562 542.812 611.592C543.286 612.621 543.529 613.781 543.518 614.972C543.36 616.836 542.874 618.663 542.09 620.34C540.685 623.89 540.07 625.864 542.586 628.335C543.034 628.756 543.573 629.034 544.153 629.141C544.734 629.248 545.336 629.182 545.903 628.948C547.27 628.319 548.504 627.329 549.501 626.061C550.498 624.792 551.229 623.282 551.633 621.657C552.658 617.866 552.708 613.867 551.778 610.158C550.848 606.449 548.979 603.193 546.402 600.794C543.523 598.199 539.889 596.909 536.141 597.15C533.031 597.38 529.995 598.606 527.374 600.688C522.734 604.473 519.178 613.707 519.155 613.785C519.074 613.997 518.958 614.191 518.814 614.355C518.669 614.52 518.5 614.651 518.315 614.743C518.13 614.834 517.933 614.883 517.736 614.887C517.538 614.892 517.344 614.851 517.164 614.767L517.155 614.754C516.787 614.583 516.499 614.248 516.353 613.822C516.208 613.396 516.217 612.912 516.379 612.475C516.537 612.062 520.318 602.218 525.679 597.843C528.328 595.719 531.356 594.352 534.496 593.859C537.637 593.367 540.795 593.765 543.694 595.02C546.593 596.274 549.144 598.345 551.125 601.053C553.105 603.761 554.454 607.022 555.053 610.551C555.752 614.497 555.574 618.632 554.535 622.581C553.979 624.768 552.974 626.792 551.609 628.478C550.244 630.165 548.559 631.462 546.701 632.257C545.643 632.673 544.524 632.778 543.45 632.56C542.376 632.343 541.381 631.811 540.56 631.015C536.254 626.791 538.03 622.278 539.326 618.984C540.654 615.606 541.203 613.902 538.885 611.86C538.42 611.353 537.85 610.99 537.223 610.8C536.596 610.611 535.931 610.601 535.284 610.772C533.719 611.536 532.397 612.877 531.534 614.576L531.508 614.621C530.442 616.452 529.739 618.516 529.45 620.66C529.042 623.095 529.053 625.574 529.483 627.955C529.913 630.335 530.753 632.569 531.955 634.527C532.075 634.702 532.162 634.904 532.213 635.121C532.263 635.339 532.275 635.568 532.248 635.795C532.222 636.022 532.156 636.244 532.057 636.447C531.957 636.649 531.824 636.829 531.667 636.976L531.654 636.987C531.38 637.229 531.048 637.365 530.711 637.373C530.373 637.381 530.048 637.261 529.786 637.031Z" fill="white"/>
<path d="M521.099 628.105C520.937 627.963 520.804 627.784 520.707 627.577C520.61 627.371 520.552 627.142 520.535 626.904C520.106 620.914 521.38 614.825 524.166 609.547L524.192 609.525C525.33 607.289 526.84 605.321 528.631 603.742C530.422 602.163 532.455 601.007 534.607 600.345C536.411 599.96 538.247 600.029 539.985 600.548C541.724 601.067 543.325 602.022 544.675 603.348C546.493 604.858 547.875 606.954 548.661 609.392C549.446 611.831 549.604 614.512 549.115 617.125C548.693 619.722 547.867 622.233 546.678 624.534C546.455 624.937 546.107 625.229 545.711 625.347C545.314 625.465 544.901 625.399 544.563 625.162C544.224 624.926 543.988 624.54 543.906 624.088C543.824 623.636 543.902 623.156 544.125 622.753C545.114 620.823 545.799 618.718 546.145 616.542C546.519 614.565 546.399 612.536 545.801 610.692C545.203 608.849 544.15 607.268 542.767 606.137C541.745 605.113 540.53 604.369 539.207 603.958C537.884 603.546 536.484 603.476 535.104 603.752C533.379 604.315 531.752 605.266 530.318 606.547C528.885 607.828 527.673 609.415 526.755 611.212C524.294 615.859 523.17 621.226 523.552 626.504C523.567 626.729 523.543 626.957 523.481 627.175C523.42 627.394 523.322 627.598 523.194 627.777C523.066 627.956 522.909 628.106 522.734 628.218C522.558 628.33 522.367 628.402 522.171 628.43L522.148 628.435C521.768 628.481 521.394 628.363 521.099 628.105Z" fill="white"/>
<path d="M533.866 618.289C534.463 619.286 535.673 619.495 536.57 618.754C537.466 618.014 537.709 616.605 537.112 615.608C536.515 614.61 535.305 614.402 534.408 615.142C533.511 615.883 533.269 617.292 533.866 618.289Z" fill="white"/>
<path d="M460.66 1431.63H419.548V1494.68H460.66V1431.63Z" fill="#ED9DA0"/>
<path d="M426.566 1538.19H513.953C521.467 1538.18 528.883 1536.21 535.66 1532.44L551.767 1523.43C553.541 1522.44 555.012 1520.84 555.983 1518.85C556.955 1516.85 557.382 1514.56 557.207 1512.28C557.032 1510 556.263 1507.84 555.003 1506.08C553.744 1504.32 552.052 1503.05 550.156 1502.43L516.914 1491.73L460.061 1456.97L460.019 1457.21C458.961 1463.48 457.309 1472.94 457.098 1473.52C451.267 1481.3 445.277 1484.87 439.294 1484.17C428.858 1482.94 421.921 1468.91 421.853 1468.78L421.801 1468.67L421.695 1468.68C420.635 1468.73 419.599 1469.07 418.667 1469.66C417.735 1470.25 416.933 1471.08 416.323 1472.09C413.941 1476.27 415.394 1482.7 415.633 1483.67C412.782 1486.91 411.503 1505.04 411.403 1506.51C407.281 1511.59 405.323 1516.48 405.581 1521.03C405.802 1523.22 406.419 1525.33 407.391 1527.22C408.364 1529.12 409.67 1530.75 411.223 1532.02C415.582 1536.06 420.995 1538.24 426.566 1538.2V1538.19Z" fill="#090814"/>
<path d="M133.261 1463.42L172.736 1476.78L187.872 1416.24L148.397 1402.88L133.261 1463.42Z" fill="#ED9DA0"/>
<path d="M129.563 1507.47L213.473 1535.88C220.691 1538.31 228.284 1538.83 235.698 1537.41L253.33 1533.99C255.269 1533.61 257.061 1532.55 258.47 1530.96C259.878 1529.36 260.835 1527.3 261.213 1525.06C261.591 1522.81 261.373 1520.49 260.587 1518.39C259.801 1516.29 258.485 1514.53 256.814 1513.32L227.472 1492.24L181.22 1440.38L181.12 1440.6C178.603 1446.26 174.733 1454.82 174.401 1455.31C166.937 1460.88 160.325 1462.37 154.75 1459.74C145.021 1455.16 141.732 1439.45 141.699 1439.29L141.673 1439.17L141.57 1439.15C140.539 1438.85 139.465 1438.83 138.428 1439.1C137.392 1439.36 136.422 1439.9 135.593 1440.67C132.302 1443.91 132.156 1450.56 132.152 1451.57C128.634 1453.75 123.057 1470.74 122.609 1472.12C117.429 1475.66 114.377 1479.71 113.533 1484.17C113.22 1486.35 113.307 1488.58 113.787 1490.71C114.267 1492.85 115.13 1494.84 116.319 1496.56C119.534 1501.85 124.208 1505.7 129.565 1507.48L129.563 1507.47Z" fill="#090814"/>
<path d="M265.477 298.579C265.48 284.206 268.906 270.115 275.376 257.871C281.845 245.626 291.104 235.708 302.125 229.216C313.146 222.724 325.498 219.914 337.809 221.096C350.12 222.279 361.908 227.408 371.866 235.914C381.823 244.421 389.559 255.972 394.215 269.285C398.871 282.598 400.265 297.152 398.243 311.331C396.22 325.51 390.86 338.759 382.757 349.608C374.654 360.457 364.125 368.48 352.34 372.788L339.419 472.142L273.554 408.286C282.536 394.536 289.891 379.445 295.423 363.419C286.218 356.334 278.666 346.704 273.442 335.392C268.219 324.079 265.487 311.436 265.492 298.594L265.477 298.579Z" fill="#ED9DA0"/>
<path d="M239.101 682.406L229.452 525.246C228.615 511.616 230.095 497.928 233.809 484.966L262.408 385.168L346.623 416.641L382.155 511.231L401.507 552.515C405.796 561.665 407.424 572.186 406.148 582.502C404.871 592.819 400.758 602.377 394.424 609.748L382.157 624.021L399.259 697.007L397.459 696.933L399.872 697.297C399.872 697.297 514.214 1097.53 510.11 1437.92H363.348L354.637 1042.8L329.145 1453.26L135.749 1440.3L239.094 682.406H239.101Z" fill="#E6E6E6"/>
<path d="M244.018 400.763C244.018 400.763 247.14 428.325 276.056 429.216L334.711 431.042C334.711 431.042 285.127 290.638 305.524 306.454C325.921 322.27 380.281 255.959 380.281 255.959L396.323 290.965C396.323 290.965 434.641 274.817 392.174 235.275C392.174 235.275 341.494 189.682 287.693 217.064C233.891 244.446 244.018 400.763 244.018 400.763Z" fill="#090814"/>
<path d="M481.217 713.389C481.992 695.843 467.865 680.738 449.647 679.638C444.898 679.25 440.13 679.967 435.622 681.745C431.114 683.523 426.954 686.328 423.387 689.996L422.964 689.971L314.966 676.958L323.066 552.242C326.063 528.125 320.243 503.804 299.825 498.348C293.909 496.764 287.761 496.757 281.843 498.327C275.924 499.898 270.388 503.005 265.647 507.417C260.906 511.829 257.084 517.43 254.467 523.804C251.849 530.177 250.504 537.156 250.532 544.219L251.15 701.311C251.169 706.619 252.087 711.871 253.853 716.766C255.619 721.66 258.197 726.101 261.441 729.835C264.684 733.568 268.528 736.521 272.754 738.523C276.979 740.525 281.502 741.537 286.064 741.502L421.602 729.717C424.825 733.794 428.713 737.084 433.04 739.395C437.367 741.705 442.046 742.991 446.804 743.176C465.025 744.273 480.433 730.935 481.205 713.399L481.217 713.389Z" fill="#ED9DA0"/>
<path d="M333.463 497.176L326.958 639.466L236.567 632.329L252.552 484.348" fill="#E6E6E6"/>
<path d="M667.684 1541.13L2.91232 1542C2.13992 1542 1.39913 1541.64 0.852961 1541C0.306789 1540.37 -6.10352e-05 1539.51 -6.10352e-05 1538.61C-6.10352e-05 1537.71 0.306789 1536.85 0.852961 1536.21C1.39913 1535.58 2.13992 1535.22 2.91232 1535.22L667.684 1534.36C668.457 1534.36 669.198 1534.71 669.744 1535.35C670.291 1535.99 670.598 1536.85 670.598 1537.75C670.598 1538.65 670.291 1539.51 669.744 1540.14C669.198 1540.78 668.457 1541.14 667.684 1541.14V1541.13Z" fill="#E6E6E6"/>
<path d="M1555.24 513.265H603.818C595.298 513.205 587.147 509.216 581.152 502.173C575.157 495.129 571.809 485.607 571.841 475.694V37.5645C571.81 27.653 575.16 18.1321 581.154 11.0903C587.149 4.0484 595.299 0.0604573 603.818 0.0012207H1555.24C1563.76 0.0611067 1571.91 4.04966 1577.9 11.092C1583.9 18.1343 1587.25 27.6555 1587.22 37.5669V475.694C1587.25 485.605 1583.9 495.127 1577.9 502.169C1571.91 509.211 1563.76 513.2 1555.24 513.26V513.265Z" fill="#090814"/>
<path d="M1551.77 508.939H607.301C598.885 508.928 590.817 505.034 584.867 498.11C578.916 491.186 575.569 481.798 575.559 472.006V41.2545C575.569 31.463 578.917 22.076 584.867 15.1526C590.818 8.2292 598.886 4.3348 607.301 4.32373H1551.77C1560.18 4.3348 1568.25 8.22953 1574.2 15.1535C1580.15 22.0774 1583.5 31.4651 1583.51 41.257V472.006C1583.5 481.798 1580.15 491.186 1574.2 498.11C1568.25 505.034 1560.18 508.928 1551.77 508.939Z" fill="#F2F2F2"/>
<path d="M1331.5 485.386H757.216C714.421 485.333 673.392 465.528 643.131 430.319C612.87 395.109 595.85 347.369 595.804 297.575V215.71C595.849 165.916 612.87 118.176 643.131 82.9653C673.391 47.7549 714.421 27.9501 757.216 27.8967H1401.84C1444.64 27.9501 1485.67 47.7549 1515.93 82.9653C1546.19 118.176 1563.21 165.916 1563.26 215.71C1563.19 287.206 1538.75 355.75 1495.3 406.306C1451.85 456.863 1392.94 485.302 1331.5 485.386Z" fill="white"/>
<path d="M1183.36 151.205H803.751C802.665 151.226 801.586 150.994 800.577 150.525C799.569 150.055 798.651 149.357 797.877 148.47C797.102 147.584 796.487 146.527 796.068 145.361C795.648 144.196 795.432 142.944 795.432 141.68C795.432 140.417 795.648 139.165 796.068 138C796.487 136.834 797.102 135.777 797.877 134.891C798.651 134.004 799.569 133.306 800.577 132.836C801.586 132.367 802.665 132.135 803.751 132.156H1183.36C1184.44 132.135 1185.52 132.367 1186.53 132.836C1187.54 133.306 1188.46 134.004 1189.23 134.891C1190.01 135.777 1190.62 136.834 1191.04 138C1191.46 139.165 1191.68 140.417 1191.68 141.68C1191.68 142.944 1191.46 144.196 1191.04 145.361C1190.62 146.527 1190.01 147.584 1189.23 148.47C1188.46 149.357 1187.54 150.055 1186.53 150.525C1185.52 150.994 1184.44 151.226 1183.36 151.205Z" fill="black"/>
<path d="M1375.52 252.833H803.751C802.665 252.854 801.586 252.622 800.577 252.153C799.569 251.683 798.651 250.985 797.877 250.098C797.102 249.212 796.487 248.155 796.068 246.989C795.648 245.824 795.432 244.572 795.432 243.308C795.432 242.045 795.648 240.793 796.068 239.628C796.487 238.462 797.102 237.405 797.877 236.518C798.651 235.632 799.569 234.934 800.577 234.464C801.586 233.995 802.665 233.763 803.751 233.783H1375.52C1376.61 233.763 1377.68 233.995 1378.69 234.464C1379.7 234.934 1380.62 235.632 1381.39 236.518C1382.17 237.405 1382.78 238.462 1383.2 239.628C1383.62 240.793 1383.84 242.045 1383.84 243.308C1383.84 244.572 1383.62 245.824 1383.2 246.989C1382.78 248.155 1382.17 249.212 1381.39 250.098C1380.62 250.985 1379.7 251.683 1378.69 252.153C1377.68 252.622 1376.61 252.854 1375.52 252.833Z" fill="black"/>
<path d="M1375.52 354.459H803.751C801.602 354.419 799.554 353.397 798.047 351.616C796.54 349.834 795.695 347.434 795.695 344.934C795.695 342.434 796.54 340.034 798.047 338.252C799.554 336.47 801.602 335.449 803.751 335.409H1375.52C1377.67 335.449 1379.72 336.47 1381.22 338.252C1382.73 340.034 1383.58 342.434 1383.58 344.934C1383.58 347.434 1382.73 349.834 1381.22 351.616C1379.72 353.397 1377.67 354.419 1375.52 354.459Z" fill="black"/>
<path d="M1375.52 354.459H803.751C801.602 354.419 799.554 353.397 798.047 351.616C796.54 349.834 795.695 347.434 795.695 344.934C795.695 342.434 796.54 340.034 798.047 338.252C799.554 336.47 801.602 335.449 803.751 335.409H1375.52C1377.67 335.449 1379.72 336.47 1381.22 338.252C1382.73 340.034 1383.58 342.434 1383.58 344.934C1383.58 347.434 1382.73 349.834 1381.22 351.616C1379.72 353.397 1377.67 354.419 1375.52 354.459Z" fill="#090814"/>
<path d="M1089.64 408.084C1161.52 408.084 1219.79 340.281 1219.79 256.64C1219.79 173 1161.52 105.196 1089.64 105.196C1017.75 105.196 959.478 173 959.478 256.64C959.478 340.281 1017.75 408.084 1089.64 408.084Z" fill="#007EA7"/>
<mask id="mask0_26_1703" style="mask-type:luminance" maskUnits="userSpaceOnUse" x="959" y="105" width="261" height="304">
<path d="M1089.64 408.084C1161.52 408.084 1219.79 340.281 1219.79 256.64C1219.79 173 1161.52 105.196 1089.64 105.196C1017.75 105.196 959.478 173 959.478 256.64C959.478 340.281 1017.75 408.084 1089.64 408.084Z" fill="white"/>
</mask>
<g mask="url(#mask0_26_1703)">
<path d="M1166.46 288.339L1050.03 290.032C1047.85 290.032 1045.75 289.021 1044.2 287.221C1042.65 285.421 1041.79 282.98 1041.79 280.435V235.681C1041.74 226.269 1043.29 216.939 1046.35 208.227C1049.42 199.516 1053.93 191.595 1059.63 184.92C1065.33 178.245 1072.12 172.948 1079.58 169.334C1087.05 165.719 1095.06 163.858 1103.15 163.858C1111.24 163.858 1119.25 165.719 1126.72 169.334C1134.19 172.948 1140.97 178.245 1146.67 184.92C1152.37 191.595 1156.89 199.516 1159.95 208.227C1163.01 216.939 1164.56 226.269 1164.52 235.681L1174.7 278.747C1174.7 281.292 1173.83 283.733 1172.28 285.533C1170.74 287.333 1168.64 288.344 1166.45 288.344L1166.46 288.339Z" fill="#090814"/>
<path d="M1102.65 289.565C1126.12 289.565 1145.15 267.427 1145.15 240.118C1145.15 212.809 1126.12 190.671 1102.65 190.671C1079.18 190.671 1060.15 212.809 1060.15 240.118C1060.15 267.427 1079.18 289.565 1102.65 289.565Z" fill="#FFB9B9"/>
<path d="M1123.95 278.323C1123.95 278.323 1123.2 314.048 1126.2 314.919C1129.19 315.791 1085.01 329.731 1085.01 329.731L1080.52 280.937L1123.95 278.323Z" fill="#FFB9B9"/>
<path d="M1035.81 501.978C1043.47 504.357 1119.14 540.643 1155.06 503.878L1183.23 342.009L1149.48 329.621L1137.7 312.953C1136.42 311.146 1134.81 309.696 1132.99 308.711C1131.17 307.726 1129.18 307.233 1127.17 307.266L1085.29 307.918C1083.44 307.949 1081.61 308.426 1079.92 309.318C1078.24 310.21 1076.73 311.498 1075.49 313.101L1062.07 330.507L1031.78 338.711L1035.81 501.978Z" fill="#F2F2F2"/>
<path d="M1170.39 354.636L1179.56 340.417C1179.56 340.417 1196.37 345.555 1204.91 373.582C1213.45 401.61 1248.44 625.52 1248.44 625.52L1210.76 645.876L1159.73 447.988L1170.39 354.636Z" fill="#F2F2F2"/>
<path d="M1045.24 351.496L1032.55 338.52C1032.55 338.52 1019.26 342.423 1010.72 370.447C1002.18 398.472 893.173 586.362 893.173 586.362L930.854 606.719L1055.89 444.843L1045.24 351.496Z" fill="#F2F2F2"/>
<path d="M1146.93 236.857H1087.53C1086.42 236.856 1085.34 236.38 1084.5 235.519C1083.66 234.658 1083.13 233.471 1082.99 232.181L1082.22 225.023C1082.14 224.336 1081.88 223.697 1081.46 223.201C1081.05 222.705 1080.5 222.379 1079.92 222.272C1079.33 222.165 1078.73 222.282 1078.2 222.607C1077.68 222.932 1077.26 223.446 1077 224.073L1073.11 233.774C1072.74 234.691 1072.15 235.467 1071.41 236.011C1070.68 236.555 1069.83 236.845 1068.96 236.847H1059.93C1058.72 236.849 1057.56 236.291 1056.7 235.294C1055.84 234.298 1055.36 232.945 1055.35 231.534C1055.35 231.359 1055.36 231.184 1055.37 231.01L1058.93 187.772C1059.01 186.847 1059.29 185.962 1059.75 185.201C1060.21 184.441 1060.83 183.832 1061.55 183.433C1074.31 176.142 1088.33 172.356 1102.55 172.366C1116.76 172.376 1130.79 176.181 1143.54 183.49C1144.23 183.867 1144.83 184.439 1145.28 185.153C1145.73 185.867 1146.02 186.701 1146.13 187.58L1151.46 230.761C1151.55 231.517 1151.51 232.288 1151.32 233.02C1151.14 233.753 1150.82 234.431 1150.39 235.008C1149.96 235.585 1149.43 236.047 1148.83 236.364C1148.23 236.68 1147.58 236.843 1146.93 236.842L1146.93 236.857Z" fill="#090814"/>
</g>
<path d="M1586.91 635.656C1644.95 635.656 1692 580.913 1692 513.384C1692 445.855 1644.95 391.111 1586.91 391.111C1528.87 391.111 1481.83 445.855 1481.83 513.384C1481.83 580.913 1528.87 635.656 1586.91 635.656Z" fill="#007EA7"/>
<path d="M1576.34 563.503C1574.93 563.503 1573.54 563.12 1572.28 562.386C1571.02 561.652 1569.92 560.586 1569.08 559.273L1546.79 524.707C1545.47 522.456 1544.95 519.702 1545.34 517.017C1545.72 514.332 1546.98 511.923 1548.85 510.29C1550.72 508.658 1553.06 507.926 1555.38 508.249C1557.71 508.572 1559.83 509.923 1561.32 512.023L1575.9 534.636L1613.33 469.292C1614.72 467.097 1616.78 465.607 1619.08 465.134C1621.39 464.66 1623.76 465.239 1625.71 466.75C1627.66 468.261 1629.03 470.588 1629.54 473.246C1630.05 475.904 1629.66 478.689 1628.45 481.021L1583.89 558.785C1583.08 560.192 1582 561.353 1580.73 562.172C1579.46 562.99 1578.03 563.442 1576.58 563.49L1576.34 563.503Z" fill="white"/>
<path d="M673.558 689.997L672.313 695.087C687.304 703.424 702.556 711.534 717.634 719.225L718.37 713.865C703.459 706.266 688.382 698.242 673.558 689.997ZM763.466 735.743L763.235 741.349C778.401 748.366 793.77 755.093 808.921 761.382L808.633 755.546C793.645 749.327 778.441 742.67 763.457 735.737L763.466 735.743ZM853.768 773.217L854.564 779.25C869.66 784.802 884.912 790.05 899.889 794.851L898.589 788.644C883.771 783.902 868.688 778.721 853.761 773.221L853.768 773.217ZM942.922 801.763L944.721 808.115C959.485 812.124 974.341 815.791 988.874 819.008L986.587 812.531C972.214 809.346 957.528 805.716 942.924 801.759L942.922 801.763ZM1029.4 820.926L1032.17 827.498C1046.38 829.9 1060.59 831.944 1074.43 833.538L1071.19 826.904C1057.51 825.321 1043.44 823.293 1029.4 820.924L1029.4 820.926ZM1111.79 830.448L1115.49 837.11C1128.88 837.89 1142.23 838.266 1155.17 838.224L1151.06 831.55C1138.24 831.582 1125.04 831.21 1111.79 830.441L1111.79 830.448ZM1188.76 830.201L1193.31 836.877C1205.71 836.018 1217.98 834.727 1229.78 833.047L1224.82 826.415C1213.15 828.076 1201.01 829.356 1188.76 830.199L1188.76 830.201ZM1259.05 820.197L1264.39 826.76C1275.56 824.263 1286.54 821.332 1297.02 818.035L1291.32 811.573C1280.96 814.83 1270.09 817.729 1259.05 820.197ZM1321.47 800.563L1327.51 806.902C1337.26 802.814 1346.76 798.27 1355.75 793.394L1349.4 787.202C1340.51 792.02 1331.12 796.511 1321.47 800.55L1321.47 800.563ZM1374.95 771.595L1381.6 777.608C1389.69 772.052 1397.5 766.02 1404.99 759.533L1398.11 753.737C1390.84 760.018 1383.04 766.026 1374.95 771.589L1374.95 771.595ZM1418.65 733.699L1425.79 739.282C1432.22 732.252 1438.28 724.796 1443.93 716.946L1436.58 711.611C1431 719.373 1425.01 726.746 1418.65 733.696L1418.65 733.699Z" fill="#090814"/>
<path d="M657.837 679.616L659.32 684.902L636.959 691.397L645.837 716.904L641.404 718.594L630.583 687.516L657.837 679.616Z" fill="#090814"/>
<path d="M1438.96 659.963L1440.51 665.115L1462.39 658.179L1468.45 683.986L1472.99 682.942L1465.62 651.494L1438.96 659.963Z" fill="#090814"/>
</g>
<defs>
<clipPath id="clip0_26_1703">
<rect width="1692" height="1542" fill="white"/>
</clipPath>
</defs>
</svg>
