<svg width="1828" height="1491" viewBox="0 0 1828 1491" fill="none" xmlns="http://www.w3.org/2000/svg">
<g clip-path="url(#clip0_17_384)">
<path d="M0 1491C0 994 0 497 0 0C609.333 0 1218.67 0 1828 0C1828 497 1828 994 1828 1491C1218.67 1491 609.333 1491 0 1491ZM382.023 761.517C381.932 768.918 381.843 776.32 381.752 783.721C381.504 803.964 381.9 807.062 386.242 818.766C388.861 825.828 393 834.509 399.875 844.512C401.151 846.575 402.43 848.637 403.706 850.7C408.578 858.568 422.411 872.876 432.352 880.331C450.614 894.025 478.274 907.195 497.612 911.406C500.142 911.956 502.67 912.508 505.199 913.058C505.199 923.704 505.199 934.349 505.199 944.994C505.199 955.639 505.199 966.283 505.199 976.928C497.314 977.064 489.431 977.199 481.546 977.334C473.661 977.47 465.778 977.605 457.893 977.741C457.719 981.793 457.544 985.845 457.371 989.897C456.059 1020.5 477.751 1044.64 512.415 1051.16C524.031 1053.34 1340.7 1053.3 1353.51 1051.11C1375.69 1047.33 1393.66 1035.48 1403.66 1018.04C1408.78 1009.13 1409.25 1007.05 1409.31 993.029C1409.34 987.933 1409.36 982.837 1409.38 977.741C1401.59 977.605 1393.8 977.471 1386.01 977.336C1378.21 977.201 1370.42 977.067 1362.63 976.931C1362.26 920.28 1361.89 863.628 1361.52 806.978C1361.14 750.327 1360.77 693.675 1360.4 637.024C1362.24 635.811 1364.09 634.597 1365.93 633.384C1368.98 631.382 1375.58 627.083 1380.6 623.834C1402.22 609.853 1420.7 586.165 1428.23 562.765C1435.77 539.331 1432.57 508.462 1420.23 485.706C1405.99 459.445 1376.82 436.027 1344.81 425.158C1326.11 418.808 1310.92 416.484 1287.99 416.467C1245.71 416.435 1210.3 428.738 1182.7 453.051C1172.1 462.392 1161.68 474.556 1158.58 481.193C1158.01 482.417 1157.44 483.642 1156.87 484.866C1054.9 484.866 952.927 484.866 850.955 484.866C748.984 484.866 647.014 484.866 545.042 484.866C541.4 486.35 537.76 487.835 534.119 489.319C522.04 494.242 515.453 499.747 509.826 509.619C506.235 515.922 506.072 518.728 505.563 583.419C505.387 605.835 505.21 628.251 505.033 650.667C501.948 651.503 498.865 652.339 495.781 653.174C471.567 659.734 450.7 669.728 432.476 683.495C406.194 703.349 392.34 724.772 382.023 761.517ZM508.675 1145.24C506.247 1146.46 507.297 1148.94 511.062 1150.88C513.464 1152.11 515.442 1151.21 521.4 1146.15C525.452 1142.71 528.977 1140.11 529.236 1140.36C529.495 1140.61 530.664 1142.32 531.834 1144.15C533.528 1146.8 535.295 1147.42 540.554 1147.2C544.182 1147.04 550.481 1147.39 554.553 1147.98C562.808 1149.15 565.348 1147.61 562.444 1143.19C561.078 1141.11 561.28 1139.95 563.235 1138.62C564.675 1137.65 565.414 1136.27 564.877 1135.56C562.992 1133.07 558.65 1134.3 557.028 1137.78C553.822 1144.66 544.576 1143.94 544.499 1136.81C544.485 1135.41 543.182 1134.27 541.604 1134.27C539.787 1134.27 539.112 1135.07 539.763 1136.45C540.513 1138.04 539.546 1138.63 536.19 1138.63C532.232 1138.63 531.739 1138.15 532.658 1135.16C533.499 1132.43 532.901 1131.51 529.865 1130.86C524.716 1129.76 522.671 1130.99 523.992 1134.39C524.939 1136.82 524.158 1137.18 517.815 1137.18C511.306 1137.18 510.555 1137.55 510.555 1140.73C510.555 1142.69 509.709 1144.71 508.675 1145.24ZM1245.94 1153.2C1244.22 1158.64 1246.4 1159.48 1259.29 1158.36C1270.77 1157.36 1274.59 1155.14 1267.46 1153.62C1262.22 1152.5 1263.07 1150.09 1270.4 1145.32C1276.51 1141.34 1277.05 1141.24 1279.23 1143.67C1283.19 1148.08 1290.35 1150.16 1302.79 1150.49C1314.61 1150.81 1322.8 1148.84 1322.8 1145.68C1322.8 1144.56 1323.5 1144.58 1325.2 1145.72C1328.1 1147.69 1329.94 1146.44 1329.94 1142.51C1329.94 1139.65 1330.03 1139.66 1334.07 1142.75C1339.22 1146.7 1343.64 1146.8 1345.11 1143.02C1346.48 1139.48 1344.96 1137.18 1341.23 1137.18C1338.77 1137.18 1338.79 1136.77 1341.41 1133.5C1345.03 1129 1343.14 1125.2 1339.33 1129.31C1336.84 1132.01 1336.7 1132 1334.03 1128.81C1330.87 1125.03 1326.01 1124.56 1322.8 1127.71C1319.86 1130.61 1318.15 1130.47 1313.88 1126.99C1309.89 1123.74 1294.68 1122.84 1291.24 1125.65C1289.85 1126.78 1288.25 1126.69 1285.57 1125.32C1282.62 1123.82 1281.37 1123.79 1279.64 1125.2C1276.66 1127.64 1272.73 1127.44 1270.31 1124.74C1268.5 1122.73 1267.74 1122.73 1262.81 1124.73C1259.8 1125.96 1255.87 1128.28 1254.08 1129.89C1250.91 1132.74 1250.95 1132.81 1255.58 1132.81C1259.13 1132.81 1260.32 1133.54 1260.32 1135.72C1260.32 1137.86 1261.51 1138.63 1264.78 1138.63C1267.56 1138.63 1269.25 1139.46 1269.25 1140.82C1269.25 1142.02 1268.01 1143 1266.49 1143C1264.97 1143 1261.92 1144.48 1259.71 1146.28C1257.5 1148.08 1253.76 1149.56 1251.39 1149.56C1248.3 1149.56 1246.77 1150.58 1245.94 1153.2ZM1352.16 1131.42C1348.89 1133.64 1348.91 1134.91 1352.25 1137.17C1354.4 1138.63 1355.8 1138.51 1359.5 1136.53C1362.02 1135.18 1363.77 1133.3 1363.38 1132.35C1362.4 1129.93 1355.24 1129.33 1352.16 1131.42Z" fill="#CCDBDC"/>
<path d="M410.586 843.056C425.983 861.725 442.808 877.245 446.553 876.236C448.162 875.802 449.302 871.983 449.974 864.782C451.095 852.743 455.311 844.657 464.278 837.344C472.031 831.02 480.943 827.585 500.761 823.282C520.655 818.964 521.385 817.777 509.75 808.683C501.982 802.612 494.313 792.188 492.114 784.716C491.509 782.66 489.12 780.153 486.805 779.142C477.035 774.877 473.656 762.265 479.984 753.68C482.967 749.634 483.133 747.897 481.535 737.701C479.273 723.279 481.792 709.503 488.117 701.709C491.336 697.743 496.37 694.61 505.612 690.818C523.206 683.6 537.537 682.763 568.005 687.175C587.645 690.019 591.483 690.183 600.991 688.581C604.577 687.977 608.163 687.373 611.75 686.769C612.437 688.379 613.128 689.988 613.815 691.598C616.857 698.716 616.266 707.532 612.269 714.718C610.159 718.511 608.695 724.37 608.635 729.278C608.578 733.795 607.917 740.113 607.166 743.316C606.114 747.793 606.596 750.461 609.247 754.852C614.506 763.564 612.635 771.116 603.626 777.533C598.718 781.029 595.226 785.36 592.511 791.321C589.717 797.455 585.744 802.302 579.008 807.796C573.76 812.077 569.465 816.508 569.465 817.642C569.465 818.776 571.673 820.107 574.374 820.598C589.866 823.416 608.928 828.941 616.236 832.728C630.596 840.17 638.393 853.054 639.447 871.085C639.623 874.118 639.802 877.152 639.979 880.185C642.596 878.511 645.213 876.835 647.83 875.16C666.911 862.947 686.885 836.499 694.681 813.128C700.178 796.651 700.167 767.12 694.658 750.596C679.057 703.802 633.225 668.861 573.958 658.577C558.304 655.86 521.682 656.815 506.092 660.346C452.421 672.499 410.093 707.338 396.16 750.825C395.018 754.389 393.877 757.952 392.734 761.517C391.176 754.746 389.932 752.78 388.964 752.78C387.997 752.78 386.04 754.746 384.615 757.149C383.751 758.605 382.887 760.061 382.023 761.517C392.34 724.772 406.194 703.349 432.476 683.495C450.7 669.728 471.567 659.734 495.781 653.175C498.865 652.339 501.948 651.503 505.033 650.667C505.21 628.251 505.387 605.835 505.563 583.419C506.072 518.728 506.235 515.922 509.826 509.619C515.453 499.747 522.04 494.242 534.119 489.319C537.76 487.835 541.4 486.35 545.042 484.866C647.014 484.866 748.984 484.866 850.955 484.866C952.927 484.866 1054.9 484.866 1156.87 484.866C1157.44 483.642 1158.01 482.417 1158.58 481.193C1161.68 474.556 1172.1 462.392 1182.7 453.051C1210.3 428.738 1245.71 416.435 1287.99 416.467C1310.92 416.484 1326.11 418.808 1344.81 425.158C1376.82 436.027 1405.99 459.445 1420.23 485.706C1432.57 508.462 1435.77 539.331 1428.23 562.765C1420.7 586.165 1402.22 609.853 1380.6 623.834C1375.58 627.084 1368.98 631.382 1365.93 633.384C1364.09 634.597 1362.24 635.811 1360.4 637.024C1360.77 693.675 1361.14 750.327 1361.52 806.978C1361.89 863.628 1362.26 920.28 1362.63 976.931C1370.42 977.067 1378.21 977.201 1386.01 977.336C1393.8 977.471 1401.59 977.605 1409.38 977.741C1409.36 982.837 1409.34 987.933 1409.31 993.029C1409.25 1007.05 1408.78 1009.13 1403.66 1018.04C1393.66 1035.48 1375.69 1047.33 1353.51 1051.11C1340.7 1053.3 524.031 1053.35 512.415 1051.16C477.751 1044.65 456.059 1020.5 457.371 989.897C457.544 985.845 457.719 981.793 457.893 977.741C465.778 977.605 473.661 977.47 481.546 977.335C489.431 977.199 497.314 977.064 505.199 976.928C505.199 966.283 505.199 955.639 505.199 944.994C505.199 934.349 505.199 923.704 505.199 913.059C502.67 912.508 500.142 911.956 497.612 911.406C478.274 907.195 450.614 894.025 432.352 880.331C422.411 872.876 408.578 858.569 403.706 850.7C402.43 848.637 401.151 846.575 399.875 844.512C408.524 852.977 413.255 854.296 410.318 847.424C409.292 845.021 408.931 843.056 409.518 843.056C409.874 843.056 410.231 843.056 410.586 843.056ZM1149.36 494.322C1148.03 493.903 1011.98 493.735 847.041 493.946C516.487 494.37 541.249 493.646 529.49 503.227C517.702 512.831 517.777 512.309 517.735 583.712C517.722 605.254 517.708 626.798 517.695 648.34C520.457 648.032 523.217 647.723 525.978 647.414C530.534 646.905 538.166 646.488 542.937 646.488C545.829 646.488 548.721 646.488 551.613 646.488C551.613 626.443 551.613 606.399 551.613 586.353C551.613 541.523 552.158 525.774 553.755 524.471C555.405 523.126 623.468 522.724 849.254 522.724C1082.4 522.724 1142.75 522.349 1143.27 520.904C1143.63 519.902 1145.14 514.825 1146.63 509.619C1148.12 504.414 1149.89 499.013 1150.57 497.618C1151.33 496.056 1150.86 494.791 1149.36 494.322ZM1313.88 940.611C1312.98 942.795 1312.09 944.98 1311.2 947.164C1185.41 947.286 1059.62 947.408 933.824 947.531C656.366 947.801 555.81 947.465 554.032 946.261C552.317 945.099 551.613 940.715 551.613 931.182C551.613 926.702 551.613 922.223 551.613 917.743C545.96 917.428 540.308 917.115 534.654 916.8C529.001 916.486 523.349 916.173 517.695 915.858C517.993 936 518.29 956.143 518.588 976.285C565.761 976.409 612.932 976.534 660.104 976.657C707.277 976.781 754.448 976.907 801.621 977.03C802.142 978.119 802.663 979.208 803.185 980.298C804.043 982.094 805.684 986.407 806.83 989.88C807.976 993.353 811.609 998.594 814.904 1001.53C816.902 1003.31 818.899 1005.08 820.897 1006.86C857.687 1006.86 894.477 1006.86 931.268 1006.86C968.058 1006.86 1004.85 1006.86 1041.64 1006.86C1043.83 1005.75 1046.02 1004.64 1048.21 1003.53C1055.25 999.956 1062.17 990.291 1062.17 984.012C1062.17 981.96 1063.25 979.551 1064.57 978.657C1066.28 977.498 1107.38 976.924 1207.83 976.657C1254.78 976.534 1301.73 976.409 1348.69 976.285C1348.83 920.47 1348.98 864.653 1349.13 808.838C1349.27 753.023 1349.42 697.207 1349.57 641.392C1346.44 642.209 1343.32 643.024 1340.2 643.841C1335.05 645.188 1327.42 647.015 1323.25 647.902C1320.72 648.439 1318.19 648.975 1315.66 649.513C1315.66 667.209 1315.66 684.906 1315.66 702.603C1315.66 720.3 1315.66 737.996 1315.66 755.692C1315.07 817.332 1314.47 878.972 1313.88 940.611ZM1418.47 511.803C1410.86 484.946 1391.89 460.986 1366.59 446.258C1341.87 431.873 1317.02 425.219 1287.99 425.219C1259.27 425.219 1233.86 432.014 1209.45 446.221C1153.34 478.882 1138.33 545.866 1176.64 592.643C1199.13 620.089 1231.59 636.72 1270.5 640.727C1309.27 644.719 1344.27 635.845 1377.59 613.577C1385.97 607.973 1400.7 591.917 1407.7 580.731C1418.69 563.203 1423.79 530.559 1418.47 511.803ZM626.706 859.8C624.623 852.821 620.026 846.623 613.712 842.281C606.741 837.488 600.934 835.391 584.064 831.578C579.862 830.628 575.659 829.676 571.457 828.727C569.856 830.438 568.256 832.151 566.655 833.862C555.398 845.901 531.694 846.143 520.994 834.327C517.217 830.155 516.137 829.785 510.057 830.577C494.412 832.614 479.372 837.836 472.14 843.743C463.703 850.634 461.063 856.897 459.508 873.697C459.128 877.802 458.748 881.905 458.367 886.009C462.156 887.8 465.945 889.593 469.734 891.384C475.985 894.339 488.731 898.911 498.059 901.543C514.562 906.199 515.807 906.329 544.473 906.329C572.019 906.329 574.911 906.064 589.102 902.218C597.447 899.957 609.699 895.739 616.325 892.844C620.342 891.089 624.358 889.335 628.375 887.58C628.314 883.678 628.254 879.777 628.193 875.875C628.093 869.436 627.424 862.203 626.706 859.8ZM1236.47 985.749C1081.87 985.749 1072.88 985.889 1072.86 988.297C1072.83 992.328 1064.85 1005.09 1060.15 1008.61C1049.73 1016.42 1051.31 1016.33 933.248 1016.29C830.689 1016.26 823.394 1016.09 816.582 1013.57C807.114 1010.06 798.697 1001.59 795.93 992.785C795.192 990.439 794.457 988.095 793.72 985.749C739.299 985.749 684.877 985.749 630.456 985.749C576.036 985.749 521.614 985.749 467.193 985.749C467.552 989.241 467.911 992.732 468.27 996.224C470.332 1016.29 485.105 1033.09 506.383 1039.59C516.101 1042.55 517.078 1042.56 935.975 1042.18C1075.93 1042.06 1215.88 1041.93 1355.83 1041.81C1359.59 1040.14 1363.36 1038.47 1367.13 1036.81C1386.22 1028.37 1396.37 1015.09 1398.85 995.339C1399.25 992.143 1399.65 988.945 1400.06 985.749C1345.53 985.749 1291 985.749 1236.47 985.749ZM598.333 758.102C596.537 756.777 593.652 755.692 591.919 755.692C590.185 755.692 588.375 754.469 587.897 752.975C587.158 750.67 584.676 750.138 571.55 749.456C552.879 748.488 541.606 745.807 527.935 739.093C524.506 737.409 521.076 735.724 517.647 734.039C516.792 735.586 515.935 737.132 515.08 738.678C511.331 745.452 499.085 755.692 494.733 755.692C492.68 755.692 489.663 757.357 488.028 759.392C484.245 764.101 486.678 769.142 494.278 772.348C498.351 774.066 500.217 776.377 502.341 782.34C507.654 797.247 522.712 808.83 539.11 810.624C558.329 812.726 579.14 800.328 584.937 783.321C587.525 775.726 588.834 774.039 593.063 772.836C601.578 770.415 604.382 762.568 598.333 758.102ZM596.565 698.006C591.055 698.602 580.627 697.89 567.557 696.025C535.94 691.512 522.046 692.242 513.232 698.876C511.269 700.354 507.681 701.783 505.26 702.054C495.606 703.133 489.111 719.019 491.527 735.648C492.112 739.682 493.026 743.338 493.558 743.772C495.932 745.708 505.526 735.567 508.07 728.432C511.29 719.397 514.712 718.546 522.467 724.85C533.921 734.16 557.984 741.842 572.603 740.855C579.485 740.391 579.96 739.619 577.468 732.961C576.663 730.81 577.234 729.599 579.365 728.932C583.435 727.658 587.043 730.324 590.34 737.045C591.836 740.094 594.28 742.588 595.773 742.588C598.049 742.588 598.349 740.665 597.64 730.672C596.878 719.936 597.21 718.257 600.982 713.725C603.643 710.526 605.168 706.577 605.168 702.884C605.168 700.948 605.168 699.011 605.168 697.075C602.301 697.385 599.432 697.696 596.565 698.006ZM543.578 819.009C538.521 819.002 533.464 818.994 528.406 818.987C528.415 820.45 528.424 821.914 528.433 823.377C528.465 828.581 529.749 830.398 534.983 832.645C542.072 835.688 553.595 834.003 557.388 829.369C558.109 828.488 558.711 825.801 558.725 823.399C558.734 821.943 558.743 820.487 558.752 819.031C553.695 819.024 548.636 819.016 543.578 819.009ZM1285.6 650.857C1221.13 650.857 1163.94 614.321 1147.92 562.901C1146.15 557.221 1144.12 547.822 1143.42 542.016C1142.99 538.497 1142.56 534.979 1142.14 531.46C1045.8 531.46 949.46 531.46 853.123 531.46C756.785 531.46 660.447 531.46 564.109 531.46C564.109 550.818 564.109 570.178 564.109 589.536C564.109 608.896 564.109 628.254 564.109 647.614C566.894 647.955 569.681 648.295 572.466 648.636C586.374 650.337 603.433 655.165 619.81 662.035C655.713 677.096 679.129 697.022 696.179 727.021C707.427 746.811 709.617 755.978 709.471 782.629C709.355 803.677 708.873 807.183 704.473 818.941C685.975 868.363 636.033 905.552 576.052 914.567C572.071 915.165 568.09 915.764 564.109 916.362C564.109 919.918 564.109 923.475 564.109 927.031C564.109 930.586 564.109 934.144 564.109 937.699C687.285 937.699 810.461 937.699 933.637 937.699C1056.81 937.699 1179.99 937.699 1303.16 937.699C1303.16 889.893 1303.16 842.085 1303.16 794.278C1303.16 746.471 1303.16 698.663 1303.16 650.857C1297.31 650.857 1291.45 650.857 1285.6 650.857Z" fill="#003249"/>
<path d="M1285.6 650.856C1291.45 650.856 1297.31 650.856 1303.16 650.856C1303.16 698.663 1303.16 746.471 1303.16 794.278C1303.16 842.084 1303.16 889.893 1303.16 937.699C1179.99 937.699 1056.81 937.699 933.637 937.699C810.461 937.699 687.285 937.699 564.109 937.699C564.109 934.144 564.109 930.586 564.109 927.031C564.109 923.475 564.109 919.918 564.109 916.362C568.09 915.764 572.071 915.165 576.052 914.567C636.033 905.552 685.975 868.363 704.473 818.94C708.873 807.183 709.355 803.677 709.471 782.629C709.617 755.978 707.427 746.81 696.179 727.021C679.129 697.022 655.713 677.096 619.81 662.035C603.433 655.165 586.374 650.337 572.466 648.636C569.681 648.295 566.894 647.955 564.109 647.614C564.109 628.254 564.109 608.896 564.109 589.536C564.109 570.178 564.109 550.818 564.109 531.46C660.447 531.46 756.785 531.46 853.123 531.46C949.46 531.46 1045.8 531.46 1142.14 531.46C1142.56 534.979 1142.99 538.497 1143.42 542.016C1144.12 547.822 1146.15 557.22 1147.92 562.901C1163.94 614.321 1221.13 650.856 1285.6 650.856ZM665.91 581.242C662.625 585.637 662.305 588.546 662.3 614.235C662.289 659.399 660.406 658.137 727.785 658.137C743.823 658.137 759.861 658.137 775.899 658.137C781.652 662.541 787.407 666.946 793.161 671.35C815.017 688.082 816.527 688.059 817.223 670.965C817.734 658.418 817.766 658.338 822.8 657.436C828.05 656.496 833.547 652.442 837.015 646.948C838.304 644.906 839.02 633.442 839.016 614.915C839.011 588.545 838.7 585.647 835.407 581.242C828.827 572.439 826.856 572.229 750.658 572.229C674.461 572.229 672.49 572.439 665.91 581.242ZM813.392 869.265C813.069 872.868 812.88 881.059 812.971 887.465C813.026 891.349 813.083 895.23 813.139 899.114C860.892 899.238 908.645 899.363 956.397 899.486C1004.15 899.61 1051.9 899.736 1099.66 899.859C1099.66 896.318 1099.66 892.776 1099.66 889.234C1099.66 885.693 1099.66 882.152 1099.66 878.611C1105.72 869.728 1111.77 860.843 1117.83 851.959C1133.88 828.424 1135.75 824.967 1133.77 822.391C1132.55 820.787 1131.85 819.22 1132.23 818.91C1132.61 818.6 1140.91 817.007 1150.66 815.37C1164.92 812.977 1171.11 811.052 1182.34 805.52C1190.02 801.739 1199.46 795.875 1203.32 792.49C1209.36 787.191 1210.34 785.409 1210.34 779.684C1210.34 774.564 1209.33 772.211 1205.95 769.459C1199.01 763.795 1190.51 764.63 1170.81 772.912C1155.83 779.213 1153.15 779.874 1144.84 779.328C1141.75 779.126 1138.66 778.922 1135.58 778.72C1136.54 777.061 1137.51 775.403 1138.48 773.745C1142.13 767.505 1140.08 761.824 1133.05 758.65C1128.42 756.563 1127.59 756.653 1120.15 760.061C1100.85 768.897 1087.34 780.91 1084.53 791.73C1083.67 795.054 1082.3 796.462 1079.92 796.462C1078.06 796.462 1075.4 797.937 1074.01 799.738C1072.62 801.539 1069.43 805.736 1066.91 809.061C1065.39 811.076 1063.87 813.094 1062.34 815.11C1058.79 813.937 1055.23 812.767 1051.67 811.595C1045.81 809.661 1031.1 805.877 1019.01 803.183C1011.67 801.551 1004.34 799.917 997.01 798.285C996.833 796.134 996.656 793.982 996.48 791.832C996.012 786.131 996.501 785.138 1000.67 783.318C1007.69 780.253 1024.17 765.149 1029.03 757.326C1031.37 753.556 1034.6 746.802 1036.2 742.314C1038.56 735.676 1040.1 733.821 1044.43 732.359C1055.66 728.565 1063.54 715.836 1061.14 705.387C1060.49 702.57 1058.05 697.967 1055.72 695.16C1051.98 690.668 1051.68 689.322 1053.2 683.925C1054.16 680.553 1054.96 669.478 1054.98 659.315C1055.01 647.455 1055.73 640.479 1057 639.843C1058.08 639.297 1060.88 635.491 1063.23 631.385C1067.89 623.21 1068.92 610.613 1065.7 601.144C1063.02 593.297 1060.54 592.186 1051.48 594.791C1040.39 597.984 1023 597.488 995.91 593.207C953.704 586.537 918.861 587.993 906.22 596.958C903.136 599.145 897.582 601.388 893.88 601.943C890.177 602.498 884.3 604.988 880.821 607.479C865.494 618.456 860.163 638.27 863.834 670.625C864.558 677.014 865.283 683.404 866.008 689.793C864.501 691.603 862.995 693.414 861.488 695.224C859.003 698.212 856.443 702.945 855.799 705.745C853.505 715.721 861.7 728.598 872.711 732.318C876.756 733.686 878.411 735.583 880.171 740.878C885.339 756.429 897.95 772.157 912.515 781.217C920.466 786.163 921.273 787.194 920.787 791.797C920.491 794.601 919.043 797.423 917.57 798.068C916.098 798.713 904.048 801.583 890.793 804.447C877.538 807.311 861.873 811.507 855.982 813.774C829.783 823.856 815.831 842.035 813.392 869.265ZM1249.61 684.346C1249.61 680.924 1249.61 677.502 1249.61 674.081C1249.61 662.754 1247.05 657.23 1239.59 652.441C1234.97 649.479 1233.09 649.4 1167.39 649.4C1144.9 649.4 1122.42 649.4 1099.93 649.4C1098.1 650.654 1096.28 651.908 1094.45 653.161C1091.44 655.23 1088.16 658.834 1085.38 665.417C1085.39 671.12 1085.4 676.822 1085.41 682.526C1085.46 703.82 1088.31 710.288 1099.4 714.279C1101.82 715.149 1104.24 716.018 1106.65 716.887C1106.83 720.271 1107 723.653 1107.17 727.037C1107.98 742.844 1110.42 742.991 1128.82 728.345C1133.83 724.357 1138.84 720.367 1143.85 716.379C1151.13 716.379 1158.42 716.379 1165.71 716.379C1176.48 716.379 1187.25 716.379 1198.02 716.379C1246.27 716.379 1249.59 714.319 1249.61 684.346Z" fill="white"/>
<path d="M813.392 869.265C815.831 842.035 829.783 823.856 855.982 813.774C861.873 811.507 877.538 807.311 890.793 804.447C904.048 801.583 916.098 798.713 917.57 798.068C919.043 797.423 920.491 794.601 920.787 791.797C921.273 787.194 920.466 786.163 912.515 781.217C897.95 772.157 885.339 756.429 880.171 740.878C878.411 735.583 876.756 733.686 872.711 732.318C861.7 728.598 853.505 715.721 855.799 705.745C856.443 702.945 859.003 698.212 861.488 695.224C862.995 693.414 864.501 691.603 866.008 689.793C865.283 683.404 864.558 677.014 863.834 670.625C860.163 638.27 865.494 618.456 880.821 607.479C884.3 604.988 890.177 602.498 893.879 601.943C897.582 601.388 903.136 599.145 906.22 596.958C918.861 587.993 953.704 586.537 995.91 593.207C1023 597.488 1040.39 597.984 1051.48 594.791C1060.54 592.186 1063.02 593.297 1065.7 601.144C1068.92 610.613 1067.89 623.21 1063.23 631.385C1060.88 635.491 1058.08 639.297 1057 639.843C1055.73 640.479 1055.01 647.455 1054.98 659.315C1054.96 669.478 1054.16 680.553 1053.2 683.925C1051.68 689.322 1051.98 690.668 1055.72 695.16C1058.05 697.967 1060.49 702.57 1061.14 705.387C1063.54 715.836 1055.66 728.565 1044.43 732.359C1040.1 733.821 1038.56 735.676 1036.2 742.314C1034.6 746.802 1031.37 753.556 1029.03 757.326C1024.17 765.149 1007.69 780.253 1000.67 783.318C996.501 785.138 996.012 786.131 996.48 791.832C996.656 793.982 996.833 796.134 997.01 798.285C1004.34 799.917 1011.67 801.551 1019.01 803.183C1031.1 805.877 1045.81 809.661 1051.67 811.595C1055.23 812.767 1058.79 813.937 1062.34 815.11C1063.87 813.094 1065.39 811.076 1066.91 809.061C1069.43 805.736 1072.62 801.539 1074.01 799.738C1075.4 797.937 1078.06 796.462 1079.92 796.462C1082.3 796.462 1083.67 795.054 1084.53 791.73C1087.34 780.91 1100.85 768.897 1120.15 760.061C1127.59 756.653 1128.42 756.563 1133.05 758.65C1140.08 761.824 1142.13 767.505 1138.48 773.745C1137.51 775.403 1136.54 777.061 1135.58 778.72C1138.66 778.922 1141.75 779.126 1144.84 779.328C1153.15 779.874 1155.83 779.213 1170.81 772.912C1190.51 764.63 1199.01 763.795 1205.95 769.459C1209.33 772.211 1210.34 774.564 1210.34 779.684C1210.34 785.409 1209.36 787.191 1203.32 792.49C1199.46 795.875 1190.02 801.739 1182.34 805.52C1171.11 811.052 1164.92 812.977 1150.66 815.37C1140.91 817.007 1132.61 818.6 1132.23 818.91C1131.85 819.22 1132.55 820.787 1133.77 822.391C1135.75 824.967 1133.88 828.424 1117.83 851.959C1111.77 860.843 1105.72 869.728 1099.66 878.611C1099.66 882.152 1099.66 885.693 1099.66 889.234C1099.66 892.776 1099.66 896.318 1099.66 899.859C1051.9 899.736 1004.15 899.61 956.397 899.486C908.645 899.363 860.892 899.238 813.139 899.114C813.083 895.23 813.026 891.349 812.971 887.465C812.88 881.059 813.069 872.868 813.392 869.265ZM962.199 891.105C1000.63 891.105 1039.06 891.105 1077.5 891.105C1082.31 884.189 1087.12 877.273 1091.94 870.357C1099.88 858.944 1109.8 844.459 1113.99 838.168C1116.53 834.354 1119.07 830.541 1121.61 826.727C1115.12 823.674 1108.64 820.622 1102.15 817.569C1087.9 810.859 1082.09 808.814 1080.42 809.922C1079.18 810.753 1073.61 818.058 1068.06 826.154C1042.45 863.499 1035.32 872.373 1031.26 871.9C1029.14 871.651 1027.12 870.296 1026.8 868.888C1026.47 867.48 1032.75 857.323 1040.76 846.322C1048.77 835.32 1055.46 825.701 1055.62 824.948C1056.1 822.764 1044.13 818.659 1023.52 813.94C1002.58 809.144 996.117 808.566 996.117 811.488C996.117 812.545 993.323 816.072 989.91 819.325C972.105 836.291 934.333 833.099 921.828 813.571C918.472 808.329 915.564 808.428 888.876 814.693C839.67 826.245 828.211 837.562 823.928 878.832C823.605 881.953 823.28 885.073 822.957 888.193C824.533 890.494 833.914 891.105 846.269 891.105C853.374 891.105 860.481 891.105 867.586 891.105C867.586 886.592 867.586 882.078 867.586 877.564C867.586 863.36 868.907 860.528 875.53 860.527C878.931 860.525 879.222 861.502 879.636 874.359C879.784 878.971 879.934 883.582 880.082 888.193C879.636 888.193 879.189 888.193 878.743 888.193C878.006 888.193 877.404 889.288 877.404 890.626C877.404 892.841 881.169 893.027 919.347 892.697C942.414 892.497 961.492 892.058 962.199 891.105ZM1047.61 702.546C1044.53 697.954 1040.53 695.994 1034.24 695.994C1029.04 695.994 1028.29 695.47 1027.28 691.087C1026.91 689.452 1026.53 687.814 1026.15 686.179C1018.62 685.918 1011.08 685.66 1003.55 685.4C991.115 684.97 976.123 683.554 970.232 682.252C956.56 679.231 935.438 671.115 924.366 664.626C921.494 662.943 918.622 661.26 915.749 659.577C914.357 662.128 912.965 664.677 911.572 667.228C909.275 671.438 903.757 678.168 899.306 682.183C894.856 686.199 890.913 690.786 890.543 692.376C890.02 694.621 888.194 695.365 882.349 695.712C872.492 696.296 867.586 701.089 867.586 710.135C867.586 715.342 868.603 717.433 872.804 720.859C875.674 723.2 879.593 725.115 881.512 725.115C886.271 725.115 888.065 727.301 891.627 737.429C900.076 761.451 917.388 776.609 943.321 782.689C978.689 790.981 1017.31 768.506 1026.74 734.15C1027.93 729.82 1029.76 726.069 1030.81 725.817C1031.86 725.565 1034.95 724.959 1037.68 724.47C1046.9 722.819 1052.67 710.087 1047.61 702.546ZM1055.55 607.536C1054.9 604.75 1054.06 604.421 1049.99 605.352C1041.28 607.345 1015.14 606.177 995.225 602.901C952.39 595.857 918.868 597.555 910.115 607.211C906.915 610.744 904.887 611.543 899.147 611.543C893.478 611.543 891.011 612.491 886.48 616.409C878.802 623.049 876.362 629.952 875.237 648.19C873.995 668.354 875.898 685.802 879.341 685.802C880.73 685.802 881.867 685.046 881.867 684.123C881.867 683.2 885.741 679.102 890.477 675.018C899.017 667.653 903.841 659.545 905.933 649.036C906.829 644.536 907.754 643.576 911.197 643.576C913.675 643.576 916.556 645.047 918.277 647.19C923.186 653.301 945.499 664.954 961.114 669.562C983.462 676.158 1019.32 679.548 1019.32 675.065C1019.32 673.964 1017.21 669.979 1014.63 666.208C1010.26 659.836 1010.14 659.182 1012.87 656.949C1018.32 652.503 1025.87 659.869 1033.85 677.429C1039.91 690.767 1042.2 688.319 1043.7 666.907C1044.23 659.28 1043.84 650.144 1042.83 646.605C1041.07 640.453 1041.25 639.917 1046.93 634.506C1054.8 627.003 1057.88 617.386 1055.55 607.536ZM984.092 796.705C983.521 791.478 982.884 790.563 980.386 791.372C969.797 794.801 956.82 795.419 945.079 793.056C938.46 791.724 932.807 790.83 932.514 791.069C932.221 791.307 931.832 795.571 931.65 800.543C931.273 810.782 933.449 813.764 944.723 818.457C957.078 823.601 971.669 821.203 980.581 812.564C983.235 809.992 985.265 806.79 985.094 805.45C984.922 804.111 984.473 800.175 984.092 796.705ZM1196.7 775.071C1194.96 774.525 1186.3 777.19 1175.25 781.674C1169.07 784.18 1162.89 786.687 1156.71 789.193C1150.75 788.874 1144.78 788.554 1138.81 788.235C1116.94 787.066 1115.1 785.646 1122.92 776.004C1125.78 772.479 1127.53 769.108 1126.8 768.516C1124.95 767.007 1101.42 782.158 1098.46 786.759C1097.13 788.839 1095.55 793.413 1094.96 796.922C1094.6 799.049 1094.25 801.177 1093.89 803.304C1097.91 805.138 1101.94 806.973 1105.96 808.808C1117.52 814.083 1118.22 814.219 1122.77 812.026C1125.39 810.768 1135.82 808.358 1145.97 806.672C1158.65 804.563 1166.71 802.344 1171.76 799.575C1175.79 797.359 1182.9 793.765 1187.54 791.59C1192.19 789.415 1196.81 786.387 1197.81 784.863C1200.52 780.722 1200 776.105 1196.7 775.071Z" fill="#1C62AB"/>
<path d="M517.695 915.858C523.349 916.173 529.001 916.486 534.654 916.8C540.308 917.115 545.96 917.428 551.613 917.743C551.613 922.223 551.613 926.702 551.613 931.182C551.613 940.715 552.317 945.099 554.032 946.261C555.81 947.465 656.366 947.801 933.824 947.531C1059.62 947.408 1185.41 947.286 1311.2 947.164C1312.09 944.979 1312.98 942.795 1313.88 940.611C1314.32 940.611 1314.77 940.611 1315.21 940.611C1315.95 940.611 1316.35 899.005 1315.66 755.692C1315.66 737.995 1315.66 720.3 1315.66 702.603C1315.66 684.906 1315.66 667.209 1315.66 649.513C1318.19 648.975 1320.72 648.439 1323.25 647.902C1327.42 647.015 1335.05 645.188 1340.2 643.841C1343.32 643.024 1346.44 642.209 1349.57 641.392C1349.42 697.207 1349.27 753.023 1349.13 808.838C1348.98 864.653 1348.83 920.47 1348.69 976.285C1301.73 976.408 1254.78 976.534 1207.83 976.657C1107.38 976.924 1066.28 977.498 1064.57 978.657C1063.25 979.551 1062.17 981.96 1062.17 984.012C1062.17 990.29 1055.25 999.956 1048.21 1003.53C1046.02 1004.64 1043.83 1005.75 1041.64 1006.86C1004.85 1006.86 968.058 1006.86 931.268 1006.86C894.477 1006.86 857.687 1006.86 820.897 1006.86C818.899 1005.08 816.902 1003.31 814.904 1001.53C811.609 998.594 807.976 993.353 806.83 989.88C805.684 986.407 804.043 982.094 803.185 980.298C802.663 979.208 802.142 978.119 801.621 977.03C754.448 976.906 707.277 976.781 660.104 976.657C612.932 976.534 565.761 976.408 518.588 976.285C518.29 956.143 517.993 936 517.695 915.858Z" fill="#007EA7"/>
<path d="M1236.47 985.749C1291 985.749 1345.53 985.749 1400.06 985.749C1399.65 988.945 1399.25 992.143 1398.85 995.339C1396.37 1015.09 1386.22 1028.37 1367.13 1036.81C1363.36 1038.47 1359.59 1040.14 1355.83 1041.81C1215.88 1041.93 1075.93 1042.06 935.975 1042.18C517.078 1042.56 516.101 1042.55 506.383 1039.59C485.105 1033.09 470.331 1016.29 468.27 996.224C467.911 992.732 467.552 989.241 467.193 985.749C521.614 985.749 576.036 985.749 630.456 985.749C684.877 985.749 739.299 985.749 793.72 985.749C794.457 988.095 795.192 990.439 795.93 992.785C798.697 1001.59 807.114 1010.06 816.582 1013.57C823.394 1016.09 830.688 1016.26 933.247 1016.29C1051.31 1016.33 1049.73 1016.42 1060.15 1008.61C1064.85 1005.09 1072.83 992.327 1072.86 988.297C1072.88 985.889 1081.87 985.749 1236.47 985.749Z" fill="#CCDBDC"/>
<path d="M1418.47 511.803C1423.79 530.559 1418.69 563.203 1407.7 580.731C1400.7 591.917 1385.97 607.973 1377.59 613.577C1344.27 635.845 1309.27 644.719 1270.5 640.727C1231.59 636.72 1199.13 620.089 1176.64 592.643C1138.33 545.866 1153.34 478.882 1209.45 446.221C1233.86 432.014 1259.27 425.219 1287.99 425.219C1317.02 425.219 1341.87 431.873 1366.59 446.257C1391.89 460.985 1410.86 484.946 1418.47 511.803ZM1171.84 516.899C1164.7 544.343 1177.5 580.159 1201.43 599.675C1227.88 621.25 1261.66 631.998 1296.21 629.832C1325.23 628.015 1349.43 618.943 1370.19 602.089C1394.71 582.198 1405.34 562.221 1405.47 535.828C1405.61 507.404 1394.46 485.121 1370.11 465.172C1345.84 445.286 1322.91 437.712 1287.1 437.744C1269.66 437.76 1264.42 438.347 1252.29 441.643C1233.55 446.735 1221.95 452.339 1207.83 463.114C1188.44 477.906 1177.88 493.688 1171.84 516.899Z" fill="#003249"/>
<path d="M1171.84 516.899C1177.88 493.689 1188.44 477.906 1207.83 463.114C1221.95 452.339 1233.55 446.735 1252.29 441.643C1264.42 438.347 1269.66 437.76 1287.1 437.744C1322.91 437.712 1345.84 445.286 1370.11 465.172C1394.46 485.121 1405.61 507.405 1405.47 535.828C1405.34 562.221 1394.71 582.198 1370.19 602.089C1349.43 618.943 1325.23 628.015 1296.21 629.833C1261.66 631.998 1227.88 621.251 1201.43 599.675C1177.5 580.159 1164.7 544.343 1171.84 516.899ZM1203.2 588.246C1211.23 594.314 1219.26 600.379 1227.29 606.447C1229.03 604.87 1230.77 603.292 1232.51 601.715C1238.22 596.524 1240.94 595.905 1244.15 599.062C1245.8 600.687 1245.61 602.175 1243.26 605.873C1240.42 610.365 1240.43 610.704 1243.57 612.574C1247.87 615.142 1262.59 618.745 1273.14 619.815C1275.93 620.097 1278.71 620.378 1281.5 620.661C1281.69 618.826 1281.88 616.992 1282.07 615.157C1282.79 608.161 1287.84 605.067 1291.67 609.273C1293.08 610.828 1294.24 614.015 1294.24 616.355C1294.24 620.597 1294.27 620.607 1302.72 619.64C1312.7 618.499 1333.07 613.302 1334.39 611.559C1334.9 610.892 1333.97 608.431 1332.32 606.093C1326.22 597.428 1334.55 593.559 1342.44 601.39C1343.94 602.868 1345.42 604.346 1346.91 605.824C1349.42 604.322 1351.92 602.82 1354.42 601.319C1361.33 597.178 1376.36 583.317 1376.36 581.09C1376.36 580.565 1373.95 578.977 1371 577.557C1365.19 574.759 1363.84 569.792 1368.48 568.338C1370.05 567.848 1374.1 568.528 1377.5 569.849C1379.55 570.65 1381.61 571.449 1383.67 572.25C1384.54 570.551 1385.41 568.849 1386.28 567.149C1389.67 560.536 1394.21 546.287 1394.21 542.264C1394.21 539.617 1392.94 539.002 1386.17 538.381C1379.51 537.768 1378.14 537.124 1378.14 534.602C1378.14 531.07 1383.01 528.548 1389.83 528.548C1394.49 528.548 1394.58 528.385 1393.39 521.923C1391.75 512.949 1387.7 502.144 1384.76 498.866C1382.49 496.339 1382 496.317 1376.79 498.517C1373.73 499.807 1369.97 500.469 1368.43 499.989C1363.71 498.511 1365.15 493.011 1371 490.194C1373.95 488.774 1376.36 486.679 1376.36 485.536C1376.36 482.991 1350.39 461.565 1347.32 461.578C1346.11 461.583 1343.75 463.548 1342.08 465.946C1338.75 470.711 1332.34 471.845 1330.53 467.989C1329.93 466.715 1330.73 463.448 1332.32 460.729C1335.2 455.818 1335.18 455.773 1330.27 453.699C1323.63 450.898 1304.87 447.009 1298 447.009C1292.63 447.009 1292.45 447.217 1292.45 453.44C1292.45 460.24 1290.23 462.118 1284.87 459.866C1282.66 458.94 1281.74 456.801 1281.74 452.584C1281.74 450.594 1281.74 448.603 1281.74 446.613C1278.92 446.926 1276.09 447.239 1273.26 447.552C1263.27 448.659 1242.93 453.953 1241.52 455.817C1240.98 456.531 1241.83 459.16 1243.42 461.658C1246.98 467.28 1245.75 470.306 1239.89 470.306C1236.72 470.306 1234.61 469.024 1232.62 465.891C1231.69 464.419 1230.76 462.95 1229.82 461.478C1227.99 462.343 1226.16 463.206 1224.34 464.071C1218.05 467.041 1199.65 483.276 1199.63 485.859C1199.63 486.806 1202.04 488.98 1204.98 490.69C1210.93 494.147 1211.7 496.694 1207.61 499.462C1205.37 500.975 1203.64 500.819 1198.08 498.611C1195.81 497.712 1193.54 496.815 1191.28 495.915C1190.03 498.917 1188.79 501.921 1187.55 504.923C1185.5 509.878 1183.36 515.254 1182.79 516.872C1182.45 517.852 1182.11 518.832 1181.77 519.812C1181.77 527.964 1182.4 528.415 1188.29 528.825C1200.86 529.697 1201.48 538.74 1188.97 538.74C1182.28 538.74 1181.77 539.029 1181.77 542.803C1181.77 548.093 1186.39 562.474 1189.83 567.902C1192.53 572.158 1192.54 572.16 1198.59 569.805C1201.93 568.509 1205.93 567.848 1207.5 568.338C1211.81 569.689 1210.89 574.799 1205.87 577.292C1204.39 578.032 1202.9 578.77 1201.41 579.51C1204.64 573.871 1205.16 571.889 1204.64 571.467C1203.01 570.133 1187.13 576.407 1187.13 578.386C1187.13 580.97 1199.3 595.526 1201.46 595.526C1202.41 595.526 1203.2 593.888 1203.2 591.886C1203.2 590.673 1203.2 589.459 1203.2 588.246Z" fill="#003249"/>
<path d="M392.734 761.517C393.877 757.952 395.018 754.389 396.16 750.825C410.093 707.338 452.421 672.499 506.092 660.346C521.682 656.815 558.304 655.859 573.958 658.576C633.225 668.861 679.058 703.801 694.658 750.596C700.167 767.119 700.178 796.651 694.681 813.128C686.885 836.499 666.911 862.947 647.83 875.16C645.213 876.835 642.596 878.511 639.979 880.185C639.802 877.152 639.623 874.118 639.447 871.085C638.393 853.054 630.596 840.17 616.236 832.728C608.928 828.941 589.866 823.416 574.374 820.597C571.673 820.107 569.465 818.776 569.465 817.642C569.465 816.507 573.76 812.077 579.008 807.796C585.744 802.302 589.718 797.455 592.511 791.321C595.227 785.359 598.718 781.029 603.626 777.533C612.635 771.116 614.506 763.564 609.247 754.852C606.596 750.461 606.114 747.793 607.166 743.316C607.917 740.113 608.578 733.795 608.635 729.278C608.696 724.37 610.159 718.511 612.269 714.718C616.266 707.532 616.857 698.715 613.815 691.598C613.128 689.988 612.437 688.379 611.75 686.769C608.164 687.373 604.577 687.977 600.991 688.581C591.483 690.183 587.645 690.018 568.005 687.175C537.537 682.763 523.206 683.6 505.612 690.818C496.37 694.609 491.336 697.743 488.117 701.709C481.792 709.503 479.273 723.279 481.535 737.701C483.133 747.897 482.967 749.634 479.984 753.68C473.656 762.265 477.035 774.877 486.805 779.142C489.12 780.153 491.509 782.66 492.114 784.716C494.313 792.188 501.983 802.612 509.75 808.683C521.385 817.777 520.655 818.964 500.761 823.282C480.943 827.585 472.031 831.02 464.278 837.344C455.311 844.657 451.095 852.743 449.974 864.781C449.303 871.983 448.162 875.802 446.553 876.236C442.808 877.245 425.983 861.725 410.586 843.056C408.753 839.825 406.919 836.594 405.086 833.363C393.69 813.278 392.211 804.683 392.734 761.517Z" fill="#80CED7"/>
<path d="M1181.77 519.812C1182.11 518.832 1182.45 517.852 1182.79 516.872C1183.36 515.254 1185.5 509.878 1187.55 504.923C1188.79 501.921 1190.03 498.917 1191.28 495.915C1193.54 496.815 1195.81 497.712 1198.08 498.611C1203.64 500.819 1205.37 500.975 1207.61 499.462C1211.7 496.694 1210.93 494.147 1204.98 490.69C1202.03 488.98 1199.63 486.806 1199.63 485.859C1199.65 483.276 1218.05 467.041 1224.34 464.071C1226.16 463.206 1227.99 462.343 1229.82 461.478C1230.76 462.95 1231.69 464.419 1232.62 465.891C1234.61 469.024 1236.72 470.306 1239.89 470.306C1245.75 470.306 1246.98 467.28 1243.42 461.658C1241.83 459.16 1240.98 456.531 1241.52 455.817C1242.93 453.953 1263.27 448.659 1273.26 447.552C1276.09 447.239 1278.92 446.926 1281.74 446.613C1281.74 448.603 1281.74 450.594 1281.74 452.584C1281.74 456.801 1282.66 458.94 1284.87 459.866C1290.23 462.118 1292.45 460.24 1292.45 453.44C1292.45 447.217 1292.63 447.009 1298 447.009C1304.87 447.009 1323.63 450.898 1330.27 453.699C1335.18 455.773 1335.2 455.818 1332.32 460.729C1330.73 463.448 1329.93 466.715 1330.53 467.989C1332.34 471.845 1338.75 470.71 1342.08 465.946C1343.75 463.548 1346.11 461.582 1347.32 461.578C1350.39 461.565 1376.36 482.991 1376.36 485.536C1376.36 486.679 1373.95 488.774 1371 490.194C1365.15 493.011 1363.71 498.511 1368.43 499.989C1369.97 500.469 1373.73 499.807 1376.79 498.517C1382 496.317 1382.49 496.338 1384.76 498.866C1387.7 502.144 1391.75 512.949 1393.39 521.923C1394.58 528.385 1394.49 528.548 1389.83 528.548C1383.01 528.548 1378.14 531.07 1378.14 534.602C1378.14 537.124 1379.51 537.768 1386.17 538.381C1392.94 539.002 1394.21 539.617 1394.21 542.264C1394.21 546.287 1389.67 560.536 1386.28 567.149C1385.41 568.849 1384.54 570.551 1383.67 572.25C1381.61 571.449 1379.55 570.65 1377.5 569.849C1374.1 568.528 1370.05 567.848 1368.48 568.337C1363.84 569.792 1365.19 574.759 1371 577.557C1373.95 578.977 1376.36 580.565 1376.36 581.09C1376.36 583.317 1361.33 597.178 1354.42 601.319C1351.92 602.82 1349.42 604.322 1346.91 605.824C1345.42 604.346 1343.94 602.868 1342.44 601.39C1334.55 593.559 1326.22 597.428 1332.32 606.093C1333.97 608.431 1334.9 610.892 1334.39 611.559C1333.07 613.302 1312.7 618.499 1302.72 619.64C1294.27 620.607 1294.24 620.597 1294.24 616.355C1294.24 614.015 1293.08 610.828 1291.67 609.273C1287.84 605.066 1282.79 608.161 1282.07 615.157C1281.88 616.992 1281.69 618.826 1281.5 620.661C1278.71 620.378 1275.93 620.097 1273.14 619.815C1262.59 618.745 1247.87 615.142 1243.57 612.574C1240.43 610.704 1240.42 610.365 1243.26 605.873C1245.61 602.175 1245.8 600.687 1244.15 599.062C1240.94 595.905 1238.22 596.524 1232.51 601.715C1230.77 603.292 1229.03 604.87 1227.29 606.447C1219.26 600.379 1211.23 594.313 1203.2 588.246C1202.31 587.058 1201.42 585.87 1200.54 584.682C1198.91 582.495 1198.56 580.807 1201.41 579.51C1202.9 578.77 1204.39 578.032 1205.87 577.292C1210.89 574.799 1211.81 569.689 1207.5 568.337C1205.93 567.848 1201.93 568.509 1198.59 569.805C1192.54 572.16 1192.53 572.158 1189.83 567.902C1186.39 562.474 1181.77 548.093 1181.77 542.803C1181.77 539.029 1182.28 538.74 1188.97 538.74C1201.48 538.74 1200.86 529.697 1188.29 528.825C1182.4 528.415 1181.77 527.964 1181.77 519.812ZM1294.24 519.812C1294.09 513.433 1293.94 507.054 1293.79 500.675C1293.4 484.016 1292.93 481.329 1290.12 479.926C1287.57 478.655 1286.34 478.854 1281.74 483.41C1281.74 497 1281.74 510.59 1281.74 524.18C1281.75 525.757 1281.76 527.335 1281.77 528.912C1281.78 531.515 1282.41 534.426 1283.15 535.383C1283.9 536.339 1293.71 541.483 1304.95 546.814C1320.17 554.027 1326.09 556.149 1328.12 555.109C1334.56 551.795 1331.04 548.301 1312.54 539.643C1294.29 531.105 1294.24 531.065 1294.24 519.812Z" fill="#CCDBDC"/>
<path d="M1149.44 494.631C1150.94 495.098 1151.4 496.36 1150.64 497.917C1149.97 499.308 1148.2 504.692 1146.71 509.882C1145.22 515.071 1143.7 520.133 1143.34 521.131C1142.82 522.573 1082.5 522.946 849.438 522.946C623.734 522.946 555.696 523.347 554.047 524.688C552.45 525.987 551.906 541.688 551.906 586.381C551.906 606.365 551.906 626.348 551.906 646.332C549.015 646.332 546.124 646.332 543.233 646.332C538.463 646.332 530.834 646.747 526.28 647.256C523.519 647.563 520.761 647.871 518 648.179C518.012 626.702 518.027 605.224 518.039 583.748C518.082 512.563 518.007 513.084 529.79 503.509C541.545 493.957 516.792 494.679 847.225 494.256C1012.1 494.046 1148.1 494.213 1149.44 494.631Z" fill="#007EA7"/>
<path d="M822.957 888.193C823.28 885.073 823.605 881.953 823.928 878.832C828.211 837.562 839.67 826.245 888.876 814.693C915.564 808.428 918.472 808.329 921.828 813.571C934.333 833.099 972.105 836.291 989.91 819.325C993.323 816.072 996.117 812.545 996.117 811.488C996.117 808.566 1002.58 809.144 1023.52 813.94C1044.13 818.659 1056.1 822.764 1055.62 824.948C1055.46 825.701 1048.77 835.32 1040.76 846.322C1032.75 857.323 1026.47 867.48 1026.8 868.888C1027.12 870.296 1029.14 871.651 1031.26 871.9C1035.32 872.373 1042.45 863.499 1068.06 826.154C1073.61 818.058 1079.18 810.753 1080.42 809.922C1082.09 808.814 1087.9 810.859 1102.15 817.569C1108.64 820.622 1115.12 823.674 1121.61 826.727C1119.07 830.541 1116.53 834.354 1113.99 838.168C1109.8 844.459 1099.88 858.944 1091.94 870.357C1087.12 877.273 1082.31 884.189 1077.5 891.105C1039.06 891.105 1000.63 891.105 962.199 891.105C948.512 891.105 934.827 891.105 921.141 891.105C894.958 891.105 880.082 890.578 880.082 888.193C879.934 883.582 879.784 878.971 879.636 874.359C879.222 861.502 878.931 860.525 875.53 860.527C868.907 860.528 867.586 863.36 867.586 877.564C867.586 882.078 867.586 886.592 867.586 891.105C860.481 891.105 853.374 891.105 846.269 891.105C833.914 891.105 824.533 890.494 822.957 888.193Z" fill="#007EA7"/>
<path d="M665.91 581.242C672.49 572.439 674.461 572.229 750.658 572.229C826.856 572.229 828.827 572.439 835.407 581.242C838.7 585.647 839.011 588.545 839.016 614.915C839.02 633.442 838.304 644.906 837.015 646.948C833.547 652.442 828.05 656.496 822.8 657.436C817.766 658.338 817.734 658.418 817.223 670.965C816.527 688.059 815.017 688.082 793.161 671.35C787.407 666.946 781.652 662.541 775.899 658.137C759.861 658.137 743.823 658.137 727.785 658.137C660.406 658.137 662.289 659.399 662.3 614.235C662.305 588.546 662.625 585.637 665.91 581.242ZM824.901 585.132C823.764 583.986 822.627 582.84 821.49 581.694C798.222 581.556 774.956 581.419 751.688 581.28C728.421 581.142 705.155 581.007 681.887 580.868C680.407 582.075 678.925 583.284 677.445 584.491C673.033 588.09 673.004 588.285 673.004 615.183C673.004 641.982 673.049 642.288 677.386 645.826C678.847 647.017 680.307 648.209 681.767 649.4C698.228 649.4 714.687 649.4 731.148 649.4C747.609 649.4 764.067 649.4 780.527 649.4C784.557 652.314 788.584 655.226 792.613 658.14C796.642 661.053 800.669 663.965 804.698 666.879C805.213 664.095 805.727 661.309 806.241 658.525C807.76 650.297 807.883 650.159 814.472 649.288C827.932 647.509 828.313 646.59 828.313 615.847C828.313 591.163 827.988 588.242 824.901 585.132Z" fill="#003249"/>
<path d="M1047.61 702.546C1052.67 710.087 1046.9 722.819 1037.68 724.47C1034.95 724.959 1031.86 725.565 1030.81 725.817C1029.76 726.069 1027.93 729.82 1026.74 734.15C1017.31 768.506 978.689 790.981 943.321 782.689C917.388 776.609 900.076 761.451 891.627 737.429C888.065 727.301 886.271 725.115 881.512 725.115C879.593 725.115 875.674 723.201 872.804 720.859C868.603 717.433 867.586 715.342 867.586 710.135C867.586 701.089 872.492 696.296 882.349 695.712C888.194 695.365 890.02 694.621 890.543 692.376C890.913 690.786 894.856 686.199 899.306 682.183C903.757 678.168 909.275 671.438 911.572 667.228C912.965 664.677 914.357 662.128 915.749 659.577C918.622 661.26 921.494 662.943 924.366 664.626C935.438 671.115 956.56 679.231 970.232 682.252C976.123 683.554 991.115 684.97 1003.55 685.4C1011.08 685.661 1018.62 685.918 1026.15 686.179C1026.53 687.814 1026.91 689.452 1027.28 691.087C1028.29 695.47 1029.04 695.994 1034.24 695.994C1040.53 695.994 1044.53 697.954 1047.61 702.546ZM931.723 745.557C926.85 747.684 927.428 750.081 934.083 755.317C941.422 761.091 947.563 762.973 959.073 762.973C974.349 762.973 990.913 754.223 987.873 747.76C986.497 744.833 979.367 744.846 976.382 747.78C972.789 751.311 964.732 754.236 958.6 754.236C952.354 754.236 947.588 752.483 940.202 747.473C936.223 744.773 934.44 744.372 931.723 745.557Z" fill="#CCDBDC"/>
<path d="M626.706 859.8C627.424 862.203 628.093 869.436 628.193 875.875C628.254 879.777 628.314 883.678 628.375 887.58C624.358 889.335 620.342 891.089 616.325 892.844C609.699 895.739 597.447 899.957 589.102 902.218C574.911 906.064 572.019 906.329 544.473 906.329C515.807 906.329 514.562 906.199 498.059 901.543C488.731 898.911 475.985 894.339 469.734 891.384C465.945 889.593 462.156 887.8 458.367 886.009C458.748 881.905 459.128 877.802 459.508 873.697C461.063 856.897 463.703 850.634 472.14 843.743C479.372 837.836 494.412 832.614 510.057 830.577C516.137 829.785 517.217 830.155 520.994 834.327C531.695 846.143 555.398 845.901 566.655 833.862C568.256 832.151 569.856 830.437 571.457 828.727C575.659 829.676 579.862 830.628 584.064 831.578C600.934 835.391 606.741 837.488 613.712 842.281C620.026 846.623 624.623 852.821 626.706 859.8ZM488.433 861.853C484.284 864.662 484.311 883.122 488.467 884.422C493.674 886.051 496.273 882.494 496.273 873.733C496.273 863.855 492.939 858.803 488.433 861.853ZM594.434 861.984C593.495 863.186 592.713 868.184 592.699 873.091C592.67 882.545 595.135 886.094 600.553 884.399C604.95 883.023 603.911 863.737 599.316 861.409C596.862 860.166 595.753 860.295 594.434 861.984Z" fill="#007EA7"/>
<path d="M824.901 585.132C827.988 588.242 828.312 591.163 828.312 615.847C828.312 646.59 827.932 647.509 814.472 649.288C807.883 650.159 807.76 650.297 806.241 658.525C805.727 661.309 805.213 664.095 804.698 666.879C800.669 663.965 796.642 661.053 792.613 658.14C788.584 655.226 784.557 652.314 780.527 649.4C764.067 649.4 747.609 649.4 731.148 649.4C714.687 649.4 698.228 649.4 681.767 649.4C680.307 648.209 678.847 647.017 677.386 645.826C673.049 642.288 673.004 641.982 673.004 615.183C673.004 588.285 673.032 588.09 677.445 584.491C678.925 583.284 680.407 582.075 681.887 580.868C705.155 581.007 728.421 581.142 751.688 581.28C774.956 581.419 798.222 581.556 821.49 581.694C822.627 582.84 823.764 583.986 824.901 585.132Z" fill="#80CED7"/>
<path d="M1055.55 607.536C1057.88 617.386 1054.8 627.003 1046.93 634.506C1041.25 639.917 1041.07 640.453 1042.83 646.605C1043.84 650.144 1044.23 659.28 1043.7 666.906C1042.2 688.319 1039.91 690.767 1033.85 677.429C1025.87 659.869 1018.32 652.503 1012.87 656.948C1010.14 659.182 1010.26 659.836 1014.63 666.208C1017.21 669.979 1019.32 673.964 1019.32 675.065C1019.32 679.548 983.462 676.158 961.114 669.562C945.499 664.954 923.186 653.301 918.277 647.19C916.556 645.047 913.675 643.576 911.197 643.576C907.754 643.576 906.829 644.536 905.933 649.036C903.84 659.545 899.017 667.653 890.477 675.018C885.741 679.102 881.867 683.2 881.867 684.123C881.867 685.046 880.73 685.802 879.341 685.802C875.897 685.802 873.994 668.354 875.237 648.19C876.362 629.952 878.802 623.049 886.48 616.409C891.011 612.491 893.478 611.543 899.147 611.543C904.887 611.543 906.915 610.743 910.115 607.211C918.868 597.555 952.39 595.857 995.224 602.901C1015.14 606.177 1041.28 607.345 1049.99 605.352C1054.06 604.421 1054.9 604.75 1055.55 607.536Z" fill="#003249"/>
<path d="M1085.38 665.417C1088.16 658.834 1091.44 655.23 1094.45 653.161C1096.28 651.908 1098.1 650.654 1099.93 649.4C1122.42 649.4 1144.9 649.4 1167.39 649.4C1233.09 649.4 1234.97 649.479 1239.59 652.441C1247.05 657.23 1249.61 662.754 1249.61 674.081C1249.61 677.502 1249.61 680.924 1249.61 684.346C1249 687.297 1248.38 690.249 1247.77 693.2C1243.93 711.702 1238.22 713.832 1194.24 713.192C1169.77 712.835 1163.43 713.126 1165.71 716.379C1158.42 716.379 1151.13 716.379 1143.85 716.379C1138.84 720.367 1133.83 724.357 1128.82 728.345C1110.42 742.991 1107.98 742.844 1107.17 727.037C1107 723.653 1106.83 720.271 1106.65 716.887C1104.24 716.018 1101.82 715.149 1099.4 714.279C1088.31 710.288 1085.46 703.82 1085.41 682.526C1085.4 676.822 1085.39 671.12 1085.38 665.417ZM1235.2 661.973C1233.96 660.695 1232.73 659.415 1231.5 658.137C1210.21 658.137 1188.92 658.137 1167.64 658.137C1108.04 658.137 1103.58 658.314 1100.83 660.8C1098.39 662.991 1097.87 666.824 1097.87 682.415C1097.87 698.927 1098.29 701.677 1101.14 703.777C1102.93 705.102 1106.08 706.187 1108.13 706.187C1115.7 706.187 1117.51 707.71 1117.51 714.107C1117.51 717.491 1118.02 720.676 1118.64 721.181C1119.26 721.686 1124.61 718.521 1130.54 714.144C1134.14 711.491 1137.73 708.839 1141.32 706.187C1156.4 706.187 1171.47 706.187 1186.54 706.187C1242.75 706.187 1238.9 707.884 1238.9 683.086C1238.9 667.814 1238.47 665.365 1235.2 661.973Z" fill="#003249"/>
<path d="M1235.2 661.973C1238.47 665.365 1238.9 667.814 1238.9 683.086C1238.9 707.884 1242.75 706.187 1186.54 706.187C1171.47 706.187 1156.4 706.187 1141.32 706.187C1137.73 708.839 1134.14 711.491 1130.54 714.144C1124.61 718.521 1119.26 721.686 1118.64 721.181C1118.02 720.676 1117.51 717.491 1117.51 714.107C1117.51 707.71 1115.7 706.187 1108.13 706.187C1106.08 706.187 1102.93 705.102 1101.14 703.777C1098.29 701.677 1097.87 698.927 1097.87 682.415C1097.87 666.824 1098.39 662.991 1100.83 660.8C1103.58 658.314 1108.04 658.137 1167.64 658.137C1188.92 658.137 1210.21 658.137 1231.5 658.137C1232.73 659.415 1233.96 660.695 1235.2 661.973Z" fill="#80CED7"/>
<path d="M598.333 758.102C604.382 762.568 601.578 770.415 593.063 772.836C588.834 774.039 587.525 775.726 584.937 783.321C579.14 800.328 558.329 812.726 539.11 810.624C522.712 808.83 507.654 797.247 502.341 782.34C500.217 776.377 498.351 774.066 494.278 772.348C486.678 769.142 484.245 764.101 488.028 759.392C489.663 757.357 492.68 755.692 494.733 755.692C499.085 755.692 511.331 745.452 515.08 738.678C515.935 737.132 516.792 735.586 517.647 734.039C521.076 735.724 524.506 737.409 527.935 739.093C541.606 745.807 552.879 748.488 571.55 749.456C584.676 750.138 587.158 750.67 587.897 752.975C588.375 754.469 590.185 755.692 591.919 755.692C593.652 755.692 596.537 756.777 598.333 758.102ZM527.712 786.734C520.709 788.925 528.138 797.199 538.537 798.79C540.515 799.093 542.495 799.396 544.473 799.699C546.451 799.396 548.43 799.093 550.408 798.79C557.533 797.7 564.109 793.061 564.109 789.125C564.109 785.689 559.172 785.332 554.186 788.407C549.566 791.257 541.697 791.185 535.575 788.235C532.833 786.915 529.293 786.239 527.712 786.734Z" fill="#CCDBDC"/>
<path d="M596.565 698.006C599.432 697.696 602.301 697.385 605.168 697.075C605.168 699.011 605.168 700.948 605.168 702.884C605.168 706.577 603.643 710.526 600.982 713.725C597.21 718.257 596.878 719.936 597.64 730.672C598.349 740.664 598.049 742.588 595.773 742.588C594.28 742.588 591.836 740.094 590.34 737.045C587.043 730.324 583.435 727.658 579.365 728.932C577.234 729.598 576.663 730.81 577.468 732.96C579.96 739.619 579.485 740.391 572.603 740.855C557.984 741.842 533.921 734.16 522.467 724.85C514.712 718.546 511.29 719.397 508.07 728.432C505.526 735.567 495.932 745.708 493.558 743.772C493.026 743.338 492.112 739.682 491.527 735.648C489.111 719.019 495.606 703.133 505.26 702.054C507.681 701.783 511.269 700.354 513.232 698.876C522.046 692.242 535.94 691.512 567.556 696.025C580.627 697.89 591.054 698.602 596.565 698.006Z" fill="#003249"/>
<path d="M1196.7 775.071C1200 776.105 1200.52 780.722 1197.81 784.863C1196.81 786.387 1192.19 789.415 1187.54 791.59C1182.9 793.765 1175.79 797.359 1171.76 799.575C1166.71 802.344 1158.65 804.563 1145.97 806.672C1135.82 808.358 1125.39 810.768 1122.77 812.026C1118.22 814.219 1117.52 814.083 1105.96 808.808C1101.94 806.973 1097.91 805.139 1093.89 803.304C1094.25 801.177 1094.6 799.049 1094.96 796.922C1095.55 793.413 1097.13 788.839 1098.46 786.759C1101.42 782.158 1124.95 767.007 1126.8 768.516C1127.53 769.109 1125.78 772.479 1122.92 776.004C1115.1 785.646 1116.94 787.066 1138.81 788.235C1144.78 788.554 1150.75 788.874 1156.71 789.193C1162.89 786.687 1169.07 784.18 1175.25 781.674C1186.3 777.19 1194.96 774.525 1196.7 775.071Z" fill="#CCDBDC"/>
<path d="M1245.94 1153.2C1246.77 1150.58 1248.3 1149.56 1251.39 1149.56C1253.76 1149.56 1257.5 1148.08 1259.71 1146.28C1261.92 1144.48 1264.97 1143 1266.49 1143C1268.01 1143 1269.25 1142.02 1269.25 1140.82C1269.25 1139.46 1267.56 1138.64 1264.78 1138.64C1261.51 1138.64 1260.32 1137.86 1260.32 1135.72C1260.32 1133.54 1259.13 1132.81 1255.58 1132.81C1250.95 1132.81 1250.91 1132.75 1254.08 1129.89C1255.87 1128.28 1259.8 1125.96 1262.81 1124.73C1267.74 1122.73 1268.5 1122.73 1270.31 1124.74C1272.73 1127.44 1276.66 1127.64 1279.64 1125.2C1281.37 1123.79 1282.62 1123.82 1285.57 1125.32C1288.25 1126.69 1289.85 1126.78 1291.24 1125.65C1294.68 1122.84 1309.89 1123.74 1313.88 1126.99C1318.15 1130.47 1319.86 1130.61 1322.8 1127.71C1326.01 1124.56 1330.87 1125.03 1334.03 1128.81C1336.7 1132 1336.84 1132.01 1339.33 1129.31C1343.14 1125.2 1345.03 1129 1341.41 1133.5C1338.79 1136.77 1338.77 1137.18 1341.23 1137.18C1344.96 1137.18 1346.48 1139.48 1345.11 1143.02C1343.64 1146.8 1339.22 1146.7 1334.07 1142.75C1330.03 1139.66 1329.94 1139.65 1329.94 1142.51C1329.94 1146.44 1328.1 1147.69 1325.2 1145.72C1323.5 1144.58 1322.8 1144.56 1322.8 1145.69C1322.8 1148.84 1314.61 1150.81 1302.79 1150.49C1290.35 1150.16 1283.19 1148.08 1279.23 1143.67C1277.05 1141.24 1276.51 1141.34 1270.4 1145.32C1263.07 1150.09 1262.22 1152.5 1267.46 1153.62C1274.59 1155.14 1270.77 1157.36 1259.29 1158.36C1246.4 1159.48 1244.22 1158.64 1245.94 1153.2Z" fill="#EBECEE"/>
<path d="M392.734 761.517C392.211 804.683 393.689 813.278 405.086 833.363C406.919 836.594 408.753 839.825 410.586 843.056C410.231 843.056 409.874 843.056 409.518 843.056C408.931 843.056 409.292 845.021 410.318 847.424C413.255 854.296 408.524 852.977 399.875 844.512C393 834.509 388.861 825.828 386.242 818.766C381.9 807.062 381.504 803.964 381.752 783.721C381.843 776.32 381.932 768.918 382.023 761.517C382.887 760.061 383.751 758.604 384.615 757.148C386.04 754.746 387.997 752.78 388.964 752.78C389.932 752.78 391.176 754.746 392.734 761.517Z" fill="#1C62AB"/>
<path d="M984.092 796.705C984.473 800.175 984.923 804.111 985.094 805.45C985.265 806.79 983.236 809.992 980.581 812.565C971.67 821.203 957.078 823.601 944.723 818.457C933.449 813.764 931.273 810.782 931.65 800.543C931.832 795.571 932.221 791.308 932.514 791.069C932.807 790.83 938.46 791.724 945.08 793.056C956.821 795.419 969.797 794.801 980.386 791.372C982.884 790.564 983.521 791.478 984.092 796.705Z" fill="#CCDBDC"/>
<path d="M1281.74 483.41C1286.34 478.854 1287.57 478.655 1290.12 479.926C1292.93 481.329 1293.4 484.016 1293.79 500.675C1293.94 507.054 1294.09 513.433 1294.24 519.811C1293.79 519.807 1293.35 519.804 1292.9 519.8C1292.16 519.794 1290.96 522.199 1290.22 525.145C1289.19 529.27 1289.6 531.198 1292.01 533.529C1295.03 536.457 1295 536.544 1291.11 536.21C1288.64 535.996 1287.09 534.876 1287.07 533.297C1287.06 531.887 1285.85 529.257 1281.74 524.18C1281.74 510.59 1281.74 496.999 1281.74 483.41Z" fill="#1C62AB"/>
<path d="M508.675 1145.24C509.708 1144.71 510.555 1142.69 510.555 1140.73C510.555 1137.55 511.306 1137.18 517.815 1137.18C524.157 1137.18 524.939 1136.82 523.991 1134.39C522.67 1130.99 524.716 1129.76 529.865 1130.86C532.901 1131.51 533.499 1132.43 532.658 1135.16C531.739 1138.15 532.232 1138.63 536.189 1138.63C539.546 1138.63 540.513 1138.04 539.763 1136.45C539.112 1135.07 539.787 1134.27 541.604 1134.27C543.182 1134.27 544.485 1135.41 544.499 1136.81C544.576 1143.94 553.821 1144.66 557.028 1137.78C558.65 1134.3 562.992 1133.07 564.877 1135.56C565.414 1136.27 564.675 1137.65 563.235 1138.62C561.28 1139.95 561.078 1141.11 562.444 1143.19C565.348 1147.61 562.808 1149.15 554.553 1147.98C550.481 1147.39 544.182 1147.04 540.554 1147.2C535.295 1147.42 533.528 1146.8 531.834 1144.15C530.664 1142.32 529.495 1140.61 529.236 1140.36C528.977 1140.11 525.452 1142.71 521.399 1146.15C515.442 1151.21 513.464 1152.11 511.062 1150.88C507.297 1148.94 506.247 1146.46 508.675 1145.24Z" fill="#EBECEE"/>
<path d="M1294.24 519.812C1294.24 531.065 1294.29 531.105 1312.54 539.643C1331.04 548.301 1334.56 551.795 1328.12 555.109C1326.09 556.149 1320.17 554.027 1304.95 546.814C1293.71 541.484 1283.9 536.339 1283.15 535.383C1282.41 534.426 1281.78 531.515 1281.77 528.912C1281.76 527.335 1281.75 525.757 1281.74 524.18C1285.85 529.257 1287.06 531.887 1287.07 533.298C1287.09 534.876 1288.64 535.996 1291.11 536.21C1295 536.545 1295.03 536.457 1292.01 533.529C1289.6 531.198 1289.19 529.27 1290.22 525.145C1290.96 522.2 1292.16 519.794 1292.9 519.8C1293.35 519.804 1293.79 519.807 1294.24 519.812Z" fill="#1962A8"/>
<path d="M931.723 745.557C934.44 744.372 936.223 744.773 940.203 747.473C947.588 752.483 952.354 754.236 958.6 754.236C964.732 754.236 972.789 751.311 976.382 747.78C979.367 744.846 986.497 744.833 987.873 747.76C990.914 754.223 974.349 762.973 959.074 762.973C947.563 762.973 941.422 761.091 934.083 755.317C927.428 750.081 926.85 747.684 931.723 745.557Z" fill="#1962A8"/>
<path d="M543.578 819.009C548.636 819.016 553.695 819.023 558.752 819.031C558.743 820.487 558.734 821.943 558.725 823.399C558.711 825.801 558.109 828.488 557.388 829.369C553.595 834.003 542.072 835.688 534.983 832.645C529.749 830.398 528.465 828.581 528.433 823.377C528.424 821.914 528.415 820.45 528.406 818.987C533.464 818.994 538.521 819.002 543.578 819.009Z" fill="#CCDBDC"/>
<path d="M527.712 786.734C529.293 786.239 532.833 786.914 535.575 788.235C541.697 791.185 549.566 791.256 554.186 788.407C559.172 785.332 564.109 785.689 564.109 789.125C564.109 793.061 557.533 797.7 550.408 798.79C548.43 799.093 546.451 799.396 544.473 799.699C542.495 799.396 540.515 799.093 538.537 798.79C528.138 797.199 520.709 788.925 527.712 786.734Z" fill="#1C62AB"/>
<path d="M1201.41 579.51C1198.56 580.807 1198.91 582.495 1200.54 584.682C1201.42 585.87 1202.31 587.058 1203.2 588.246C1203.2 589.459 1203.2 590.673 1203.2 591.886C1203.2 593.888 1202.41 595.526 1201.46 595.526C1199.3 595.526 1187.13 580.97 1187.13 578.386C1187.13 576.407 1203.01 570.133 1204.64 571.466C1205.16 571.889 1204.64 573.87 1201.41 579.51Z" fill="#1C62AB"/>
<path d="M1315.66 755.692C1316.35 899.005 1315.95 940.611 1315.21 940.611C1314.77 940.611 1314.32 940.611 1313.88 940.611C1314.47 878.972 1315.07 817.332 1315.66 755.692Z" fill="#5697E6"/>
<path d="M880.082 888.193C880.082 890.578 894.958 891.105 921.141 891.105C934.827 891.105 948.512 891.105 962.199 891.105C961.492 892.058 942.414 892.497 919.347 892.697C881.169 893.027 877.404 892.841 877.404 890.626C877.404 889.288 878.006 888.193 878.743 888.193C879.189 888.193 879.636 888.193 880.082 888.193Z" fill="#1962A8"/>
<path d="M594.434 861.984C595.753 860.295 596.862 860.166 599.316 861.409C603.911 863.738 604.95 883.023 600.553 884.399C595.135 886.094 592.67 882.545 592.699 873.091C592.713 868.184 593.495 863.186 594.434 861.984Z" fill="#1962A8"/>
<path d="M488.433 861.853C492.939 858.803 496.273 863.855 496.273 873.733C496.273 882.494 493.674 886.051 488.467 884.422C484.311 883.122 484.284 864.662 488.433 861.853Z" fill="#1962A8"/>
<path d="M1352.16 1131.42C1355.24 1129.33 1362.4 1129.93 1363.38 1132.35C1363.77 1133.3 1362.02 1135.18 1359.5 1136.53C1355.8 1138.51 1354.4 1138.63 1352.25 1137.17C1348.91 1134.91 1348.89 1133.64 1352.16 1131.42Z" fill="#EBECEE"/>
<path d="M1249.61 684.346C1249.59 714.319 1246.27 716.379 1198.02 716.379C1187.25 716.379 1176.48 716.379 1165.71 716.379C1163.43 713.126 1169.77 712.835 1194.24 713.192C1238.22 713.832 1243.93 711.702 1247.77 693.2C1248.38 690.249 1249 687.297 1249.61 684.346Z" fill="#2667A9"/>
<circle cx="183" cy="170" r="90" fill="#9AD1D4"/>
<path d="M172.634 212.104C167.43 212.104 162.792 211.21 158.719 209.423C154.672 207.636 151.453 205.153 149.062 201.973C146.697 198.767 145.409 195.049 145.199 190.818H155.132C155.342 193.42 156.236 195.667 157.812 197.559C159.389 199.424 161.452 200.87 164.001 201.895C166.55 202.919 169.375 203.432 172.476 203.432C175.945 203.432 179.019 202.827 181.7 201.619C184.38 200.41 186.482 198.728 188.006 196.573C189.531 194.418 190.293 191.922 190.293 189.084C190.293 186.114 189.557 183.5 188.085 181.24C186.614 178.953 184.459 177.167 181.621 175.879C178.783 174.591 175.314 173.947 171.214 173.947H164.75V165.276H171.214C174.42 165.276 177.232 164.697 179.65 163.541C182.094 162.385 183.999 160.756 185.365 158.653C186.758 156.551 187.455 154.081 187.455 151.243C187.455 148.51 186.85 146.132 185.641 144.108C184.433 142.085 182.724 140.508 180.517 139.378C178.336 138.248 175.761 137.683 172.791 137.683C170.006 137.683 167.378 138.196 164.908 139.221C162.464 140.219 160.467 141.678 158.916 143.596C157.366 145.488 156.525 147.774 156.393 150.455H146.933C147.091 146.224 148.365 142.518 150.757 139.339C153.148 136.133 156.275 133.636 160.138 131.849C164.027 130.062 168.298 129.169 172.949 129.169C177.942 129.169 182.225 130.181 185.799 132.204C189.373 134.201 192.119 136.842 194.037 140.127C195.956 143.412 196.915 146.96 196.915 150.77C196.915 155.316 195.719 159.192 193.328 162.398C190.963 165.604 187.744 167.825 183.67 169.06V169.69C188.768 170.531 192.75 172.699 195.614 176.194C198.478 179.663 199.911 183.96 199.911 189.084C199.911 193.472 198.715 197.414 196.324 200.909C193.958 204.378 190.726 207.111 186.627 209.108C182.527 211.105 177.863 212.104 172.634 212.104Z" fill="black"/>
</g>
<defs>
<clipPath id="clip0_17_384">
<path d="M0 182C0 81.4842 81.4842 0 182 0H1646C1746.52 0 1828 81.4842 1828 182V1491H0V182Z" fill="white"/>
</clipPath>
</defs>
</svg>
