<svg width="2449" height="921" viewBox="0 0 2449 921" fill="none" xmlns="http://www.w3.org/2000/svg">
<g clip-path="url(#clip0_13_117)">
<path d="M1322.44 310.355C1329.74 312.494 1335.81 315.564 1340.06 319.26C1344.3 322.957 1346.57 327.151 1346.64 331.429C1346.71 335.707 1344.57 339.92 1340.45 343.651C1336.32 347.381 1330.35 350.5 1323.11 352.699C1315.88 354.898 1307.64 356.1 1299.21 356.187C1290.78 356.273 1282.45 355.242 1275.05 353.193C1267.65 351.145 1261.43 348.151 1257.01 344.509C1252.59 340.866 1250.12 336.7 1249.84 332.425L1249.82 331.628L1249.84 330.832C1250.11 326.59 1252.55 322.456 1256.9 318.832C1261.26 315.209 1267.4 312.221 1274.71 310.159C1282.02 308.096 1290.26 307.03 1298.62 307.065C1306.99 307.099 1315.19 308.233 1322.44 310.355ZM1313.72 337.237C1313.27 337.011 1312.73 336.832 1312.14 336.712C1311.55 336.592 1310.92 336.531 1310.29 336.534C1309.65 336.538 1309.02 336.604 1308.44 336.731C1307.85 336.857 1307.32 337.04 1306.88 337.271C1305.75 337.855 1304.41 338.319 1302.92 338.635C1301.44 338.952 1299.84 339.115 1298.23 339.115C1296.62 339.115 1295.03 338.952 1293.54 338.635C1292.06 338.319 1290.71 337.855 1289.58 337.271C1288.69 336.806 1287.46 336.541 1286.18 336.534C1284.89 336.528 1283.66 336.781 1282.74 337.237C1281.82 337.693 1281.3 338.315 1281.29 338.966C1281.28 339.617 1281.77 340.244 1282.67 340.709C1284.7 341.76 1287.12 342.594 1289.79 343.163C1292.46 343.733 1295.33 344.026 1298.23 344.026C1301.13 344.026 1304 343.733 1306.67 343.163C1309.34 342.594 1311.76 341.76 1313.79 340.709C1314.24 340.479 1314.59 340.207 1314.82 339.907C1315.06 339.608 1315.18 339.288 1315.17 338.966C1315.17 338.643 1315.04 338.325 1314.79 338.028C1314.54 337.731 1314.18 337.462 1313.72 337.237ZM1283.76 324.252L1283.14 324.269C1281.91 324.339 1280.78 324.647 1279.98 325.127C1279.19 325.608 1278.78 326.226 1278.86 326.853C1278.93 327.48 1279.47 328.07 1280.38 328.5C1281.28 328.93 1282.47 329.168 1283.71 329.165L1284.32 329.148C1285.55 329.077 1286.69 328.77 1287.48 328.289C1288.28 327.808 1288.69 327.191 1288.61 326.563C1288.54 325.936 1288 325.347 1287.09 324.916C1286.19 324.486 1285 324.248 1283.76 324.252ZM1312.8 324.252L1312.19 324.269C1310.96 324.339 1309.83 324.647 1309.03 325.127C1308.23 325.608 1307.83 326.226 1307.9 326.853C1307.97 327.48 1308.52 328.07 1309.42 328.5C1310.32 328.93 1311.52 329.168 1312.76 329.165L1313.37 329.148C1314.6 329.077 1315.73 328.77 1316.53 328.289C1317.33 327.808 1317.73 327.191 1317.66 326.563C1317.59 325.936 1317.04 325.347 1316.14 324.916C1315.24 324.486 1314.04 324.248 1312.8 324.252Z" fill="#003249"/>
<path d="M1836.95 796.924L1836.12 796.902H1795.36C1794.12 796.905 1792.92 796.678 1792 796.264C1791.07 795.85 1790.47 795.278 1790.31 794.655L1790.27 794.353V769.956C1790.28 769.507 1790.52 769.065 1790.97 768.678C1791.42 768.29 1792.06 767.968 1792.82 767.745C1794.99 767.122 1796.82 766.237 1798.14 765.168C1799.47 764.098 1800.25 762.88 1800.42 761.62L1800.47 761.105V758.539C1800.48 757.527 1800.88 756.525 1801.65 755.591C1802.43 754.658 1803.56 753.811 1804.97 753.099C1806.39 752.387 1808.07 751.823 1809.92 751.44C1811.77 751.058 1813.75 750.864 1815.75 750.869C1819.63 750.86 1823.37 751.603 1826.2 752.946C1829.04 754.289 1830.76 756.132 1831.01 758.096L1831.03 758.538V768.773H1841.22C1844.95 768.765 1848.56 769.452 1851.36 770.702C1854.16 771.952 1855.95 773.68 1856.41 775.558L1856.49 776L1856.51 776.445L1856.41 776.947L1851.28 789.819C1849.37 793.946 1843.71 796.926 1837.13 796.926L1836.95 796.924ZM1775.91 796.902C1773.36 796.911 1770.89 796.43 1769.01 795.555C1767.13 794.679 1765.96 793.472 1765.76 792.18L1765.72 791.798V773.889C1765.73 772.591 1766.71 771.344 1768.46 770.397C1770.21 769.45 1772.6 768.872 1775.15 768.781L1775.91 768.772H1781.02C1782.26 768.77 1783.46 768.999 1784.39 769.416C1785.32 769.832 1785.92 770.408 1786.07 771.033L1786.11 771.329V794.347C1786.11 794.977 1785.64 795.583 1784.81 796.051C1783.98 796.52 1782.84 796.818 1781.61 796.888L1781.02 796.897L1775.91 796.902Z" fill="#003249"/>
<path d="M1646.42 786.353C1508.23 786.353 1358.06 775.932 1208.9 755.897C1024.44 731.121 855.32 693.722 719.809 647.744L723.821 644.699C858.692 690.453 1027.06 727.682 1210.75 752.355C1376.75 774.654 1543.99 784.986 1694.34 782.259L1694.6 785.92C1678.72 786.211 1662.66 786.355 1646.42 786.353Z" fill="#090814"/>
<path d="M1625.72 310.461C1580.84 303.047 1534.69 296.143 1488.52 289.942C1222.87 254.258 961.73 241.589 733.324 253.311L732.597 249.666C961.852 237.906 1223.88 250.599 1490.37 286.401C1536.65 292.622 1582.95 299.543 1627.96 306.979L1625.72 310.461Z" fill="#090814"/>
<path d="M408.418 595.534C297.696 540.228 250.929 482.531 276.736 433.072C309.84 369.602 456.971 325.717 680.375 312.671L681.199 316.312C460.901 329.175 316.032 372.074 283.73 434.01C258.617 482.144 304.703 538.58 413.497 592.924L408.418 595.534Z" fill="#090814"/>
<path d="M1910.06 763.622L1907.75 760.151C2031.34 738.948 2108.64 704.794 2131.3 661.376C2160.1 606.181 2097.53 542.132 1955.13 481.027C1812.01 419.611 1605.62 368.65 1373.96 337.535L1375.8 333.992C1608.45 365.244 1815.85 416.468 1959.78 478.229C2104.43 540.3 2167.82 605.676 2138.26 662.314C2114.98 706.977 2036.06 742.007 1910.06 763.622Z" fill="#090814"/>
<path d="M681.061 773.9C409.528 712.795 200.289 633.52 91.8927 550.675L97.9098 548.653C205.555 630.927 413.693 709.729 683.983 770.556L681.061 773.9Z" fill="#090814"/>
<path d="M1759.67 614.583C1775.63 614.583 1788.56 608.021 1788.56 599.926C1788.56 591.831 1775.63 585.269 1759.67 585.269C1743.72 585.269 1730.78 591.831 1730.78 599.926C1730.78 608.021 1743.72 614.583 1759.67 614.583Z" fill="#E6E6E6"/>
<path d="M1222.18 208.05C1238.14 208.05 1251.07 201.488 1251.07 193.393C1251.07 185.298 1238.14 178.736 1222.18 178.736C1206.23 178.736 1193.3 185.298 1193.3 193.393C1193.3 201.488 1206.23 208.05 1222.18 208.05Z" fill="#E6E6E6"/>
<path d="M616.872 755.6C616.872 759.333 617.115 763.066 617.63 766.762C618.175 771.184 619.113 775.575 620.388 779.936C624.659 794.617 632.822 808.938 644.656 822.509L646.47 824.531L647.39 825.544C647.696 825.881 648.024 826.219 648.328 826.542C648.751 826.987 649.146 827.418 649.554 827.847C650.069 828.384 650.584 828.922 651.126 829.458C651.188 829.519 651.246 829.597 651.338 829.673C651.792 830.14 652.215 830.578 652.699 831.04C652.789 831.141 652.892 831.238 653.005 831.333C653.52 831.855 654.063 832.392 654.609 832.914C655.222 833.466 655.789 834.036 656.393 834.588C657.845 835.955 659.357 837.305 660.902 838.656C661.355 839.056 661.821 839.454 662.293 839.854C662.716 840.222 663.139 840.591 663.593 840.96C663.899 841.205 664.206 841.467 664.512 841.712C664.997 842.128 665.481 842.526 665.996 842.941C667.115 843.846 668.264 844.753 669.386 845.658H669.417C669.932 846.073 670.477 846.487 671.02 846.887V846.902C672.623 848.131 674.287 849.358 675.952 850.571C675.96 850.571 675.968 850.573 675.973 850.576C675.979 850.579 675.982 850.583 675.982 850.587C677.313 851.57 678.704 852.521 680.068 853.473V853.489C680.988 854.088 681.852 854.702 682.763 855.301C683.489 855.792 684.246 856.299 685 856.791C685.151 856.898 685.335 856.99 685.485 857.102V857.117C685.696 857.256 685.908 857.379 686.119 857.517C689.327 859.605 692.636 861.647 696.044 863.643L696.59 863.965C696.771 864.072 696.982 864.18 697.166 864.303C697.473 864.472 697.743 864.64 698.043 864.81C698.343 864.979 698.619 865.147 698.92 865.317C716.691 875.474 736.842 884.492 758.925 892.17C761.861 893.198 764.856 894.192 767.851 895.164C768.608 895.41 769.365 895.655 770.119 895.885C770.33 895.962 770.573 896.041 770.784 896.116C771.207 896.238 771.602 896.361 772.01 896.5C772.418 896.638 772.798 896.746 773.221 896.868C774.824 897.375 776.458 897.867 778.092 898.358C778.484 898.481 778.91 898.604 779.318 898.727C779.725 898.85 780.136 898.957 780.544 899.08C780.544 899.096 780.544 899.096 780.574 899.096H780.605V899.111H780.636C782.663 899.709 784.721 900.293 786.809 900.861C787.928 901.172 789.077 901.483 790.23 901.781C792.832 902.503 795.465 903.194 798.098 903.855C799.036 904.085 800.005 904.321 800.943 904.561C801.731 904.744 802.515 904.945 803.303 905.128C803.545 905.189 803.757 905.236 803.968 905.298C804.633 905.453 805.268 905.609 805.936 905.764C806.663 905.934 807.389 906.102 808.082 906.271C808.9 906.455 809.685 906.64 810.503 906.808C813.529 907.499 816.585 908.16 819.641 908.788C830.593 911.066 841.786 913.034 853.168 914.684C853.683 914.76 854.229 914.839 854.771 914.914C859.643 915.605 864.548 916.234 869.485 916.802C878.108 917.815 886.812 918.645 895.597 919.291H895.659L898.807 919.521C898.899 919.521 898.988 919.536 899.113 919.536C899.113 919.552 899.113 919.552 899.144 919.536L902.623 919.767C902.701 919.778 902.783 919.784 902.865 919.782C903.953 919.858 905.075 919.921 906.163 919.981L909.704 920.165L912.425 920.303C912.503 920.317 912.586 920.322 912.668 920.319C913.486 920.35 914.301 920.395 915.12 920.426H915.242L917.361 920.518C925.802 920.855 934.274 921.009 942.869 921.009C952.16 921.009 961.39 920.826 970.496 920.426H970.588L976.428 920.149C976.943 920.118 977.427 920.103 977.942 920.073C978.034 920.073 978.153 920.057 978.248 920.057C978.398 920.042 978.555 920.042 978.733 920.026C978.815 920.028 978.896 920.023 978.975 920.011C979.64 919.98 980.305 919.935 981.001 919.903L983.269 919.765C984.026 919.718 984.783 919.658 985.537 919.61C985.718 919.594 985.872 919.594 986.052 919.578C986.598 919.547 987.141 919.502 987.686 919.456L988.474 919.409C989.02 919.362 989.535 919.333 990.077 919.286H990.108C1006.71 918.075 1023.1 916.203 1039.13 913.687C1039.97 913.549 1040.82 913.426 1041.67 913.287C1041.7 913.287 1041.73 913.272 1041.76 913.272C1042 913.225 1042.28 913.196 1042.52 913.149C1044.79 912.78 1047.03 912.396 1049.26 911.998C1052.35 911.475 1055.39 910.909 1058.46 910.325C1059.27 910.155 1060.09 910.003 1060.91 909.833C1062.57 909.511 1064.21 909.174 1065.84 908.835C1068.62 908.267 1071.41 907.668 1074.16 907.054C1076.73 906.471 1079.28 905.887 1081.83 905.273C1081.89 905.257 1081.98 905.257 1082.04 905.226C1082.61 905.088 1083.19 904.95 1083.73 904.811H1083.76C1097.7 901.418 1111.14 897.523 1123.98 893.157C1128.09 891.761 1132.15 890.318 1136.14 888.828C1139.35 887.614 1142.5 886.386 1145.64 885.128C1161.17 878.862 1175.54 871.894 1188.58 864.309V864.293C1189.52 863.771 1190.4 863.234 1191.3 862.696C1191.45 862.62 1191.58 862.54 1191.7 862.481C1192.27 862.128 1192.81 861.791 1193.39 861.453V861.438C1194.15 860.993 1194.91 860.533 1195.63 860.071C1195.81 859.963 1195.96 859.872 1196.11 859.778V859.763C1196.73 859.394 1197.29 859.026 1197.9 858.641C1198.2 858.458 1198.47 858.273 1198.77 858.089V858.074C1200.56 856.937 1202.28 855.802 1204.01 854.635C1204.46 854.324 1204.93 854.013 1205.4 853.683C1207.58 852.193 1209.69 850.674 1211.75 849.154V849.139C1212.54 848.571 1213.29 847.988 1214.08 847.419L1216.35 845.669C1217.11 845.055 1217.89 844.456 1218.65 843.841L1218.74 843.75C1219.5 843.167 1220.26 842.552 1220.98 841.953C1221.56 841.462 1222.13 840.986 1222.71 840.51C1223.07 840.188 1223.46 839.865 1223.83 839.527C1223.97 839.423 1224.1 839.316 1224.22 839.205L1226.76 836.949C1227.76 836.073 1228.73 835.183 1229.7 834.292C1230.06 833.924 1230.45 833.555 1230.85 833.186C1231 833.063 1231.12 832.941 1231.24 832.818C1231.69 832.388 1232.16 831.942 1232.57 831.497C1232.98 831.053 1233.49 830.622 1233.93 830.177C1234.37 829.732 1234.81 829.301 1235.23 828.856C1235.56 828.519 1235.86 828.181 1236.2 827.844C1236.22 827.817 1236.25 827.791 1236.29 827.768C1236.44 827.598 1236.6 827.446 1236.71 827.292C1236.75 827.269 1236.78 827.243 1236.8 827.216C1237.14 826.878 1237.44 826.525 1237.77 826.188C1238.2 825.743 1238.59 825.283 1239 824.836C1239.27 824.525 1239.57 824.214 1239.84 823.884C1240.24 823.44 1240.66 822.993 1241.02 822.533C1241.45 822.066 1241.84 821.612 1242.24 821.133C1242.35 821.018 1242.45 820.9 1242.54 820.78C1242.75 820.565 1242.9 820.351 1243.09 820.135C1243.57 819.567 1244.06 818.984 1244.51 818.414C1245.06 817.769 1245.57 817.11 1246.04 816.464C1246.53 815.865 1246.98 815.251 1247.43 814.637L1247.61 814.422C1254.66 805 1260.01 795.272 1263.59 785.359V785.343C1265.61 779.682 1267.05 773.972 1267.92 768.235C1267.95 767.913 1268.01 767.613 1268.04 767.302C1268.58 763.414 1268.83 759.526 1268.83 755.603C1268.83 753.868 1268.77 752.149 1268.68 750.429C1266.56 714.466 1241.29 679.844 1196.72 651.861C1195.75 651.247 1194.78 650.632 1193.78 650.018C1192.78 649.404 1191.76 648.805 1190.76 648.206C1157.59 628.496 1115.75 613.016 1068.63 603.015C1021.5 593.013 970.404 588.77 919.453 590.627C868.503 592.484 819.125 600.39 775.301 613.706C731.477 627.023 694.433 645.377 667.155 667.291C665.671 668.488 664.19 669.701 662.768 670.914C661.346 672.128 659.924 673.37 658.532 674.614C631.133 699.339 616.783 727.235 616.872 755.6Z" fill="#9AD1D4"/>
<path d="M814.595 664.846C814.356 664.824 814.117 664.807 813.881 664.785C814.882 664.47 815.825 664.11 816.698 663.709L814.595 664.846Z" fill="white"/>
<path d="M905.145 808.011H974.922L979.263 848.658L896.75 845.405L905.145 808.011Z" fill="#FFB9B9"/>
<path d="M770.428 896.337C773.558 897.204 776.728 898.036 779.894 898.825C781.022 899.102 782.187 899.379 783.315 899.674C784.262 899.897 785.209 900.141 786.153 900.358C786.46 900.432 786.699 900.487 786.953 900.562C787.753 900.747 788.52 900.932 789.32 901.116C790.193 901.32 791.067 901.522 791.904 901.725C792.887 901.946 793.835 902.169 794.816 902.372C798.457 903.203 802.132 903.998 805.81 904.755C818.989 907.496 832.457 909.864 846.152 911.849C846.765 911.941 847.427 912.034 848.08 912.126C853.943 912.955 859.841 913.712 865.776 914.398C876.153 915.617 886.626 916.615 897.197 917.39H897.271L901.057 917.667C901.167 917.667 901.274 917.686 901.421 917.686C901.421 917.704 901.421 917.704 901.458 917.686L905.645 917.962C905.745 917.977 905.848 917.984 905.952 917.981C907.264 918.074 908.609 918.148 909.921 918.222L914.182 918.443L917.459 918.609C917.552 918.626 917.651 918.632 917.75 918.628C918.734 918.665 919.715 918.72 920.699 918.757H920.846L923.393 918.868C933.551 919.274 943.746 919.459 954.085 919.459C965.264 919.459 976.366 919.236 987.325 918.757H987.435L994.46 918.424C995.073 918.387 995.662 918.368 996.281 918.333C996.391 918.333 996.536 918.314 996.646 918.314C996.827 918.295 997.011 918.295 997.228 918.277C997.327 918.279 997.425 918.272 997.519 918.258C998.319 918.221 999.123 918.166 999.972 918.129L1002.7 917.962C1003.62 917.906 1004.52 917.833 1005.43 917.777C1005.65 917.759 1005.84 917.759 1006.05 917.74C1006.7 917.703 1007.36 917.648 1008.01 917.585L1008.96 917.529C1009.61 917.473 1010.23 917.437 1010.89 917.373H1010.93C1030.91 915.914 1050.63 913.66 1069.91 910.631C1070.93 910.465 1071.95 910.32 1072.97 910.15C1068.27 899.027 1058.59 888.6 1044.69 879.676C1030.78 870.753 1013.01 863.571 992.765 858.685C997.774 856.264 1001.24 853.136 1002.71 849.706C1003.65 847.496 1003.73 845.212 1002.93 842.987C1002.13 840.761 1000.47 838.638 998.047 836.739C993.322 833.057 985.91 830.479 977.439 829.57L923.491 823.844C914.805 822.985 905.802 823.9 898.439 826.391C891.076 828.881 885.948 832.746 884.17 837.145C883.619 838.493 883.375 839.869 883.441 841.246C831.448 858.817 794.055 877.014 770.428 896.337Z" fill="#007EA7"/>
<path d="M921.683 820.506C979.42 820.506 1026.23 796.758 1026.23 767.462C1026.23 738.167 979.42 714.418 921.683 714.418C863.945 714.418 817.14 738.167 817.14 767.462C817.14 796.758 863.945 820.506 921.683 820.506Z" fill="#FFB9B9"/>
<path d="M856.522 813.192C845.374 809.328 833.989 801.904 826.391 796.339C816.318 789.024 809.388 780.716 806.049 771.955C802.709 763.194 803.036 754.175 807.006 745.482C808.272 742.006 811.384 738.771 816.005 736.127C820.928 733.654 828.971 732.483 834.982 734.231C833.343 732.002 832.62 729.627 832.86 727.251C833.1 724.876 834.297 722.55 836.377 720.419C840.601 716.162 846.722 712.463 854.253 709.616C868.657 703.988 885.795 700.444 903.848 699.359C921.901 698.275 940.197 699.691 956.792 703.457C963.321 704.992 952.595 693.134 959.431 694.281C966.22 695.615 973.769 695.547 980.461 694.092C986.898 692.45 1008.2 702.206 1005.73 698.775C1010.61 699.899 1014.85 701.631 1018.05 703.81C1021.26 705.989 1023.32 708.543 1024.06 711.236C1024.79 713.929 1024.17 716.672 1022.25 719.21C1020.33 721.749 1017.18 723.999 1013.09 725.753C1007.69 728.064 1000.96 729.394 995.049 731.352C984.7 735.048 977.375 740.537 974.456 746.785C971.538 753.033 973.228 759.607 979.208 765.266C972.992 763.24 966.172 761.736 959.011 760.814C955.419 760.369 951.669 760.366 948.074 760.804C944.479 761.243 941.143 762.111 938.342 763.336C936.002 764.695 934.235 766.282 933.148 768C932.061 769.719 931.678 771.531 932.022 773.327C932.255 776.926 933.944 780.474 934.134 784.073C934.688 794.636 945.84 814.721 929.698 820.337C916.944 824.774 871.738 818.469 856.522 813.192Z" fill="#2F2E41"/>
<path d="M2431.09 393.265C2431.09 396.998 2430.85 400.73 2430.33 404.427C2429.79 408.849 2428.85 413.239 2427.57 417.6C2423.3 432.282 2415.14 446.603 2403.31 460.174L2401.49 462.196L2400.57 463.21C2400.27 463.548 2399.94 463.885 2399.63 464.209C2399.21 464.653 2398.82 465.084 2398.41 465.513C2397.89 466.052 2397.38 466.588 2396.84 467.126C2396.77 467.187 2396.72 467.265 2396.62 467.341C2396.17 467.807 2395.75 468.246 2395.26 468.708C2395.17 468.809 2395.07 468.906 2394.96 469C2394.44 469.523 2393.9 470.059 2393.35 470.582C2392.74 471.134 2392.17 471.703 2391.57 472.255C2390.12 473.623 2388.61 474.973 2387.06 476.324C2386.61 476.724 2386.14 477.122 2385.67 477.522C2385.25 477.89 2384.82 478.259 2384.37 478.627C2384.06 478.873 2383.76 479.134 2383.45 479.38C2382.97 479.795 2382.48 480.194 2381.97 480.609C2380.85 481.514 2379.7 482.421 2378.58 483.326H2378.55C2378.03 483.741 2377.48 484.155 2376.94 484.555V484.57C2375.34 485.799 2373.67 487.026 2372.01 488.239C2372 488.239 2371.99 488.241 2371.99 488.244C2371.98 488.246 2371.98 488.25 2371.98 488.255C2370.65 489.237 2369.26 490.189 2367.89 491.141V491.157C2366.97 491.755 2366.11 492.37 2365.2 492.969C2364.47 493.46 2363.72 493.967 2362.96 494.458C2362.81 494.566 2362.62 494.658 2362.47 494.77V494.785C2362.26 494.924 2362.05 495.046 2361.84 495.185C2358.63 497.273 2355.32 499.315 2351.91 501.311L2351.37 501.633C2351.19 501.74 2350.98 501.848 2350.79 501.97C2350.49 502.14 2350.22 502.308 2349.92 502.477C2349.62 502.647 2349.34 502.815 2349.04 502.984C2331.27 513.142 2311.12 522.16 2289.03 529.838C2286.1 530.866 2283.1 531.86 2280.11 532.832C2279.35 533.077 2278.59 533.323 2277.84 533.553C2277.63 533.629 2277.39 533.709 2277.17 533.783C2276.75 533.906 2276.36 534.029 2275.95 534.168C2275.54 534.306 2275.16 534.413 2274.74 534.536C2273.14 535.043 2271.5 535.535 2269.87 536.026C2269.48 536.149 2269.05 536.272 2268.64 536.395C2268.23 536.518 2267.82 536.625 2267.42 536.748C2267.42 536.763 2267.42 536.763 2267.38 536.763H2267.35V536.779H2267.32C2265.3 537.377 2263.24 537.96 2261.15 538.529C2260.03 538.84 2258.88 539.151 2257.73 539.449C2255.13 540.171 2252.49 540.861 2249.86 541.522C2248.92 541.753 2247.95 541.989 2247.02 542.229C2246.23 542.412 2245.44 542.613 2244.66 542.796C2244.41 542.857 2244.2 542.904 2243.99 542.966C2243.33 543.121 2242.69 543.277 2242.02 543.432C2241.3 543.602 2240.57 543.77 2239.88 543.939C2239.06 544.123 2238.27 544.308 2237.46 544.476C2234.43 545.166 2231.37 545.827 2228.32 546.456C2217.37 548.734 2206.17 550.702 2194.79 552.352C2194.28 552.428 2193.73 552.507 2193.19 552.582C2188.32 553.273 2183.41 553.902 2178.47 554.47C2169.85 555.483 2161.15 556.313 2152.36 556.959H2152.3L2149.15 557.189C2149.06 557.189 2148.97 557.204 2148.85 557.204C2148.85 557.22 2148.85 557.22 2148.82 557.204L2145.34 557.434C2145.26 557.446 2145.18 557.451 2145.09 557.45C2144.01 557.526 2142.88 557.588 2141.8 557.649L2138.26 557.833L2135.53 557.971C2135.46 557.985 2135.37 557.99 2135.29 557.986C2134.47 558.018 2133.66 558.063 2132.84 558.094H2132.72L2130.6 558.186C2122.16 558.523 2113.69 558.677 2105.09 558.677C2095.8 558.677 2086.57 558.494 2077.47 558.094H2077.37L2071.53 557.817C2071.02 557.786 2070.54 557.77 2070.02 557.741C2069.93 557.741 2069.81 557.725 2069.71 557.725C2069.56 557.71 2069.41 557.71 2069.23 557.694C2069.15 557.696 2069.07 557.69 2068.99 557.679C2068.32 557.647 2067.66 557.602 2066.96 557.571L2064.69 557.433C2063.94 557.386 2063.18 557.326 2062.42 557.277C2062.24 557.262 2062.09 557.262 2061.91 557.246C2061.36 557.215 2060.82 557.17 2060.28 557.123L2059.49 557.077C2058.94 557.03 2058.43 557 2057.89 556.954H2057.85C2041.25 555.742 2024.86 553.87 2008.84 551.355C2007.99 551.216 2007.14 551.094 2006.29 550.955C2006.26 550.955 2006.23 550.94 2006.2 550.94C2005.96 550.893 2005.69 550.863 2005.44 550.817C2003.18 550.448 2000.94 550.064 1998.7 549.666C1995.61 549.143 1992.57 548.577 1989.51 547.992C1988.69 547.823 1987.87 547.67 1987.05 547.501C1985.39 547.179 1983.76 546.841 1982.12 546.502C1979.34 545.935 1976.56 545.336 1973.8 544.722C1971.23 544.138 1968.69 543.555 1966.14 542.941C1966.08 542.925 1965.99 542.925 1965.92 542.894C1965.35 542.756 1964.78 542.617 1964.23 542.479H1964.2C1950.26 539.086 1936.82 535.191 1923.98 530.825C1919.87 529.429 1915.81 527.985 1911.82 526.495C1908.61 525.282 1905.46 524.054 1902.32 522.795C1886.79 516.53 1872.42 509.561 1859.38 501.977V501.961C1858.44 501.439 1857.56 500.902 1856.66 500.364C1856.51 500.288 1856.38 500.208 1856.26 500.149C1855.69 499.796 1855.14 499.459 1854.57 499.121V499.106C1853.81 498.661 1853.05 498.2 1852.33 497.739C1852.15 497.631 1851.99 497.539 1851.84 497.446V497.431C1851.23 497.062 1850.66 496.693 1850.06 496.309C1849.75 496.126 1849.48 495.941 1849.18 495.757V495.742C1847.4 494.606 1845.67 493.469 1843.95 492.303C1843.49 491.992 1843.03 491.681 1842.56 491.351C1840.38 489.861 1838.26 488.342 1836.2 486.822V486.807C1835.41 486.239 1834.67 485.656 1833.87 485.086L1831.6 483.337C1830.85 482.722 1830.07 482.124 1829.3 481.509L1829.21 481.418C1828.46 480.834 1827.7 480.22 1826.97 479.621C1826.4 479.13 1825.82 478.654 1825.25 478.178C1824.88 477.856 1824.49 477.532 1824.13 477.195C1823.99 477.091 1823.85 476.984 1823.73 476.873L1821.19 474.616C1820.19 473.741 1819.23 472.851 1818.26 471.96C1817.9 471.591 1817.5 471.223 1817.11 470.854C1816.96 470.731 1816.83 470.608 1816.72 470.486C1816.26 470.056 1815.8 469.61 1815.39 469.165C1814.97 468.72 1814.47 468.29 1814.02 467.845C1813.58 467.4 1813.15 466.969 1812.72 466.524C1812.39 466.187 1812.09 465.849 1811.76 465.51C1811.73 465.483 1811.7 465.457 1811.66 465.434C1811.51 465.265 1811.36 465.112 1811.24 464.958C1811.2 464.935 1811.17 464.909 1811.15 464.882C1810.81 464.544 1810.51 464.191 1810.18 463.854C1809.76 463.409 1809.36 462.949 1808.95 462.502C1808.68 462.191 1808.38 461.88 1808.11 461.551C1807.72 461.106 1807.29 460.659 1806.93 460.199C1806.51 459.732 1806.11 459.278 1805.72 458.799C1805.6 458.685 1805.5 458.567 1805.41 458.446C1805.2 458.232 1805.05 458.017 1804.87 457.801C1804.38 457.233 1803.9 456.65 1803.44 456.081C1802.9 455.435 1802.39 454.776 1801.91 454.13C1801.43 453.532 1800.97 452.917 1800.52 452.303L1800.34 452.088C1793.29 442.666 1787.94 432.938 1784.36 423.025V423.009C1782.34 417.348 1780.9 411.638 1780.03 405.902C1780 405.58 1779.94 405.279 1779.91 404.968C1779.37 401.08 1779.13 397.192 1779.13 393.27C1779.13 391.534 1779.19 389.815 1779.28 388.095C1781.39 352.133 1806.66 317.512 1851.23 289.529C1852.2 288.914 1853.17 288.3 1854.17 287.686C1855.17 287.071 1856.2 286.473 1857.19 285.874C1890.37 266.164 1932.2 250.684 1979.33 240.683C2026.45 230.681 2077.55 226.438 2128.5 228.295C2179.45 230.152 2228.83 238.058 2272.65 251.374C2316.48 264.69 2353.52 283.045 2380.8 304.958C2382.28 306.156 2383.77 307.369 2385.19 308.582C2386.61 309.795 2388.03 311.038 2389.42 312.282C2416.83 337.007 2431.19 364.904 2431.11 393.271L2431.09 393.265Z" fill="#9AD1D4"/>
<path d="M2233.37 302.51C2233.61 302.489 2233.85 302.472 2234.08 302.45C2233.08 302.135 2232.14 301.775 2231.27 301.374L2233.37 302.51Z" fill="white"/>
<path d="M2050.72 460.596L2133.38 455.989L2153.05 492.726L2074.77 502.048L2050.72 460.596Z" fill="#ED9DA0"/>
<path d="M2071.35 471.783C2125.43 471.783 2169.26 449.044 2169.26 420.995C2169.26 392.946 2125.43 370.208 2071.35 370.208C2017.28 370.208 1973.44 392.946 1973.44 420.995C1973.44 449.044 2017.28 471.783 2071.35 471.783Z" fill="#ED9DA0"/>
<path d="M2280.3 537.715C2277.46 538.502 2274.59 539.255 2271.72 539.973C2270.7 540.224 2269.64 540.476 2268.62 540.743C2267.76 540.944 2266.9 541.162 2266.05 541.365C2265.78 541.432 2265.55 541.482 2265.32 541.549C2264.59 541.717 2263.9 541.883 2263.17 542.051C2262.38 542.235 2261.59 542.42 2260.83 542.603C2259.94 542.804 2259.08 543.005 2258.19 543.188C2254.89 543.941 2251.56 544.661 2248.23 545.347C2236.3 547.829 2224.1 549.974 2211.69 551.772C2211.13 551.856 2210.54 551.94 2209.95 552.022C2204.63 552.775 2199.29 553.461 2193.92 554.08C2184.52 555.184 2175.03 556.087 2165.46 556.79H2165.39L2161.96 557.041C2161.86 557.041 2161.76 557.058 2161.63 557.058C2161.63 557.075 2161.63 557.075 2161.6 557.058L2157.81 557.308C2157.72 557.321 2157.63 557.327 2157.54 557.326C2156.36 557.41 2155.14 557.481 2153.95 557.543L2150.09 557.744L2147.12 557.899C2147.04 557.914 2146.95 557.92 2146.86 557.916C2145.96 557.949 2145.08 558 2144.19 558.033H2144.06L2141.75 558.134C2132.55 558.503 2123.31 558.669 2113.95 558.669C2103.83 558.669 2093.76 558.469 2083.84 558.033H2083.76L2077.39 557.731C2076.83 557.697 2076.3 557.682 2075.74 557.647C2075.65 557.647 2075.51 557.63 2075.41 557.63C2075.25 557.613 2075.08 557.613 2074.89 557.596C2074.8 557.598 2074.71 557.592 2074.62 557.579C2073.9 557.546 2073.17 557.495 2072.41 557.462L2069.94 557.307C2069.11 557.257 2068.29 557.19 2067.46 557.139C2067.26 557.122 2067.1 557.122 2066.9 557.106C2066.31 557.072 2065.72 557.022 2065.12 556.972L2064.26 556.923C2063.67 556.873 2063.11 556.839 2062.52 556.789H2062.48C2044.39 555.467 2026.52 553.425 2009.06 550.681C2008.14 550.526 2007.22 550.397 2006.3 550.246C2010.56 540.17 2019.32 530.726 2031.92 522.643C2044.52 514.56 2060.61 508.054 2078.95 503.628C2074.41 501.435 2071.27 498.603 2069.94 495.496C2069.09 493.493 2069.02 491.425 2069.74 489.409C2070.47 487.393 2071.97 485.469 2074.16 483.749C2078.44 480.415 2085.16 478.08 2092.83 477.257L2141.69 472.07C2149.56 471.292 2157.71 472.121 2164.38 474.377C2171.05 476.633 2175.7 480.133 2177.31 484.118C2177.81 485.339 2178.03 486.585 2177.97 487.831C2225.03 503.731 2258.9 520.212 2280.3 537.715Z" fill="#007EA7"/>
<path d="M2333.35 398.968C2316.71 389.12 2308.8 376.054 2295.49 364.872C2282.19 353.69 2259.03 343.68 2234.57 346.283C2217.72 348.078 2204.68 355.628 2198.1 364.043C2191.51 372.459 2190.27 381.742 2189.11 390.834C2189.52 372.148 2165.25 354.032 2131.83 348.064C2098.41 342.097 2058.41 348.753 2037.42 363.772C2028.26 359.462 2016.29 357.008 2003.8 356.875C1991.31 356.742 1979.15 358.94 1969.64 363.051C1950.85 371.571 1946.69 387.78 1960.51 398.651C1974.32 409.522 2004.24 413.566 2026.2 407.539L2033.96 411.161C2029.59 418.914 2038.07 428.073 2052.31 430.993C2063.86 433.36 2080.16 432.966 2084.49 439.116C2087.51 443.413 2081.87 447.999 2075.86 451.301C2069.86 454.603 2062.73 458.012 2062.01 462.582C2060.92 469.476 2074.96 474.305 2087.73 475.759C2118.5 479.267 2152.65 472.035 2170.39 458.253C2170.73 457.988 2171.1 457.722 2171.51 457.456C2181.46 450.998 2188.71 443.578 2192.82 435.65C2196.94 427.722 2197.82 419.452 2195.42 411.345C2194.42 408.16 2195.42 405.791 2199.75 405.037C2218.45 401.771 2270.87 408.614 2286.74 414.804C2302.61 420.994 2315.31 429.173 2330.57 435.758C2345.84 442.343 2365.32 447.423 2384.73 445.628C2400.26 444.192 2413.48 438.474 2422.37 431.563C2431.26 424.653 2436.38 416.613 2440.96 408.614C2406.58 418.684 2359.56 414.468 2333.35 398.968Z" fill="#2F2E41"/>
<path d="M320.332 290.398C320.332 294.13 320.574 297.863 321.089 301.56C321.635 305.982 322.573 310.372 323.848 314.733C328.119 329.414 336.282 343.735 348.116 357.307L349.93 359.329L350.85 360.343C351.156 360.68 351.484 361.018 351.788 361.341C352.211 361.786 352.606 362.217 353.014 362.646C353.529 363.184 354.044 363.721 354.586 364.259C354.648 364.32 354.706 364.397 354.798 364.474C355.251 364.94 355.674 365.379 356.159 365.841C356.249 365.941 356.351 366.039 356.465 366.133C356.98 366.656 357.526 367.192 358.068 367.715C358.681 368.267 359.249 368.836 359.852 369.388C361.305 370.755 362.816 372.105 364.361 373.457C364.815 373.857 365.281 374.255 365.753 374.654C366.176 375.023 366.599 375.392 367.053 375.76C367.359 376.006 367.666 376.267 367.972 376.513C368.456 376.928 368.941 377.326 369.456 377.742C370.575 378.647 371.724 379.554 372.846 380.459H372.877C373.391 380.874 373.934 381.288 374.48 381.687V381.703C376.083 382.932 377.747 384.159 379.412 385.372C379.418 385.37 379.426 385.37 379.433 385.372C379.436 385.375 379.436 385.379 379.433 385.383C380.763 386.366 382.155 387.317 383.519 388.269V388.285C384.439 388.884 385.303 389.498 386.213 390.097C386.94 390.588 387.697 391.095 388.451 391.587C388.601 391.694 388.785 391.786 388.935 391.898V391.913C389.147 392.052 389.358 392.175 389.57 392.313C392.778 394.401 396.086 396.443 399.495 398.439L400.041 398.761C400.221 398.868 400.433 398.976 400.617 399.099C400.923 399.268 401.193 399.436 401.494 399.606C401.794 399.775 402.07 399.943 402.37 400.113C420.142 410.27 440.293 419.288 462.375 426.966C465.312 427.994 468.307 428.988 471.301 429.96C472.058 430.205 472.815 430.451 473.57 430.681C473.781 430.758 474.023 430.837 474.235 430.912C474.658 431.034 475.053 431.157 475.461 431.296C475.868 431.434 476.248 431.541 476.672 431.664C478.275 432.171 479.908 432.663 481.542 433.154C481.934 433.277 482.361 433.4 482.768 433.523C483.176 433.646 483.587 433.753 483.994 433.876C483.994 433.891 483.994 433.891 484.025 433.891H484.056V433.907H484.086C486.113 434.505 488.171 435.089 490.26 435.657C491.379 435.968 492.528 436.279 493.681 436.577C496.283 437.299 498.916 437.99 501.549 438.651C502.487 438.881 503.456 439.117 504.394 439.357C505.181 439.54 505.966 439.741 506.754 439.924C506.996 439.985 507.207 440.032 507.419 440.094C508.084 440.249 508.719 440.405 509.387 440.56C510.113 440.73 510.84 440.898 511.532 441.067C512.351 441.251 513.136 441.436 513.954 441.606C516.979 442.296 520.035 442.957 523.091 443.585C534.044 445.864 545.237 447.832 556.619 449.481C557.134 449.558 557.676 449.637 558.222 449.712C563.094 450.402 567.998 451.032 572.935 451.6C581.559 452.613 590.263 453.442 599.048 454.088H599.109L602.257 454.318C602.349 454.318 602.438 454.334 602.564 454.334C602.564 454.349 602.564 454.349 602.594 454.334L606.073 454.564C606.152 454.576 606.234 454.581 606.316 454.58C607.404 454.656 608.526 454.718 609.614 454.779L613.154 454.962L615.876 455.101C615.954 455.114 616.036 455.12 616.118 455.116C616.937 455.147 617.752 455.192 618.57 455.224H618.69L620.808 455.315C629.25 455.653 637.722 455.807 646.317 455.807C655.608 455.807 664.834 455.623 673.944 455.224H674.036L679.875 454.947C680.39 454.916 680.874 454.9 681.389 454.87C681.481 454.87 681.601 454.855 681.696 454.855C681.846 454.839 682.002 454.839 682.18 454.824C682.262 454.825 682.344 454.82 682.422 454.808C683.087 454.777 683.753 454.732 684.448 454.701L686.717 454.563C687.474 454.516 688.231 454.455 688.985 454.407C689.166 454.391 689.319 454.391 689.5 454.376C690.046 454.345 690.588 454.3 691.134 454.253L691.921 454.206C692.467 454.16 692.979 454.13 693.525 454.083H693.555C710.159 452.872 726.549 451 742.575 448.485C743.421 448.346 744.27 448.223 745.116 448.085C745.146 448.085 745.177 448.069 745.207 448.069C745.45 448.023 745.722 447.993 745.965 447.946C748.233 447.578 750.474 447.194 752.708 446.795C755.795 446.273 758.839 445.707 761.904 445.122C762.722 444.953 763.538 444.8 764.356 444.631C766.02 444.309 767.654 443.971 769.288 443.632C772.071 443.064 774.854 442.466 777.61 441.851C780.182 441.268 782.723 440.685 785.273 440.071C785.335 440.055 785.423 440.055 785.485 440.024C786.061 439.885 786.634 439.747 787.18 439.609H787.21C801.146 436.215 814.585 432.321 827.426 427.955C831.542 426.558 835.596 425.115 839.589 423.625C842.795 422.412 845.943 421.183 849.091 419.925C864.617 413.659 878.988 406.691 892.029 399.106V399.091C892.967 398.568 893.844 398.032 894.751 397.494C894.901 397.417 895.024 397.338 895.143 397.279C895.72 396.926 896.262 396.588 896.839 396.251V396.235C897.596 395.791 898.353 395.33 899.076 394.868C899.257 394.761 899.41 394.669 899.56 394.576V394.56C900.174 394.192 900.741 393.823 901.344 393.439C901.651 393.255 901.921 393.07 902.221 392.887V392.871C904.005 391.736 905.731 390.599 907.456 389.433C907.91 389.122 908.376 388.81 908.848 388.481C911.028 386.991 913.139 385.471 915.202 383.952V383.936C915.99 383.369 916.735 382.785 917.532 382.216L919.8 380.466C920.557 379.852 921.333 379.253 922.099 378.639L922.191 378.547C922.948 377.964 923.705 377.35 924.429 376.751C925.005 376.259 925.578 375.784 926.154 375.308C926.516 374.986 926.912 374.662 927.273 374.325C927.415 374.221 927.546 374.113 927.666 374.003L930.207 371.746C931.206 370.87 932.175 369.981 933.143 369.09C933.505 368.721 933.9 368.352 934.293 367.984C934.443 367.861 934.565 367.738 934.685 367.615C935.139 367.186 935.605 366.74 936.015 366.295C936.426 365.85 936.935 365.419 937.376 364.974C937.818 364.53 938.253 364.099 938.676 363.654C939.01 363.317 939.31 362.979 939.645 362.64C939.668 362.613 939.699 362.587 939.737 362.564C939.887 362.394 940.043 362.242 940.16 362.088C940.197 362.065 940.228 362.039 940.251 362.012C940.586 361.674 940.886 361.321 941.22 360.984C941.643 360.539 942.039 360.078 942.446 359.632C942.719 359.321 943.022 359.01 943.292 358.68C943.685 358.235 944.111 357.789 944.472 357.329C944.895 356.862 945.291 356.408 945.683 355.929C945.798 355.814 945.9 355.696 945.99 355.576C946.201 355.361 946.351 355.147 946.535 354.931C947.019 354.363 947.504 353.78 947.957 353.21C948.503 352.565 949.018 351.906 949.49 351.26C949.974 350.661 950.428 350.047 950.882 349.433L951.063 349.218C958.113 339.796 963.46 330.068 967.038 320.155V320.139C969.058 314.478 970.502 308.768 971.367 303.031C971.397 302.709 971.459 302.409 971.489 302.098C972.035 298.21 972.277 294.322 972.277 290.399C972.277 288.664 972.216 286.945 972.127 285.225C970.014 249.263 944.74 214.641 900.17 186.658C899.202 186.044 898.233 185.43 897.234 184.815C896.235 184.201 895.208 183.602 894.209 183.003C861.037 163.293 819.203 147.814 772.077 137.812C724.952 127.811 673.854 123.568 622.904 125.425C571.953 127.282 522.576 135.187 478.752 148.504C434.928 161.82 397.883 180.175 370.605 202.088C369.122 203.286 367.641 204.499 366.219 205.712C364.797 206.925 363.374 208.168 361.983 209.412C334.573 234.136 320.214 262.033 320.296 290.399L320.332 290.398Z" fill="#9AD1D4"/>
<path d="M518.055 199.643C517.816 199.622 517.577 199.605 517.341 199.583C518.342 199.268 519.285 198.908 520.158 198.507L518.055 199.643Z" fill="white"/>
<path d="M629.152 334.7H705.169L701.933 384.657L615.891 381.238L629.152 334.7Z" fill="#9E616A"/>
<path d="M493.717 435.215C496.684 436.046 499.682 436.84 502.683 437.601C503.753 437.865 504.856 438.131 505.926 438.414C506.824 438.626 507.719 438.856 508.617 439.068C508.893 439.138 509.135 439.192 509.375 439.262C510.135 439.439 510.858 439.615 511.615 439.792C512.443 439.987 513.27 440.181 514.067 440.376C514.987 440.587 515.907 440.8 516.826 440.998C520.274 441.792 523.76 442.553 527.248 443.276C539.726 445.897 552.483 448.162 565.459 450.06C566.045 450.149 566.667 450.238 567.298 450.325C572.85 451.12 578.437 451.846 584.059 452.502C593.888 453.669 603.809 454.622 613.822 455.364H613.89L617.476 455.628C617.58 455.628 617.685 455.645 617.823 455.645C617.823 455.662 617.823 455.662 617.856 455.645L621.823 455.91C621.912 455.923 622.005 455.929 622.099 455.927C623.34 456.015 624.615 456.082 625.857 456.157L629.89 456.368L632.995 456.524C633.084 456.54 633.178 456.545 633.271 456.541C634.191 456.577 635.135 456.63 636.064 456.665H636.202L638.617 456.771C648.239 457.16 657.894 457.336 667.691 457.336C678.278 457.336 688.798 457.124 699.177 456.664H699.281L705.936 456.353C706.521 456.317 707.073 456.3 707.662 456.264C707.766 456.264 707.904 456.247 708.008 456.247C708.18 456.23 708.354 456.23 708.56 456.211C708.653 456.213 708.746 456.208 708.836 456.194C709.596 456.158 710.368 456.106 711.147 456.071L713.734 455.916C714.595 455.863 715.459 455.791 716.321 455.739C716.529 455.721 716.701 455.721 716.906 455.703C717.519 455.667 718.132 455.614 718.77 455.561L719.668 455.508C720.281 455.455 720.876 455.42 721.507 455.367H721.541C740.464 453.966 759.139 451.806 777.389 448.906C778.355 448.751 779.321 448.606 780.286 448.44C775.884 437.834 766.746 427.881 753.574 419.348C740.402 410.815 723.548 403.928 704.308 399.219C709.061 396.896 712.34 393.906 713.725 390.632C715.534 386.364 713.947 381.907 709.311 378.23C707.107 376.492 704.248 374.991 700.899 373.815C697.549 372.639 693.774 371.81 689.791 371.376L638.681 365.9C630.42 365.091 621.863 365.975 614.883 368.359C607.903 370.743 603.068 374.433 601.436 378.621C600.914 379.911 600.683 381.226 600.746 382.543C551.518 399.327 516.1 416.736 493.717 435.215Z" fill="#007EA7"/>
<path d="M651.859 363.107C712.142 363.107 761.012 338.311 761.012 307.724C761.012 277.136 712.142 252.341 651.859 252.341C591.575 252.341 542.706 277.136 542.706 307.724C542.706 338.311 591.575 363.107 651.859 363.107Z" fill="#9E616A"/>
<path d="M636.352 360.147C609.025 363.892 578.897 358.914 557.575 349.469C536.254 340.024 522.911 326.644 515.223 312.82C509.592 302.697 506.925 291.46 515.808 281.956C524.692 272.452 548.606 266.041 567.047 270.841C555.669 264.114 561.352 252.988 574.643 247.235C587.933 241.482 606.181 239.83 623.561 238.928C648.784 237.618 674.839 237.472 698.843 241.619C722.847 245.765 744.653 254.829 752.178 267.125C759.85 268.938 768.49 269.408 776.745 268.462C785.001 267.517 792.405 265.208 797.798 261.899C799.191 265.7 798.075 269.628 794.624 273.075C791.172 276.521 785.577 279.294 778.704 280.964L815.487 274.914C821.811 281.707 810.73 290.113 796.556 292.289C782.383 294.465 767.087 292.087 753.643 288.944C740.199 285.801 727.163 281.829 712.554 280.603C697.945 279.377 680.785 281.759 674.03 288.443C670.489 291.944 670.305 296.045 668.252 299.839C666.198 303.632 660.993 307.567 653.26 307.878C648.377 308.074 643.592 306.753 638.721 307.024C635.733 307.323 632.982 308.058 630.805 309.138C628.627 310.219 627.117 311.598 626.46 313.106C625.249 316.134 625.234 319.253 626.417 322.283L635.76 358.52L636.352 360.147Z" fill="#2F2E41"/>
<path d="M32.2125 496.903C36.4957 496.533 40.8881 496.655 45.0659 497.261C49.2436 497.866 53.1002 498.94 56.3513 500.403L56.529 500.484L56.6946 500.41C59.7962 499.028 63.4434 497.996 67.393 497.385C71.3425 496.774 75.5034 496.598 79.598 496.868L80.7873 496.956C85.9477 497.408 90.7711 498.56 94.7468 500.289C98.7224 502.018 101.702 504.261 103.371 506.779C105.039 509.298 105.334 511.999 104.224 514.595C103.115 517.192 100.641 519.588 97.0668 521.529L96.1963 521.984L95.9633 522.085L59.8977 540.21C59.0655 540.627 57.9631 540.878 56.7948 540.915C55.6265 540.952 54.4714 540.772 53.5435 540.41L53.0899 540.21L16.8435 521.985C13.0016 520.089 10.2691 517.69 8.94891 515.054C7.62868 512.419 7.77214 509.649 9.3634 507.052C10.9547 504.455 13.9316 502.132 17.9645 500.341C21.9974 498.55 26.9288 497.36 32.2125 496.903Z" fill="#003249"/>
<path d="M1677.38 339.726C1673.67 339.726 1670.11 339.009 1667.41 337.718C1664.72 336.427 1663.1 334.661 1662.88 332.783L1662.84 332.347V309.109L1708.57 324.579L1709.13 324.733C1709.79 324.902 1710.52 324.99 1711.26 324.99C1712 324.99 1712.73 324.902 1713.39 324.733L1713.95 324.579L1759.68 309.109V332.347C1759.68 334.228 1758.26 336.037 1755.72 337.405C1753.18 338.773 1749.7 339.594 1746 339.701L1745.14 339.726H1677.38ZM1665 303.932C1666.21 302.93 1667.88 302.09 1669.87 301.483C1671.85 300.877 1674.09 300.52 1676.41 300.445L1677.38 300.423H1745.14C1747.62 300.423 1750.06 300.746 1752.22 301.36C1754.39 301.975 1756.21 302.859 1757.51 303.932L1711.25 319.573L1665 303.932Z" fill="#003249"/>
<path d="M516.339 595.534C521.475 595.534 526.401 596.569 530.033 598.412C533.665 600.255 535.705 602.754 535.705 605.36V625.012C535.705 627.618 533.665 630.118 530.033 631.96C526.401 633.803 521.475 634.838 516.339 634.838H493.466L470.412 641.857C469.718 642.069 468.93 642.189 468.121 642.206C467.311 642.223 466.507 642.137 465.78 641.955C465.053 641.773 464.428 641.502 463.962 641.166C463.496 640.83 463.203 640.44 463.111 640.032L463.083 639.752V634.838H458.24C453.273 634.838 448.495 633.87 444.896 632.133C441.296 630.396 439.149 628.024 438.899 625.507L438.874 625.012V605.36C438.874 602.754 440.915 600.255 444.546 598.412C448.178 596.569 453.104 595.534 458.24 595.534H516.339ZM496.973 617.642H467.923C466.639 617.642 465.408 617.901 464.5 618.361C463.592 618.822 463.082 619.447 463.082 620.098C463.082 620.75 463.592 621.375 464.5 621.835C465.408 622.296 466.639 622.555 467.923 622.555H496.973C498.257 622.555 499.488 622.296 500.396 621.835C501.304 621.375 501.814 620.75 501.814 620.098C501.814 619.447 501.304 618.822 500.396 618.361C499.488 617.901 498.257 617.642 496.973 617.642ZM506.656 607.82H467.923C466.639 607.82 465.408 608.079 464.5 608.54C463.592 609.001 463.082 609.625 463.082 610.277C463.082 610.928 463.592 611.553 464.5 612.014C465.408 612.475 466.639 612.733 467.923 612.733H506.656C507.94 612.733 509.171 612.475 510.079 612.014C510.987 611.553 511.497 610.928 511.497 610.277C511.497 609.625 510.987 609.001 510.079 608.54C509.171 608.079 507.94 607.82 506.656 607.82Z" fill="#003249"/>
<path d="M467.761 518.808C483.715 518.808 496.648 512.246 496.648 504.151C496.648 496.056 483.715 489.494 467.761 489.494C451.807 489.494 438.874 496.056 438.874 504.151C438.874 512.246 451.807 518.808 467.761 518.808Z" fill="#E6E6E6"/>
</g>
<defs>
<clipPath id="clip0_13_117">
<rect width="2449" height="921" fill="white"/>
</clipPath>
</defs>
</svg>
